<svg xmlns="http://www.w3.org/2000/svg" fill="#abb0bc" viewBox="0 0 462 462" enable-background="new 0 0 462 462"><linearGradient x1="231.814" x2="231.814" y1="-2.163" y2="457.438" gradientUnits="userSpaceOnUse"><stop offset="0" stop-color="#4DD0FF"/><stop offset="1" stop-color="#5D1BB0"/></linearGradient><path d="M231.8 33.3c109 0 197.6 88.7 197.6 197.6s-88.7 197.6-197.6 197.6S34.2 339.9 34.2 231 122.8 33.3 231.8 33.3m0-32.9C104.5.4 1.2 103.6 1.2 231s103.2 230.6 230.6 230.6S462.4 358.3 462.4 231 359.2.4 231.8.4z" class="st0"/><linearGradient id="a" x1="231.814" x2="231.814" y1="261.781" y2="5.499" gradientUnits="userSpaceOnUse"><stop offset="0" stop-color="#fff" stop-opacity="0"/><stop offset="1" stop-color="#fff"/></linearGradient><path fill="url(#a)" d="M185.8 38.8c14.8-3.5 30.2-5.4 46-5.4s31.2 1.9 46 5.4c100 20.2 176.4 105.1 184 209.1.4-5.6.6-11.2.6-16.9C462.4 103.7 359.2.4 231.8.4S1.2 103.6 1.2 231c0 5.7.2 11.3.6 16.9 7.6-104 84.1-188.9 184-209.1z" opacity=".3"/><linearGradient x1="231.814" x2="231.814" y1="448.428" y2="276.794" gradientUnits="userSpaceOnUse"><stop offset="0" stop-opacity=".5"/><stop offset=".996" stop-opacity="0"/></linearGradient><path d="M429.4 264.7c0-5.7-.3-11.3-.7-16.9-8.6 101.1-93.6 180.8-196.9 180.8S43.5 349 34.9 247.9c-.5 5.6-.7 11.2-.7 16.9 0 93.1 64.8 171.4 151.6 192.2 14.9 3 30.3 4.6 46 4.6s31.1-1.6 46-4.6c86.9-20.8 151.6-99.1 151.6-192.3z" class="st2"/><linearGradient x1="115.872" x2="115.872" y1="98.595" y2="350.149" gradientUnits="userSpaceOnUse"><stop offset="0" stop-color="#4DD0FF"/><stop offset="1" stop-color="#5D1BB0"/></linearGradient><path d="M34.2 36.1c93.4 15.7 164.7 97.1 164.7 194.9S127.5 410.1 34.2 425.9V36.1M1.2.4v461.1c127.3 0 229.3-103.2 229.3-230.6S128.6.4 1.2.4z" class="st3"/><path d="M35 2.3v.4c4 .6 8.9 1.4 13.3 2.3C43.9 4 39 3.1 35 2.3z" class="st51"/><linearGradient x1="197.667" x2="41.885" y1="303.424" y2="445.225" gradientUnits="userSpaceOnUse"><stop offset="0" stop-color="#4DD0FF"/><stop offset="1" stop-color="#5D1BB0"/></linearGradient><path d="M46.9 423.1c-4.4 1.1-8.9 2-12.9 2.7v-.4c-12 1.5-22.8 2.4-34 2.4v33.8c127.7 0 230.7-103.2 230.7-230.6 0-5.7.1-11.3-.4-16.9-6.3 104.7-83.6 188.7-183.4 209z" class="st4"/><linearGradient x1="225.697" x2="139.364" y1="219.093" y2="339.633" gradientUnits="userSpaceOnUse"><stop offset="0" stop-color="#fff" stop-opacity="0"/><stop offset="1" stop-color="#fff" stop-opacity=".6"/></linearGradient><path d="M34 425.9c171-30.5 185.4-230 185.4-230s8.1 14.6 10.5 33.8C204.7 379.7 75.5 422.5 34 425.9z" class="st5"/><linearGradient x1="225.643" x2="35.06" y1="299.087" y2="447.319" gradientUnits="userSpaceOnUse"><stop offset="0" stop-opacity=".4"/><stop offset="1" stop-opacity="0"/></linearGradient><path d="M34 425.9s152 4.6 196.2-178.9C210.8 436.8 34 459.9 34 459.9v-34z" class="st6"/><linearGradient x1="225.911" x2="36.175" y1="299.173" y2="446.745" gradientUnits="userSpaceOnUse"><stop offset="0" stop-opacity=".4"/><stop offset="1" stop-opacity="0"/></linearGradient><path d="M34.8 446.5S204.3 431.7 230.3 247C212.5 413.2 74.5 456 34.8 458.8v-12.3z" class="st7"/><linearGradient x1="13.82" x2="20.826" y1="445.131" y2="38.833" gradientUnits="userSpaceOnUse"><stop offset="0" stop-color="#4DD0FF"/><stop offset="1" stop-color="#5D1BB0"/></linearGradient><path d="M34.5 391.8v-356S12.4 25.5 0 33.9V462c11.3 0 22.4-1.4 34.5-2.9v-67.3z" class="st8"/><linearGradient x1="17.194" x2="17.194" y1="37.47" y2="91.884" gradientUnits="userSpaceOnUse"><stop offset="0" stop-opacity=".2"/><stop offset="1" stop-opacity="0"/></linearGradient><path d="M34.4 36.9C20.4 34.4 0 34.5 0 34.5V96l34.4.6V36.9z" class="st10"/><linearGradient x1="17.502" x2="17.502" y1="35.137" y2="367.569" gradientUnits="userSpaceOnUse"><stop offset="0" stop-opacity=".2"/><stop offset="1" stop-opacity="0"/></linearGradient><path d="M34.1 35.8c-32.1 86.6-44.4 292.7.9 424-10.8 3.2-34 1.7-34 1.7L0 34.6s15.7-.3 34.1 1.2z" class="st11"/><linearGradient x1="17.385" x2="17.385" y1="35.156" y2="367.653" gradientUnits="userSpaceOnUse"><stop offset="0" stop-opacity=".2"/><stop offset="1" stop-opacity="0"/></linearGradient><path d="M34.4 69.2c-32.1 86.6-46.7 224.2-.2 356.7.7 6.6.8 27.2.3 33.3C21.5 460.6 0 462 0 462V34.6s27.8.2 34.4 2.3v32.3z" class="st12"/><linearGradient x1="17.181" x2="17.181" y1="35.119" y2="367.649" gradientUnits="userSpaceOnUse"><stop offset="0" stop-color="#fff" stop-opacity="0"/><stop offset="1" stop-color="#fff" stop-opacity=".2"/></linearGradient><path d="M33.3 36.7c-32.1 86.6-44.2 291 1 422.4C23.5 462.3 0 462 0 462V34.6s14.8-.5 33.3 2.1z" class="st13"/><linearGradient x1="23.37" x2="260.511" y1=".925" y2="215.053" gradientUnits="userSpaceOnUse"><stop offset="0" stop-color="#4DD0FF"/><stop offset="1" stop-color="#5D1BB0"/></linearGradient><path d="M230 247.8c.4-5.3.8-14.9.8-20.2C230.8 103.8 127.7 0 0 0v34.4c122.6 0 221.8 93.5 230 213.4z" class="st14"/><linearGradient x1="200.624" x2="5.19" y1="147.056" y2="26.957" gradientUnits="userSpaceOnUse"><stop offset="0" stop-color="#fff" stop-opacity="0"/><stop offset="1" stop-color="#fff" stop-opacity=".1"/></linearGradient><path d="M0 34.5c202.2 11.8 229.4 128.2 229.9 195.1C236.4 186.5 194.1 5.7 0 0v34.5z" class="st15"/><linearGradient x1="199.918" x2="-9.709" y1="147.378" y2="15.27" gradientUnits="userSpaceOnUse"><stop offset="0" stop-color="#fff" stop-opacity="0"/><stop offset="1" stop-color="#fff" stop-opacity=".2"/></linearGradient><path d="M0 9c170.5 3.2 231 148.7 229.9 220.7C236.4 186.5 186.2 2.5 0 0v9z" class="st16"/><linearGradient x1="-115.028" x2="-115.028" y1="98.595" y2="350.149" gradientUnits="userSpaceOnUse" gradientTransform="matrix(-1 0 0 1 230.75 0)"><stop offset="0" stop-color="#4DD0FF"/><stop offset="1" stop-color="#5D1BB0"/></linearGradient><path d="M427.8 36.1v389.8c-93.4-15.7-164.7-97.1-164.7-194.9S334.5 51.8 427.8 36.1m33-35.7c-127.3 0-230 103.9-230 231.3s102.6 229.9 230 229.9V.4z" class="st17"/><path d="M427 2.3v.4c-4 .6-8.9 1.4-13.3 2.3 4.4-1 9.3-1.9 13.3-2.7z" class="st51"/><linearGradient x1="-33.4" x2="-189.182" y1="303.625" y2="445.426" gradientUnits="userSpaceOnUse" gradientTransform="matrix(-1 0 0 1 230.75 0)"><stop offset="0" stop-color="#4DD0FF"/><stop offset="1" stop-color="#5D1BB0"/></linearGradient><path d="M415.1 423.1c4.4 1.1 8.9 2 12.9 2.7v-.4c12 1.5 22.8 2.4 34 2.4v33.8c-127.7 0-232.2-102.8-231.2-230.3 0-5.7.5-11.6.9-17.2 6.3 104.7 83.6 188.7 183.4 209z" class="st18"/><linearGradient x1="-5.553" x2="-91.886" y1="219.093" y2="339.633" gradientUnits="userSpaceOnUse" gradientTransform="matrix(-1 0 0 1 230.75 0)"><stop offset="0" stop-color="#fff" stop-opacity="0"/><stop offset="1" stop-color="#fff" stop-opacity=".6"/></linearGradient><path d="M428 425.9c-171-30.5-185.4-230-185.4-230s-8.1 14.6-10.5 33.8c25.2 150 154.4 192.8 195.9 196.2z" class="st19"/><linearGradient x1="-4.963" x2="-195.175" y1="298.889" y2="446.832" gradientUnits="userSpaceOnUse" gradientTransform="matrix(-1 0 0 1 230.75 0)"><stop offset="0" stop-opacity=".4"/><stop offset="1" stop-opacity="0"/></linearGradient><path d="M428 425.9s-152.5 4.3-196.8-179.1C248.8 426.5 412 459.2 427.2 459l.8-33.1z" class="st20"/><linearGradient x1="-5.427" x2="-195.162" y1="299.061" y2="446.633" gradientUnits="userSpaceOnUse" gradientTransform="matrix(-1 0 0 1 230.75 0)"><stop offset="0" stop-opacity=".4"/><stop offset="1" stop-opacity="0"/></linearGradient><path d="M427.2 446.5S257.7 431.7 231.7 247C243.5 407.5 387 455.8 427.2 458.8v-12.3z" class="st21"/><linearGradient x1="-217.43" x2="-210.424" y1="445.131" y2="38.833" gradientUnits="userSpaceOnUse" gradientTransform="matrix(-1 0 0 1 230.75 0)"><stop offset="0" stop-color="#4DD0FF"/><stop offset="1" stop-color="#5D1BB0"/></linearGradient><path d="M427.5 391.8v-356s22.1-10.3 34.5-1.9V462c-11.3 0-22.4-1.4-34.5-2.9v-67.3z" class="st22"/><linearGradient x1="-214.056" x2="-214.056" y1="37.47" y2="91.884" gradientUnits="userSpaceOnUse" gradientTransform="matrix(-1 0 0 1 230.75 0)"><stop offset="0" stop-opacity=".2"/><stop offset="1" stop-opacity="0"/></linearGradient><path d="M427.6 36.9c14-2.5 34.4-2.5 34.4-2.5V96l-34.4.6V36.9z" class="st23"/><linearGradient x1="-213.748" x2="-213.748" y1="35.137" y2="367.569" gradientUnits="userSpaceOnUse" gradientTransform="matrix(-1 0 0 1 230.75 0)"><stop offset="0" stop-opacity=".2"/><stop offset="1" stop-opacity="0"/></linearGradient><path d="M427.9 35.8c32.1 86.6 44.4 292.7-.9 424 10.8 3.2 34 1.7 34 1.7l1-426.9s-15.7-.3-34.1 1.2z" class="st24"/><linearGradient x1="-213.865" x2="-213.865" y1="35.156" y2="367.653" gradientUnits="userSpaceOnUse" gradientTransform="matrix(-1 0 0 1 230.75 0)"><stop offset="0" stop-opacity=".2"/><stop offset="1" stop-opacity="0"/></linearGradient><path d="M427.6 69.2c32.1 86.6 46.7 224.2.2 356.7-.7 6.6-.8 27.2-.3 33.3 13 1.4 34.5 2.8 34.5 2.8V34.6s-27.8.2-34.4 2.3v32.3z" class="st25"/><linearGradient x1="-214.069" x2="-214.069" y1="35.119" y2="367.649" gradientUnits="userSpaceOnUse" gradientTransform="matrix(-1 0 0 1 230.75 0)"><stop offset="0" stop-color="#fff" stop-opacity="0"/><stop offset="1" stop-color="#fff" stop-opacity=".2"/></linearGradient><path d="M428.7 36.7c32.1 86.6 44.2 291-1 422.4 10.8 3.2 34.4 2.9 34.4 2.9V34.6c-.1 0-14.9-.5-33.4 2.1z" class="st26"/><linearGradient x1="-207.741" x2="29.727" y1=".808" y2="215.231" gradientUnits="userSpaceOnUse" gradientTransform="matrix(-1 0 0 1 230.75 0)"><stop offset="0" stop-color="#4DD0FF"/><stop offset="1" stop-color="#5D1BB0"/></linearGradient><path d="M231.4 247.8c-.4-5.3-.6-14.2-.6-19.6C230.8 104.4 334.3 0 462 0v34.4c-122.6 0-222.4 93.5-230.6 213.4z" class="st27"/><linearGradient x1="-30.626" x2="-226.06" y1="147.056" y2="26.957" gradientUnits="userSpaceOnUse" gradientTransform="matrix(-1 0 0 1 230.75 0)"><stop offset="0" stop-color="#fff" stop-opacity="0"/><stop offset="1" stop-color="#fff" stop-opacity=".1"/></linearGradient><path d="M462 34.5C259.8 46.3 232.6 162.7 232.1 229.6 225.6 186.5 267.9 5.7 462 0v34.5z" class="st28"/><linearGradient x1="-31.332" x2="-240.959" y1="147.378" y2="15.27" gradientUnits="userSpaceOnUse" gradientTransform="matrix(-1 0 0 1 230.75 0)"><stop offset="0" stop-color="#fff" stop-opacity="0"/><stop offset="1" stop-color="#fff" stop-opacity=".2"/></linearGradient><path d="M462 9c-170.5 3.2-231 148.7-229.9 220.7C225.6 186.5 275.8 2.5 462 0v9z" class="st29"/><path d="M430 425.9c-3-.8-8.9-1.7-13.3-2.7 4.4.9 10.3 1.7 13.3 2.3v.4zM185.8 456.9c14.8 3.5 30.2 5.4 46 5.4s31.2-1.9 46-5.4c-14.9 3-30.3 4.6-46 4.6s-31.1-1.5-46-4.6zM277.8 38.8c-14.8-3.5-30.2-5.4-46-5.4s-31.2 1.9-46 5.4c14.9-3 30.3-4.6 46-4.6s31.2 1.6 46 4.6z" class="st51"/></svg>