<svg xmlns="http://www.w3.org/2000/svg" fill="#abb0bc" viewBox="0 0 462 462" enable-background="new 0 0 462 462"><linearGradient x1="454.964" x2="212.495" y1="15.163" y2="16.488" gradientUnits="userSpaceOnUse"><stop offset="0" stop-color="#4DD0FF"/><stop offset="1" stop-color="#5D1BB0"/></linearGradient><path d="M213.1 0H462c-10.3 20.4-30.4 31.9-53.3 31.9l-179.9-.1L213.1 0z" class="st0"/><linearGradient x1="330.265" x2="445.835" y1="228.902" y2="-6.887" gradientUnits="userSpaceOnUse"><stop offset="0" stop-color="#4DD0FF"/><stop offset="1" stop-color="#5D1BB0"/></linearGradient><path d="M462 0h-37.9s-67 136.1-86.6 174.2c-19 37-1.7 71.7-1.7 71.7L462 0z" class="st1"/><linearGradient x1="396.995" x2="414.17" y1="88.276" y2="55.734" gradientUnits="userSpaceOnUse"><stop offset="0" stop-opacity=".3"/><stop offset="1"/></linearGradient><path fill="#abb0bc" d="M394.3 60.1l-13.8 29.2c21.9.3 40.7-8.9 50.5-28.5L462 0h-37.9l-29.8 60.1z" opacity=".2"/><linearGradient x1="410.75" x2="423.195" y1="61.776" y2="38.196" gradientUnits="userSpaceOnUse"><stop offset="0" stop-opacity=".3"/><stop offset="1"/></linearGradient><path fill="#abb0bc" d="M408.9 31.4l-13.8 29.2c21.9.3 40.7-8.9 50.5-28.5L462 0h-37.9l-15.2 31.4z" opacity=".2"/><linearGradient x1="223.261" x2="350.728" y1="-4.862" y2="232.146" gradientUnits="userSpaceOnUse"><stop offset="0" stop-color="#4DD0FF"/><stop offset="1" stop-color="#5D1BB0"/></linearGradient><path d="M335.9 246.1l19.8-36.3-90.4-178C255.5 12.5 234.3 0 212.7 0l123.2 246.1z" class="st4"/><linearGradient x1="298.739" x2="310.56" y1="143.058" y2="162.76" gradientUnits="userSpaceOnUse"><stop offset="0" stop-opacity=".2"/><stop offset="1"/></linearGradient><path fill="#abb0bc" d="M336.7 247.6l-29.9-60.1c-11.7-18.6-13.5-39.4-1.8-58l5.3-8.6 45.4 88.6-19 38.1z" opacity=".4"/><linearGradient x1="315.262" x2="323.351" y1="173.355" y2="186.836" gradientUnits="userSpaceOnUse"><stop offset="0" stop-opacity=".2"/><stop offset="1"/></linearGradient><path fill="#abb0bc" d="M336.7 247.6l-12.4-25.5c-11.7-18.6-13.5-39.4-1.8-58l5.3-8.6 28 54.1-19.1 38z" opacity=".4"/><linearGradient x1="461.505" x2="215.734" y1="15.95" y2="15.95" gradientUnits="userSpaceOnUse"><stop offset="0" stop-color="#4DD0FF"/><stop offset="1" stop-color="#5D1BB0"/></linearGradient><path d="M324.2 0H462c-10.3 20.4-30.4 31.9-53.3 31.9l-68.5-.1-16-31.8z" class="st7"/><linearGradient x1="310.968" x2="286.163" y1="15.71" y2="15.71" gradientUnits="userSpaceOnUse"><stop offset="0" stop-opacity=".2"/><stop offset="1"/></linearGradient><path fill="#abb0bc" d="M265 31.4h57.2C312.8 11.4 296.1.2 274.1 0h-61.4l15.8 31.4H265z" opacity=".2"/><linearGradient x1="285.813" x2="267.356" y1="15.71" y2="15.71" gradientUnits="userSpaceOnUse"><stop offset="0" stop-opacity=".2"/><stop offset="1"/></linearGradient><path fill="#abb0bc" d="M265 31.4h29.2c-9.4-20-26.1-31.2-48-31.4h-33.4l15.8 31.4H265z" opacity=".2"/><linearGradient x1="360.546" x2="462" y1="16.21" y2="16.21" gradientUnits="userSpaceOnUse"><stop offset="0" stop-color="#fff" stop-opacity=".2"/><stop offset="1" stop-color="#fff"/></linearGradient><path fill="#abb0bc" d="M360.5 32.4c21.4-22 50-32.4 80.3-32.4H462c-10.1 20.5-30.6 32.4-53.5 32.4h-48z" opacity=".2"/><linearGradient x1="323.696" x2="462" y1="16.21" y2="16.21" gradientUnits="userSpaceOnUse"><stop offset="0" stop-color="#fff" stop-opacity=".2"/><stop offset="1" stop-color="#fff"/></linearGradient><path fill="#abb0bc" d="M323.7 32.4C345.1 10.4 373.1 0 403.3 0H462c-10.1 20.5-30.6 32.4-53.5 32.4h-84.8z" opacity=".2"/><linearGradient x1="242.695" x2="-.629" y1="15.158" y2="16.488" gradientUnits="userSpaceOnUse"><stop offset="0" stop-color="#4DD0FF"/><stop offset="1" stop-color="#5D1BB0"/></linearGradient><path d="M0 0h249.8-.7c-10.3 20.4-30.7 31.9-53.6 31.9l-179.6-.1L0 0z" class="st13"/><linearGradient x1="117.173" x2="232.795" y1="228.953" y2="-6.942" gradientUnits="userSpaceOnUse"><stop offset="0" stop-color="#4DD0FF"/><stop offset="1" stop-color="#5D1BB0"/></linearGradient><path d="M249.1 0h-38.2s-67 136.1-86.5 174.2c-19 37-1.7 71.7-1.7 71.7L249.1 0z" class="st14"/><linearGradient x1="226.057" x2="351.647" y1="-4.535" y2="230.781" gradientUnits="userSpaceOnUse"><stop offset="0" stop-color="#4DD0FF"/><stop offset="1" stop-color="#5D1BB0"/></linearGradient><path d="M284.8 142.9l18.5-36.3-38-74.8C255.5 12.5 234.6 0 212.9 0l71.9 142.9z" class="st15"/><linearGradient x1="271.832" x2="233.043" y1="82.853" y2="2.647" gradientUnits="userSpaceOnUse"><stop offset="0" stop-color="#fff" stop-opacity=".2"/><stop offset="1" stop-color="#fff"/></linearGradient><path fill="#abb0bc" d="M284.1 68.8c-22.8-.3-43.6-13.3-53.8-33.6L212.7 0h.2c22.7 0 42.8 12.6 52.9 32.8l18.3 36z" opacity=".2"/><linearGradient x1="286.878" x2="234.832" y1="113.568" y2="5.946" gradientUnits="userSpaceOnUse"><stop offset="0" stop-color="#fff" stop-opacity=".2"/><stop offset="1" stop-color="#fff"/></linearGradient><path fill="#abb0bc" d="M298.4 97.1c-22.8-.3-43.6-13.3-53.8-33.6L212.4 0c22.7 0 43.2 12.6 53.4 32.8l32.6 64.3z" opacity=".2"/><linearGradient x1="183.861" x2="201.071" y1="88.295" y2="55.687" gradientUnits="userSpaceOnUse"><stop offset="0" stop-opacity=".3"/><stop offset="1"/></linearGradient><path fill="#abb0bc" d="M181 60.1l-13.8 29.2c21.9.3 40.7-8.9 50.5-28.5L249.3 0h-38.2L181 60.1z" opacity=".2"/><linearGradient x1="197.608" x2="210.057" y1="61.809" y2="38.222" gradientUnits="userSpaceOnUse"><stop offset="0" stop-opacity=".3"/><stop offset="1"/></linearGradient><path fill="#abb0bc" d="M195.7 31.4l-13.8 29.2c21.9.3 40.7-8.9 50.5-28.5L248.8 0H211l-15.3 31.4z" opacity=".2"/><linearGradient x1="10.175" x2="137.523" y1="-4.637" y2="232.15" gradientUnits="userSpaceOnUse"><stop offset="0" stop-color="#4DD0FF"/><stop offset="1" stop-color="#5D1BB0"/></linearGradient><path d="M122.7 246.1l19-36.5L52.1 31.8C42.3 12.5 21.7 0 0 0l122.7 246.1z" class="st20"/><linearGradient x1="85.531" x2="97.352" y1="143.058" y2="162.76" gradientUnits="userSpaceOnUse"><stop offset="0" stop-opacity=".2"/><stop offset="1"/></linearGradient><path fill="#abb0bc" d="M123.5 247.6l-29.9-60.1c-11.7-18.6-13.5-39.4-1.8-58l5.3-8.6 45.4 88.6-19 38.1z" opacity=".4"/><linearGradient x1="102.055" x2="110.143" y1="173.355" y2="186.836" gradientUnits="userSpaceOnUse"><stop offset="0" stop-opacity=".2"/><stop offset="1"/></linearGradient><path fill="#abb0bc" d="M123.5 247.6L111 222.1c-11.7-18.6-13.5-39.4-1.8-58l5.3-8.6 28 54.1-19 38z" opacity=".4"/><linearGradient x1="248.576" x2="1.872" y1="15.95" y2="15.95" gradientUnits="userSpaceOnUse"><stop offset="0" stop-color="#4DD0FF"/><stop offset="1" stop-color="#5D1BB0"/></linearGradient><path d="M110.7 0H249c-10.3 20.4-30.7 31.9-53.6 31.9l-68.4-.1L110.7 0z" class="st23"/><linearGradient x1="97.815" x2="73.134" y1="15.71" y2="15.71" gradientUnits="userSpaceOnUse"><stop offset="0" stop-opacity=".2"/><stop offset="1"/></linearGradient><path fill="#abb0bc" d="M51.8 31.4H109C99.6 11.4 83.5.2 61.6 0H0l15.6 31.4h36.2z" opacity=".2"/><linearGradient x1="72.66" x2="54.326" y1="15.71" y2="15.71" gradientUnits="userSpaceOnUse"><stop offset="0" stop-opacity=".2"/><stop offset="1"/></linearGradient><path fill="#abb0bc" d="M51.8 31.4H81C71.6 11.4 54.9.2 32.9 0H0l15.6 31.4h36.2z" opacity=".2"/><linearGradient x1="12.918" x2="138.392" y1="-4.406" y2="230.692" gradientUnits="userSpaceOnUse"><stop offset="0" stop-color="#4DD0FF"/><stop offset="1" stop-color="#5D1BB0"/></linearGradient><path d="M71.6 142.9l18.2-35.8-37.7-75.3C42.3 12.5 21.7 0 0 0l71.6 142.9z" class="st26"/><linearGradient x1="147.338" x2="248.846" y1="16.21" y2="16.21" gradientUnits="userSpaceOnUse"><stop offset="0" stop-color="#fff" stop-opacity=".2"/><stop offset="1" stop-color="#fff"/></linearGradient><path fill="#abb0bc" d="M147.3 32.4C168.7 10.4 196.9 0 227.2 0h21.6-.2c-10.1 20.5-30.5 32.4-53.4 32.4h-47.9z" opacity=".2"/><linearGradient x1="110.488" x2="249.074" y1="16.21" y2="16.21" gradientUnits="userSpaceOnUse"><stop offset="0" stop-color="#fff" stop-opacity=".2"/><stop offset="1" stop-color="#fff"/></linearGradient><path fill="#abb0bc" d="M110.5 32.4C131.8 10.4 160.3 0 190.6 0h58.5-.5c-10.1 20.5-30.5 32.4-53.4 32.4h-84.7z" opacity=".2"/><linearGradient x1="124.537" x2="124.537" y1="53.464" y2="87.735" gradientUnits="userSpaceOnUse"><stop offset="0" stop-color="#4DD0FF" stop-opacity=".5"/><stop offset="1" stop-color="#5D1BB0"/></linearGradient><path fill="#abb0bc" d="M0 0h249.1c-40.5 80.8-71 106.5-130.5 73.2L0 0z" opacity=".2"/><linearGradient x1="124.423" x2="124.423" y1="39.031" y2="60.167" gradientUnits="userSpaceOnUse"><stop offset="0" stop-color="#4DD0FF" stop-opacity=".5"/><stop offset="1" stop-color="#5D1BB0"/></linearGradient><path fill="#abb0bc" d="M0 0H248.8C200.3 94.8 98 59.4 52.9 31.4L0 0z" opacity=".2"/><linearGradient x1="58.835" x2="20.145" y1="82.731" y2="2.728" gradientUnits="userSpaceOnUse"><stop offset="0" stop-color="#fff" stop-opacity=".2"/><stop offset="1" stop-color="#fff"/></linearGradient><path fill="#abb0bc" d="M70.9 68.8c-22.8-.3-43.2-13.3-53.4-33.7L0 0c22.7 0 42.5 12.6 52.6 32.8l18.3 36z" opacity=".2"/><linearGradient x1="73.971" x2="22.064" y1="113.394" y2="6.06" gradientUnits="userSpaceOnUse"><stop offset="0" stop-color="#fff" stop-opacity=".2"/><stop offset="1" stop-color="#fff"/></linearGradient><path fill="#abb0bc" d="M85.2 97.1c-22.8-.3-43.6-13.3-53.8-33.6L0 0c22.7 0 42.5 12.6 52.6 32.8l32.6 64.3z" opacity=".2"/><linearGradient x1="347.212" x2="105.411" y1="228.683" y2="230.004" gradientUnits="userSpaceOnUse"><stop offset="0" stop-color="#4DD0FF"/><stop offset="1" stop-color="#5D1BB0"/></linearGradient><path d="M106 212.9l247.7-.3h.5c-1.5 0-.4.9-1.1 2.2-10.5 19.2-28.5 31.2-50.5 31.2l-179.9-.1-16.7-33z" class="st33"/><linearGradient x1="223.212" x2="339.093" y1="442.608" y2="206.185" gradientUnits="userSpaceOnUse"><stop offset="0" stop-color="#4DD0FF"/><stop offset="1" stop-color="#5D1BB0"/></linearGradient><path d="M354.3 212.6l-35.9.3s-67.4 137.5-87 175.6c-19 37-1.7 71.7-1.7 71.7l124.6-247.6z" class="st34"/><linearGradient x1="290.34" x2="307.56" y1="302.169" y2="269.543" gradientUnits="userSpaceOnUse"><stop offset="0" stop-opacity=".3"/><stop offset="1"/></linearGradient><path fill="#abb0bc" d="M288.2 274.3l-13.8 29.2c21.9.3 39-8.9 48.8-28.5l30.9-62.1-35.2-.1-30.7 61.5z" opacity=".2"/><linearGradient x1="303.716" x2="316.232" y1="275.754" y2="252.04" gradientUnits="userSpaceOnUse"><stop offset="0" stop-opacity=".3"/><stop offset="1"/></linearGradient><path fill="#abb0bc" d="M302.1 246l-14 28.6c21.9.3 39.2-8.7 49.1-28.3l16.9-33.3-35.2-.1-16.8 33.1z" opacity=".2"/><linearGradient x1="116.487" x2="244.612" y1="208.099" y2="446.331" gradientUnits="userSpaceOnUse"><stop offset="0" stop-color="#4DD0FF"/><stop offset="1" stop-color="#5D1BB0"/></linearGradient><path d="M229.8 460.3l19-36.5L159.2 246c-9.8-19.3-31.5-33.1-53.2-33.1l123.8 247.4z" class="st37"/><linearGradient x1="192.636" x2="204.457" y1="357.267" y2="376.968" gradientUnits="userSpaceOnUse"><stop offset="0" stop-opacity=".2"/><stop offset="1"/></linearGradient><path fill="#abb0bc" d="M230.6 461.8l-29.9-60.1c-11.7-18.6-13.5-39.4-1.8-58l5.3-8.6 45.3 88.4-18.9 38.3z" opacity=".4"/><linearGradient x1="209.159" x2="217.248" y1="387.564" y2="401.045" gradientUnits="userSpaceOnUse"><stop offset="0" stop-opacity=".2"/><stop offset="1"/></linearGradient><path fill="#abb0bc" d="M230.6 461.8l-12.4-25.5c-11.7-18.6-13.5-39.4-1.8-58l5.3-8.6 27.9 53.9-19 38.2z" opacity=".4"/><linearGradient x1="221.025" x2="337.234" y1="445.392" y2="210.318" gradientUnits="userSpaceOnUse"><stop offset="0" stop-color="#4DD0FF"/><stop offset="1" stop-color="#5D1BB0"/></linearGradient><path d="M303.7 313.7l-34.6-.7s-18.1 37.4-37.6 75.5c-19 37-.9 73.6-.9 73.6l73.1-148.4z" class="st40"/><linearGradient x1="353.731" x2="109.879" y1="229.29" y2="229.29" gradientUnits="userSpaceOnUse"><stop offset="0" stop-color="#4DD0FF"/><stop offset="1" stop-color="#5D1BB0"/></linearGradient><path d="M217.5 212.9l136.2-.3h.5c-10.3 21-28.8 33.4-51.7 33.4l-68.5-.1-16.5-33z" class="st41"/><linearGradient x1="204.819" x2="179.913" y1="229.246" y2="229.246" gradientUnits="userSpaceOnUse"><stop offset="0" stop-opacity=".2"/><stop offset="1"/></linearGradient><path fill="#abb0bc" d="M158.9 245.6h57.2c-9.4-20-25.9-32.6-47.9-32.8h-62.1l16.3 32.8h36.5z" opacity=".2"/><linearGradient x1="114.34" x2="230.676" y1="231.377" y2="-3.953" gradientUnits="userSpaceOnUse"><stop offset="0" stop-color="#4DD0FF"/><stop offset="1" stop-color="#5D1BB0"/></linearGradient><path d="M197.6 99.8l-35.6-1s-18.1 37.4-37.6 75.5c-19 37-.9 73.6-.9 73.6l74.1-148.1z" class="st43"/><linearGradient x1="161.1" x2="115.055" y1="144.903" y2="222.312" gradientUnits="userSpaceOnUse"><stop offset="0" stop-color="#fff" stop-opacity=".2"/><stop offset="1" stop-color="#fff"/></linearGradient><path fill="#abb0bc" d="M147.3 128.5l-22.4 45.1c-12.2 23-12.1 52.8-1.5 74.3l17.8-35.1c13.3-26.2 15.5-56.6 6.1-84.3z" opacity=".2"/><linearGradient x1="174.638" x2="116.642" y1="120.441" y2="217.941" gradientUnits="userSpaceOnUse"><stop offset="0" stop-color="#fff" stop-opacity=".2"/><stop offset="1" stop-color="#fff"/></linearGradient><path fill="#abb0bc" d="M147.3 128.5l-22.4 45.1c-12.2 23-12.1 52.8-1.5 74.3l31.5-61.6c13.2-26.1 15.4-56.5 6-84.2l-13.6 26.4z" opacity=".2"/><linearGradient x1="179.663" x2="161.105" y1="229.246" y2="229.246" gradientUnits="userSpaceOnUse"><stop offset="0" stop-opacity=".2"/><stop offset="1"/></linearGradient><path fill="#abb0bc" d="M158.9 245.6h29.2c-9.4-20-25.9-32.6-47.9-32.8h-34.1l16.3 32.8h36.5z" opacity=".2"/><linearGradient x1="119.244" x2="246.034" y1="208.344" y2="445.909" gradientUnits="userSpaceOnUse"><stop offset="0" stop-color="#4DD0FF"/><stop offset="1" stop-color="#5D1BB0"/></linearGradient><path d="M178.7 357.1l18.5-36.3-38-74.8c-9.8-19.3-31.5-33.1-53.2-33.1l72.7 144.2z" class="st47"/><linearGradient x1="254.443" x2="353.722" y1="229.613" y2="229.613" gradientUnits="userSpaceOnUse"><stop offset="0" stop-color="#fff" stop-opacity=".2"/><stop offset="1" stop-color="#fff"/></linearGradient><path fill="#abb0bc" d="M254.4 246.6c21.4-22 49.8-34 80.1-34h19.2v.3c-10.1 20.5-28.5 33.7-51.4 33.7h-47.9z" opacity=".2"/><linearGradient x1="217.593" x2="353.722" y1="229.613" y2="229.613" gradientUnits="userSpaceOnUse"><stop offset="0" stop-color="#fff" stop-opacity=".2"/><stop offset="1" stop-color="#fff"/></linearGradient><path fill="#abb0bc" d="M217.6 246.6c21.4-22 49.8-34 80.1-34h56.1c-10.1 21-28.3 33.4-51.2 33.4l-85 .6z" opacity=".2"/><linearGradient x1="323.808" x2="443.712" y1="240.121" y2="-5.681" gradientUnits="userSpaceOnUse"><stop offset="0" stop-color="#4DD0FF"/><stop offset="1" stop-color="#5D1BB0"/></linearGradient><path d="M410.9 99.4l-35.5-.6s-18.3 37.3-37.8 75.4c-19 37-.9 73.6-.9 73.6l74.2-148.4z" class="st50"/><linearGradient x1="374.308" x2="328.263" y1="144.903" y2="222.312" gradientUnits="userSpaceOnUse"><stop offset="0" stop-color="#fff" stop-opacity=".2"/><stop offset="1" stop-color="#fff"/></linearGradient><path fill="#abb0bc" d="M360.5 128.5l-22.4 45.1c-12.2 23-12.1 52.8-1.5 74.3l17.6-35.2c13.3-26.2 15.7-56.5 6.3-84.2z" opacity=".2"/><linearGradient x1="387.846" x2="329.85" y1="120.441" y2="217.941" gradientUnits="userSpaceOnUse"><stop offset="0" stop-color="#fff" stop-opacity=".2"/><stop offset="1" stop-color="#fff"/></linearGradient><path fill="#abb0bc" d="M360.5 128.5l-22.4 45.1c-12.2 23-12.1 52.8-1.5 74.3l31.1-62c13.2-26.1 15.9-56 6.5-83.8l-13.7 26.4z" opacity=".2"/><linearGradient x1="3383.885" x2="3383.885" y1="2476.229" y2="2510.929" gradientUnits="userSpaceOnUse" gradientTransform="matrix(-.487 .964 -.892 -.451 4211.518 -2047.793)"><stop offset="0" stop-color="#4DD0FF" stop-opacity=".5"/><stop offset="1" stop-color="#5D1BB0"/></linearGradient><path fill="#abb0bc" d="M461.4 0l-122 241.7C287 166.1 278 124 336.7 81.7L461.4 0z" opacity=".2"/><linearGradient x1="3386.798" x2="3386.798" y1="2461.349" y2="2482.84" gradientUnits="userSpaceOnUse" gradientTransform="matrix(-.487 .964 -.892 -.451 4211.518 -2047.793)"><stop offset="0" stop-color="#4DD0FF" stop-opacity=".5"/><stop offset="1" stop-color="#5D1BB0"/></linearGradient><path fill="#abb0bc" d="M461.4 0L339.8 241.9l-3.1 5.5C275.7 157.8 359 68.1 406 37.3L461.4 0z" opacity=".2"/><linearGradient x1="268.205" x2="222.16" y1="359.112" y2="436.521" gradientUnits="userSpaceOnUse"><stop offset="0" stop-color="#fff" stop-opacity=".2"/><stop offset="1" stop-color="#fff"/></linearGradient><path fill="#abb0bc" d="M254.4 342.7l-22.4 45c-12.2 23-12.1 52.8-1.5 74.3l17.5-35.4c13.3-26.2 15.8-56.2 6.4-83.9z" opacity=".2"/><linearGradient x1="281.743" x2="223.747" y1="334.649" y2="432.15" gradientUnits="userSpaceOnUse"><stop offset="0" stop-color="#fff" stop-opacity=".2"/><stop offset="1" stop-color="#fff"/></linearGradient><path fill="#abb0bc" d="M254.4 342.7l-22.4 45c-12.2 23-12.1 52.8-1.5 74.3l30.8-62.4c13.2-26.1 16.2-55.7 6.8-83.4l-13.7 26.5z" opacity=".2"/><linearGradient x1="165.747" x2="126.375" y1="297.175" y2="215.763" gradientUnits="userSpaceOnUse"><stop offset="0" stop-color="#fff" stop-opacity=".2"/><stop offset="1" stop-color="#fff"/></linearGradient><path fill="#abb0bc" d="M178 283c-22.8-.3-43.6-13.3-53.8-33.6L105.9 213c22.7 0 43.7 13.8 53.8 34l18.3 36z" opacity=".2"/><linearGradient x1="180.882" x2="128.293" y1="327.839" y2="219.095" gradientUnits="userSpaceOnUse"><stop offset="0" stop-color="#fff" stop-opacity=".2"/><stop offset="1" stop-color="#fff"/></linearGradient><path fill="#abb0bc" d="M192.3 311.3c-22.8-.3-43.6-13.3-53.8-33.6L105.9 213c22.7 0 43.7 13.8 53.8 34l32.6 64.3z" opacity=".2"/><linearGradient x1="3947.482" x2="3947.482" y1="-2000.011" y2="-1965.31" gradientUnits="userSpaceOnUse" gradientTransform="matrix(-.483 -.966 .894 -.447 3912.872 3233.291)"><stop offset="0" stop-color="#4DD0FF" stop-opacity=".5"/><stop offset="1" stop-color="#5D1BB0"/></linearGradient><path fill="#abb0bc" d="M229.1 459.5L107.8 217.4c91.9 3 131 20.9 130 93.2l-8.7 148.9z" opacity=".2"/><linearGradient x1="3949.326" x2="3949.326" y1="-2014.835" y2="-1993.481" gradientUnits="userSpaceOnUse" gradientTransform="matrix(-.483 -.966 .894 -.447 3912.872 3233.291)"><stop offset="0" stop-color="#4DD0FF" stop-opacity=".5"/><stop offset="1" stop-color="#5D1BB0"/></linearGradient><path fill="#abb0bc" d="M229.1 459.5L107.8 217.4l-1-1.8c-.7-1.2.3-2.8 1.7-2.7 105.4 6.7 127 124.4 123.7 179.8l-3.1 66.8z" opacity=".2"/></svg>