<svg xmlns="http://www.w3.org/2000/svg" fill="#abb0bc" viewBox="0 0 462 462" enable-background="new 0 0 462 462"><linearGradient x1="238.53" x2="232.49" y1="303.022" y2="353.498" gradientUnits="userSpaceOnUse"><stop offset="0" stop-color="#4DD0FF"/><stop offset="1" stop-color="#5D1BB0"/></linearGradient><path d="M213.2 329.7h36.2l-.2 68.3h-36.1z" class="st0"/><linearGradient x1="253.428" x2="229.7" y1="294.122" y2="399.822" gradientUnits="userSpaceOnUse"><stop offset="0" stop-color="#4DD0FF"/><stop offset="1" stop-color="#5D1BB0"/></linearGradient><path d="M213.2 358.8c24-2.6 35.6-29.8 36.1-62.1l-.1 130.3h-36.1l.1-68.2z" class="st1"/><linearGradient x1="241.267" x2="226.167" y1="346.342" y2="480.947" gradientUnits="userSpaceOnUse"><stop offset="0" stop-color="#4DD0FF"/><stop offset="1" stop-color="#5D1BB0"/></linearGradient><path d="M213.2 409.3c19.4-7.1 36.1-33.1 36.1-77.5l-.1 130.2h-36.1l.1-52.7z" class="st2"/><linearGradient x1="236.34" x2="224.691" y1="423.922" y2="511.07" gradientUnits="userSpaceOnUse"><stop offset="0" stop-color="#4DD0FF"/><stop offset="1" stop-color="#5D1BB0"/></linearGradient><path d="M213.2 462c21-12.6 36.1-48.9 36.1-93.3l-.1 93.3h-36z" class="st3"/><linearGradient x1="228.301" x2="224.572" y1="79.026" y2="145.668" gradientUnits="userSpaceOnUse"><stop offset="0" stop-color="#4DD0FF"/><stop offset="1" stop-color="#5D1BB0"/></linearGradient><path d="M105 39.5c7.7 32.5 50.1 95 127 95S348.5 72 356 39.3c-6.9 25.8-19.6 48.4-40.6 69.1-29.7 29.3-66.1 42-83.4 44.1-22.4-3.8-55.1-14.8-85.4-44.5-20.2-19.8-37.3-48.2-41.6-68.5z" class="st4"/><linearGradient x1="230.518" x2="230.518" y1="152.15" y2="83.055" gradientUnits="userSpaceOnUse"><stop offset="0"/><stop offset="1" stop-opacity="0"/></linearGradient><path d="M105 39.5c7.7 32.5 50.1 95 127 95S348.5 72 356 39.3c-6.9 25.8-19.6 48.4-40.6 69.1-29.7 29.3-66.1 42-83.4 44.1-22.4-3.8-55.1-14.8-85.4-44.5-20.2-19.8-37.3-48.2-41.6-68.5z" class="st5"/><linearGradient x1="34.877" x2="231.074" y1="-48.215" y2="156.837" gradientUnits="userSpaceOnUse"><stop offset="0" stop-color="#4DD0FF"/><stop offset="1" stop-color="#5D1BB0"/></linearGradient><path d="M306.3 150.5C189.5 178 98.9 88.8 98.9 0h-35c0 61.8 34.6 122.5 97.1 152 40.8 19.2 98 22 145.3-1.5z" class="st6"/><linearGradient x1="192.723" x2="137.39" y1="110.436" y2="-32.231" gradientUnits="userSpaceOnUse"><stop offset=".163" stop-color="#A6F6FF" stop-opacity="0"/><stop offset=".5" stop-color="#A6F6FF"/><stop offset=".866" stop-color="#A6F6FF" stop-opacity="0"/></linearGradient><path fill="#abb0bc" d="M306.3 150.5C189.5 178 98.9 88.8 98.9 0h-35c0 61.8 34.6 122.5 97.1 152 40.8 19.2 98 22 145.3-1.5z" opacity=".5"/><linearGradient x1="381.657" x2="98.296" y1="357.724" y2="149.487" gradientUnits="userSpaceOnUse"><stop offset="0" stop-color="#4DD0FF"/><stop offset="1" stop-color="#5D1BB0"/></linearGradient><path d="M349.2 283.5c-48.6 31.4-120.3 41.1-183.6-.6-35.5-23.4-66.7-64.3-66-117.3 0 0-4.6-59.6 50.4-103.9C60 92 65.5 165.5 65.5 165.5c0 94.8 74 167.1 165.9 167.1 65.2 0 107.2-37.7 117.8-49.1z" class="st8"/><linearGradient x1="303.321" x2="166.253" y1="235.715" y2="193.541" gradientUnits="userSpaceOnUse"><stop offset=".163" stop-color="#BDCCFF" stop-opacity="0"/><stop offset=".5" stop-color="#BDCCFF"/><stop offset=".866" stop-color="#BDCCFF" stop-opacity="0"/></linearGradient><path fill="#abb0bc" d="M349.2 283.5c-48.6 31.4-120.3 41.1-183.6-.6-35.5-23.4-66.7-64.3-66-117.3 0 0-4.6-59.6 50.4-103.9C60 92 65.5 165.5 65.5 165.5c0 94.8 74 167.1 165.9 167.1 65.2 0 107.2-37.7 117.8-49.1z" opacity=".6"/><linearGradient x1="72.161" x2="227.021" y1="445.563" y2="48.199" gradientUnits="userSpaceOnUse"><stop offset="0" stop-color="#4DD0FF"/><stop offset="1" stop-color="#5D1BB0"/></linearGradient><path d="M113.4 283.9C82 235.3 72.8 163.4 114.5 100c23.4-35.5 64.3-66.7 117.3-66 0 0 66.9-1.4 107.2 57.2C334.6 37.3 231.9 0 231.9 0 137.1 0 64.8 74 64.8 165.9c0 65.1 37.4 107.3 48.6 118z" class="st11"/><linearGradient x1="199.906" x2="215.721" y1="117.587" y2="243.452" gradientUnits="userSpaceOnUse"><stop offset=".163" stop-color="#D1CCFF" stop-opacity="0"/><stop offset=".5" stop-color="#D1CCFF"/><stop offset=".866" stop-color="#D1CCFF" stop-opacity="0"/></linearGradient><path fill="#abb0bc" d="M113.4 283.9C82 235.3 72.8 163.4 114.5 100c23.4-35.5 64.3-66.7 117.3-66 0 0 66.9-1.4 107.2 57.2C334.6 37.3 231.9 0 231.9 0 137.1 0 64.8 74 64.8 165.9c0 65.1 37.4 107.3 48.6 118z" opacity=".4"/><linearGradient x1="177.464" x2="437.761" y1="-1.809" y2="272.985" gradientUnits="userSpaceOnUse"><stop offset="0" stop-color="#4DD0FF"/><stop offset="1" stop-color="#5D1BB0"/></linearGradient><path d="M112.1 49.2c48.6-31.4 121.2-41.2 184.6.5 35.5 23.4 66.7 64.3 66 117.3 0 0 3.1 60.8-51.2 103.2 72-18.2 85.2-103.2 85.2-103.2 0-94.8-74-167-165.9-167-65.1 0-107 36.6-118.7 49.2z" class="st13"/><linearGradient x1="130.554" x2="325.612" y1="81.753" y2="148.969" gradientUnits="userSpaceOnUse"><stop offset=".163" stop-color="#A6F6FF" stop-opacity="0"/><stop offset=".5" stop-color="#A6F6FF"/><stop offset=".866" stop-color="#A6F6FF" stop-opacity="0"/></linearGradient><path fill="#abb0bc" d="M112.1 49.2c48.6-31.4 121.2-41.2 184.6.5 35.5 23.4 66.7 64.3 66 117.3 0 0 3.1 60.8-51.2 103.2 72-18.2 85.2-103.2 85.2-103.2 0-94.8-74-167-165.9-167-65.1 0-107 36.6-118.7 49.2z" opacity=".7"/><linearGradient x1="661.147" x2="798.501" y1="-238.263" y2="-249.591" gradientUnits="userSpaceOnUse" gradientTransform="matrix(0 -1 1 0 591.674 877.464)"><stop offset="0"/><stop offset="1" stop-opacity="0"/></linearGradient><path fill="#abb0bc" d="M328.1 255.3c72.8-76 45.9-169.4 20.7-205.7L339 89.8c12.2 16.9 24.9 45.5 23.8 76.7-1.2 34-9.5 58.9-34.7 88.8z" opacity=".3"/><linearGradient x1="358.459" x2="246.433" y1="-15.26" y2="283.917" gradientUnits="userSpaceOnUse"><stop offset="0" stop-color="#4DD0FF"/><stop offset="1" stop-color="#5D1BB0"/></linearGradient><path d="M347.7 47.7c31.4 48.6 41.2 120.8-.5 184.1-23.4 35.5-64.3 66.7-117.3 66 0 0-48.2 4.5-92.2-38.2 30 32.5 74.6 48.8 103.6 50.6 31.8 1.9 63.6-1.2 105.6-24.8 31.2-30.1 50.1-72.5 50.1-119.5-.1-65.1-37.9-107.5-49.3-118.2z" class="st16"/><linearGradient x1="266.91" x2="273.5" y1="222.744" y2="81.722" gradientUnits="userSpaceOnUse"><stop offset=".163" stop-color="#BDCCFF" stop-opacity="0"/><stop offset=".5" stop-color="#BDCCFF"/><stop offset=".866" stop-color="#BDCCFF" stop-opacity="0"/></linearGradient><path fill="#abb0bc" d="M347.7 47.7c31.4 48.6 41.2 120.8-.5 184.1-23.4 35.5-64.3 66.7-117.3 66 0 0-48.2 4.5-92.2-38.2 30 32.5 74.6 48.8 103.6 50.6 31.8 1.9 63.6-1.2 105.6-24.8 31.2-30.1 50.1-72.5 50.1-119.5-.1-65.1-37.9-107.5-49.3-118.2z" opacity=".7"/><linearGradient x1="367.324" x2="122.194" y1="-2.453" y2="295.338" gradientUnits="userSpaceOnUse"><stop offset="0" stop-color="#4DD0FF"/><stop offset="1" stop-color="#5D1BB0"/></linearGradient><path d="M157.7 150.5C274.6 178 362.2 88.8 362.2 0h35c0 59.8-30.1 123-94.1 152-41.1 18.6-94.1 22.8-145.4-1.5z" class="st18"/><linearGradient x1="192.878" x2="147.847" y1="152.37" y2="115.589" gradientUnits="userSpaceOnUse"><stop offset="0"/><stop offset="1" stop-opacity="0"/></linearGradient><path fill="#abb0bc" d="M232.1 152.5c-25.9 5.9-56.4 2.5-74.4-2-26.2-12.7-48-35.6-48-35.6l39.5-4.3c.1 0 32.9 33.5 82.9 41.9z" opacity=".4"/><linearGradient x1="265.539" x2="352.873" y1="119.857" y2="-12.143" gradientUnits="userSpaceOnUse"><stop offset=".163" stop-color="#A6F6FF" stop-opacity="0"/><stop offset=".5" stop-color="#A6F6FF"/><stop offset=".866" stop-color="#A6F6FF" stop-opacity="0"/></linearGradient><path fill="#abb0bc" d="M157.7 150.5C274.6 178 362.2 88.8 362.2 0h35c0 59.8-30.1 123-94.1 152-41.1 18.6-94.1 22.8-145.4-1.5z" opacity=".7"/><linearGradient x1="119.302" x2="138.874" y1="101.201" y2="118.629" gradientUnits="userSpaceOnUse"><stop offset="0"/><stop offset="1" stop-opacity="0"/></linearGradient><path fill="#abb0bc" d="M109.7 114.9s5.6-15.6 17.4-29.8c4.3 7.8 22.1 25.5 22.1 25.5L131.3 134c-6.3-3.5-21.6-19.1-21.6-19.1z" opacity=".8"/><linearGradient x1="313.192" x2="134.615" y1="53.782" y2="51.779" gradientUnits="userSpaceOnUse"><stop offset="0"/><stop offset="1" stop-opacity="0"/></linearGradient><path d="M112.5 49.1c24.7-15.7 64.8-30.7 108.5-26.5 38.8 3.7 81.4 21.1 113.5 62.2-34.7-43.1-84.4-55.2-123.2-49.4S145 63.1 137.5 72.8l-25-23.7z" class="st22"/><linearGradient x1="108.44" x2="116.774" y1="104.359" y2="264.359" gradientUnits="userSpaceOnUse"><stop offset="0"/><stop offset="1" stop-opacity="0"/></linearGradient><path fill="#abb0bc" d="M113.4 283.9C57.7 195.7 100 109.3 133.9 76.3 65.3 155 115.7 243 137.7 259.7l-24.3 24.2z" opacity=".8"/><linearGradient x1="179.59" x2="319.345" y1="288.651" y2="277.125" gradientUnits="userSpaceOnUse"><stop offset="0"/><stop offset="1" stop-opacity="0"/></linearGradient><path fill="#abb0bc" d="M139.9 262.5c83.9 78.9 173.6 43.9 209.3 21l-43.6-9.1c-16.9 12.2-45.5 24.1-76.7 23.8-34.6-.4-59.1-10.5-89-35.7z" opacity=".3"/><linearGradient x1="363.353" x2="376.38" y1="105.194" y2="122.352" gradientUnits="userSpaceOnUse"><stop offset="0"/><stop offset="1" stop-opacity="0"/></linearGradient><path fill="#abb0bc" d="M352.7 116s16.2-16.2 23.2-31.5c9.2 15.6 15.9 41 15.9 41l-32.1 12.1c-2.5-10.2-7-21.6-7-21.6z" opacity=".3"/><linearGradient x1="363.353" x2="376.38" y1="105.194" y2="122.352" gradientUnits="userSpaceOnUse"><stop offset="0"/><stop offset="1" stop-opacity="0"/></linearGradient><path fill="#abb0bc" d="M352.7 116s16.2-16.2 23.2-31.5c9.2 15.6 15.9 41 15.9 41l-32.1 12.1c-2.5-10.2-7-21.6-7-21.6z" opacity=".2"/><linearGradient x1="112.498" x2="160.649" y1="48.869" y2="21.035" gradientUnits="userSpaceOnUse"><stop offset="0"/><stop offset="1" stop-opacity="0"/></linearGradient><path fill="#abb0bc" d="M112.3 48.9c7-4 24.4-15.1 47.9-21 0 0-.4-8.9-.8-12-28 13.2-40.9 27.3-47.1 33z" opacity=".2"/><linearGradient x1="112.498" x2="160.649" y1="48.869" y2="21.035" gradientUnits="userSpaceOnUse"><stop offset="0"/><stop offset="1" stop-opacity="0"/></linearGradient><path fill="#abb0bc" d="M112.3 48.9c7-4 24.4-15.1 47.9-21 0 0-.4-8.9-.8-12-28 13.2-40.9 27.3-47.1 33z" opacity=".2"/><linearGradient x1="238.548" x2="229.35" y1="454.882" y2="412.75" gradientUnits="userSpaceOnUse"><stop offset="0"/><stop offset="1" stop-opacity="0"/></linearGradient><path fill="#abb0bc" d="M213.1 417.8l.1 44.2c7.3-4.1 31.9-22.5 35.8-82.2-14.8 33-35.9 38-35.9 38z" opacity=".8"/><linearGradient x1="255.918" x2="233.962" y1="443.025" y2="423.442" gradientUnits="userSpaceOnUse"><stop offset="0"/><stop offset="1" stop-opacity="0"/></linearGradient><path fill="#abb0bc" d="M213.1 417.8l.1 44.2c7.3-4.1 31.9-22.5 35.8-82.2-14.8 33-35.9 38-35.9 38z" opacity=".4"/><linearGradient x1="242.267" x2="227.135" y1="399.841" y2="364.829" gradientUnits="userSpaceOnUse"><stop offset="0"/><stop offset=".128" stop-opacity=".872"/><stop offset="1" stop-opacity="0"/></linearGradient><path fill="#abb0bc" d="M213.2 409.3c18.3-6.9 34.3-28.8 35.8-70.4-8.6 18.7-35.9 24-35.9 24l.1 46.4z" opacity=".6"/><linearGradient x1="243.379" x2="237.148" y1="388.075" y2="380.954" gradientUnits="userSpaceOnUse"><stop offset="0"/><stop offset="1" stop-opacity="0"/></linearGradient><path fill="#abb0bc" d="M213.2 409.3c18.3-6.9 34.3-28.8 35.8-70.4-8.6 18.7-35.9 24-35.9 24l.1 46.4z" opacity=".4"/><linearGradient x1="228.721" x2="226.648" y1="355.751" y2="342.128" gradientUnits="userSpaceOnUse"><stop offset="0"/><stop offset="1" stop-opacity="0"/></linearGradient><path fill="#abb0bc" d="M213.2 358.8s19.2-.4 28.3-23.2l-28.2.6-.1 22.6z" opacity=".4"/><linearGradient x1="228.285" x2="227.989" y1="357.559" y2="353.999" gradientUnits="userSpaceOnUse"><stop offset="0"/><stop offset="1" stop-opacity="0"/></linearGradient><path fill="#abb0bc" d="M213.2 358.8s19.2-.4 28.3-23.2l-28.2.6-.1 22.6z" opacity=".2"/><linearGradient x1="231.421" x2="231.421" y1="334" y2="356.04" gradientUnits="userSpaceOnUse"><stop offset="0"/><stop offset="1" stop-opacity="0"/></linearGradient><path fill="#abb0bc" d="M249.4 331.6c-22.3 2.1-36.1 0-36.1 0v44.5h36l.1-44.5z" opacity=".19"/><linearGradient x1="231.421" x2="231.421" y1="333.333" y2="374.672" gradientUnits="userSpaceOnUse"><stop offset="0"/><stop offset="1" stop-opacity="0"/></linearGradient><path fill="#abb0bc" d="M249.4 331.6c-22.3 2.1-36.1 0-36.1 0v44.5h36l.1-44.5z" opacity=".8"/></svg>