<svg xmlns="http://www.w3.org/2000/svg" fill="#fff" viewBox="0 0 32 32" enable-background="new 0 0 32 32"><style type="text/css">.st0{fill:#FFF;}</style><path d="M13.8 14.6c.5-.8.8-1.7.7-2.6 0-2.6-2.2-4.6-4.8-4.6H2.6c-.3 0-.6.2-.6.6v15.9c0 .3.3.6.6.6h8.1c3 0 5.5-2.4 5.5-5.4 0-1.9-1-3.5-2.4-4.5zm-8.6-4.1h4.7c.9 0 1.6.7 1.6 1.6 0 .9-.7 1.6-1.6 1.6H5.2v-3.2zm5.5 10.8H5.2v-4.5h5.6c1.2 0 2.2 1 2.2 2.2 0 1.3-1 2.3-2.3 2.3zM30 17.9c0-3.7-2.9-6.7-6.5-6.7s-6.5 3-6.5 6.7 2.9 6.7 6.5 6.7c2.2 0 4.2-1.1 5.4-3 .2-.2.3-.5.4-.7.1-.2 0-.4-.2-.4h-3.2c-.1 0-.1 0-.2.1-.6.6-1.3.9-2.2.9-1.6 0-2.9-1.2-3.2-2.8h9.1c.4 0 .6-.3.6-.6v-.2zm-6.5-3.5c1.2 0 2.2.6 2.8 1.6h-5.6c.6-1 1.7-1.6 2.8-1.6zm2.7-3.9h-5.8c-.3 0-.5-.2-.5-.5V8.5c.1-.2.3-.5.6-.5h5.8c.3 0 .5.2.5.5V10c-.1.2-.3.5-.6.5z"/></svg>