<?xml version="1.0" encoding="utf-8"?>
<!-- Generator: Adobe Illustrator 18.0.0, SVG Export Plug-In . SVG Version: 6.00 Build 0)  -->
<!DOCTYPE svg PUBLIC "-//W3C//DTD SVG 1.1//EN" "http://www.w3.org/Graphics/SVG/1.1/DTD/svg11.dtd">
<svg version="1.1" id="Calque_1" xmlns="http://www.w3.org/2000/svg" xmlns:xlink="http://www.w3.org/1999/xlink" x="0px" y="0px"
	 viewBox="0 0 32 32" style="enable-background:new 0 0 32 32; fill: #abb0bc;" xml:space="preserve">
<path d="M26,2h-2c0,1.1-0.3,2.2-0.7,3.2C21.5,3.2,18.9,2,16,2c-2.9,0-5.5,1.3-7.4,3.2C8.2,4.3,8,3.2,8,2L6,2c0,1.8,0.5,3.5,1.3,5
	C6.5,8.5,6,10.2,6,12c0,5.2,4,9.5,9,10v8h2v-8c5.1-0.5,9-4.8,9-10c0-1.8-0.5-3.5-1.3-4.9C25.6,5.7,26,3.9,26,2z M16,4
	c2.5,0,4.7,1.1,6.2,2.9c-1.5,1.8-3.7,3.1-6.2,3.1c-2.5,0-4.8-1.2-6.3-3C11.2,5.2,13.5,4,16,4z M24,12c0,4.1-3.1,7.5-7,8v0h-2v0
	c-4-0.5-7-3.9-7-8c0-1.1,0.2-2.2,0.7-3.2c1.8,2,4.5,3.2,7.4,3.2c2.9,0,5.6-1.2,7.4-3.1C23.8,9.9,24,10.9,24,12z"/>
</svg>
