<svg xmlns="http://www.w3.org/2000/svg" fill="#abb0bc" viewBox="0 0 32 32" enable-background="new 0 0 32 32"><path d="M26.6 15.9c.2-.9.4-1.9.4-2.9 0-6.1-4.9-11-11-11S5 6.9 5 13c0 1 .2 2 .4 3-.3 1-.4 2-.4 3.1 0 6.1 4.9 11 11 11s11-4.9 11-11c0-1.2-.2-2.2-.4-3.2zM16 4c4.8 0 8.8 3.8 9 8.6C23 9.8 19.7 8 16 8s-7 1.8-9 4.6C7.2 7.8 11.2 4 16 4zm8.5 11.9c-1.2 3.5-4.5 6-8.5 6s-7.2-2.5-8.5-6C8.8 12.5 12.1 10 16 10s7.2 2.5 8.5 5.9zM16 28c-4.9 0-8.9-3.9-9-8.8 2 2.8 5.3 4.7 9 4.7s7-1.9 9-4.7c-.1 4.9-4.1 8.8-9 8.8z"/><circle cx="16" cy="16" r="2"/></svg>