<?xml version="1.0" encoding="utf-8"?>
<!-- Generator: Adobe Illustrator 18.0.0, SVG Export Plug-In . SVG Version: 6.00 Build 0)  -->
<!DOCTYPE svg PUBLIC "-//W3C//DTD SVG 1.1//EN" "http://www.w3.org/Graphics/SVG/1.1/DTD/svg11.dtd">
<svg version="1.1" id="Calque_1" xmlns="http://www.w3.org/2000/svg" xmlns:xlink="http://www.w3.org/1999/xlink" x="0px" y="0px"
	 viewBox="0 0 32 32" style="enable-background:new 0 0 32 32;fill:white;" xml:space="preserve">
<style type="text/css">
	.st0{fill:#FFF;}
</style>
<g>
	<path id="LinkedIn" d="M30,19v10.4h-6v-9.7c0-2.4-0.9-4.1-3-4.1c-1.7,0-2.6,1.1-3.1,2.2c-0.2,0.4-0.2,0.9-0.2,1.5v10.1h-6
		c0,0,0.1-16.4,0-18.1h6v2.6c0,0,0,0,0,0.1h0v-0.1c0.8-1.2,2.2-3,5.4-3C27,10.9,30,13.5,30,19z M5.4,2.6C3.3,2.6,2,4,2,5.7
		c0,1.7,1.3,3.1,3.3,3.1h0c2.1,0,3.4-1.4,3.4-3.1C8.7,4,7.5,2.6,5.4,2.6z M2.4,29.4h6V11.3h-6V29.4z"/>
</g>
</svg>
