<svg xmlns="http://www.w3.org/2000/svg" fill="#fff" viewBox="0 0 32 32" enable-background="new 0 0 32 32"><style type="text/css">.st0{fill:#010002;}</style><path d="M16 2C8.3 2 2 8.3 2 16s6.3 14 14 14 14-6.3 14-14S23.7 2 16 2zm9.1 6.6c1.6 1.9 2.5 4.4 2.6 7-2.9-.6-5.5-.5-7.9-.1-.4-1-.9-1.9-1.3-2.8 2.6-1 4.8-2.4 6.6-4.1zM23.5 7c-1.8 1.6-3.9 2.9-6 3.8-1.6-2.9-3.1-5-4-6.2.8-.2 1.6-.3 2.4-.3 3-.1 5.6 1 7.6 2.7zM11.3 5.2c.7.9 2.3 3.1 4.1 6.3-4.4 1.4-8.7 1.7-10.8 1.7.8-3.5 3.4-6.5 6.7-8zm-7 10.3c1.5 0 4.1-.1 7.2-.7 1.8-.3 3.4-.8 5-1.3.4.8.8 1.7 1.2 2.6-2.2.7-4 1.7-5.5 2.7C9.7 20.6 8 22.4 7 23.6c-1.7-2-2.8-4.7-2.8-7.6 0-.2.1-.3.1-.5zm4.4 9.7c.8-1 2.5-2.9 4.8-4.5 1.6-1.1 3.3-1.9 5-2.5 1 2.6 1.9 5.5 2.4 8.5-1.5.7-3.1 1.1-4.9 1.1-2.8 0-5.3-1-7.3-2.6zm14.2.3c-.5-2.8-1.3-5.4-2.2-7.8 2.2-.4 4.5-.3 6.9.2-.5 3.1-2.2 5.8-4.7 7.6z"/></svg>