<?xml version="1.0" encoding="utf-8"?>
<!-- Generator: Adobe Illustrator 18.0.0, SVG Export Plug-In . SVG Version: 6.00 Build 0)  -->
<!DOCTYPE svg PUBLIC "-//W3C//DTD SVG 1.1//EN" "http://www.w3.org/Graphics/SVG/1.1/DTD/svg11.dtd">
<svg version="1.1" id="Calque_1" xmlns="http://www.w3.org/2000/svg" xmlns:xlink="http://www.w3.org/1999/xlink" x="0px" y="0px"
	 viewBox="0 0 32 32" style="enable-background:new 0 0 32 32; fill: #abb0bc;" xml:space="preserve">
<path d="M23,3.9C20.9,2.7,18.6,2,16,2s-4.9,0.7-7,1.9C6.9,2.7,4.6,2,2,2v28c2.6,0,4.9-0.7,7-1.9c2.1,1.2,4.4,1.9,7,1.9
	s4.9-0.7,7-1.9c2.1,1.2,4.4,1.9,7,1.9V2C27.4,2,25.1,2.7,23,3.9z M4,4.1c1.1,0.2,2.2,0.5,3.2,1C5.9,6.1,4.8,7.4,4,8.8V4.1z M14,16
	c0,4-2,7.6-5,9.8C6,23.5,4,20,4,16c0-4,2-7.6,5.1-9.8C12,8.4,14,12,14,16z M4,27.8v-4.6c0.8,1.4,1.9,2.6,3.1,3.7
	C6.2,27.3,5.1,27.6,4,27.8z M16,28c-1.8,0-3.6-0.4-5.1-1.2C14,24.3,16,20.4,16,16s-2-8.3-5.1-10.8C12.4,4.4,14.2,4,16,4
	s3.6,0.4,5.1,1.2C18,7.7,16,11.6,16,16s2,8.3,5.1,10.8C19.6,27.6,17.8,28,16,28z M28,16c0,4-2,7.5-5,9.7c-3-2.2-5-5.7-5-9.7
	c0-4,2-7.6,5-9.8C26,8.4,28,12,28,16z M28,27.8c-1.1-0.2-2.2-0.5-3.1-1c1.2-1,2.3-2.3,3.1-3.7V27.8z M24.8,5.1c1-0.5,2.1-0.8,3.2-1
	v4.7C27.2,7.4,26.1,6.1,24.8,5.1z"/>
</svg>
