<?xml version="1.0" encoding="utf-8"?>
<!-- Generator: Adobe Illustrator 18.0.0, SVG Export Plug-In . SVG Version: 6.00 Build 0)  -->
<!DOCTYPE svg PUBLIC "-//W3C//DTD SVG 1.1//EN" "http://www.w3.org/Graphics/SVG/1.1/DTD/svg11.dtd">
<svg version="1.1" id="Calque_1" xmlns="http://www.w3.org/2000/svg" xmlns:xlink="http://www.w3.org/1999/xlink" x="0px" y="0px"
	 viewBox="0 0 32 32" style="enable-background:new 0 0 32 32;" xml:space="preserve">
<g>
	<path d="M26.6,15.9C26.8,15,27,14,27,13c0-6.1-4.9-11-11-11S5,6.9,5,13c0,1,0.2,2,0.4,3c-0.3,1-0.4,2-0.4,3.1c0,6.1,4.9,11,11,11
		s11-4.9,11-11C27,17.9,26.8,16.9,26.6,15.9z M16,4c4.8,0,8.8,3.8,9,8.6C23,9.8,19.7,8,16,8s-7,1.8-9,4.6C7.2,7.8,11.2,4,16,4z
		 M24.5,15.9c-1.2,3.5-4.5,6-8.5,6s-7.2-2.5-8.5-6C8.8,12.5,12.1,10,16,10S23.2,12.5,24.5,15.9z M16,28c-4.9,0-8.9-3.9-9-8.8
		c2,2.8,5.3,4.7,9,4.7s7-1.9,9-4.7C24.9,24.1,20.9,28,16,28z"/>
	<circle cx="16" cy="16" r="2"/>
</g>
</svg>
