<?xml version="1.0" encoding="utf-8"?>
<!-- Generator: Adobe Illustrator 18.0.0, SVG Export Plug-In . SVG Version: 6.00 Build 0)  -->
<!DOCTYPE svg PUBLIC "-//W3C//DTD SVG 1.1//EN" "http://www.w3.org/Graphics/SVG/1.1/DTD/svg11.dtd">
<svg version="1.1" id="Calque_1" xmlns="http://www.w3.org/2000/svg" xmlns:xlink="http://www.w3.org/1999/xlink" x="0px" y="0px"
	 viewBox="0 0 32 32" style="enable-background:new 0 0 32 32;fill: white;" xml:space="preserve">
<style type="text/css">
  .st0{fill:#FFF;}
</style>
<g>
	<path d="M13.8,14.6c0.5-0.8,0.8-1.7,0.7-2.6c0-2.6-2.2-4.6-4.8-4.6H2.6C2.3,7.4,2,7.6,2,8v15.9c0,0.3,0.3,0.6,0.6,0.6h8.1
		c3,0,5.5-2.4,5.5-5.4C16.2,17.2,15.2,15.6,13.8,14.6z M5.2,10.5h4.7c0.9,0,1.6,0.7,1.6,1.6c0,0.9-0.7,1.6-1.6,1.6H5.2V10.5z
		 M10.7,21.3H5.2v-4.5h4.7h0.9c1.2,0,2.2,1,2.2,2.2C13,20.3,12,21.3,10.7,21.3z"/>
	<path d="M30,17.9c0-3.7-2.9-6.7-6.5-6.7s-6.5,3-6.5,6.7s2.9,6.7,6.5,6.7c2.2,0,4.2-1.1,5.4-3c0.2-0.2,0.3-0.5,0.4-0.7
		c0.1-0.2,0-0.4-0.2-0.4l-3.2,0c-0.1,0-0.1,0-0.2,0.1c-0.6,0.6-1.3,0.9-2.2,0.9c-1.6,0-2.9-1.2-3.2-2.8h9.1c0.4,0,0.6-0.3,0.6-0.6
		V17.9z M23.5,14.4c1.2,0,2.2,0.6,2.8,1.6h-5.6C21.3,15,22.4,14.4,23.5,14.4z"/>
	<path d="M26.2,10.5h-5.8c-0.3,0-0.5-0.2-0.5-0.5V8.5C20,8.3,20.2,8,20.5,8h5.8c0.3,0,0.5,0.2,0.5,0.5V10
		C26.7,10.2,26.5,10.5,26.2,10.5z"/>
</g>
</svg>
