<?xml version="1.0" encoding="utf-8"?>
<!-- Generator: Adobe Illustrator 18.0.0, SVG Export Plug-In . SVG Version: 6.00 Build 0)  -->
<!DOCTYPE svg PUBLIC "-//W3C//DTD SVG 1.1//EN" "http://www.w3.org/Graphics/SVG/1.1/DTD/svg11.dtd">
<svg version="1.1" id="Calque_1" xmlns="http://www.w3.org/2000/svg" xmlns:xlink="http://www.w3.org/1999/xlink" x="0px" y="0px"
	 viewBox="0 0 32 32" style="enable-background:new 0 0 32 32;fill: #abb0bc;" xml:space="preserve">
<g>
	<polygon points="16,4.4 23,11.4 30.7,3.7 29.3,2.3 23,8.6 16,1.6 9,8.6 2.7,2.3 1.3,3.7 9,11.4 	"/>
	<polygon points="23,14.9 16,7.9 9,14.9 2.7,8.7 1.3,10.1 9,17.8 16,10.8 23,17.8 30.7,10.1 29.3,8.7 	"/>
	<polygon points="23,21.3 16,14.3 9,21.3 2.7,15 1.3,16.4 9,24.1 16,17.1 23,24.1 30.7,16.4 29.3,15 	"/>
	<polygon points="23,27.7 16,20.7 9,27.7 2.7,21.4 1.3,22.8 9,30.5 16,23.5 23,30.5 30.7,22.8 29.3,21.4 	"/>
</g>
</svg>
