<?xml version="1.0" encoding="utf-8"?>
<!-- Generator: Adobe Illustrator 18.0.0, SVG Export Plug-In . SVG Version: 6.00 Build 0)  -->
<!DOCTYPE svg PUBLIC "-//W3C//DTD SVG 1.1//EN" "http://www.w3.org/Graphics/SVG/1.1/DTD/svg11.dtd">
<svg version="1.1" id="Calque_1" xmlns="http://www.w3.org/2000/svg" xmlns:xlink="http://www.w3.org/1999/xlink" x="0px" y="0px"
	 viewBox="0 0 32 32" style="enable-background:new 0 0 32 32;" xml:space="preserve">
<style type="text/css">
	.st0{fill:#66C980;}
	.st1{fill:#FFFFFF;}
	.st2{fill:#EC82BE;}
	.st3{fill:#00B9D1;}
	.st4{fill:#E9644B;}
	.st5{opacity:0.6;}
	.st6{fill:#E37E22;}
	.st7{fill:#F1CD3F;}
</style>
<g>
	<circle class="st3" cx="16" cy="16" r="16"/>
	<path class="st1" d="M19.9,9.6c0.4,0,0.6,0.3,0.6,0.6v11.5c0,0.4-0.3,0.6-0.6,0.6c-0.1,0-0.2,0-0.3-0.1l-3-3.8l-0.5-0.7l-0.5,0.7
		l-3,3.8c-0.1,0.1-0.2,0.1-0.3,0.1c-0.3,0-0.6-0.2-0.6-0.6V10.2c0-0.4,0.3-0.6,0.6-0.6H19.9 M19.9,9h-7.6C11.6,9,11,9.5,11,10.2
		v11.5c0,0.8,0.6,1.3,1.3,1.3c0.3,0,0.6-0.1,0.8-0.3l3-3.9l3,3.9c0.2,0.2,0.5,0.3,0.8,0.3c0.7,0,1.3-0.5,1.3-1.3V10.2
		C21.2,9.5,20.6,9,19.9,9L19.9,9z"/>
</g>
</svg>
