<?xml version="1.0" encoding="utf-8"?>
<!-- Generator: Adobe Illustrator 18.0.0, SVG Export Plug-In . SVG Version: 6.00 Build 0)  -->
<!DOCTYPE svg PUBLIC "-//W3C//DTD SVG 1.1//EN" "http://www.w3.org/Graphics/SVG/1.1/DTD/svg11.dtd">
<svg version="1.1" id="Calque_1" xmlns="http://www.w3.org/2000/svg" xmlns:xlink="http://www.w3.org/1999/xlink" x="0px" y="0px"
	 viewBox="0 0 32 32" style="enable-background:new 0 0 32 32;" xml:space="preserve">
<style type="text/css">
	.st0{fill:#66C980;}
	.st1{fill:#FFFFFF;}
	.st2{fill:#EC82BE;}
	.st3{fill:#00B9D1;}
	.st4{fill:#E9644B;}
	.st5{opacity:0.6;}
	.st6{fill:#E37E22;}
	.st7{fill:#F1CD3F;}
</style>
<g>
	<circle class="st6" cx="16" cy="16" r="16"/>
	<g>
		<path class="st1" d="M22.5,22.4L18.3,9.1c0-0.1-0.2-0.2-0.3-0.2c-0.1,0-0.3,0.1-0.3,0.2l-4.4,13.3c-0.1,0.2,0,0.3,0.2,0.4
			c0,0,0.1,0,0.1,0c0.1,0,0.3-0.1,0.3-0.2l1.1-3.2h5.9l1,3.2c0.1,0.2,0.2,0.2,0.4,0.2C22.5,22.7,22.6,22.5,22.5,22.4z M15.2,18.7
			l2.8-8.5l2.7,8.5H15.2z"/>
		<path class="st1" d="M12.7,22.6l-1.9-6c0-0.1-0.1-0.1-0.2-0.1h0c-0.1,0-0.1,0.1-0.2,0.1l-2,5.9c0,0.1,0,0.2,0.1,0.2c0,0,0,0,0,0
			c0.1,0,0.1,0.1,0.2,0l0.5-1.5h2.5l0.5,1.5c0,0.1,0.1,0.1,0.2,0.1C12.7,22.8,12.7,22.7,12.7,22.6z M9.5,21l1.2-3.5l1.1,3.5H9.5z"/>
	</g>
</g>
</svg>
