<svg xmlns="http://www.w3.org/2000/svg" viewBox="0 0 560.8 300" enable-background="new 0 0 560.8 300"><style type="text/css">.st0{fill:#230F66;}</style><path d="M0 132.2l7-25.7h6.2l7 25.7h-2.8l-1.9-6.6h-11l-1.9 6.6H0zM9.2 109l-3.9 14H15l-3.9-14H9.2zM24.4 106.6h9.3c2.5 0 4.5.5 5.7 1.6 1.3 1 1.9 2.7 1.9 4.9 0 1.6-.3 2.9-.8 3.8-.6.9-1.4 1.6-2.5 2.1 2.7.9 4.1 3 4.1 6 0 2.6-.7 4.4-2 5.5-1.4 1.1-3.3 1.7-5.9 1.7h-9.8v-25.6zm9.1 2.5h-6.3v8.9h6.6c1.6 0 2.7-.4 3.5-1.1.7-.8 1.1-1.9 1.1-3.4s-.4-2.6-1.2-3.3c-.8-.8-2-1.1-3.7-1.1zm.3 11.3h-6.6v9.3H34c1.7 0 3-.4 3.8-1.1.9-.7 1.3-1.9 1.3-3.7 0-.9-.2-1.7-.5-2.4-.4-.6-.8-1.1-1.4-1.4-1.1-.4-2.2-.7-3.4-.7zM62.7 131.8c-2.5.5-4.8.8-6.9.8s-3.7-.3-4.9-.8c-1.2-.6-2.2-1.4-2.9-2.6-.7-1.2-1.1-2.5-1.4-4-.3-1.5-.4-3.4-.4-5.7s.1-4.2.4-5.7c.3-1.5.7-2.9 1.4-4.1.7-1.2 1.6-2.1 2.9-2.6 1.2-.5 2.8-.8 4.8-.8s4.3.3 7 .8l-.1 2.4c-2.5-.4-4.7-.7-6.7-.7-2.7 0-4.5.8-5.4 2.4-.9 1.6-1.3 4.4-1.3 8.3 0 2 .1 3.5.2 4.7.2 1.2.5 2.3.9 3.2.5 1 1.2 1.6 2.1 2s2.2.6 4 .6c1.7 0 3.8-.2 6.2-.7l.1 2.5zM76.5 132.2h-9.2v-25.7h9.2c4.2 0 6.9 1.7 8.3 5 .8 1.9 1.2 4.4 1.2 7.5 0 6.5-1.6 10.5-4.8 12.2-1.3.7-2.9 1-4.7 1zm6.6-13.2c0-4.9-1.1-8-3.3-9.2-.9-.5-2-.7-3.3-.7h-6.3v20.6h6.3c4.4 0 6.6-3.6 6.6-10.7zM91.3 132.2v-25.7h15.6v2.5H94.1v8.9h10.5v2.5H94.1v9.3h12.8v2.5H91.3zM111.8 132.2v-25.7h15.3v2.5h-12.5v10h10.6v2.5h-10.6v10.6h-2.8zM141 121.6V119h7.1v12.6c-3.1.6-5.9.9-8.3.9-3.7 0-6.3-1.1-7.8-3.2-1.4-2.1-2.2-5.5-2.2-10s.7-7.8 2.2-10c1.4-2.2 4-3.2 7.7-3.2 2.3 0 4.7.2 7.2.7l1.3.2-.1 2.4c-3.1-.5-5.7-.8-8-.8-2.8 0-4.8.8-5.7 2.5-1 1.6-1.5 4.4-1.5 8.2 0 3.8.5 6.5 1.5 8.2 1 1.6 2.9 2.5 5.7 2.5 1.7 0 3.5-.2 5.3-.5v-7.9H141zM169.6 132.2v-11.6h-13v11.6h-2.9v-25.7h2.9V118h13v-11.5h2.8v25.7h-2.8zM178.7 132.2v-25.7h2.9v25.7h-2.9zM185.2 134.9v-2.6c1.8 0 2.9-.2 3.4-.6.5-.4.8-1.6.8-3.4v-21.7h2.8v22.1c0 2.1-.3 3.6-1 4.6-.6.8-1.7 1.3-3.4 1.5-.7 0-1.6.1-2.6.1zM201.2 132.2h-2.9v-25.7h2.9v11.9l4.2-.1 6.6-11.8h3.3l-7.3 12.9 7.7 12.8h-3.4l-6.8-11.3-4.3.1v11.2zM233.6 132.2h-14.1v-25.7h2.9v23.1h11.3v2.6zM237.2 132.2v-25.7h5.2l7.3 21.7 7.3-21.7h5.2v25.7h-2.9v-22.6h-.5l-7.5 21.7H248l-7.5-21.7h-.5v22.6h-2.8zM268.3 132.2v-25.7h5.3l9.8 23.1h.8v-23.1h2.8v25.7h-5.2l-10-23.1h-.7v23.1h-2.8zM312.6 119.6c0 4.6-.7 7.9-2.2 9.9-1.5 2.1-4.1 3.1-8 3.1-3.8 0-6.5-1-8-3.2-1.5-2.1-2.2-5.4-2.2-9.9s.7-7.9 2.2-10c1.5-2.2 4.1-3.3 7.9-3.3s6.4 1.1 7.9 3.3c1.7 2.1 2.4 5.5 2.4 10.1zm-17.3-.1c0 3.8.5 6.5 1.5 8.1 1 1.6 2.9 2.5 5.7 2.5 2.8 0 4.7-.8 5.7-2.4 1-1.6 1.5-4.3 1.5-8.1s-.5-6.5-1.5-8.3c-1-1.7-2.9-2.6-5.7-2.6-2.8 0-4.7.9-5.7 2.6-1 1.7-1.5 4.4-1.5 8.2zM327.2 123.6h-6.5v8.6h-2.9v-25.7h9.4c2.8 0 4.9.7 6.2 2 1.3 1.4 2 3.4 2 6.2 0 6-2.7 8.9-8.2 8.9zm-6.5-2.5h6.5c3.5 0 5.3-2.1 5.3-6.2 0-2-.4-3.4-1.3-4.4-.8-.9-2.2-1.4-4-1.4h-6.5v12zM348.9 132.6c-3.8 0-6.5-1-7.9-3.2-1.5-2.1-2.2-5.4-2.2-9.9s.7-7.9 2.2-10c1.5-2.2 4.1-3.3 7.9-3.3s6.4 1.1 7.9 3.3c1.5 2.2 2.2 5.5 2.2 10 0 3.1-.3 5.7-1 7.5-.6 1.9-1.7 3.3-3.3 4.2l3.1 5.1-2.7 1.3-3.3-5.3c-.6.2-1.6.3-2.9.3zm-7.2-13.1c0 3.8.5 6.5 1.5 8.1 1 1.6 2.9 2.5 5.7 2.5 2.8 0 4.7-.8 5.7-2.4 1-1.6 1.5-4.3 1.5-8.1s-.5-6.6-1.5-8.3c-1-1.7-2.9-2.6-5.7-2.6-2.8 0-4.7.9-5.7 2.6-1 1.7-1.5 4.4-1.5 8.2zM367.2 122.4v9.8h-2.9v-25.7h9.5c2.7 0 4.8.6 6.1 1.9 1.4 1.3 2.1 3.2 2.1 5.9 0 4-1.6 6.4-4.7 7.5l4.9 10.4H379l-4.6-9.8h-7.2zm6.6-2.5c3.5 0 5.2-1.8 5.2-5.4 0-3.6-1.8-5.4-5.3-5.4h-6.6v10.8h6.7zM394.2 108.7c-3.7 0-5.6 1.4-5.6 4.2 0 1.6.4 2.6 1.3 3.2.9.6 2.6 1.2 5.2 1.7 2.6.6 4.5 1.3 5.5 2.3 1.1.9 1.6 2.5 1.6 4.6 0 5.3-2.7 7.9-8.2 7.9-1.8 0-4.1-.2-6.8-.6l-1.3-.2.3-2.4c3.4.4 5.9.7 7.7.7 3.7 0 5.5-1.7 5.5-5.2 0-1.4-.4-2.4-1.2-3-.8-.6-2.3-1.1-4.5-1.5-2.9-.6-4.9-1.4-6.2-2.4-1.2-1-1.8-2.6-1.8-4.9 0-4.6 2.8-6.9 8.3-6.9 1.8 0 4 .2 6.5.6l1.3.2-.3 2.4c-3.4-.5-5.9-.7-7.3-.7zM404.6 109.1v-2.6h18.5v2.6h-7.8v23.1h-2.8v-23.1h-7.9zM429.4 124.5c0 3.7 2 5.6 6 5.6 2.1 0 3.6-.4 4.7-1.3 1-.9 1.6-2.3 1.6-4.2v-17.9h2.8v17.9c0 2.9-.8 4.9-2.3 6.2-1.5 1.3-3.8 1.9-6.7 1.9-3 0-5.2-.6-6.7-1.9-1.5-1.3-2.2-3.4-2.2-6.2v-17.9h2.9v17.8zM465.2 106.6h3l-6.7 25.7H455l-6.7-25.7h3l5.9 23.1h2.1l5.9-23.1zM470.1 106.6h3l4.4 23.1h1.1l5.2-22.9h3.3l5.2 22.9h1.1l4.4-23.1h2.9l-5.2 25.7h-5.2l-4.9-21.9-4.9 21.9h-5.2l-5.2-25.7zM505.8 106.6l6.5 11 6.5-11h3.1l-7.9 13 7.9 12.6h-3.2l-6.5-10.6-6.6 10.6h-3.1l7.9-12.6-7.9-13.1h3.3zM534 132.2h-2.9v-10.8l-8.2-14.9h3.2l6.4 12 6.4-12h3.2l-8.2 14.9v10.8zM544.1 109.1v-2.5h16.7v3.3L547.4 129v.7h13.4v2.6h-16.7V129l13.4-19.1v-.8h-13.4zM14.9 163.8v9.5c.1.9.8 1.5 2.1 1.6l-.1 2.2c-2 0-3.4-.5-4.4-1.5-2.2 1-4.4 1.5-6.7 1.5-1.7 0-3-.5-3.9-1.4s-1.3-2.3-1.3-4.2c0-1.8.5-3.1 1.4-4 .9-.9 2.3-1.4 4.3-1.6l5.8-.6v-1.6c0-1.3-.3-2.2-.8-2.7s-1.3-.8-2.2-.8c-2 0-4 .1-6.2.4l-1.1.1-.1-2.1c2.7-.5 5.1-.8 7.2-.8 2.1 0 3.6.5 4.6 1.4.9 1 1.4 2.5 1.4 4.6zm-11.5 7.5c0 2.3.9 3.4 2.8 3.4 1.7 0 3.3-.3 5-.9l.9-.3v-6.1l-5.5.6c-1.1.1-1.9.4-2.4 1-.5.5-.8 1.3-.8 2.3zM28.5 157.8c2.5 0 4.2.7 5.2 2.1 1 1.4 1.5 3.9 1.5 7.5s-.6 6.1-1.9 7.5c-1.2 1.4-3.5 2.2-6.9 2.2-1 0-2.8-.1-5.2-.3l-1-.1v-26.6h2.7v9c2.1-.9 3.9-1.3 5.6-1.3zm-2 16.8c2.4 0 4-.5 4.8-1.6.8-1.1 1.2-3 1.2-5.6 0-2.6-.3-4.5-.9-5.5-.6-1-1.7-1.6-3.3-1.6-1.4 0-2.9.3-4.4.8l-.7.3v13c1.5.1 2.6.2 3.3.2zM46.8 157.8c.8 0 2.2.1 4.2.4l.9.1-.1 2.3c-2-.2-3.4-.3-4.4-.3-2.1 0-3.5.5-4.3 1.5-.8 1-1.1 2.9-1.1 5.6 0 2.7.4 4.6 1.1 5.7.7 1.1 2.2 1.6 4.4 1.6l4.4-.3.1 2.3c-2.3.3-4 .5-5.2.5-2.9 0-4.9-.7-6-2.2-1.1-1.5-1.6-4-1.6-7.5s.6-6 1.8-7.4c1-1.6 3-2.3 5.8-2.3zM70.1 150.1v26.6h-2.7v-1.3c-1.9 1.1-3.8 1.6-5.6 1.6-1 0-1.9-.1-2.6-.4-.7-.2-1.4-.7-2.1-1.3-1.3-1.3-2-3.8-2-7.4 0-3.6.6-6.2 1.8-7.8 1.2-1.6 3.2-2.4 5.9-2.4 1.4 0 3 .2 4.6.5V150h2.7zm-9.7 24.2c.4.2 1 .3 1.7.3s1.5-.1 2.4-.4c.9-.2 1.6-.5 2.1-.7l.7-.3v-12.6c-1.6-.3-3.1-.4-4.4-.4-1.9 0-3.2.6-3.9 1.8-.7 1.2-1.1 3.1-1.1 5.6 0 2.9.4 4.8 1.3 5.8.4.4.8.7 1.2.9zM88 174.4l1.1-.1.1 2.2c-2.8.4-5.2.6-7.2.6-2.7 0-4.6-.8-5.7-2.3-1.1-1.5-1.7-3.9-1.7-7.2 0-6.5 2.6-9.7 7.7-9.7 2.5 0 4.4.7 5.6 2.1 1.2 1.4 1.9 3.6 1.9 6.6l-.1 2.1H77.4c0 2.1.4 3.6 1.1 4.6.7 1 2 1.5 3.9 1.5 1.9-.2 3.7-.3 5.6-.4zm-1-8c0-2.3-.4-3.9-1.1-4.8-.7-.9-1.9-1.4-3.6-1.4-1.6 0-2.9.5-3.7 1.5-.8 1-1.3 2.6-1.3 4.7H87zM97.7 160.6v16.1h-2.8v-16.1h-2.3v-2.4h2.3v-1.7c0-2.6.4-4.4 1.1-5.4.7-1 2-1.4 3.9-1.4l3.7.3v2.3c-1.4 0-2.5-.1-3.4-.1-.9 0-1.5.3-1.9.9-.4.6-.6 1.7-.6 3.4v1.6h5.4v2.4h-5.4zM113.4 185.4c-3 0-5-.4-6.2-1.2-1.2-.8-1.8-2.3-1.8-4.4 0-1 .2-1.8.7-2.5.4-.6 1.2-1.3 2.3-2.1-.7-.5-1-1.3-1-2.6 0-.4.3-1.2.9-2.3l.3-.6c-2-.9-2.9-2.8-2.9-5.6 0-4.2 2.3-6.3 6.9-6.3 1.2 0 2.3.1 3.3.4l.6.1 5.5-.1v2.4l-3.5-.1c.8.8 1.2 2.1 1.2 3.7 0 2.3-.6 3.9-1.7 4.9-1.1.9-3 1.4-5.4 1.4-.7 0-1.3 0-1.8-.1-.4 1.1-.7 1.8-.7 2.1 0 .8.2 1.2.7 1.4.5.2 1.9.3 4.3.3s4.1.4 5.1 1.1c1 .7 1.6 2.2 1.6 4.3-.2 3.8-2.9 5.8-8.4 5.8zm-5.2-5.8c0 1.3.4 2.2 1.1 2.7s2.1.8 4 .8c2 0 3.4-.3 4.2-.8.9-.5 1.3-1.5 1.3-2.7 0-1.3-.3-2.1-.9-2.5-.6-.4-1.8-.6-3.6-.6l-4-.2c-.8.6-1.4 1.1-1.6 1.6-.4.4-.5 1-.5 1.7zm.2-15.5c0 1.5.3 2.5 1 3.1.7.6 1.7.9 3.2.9s2.6-.3 3.2-.9c.6-.6 1-1.7 1-3.1 0-1.5-.3-2.5-1-3.1-.6-.6-1.7-.9-3.2-.9s-2.6.3-3.2.9c-.6.6-1 1.7-1 3.1zM128.1 176.7h-2.8v-26.6h2.8v9.1c2-.9 3.9-1.4 5.7-1.4 2.5 0 4.1.7 5 2s1.3 3.7 1.3 7.1v9.8h-2.8V167c0-2.6-.3-4.3-.8-5.3s-1.6-1.4-3.2-1.4-3.1.3-4.5.9l-.7.3v15.2zM145.2 154v-3.2h2.8v3.2h-2.8zm0 22.7v-18.5h2.8v18.5h-2.8zM153.4 176.2v-18.1h2.7v18.1c0 2.3-.4 4-1.2 5.1-.8 1.1-2.5 2.3-4.9 3.6l-1.1-2.2c1.9-1.1 3.2-2.1 3.7-2.8.5-.7.8-2 .8-3.7zm0-22.2v-3.2h2.7v3.2h-2.7zM164.2 176.7h-2.8v-26.6h2.8v15.7l2.9-.1 5.3-7.5h3.2l-6 8.5 6.3 10h-3.2l-5.5-8.6-2.9.1v8.5zM179.4 176.7v-26.6h2.8v26.6h-2.8zM190.5 176.7h-2.8v-18.5h2.7v1.3c1.9-1.1 3.7-1.7 5.4-1.7 2.3 0 3.9.6 4.8 1.9.8-.5 1.9-.9 3.2-1.3 1.3-.4 2.4-.6 3.4-.6 2.5 0 4.1.7 5 2 .9 1.3 1.3 3.7 1.3 7.1v9.8h-2.8V167c0-2.6-.2-4.3-.7-5.3-.5-1-1.5-1.4-3.2-1.4-.8 0-1.7.1-2.5.4-.9.2-1.5.5-2 .7l-.7.3c.3.8.5 2.6.5 5.4v9.6h-2.8v-9.6c0-2.7-.2-4.5-.7-5.4-.5-1-1.5-1.4-3.2-1.4-.8 0-1.6.1-2.4.4-.8.2-1.5.5-1.9.7l-.6.3v15zM221.5 176.7h-2.8v-18.5h2.7v1.3c2-1.1 3.9-1.7 5.7-1.7 2.5 0 4.1.7 5 2s1.3 3.7 1.3 7.1v9.8h-2.7V167c0-2.6-.3-4.3-.8-5.3s-1.6-1.4-3.2-1.4c-.8 0-1.6.1-2.5.4-.9.2-1.6.5-2 .7l-.7.3v15zM237.8 167.4c0-3.4.6-5.8 1.8-7.3 1.2-1.5 3.3-2.3 6.1-2.3 2.9 0 4.9.8 6.1 2.3 1.2 1.5 1.8 4 1.8 7.3 0 3.4-.6 5.8-1.7 7.4-1.1 1.5-3.2 2.3-6.2 2.3s-5.1-.8-6.2-2.3c-1.1-1.6-1.7-4-1.7-7.4zm2.9-.1c0 2.7.3 4.6 1 5.7.7 1.1 2 1.6 4.1 1.6 2.1 0 3.5-.5 4.1-1.6s1-3 1-5.7-.4-4.6-1.1-5.6c-.7-1-2-1.5-4-1.5-1.9 0-3.3.5-4 1.5s-1.1 2.9-1.1 5.6zM258.2 184.9v-26.8h2.7v1.3c1.9-1.1 3.7-1.7 5.6-1.7 2.3 0 4.1.7 5.1 2.2 1.1 1.5 1.6 4 1.6 7.4s-.6 5.9-1.9 7.4c-1.2 1.5-3.3 2.2-6.2 2.2-1.5 0-2.9-.1-4.2-.4v8.3h-2.7zm7.9-24.6c-.7 0-1.5.1-2.4.4-.9.2-1.5.5-2 .7l-.7.4v12.5c1.8.3 3.1.4 4 .4 2 0 3.4-.6 4.2-1.7.8-1.1 1.2-3 1.2-5.6 0-2.6-.4-4.4-1.1-5.5-.7-1.1-1.8-1.6-3.2-1.6zM283.9 177.1c-2.5 0-4.3-.7-5.4-2.2-1.1-1.5-1.6-3.9-1.6-7.4 0-3.5.6-6 1.9-7.5 1.3-1.5 3.6-2.2 6.8-2.2l6.2.4V185h-2.7v-9.1c-1.7.8-3.4 1.2-5.2 1.2zm1.8-16.9c-2.3 0-3.9.6-4.7 1.7-.8 1.2-1.2 3-1.2 5.5s.3 4.3 1 5.4c.7 1.1 1.8 1.6 3.4 1.6 1.4 0 2.9-.3 4.3-.8l.7-.3v-13.1c-1.6.1-2.7 0-3.5 0zM297.2 176.7v-18.5h2.7v2.5c2.1-1.5 4.4-2.5 6.8-2.9v2.8c-1 .2-2.1.5-3.2.9s-2 .8-2.6 1.1l-.9.5v13.6h-2.8zM315.9 160.3c-2.7 0-4 .9-4 2.8 0 .9.3 1.5.9 1.8.6.4 2 .7 4.2 1.1 2.2.4 3.8.9 4.7 1.6.9.7 1.4 2 1.4 3.9s-.6 3.3-1.8 4.2c-1.2.9-3 1.3-5.4 1.3-1.5 0-3.3-.2-5.4-.5l-1.1-.2.1-2.4c2.8.4 4.9.6 6.4.6 1.4 0 2.5-.2 3.3-.7.8-.5 1.1-1.2 1.1-2.3 0-1.1-.3-1.8-1-2.2-.6-.4-2-.7-4.2-1.1-2.2-.3-3.7-.9-4.6-1.5-.9-.7-1.4-1.9-1.4-3.7 0-1.8.6-3.1 1.9-4 1.3-.9 2.9-1.3 4.8-1.3 1.5 0 3.4.2 5.7.5l1 .2-.1 2.4c-2.8-.3-4.9-.5-6.5-.5zM336.9 160.6H331v8.9c0 2.1.2 3.5.5 4.2.3.7 1 1 2.2 1l3.3-.2.2 2.3c-1.7.3-2.9.4-3.8.4-1.9 0-3.3-.5-4-1.4s-1.1-2.7-1.1-5.4v-9.7h-2.6v-2.4h2.6v-5.7h2.7v5.7h5.9v2.3zM351.9 158.2h2.8v18.5h-2.8v-1.3c-1.9 1.1-3.7 1.7-5.5 1.7-2.5 0-4.2-.7-5-2-.8-1.3-1.2-3.7-1.2-7.3v-9.7h2.8v9.6c0 2.7.2 4.5.7 5.4.5.9 1.5 1.4 3.2 1.4.8 0 1.6-.1 2.5-.4.8-.2 1.5-.5 1.9-.7l.7-.3v-14.9zM358.3 158.2h3l4.3 16.1h1.4l4.5-16.1h2.9l-5.2 18.5h-5.6l-5.3-18.5zM376.3 158.2h2.8l3.7 16.1h.6l4.4-15.8h2.9l4.4 15.8h.6l3.7-16.1h2.8l-4.4 18.5h-4.6l-3.9-14.5-3.9 14.5h-4.6l-4.5-18.5zM404.2 158.2h3l4.5 7.3 4.5-7.3h3l-5.9 9.2 5.9 9.3h-3l-4.5-7.2-4.5 7.2h-3l5.8-9.3-5.8-9.2zM421.1 158.2h2.8l4.6 16.1h1.2l4.7-16.1h2.8l-7.7 26.8h-2.8l2.4-8.2h-2.7l-5.3-18.6zM439.6 160.6v-2.5h13.8v2.5L443 174.2h10.4v2.5h-13.8v-2.5l10.4-13.6h-10.4zM9.5 196.3c2 0 3.7.4 4.9 1.1 2.7 1.6 4 5.5 4 11.9 0 4.5-.7 7.6-2.2 9.5-1.5 1.8-3.7 2.8-6.7 2.8s-5.2-.9-6.7-2.7c-1.5-1.8-2.2-5.1-2.2-9.7 0-4.7.7-8 2.2-9.9 1.4-2 3.7-3 6.7-3zm0 2.6c-1.4 0-2.5.3-3.3.9-1.8 1.2-2.6 4.4-2.6 9.6 0 3.7.5 6.2 1.4 7.6 1 1.4 2.5 2.1 4.5 2.1s3.6-.7 4.5-2.1c1-1.4 1.4-4 1.4-7.8s-.5-6.5-1.4-8-2.4-2.3-4.5-2.3zM34.3 196.7v24.5h-2.9v-21.3l-6.3 4.2-1.3-2.2 7.8-5.2h2.7zM58.8 221.2H43.2v-2.4l7.2-7.5c1.2-1.3 2.1-2.3 2.7-2.9.6-.7 1.1-1.5 1.5-2.4.5-.9.7-1.8.7-2.7 0-1.6-.4-2.7-1.3-3.3s-2.2-1-4-1c-1.6 0-3.4.2-5.4.6l-1 .2-.2-2.4c2.3-.7 4.8-1 7.3-1s4.4.5 5.7 1.6c1.3 1 1.9 2.7 1.9 5 0 1.7-.4 3.2-1.1 4.5s-2.1 2.8-4 4.6l-6.5 6.6H59v2.5zM64.1 197.3c2.3-.7 4.8-1 7.5-1s4.6.5 5.8 1.5c1.2 1 1.8 2.6 1.8 4.9 0 1.1-.2 2-.5 2.5s-.6.9-.7 1.2c-.2.3-.4.5-.7.8-.5.4-1 .7-1.3.9l-.4.3c1.4.5 2.5 1.2 3.2 2 .7.8 1 2.1 1 3.9 0 2.5-.6 4.4-1.9 5.6-1.3 1.2-3.3 1.8-6 1.8-2.2 0-4.5-.2-6.9-.7l-1.1-.3.3-2.3c2.7.5 5.2.8 7.5.8 3.5 0 5.3-1.6 5.3-4.7 0-2.9-1.7-4.5-5-4.6h-4.9v-2.4H72c1 0 2-.4 3-1.2s1.4-1.9 1.4-3.3-.4-2.3-1.1-2.9c-.8-.6-2.1-.9-3.9-.9-2 0-3.9.2-5.9.6l-1 .2-.4-2.7zM95.5 221.2v-4.8H83.6v-2.2l7-17.5h3.1l-7.1 17.2h8.9v-7.6h2.9v7.6h3.1v2.5h-3.1v4.8h-2.9zM120.6 196.7v2.6h-11.9l-.7 8c1.9-1 3.8-1.5 5.7-1.5 5.2 0 7.8 2.4 7.8 7.2 0 2.8-.7 4.9-2.1 6.3-1.4 1.5-3.4 2.2-6 2.2-2.1 0-4.4-.3-6.9-.8l-1.2-.3.3-2.3c2.8.5 5.2.8 7.2.8 1.9 0 3.4-.5 4.4-1.5 1-1 1.5-2.4 1.5-4.2 0-1.8-.5-3.1-1.4-3.8-.9-.8-2.2-1.1-3.8-1.1-.9 0-1.8.1-2.8.4-1 .2-1.7.5-2.2.7l-.8.4-2-.4.7-12.7h14.2zM141.5 199.3c-2.2-.3-4.4-.4-6.5-.4-2.1 0-3.7.7-4.9 2.2-1.1 1.5-1.7 3.5-1.7 6.3l.9-.4c.6-.2 1.4-.5 2.5-.7 1-.2 1.9-.4 2.7-.4 5.5 0 8.2 2.5 8.2 7.6 0 2.6-.7 4.6-2.2 6-1.5 1.4-3.6 2.1-6.3 2.1-5.8 0-8.7-4.2-8.7-12.7 0-4.3.8-7.4 2.5-9.5 1.7-2 4-3 7.1-3 2 0 3.9.1 5.7.4l1 .2-.3 2.3zm-7.1 9.1c-.8 0-1.8.1-2.8.4-1 .2-1.8.5-2.4.7l-.9.4c0 2.8.5 5.1 1.4 6.7.9 1.7 2.3 2.5 4.2 2.5 1.9 0 3.3-.5 4.3-1.4 1-1 1.4-2.3 1.4-4 0-1.7-.5-3-1.4-3.9-.7-1-2.1-1.4-3.8-1.4zM147.3 199.3v-2.6h15.2v3.7l-9.4 21.1-2.7-.9 9.2-20.4v-1h-12.3zM169.1 197.9c1.5-1.1 3.7-1.6 6.4-1.6s4.9.5 6.5 1.6c1.6 1.1 2.4 2.7 2.4 4.8 0 1.5-.3 2.7-.9 3.5-.6.8-1.7 1.5-3.2 2.2 1.5.7 2.6 1.5 3.3 2.4.7.9 1.1 2.2 1.1 3.8 0 4.7-3.1 7-9.2 7s-9.2-2.2-9.2-6.6c0-1.8.3-3.1 1-4 .7-.9 1.7-1.8 3.2-2.6-1.3-.7-2.3-1.4-2.9-2.3-.6-.9-.9-2-.9-3.5.1-2 .8-3.6 2.4-4.7zm.3 16.6c0 3 2 4.5 6.1 4.5s6.1-1.6 6.1-4.7c0-1.3-.4-2.3-1.1-2.9-.7-.6-1.8-1.2-3.2-1.6h-3.9c-1.4.4-2.4.9-3 1.6-.7.7-1 1.8-1 3.1zm11.9-11.5c0-2.7-1.9-4.1-5.7-4.1-3.8 0-5.7 1.4-5.7 4.1 0 1.1.3 2 .9 2.6.6.7 1.5 1.2 2.7 1.7h3.9c1.3-.4 2.3-1 3-1.6.6-.7.9-1.6.9-2.7zM195.1 219c4.5 0 6.7-2.8 6.7-8.5-2.5.9-4.6 1.4-6.4 1.4-5.3 0-8-2.5-8-7.5 0-2.5.8-4.5 2.3-5.9 1.5-1.5 3.6-2.2 6.2-2.2 3 0 5.2 1.1 6.7 3.3 1.5 2.2 2.2 5.5 2.2 9.7 0 4.3-.8 7.4-2.5 9.3-1.6 1.9-4.1 2.9-7.2 2.9-1.9 0-3.8-.2-5.7-.5l-1-.1.3-2.3c2.2.3 4.3.4 6.4.4zm.6-9.6c1.5 0 3.2-.3 5.2-1l1-.3c-.1-6.1-2.1-9.2-5.9-9.2-1.7 0-3.1.5-4.1 1.5-1 1-1.5 2.4-1.5 4.1 0 3.2 1.8 4.9 5.3 4.9zM4.1 272.1l.5-2.2h14.5l-.5 2.2h-6l-4.7 20.2H5.4l4.7-20.2h-6zM16.5 292.4l3.7-16.2h2.4l-3.8 16.2h-2.3zm4.4-19.6l.7-2.9H24l-.7 2.9h-2.4zM27.2 289.1c0 1 .5 1.5 1.6 1.5l2.5-.2-.2 1.8c-1.1.3-2.2.5-3.2.5s-1.8-.3-2.4-.8c-.6-.5-.9-1.3-.9-2.2 0-.9.2-2.1.5-3.4l1.9-8h-2.1l.6-2.1h2.1l1.1-4.8h2.4l-1.2 4.8h4.5l-.5 2.1h-4.5l-1.9 8.1c-.2 1-.3 1.9-.3 2.7zM33.5 292.4l3.7-16.2h2.4l-3.8 16.2h-2.3zm4.4-19.6l.7-2.9H41l-.7 2.9h-2.4zM40.3 292.4l5.4-23.3h2.4l-5.4 23.3h-2.4zM47.1 292.4l3.7-16.2h2.4l-3.8 16.2h-2.3zm4.5-19.6l.7-2.9h2.4l-.7 2.9h-2.4zM58.7 292.7c-1.3 0-2.2-.4-2.9-1.1-.6-.7-1-1.7-1-2.9s.2-2.6.6-4.3l1.9-8.2h2.4l-1.9 8.1c-.4 1.6-.6 2.9-.6 3.9 0 1.6.7 2.4 2.2 2.4.6 0 1.4-.3 2.2-.9.8-.6 1.5-1.2 2-1.8l.8-.9 2.5-10.8h2.4l-3.7 16.2h-2.4l.6-2.8c-.2.2-.5.5-.8.9-.3.3-.9.8-1.8 1.4-.8.5-1.7.8-2.5.8zM82 280.4c0-1.6-.7-2.4-2.2-2.4-.6 0-1.4.3-2.2.9-.8.6-1.5 1.2-2 1.8l-.7.9-2.5 10.8H70l3.7-16.2H76l-.6 2.8c.5-.6 1.1-1.2 1.8-1.7 1.3-1 2.5-1.4 3.5-1.4 1.2 0 2.1.3 2.6 1 .5.6.8 1.2.9 1.9.2-.2.5-.5.8-.8.4-.3 1-.8 2-1.3s1.8-.8 2.6-.8c1.3 0 2.2.4 2.8 1.1.6.7 1 1.6 1 2.7s-.2 2.6-.6 4.5l-1.9 8.2h-2.4l1.9-8.1c.4-1.6.6-2.9.6-3.9 0-1.6-.7-2.5-2.1-2.5-.6 0-1.3.2-2 .7-.7.5-1.3 1-1.8 1.5l-.7.7c-.1 1-.2 2.1-.6 3.3l-1.9 8.2h-2.4l1.9-8.1c.4-1.5.6-2.8.6-3.8zM114.6 269.9c2 0 3.4.4 4.4 1.3 1 .8 1.4 2.3 1.4 4.5 0 2.1-.6 3.9-1.7 5.3-1.2 1.4-2.5 2.3-4 2.7l2.5 8.7h-2.5l-2.3-8.4h-5.3l-2 8.4h-2.5l5.2-22.4h6.8zm3.3 5.5c0-1.2-.3-2.1-.8-2.6s-1.4-.7-2.7-.7h-4.6l-2.2 9.7h4.8c1.7 0 3-.6 4.1-1.8.9-1.2 1.4-2.7 1.4-4.6zM123.6 287.6c0 .9.3 1.6.8 2.2.6.5 1.3.8 2.1.8 1.5 0 3.1-.2 4.7-.5l.8-.2-.2 1.9c-1.9.6-3.8.9-5.5.9-3.4 0-5.2-1.6-5.2-4.9 0-3 .7-5.7 2-8 .7-1.2 1.6-2.1 2.8-2.8 1.2-.7 2.5-1.1 3.9-1.1 3.2 0 4.8 1.3 4.8 4 0 1.9-.7 3.3-2.2 4s-3.8 1.2-6.9 1.2H124c-.3.7-.4 1.6-.4 2.5zm2.5-4.5c2.2 0 3.8-.2 4.8-.7 1-.5 1.5-1.3 1.5-2.5 0-1.3-.8-1.9-2.5-1.9-2.7 0-4.5 1.7-5.5 5.2h1.7zM139.6 300c-1.8 0-3.2-.4-4.2-1.1-1-.7-1.6-1.8-1.6-3.1 0-1.8 1.4-3.5 4.3-5-.3-.3-.5-.8-.5-1.3s.2-1 .5-1.5.6-.9.9-1.2l.4-.5c-1.5-.7-2.2-1.9-2.2-3.7 0-1.8.6-3.4 1.8-4.7 1.2-1.3 2.8-2 4.7-2 1 0 1.9.1 2.7.4l.4.1 4.8-.2-.5 2.1h-2.9c.4.6.6 1.4.6 2.2 0 1.6-.6 3.1-1.8 4.4-1.2 1.3-2.9 2-5 2l-1.1-.1c-.7.9-1 1.5-1 2s.2.8.6.9c.4.2 1.3.3 2.8.5s2.6.6 3.3 1.1c.8.6 1.2 1.5 1.2 2.7 0 1.7-.7 3.1-2.2 4.2-1.6 1.2-3.6 1.8-6 1.8zm-2.5-6.7c-.6.6-1 1.3-1 2.1s.3 1.4.9 1.8c.6.5 1.6.7 3 .7s2.6-.3 3.7-1 1.7-1.6 1.7-2.7c0-.6-.2-1.1-.7-1.4-.5-.3-1.3-.5-2.6-.6-1.3-.2-2.2-.3-2.7-.5-.9.4-1.7.9-2.3 1.6zm5-8.4c1.4 0 2.4-.5 3.2-1.4.8-.9 1.1-1.9 1.1-2.8 0-1-.2-1.7-.7-2.1-.5-.5-1.2-.7-2.4-.7s-2.1.5-2.8 1.4c-.7.9-1.1 1.9-1.1 3 0 1.7.9 2.6 2.7 2.6zM155.4 292.7c-1.3 0-2.2-.4-2.9-1.1-.6-.7-1-1.7-1-2.9s.2-2.6.6-4.3l1.9-8.2h2.4l-1.9 8.1c-.4 1.6-.6 2.9-.6 3.9 0 1.6.7 2.4 2.2 2.4.6 0 1.4-.3 2.2-.9.8-.6 1.5-1.2 2-1.8l.8-.9 2.5-10.8h2.4l-3.7 16.2H160l.6-2.8c-.2.2-.5.5-.8.9-.3.3-.9.8-1.8 1.4-.9.5-1.8.8-2.6.8zM166.8 292.4l5.4-23.3h2.4l-5.4 23.3h-2.4zM178.5 292.7c-2.8 0-4.2-1.6-4.2-4.8 0-1.8.3-3.6.9-5.4.6-1.8 1.5-3.3 2.8-4.7 1.3-1.3 2.8-2 4.5-2 1.3 0 3.1.2 5.4.6l1.2.2-2.5 10.5c-.3 1.2-.6 2.6-.8 4.3l-.1.8-2.4.1c.3-1.9.5-3 .6-3.5-.1.2-.4.6-1 1.1-.5.6-1 1-1.4 1.3-.4.3-.9.6-1.5.9-.4.5-.9.6-1.5.6zm7.9-14.3c-1.5-.3-2.8-.5-3.9-.5s-2.1.6-3 1.7c-.9 1.1-1.6 2.4-2 3.9-.4 1.5-.6 2.8-.6 4 0 1.2.2 2 .6 2.4.4.5.9.7 1.7.7s1.5-.4 2.4-1.1c.9-.7 1.6-1.4 2.2-2.1l.8-1.1 1.8-7.9zM189.9 292.4l3.8-16.2h2.4l-.6 2.4c2-1.4 4-2.4 5.9-2.8l-.6 2.5c-1.2.3-2.7 1-4.7 1.9l-1 .5-2.7 11.6h-2.5zM1.1 57.7L17 0h14l15.8 57.7h-6.3l-4.2-14.8H11.6L7.5 57.7H1.1zM21.8 5.5L13 37.1h21.9L26.1 5.5h-4.3zM84.3 28.6V50c.2 2.1 1.8 3.3 4.8 3.7l-.2 4.9c-4.4 0-7.7-1.1-9.9-3.3-5 2.2-10 3.3-15 3.3-3.8 0-6.8-1.1-8.8-3.3-2-2.2-3-5.3-3-9.3 0-4.1 1-7 3.1-9 2.1-1.9 5.3-3.1 9.7-3.5l13-1.3v-3.6c0-2.8-.6-4.9-1.8-6.1-1.2-1.2-2.9-1.8-5-1.8-4.5 0-9.1.3-13.8.8l-2.6.3-.3-4.8c6.1-1.2 11.5-1.8 16.3-1.8s8.2 1.1 10.3 3.3c2.1 2.1 3.2 5.5 3.2 10.1zm-25.7 17c0 5.1 2.1 7.7 6.3 7.7 3.8 0 7.5-.6 11.2-1.9l1.9-.7V36.9l-12.3 1.2c-2.5.2-4.3.9-5.4 2.2-1.2 1.2-1.7 3-1.7 5.3z" class="st0"/></svg>