<?xml version="1.0" encoding="utf-8"?>
<!-- Generator: Adobe Illustrator 18.0.0, SVG Export Plug-In . SVG Version: 6.00 Build 0)  -->
<!DOCTYPE svg PUBLIC "-//W3C//DTD SVG 1.1//EN" "http://www.w3.org/Graphics/SVG/1.1/DTD/svg11.dtd">
<svg version="1.1" id="Calque_1" xmlns="http://www.w3.org/2000/svg" xmlns:xlink="http://www.w3.org/1999/xlink" x="0px" y="0px"
	 viewBox="0 0 560.8 300" style="enable-background:new 0 0 560.8 300;" xml:space="preserve">
<style type="text/css">
	.st0{fill:#230F66;}
</style>
<g>
	<path class="st0" d="M0,132.2l7-25.7h6.2l7,25.7h-2.8l-1.9-6.6h-11l-1.9,6.6H0z M9.2,109l-3.9,14H15l-3.9-14H9.2z"/>
	<path class="st0" d="M24.4,106.6h9.3c2.5,0,4.5,0.5,5.7,1.6c1.3,1,1.9,2.7,1.9,4.9c0,1.6-0.3,2.9-0.8,3.8c-0.6,0.9-1.4,1.6-2.5,2.1
		c2.7,0.9,4.1,3,4.1,6c0,2.6-0.7,4.4-2,5.5c-1.4,1.1-3.3,1.7-5.9,1.7h-9.8V106.6z M33.5,109.1h-6.3v8.9h6.6c1.6,0,2.7-0.4,3.5-1.1
		c0.7-0.8,1.1-1.9,1.1-3.4s-0.4-2.6-1.2-3.3C36.4,109.4,35.2,109.1,33.5,109.1z M33.8,120.4h-6.6v9.3H34c1.7,0,3-0.4,3.8-1.1
		c0.9-0.7,1.3-1.9,1.3-3.7c0-0.9-0.2-1.7-0.5-2.4c-0.4-0.6-0.8-1.1-1.4-1.4C36.1,120.7,35,120.4,33.8,120.4z"/>
	<path class="st0" d="M62.7,131.8c-2.5,0.5-4.8,0.8-6.9,0.8s-3.7-0.3-4.9-0.8c-1.2-0.6-2.2-1.4-2.9-2.6c-0.7-1.2-1.1-2.5-1.4-4
		c-0.3-1.5-0.4-3.4-0.4-5.7s0.1-4.2,0.4-5.7c0.3-1.5,0.7-2.9,1.4-4.1c0.7-1.2,1.6-2.1,2.9-2.6c1.2-0.5,2.8-0.8,4.8-0.8
		s4.3,0.3,7,0.8l-0.1,2.4c-2.5-0.4-4.7-0.7-6.7-0.7c-2.7,0-4.5,0.8-5.4,2.4c-0.9,1.6-1.3,4.4-1.3,8.3c0,2,0.1,3.5,0.2,4.7
		c0.2,1.2,0.5,2.3,0.9,3.2c0.5,1,1.2,1.6,2.1,2s2.2,0.6,4,0.6c1.7,0,3.8-0.2,6.2-0.7L62.7,131.8z"/>
	<path class="st0" d="M76.5,132.2h-9.2v-25.7h9.2c4.2,0,6.9,1.7,8.3,5c0.8,1.9,1.2,4.4,1.2,7.5c0,6.5-1.6,10.5-4.8,12.2
		C79.9,131.9,78.3,132.2,76.5,132.2z M83.1,119c0-4.9-1.1-8-3.3-9.2c-0.9-0.5-2-0.7-3.3-0.7h-6.3v20.6h6.3
		C80.9,129.7,83.1,126.1,83.1,119z"/>
	<path class="st0" d="M91.3,132.2v-25.7h15.6v2.5H94.1v8.9h10.5v2.5H94.1v9.3h12.8v2.5H91.3z"/>
	<path class="st0" d="M111.8,132.2v-25.7h15.3v2.5h-12.5v10h10.6v2.5h-10.6v10.6H111.8z"/>
	<path class="st0" d="M141,121.6v-2.6h7.1v12.6c-3.1,0.6-5.9,0.9-8.3,0.9c-3.7,0-6.3-1.1-7.8-3.2c-1.4-2.1-2.2-5.5-2.2-10
		c0-4.5,0.7-7.8,2.2-10c1.4-2.2,4-3.2,7.7-3.2c2.3,0,4.7,0.2,7.2,0.7l1.3,0.2l-0.1,2.4c-3.1-0.5-5.7-0.8-8-0.8
		c-2.8,0-4.8,0.8-5.7,2.5c-1,1.6-1.5,4.4-1.5,8.2c0,3.8,0.5,6.5,1.5,8.2c1,1.6,2.9,2.5,5.7,2.5c1.7,0,3.5-0.2,5.3-0.5v-7.9H141z"/>
	<path class="st0" d="M169.6,132.2v-11.6h-13v11.6h-2.9v-25.7h2.9V118h13v-11.5h2.8v25.7H169.6z"/>
	<path class="st0" d="M178.7,132.2v-25.7h2.9v25.7H178.7z"/>
	<path class="st0" d="M185.2,134.9v-2.6c1.8,0,2.9-0.2,3.4-0.6c0.5-0.4,0.8-1.6,0.8-3.4v-21.7h2.8l0,22.1c0,2.1-0.3,3.6-1,4.6
		c-0.6,0.8-1.7,1.3-3.4,1.5C187.1,134.8,186.2,134.9,185.2,134.9z"/>
	<path class="st0" d="M201.2,132.2h-2.9v-25.7h2.9v11.9l4.2-0.1l6.6-11.8h3.3l-7.3,12.9l7.7,12.8h-3.4l-6.8-11.3l-4.3,0.1V132.2z"/>
	<path class="st0" d="M233.6,132.2h-14.1v-25.7h2.9v23.1h11.3V132.2z"/>
	<path class="st0" d="M237.2,132.2v-25.7h5.2l7.3,21.7l7.3-21.7h5.2v25.7h-2.9v-22.6h-0.5l-7.5,21.7H248l-7.5-21.7H240v22.6H237.2z"
		/>
	<path class="st0" d="M268.3,132.2v-25.7h5.3l9.8,23.1h0.8v-23.1h2.8v25.7h-5.2l-10-23.1h-0.7v23.1H268.3z"/>
	<path class="st0" d="M312.6,119.6c0,4.6-0.7,7.9-2.2,9.9c-1.5,2.1-4.1,3.1-8,3.1c-3.8,0-6.5-1-8-3.2c-1.5-2.1-2.2-5.4-2.2-9.9
		c0-4.5,0.7-7.9,2.2-10c1.5-2.2,4.1-3.3,7.9-3.3s6.4,1.1,7.9,3.3C311.9,111.6,312.6,115,312.6,119.6z M295.3,119.5
		c0,3.8,0.5,6.5,1.5,8.1c1,1.6,2.9,2.5,5.7,2.5c2.8,0,4.7-0.8,5.7-2.4c1-1.6,1.5-4.3,1.5-8.1s-0.5-6.5-1.5-8.3
		c-1-1.7-2.9-2.6-5.7-2.6c-2.8,0-4.7,0.9-5.7,2.6C295.8,113,295.3,115.7,295.3,119.5z"/>
	<path class="st0" d="M327.2,123.6h-6.5v8.6h-2.9v-25.7h9.4c2.8,0,4.9,0.7,6.2,2c1.3,1.4,2,3.4,2,6.2
		C335.4,120.7,332.7,123.6,327.2,123.6z M320.7,121.1h6.5c3.5,0,5.3-2.1,5.3-6.2c0-2-0.4-3.4-1.3-4.4c-0.8-0.9-2.2-1.4-4-1.4h-6.5
		V121.1z"/>
	<path class="st0" d="M348.9,132.6c-3.8,0-6.5-1-7.9-3.2c-1.5-2.1-2.2-5.4-2.2-9.9c0-4.5,0.7-7.9,2.2-10c1.5-2.2,4.1-3.3,7.9-3.3
		s6.4,1.1,7.9,3.3c1.5,2.2,2.2,5.5,2.2,10c0,3.1-0.3,5.7-1,7.5c-0.6,1.9-1.7,3.3-3.3,4.2l3.1,5.1l-2.7,1.3l-3.3-5.3
		C351.2,132.5,350.2,132.6,348.9,132.6z M341.7,119.5c0,3.8,0.5,6.5,1.5,8.1c1,1.6,2.9,2.5,5.7,2.5c2.8,0,4.7-0.8,5.7-2.4
		c1-1.6,1.5-4.3,1.5-8.1c0-3.8-0.5-6.6-1.5-8.3c-1-1.7-2.9-2.6-5.7-2.6c-2.8,0-4.7,0.9-5.7,2.6C342.2,113,341.7,115.7,341.7,119.5z"
		/>
	<path class="st0" d="M367.2,122.4v9.8h-2.9v-25.7h9.5c2.7,0,4.8,0.6,6.1,1.9c1.4,1.3,2.1,3.2,2.1,5.9c0,4-1.6,6.4-4.7,7.5l4.9,10.4
		H379l-4.6-9.8H367.2z M373.8,119.9c3.5,0,5.2-1.8,5.2-5.4c0-3.6-1.8-5.4-5.3-5.4h-6.6v10.8H373.8z"/>
	<path class="st0" d="M394.2,108.7c-3.7,0-5.6,1.4-5.6,4.2c0,1.6,0.4,2.6,1.3,3.2c0.9,0.6,2.6,1.2,5.2,1.7c2.6,0.6,4.5,1.3,5.5,2.3
		c1.1,0.9,1.6,2.5,1.6,4.6c0,5.3-2.7,7.9-8.2,7.9c-1.8,0-4.1-0.2-6.8-0.6l-1.3-0.2l0.3-2.4c3.4,0.4,5.9,0.7,7.7,0.7
		c3.7,0,5.5-1.7,5.5-5.2c0-1.4-0.4-2.4-1.2-3c-0.8-0.6-2.3-1.1-4.5-1.5c-2.9-0.6-4.9-1.4-6.2-2.4c-1.2-1-1.8-2.6-1.8-4.9
		c0-4.6,2.8-6.9,8.3-6.9c1.8,0,4,0.2,6.5,0.6l1.3,0.2l-0.3,2.4C398.1,108.9,395.6,108.7,394.2,108.7z"/>
	<path class="st0" d="M404.6,109.1v-2.6h18.5v2.6h-7.8v23.1h-2.8v-23.1H404.6z"/>
	<path class="st0" d="M429.4,124.5c0,3.7,2,5.6,6,5.6c2.1,0,3.6-0.4,4.7-1.3c1-0.9,1.6-2.3,1.6-4.2v-17.9h2.8v17.9
		c0,2.9-0.8,4.9-2.3,6.2c-1.5,1.3-3.8,1.9-6.7,1.9c-3,0-5.2-0.6-6.7-1.9c-1.5-1.3-2.2-3.4-2.2-6.2v-17.9h2.9V124.5z"/>
	<path class="st0" d="M465.2,106.6h3l-6.7,25.7H455l-6.7-25.7h3l5.9,23.1h2.1L465.2,106.6z"/>
	<path class="st0" d="M470.1,106.6h3l4.4,23.1h1.1l5.2-22.9h3.3l5.2,22.9h1.1l4.4-23.1h2.9l-5.2,25.7h-5.2l-4.9-21.9l-4.9,21.9h-5.2
		L470.1,106.6z"/>
	<path class="st0" d="M505.8,106.6l6.5,11l6.5-11h3.1l-7.9,13l7.9,12.6h-3.2l-6.5-10.6l-6.6,10.6h-3.1l7.9-12.6l-7.9-13.1H505.8z"/>
	<path class="st0" d="M534,132.2h-2.9v-10.8l-8.2-14.9h3.2l6.4,12l6.4-12h3.2l-8.2,14.9V132.2z"/>
	<path class="st0" d="M544.1,109.1v-2.5h16.7v3.3l-13.4,19.1v0.7h13.4v2.6h-16.7v-3.3l13.4-19.1v-0.8H544.1z"/>
	<path class="st0" d="M14.9,163.8v9.5c0.1,0.9,0.8,1.5,2.1,1.6l-0.1,2.2c-2,0-3.4-0.5-4.4-1.5c-2.2,1-4.4,1.5-6.7,1.5
		c-1.7,0-3-0.5-3.9-1.4s-1.3-2.3-1.3-4.2c0-1.8,0.5-3.1,1.4-4c0.9-0.9,2.3-1.4,4.3-1.6l5.8-0.6v-1.6c0-1.3-0.3-2.2-0.8-2.7
		c-0.5-0.5-1.3-0.8-2.2-0.8c-2,0-4,0.1-6.2,0.4l-1.1,0.1l-0.1-2.1c2.7-0.5,5.1-0.8,7.2-0.8c2.1,0,3.6,0.5,4.6,1.4
		C14.4,160.2,14.9,161.7,14.9,163.8z M3.4,171.3c0,2.3,0.9,3.4,2.8,3.4c1.7,0,3.3-0.3,5-0.9l0.9-0.3v-6.1L6.6,168
		c-1.1,0.1-1.9,0.4-2.4,1C3.7,169.5,3.4,170.3,3.4,171.3z"/>
	<path class="st0" d="M28.5,157.8c2.5,0,4.2,0.7,5.2,2.1c1,1.4,1.5,3.9,1.5,7.5c0,3.6-0.6,6.1-1.9,7.5c-1.2,1.4-3.5,2.2-6.9,2.2
		c-1,0-2.8-0.1-5.2-0.3l-1-0.1v-26.6h2.7v9C25,158.2,26.8,157.8,28.5,157.8z M26.5,174.6c2.4,0,4-0.5,4.8-1.6c0.8-1.1,1.2-3,1.2-5.6
		c0-2.6-0.3-4.5-0.9-5.5c-0.6-1-1.7-1.6-3.3-1.6c-1.4,0-2.9,0.3-4.4,0.8l-0.7,0.3v13C24.7,174.5,25.8,174.6,26.5,174.6z"/>
	<path class="st0" d="M46.8,157.8c0.8,0,2.2,0.1,4.2,0.4l0.9,0.1l-0.1,2.3c-2-0.2-3.4-0.3-4.4-0.3c-2.1,0-3.5,0.5-4.3,1.5
		c-0.8,1-1.1,2.9-1.1,5.6c0,2.7,0.4,4.6,1.1,5.7c0.7,1.1,2.2,1.6,4.4,1.6l4.4-0.3l0.1,2.3c-2.3,0.3-4,0.5-5.2,0.5
		c-2.9,0-4.9-0.7-6-2.2c-1.1-1.5-1.6-4-1.6-7.5c0-3.5,0.6-6,1.8-7.4C42,158.5,44,157.8,46.8,157.8z"/>
	<path class="st0" d="M70.1,150.1v26.6h-2.7v-1.3c-1.9,1.1-3.8,1.6-5.6,1.6c-1,0-1.9-0.1-2.6-0.4c-0.7-0.2-1.4-0.7-2.1-1.3
		c-1.3-1.3-2-3.8-2-7.4c0-3.6,0.6-6.2,1.8-7.8c1.2-1.6,3.2-2.4,5.9-2.4c1.4,0,3,0.2,4.6,0.5v-8.2H70.1z M60.4,174.3
		c0.4,0.2,1,0.3,1.7,0.3s1.5-0.1,2.4-0.4c0.9-0.2,1.6-0.5,2.1-0.7l0.7-0.3v-12.6c-1.6-0.3-3.1-0.4-4.4-0.4c-1.9,0-3.2,0.6-3.9,1.8
		c-0.7,1.2-1.1,3.1-1.1,5.6c0,2.9,0.4,4.8,1.3,5.8C59.6,173.8,60,174.1,60.4,174.3z"/>
	<path class="st0" d="M88,174.4l1.1-0.1l0.1,2.2c-2.8,0.4-5.2,0.6-7.2,0.6c-2.7,0-4.6-0.8-5.7-2.3c-1.1-1.5-1.7-3.9-1.7-7.2
		c0-6.5,2.6-9.7,7.7-9.7c2.5,0,4.4,0.7,5.6,2.1c1.2,1.4,1.9,3.6,1.9,6.6l-0.1,2.1H77.4c0,2.1,0.4,3.6,1.1,4.6c0.7,1,2,1.5,3.9,1.5
		C84.3,174.6,86.1,174.5,88,174.4z M87,166.4c0-2.3-0.4-3.9-1.1-4.8c-0.7-0.9-1.9-1.4-3.6-1.4c-1.6,0-2.9,0.5-3.7,1.5
		c-0.8,1-1.3,2.6-1.3,4.7H87z"/>
	<path class="st0" d="M97.7,160.6v16.1h-2.8v-16.1h-2.3v-2.4h2.3v-1.7c0-2.6,0.4-4.4,1.1-5.4c0.7-1,2-1.4,3.9-1.4l3.7,0.3l0,2.3
		c-1.4,0-2.5-0.1-3.4-0.1c-0.9,0-1.5,0.3-1.9,0.9c-0.4,0.6-0.6,1.7-0.6,3.4v1.6h5.4v2.4H97.7z"/>
	<path class="st0" d="M113.4,185.4c-3,0-5-0.4-6.2-1.2c-1.2-0.8-1.8-2.3-1.8-4.4c0-1,0.2-1.8,0.7-2.5c0.4-0.6,1.2-1.3,2.3-2.1
		c-0.7-0.5-1-1.3-1-2.6c0-0.4,0.3-1.2,0.9-2.3l0.3-0.6c-2-0.9-2.9-2.8-2.9-5.6c0-4.2,2.3-6.3,6.9-6.3c1.2,0,2.3,0.1,3.3,0.4l0.6,0.1
		l5.5-0.1v2.4l-3.5-0.1c0.8,0.8,1.2,2.1,1.2,3.7c0,2.3-0.6,3.9-1.7,4.9c-1.1,0.9-3,1.4-5.4,1.4c-0.7,0-1.3,0-1.8-0.1
		c-0.4,1.1-0.7,1.8-0.7,2.1c0,0.8,0.2,1.2,0.7,1.4c0.5,0.2,1.9,0.3,4.3,0.3c2.4,0,4.1,0.4,5.1,1.1c1,0.7,1.6,2.2,1.6,4.3
		C121.6,183.4,118.9,185.4,113.4,185.4z M108.2,179.6c0,1.3,0.4,2.2,1.1,2.7s2.1,0.8,4,0.8c2,0,3.4-0.3,4.2-0.8
		c0.9-0.5,1.3-1.5,1.3-2.7c0-1.3-0.3-2.1-0.9-2.5c-0.6-0.4-1.8-0.6-3.6-0.6l-4-0.2c-0.8,0.6-1.4,1.1-1.6,1.6
		C108.3,178.3,108.2,178.9,108.2,179.6z M108.4,164.1c0,1.5,0.3,2.5,1,3.1c0.7,0.6,1.7,0.9,3.2,0.9s2.6-0.3,3.2-0.9
		c0.6-0.6,1-1.7,1-3.1c0-1.5-0.3-2.5-1-3.1c-0.6-0.6-1.7-0.9-3.2-0.9s-2.6,0.3-3.2,0.9C108.8,161.6,108.4,162.7,108.4,164.1z"/>
	<path class="st0" d="M128.1,176.7h-2.8v-26.6h2.8v9.1c2-0.9,3.9-1.4,5.7-1.4c2.5,0,4.1,0.7,5,2s1.3,3.7,1.3,7.1v9.8h-2.8V167
		c0-2.6-0.3-4.3-0.8-5.3c-0.5-1-1.6-1.4-3.2-1.4c-1.6,0-3.1,0.3-4.5,0.9l-0.7,0.3V176.7z"/>
	<path class="st0" d="M145.2,154v-3.2h2.8v3.2H145.2z M145.2,176.7v-18.5h2.8v18.5H145.2z"/>
	<path class="st0" d="M153.4,176.2v-18.1h2.7v18.1c0,2.3-0.4,4-1.2,5.1c-0.8,1.1-2.5,2.3-4.9,3.6l-1.1-2.2c1.9-1.1,3.2-2.1,3.7-2.8
		C153.1,179.2,153.4,177.9,153.4,176.2z M153.4,154v-3.2h2.7v3.2H153.4z"/>
	<path class="st0" d="M164.2,176.7h-2.8v-26.6h2.8v15.7l2.9-0.1l5.3-7.5h3.2l-6,8.5l6.3,10h-3.2l-5.5-8.6l-2.9,0.1V176.7z"/>
	<path class="st0" d="M179.4,176.7v-26.6h2.8v26.6H179.4z"/>
	<path class="st0" d="M190.5,176.7h-2.8v-18.5h2.7v1.3c1.9-1.1,3.7-1.7,5.4-1.7c2.3,0,3.9,0.6,4.8,1.9c0.8-0.5,1.9-0.9,3.2-1.3
		c1.3-0.4,2.4-0.6,3.4-0.6c2.5,0,4.1,0.7,5,2c0.9,1.3,1.3,3.7,1.3,7.1v9.8h-2.8V167c0-2.6-0.2-4.3-0.7-5.3c-0.5-1-1.5-1.4-3.2-1.4
		c-0.8,0-1.7,0.1-2.5,0.4c-0.9,0.2-1.5,0.5-2,0.7l-0.7,0.3c0.3,0.8,0.5,2.6,0.5,5.4v9.6h-2.8v-9.6c0-2.7-0.2-4.5-0.7-5.4
		c-0.5-1-1.5-1.4-3.2-1.4c-0.8,0-1.6,0.1-2.4,0.4c-0.8,0.2-1.5,0.5-1.9,0.7l-0.6,0.3V176.7z"/>
	<path class="st0" d="M221.5,176.7h-2.8v-18.5h2.7v1.3c2-1.1,3.9-1.7,5.7-1.7c2.5,0,4.1,0.7,5,2s1.3,3.7,1.3,7.1v9.8h-2.7V167
		c0-2.6-0.3-4.3-0.8-5.3c-0.5-1-1.6-1.4-3.2-1.4c-0.8,0-1.6,0.1-2.5,0.4c-0.9,0.2-1.6,0.5-2,0.7l-0.7,0.3V176.7z"/>
	<path class="st0" d="M237.8,167.4c0-3.4,0.6-5.8,1.8-7.3c1.2-1.5,3.3-2.3,6.1-2.3c2.9,0,4.9,0.8,6.1,2.3c1.2,1.5,1.8,4,1.8,7.3
		c0,3.4-0.6,5.8-1.7,7.4c-1.1,1.5-3.2,2.3-6.2,2.3c-3,0-5.1-0.8-6.2-2.3C238.4,173.2,237.8,170.8,237.8,167.4z M240.7,167.3
		c0,2.7,0.3,4.6,1,5.7c0.7,1.1,2,1.6,4.1,1.6c2.1,0,3.5-0.5,4.1-1.6s1-3,1-5.7c0-2.7-0.4-4.6-1.1-5.6c-0.7-1-2-1.5-4-1.5
		c-1.9,0-3.3,0.5-4,1.5S240.7,164.6,240.7,167.3z"/>
	<path class="st0" d="M258.2,184.9v-26.8h2.7v1.3c1.9-1.1,3.7-1.7,5.6-1.7c2.3,0,4.1,0.7,5.1,2.2c1.1,1.5,1.6,4,1.6,7.4
		s-0.6,5.9-1.9,7.4c-1.2,1.5-3.3,2.2-6.2,2.2c-1.5,0-2.9-0.1-4.2-0.4v8.3H258.2z M266.1,160.3c-0.7,0-1.5,0.1-2.4,0.4
		c-0.9,0.2-1.5,0.5-2,0.7l-0.7,0.4v12.5c1.8,0.3,3.1,0.4,4,0.4c2,0,3.4-0.6,4.2-1.7c0.8-1.1,1.2-3,1.2-5.6c0-2.6-0.4-4.4-1.1-5.5
		C268.6,160.8,267.5,160.3,266.1,160.3z"/>
	<path class="st0" d="M283.9,177.1c-2.5,0-4.3-0.7-5.4-2.2c-1.1-1.5-1.6-3.9-1.6-7.4c0-3.5,0.6-6,1.9-7.5c1.3-1.5,3.6-2.2,6.8-2.2
		l6.2,0.4v26.8h-2.7v-9.1C287.4,176.7,285.7,177.1,283.9,177.1z M285.7,160.2c-2.3,0-3.9,0.6-4.7,1.7c-0.8,1.2-1.2,3-1.2,5.5
		c0,2.5,0.3,4.3,1,5.4c0.7,1.1,1.8,1.6,3.4,1.6c1.4,0,2.9-0.3,4.3-0.8l0.7-0.3v-13.1C287.6,160.3,286.5,160.2,285.7,160.2z"/>
	<path class="st0" d="M297.2,176.7v-18.5h2.7v2.5c2.1-1.5,4.4-2.5,6.8-2.9v2.8c-1,0.2-2.1,0.5-3.2,0.9c-1.1,0.4-2,0.8-2.6,1.1
		l-0.9,0.5v13.6H297.2z"/>
	<path class="st0" d="M315.9,160.3c-2.7,0-4,0.9-4,2.8c0,0.9,0.3,1.5,0.9,1.8c0.6,0.4,2,0.7,4.2,1.1c2.2,0.4,3.8,0.9,4.7,1.6
		c0.9,0.7,1.4,2,1.4,3.9s-0.6,3.3-1.8,4.2c-1.2,0.9-3,1.3-5.4,1.3c-1.5,0-3.3-0.2-5.4-0.5l-1.1-0.2l0.1-2.4c2.8,0.4,4.9,0.6,6.4,0.6
		c1.4,0,2.5-0.2,3.3-0.7c0.8-0.5,1.1-1.2,1.1-2.3c0-1.1-0.3-1.8-1-2.2c-0.6-0.4-2-0.7-4.2-1.1c-2.2-0.3-3.7-0.9-4.6-1.5
		c-0.9-0.7-1.4-1.9-1.4-3.7c0-1.8,0.6-3.1,1.9-4c1.3-0.9,2.9-1.3,4.8-1.3c1.5,0,3.4,0.2,5.7,0.5l1,0.2l-0.1,2.4
		C319.6,160.5,317.5,160.3,315.9,160.3z"/>
	<path class="st0" d="M336.9,160.6H331v8.9c0,2.1,0.2,3.5,0.5,4.2c0.3,0.7,1,1,2.2,1l3.3-0.2l0.2,2.3c-1.7,0.3-2.9,0.4-3.8,0.4
		c-1.9,0-3.3-0.5-4-1.4s-1.1-2.7-1.1-5.4v-9.7h-2.6v-2.4h2.6v-5.7h2.7v5.7h5.9V160.6z"/>
	<path class="st0" d="M351.9,158.2h2.8v18.5h-2.8v-1.3c-1.9,1.1-3.7,1.7-5.5,1.7c-2.5,0-4.2-0.7-5-2c-0.8-1.3-1.2-3.7-1.2-7.3v-9.7
		h2.8v9.6c0,2.7,0.2,4.5,0.7,5.4c0.5,0.9,1.5,1.4,3.2,1.4c0.8,0,1.6-0.1,2.5-0.4c0.8-0.2,1.5-0.5,1.9-0.7l0.7-0.3V158.2z"/>
	<path class="st0" d="M358.3,158.2h3l4.3,16.1h1.4l4.5-16.1h2.9l-5.2,18.5h-5.6L358.3,158.2z"/>
	<path class="st0" d="M376.3,158.2h2.8l3.7,16.1h0.6l4.4-15.8h2.9l4.4,15.8h0.6l3.7-16.1h2.8l-4.4,18.5h-4.6l-3.9-14.5l-3.9,14.5
		h-4.6L376.3,158.2z"/>
	<path class="st0" d="M404.2,158.2h3l4.5,7.3l4.5-7.3h3l-5.9,9.2l5.9,9.3h-3l-4.5-7.2l-4.5,7.2h-3l5.8-9.3L404.2,158.2z"/>
	<path class="st0" d="M421.1,158.2h2.8l4.6,16.1h1.2l4.7-16.1h2.8l-7.7,26.8h-2.8l2.4-8.2h-2.7L421.1,158.2z"/>
	<path class="st0" d="M439.6,160.6v-2.5h13.8v2.5L443,174.2h10.4v2.5h-13.8v-2.5l10.4-13.6H439.6z"/>
	<path class="st0" d="M9.5,196.3c2,0,3.7,0.4,4.9,1.1c2.7,1.6,4,5.5,4,11.9c0,4.5-0.7,7.6-2.2,9.5c-1.5,1.8-3.7,2.8-6.7,2.8
		c-3,0-5.2-0.9-6.7-2.7c-1.5-1.8-2.2-5.1-2.2-9.7c0-4.7,0.7-8,2.2-9.9C4.2,197.3,6.5,196.3,9.5,196.3z M9.5,198.9
		c-1.4,0-2.5,0.3-3.3,0.9c-1.8,1.2-2.6,4.4-2.6,9.6c0,3.7,0.5,6.2,1.4,7.6c1,1.4,2.5,2.1,4.5,2.1c2,0,3.6-0.7,4.5-2.1
		c1-1.4,1.4-4,1.4-7.8c0-3.8-0.5-6.5-1.4-8S11.6,198.9,9.5,198.9z"/>
	<path class="st0" d="M34.3,196.7v24.5h-2.9v-21.3l-6.3,4.2l-1.3-2.2l7.8-5.2H34.3z"/>
	<path class="st0" d="M58.8,221.2H43.2v-2.4l7.2-7.5c1.2-1.3,2.1-2.3,2.7-2.9c0.6-0.7,1.1-1.5,1.5-2.4c0.5-0.9,0.7-1.8,0.7-2.7
		c0-1.6-0.4-2.7-1.3-3.3s-2.2-1-4-1c-1.6,0-3.4,0.2-5.4,0.6l-1,0.2l-0.2-2.4c2.3-0.7,4.8-1,7.3-1c2.5,0,4.4,0.5,5.7,1.6
		c1.3,1,1.9,2.7,1.9,5c0,1.7-0.4,3.2-1.1,4.5s-2.1,2.8-4,4.6l-6.5,6.6h12.3V221.2z"/>
	<path class="st0" d="M64.1,197.3c2.3-0.7,4.8-1,7.5-1c2.7,0,4.6,0.5,5.8,1.5c1.2,1,1.8,2.6,1.8,4.9c0,1.1-0.2,2-0.5,2.5
		c-0.3,0.5-0.6,0.9-0.7,1.2c-0.2,0.3-0.4,0.5-0.7,0.8c-0.5,0.4-1,0.7-1.3,0.9l-0.4,0.3c1.4,0.5,2.5,1.2,3.2,2c0.7,0.8,1,2.1,1,3.9
		c0,2.5-0.6,4.4-1.9,5.6c-1.3,1.2-3.3,1.8-6,1.8c-2.2,0-4.5-0.2-6.9-0.7l-1.1-0.3l0.3-2.3c2.7,0.5,5.2,0.8,7.5,0.8
		c3.5,0,5.3-1.6,5.3-4.7c0-2.9-1.7-4.5-5-4.6h-4.9v-2.4h4.9c1,0,2-0.4,3-1.2s1.4-1.9,1.4-3.3s-0.4-2.3-1.1-2.9
		c-0.8-0.6-2.1-0.9-3.9-0.9c-2,0-3.9,0.2-5.9,0.6l-1,0.2L64.1,197.3z"/>
	<path class="st0" d="M95.5,221.2v-4.8H83.6v-2.2l7-17.5h3.1l-7.1,17.2h8.9v-7.6h2.9v7.6h3.1v2.5h-3.1v4.8H95.5z"/>
	<path class="st0" d="M120.6,196.7v2.6h-11.9l-0.7,8c1.9-1,3.8-1.5,5.7-1.5c5.2,0,7.8,2.4,7.8,7.2c0,2.8-0.7,4.9-2.1,6.3
		c-1.4,1.5-3.4,2.2-6,2.2c-2.1,0-4.4-0.3-6.9-0.8l-1.2-0.3l0.3-2.3c2.8,0.5,5.2,0.8,7.2,0.8c1.9,0,3.4-0.5,4.4-1.5
		c1-1,1.5-2.4,1.5-4.2c0-1.8-0.5-3.1-1.4-3.8c-0.9-0.8-2.2-1.1-3.8-1.1c-0.9,0-1.8,0.1-2.8,0.4c-1,0.2-1.7,0.5-2.2,0.7l-0.8,0.4
		l-2-0.4l0.7-12.7H120.6z"/>
	<path class="st0" d="M141.5,199.3c-2.2-0.3-4.4-0.4-6.5-0.4c-2.1,0-3.7,0.7-4.9,2.2c-1.1,1.5-1.7,3.5-1.7,6.3l0.9-0.4
		c0.6-0.2,1.4-0.5,2.5-0.7c1-0.2,1.9-0.4,2.7-0.4c5.5,0,8.2,2.5,8.2,7.6c0,2.6-0.7,4.6-2.2,6c-1.5,1.4-3.6,2.1-6.3,2.1
		c-5.8,0-8.7-4.2-8.7-12.7c0-4.3,0.8-7.4,2.5-9.5c1.7-2,4-3,7.1-3c2,0,3.9,0.1,5.7,0.4l1,0.2L141.5,199.3z M134.4,208.4
		c-0.8,0-1.8,0.1-2.8,0.4c-1,0.2-1.8,0.5-2.4,0.7l-0.9,0.4c0,2.8,0.5,5.1,1.4,6.7c0.9,1.7,2.3,2.5,4.2,2.5c1.9,0,3.3-0.5,4.3-1.4
		c1-1,1.4-2.3,1.4-4c0-1.7-0.5-3-1.4-3.9C137.5,208.8,136.1,208.4,134.4,208.4z"/>
	<path class="st0" d="M147.3,199.3v-2.6h15.2v3.7l-9.4,21.1l-2.7-0.9l9.2-20.4v-1H147.3z"/>
	<path class="st0" d="M169.1,197.9c1.5-1.1,3.7-1.6,6.4-1.6c2.7,0,4.9,0.5,6.5,1.6c1.6,1.1,2.4,2.7,2.4,4.8c0,1.5-0.3,2.7-0.9,3.5
		c-0.6,0.8-1.7,1.5-3.2,2.2c1.5,0.7,2.6,1.5,3.3,2.4c0.7,0.9,1.1,2.2,1.1,3.8c0,4.7-3.1,7-9.2,7c-6.1,0-9.2-2.2-9.2-6.6
		c0-1.8,0.3-3.1,1-4c0.7-0.9,1.7-1.8,3.2-2.6c-1.3-0.7-2.3-1.4-2.9-2.3c-0.6-0.9-0.9-2-0.9-3.5C166.8,200.6,167.5,199,169.1,197.9z
		 M169.4,214.5c0,3,2,4.5,6.1,4.5s6.1-1.6,6.1-4.7c0-1.3-0.4-2.3-1.1-2.9c-0.7-0.6-1.8-1.2-3.2-1.6h-3.9c-1.4,0.4-2.4,0.9-3,1.6
		C169.7,212.1,169.4,213.2,169.4,214.5z M181.3,203c0-2.7-1.9-4.1-5.7-4.1c-3.8,0-5.7,1.4-5.7,4.1c0,1.1,0.3,2,0.9,2.6
		c0.6,0.7,1.5,1.2,2.7,1.7h3.9c1.3-0.4,2.3-1,3-1.6C181,205,181.3,204.1,181.3,203z"/>
	<path class="st0" d="M195.1,219c4.5,0,6.7-2.8,6.7-8.5c-2.5,0.9-4.6,1.4-6.4,1.4c-5.3,0-8-2.5-8-7.5c0-2.5,0.8-4.5,2.3-5.9
		c1.5-1.5,3.6-2.2,6.2-2.2c3,0,5.2,1.1,6.7,3.3c1.5,2.2,2.2,5.5,2.2,9.7c0,4.3-0.8,7.4-2.5,9.3c-1.6,1.9-4.1,2.9-7.2,2.9
		c-1.9,0-3.8-0.2-5.7-0.5l-1-0.1l0.3-2.3C190.9,218.9,193,219,195.1,219z M195.7,209.4c1.5,0,3.2-0.3,5.2-1l1-0.3
		c-0.1-6.1-2.1-9.2-5.9-9.2c-1.7,0-3.1,0.5-4.1,1.5c-1,1-1.5,2.4-1.5,4.1C190.4,207.7,192.2,209.4,195.7,209.4z"/>
</g>
<g>
	<path class="st0" d="M4.1,272.1l0.5-2.2h14.5l-0.5,2.2h-6l-4.7,20.2H5.4l4.7-20.2H4.1z"/>
	<path class="st0" d="M16.5,292.4l3.7-16.2h2.4l-3.8,16.2H16.5z M20.9,272.8l0.7-2.9h2.4l-0.7,2.9H20.9z"/>
	<path class="st0" d="M27.2,289.1c0,1,0.5,1.5,1.6,1.5l2.5-0.2l-0.2,1.8c-1.1,0.3-2.2,0.5-3.2,0.5c-1,0-1.8-0.3-2.4-0.8
		c-0.6-0.5-0.9-1.3-0.9-2.2c0-0.9,0.2-2.1,0.5-3.4l1.9-8h-2.1l0.6-2.1h2.1l1.1-4.8h2.4l-1.2,4.8h4.5l-0.5,2.1h-4.5l-1.9,8.1
		C27.3,287.4,27.2,288.3,27.2,289.1z"/>
	<path class="st0" d="M33.5,292.4l3.7-16.2h2.4l-3.8,16.2H33.5z M37.9,272.8l0.7-2.9h2.4l-0.7,2.9H37.9z"/>
	<path class="st0" d="M40.3,292.4l5.4-23.3h2.4l-5.4,23.3H40.3z"/>
	<path class="st0" d="M47.1,292.4l3.7-16.2h2.4l-3.8,16.2H47.1z M51.6,272.8l0.7-2.9h2.4l-0.7,2.9H51.6z"/>
	<path class="st0" d="M58.7,292.7c-1.3,0-2.2-0.4-2.9-1.1c-0.6-0.7-1-1.7-1-2.9c0-1.2,0.2-2.6,0.6-4.3l1.9-8.2h2.4l-1.9,8.1
		c-0.4,1.6-0.6,2.9-0.6,3.9c0,1.6,0.7,2.4,2.2,2.4c0.6,0,1.4-0.3,2.2-0.9c0.8-0.6,1.5-1.2,2-1.8l0.8-0.9l2.5-10.8h2.4l-3.7,16.2
		h-2.4l0.6-2.8c-0.2,0.2-0.5,0.5-0.8,0.9c-0.3,0.3-0.9,0.8-1.8,1.4C60.4,292.4,59.5,292.7,58.7,292.7z"/>
	<path class="st0" d="M82,280.4c0-1.6-0.7-2.4-2.2-2.4c-0.6,0-1.4,0.3-2.2,0.9c-0.8,0.6-1.5,1.2-2,1.8l-0.7,0.9l-2.5,10.8h-2.4
		l3.7-16.2H76l-0.6,2.8c0.5-0.6,1.1-1.2,1.8-1.7c1.3-1,2.5-1.4,3.5-1.4c1.2,0,2.1,0.3,2.6,1c0.5,0.6,0.8,1.2,0.9,1.9
		c0.2-0.2,0.5-0.5,0.8-0.8c0.4-0.3,1-0.8,2-1.3c1-0.5,1.8-0.8,2.6-0.8c1.3,0,2.2,0.4,2.8,1.1c0.6,0.7,1,1.6,1,2.7
		c0,1.1-0.2,2.6-0.6,4.5l-1.9,8.2h-2.4l1.9-8.1c0.4-1.6,0.6-2.9,0.6-3.9c0-1.6-0.7-2.5-2.1-2.5c-0.6,0-1.3,0.2-2,0.7
		c-0.7,0.5-1.3,1-1.8,1.5l-0.7,0.7c-0.1,1-0.2,2.1-0.6,3.3l-1.9,8.2h-2.4l1.9-8.1C81.8,282.7,82,281.4,82,280.4z"/>
	<path class="st0" d="M114.6,269.9c2,0,3.4,0.4,4.4,1.3c1,0.8,1.4,2.3,1.4,4.5c0,2.1-0.6,3.9-1.7,5.3c-1.2,1.4-2.5,2.3-4,2.7
		l2.5,8.7h-2.5l-2.3-8.4h-5.3l-2,8.4h-2.5l5.2-22.4H114.6z M117.9,275.4c0-1.2-0.3-2.1-0.8-2.6c-0.5-0.5-1.4-0.7-2.7-0.7h-4.6
		l-2.2,9.7h4.8c1.7,0,3-0.6,4.1-1.8C117.4,278.8,117.9,277.3,117.9,275.4z"/>
	<path class="st0" d="M123.6,287.6c0,0.9,0.3,1.6,0.8,2.2c0.6,0.5,1.3,0.8,2.1,0.8c1.5,0,3.1-0.2,4.7-0.5l0.8-0.2l-0.2,1.9
		c-1.9,0.6-3.8,0.9-5.5,0.9c-3.4,0-5.2-1.6-5.2-4.9c0-3,0.7-5.7,2-8c0.7-1.2,1.6-2.1,2.8-2.8c1.2-0.7,2.5-1.1,3.9-1.1
		c3.2,0,4.8,1.3,4.8,4c0,1.9-0.7,3.3-2.2,4s-3.8,1.2-6.9,1.2H124C123.7,285.8,123.6,286.7,123.6,287.6z M126.1,283.1
		c2.2,0,3.8-0.2,4.8-0.7c1-0.5,1.5-1.3,1.5-2.5c0-1.3-0.8-1.9-2.5-1.9c-2.7,0-4.5,1.7-5.5,5.2H126.1z"/>
	<path class="st0" d="M139.6,300c-1.8,0-3.2-0.4-4.2-1.1c-1-0.7-1.6-1.8-1.6-3.1c0-1.8,1.4-3.5,4.3-5c-0.3-0.3-0.5-0.8-0.5-1.3
		c0-0.5,0.2-1,0.5-1.5c0.3-0.5,0.6-0.9,0.9-1.2l0.4-0.5c-1.5-0.7-2.2-1.9-2.2-3.7c0-1.8,0.6-3.4,1.8-4.7c1.2-1.3,2.8-2,4.7-2
		c1,0,1.9,0.1,2.7,0.4l0.4,0.1l4.8-0.2l-0.5,2.1h-2.9c0.4,0.6,0.6,1.4,0.6,2.2c0,1.6-0.6,3.1-1.8,4.4c-1.2,1.3-2.9,2-5,2l-1.1-0.1
		c-0.7,0.9-1,1.5-1,2c0,0.5,0.2,0.8,0.6,0.9c0.4,0.2,1.3,0.3,2.8,0.5s2.6,0.6,3.3,1.1c0.8,0.6,1.2,1.5,1.2,2.7
		c0,1.7-0.7,3.1-2.2,4.2C144,299.4,142,300,139.6,300z M137.1,293.3c-0.6,0.6-1,1.3-1,2.1s0.3,1.4,0.9,1.8c0.6,0.5,1.6,0.7,3,0.7
		c1.4,0,2.6-0.3,3.7-1c1.1-0.7,1.7-1.6,1.7-2.7c0-0.6-0.2-1.1-0.7-1.4c-0.5-0.3-1.3-0.5-2.6-0.6c-1.3-0.2-2.2-0.3-2.7-0.5
		C138.5,292.1,137.7,292.6,137.1,293.3z M142.1,284.9c1.4,0,2.4-0.5,3.2-1.4c0.8-0.9,1.1-1.9,1.1-2.8c0-1-0.2-1.7-0.7-2.1
		c-0.5-0.5-1.2-0.7-2.4-0.7s-2.1,0.5-2.8,1.4c-0.7,0.9-1.1,1.9-1.1,3C139.4,284,140.3,284.9,142.1,284.9z"/>
	<path class="st0" d="M155.4,292.7c-1.3,0-2.2-0.4-2.9-1.1c-0.6-0.7-1-1.7-1-2.9c0-1.2,0.2-2.6,0.6-4.3l1.9-8.2h2.4l-1.9,8.1
		c-0.4,1.6-0.6,2.9-0.6,3.9c0,1.6,0.7,2.4,2.2,2.4c0.6,0,1.4-0.3,2.2-0.9c0.8-0.6,1.5-1.2,2-1.8l0.8-0.9l2.5-10.8h2.4l-3.7,16.2H160
		l0.6-2.8c-0.2,0.2-0.5,0.5-0.8,0.9c-0.3,0.3-0.9,0.8-1.8,1.4C157.1,292.4,156.2,292.7,155.4,292.7z"/>
	<path class="st0" d="M166.8,292.4l5.4-23.3h2.4l-5.4,23.3H166.8z"/>
	<path class="st0" d="M178.5,292.7c-2.8,0-4.2-1.6-4.2-4.8c0-1.8,0.3-3.6,0.9-5.4c0.6-1.8,1.5-3.3,2.8-4.7c1.3-1.3,2.8-2,4.5-2
		c1.3,0,3.1,0.2,5.4,0.6l1.2,0.2l-2.5,10.5c-0.3,1.2-0.6,2.6-0.8,4.3l-0.1,0.8l-2.4,0.1c0.3-1.9,0.5-3,0.6-3.5
		c-0.1,0.2-0.4,0.6-1,1.1c-0.5,0.6-1,1-1.4,1.3c-0.4,0.3-0.9,0.6-1.5,0.9C179.6,292.6,179.1,292.7,178.5,292.7z M186.4,278.4
		c-1.5-0.3-2.8-0.5-3.9-0.5c-1.1,0-2.1,0.6-3,1.7c-0.9,1.1-1.6,2.4-2,3.9c-0.4,1.5-0.6,2.8-0.6,4c0,1.2,0.2,2,0.6,2.4
		c0.4,0.5,0.9,0.7,1.7,0.7s1.5-0.4,2.4-1.1c0.9-0.7,1.6-1.4,2.2-2.1l0.8-1.1L186.4,278.4z"/>
	<path class="st0" d="M189.9,292.4l3.8-16.2h2.4l-0.6,2.4c2-1.4,4-2.4,5.9-2.8l-0.6,2.5c-1.2,0.3-2.7,1-4.7,1.9l-1,0.5l-2.7,11.6
		H189.9z"/>
</g>
<g>
	<path class="st0" d="M1.1,57.7L17,0h14l15.8,57.7h-6.3l-4.2-14.8H11.6L7.5,57.7H1.1z M21.8,5.5L13,37.1h21.9L26.1,5.5H21.8z"/>
	<path class="st0" d="M84.3,28.6V50c0.2,2.1,1.8,3.3,4.8,3.7l-0.2,4.9c-4.4,0-7.7-1.1-9.9-3.3c-5,2.2-10,3.3-15,3.3
		c-3.8,0-6.8-1.1-8.8-3.3c-2-2.2-3-5.3-3-9.3c0-4.1,1-7,3.1-9c2.1-1.9,5.3-3.1,9.7-3.5L78,32.2v-3.6c0-2.8-0.6-4.9-1.8-6.1
		c-1.2-1.2-2.9-1.8-5-1.8c-4.5,0-9.1,0.3-13.8,0.8l-2.6,0.3L54.5,17c6.1-1.2,11.5-1.8,16.3-1.8s8.2,1.1,10.3,3.3
		C83.2,20.6,84.3,24,84.3,28.6z M58.6,45.6c0,5.1,2.1,7.7,6.3,7.7c3.8,0,7.5-0.6,11.2-1.9l1.9-0.7V36.9l-12.3,1.2
		c-2.5,0.2-4.3,0.9-5.4,2.2C59.1,41.5,58.6,43.3,58.6,45.6z"/>
</g>
</svg>
