<svg xmlns="http://www.w3.org/2000/svg" viewBox="0 0 581.8 300" enable-background="new 0 0 581.8 300"><style type="text/css">.st0{fill:#230F66;}</style><path d="M0 135.1l5.8-25.8h9.9l5.8 25.8h-5.2l-1-4.7h-9l-1 4.7H0zm9.9-21.5l-2.6 12.3h7.1l-2.6-12.3H9.9zM25 109.3h10.1c2.7 0 4.7.5 6 1.6 1.3 1.1 2 2.8 2 5.2 0 1.4-.2 2.6-.6 3.4-.4.8-1.2 1.6-2.2 2.3 1.1.5 2 1.2 2.5 2.1.5.9.8 2.2.8 3.8 0 2.5-.7 4.4-2.2 5.6-1.5 1.2-3.5 1.8-6.2 1.8H25v-25.8zm9.9 4.5h-4.6v6.1H35c2 0 3-1 3-3.1-.1-2-1.1-3-3.1-3zm.1 10.5h-4.8v6.3H35c1.1 0 2-.2 2.5-.7.5-.5.8-1.3.8-2.5 0-2-1.1-3.1-3.3-3.1zM64.4 134.7c-2.7.6-5.1.9-7.2.9-2.2 0-3.9-.3-5.2-.8-1.3-.5-2.3-1.4-3-2.5-.7-1.2-1.2-2.5-1.5-4.1-.3-1.6-.4-3.5-.4-5.9 0-5 .7-8.4 2.1-10.4 1.4-2 4-2.9 7.8-2.9 2.2 0 4.7.3 7.5 1l-.2 4.2c-2.5-.4-4.6-.6-6.2-.6-1.7 0-2.8.2-3.5.7-.7.4-1.2 1.3-1.6 2.5-.3 1.2-.5 3.4-.5 6.3 0 3 .3 5 1 6.2s2.1 1.7 4.2 1.7 4.3-.2 6.7-.5v4.2zM77.4 135.1h-8.7v-25.8h8.7c2.2 0 4.1.2 5.5.7 1.4.5 2.6 1.2 3.4 2.3.8 1.1 1.3 2.3 1.7 3.8.3 1.5.5 3.3.5 5.7 0 2.3-.1 4.3-.4 5.8-.3 1.5-.8 2.9-1.6 4.1-.8 1.2-1.9 2.1-3.4 2.6-1.6.5-3.5.8-5.7.8zm5.5-10.2c.1-.8.1-1.9.1-3.4 0-1.4-.1-2.6-.2-3.4-.1-.9-.3-1.6-.7-2.4s-.9-1.2-1.7-1.5-1.8-.4-3-.4h-3.5v16.7h3.5c1.9 0 3.3-.5 4.1-1.4.7-.8 1.2-2.2 1.4-4.2zM92.9 135.1v-25.8h16.7v4.6H98.1v6h9.2v4.5h-9.2v6.2h11.5v4.6H92.9zM113.9 135.1v-25.8h16.5v4.6h-11.2v7.6h9.2v4.6h-9.2v9.1h-5.3zM144.8 125.9v-4.6h7.5v13.4c-3.6.6-6.5.9-8.8.9-4 0-6.8-1.1-8.3-3.2-1.5-2.1-2.3-5.6-2.3-10.2 0-4.7.8-8.1 2.4-10.1 1.6-2.1 4.2-3.1 8-3.1 2.4 0 4.9.3 7.6.8l1.4.3-.2 4.1c-3-.3-5.5-.5-7.5-.5-1.9 0-3.3.2-4.1.7-.8.5-1.4 1.3-1.7 2.5-.4 1.2-.5 3.3-.5 6.3s.4 5.1 1.1 6.2c.7 1.2 2.3 1.8 4.6 1.8l3.1-.2v-5h-2.3zM172 135.1v-10.7h-9.6v10.7h-5.2v-25.8h5.2v10.5h9.6v-10.5h5.2v25.8H172zM182.9 135.1v-25.8h5.2v25.8h-5.2zM191.6 137.8v-4.6c1 0 1.7-.2 2.2-.6.5-.4.7-1.1.7-2.1v-21.2h5.2v21.4c0 2.8-.6 4.6-1.8 5.6-1.2 1-3.3 1.5-6.3 1.5zM210.4 135.1h-5.2v-25.8h5.2v11.3l3.5-.4 4.2-11h6l-5.6 12.9 5.8 12.9h-6l-4.3-10.3-3.5.4v10zM242.4 135.1h-14.7v-25.8h5.2v21.2h9.4v4.6zM245.6 135.1v-25.8h8.9l4.6 18.8 4.6-18.8h8.9v25.8h-5.2v-19.9h-.6l-5 18.8h-5.2l-5-18.8h-.6v19.9h-5.4zM278.1 135.1v-25.8h8.8l6.2 21.2h.4v-21.2h5.2v25.8h-8.6l-6.4-21.2h-.4v21.2h-5.2zM322.2 132.4c-1.6 2.1-4.4 3.2-8.3 3.2s-6.7-1.1-8.3-3.2c-1.6-2.1-2.4-5.5-2.4-10 0-4.6.8-7.9 2.4-10.1 1.6-2.2 4.4-3.3 8.3-3.3s6.7 1.1 8.3 3.3 2.4 5.6 2.4 10.1c.1 4.5-.7 7.8-2.4 10zm-12.4-3.4c.7 1.3 2.1 2 4.2 2s3.4-.7 4.2-2c.7-1.3 1.1-3.6 1.1-6.7s-.4-5.4-1.1-6.8c-.8-1.4-2.1-2.1-4.2-2.1-2 0-3.4.7-4.2 2.1-.8 1.4-1.1 3.7-1.1 6.8 0 3.2.3 5.4 1.1 6.7zM338.6 127.6h-4.2v7.5h-5.2v-25.8h9.5c6.1 0 9.2 3 9.2 9 0 3-.8 5.3-2.3 6.9-1.7 1.6-4 2.4-7 2.4zm-4.2-4.5h4.2c2.6 0 3.9-1.6 3.9-4.9 0-1.6-.3-2.7-.9-3.4-.6-.7-1.6-1-3-1h-4.2v9.3zM361 135.6c-3.9 0-6.7-1.1-8.3-3.2-1.6-2.1-2.4-5.5-2.4-10 0-4.6.8-8 2.4-10.2 1.6-2.2 4.4-3.3 8.3-3.3s6.7 1.1 8.3 3.3c1.6 2.2 2.4 5.6 2.4 10.2 0 5.6-1.3 9.4-4 11.3l3.1 5.1-4.8 2.2-3.4-5.6c-.2.1-.7.2-1.6.2zm-4.2-6.6c.7 1.3 2.1 2 4.2 2s3.4-.7 4.2-2c.7-1.3 1.1-3.5 1.1-6.7 0-3.1-.4-5.4-1.1-6.8-.8-1.4-2.1-2.1-4.2-2.1s-3.4.7-4.2 2.1c-.8 1.4-1.1 3.7-1.1 6.8 0 3.2.4 5.4 1.1 6.7zM381.4 126.5v8.6h-5.2v-25.8h10c6.1 0 9.1 2.8 9.1 8.5 0 3.4-1.3 5.8-3.8 7.4l3.7 9.9h-5.7l-3-8.6h-5.1zm7.7-5.7c.6-.8.9-1.8.9-3s-.3-2.2-1-3c-.6-.7-1.6-1.1-2.8-1.1h-4.8v8.2h4.9c1.2.1 2.1-.3 2.8-1.1zM407.6 113.4c-2.8 0-4.1.9-4.1 2.7 0 .8.3 1.4 1 1.9.7.4 2.3 1 4.8 1.9 2.5.8 4.3 1.7 5.3 2.7 1 1 1.5 2.6 1.5 4.7 0 2.7-.8 4.8-2.5 6.1-1.6 1.4-3.8 2.1-6.4 2.1-2 0-4.4-.3-7.2-.9l-1.4-.3.5-4.1c3.4.5 6 .7 7.8.7 2.7 0 4-1.1 4-3.3 0-.8-.3-1.4-.9-1.9-.6-.5-1.9-.9-3.7-1.5-2.9-.8-5-1.8-6.2-3-1.2-1.1-1.8-2.7-1.8-4.8 0-2.6.8-4.5 2.4-5.8 1.6-1.3 3.7-1.9 6.4-1.9 1.9 0 4.2.3 7.1.8l1.4.3-.4 4.1c-3.6-.3-6.1-.5-7.6-.5zM418 113.9v-4.6h19v4.6h-6.8v21.2H425v-21.2h-7zM445.3 126.5c0 3 1.5 4.5 4.6 4.5 3.1 0 4.6-1.5 4.6-4.5v-17.2h5.2v17.1c0 3.2-.8 5.5-2.4 7-1.6 1.5-4.1 2.2-7.4 2.2-3.3 0-5.7-.7-7.4-2.2-1.6-1.5-2.4-3.8-2.4-7v-17.1h5.2v17.2zM479.1 109.3h5.5l-6 25.8h-9.7l-6-25.8h5.5l4.5 21.2h1.7l4.5-21.2zM485.9 109.3h5.5l3.2 21.3h.6l4.6-21.3h6.1l4.6 21.3h.6l3.2-21.3h5.5l-4.9 25.8H507l-4.1-19.6-4.1 19.6h-7.9l-5-25.8zM526.6 109.3l4.8 9.5 4.9-9.5h5.4l-7.4 13.2 7.4 12.6h-5.8l-4.8-8.9-4.9 8.9h-5.4l7.4-12.4-7.4-13.4h5.8zM555.2 135.1H550v-10.4l-8-15.4h5.8l4.7 10.3 4.7-10.3h5.8l-7.9 15.4v10.4zM564.7 113.9v-4.6h17.1v4.6l-10.8 16v.7h10.8v4.6h-17.1v-4.5l10.8-16v-.7h-10.8zM16.2 167.6v7.9c.1.6.2 1 .3 1.3.2.2.5.4.9.5l-.2 3.8c-1.3 0-2.3-.1-3.1-.3-.8-.2-1.5-.5-2.3-1.1-1.8.9-3.7 1.3-5.6 1.3-3.9 0-5.9-2.1-5.9-6.2 0-2 .5-3.5 1.6-4.3 1.1-.8 2.8-1.3 5-1.5l4.1-.3v-1.2c0-.8-.2-1.3-.5-1.6-.4-.3-.9-.4-1.7-.4l-7.1.3-.2-3.5c2.7-.7 5.3-1.1 7.7-1.1s4.2.5 5.3 1.5c1.2 1 1.7 2.6 1.7 4.9zm-8.5 5c-1.4.1-2.1.9-2.1 2.3s.6 2.1 1.9 2.1c1 0 2-.2 3.1-.5l.6-.2v-4.1l-3.5.4zM30.3 161.2c2.7 0 4.6.7 5.8 2.2 1.2 1.5 1.8 4.1 1.8 7.8s-.7 6.3-2.1 7.8c-1.4 1.4-3.9 2.1-7.3 2.1-1.1 0-3.1-.1-6-.4l-1.4-.2V154h5.1v8.2c1.6-.7 3-1 4.1-1zm-1.8 15.3c1.7 0 2.8-.4 3.4-1.2.6-.8.9-2.3.9-4.4 0-3.4-1.1-5.1-3.2-5.1-1 0-2 .1-2.9.4l-.5.1v10.1c1.1.1 1.9.1 2.3.1zM48.8 161.2c1.3 0 3 .2 5 .6l1 .2-.2 4c-2-.2-3.5-.3-4.4-.3-1.7 0-2.9.4-3.5 1.1-.6.7-.9 2.2-.9 4.2 0 2.1.3 3.5.9 4.3.6.8 1.7 1.2 3.5 1.2l4.4-.3.2 4.1c-2.7.5-4.8.8-6.2.8-2.8 0-4.8-.8-6-2.4-1.2-1.6-1.8-4.1-1.8-7.6s.6-6 1.9-7.6c1.3-1.5 3.3-2.3 6.1-2.3zM74.8 154.1v26.5h-5v-.8c-1.8.8-3.3 1.3-4.6 1.3-2.8 0-4.7-.8-5.8-2.4-1.1-1.6-1.6-4.1-1.6-7.6s.7-6 2-7.5c1.3-1.6 3.3-2.4 5.9-2.4.8 0 1.9.1 3.4.4l.7.2v-7.7h5zm-5.7 22l.5-.1v-10c-1.4-.3-2.6-.4-3.7-.4-2 0-3.1 1.8-3.1 5.5 0 2 .2 3.4.7 4.2.5.8 1.2 1.3 2.3 1.3 1.1-.1 2.2-.2 3.3-.5zM84.6 175.8c.6.5 1.4.8 2.6.8 2.4 0 4.5-.1 6.3-.2l1.1-.1.1 3.8c-2.9.7-5.5 1.1-7.9 1.1-2.9 0-4.9-.8-6.2-2.3-1.3-1.5-1.9-4-1.9-7.4 0-6.8 2.8-10.2 8.4-10.2 5.5 0 8.3 2.9 8.3 8.6l-.4 3.5H83.6c.1 1.1.4 1.9 1 2.4zm5.6-6.4c0-1.5-.2-2.6-.7-3.2-.5-.6-1.3-.9-2.5-.9s-2 .3-2.5.9c-.5.6-.8 1.7-.8 3.1h6.5zM104.8 166v14.6h-5.1V166h-2v-4.3h2v-.8c0-2.7.4-4.6 1.2-5.7.8-1 2.3-1.6 4.3-1.6.9 0 2.1.1 3.5.4l.8.1-.1 4.1c-1.1 0-2-.1-2.8-.1-.8 0-1.3.2-1.5.6-.3.4-.4 1.1-.4 2.1v.8h4.6v4.3h-4.5zM129.5 183c0 2.2-.8 3.8-2.5 4.8s-3.9 1.6-6.8 1.6-5-.4-6.6-1.1c-1.5-.8-2.3-2.1-2.3-4.1 0-1.6.9-3.1 2.7-4.5-.9-.6-1.4-1.6-1.4-2.9 0-.5.4-1.3 1.1-2.5l.3-.5c-1.7-1.2-2.6-3.1-2.6-5.5s.7-4.2 2.2-5.3c1.5-1.1 3.4-1.6 5.8-1.6 1.1 0 2.2.1 3.2.4l.6.1 6.1-.2v4.1l-2.8-.2c.6.9.8 1.7.8 2.6 0 2.5-.6 4.3-1.9 5.2-1.3 1-3.3 1.4-6.1 1.4-.6 0-1.1-.1-1.6-.2-.3.7-.4 1.2-.4 1.6 0 .4.2.7.6.9.4.2 1.4.2 3 .3 3.2 0 5.4.4 6.5 1.3 1.5.6 2.1 2.1 2.1 4.3zm-13.1.5c0 1.1 1.3 1.6 4 1.6s4-.6 4-1.9c0-.7-.2-1.1-.7-1.3-.5-.2-1.4-.3-2.9-.3l-3.4-.3c-.7.8-1 1.5-1 2.2zm.3-15.5c0 1.9 1 2.8 2.9 2.8s2.9-.9 2.9-2.8-1-2.8-2.9-2.8-2.9 1-2.9 2.8zM137.7 180.6h-5.1v-26.5h5.1v8.5c1.7-.9 3.3-1.4 4.7-1.4 2.5 0 4.3.7 5.2 2.2 1 1.5 1.4 3.8 1.4 6.9v10.3h-5v-10.2c0-1.6-.2-2.8-.6-3.5-.4-.8-1.1-1.2-2.3-1.2-1 0-2 .2-3 .5l-.5.2v14.2zM153.6 159.2V154h5.1v5.2h-5.1zm0 21.4v-19h5.1v19h-5.1zM163.4 179.7v-18.1h5.1v18.1c0 2.6-.4 4.5-1.3 5.7-.9 1.2-2.7 2.5-5.4 3.9l-2-3.8c1.1-.8 1.9-1.4 2.4-1.8.5-.4.8-.9 1-1.5.1-.5.2-1.4.2-2.5zm0-20.5V154h5.1v5.2h-5.1zM178.3 180.6h-5.1v-26.5h5.1v15.1l1.9-.3 3.8-7.2h5.7l-4.9 9 5.2 10h-5.7l-3.8-7.4-2.1.3v7zM192.9 180.6v-26.5h5.1v26.5h-5.1zM208 180.6h-5.1v-19h5v1.1c1.7-1 3.2-1.5 4.5-1.5 2 0 3.6.6 4.7 1.8 2.3-1.2 4.4-1.8 6.4-1.8 2.5 0 4.2.7 5.2 2.2 1 1.5 1.5 3.8 1.5 7v10.3h-5.1v-10.1c0-1.6-.2-2.8-.5-3.6-.4-.8-1.1-1.2-2.1-1.2-.8 0-1.8.2-3 .5l-.6.2c.1 1.9.2 3.3.2 4.3v9.8H214v-9.7c0-1.9-.2-3.2-.5-4-.3-.8-1-1.2-2.2-1.2-1 0-2 .2-2.9.5l-.5.2v14.2zM239.9 180.6h-5.1v-19h5v1.1c1.7-1 3.3-1.5 4.7-1.5 2.5 0 4.3.7 5.2 2.2 1 1.5 1.4 3.8 1.4 6.9v10.3H246v-10.1c0-1.6-.2-2.8-.6-3.6-.4-.8-1.1-1.2-2.3-1.2-1 0-2 .2-3 .5l-.5.2v14.2zM256.8 163.8c1.3-1.7 3.6-2.6 6.7-2.6s5.4.9 6.7 2.6c1.3 1.7 2 4.2 2 7.3 0 6.6-2.9 10-8.7 10-5.8 0-8.7-3.3-8.7-10 0-3.1.6-5.6 2-7.3zm3.9 11.6c.5.9 1.4 1.4 2.8 1.4s2.3-.5 2.8-1.4c.5-.9.8-2.3.8-4.3 0-1.9-.3-3.4-.8-4.2-.5-.9-1.4-1.3-2.8-1.3s-2.3.4-2.8 1.3-.8 2.3-.8 4.2c0 1.9.3 3.4.8 4.3zM275.9 188.6v-26.9h5v1c1.6-1 3.1-1.5 4.3-1.5 2.6 0 4.4.8 5.7 2.3 1.2 1.5 1.8 4.1 1.8 7.8s-.7 6.2-2 7.6c-1.3 1.4-3.5 2.1-6.6 2.1-.8 0-1.7-.1-2.7-.2l-.5-.1v7.8h-5zm8.4-22.8c-.9 0-1.9.2-2.8.6l-.5.2v9.9c1.1.2 2.1.2 2.8.2 1.5 0 2.5-.4 3-1.3s.8-2.3.8-4.4c0-3.5-1.1-5.2-3.3-5.2zM303.3 181.1c-2.7 0-4.6-.7-5.8-2.2-1.2-1.5-1.8-4.1-1.8-7.8s.7-6.3 2.1-7.8c1.4-1.4 3.8-2.1 7.3-2.1 1.5 0 3.6.1 6 .4l1.4.1v26.9h-5.1v-8.5c-1.7.6-3 1-4.1 1zm1.7-15.5c-1.7 0-2.8.4-3.4 1.3s-.9 2.4-.9 4.5c0 3.4 1.1 5.1 3.2 5.1 1 0 2-.1 2.9-.4l.5-.1v-10.3c-.9 0-1.6-.1-2.3-.1zM317.1 180.6v-19h5v2c2.1-1.3 4.1-2.1 6.1-2.5v5.1c-2 .4-3.8.9-5.3 1.3l-.8.3v12.7h-5zM344.9 166.4c-3.1-.4-5.3-.6-6.6-.6-1.3 0-2.1.1-2.4.3-.4.2-.5.6-.5 1.1 0 .5.2.8.7 1s1.8.5 3.8.8c2 .4 3.5 1 4.3 1.8.9.8 1.3 2.2 1.3 4.1 0 4.1-2.5 6.1-7.6 6.1-1.7 0-3.7-.2-6.1-.7l-1.2-.2.2-4.2c3.1.4 5.3.6 6.5.6 1.2 0 2.1-.1 2.5-.4s.7-.6.7-1.1c0-.5-.2-.8-.7-1.1-.5-.2-1.7-.5-3.6-.8-2-.3-3.4-.9-4.4-1.7s-1.4-2.2-1.4-4.2.7-3.5 2-4.6c1.4-1 3.1-1.5 5.3-1.5 1.5 0 3.5.2 6.1.7l1.3.2-.2 4.4zM359.7 166H355v7.8c0 .8 0 1.3.1 1.6 0 .3.2.6.4.8.2.2.6.3 1.1.3l2.9-.1.2 4.1c-1.7.4-3 .6-3.9.6-2.3 0-3.8-.5-4.7-1.5-.8-1-1.3-2.9-1.3-5.7V166h-2.2v-4.3h2.2v-5.3h5.1v5.3h4.7v4.3zM374.2 161.7h5.1v19h-5v-1.1c-1.8 1-3.4 1.5-4.7 1.5-2.6 0-4.4-.7-5.3-2.2-.9-1.5-1.4-3.9-1.4-7.3v-9.9h5.1v10c0 1.9.2 3.1.5 3.8.3.7 1 1 2.2 1 1.1 0 2.2-.2 3.1-.5l.5-.2v-14.1zM382.2 161.7h5.3l3 14.6h1.1l3.2-14.6h5.2l-4.6 19h-8.6l-4.6-19zM401.4 161.7h5l2.3 14.6h.9l2.9-14.3h5.2l2.9 14.3h.9l2.3-14.6h5l-3.6 19h-8l-2.2-11.6-2.2 11.6h-8l-3.4-19zM430.3 161.7h5.4l3 5.9 3.1-5.9h5.4l-5.4 9.3 5.4 9.7h-5.4l-3.1-5.8-3 5.8h-5.4l5.2-9.5-5.2-9.5zM448.3 161.7h5l3.5 14.6h.9l3.5-14.6h5l-6.7 26.9h-5l2.1-8H453l-4.7-18.9zM468.3 166.2v-4.6h14.1v4.6l-8 9.9h8v4.6h-14.1v-4.6l8-9.9h-8zM2.7 203.8c1.6-2.1 4.1-3.1 7.3-3.1s5.6 1 7.3 3.1c1.6 2.1 2.4 5.4 2.4 10s-.8 7.9-2.4 9.9c-1.6 2-4 3-7.3 3-3.2 0-5.7-1-7.3-3-1.6-2-2.4-5.3-2.4-9.9 0-4.6.8-8 2.4-10zm11.6 9.8c0-3.1-.3-5.3-1-6.6-.7-1.3-1.8-1.9-3.3-1.9-1.6 0-2.7.6-3.3 1.9-.7 1.3-1 3.5-1 6.6 0 3.1.3 5.3 1 6.5.7 1.2 1.8 1.9 3.3 1.9s2.6-.6 3.3-1.9c.7-1.2 1-3.3 1-6.5zM36.4 201.1v25h-5.2V207l-5.4 3.5-2.4-3.9 8.3-5.5h4.7zM60.5 226.1H44.3v-4.4l5.3-5.4c1.9-1.9 3.2-3.4 4-4.5.7-1 1.1-2.1 1.1-3.3s-.3-2-.9-2.5c-.6-.5-1.5-.7-2.6-.7-1.7 0-3.5.2-5.5.5l-.9.1-.3-4.1c2.5-.8 5-1.1 7.7-1.1 5.3 0 8 2.4 8 7.2 0 1.9-.4 3.5-1.2 4.9-.8 1.4-2.3 3-4.4 5l-4.4 3.9h10.4v4.4zM65.4 202c2.3-.9 4.9-1.4 7.8-1.4 2.9 0 5 .6 6.3 1.7 1.3 1.1 2 2.9 2 5.3s-1 4.3-2.9 5.6c1.2.7 2.1 1.3 2.6 2s.8 1.8.8 3.4c0 2.7-.7 4.7-2 6s-3.5 2-6.5 2c-2.2 0-4.5-.3-6.9-1l-1.2-.3.3-4c2.8.5 5.2.7 7.1.7 2.6 0 3.9-1.1 3.9-3.3 0-.9-.3-1.7-1-2.2-.7-.6-1.5-.8-2.6-.8h-5v-4.3h5c.8 0 1.6-.4 2.2-1.1.6-.7 1-1.5 1-2.4 0-1.8-1.3-2.7-3.8-2.7-1.7 0-3.6.2-5.6.5l-1 .2-.5-3.9zM96.4 226.1V222H85.8v-4l6.2-16.9h5.8l-6.7 16.3h5.4v-7h5.2v7h2.4v4.6h-2.4v4.1h-5.3zM124.1 201.1v4.6h-11.2l-.6 5.4c1.6-.6 3.1-.9 4.5-.9 5.4 0 8.1 2.5 8.1 7.5 0 2.8-.7 5-2.2 6.6-1.5 1.5-3.6 2.3-6.3 2.3-1.2 0-2.5-.1-4-.3-1.5-.2-2.7-.5-3.5-.7l-1.4-.3.6-3.9c3.1.5 5.6.7 7.7.7 1.2 0 2.2-.3 2.8-1 .7-.7 1-1.6 1-2.8s-.3-2.1-.8-2.7c-.6-.6-1.3-.8-2.4-.8-1.7 0-3.2.2-4.5.5l-.6.2-3.1-.7.7-13.5h15.2zM145.6 205.8c-2.6-.4-4.8-.6-6.7-.6-3.6 0-5.4 1.9-5.4 5.8l.8-.2c1.7-.5 3-.7 4-.7 2.9 0 5 .7 6.4 2 1.4 1.3 2.2 3.4 2.2 6.1 0 2.8-.8 4.9-2.4 6.3-1.6 1.4-4 2.1-7 2.1s-5.4-1.1-7-3.4c-1.6-2.2-2.4-5.5-2.4-9.9 0-4.3.9-7.6 2.7-9.6 1.8-2.1 4.4-3.1 7.7-3.1 2 0 4.1.3 6.3.8l1.2.3-.4 4.1zm-7.8 8.8c-1.2 0-2.4.2-3.7.6l-.6.2c0 4.4 1.4 6.6 4.2 6.6 1.2 0 2.1-.3 2.8-1 .7-.7 1-1.6 1-2.8 0-2.4-1.2-3.6-3.7-3.6zM150.6 205.8v-4.7h16v5.9l-8.9 19.6-4.9-1.4 8.5-18.2v-1.2h-10.7zM173.2 202.4c1.6-1.2 3.8-1.8 6.6-1.8s5 .6 6.7 1.8c1.7 1.2 2.5 2.9 2.5 5 0 1.5-.2 2.6-.5 3.3-.4.7-1.1 1.5-2.2 2.4 1.1.9 1.9 1.8 2.4 2.7.5.8.7 2 .7 3.5 0 2.5-.9 4.3-2.7 5.5-1.8 1.2-4.1 1.8-6.9 1.8-6.3 0-9.5-2.3-9.5-6.8 0-1.6.2-2.9.7-3.8.5-.9 1.3-1.8 2.4-2.8-1.1-.9-1.8-1.7-2.2-2.5-.4-.8-.6-1.9-.6-3.2.1-2.2 1-3.9 2.6-5.1zm2.7 16.1c0 2.2 1.3 3.3 3.9 3.3 2.6 0 3.9-1.1 3.9-3.3 0-1.3-.7-2.3-2.2-2.8h-3.3c-1.5.6-2.3 1.5-2.3 2.8zm4-13.2c-1.1 0-2 .3-2.6.8-.6.5-.9 1.3-.9 2.3s.6 2 1.9 2.8h3.3c1.2-.9 1.9-1.8 1.9-3-.1-1.9-1.3-2.9-3.6-2.9zM199.9 222c3.4 0 5-2 5-6.1l-.8.3c-1.7.6-3.1.9-4 .9-2.8 0-4.9-.7-6.4-2s-2.2-3.3-2.2-6c0-2.6.8-4.7 2.5-6.2 1.6-1.5 4-2.2 7-2.2s5.3 1.1 6.9 3.4 2.4 5.6 2.4 10-.9 7.6-2.7 9.6c-1.8 2-4.4 3-7.8 3-2 0-4.1-.3-6.3-.8l-1.2-.3.5-4c2.6.2 5 .4 7.1.4zm.7-9.5c1.2 0 2.4-.2 3.8-.7l.6-.2c0-4.3-1.4-6.4-4.2-6.4-1.2 0-2.2.3-2.8 1-.7.7-1 1.6-1 2.8 0 2.3 1.2 3.5 3.6 3.5zM4.5 279l.5-2.3h14.8l-.5 2.3h-6.2l-4.8 20.7H5.8l4.8-20.7H4.5zM17.1 299.7l3.8-16.6h2.5l-3.8 16.6h-2.5zm4.6-20.1l.7-3h2.5l-.7 3h-2.5zM28.1 296.3c0 1 .6 1.5 1.7 1.5l2.6-.2-.2 1.9c-1.2.3-2.2.5-3.3.5-1 0-1.9-.3-2.5-.8-.6-.6-.9-1.3-.9-2.2 0-.9.2-2.1.5-3.5l1.9-8.2h-2.2l.6-2.2h2.2l1.2-4.9h2.5l-1.2 4.9h4.6l-.5 2.2h-4.6l-1.9 8.3c-.4 1-.5 1.9-.5 2.7zM34.5 299.7l3.8-16.6h2.5L37 299.7h-2.5zm4.6-20.1l.7-3h2.5l-.7 3h-2.5zM41.5 299.7l5.5-23.8h2.5L44 299.7h-2.5zM48.5 299.7l3.8-16.6h2.5L51 299.7h-2.5zm4.6-20.1l.7-3h2.5l-.7 3h-2.5zM60.3 300c-1.3 0-2.3-.4-2.9-1.1-.7-.8-1-1.7-1-2.9s.2-2.7.7-4.4l2-8.4h2.5l-1.9 8.3c-.4 1.7-.6 3-.6 4 0 1.7.8 2.5 2.3 2.5.7 0 1.4-.3 2.3-.9.9-.6 1.5-1.2 2-1.9l.8-.9 2.6-11h2.5l-3.8 16.6H65l.6-2.9c-.2.2-.5.5-.8.9-.3.4-1 .8-1.9 1.4-.9.4-1.8.7-2.6.7zM84.2 287.4c0-1.7-.8-2.5-2.3-2.5-.6 0-1.4.3-2.2.9-.9.6-1.5 1.2-2.1 1.9l-.8.9-2.6 11h-2.5l3.8-16.6h2.4l-.6 2.9c.5-.7 1.1-1.2 1.8-1.8 1.3-1 2.6-1.5 3.6-1.5 1.2 0 2.1.3 2.7 1 .5.6.8 1.3.9 1.9.2-.2.5-.5.8-.8.4-.3 1-.8 2-1.3s1.9-.8 2.7-.8c1.3 0 2.3.4 2.9 1.1.7.8 1 1.7 1 2.8 0 1.1-.2 2.7-.7 4.6l-1.9 8.4h-2.5l1.9-8.3c.4-1.7.6-3 .6-3.9 0-1.7-.7-2.5-2.2-2.5-.6 0-1.3.2-2.1.7-.8.5-1.4 1-1.8 1.5l-.7.7c-.1 1-.3 2.2-.6 3.4l-1.9 8.4h-2.5l1.9-8.3c.8-1.5 1-2.8 1-3.8zM117.9 276.7c1.8 0 3.2.4 4.1 1.1.9.7 1.4 1.9 1.4 3.5s-.4 3-1.2 4.1c-.8 1.1-1.8 1.9-3.1 2.5 1.9.7 2.8 2 2.8 3.9 0 2.4-.8 4.3-2.3 5.8-1.5 1.4-3.7 2.2-6.5 2.2h-7.9l5.3-23h7.4zm-2.4 12.3h-5.2l-1.9 8.4h5.4c1.7 0 3.1-.5 4.1-1.5 1-1 1.5-2.4 1.5-4.1-.1-1.8-1.4-2.8-3.9-2.8zm2-10.1h-4.9l-1.8 7.9h5.1c1.5 0 2.7-.5 3.6-1.5.9-1 1.4-2.3 1.4-3.8 0-1-.3-1.7-.8-2.1-.5-.3-1.4-.5-2.6-.5zM133.2 282.7c3.8 0 5.7 1.9 5.7 5.6 0 2.1-.3 4-1 5.7-.7 1.7-1.6 3.2-2.9 4.3-1.3 1.1-2.8 1.6-4.5 1.6-3.8 0-5.7-1.8-5.7-5.4 0-3.2.8-6 2.4-8.3 1.6-2.3 3.6-3.5 6-3.5zm-2.7 15.1c1.8 0 3.2-.9 4.3-2.8 1.1-1.9 1.6-4.1 1.6-6.7 0-1.1-.3-1.9-.8-2.5-.5-.6-1.4-.9-2.4-.9-1.7 0-3.1 1-4.2 2.9s-1.6 4.2-1.6 6.8c-.1 2.2 1 3.2 3.1 3.2zM140.5 299.7l5.5-23.8h2.5l-5.5 23.8h-2.5zM152.5 300c-2.8 0-4.2-1.6-4.2-4.8 0-1.9.3-3.8.9-5.7.6-1.9 1.6-3.4 2.9-4.7 1.3-1.3 2.8-2 4.5-2 1.1 0 2.4.2 3.8.5l.7.1 1.8-7.5h2.5l-5.5 23.8h-2.4l.6-3c-.2.3-.5.6-1 1.1-.5.4-.9.8-1.3 1.1-1.2.7-2.3 1.1-3.3 1.1zm8.1-14.6c-1.5-.3-2.8-.5-4-.5s-2.2.6-3.1 1.7-1.6 2.5-2 4c-.4 1.5-.6 3-.6 4.5 0 1.8.8 2.7 2.4 2.7.7 0 1.4-.3 2.3-1 .9-.7 1.6-1.3 2.2-2l.8-1 2-8.4zM.8 58L13.9 0h22.4l13.1 58H37.5l-2.3-10.5H14.9L12.6 58H.8zM23 9.7l-5.9 27.6H33L27.1 9.7H23zM88.7 28.7v17.7c.1 1.4.3 2.3.7 2.9.3.5 1.1.9 2.1 1.2l-.3 8.6c-2.9 0-5.2-.2-7-.6-1.7-.4-3.5-1.2-5.2-2.4-4.1 2-8.3 3-12.5 3-8.8 0-13.2-4.7-13.2-14 0-4.6 1.2-7.8 3.7-9.7 2.4-1.9 6.2-3 11.3-3.4l9.1-.7v-2.6c0-1.8-.4-3-1.2-3.6-.8-.7-2.1-1-3.8-1l-16 .7-.3-7.9c6.1-1.7 11.9-2.5 17.4-2.5 5.5 0 9.4 1.1 11.9 3.4 2.1 2.2 3.3 5.9 3.3 10.9zM69.5 39.9c-3.2.3-4.8 2-4.8 5.1 0 3.1 1.4 4.7 4.2 4.7 2.2 0 4.5-.3 7.1-1l1.3-.3v-9.1l-7.8.6z" class="st0"/></svg>