<?xml version="1.0" encoding="utf-8"?>
<!-- Generator: Adobe Illustrator 18.0.0, SVG Export Plug-In . SVG Version: 6.00 Build 0)  -->
<!DOCTYPE svg PUBLIC "-//W3C//DTD SVG 1.1//EN" "http://www.w3.org/Graphics/SVG/1.1/DTD/svg11.dtd">
<svg version="1.1" id="Calque_1" xmlns="http://www.w3.org/2000/svg" xmlns:xlink="http://www.w3.org/1999/xlink" x="0px" y="0px"
	 viewBox="0 0 581.8 300" style="enable-background:new 0 0 581.8 300;" xml:space="preserve">
<style type="text/css">
	.st0{fill:#230F66;}
</style>
<g>
	<path class="st0" d="M0,135.1l5.8-25.8h9.9l5.8,25.8h-5.2l-1-4.7h-9l-1,4.7H0z M9.9,113.6l-2.6,12.3h7.1l-2.6-12.3H9.9z"/>
	<path class="st0" d="M25,109.3h10.1c2.7,0,4.7,0.5,6,1.6c1.3,1.1,2,2.8,2,5.2c0,1.4-0.2,2.6-0.6,3.4c-0.4,0.8-1.2,1.6-2.2,2.3
		c1.1,0.5,2,1.2,2.5,2.1c0.5,0.9,0.8,2.2,0.8,3.8c0,2.5-0.7,4.4-2.2,5.6c-1.5,1.2-3.5,1.8-6.2,1.8H25V109.3z M34.9,113.8h-4.6v6.1
		h4.7c2,0,3-1,3-3.1C37.9,114.8,36.9,113.8,34.9,113.8z M35,124.3h-4.8v6.3H35c1.1,0,2-0.2,2.5-0.7c0.5-0.5,0.8-1.3,0.8-2.5
		C38.3,125.4,37.2,124.3,35,124.3z"/>
	<path class="st0" d="M64.4,134.7c-2.7,0.6-5.1,0.9-7.2,0.9c-2.2,0-3.9-0.3-5.2-0.8c-1.3-0.5-2.3-1.4-3-2.5
		c-0.7-1.2-1.2-2.5-1.5-4.1c-0.3-1.6-0.4-3.5-0.4-5.9c0-5,0.7-8.4,2.1-10.4c1.4-2,4-2.9,7.8-2.9c2.2,0,4.7,0.3,7.5,1l-0.2,4.2
		c-2.5-0.4-4.6-0.6-6.2-0.6c-1.7,0-2.8,0.2-3.5,0.7c-0.7,0.4-1.2,1.3-1.6,2.5c-0.3,1.2-0.5,3.4-0.5,6.3c0,3,0.3,5,1,6.2
		s2.1,1.7,4.2,1.7c2.1,0,4.3-0.2,6.7-0.5L64.4,134.7z"/>
	<path class="st0" d="M77.4,135.1h-8.7v-25.8h8.7c2.2,0,4.1,0.2,5.5,0.7c1.4,0.5,2.6,1.2,3.4,2.3c0.8,1.1,1.3,2.3,1.7,3.8
		c0.3,1.5,0.5,3.3,0.5,5.7c0,2.3-0.1,4.3-0.4,5.8c-0.3,1.5-0.8,2.9-1.6,4.1c-0.8,1.2-1.9,2.1-3.4,2.6
		C81.5,134.8,79.6,135.1,77.4,135.1z M82.9,124.9c0.1-0.8,0.1-1.9,0.1-3.4c0-1.4-0.1-2.6-0.2-3.4c-0.1-0.9-0.3-1.6-0.7-2.4
		s-0.9-1.2-1.7-1.5s-1.8-0.4-3-0.4h-3.5v16.7h3.5c1.9,0,3.3-0.5,4.1-1.4C82.2,128.3,82.7,126.9,82.9,124.9z"/>
	<path class="st0" d="M92.9,135.1v-25.8h16.7v4.6H98.1v6h9.2v4.5h-9.2v6.2h11.5v4.6H92.9z"/>
	<path class="st0" d="M113.9,135.1v-25.8h16.5v4.6h-11.2v7.6h9.2v4.6h-9.2v9.1H113.9z"/>
	<path class="st0" d="M144.8,125.9v-4.6h7.5v13.4c-3.6,0.6-6.5,0.9-8.8,0.9c-4,0-6.8-1.1-8.3-3.2c-1.5-2.1-2.3-5.6-2.3-10.2
		c0-4.7,0.8-8.1,2.4-10.1c1.6-2.1,4.2-3.1,8-3.1c2.4,0,4.9,0.3,7.6,0.8l1.4,0.3l-0.2,4.1c-3-0.3-5.5-0.5-7.5-0.5
		c-1.9,0-3.3,0.2-4.1,0.7c-0.8,0.5-1.4,1.3-1.7,2.5c-0.4,1.2-0.5,3.3-0.5,6.3c0,3,0.4,5.1,1.1,6.2c0.7,1.2,2.3,1.8,4.6,1.8l3.1-0.2
		v-5H144.8z"/>
	<path class="st0" d="M172,135.1v-10.7h-9.6v10.7h-5.2v-25.8h5.2v10.5h9.6v-10.5h5.2v25.8H172z"/>
	<path class="st0" d="M182.9,135.1v-25.8h5.2v25.8H182.9z"/>
	<path class="st0" d="M191.6,137.8v-4.6c1,0,1.7-0.2,2.2-0.6c0.5-0.4,0.7-1.1,0.7-2.1v-21.2h5.2l0,21.4c0,2.8-0.6,4.6-1.8,5.6
		C196.7,137.3,194.6,137.8,191.6,137.8z"/>
	<path class="st0" d="M210.4,135.1h-5.2v-25.8h5.2v11.3l3.5-0.4l4.2-11h6l-5.6,12.9l5.8,12.9h-6l-4.3-10.3l-3.5,0.4V135.1z"/>
	<path class="st0" d="M242.4,135.1h-14.7v-25.8h5.2v21.2h9.4V135.1z"/>
	<path class="st0" d="M245.6,135.1v-25.8h8.9l4.6,18.8l4.6-18.8h8.9v25.8h-5.2v-19.9h-0.6l-5,18.8h-5.2l-5-18.8h-0.6v19.9H245.6z"/>
	<path class="st0" d="M278.1,135.1v-25.8h8.8l6.2,21.2h0.4v-21.2h5.2v25.8h-8.6l-6.4-21.2h-0.4v21.2H278.1z"/>
	<path class="st0" d="M322.2,132.4c-1.6,2.1-4.4,3.2-8.3,3.2s-6.7-1.1-8.3-3.2c-1.6-2.1-2.4-5.5-2.4-10c0-4.6,0.8-7.9,2.4-10.1
		c1.6-2.2,4.4-3.3,8.3-3.3s6.7,1.1,8.3,3.3s2.4,5.6,2.4,10.1C324.7,126.9,323.9,130.2,322.2,132.4z M309.8,129c0.7,1.3,2.1,2,4.2,2
		s3.4-0.7,4.2-2c0.7-1.3,1.1-3.6,1.1-6.7c0-3.1-0.4-5.4-1.1-6.8c-0.8-1.4-2.1-2.1-4.2-2.1c-2,0-3.4,0.7-4.2,2.1
		c-0.8,1.4-1.1,3.7-1.1,6.8C308.7,125.5,309,127.7,309.8,129z"/>
	<path class="st0" d="M338.6,127.6h-4.2v7.5h-5.2v-25.8h9.5c6.1,0,9.2,3,9.2,9c0,3-0.8,5.3-2.3,6.9
		C343.9,126.8,341.6,127.6,338.6,127.6z M334.4,123.1h4.2c2.6,0,3.9-1.6,3.9-4.9c0-1.6-0.3-2.7-0.9-3.4c-0.6-0.7-1.6-1-3-1h-4.2
		V123.1z"/>
	<path class="st0" d="M361,135.6c-3.9,0-6.7-1.1-8.3-3.2c-1.6-2.1-2.4-5.5-2.4-10c0-4.6,0.8-8,2.4-10.2c1.6-2.2,4.4-3.3,8.3-3.3
		s6.7,1.1,8.3,3.3c1.6,2.2,2.4,5.6,2.4,10.2c0,5.6-1.3,9.4-4,11.3l3.1,5.1l-4.8,2.2l-3.4-5.6C362.4,135.5,361.9,135.6,361,135.6z
		 M356.8,129c0.7,1.3,2.1,2,4.2,2s3.4-0.7,4.2-2c0.7-1.3,1.1-3.5,1.1-6.7c0-3.1-0.4-5.4-1.1-6.8c-0.8-1.4-2.1-2.1-4.2-2.1
		s-3.4,0.7-4.2,2.1c-0.8,1.4-1.1,3.7-1.1,6.8C355.7,125.5,356.1,127.7,356.8,129z"/>
	<path class="st0" d="M381.4,126.5v8.6h-5.2v-25.8h10c6.1,0,9.1,2.8,9.1,8.5c0,3.4-1.3,5.8-3.8,7.4l3.7,9.9h-5.7l-3-8.6H381.4z
		 M389.1,120.8c0.6-0.8,0.9-1.8,0.9-3c0-1.2-0.3-2.2-1-3c-0.6-0.7-1.6-1.1-2.8-1.1h-4.8v8.2h4.9C387.5,122,388.4,121.6,389.1,120.8z
		"/>
	<path class="st0" d="M407.6,113.4c-2.8,0-4.1,0.9-4.1,2.7c0,0.8,0.3,1.4,1,1.9c0.7,0.4,2.3,1,4.8,1.9c2.5,0.8,4.3,1.7,5.3,2.7
		c1,1,1.5,2.6,1.5,4.7c0,2.7-0.8,4.8-2.5,6.1c-1.6,1.4-3.8,2.1-6.4,2.1c-2,0-4.4-0.3-7.2-0.9l-1.4-0.3l0.5-4.1
		c3.4,0.5,6,0.7,7.8,0.7c2.7,0,4-1.1,4-3.3c0-0.8-0.3-1.4-0.9-1.9c-0.6-0.5-1.9-0.9-3.7-1.5c-2.9-0.8-5-1.8-6.2-3
		c-1.2-1.1-1.8-2.7-1.8-4.8c0-2.6,0.8-4.5,2.4-5.8c1.6-1.3,3.7-1.9,6.4-1.9c1.9,0,4.2,0.3,7.1,0.8l1.4,0.3l-0.4,4.1
		C411.6,113.6,409.1,113.4,407.6,113.4z"/>
	<path class="st0" d="M418,113.9v-4.6h19v4.6h-6.8v21.2h-5.2v-21.2H418z"/>
	<path class="st0" d="M445.3,126.5c0,3,1.5,4.5,4.6,4.5c3.1,0,4.6-1.5,4.6-4.5v-17.2h5.2v17.1c0,3.2-0.8,5.5-2.4,7
		c-1.6,1.5-4.1,2.2-7.4,2.2c-3.3,0-5.7-0.7-7.4-2.2c-1.6-1.5-2.4-3.8-2.4-7v-17.1h5.2V126.5z"/>
	<path class="st0" d="M479.1,109.3h5.5l-6,25.8h-9.7l-6-25.8h5.5l4.5,21.2h1.7L479.1,109.3z"/>
	<path class="st0" d="M485.9,109.3h5.5l3.2,21.3h0.6l4.6-21.3h6.1l4.6,21.3h0.6l3.2-21.3h5.5l-4.9,25.8h-7.9l-4.1-19.6l-4.1,19.6
		h-7.9L485.9,109.3z"/>
	<path class="st0" d="M526.6,109.3l4.8,9.5l4.9-9.5h5.4l-7.4,13.2l7.4,12.6h-5.8l-4.8-8.9l-4.9,8.9h-5.4l7.4-12.4l-7.4-13.4H526.6z"
		/>
	<path class="st0" d="M555.2,135.1H550v-10.4l-8-15.4h5.8l4.7,10.3l4.7-10.3h5.8l-7.9,15.4V135.1z"/>
	<path class="st0" d="M564.7,113.9v-4.6h17.1v4.6l-10.8,16v0.7h10.8v4.6h-17.1v-4.5l10.8-16v-0.7H564.7z"/>
	<path class="st0" d="M16.2,167.6v7.9c0.1,0.6,0.2,1,0.3,1.3c0.2,0.2,0.5,0.4,0.9,0.5l-0.2,3.8c-1.3,0-2.3-0.1-3.1-0.3
		c-0.8-0.2-1.5-0.5-2.3-1.1c-1.8,0.9-3.7,1.3-5.6,1.3c-3.9,0-5.9-2.1-5.9-6.2c0-2,0.5-3.5,1.6-4.3c1.1-0.8,2.8-1.3,5-1.5l4.1-0.3
		v-1.2c0-0.8-0.2-1.3-0.5-1.6c-0.4-0.3-0.9-0.4-1.7-0.4l-7.1,0.3l-0.2-3.5c2.7-0.7,5.3-1.1,7.7-1.1s4.2,0.5,5.3,1.5
		C15.7,163.7,16.2,165.3,16.2,167.6z M7.7,172.6c-1.4,0.1-2.1,0.9-2.1,2.3c0,1.4,0.6,2.1,1.9,2.1c1,0,2-0.2,3.1-0.5l0.6-0.2v-4.1
		L7.7,172.6z"/>
	<path class="st0" d="M30.3,161.2c2.7,0,4.6,0.7,5.8,2.2c1.2,1.5,1.8,4.1,1.8,7.8c0,3.7-0.7,6.3-2.1,7.8c-1.4,1.4-3.9,2.1-7.3,2.1
		c-1.1,0-3.1-0.1-6-0.4l-1.4-0.2v-26.5h5.1v8.2C27.8,161.5,29.2,161.2,30.3,161.2z M28.5,176.5c1.7,0,2.8-0.4,3.4-1.2
		c0.6-0.8,0.9-2.3,0.9-4.4c0-3.4-1.1-5.1-3.2-5.1c-1,0-2,0.1-2.9,0.4l-0.5,0.1v10.1C27.3,176.5,28.1,176.5,28.5,176.5z"/>
	<path class="st0" d="M48.8,161.2c1.3,0,3,0.2,5,0.6l1,0.2l-0.2,4c-2-0.2-3.5-0.3-4.4-0.3c-1.7,0-2.9,0.4-3.5,1.1
		c-0.6,0.7-0.9,2.2-0.9,4.2c0,2.1,0.3,3.5,0.9,4.3c0.6,0.8,1.7,1.2,3.5,1.2l4.4-0.3l0.2,4.1c-2.7,0.5-4.8,0.8-6.2,0.8
		c-2.8,0-4.8-0.8-6-2.4c-1.2-1.6-1.8-4.1-1.8-7.6c0-3.5,0.6-6,1.9-7.6C44,162,46,161.2,48.8,161.2z"/>
	<path class="st0" d="M74.8,154.1v26.5h-5v-0.8c-1.8,0.8-3.3,1.3-4.6,1.3c-2.8,0-4.7-0.8-5.8-2.4c-1.1-1.6-1.6-4.1-1.6-7.6
		s0.7-6,2-7.5c1.3-1.6,3.3-2.4,5.9-2.4c0.8,0,1.9,0.1,3.4,0.4l0.7,0.2v-7.7H74.8z M69.1,176.1l0.5-0.1v-10c-1.4-0.3-2.6-0.4-3.7-0.4
		c-2,0-3.1,1.8-3.1,5.5c0,2,0.2,3.4,0.7,4.2c0.5,0.8,1.2,1.3,2.3,1.3C66.9,176.5,68,176.4,69.1,176.1z"/>
	<path class="st0" d="M84.6,175.8c0.6,0.5,1.4,0.8,2.6,0.8c2.4,0,4.5-0.1,6.3-0.2l1.1-0.1l0.1,3.8c-2.9,0.7-5.5,1.1-7.9,1.1
		c-2.9,0-4.9-0.8-6.2-2.3c-1.3-1.5-1.9-4-1.9-7.4c0-6.8,2.8-10.2,8.4-10.2c5.5,0,8.3,2.9,8.3,8.6l-0.4,3.5H83.6
		C83.7,174.5,84,175.3,84.6,175.8z M90.2,169.4c0-1.5-0.2-2.6-0.7-3.2c-0.5-0.6-1.3-0.9-2.5-0.9c-1.2,0-2,0.3-2.5,0.9
		c-0.5,0.6-0.8,1.7-0.8,3.1H90.2z"/>
	<path class="st0" d="M104.8,166v14.6h-5.1V166h-2v-4.3h2v-0.8c0-2.7,0.4-4.6,1.2-5.7c0.8-1,2.3-1.6,4.3-1.6c0.9,0,2.1,0.1,3.5,0.4
		l0.8,0.1l-0.1,4.1c-1.1,0-2-0.1-2.8-0.1c-0.8,0-1.3,0.2-1.5,0.6c-0.3,0.4-0.4,1.1-0.4,2.1v0.8h4.6v4.3H104.8z"/>
	<path class="st0" d="M129.5,183c0,2.2-0.8,3.8-2.5,4.8c-1.7,1-3.9,1.6-6.8,1.6s-5-0.4-6.6-1.1c-1.5-0.8-2.3-2.1-2.3-4.1
		c0-1.6,0.9-3.1,2.7-4.5c-0.9-0.6-1.4-1.6-1.4-2.9c0-0.5,0.4-1.3,1.1-2.5l0.3-0.5c-1.7-1.2-2.6-3.1-2.6-5.5c0-2.4,0.7-4.2,2.2-5.3
		c1.5-1.1,3.4-1.6,5.8-1.6c1.1,0,2.2,0.1,3.2,0.4l0.6,0.1l6.1-0.2v4.1l-2.8-0.2c0.6,0.9,0.8,1.7,0.8,2.6c0,2.5-0.6,4.3-1.9,5.2
		c-1.3,1-3.3,1.4-6.1,1.4c-0.6,0-1.1-0.1-1.6-0.2c-0.3,0.7-0.4,1.2-0.4,1.6c0,0.4,0.2,0.7,0.6,0.9c0.4,0.2,1.4,0.2,3,0.3
		c3.2,0,5.4,0.4,6.5,1.3C128.9,179.3,129.5,180.8,129.5,183z M116.4,183.5c0,1.1,1.3,1.6,4,1.6c2.7,0,4-0.6,4-1.9
		c0-0.7-0.2-1.1-0.7-1.3c-0.5-0.2-1.4-0.3-2.9-0.3l-3.4-0.3C116.7,182.1,116.4,182.8,116.4,183.5z M116.7,168c0,1.9,1,2.8,2.9,2.8
		c1.9,0,2.9-0.9,2.9-2.8c0-1.9-1-2.8-2.9-2.8C117.7,165.2,116.7,166.2,116.7,168z"/>
	<path class="st0" d="M137.7,180.6h-5.1v-26.5h5.1v8.5c1.7-0.9,3.3-1.4,4.7-1.4c2.5,0,4.3,0.7,5.2,2.2c1,1.5,1.4,3.8,1.4,6.9v10.3
		H144v-10.2c0-1.6-0.2-2.8-0.6-3.5c-0.4-0.8-1.1-1.2-2.3-1.2c-1,0-2,0.2-3,0.5l-0.5,0.2V180.6z"/>
	<path class="st0" d="M153.6,159.2v-5.2h5.1v5.2H153.6z M153.6,180.6v-19h5.1v19H153.6z"/>
	<path class="st0" d="M163.4,179.7v-18.1h5.1v18.1c0,2.6-0.4,4.5-1.3,5.7c-0.9,1.2-2.7,2.5-5.4,3.9l-2-3.8c1.1-0.8,1.9-1.4,2.4-1.8
		c0.5-0.4,0.8-0.9,1-1.5C163.3,181.7,163.4,180.8,163.4,179.7z M163.4,159.2v-5.2h5.1v5.2H163.4z"/>
	<path class="st0" d="M178.3,180.6h-5.1v-26.5h5.1v15.1l1.9-0.3l3.8-7.2h5.7l-4.9,9l5.2,10h-5.7l-3.8-7.4l-2.1,0.3V180.6z"/>
	<path class="st0" d="M192.9,180.6v-26.5h5.1v26.5H192.9z"/>
	<path class="st0" d="M208,180.6h-5.1v-19h5v1.1c1.7-1,3.2-1.5,4.5-1.5c2,0,3.6,0.6,4.7,1.8c2.3-1.2,4.4-1.8,6.4-1.8
		c2.5,0,4.2,0.7,5.2,2.2c1,1.5,1.5,3.8,1.5,7v10.3h-5.1v-10.1c0-1.6-0.2-2.8-0.5-3.6c-0.4-0.8-1.1-1.2-2.1-1.2c-0.8,0-1.8,0.2-3,0.5
		l-0.6,0.2c0.1,1.9,0.2,3.3,0.2,4.3v9.8h-5.1v-9.7c0-1.9-0.2-3.2-0.5-4c-0.3-0.8-1-1.2-2.2-1.2c-1,0-2,0.2-2.9,0.5l-0.5,0.2V180.6z"
		/>
	<path class="st0" d="M239.9,180.6h-5.1v-19h5v1.1c1.7-1,3.3-1.5,4.7-1.5c2.5,0,4.3,0.7,5.2,2.2c1,1.5,1.4,3.8,1.4,6.9v10.3h-5.1
		v-10.1c0-1.6-0.2-2.8-0.6-3.6c-0.4-0.8-1.1-1.2-2.3-1.2c-1,0-2,0.2-3,0.5l-0.5,0.2V180.6z"/>
	<path class="st0" d="M256.8,163.8c1.3-1.7,3.6-2.6,6.7-2.6s5.4,0.9,6.7,2.6c1.3,1.7,2,4.2,2,7.3c0,6.6-2.9,10-8.7,10
		c-5.8,0-8.7-3.3-8.7-10C254.8,168,255.4,165.5,256.8,163.8z M260.7,175.4c0.5,0.9,1.4,1.4,2.8,1.4s2.3-0.5,2.8-1.4
		c0.5-0.9,0.8-2.3,0.8-4.3c0-1.9-0.3-3.4-0.8-4.2c-0.5-0.9-1.4-1.3-2.8-1.3s-2.3,0.4-2.8,1.3c-0.5,0.9-0.8,2.3-0.8,4.2
		C259.9,173,260.2,174.5,260.7,175.4z"/>
	<path class="st0" d="M275.9,188.6v-26.9h5v1c1.6-1,3.1-1.5,4.3-1.5c2.6,0,4.4,0.8,5.7,2.3c1.2,1.5,1.8,4.1,1.8,7.8
		c0,3.7-0.7,6.2-2,7.6c-1.3,1.4-3.5,2.1-6.6,2.1c-0.8,0-1.7-0.1-2.7-0.2l-0.5-0.1v7.8H275.9z M284.3,165.8c-0.9,0-1.9,0.2-2.8,0.6
		l-0.5,0.2v9.9c1.1,0.2,2.1,0.2,2.8,0.2c1.5,0,2.5-0.4,3-1.3s0.8-2.3,0.8-4.4C287.6,167.5,286.5,165.8,284.3,165.8z"/>
	<path class="st0" d="M303.3,181.1c-2.7,0-4.6-0.7-5.8-2.2c-1.2-1.5-1.8-4.1-1.8-7.8s0.7-6.3,2.1-7.8c1.4-1.4,3.8-2.1,7.3-2.1
		c1.5,0,3.6,0.1,6,0.4l1.4,0.1v26.9h-5.1v-8.5C305.7,180.7,304.4,181.1,303.3,181.1z M305,165.6c-1.7,0-2.8,0.4-3.4,1.3
		s-0.9,2.4-0.9,4.5c0,3.4,1.1,5.1,3.2,5.1c1,0,2-0.1,2.9-0.4l0.5-0.1v-10.3C306.4,165.7,305.7,165.6,305,165.6z"/>
	<path class="st0" d="M317.1,180.6v-19h5v2c2.1-1.3,4.1-2.1,6.1-2.5v5.1c-2,0.4-3.8,0.9-5.3,1.3l-0.8,0.3v12.7H317.1z"/>
	<path class="st0" d="M344.9,166.4c-3.1-0.4-5.3-0.6-6.6-0.6c-1.3,0-2.1,0.1-2.4,0.3c-0.4,0.2-0.5,0.6-0.5,1.1c0,0.5,0.2,0.8,0.7,1
		s1.8,0.5,3.8,0.8c2,0.4,3.5,1,4.3,1.8c0.9,0.8,1.3,2.2,1.3,4.1c0,4.1-2.5,6.1-7.6,6.1c-1.7,0-3.7-0.2-6.1-0.7l-1.2-0.2l0.2-4.2
		c3.1,0.4,5.3,0.6,6.5,0.6c1.2,0,2.1-0.1,2.5-0.4s0.7-0.6,0.7-1.1c0-0.5-0.2-0.8-0.7-1.1c-0.5-0.2-1.7-0.5-3.6-0.8
		c-2-0.3-3.4-0.9-4.4-1.7s-1.4-2.2-1.4-4.2c0-2,0.7-3.5,2-4.6c1.4-1,3.1-1.5,5.3-1.5c1.5,0,3.5,0.2,6.1,0.7l1.3,0.2L344.9,166.4z"/>
	<path class="st0" d="M359.7,166H355v7.8c0,0.8,0,1.3,0.1,1.6c0,0.3,0.2,0.6,0.4,0.8c0.2,0.2,0.6,0.3,1.1,0.3l2.9-0.1l0.2,4.1
		c-1.7,0.4-3,0.6-3.9,0.6c-2.3,0-3.8-0.5-4.7-1.5c-0.8-1-1.3-2.9-1.3-5.7V166h-2.2v-4.3h2.2v-5.3h5.1v5.3h4.7V166z"/>
	<path class="st0" d="M374.2,161.7h5.1v19h-5v-1.1c-1.8,1-3.4,1.5-4.7,1.5c-2.6,0-4.4-0.7-5.3-2.2c-0.9-1.5-1.4-3.9-1.4-7.3v-9.9
		h5.1v10c0,1.9,0.2,3.1,0.5,3.8c0.3,0.7,1,1,2.2,1c1.1,0,2.2-0.2,3.1-0.5l0.5-0.2V161.7z"/>
	<path class="st0" d="M382.2,161.7h5.3l3,14.6h1.1l3.2-14.6h5.2l-4.6,19h-8.6L382.2,161.7z"/>
	<path class="st0" d="M401.4,161.7h5l2.3,14.6h0.9l2.9-14.3h5.2l2.9,14.3h0.9l2.3-14.6h5l-3.6,19h-8l-2.2-11.6l-2.2,11.6h-8
		L401.4,161.7z"/>
	<path class="st0" d="M430.3,161.7h5.4l3,5.9l3.1-5.9h5.4l-5.4,9.3l5.4,9.7h-5.4l-3.1-5.8l-3,5.8h-5.4l5.2-9.5L430.3,161.7z"/>
	<path class="st0" d="M448.3,161.7h5l3.5,14.6h0.9l3.5-14.6h5l-6.7,26.9h-5l2.1-8H453L448.3,161.7z"/>
	<path class="st0" d="M468.3,166.2v-4.6h14.1v4.6l-8,9.9h8v4.6h-14.1v-4.6l8-9.9H468.3z"/>
	<path class="st0" d="M2.7,203.8c1.6-2.1,4.1-3.1,7.3-3.1c3.2,0,5.6,1,7.3,3.1c1.6,2.1,2.4,5.4,2.4,10c0,4.6-0.8,7.9-2.4,9.9
		c-1.6,2-4,3-7.3,3c-3.2,0-5.7-1-7.3-3c-1.6-2-2.4-5.3-2.4-9.9C0.3,209.2,1.1,205.8,2.7,203.8z M14.3,213.6c0-3.1-0.3-5.3-1-6.6
		c-0.7-1.3-1.8-1.9-3.3-1.9c-1.6,0-2.7,0.6-3.3,1.9c-0.7,1.3-1,3.5-1,6.6c0,3.1,0.3,5.3,1,6.5c0.7,1.2,1.8,1.9,3.3,1.9
		s2.6-0.6,3.3-1.9C14,218.9,14.3,216.8,14.3,213.6z"/>
	<path class="st0" d="M36.4,201.1v25h-5.2V207l-5.4,3.5l-2.4-3.9l8.3-5.5H36.4z"/>
	<path class="st0" d="M60.5,226.1H44.3v-4.4l5.3-5.4c1.9-1.9,3.2-3.4,4-4.5c0.7-1,1.1-2.1,1.1-3.3s-0.3-2-0.9-2.5
		c-0.6-0.5-1.5-0.7-2.6-0.7c-1.7,0-3.5,0.2-5.5,0.5l-0.9,0.1l-0.3-4.1c2.5-0.8,5-1.1,7.7-1.1c5.3,0,8,2.4,8,7.2
		c0,1.9-0.4,3.5-1.2,4.9c-0.8,1.4-2.3,3-4.4,5l-4.4,3.9h10.4V226.1z"/>
	<path class="st0" d="M65.4,202c2.3-0.9,4.9-1.4,7.8-1.4c2.9,0,5,0.6,6.3,1.7c1.3,1.1,2,2.9,2,5.3c0,2.4-1,4.3-2.9,5.6
		c1.2,0.7,2.1,1.3,2.6,2c0.5,0.7,0.8,1.8,0.8,3.4c0,2.7-0.7,4.7-2,6s-3.5,2-6.5,2c-2.2,0-4.5-0.3-6.9-1l-1.2-0.3l0.3-4
		c2.8,0.5,5.2,0.7,7.1,0.7c2.6,0,3.9-1.1,3.9-3.3c0-0.9-0.3-1.7-1-2.2c-0.7-0.6-1.5-0.8-2.6-0.8h-5v-4.3h5c0.8,0,1.6-0.4,2.2-1.1
		c0.6-0.7,1-1.5,1-2.4c0-1.8-1.3-2.7-3.8-2.7c-1.7,0-3.6,0.2-5.6,0.5l-1,0.2L65.4,202z"/>
	<path class="st0" d="M96.4,226.1V222H85.8v-4l6.2-16.9h5.8l-6.7,16.3h5.4v-7h5.2v7h2.4v4.6h-2.4v4.1H96.4z"/>
	<path class="st0" d="M124.1,201.1v4.6h-11.2l-0.6,5.4c1.6-0.6,3.1-0.9,4.5-0.9c5.4,0,8.1,2.5,8.1,7.5c0,2.8-0.7,5-2.2,6.6
		c-1.5,1.5-3.6,2.3-6.3,2.3c-1.2,0-2.5-0.1-4-0.3c-1.5-0.2-2.7-0.5-3.5-0.7l-1.4-0.3l0.6-3.9c3.1,0.5,5.6,0.7,7.7,0.7
		c1.2,0,2.2-0.3,2.8-1c0.7-0.7,1-1.6,1-2.8s-0.3-2.1-0.8-2.7c-0.6-0.6-1.3-0.8-2.4-0.8c-1.7,0-3.2,0.2-4.5,0.5l-0.6,0.2l-3.1-0.7
		l0.7-13.5H124.1z"/>
	<path class="st0" d="M145.6,205.8c-2.6-0.4-4.8-0.6-6.7-0.6c-3.6,0-5.4,1.9-5.4,5.8l0.8-0.2c1.7-0.5,3-0.7,4-0.7c2.9,0,5,0.7,6.4,2
		c1.4,1.3,2.2,3.4,2.2,6.1c0,2.8-0.8,4.9-2.4,6.3c-1.6,1.4-4,2.1-7,2.1s-5.4-1.1-7-3.4c-1.6-2.2-2.4-5.5-2.4-9.9
		c0-4.3,0.9-7.6,2.7-9.6c1.8-2.1,4.4-3.1,7.7-3.1c2,0,4.1,0.3,6.3,0.8l1.2,0.3L145.6,205.8z M137.8,214.6c-1.2,0-2.4,0.2-3.7,0.6
		l-0.6,0.2c0,4.4,1.4,6.6,4.2,6.6c1.2,0,2.1-0.3,2.8-1c0.7-0.7,1-1.6,1-2.8C141.5,215.8,140.3,214.6,137.8,214.6z"/>
	<path class="st0" d="M150.6,205.8v-4.7h16v5.9l-8.9,19.6l-4.9-1.4l8.5-18.2v-1.2H150.6z"/>
	<path class="st0" d="M173.2,202.4c1.6-1.2,3.8-1.8,6.6-1.8c2.8,0,5,0.6,6.7,1.8c1.7,1.2,2.5,2.9,2.5,5c0,1.5-0.2,2.6-0.5,3.3
		c-0.4,0.7-1.1,1.5-2.2,2.4c1.1,0.9,1.9,1.8,2.4,2.7c0.5,0.8,0.7,2,0.7,3.5c0,2.5-0.9,4.3-2.7,5.5c-1.8,1.2-4.1,1.8-6.9,1.8
		c-6.3,0-9.5-2.3-9.5-6.8c0-1.6,0.2-2.9,0.7-3.8c0.5-0.9,1.3-1.8,2.4-2.8c-1.1-0.9-1.8-1.7-2.2-2.5c-0.4-0.8-0.6-1.9-0.6-3.2
		C170.7,205.3,171.6,203.6,173.2,202.4z M175.9,218.5c0,2.2,1.3,3.3,3.9,3.3c2.6,0,3.9-1.1,3.9-3.3c0-1.3-0.7-2.3-2.2-2.8h-3.3
		C176.7,216.3,175.9,217.2,175.9,218.5z M179.9,205.3c-1.1,0-2,0.3-2.6,0.8c-0.6,0.5-0.9,1.3-0.9,2.3s0.6,2,1.9,2.8h3.3
		c1.2-0.9,1.9-1.8,1.9-3C183.4,206.3,182.2,205.3,179.9,205.3z"/>
	<path class="st0" d="M199.9,222c3.4,0,5-2,5-6.1l-0.8,0.3c-1.7,0.6-3.1,0.9-4,0.9c-2.8,0-4.9-0.7-6.4-2c-1.5-1.3-2.2-3.3-2.2-6
		c0-2.6,0.8-4.7,2.5-6.2c1.6-1.5,4-2.2,7-2.2c3,0,5.3,1.1,6.9,3.4s2.4,5.6,2.4,10c0,4.4-0.9,7.6-2.7,9.6c-1.8,2-4.4,3-7.8,3
		c-2,0-4.1-0.3-6.3-0.8l-1.2-0.3l0.5-4C195.4,221.8,197.8,222,199.9,222z M200.6,212.5c1.2,0,2.4-0.2,3.8-0.7l0.6-0.2
		c0-4.3-1.4-6.4-4.2-6.4c-1.2,0-2.2,0.3-2.8,1c-0.7,0.7-1,1.6-1,2.8C197,211.3,198.2,212.5,200.6,212.5z"/>
</g>
<g>
	<path class="st0" d="M4.5,279l0.5-2.3h14.8l-0.5,2.3h-6.2l-4.8,20.7H5.8l4.8-20.7H4.5z"/>
	<path class="st0" d="M17.1,299.7l3.8-16.6h2.5l-3.8,16.6H17.1z M21.7,279.6l0.7-3h2.5l-0.7,3H21.7z"/>
	<path class="st0" d="M28.1,296.3c0,1,0.6,1.5,1.7,1.5l2.6-0.2l-0.2,1.9c-1.2,0.3-2.2,0.5-3.3,0.5c-1,0-1.9-0.3-2.5-0.8
		c-0.6-0.6-0.9-1.3-0.9-2.2c0-0.9,0.2-2.1,0.5-3.5l1.9-8.2h-2.2l0.6-2.2h2.2l1.2-4.9h2.5l-1.2,4.9h4.6l-0.5,2.2h-4.6l-1.9,8.3
		C28.2,294.6,28.1,295.5,28.1,296.3z"/>
	<path class="st0" d="M34.5,299.7l3.8-16.6h2.5L37,299.7H34.5z M39.1,279.6l0.7-3h2.5l-0.7,3H39.1z"/>
	<path class="st0" d="M41.5,299.7l5.5-23.8h2.5L44,299.7H41.5z"/>
	<path class="st0" d="M48.5,299.7l3.8-16.6h2.5l-3.8,16.6H48.5z M53.1,279.6l0.7-3h2.5l-0.7,3H53.1z"/>
	<path class="st0" d="M60.3,300c-1.3,0-2.3-0.4-2.9-1.1c-0.7-0.8-1-1.7-1-2.9c0-1.2,0.2-2.7,0.7-4.4l2-8.4h2.5l-1.9,8.3
		c-0.4,1.7-0.6,3-0.6,4c0,1.7,0.8,2.5,2.3,2.5c0.7,0,1.4-0.3,2.3-0.9c0.9-0.6,1.5-1.2,2-1.9l0.8-0.9l2.6-11h2.5l-3.8,16.6H65
		l0.6-2.9c-0.2,0.2-0.5,0.5-0.8,0.9c-0.3,0.4-1,0.8-1.9,1.4C62,299.7,61.1,300,60.3,300z"/>
	<path class="st0" d="M84.2,287.4c0-1.7-0.8-2.5-2.3-2.5c-0.6,0-1.4,0.3-2.2,0.9c-0.9,0.6-1.5,1.2-2.1,1.9l-0.8,0.9l-2.6,11h-2.5
		l3.8-16.6h2.4l-0.6,2.9c0.5-0.7,1.1-1.2,1.8-1.8c1.3-1,2.6-1.5,3.6-1.5c1.2,0,2.1,0.3,2.7,1c0.5,0.6,0.8,1.3,0.9,1.9
		c0.2-0.2,0.5-0.5,0.8-0.8c0.4-0.3,1-0.8,2-1.3c1-0.5,1.9-0.8,2.7-0.8c1.3,0,2.3,0.4,2.9,1.1c0.7,0.8,1,1.7,1,2.8
		c0,1.1-0.2,2.7-0.7,4.6l-1.9,8.4h-2.5l1.9-8.3c0.4-1.7,0.6-3,0.6-3.9c0-1.7-0.7-2.5-2.2-2.5c-0.6,0-1.3,0.2-2.1,0.7
		c-0.8,0.5-1.4,1-1.8,1.5l-0.7,0.7c-0.1,1-0.3,2.2-0.6,3.4l-1.9,8.4h-2.5l1.9-8.3C84,289.7,84.2,288.4,84.2,287.4z"/>
	<path class="st0" d="M117.9,276.7c1.8,0,3.2,0.4,4.1,1.1c0.9,0.7,1.4,1.9,1.4,3.5c0,1.6-0.4,3-1.2,4.1c-0.8,1.1-1.8,1.9-3.1,2.5
		c1.9,0.7,2.8,2,2.8,3.9c0,2.4-0.8,4.3-2.3,5.8c-1.5,1.4-3.7,2.2-6.5,2.2h-7.9l5.3-23H117.9z M115.5,289h-5.2l-1.9,8.4h5.4
		c1.7,0,3.1-0.5,4.1-1.5c1-1,1.5-2.4,1.5-4.1C119.3,290,118,289,115.5,289z M117.5,278.9h-4.9l-1.8,7.9h5.1c1.5,0,2.7-0.5,3.6-1.5
		c0.9-1,1.4-2.3,1.4-3.8c0-1-0.3-1.7-0.8-2.1C119.6,279.1,118.7,278.9,117.5,278.9z"/>
	<path class="st0" d="M133.2,282.7c3.8,0,5.7,1.9,5.7,5.6c0,2.1-0.3,4-1,5.7c-0.7,1.7-1.6,3.2-2.9,4.3c-1.3,1.1-2.8,1.6-4.5,1.6
		c-3.8,0-5.7-1.8-5.7-5.4c0-3.2,0.8-6,2.4-8.3C128.8,283.9,130.8,282.7,133.2,282.7z M130.5,297.8c1.8,0,3.2-0.9,4.3-2.8
		c1.1-1.9,1.6-4.1,1.6-6.7c0-1.1-0.3-1.9-0.8-2.5c-0.5-0.6-1.4-0.9-2.4-0.9c-1.7,0-3.1,1-4.2,2.9c-1.1,1.9-1.6,4.2-1.6,6.8
		C127.3,296.8,128.4,297.8,130.5,297.8z"/>
	<path class="st0" d="M140.5,299.7l5.5-23.8h2.5l-5.5,23.8H140.5z"/>
	<path class="st0" d="M152.5,300c-2.8,0-4.2-1.6-4.2-4.8c0-1.9,0.3-3.8,0.9-5.7c0.6-1.9,1.6-3.4,2.9-4.7c1.3-1.3,2.8-2,4.5-2
		c1.1,0,2.4,0.2,3.8,0.5l0.7,0.1l1.8-7.5h2.5l-5.5,23.8h-2.4l0.6-3c-0.2,0.3-0.5,0.6-1,1.1c-0.5,0.4-0.9,0.8-1.3,1.1
		C154.6,299.6,153.5,300,152.5,300z M160.6,285.4c-1.5-0.3-2.8-0.5-4-0.5s-2.2,0.6-3.1,1.7s-1.6,2.5-2,4c-0.4,1.5-0.6,3-0.6,4.5
		c0,1.8,0.8,2.7,2.4,2.7c0.7,0,1.4-0.3,2.3-1c0.9-0.7,1.6-1.3,2.2-2l0.8-1L160.6,285.4z"/>
</g>
<g>
	<path class="st0" d="M0.8,58L13.9,0h22.4l13.1,58H37.5l-2.3-10.5H14.9L12.6,58H0.8z M23,9.7l-5.9,27.6H33L27.1,9.7H23z"/>
	<path class="st0" d="M88.7,28.7v17.7c0.1,1.4,0.3,2.3,0.7,2.9c0.3,0.5,1.1,0.9,2.1,1.2l-0.3,8.6c-2.9,0-5.2-0.2-7-0.6
		c-1.7-0.4-3.5-1.2-5.2-2.4c-4.1,2-8.3,3-12.5,3c-8.8,0-13.2-4.7-13.2-14c0-4.6,1.2-7.8,3.7-9.7c2.4-1.9,6.2-3,11.3-3.4l9.1-0.7
		v-2.6c0-1.8-0.4-3-1.2-3.6c-0.8-0.7-2.1-1-3.8-1l-16,0.7l-0.3-7.9c6.1-1.7,11.9-2.5,17.4-2.5c5.5,0,9.4,1.1,11.9,3.4
		C87.5,20,88.7,23.7,88.7,28.7z M69.5,39.9c-3.2,0.3-4.8,2-4.8,5.1c0,3.1,1.4,4.7,4.2,4.7c2.2,0,4.5-0.3,7.1-1l1.3-0.3v-9.1
		L69.5,39.9z"/>
</g>
</svg>
