<svg xmlns="http://www.w3.org/2000/svg" viewBox="0 0 161.4 54.7" enable-background="new 0 0 161.4 54.7"><style type="text/css">.st0{fill:#004459;}</style><path d="M8 0l5.9 15h-2.2l-1.6-4.5H3.7L2 15H0L5.8 0H8zm1.4 8.8l-2.5-7-2.5 7h5zM25.7 15c-.3.2-.7.3-1.3.3-.5 0-.8-.1-1.1-.4-.3-.3-.4-.7-.4-1.3-.5.6-1.1 1-1.7 1.3-.7.3-1.4.4-2.1.4-.5 0-1-.1-1.4-.2-.4-.1-.8-.3-1.1-.5-.3-.2-.6-.5-.8-.9-.2-.4-.3-.9-.3-1.4 0-.6.1-1.1.3-1.5.2-.4.5-.7.8-1 .3-.2.7-.4 1.2-.6s.9-.2 1.4-.3c.5-.1 1-.2 1.4-.2.4 0 .8-.1 1.2-.2.3-.1.6-.2.8-.4.2-.2.3-.4.3-.8s-.1-.7-.2-.9c-.1-.2-.3-.4-.6-.5-.2-.1-.5-.2-.8-.3-.3 0-.6-.1-.9-.1-.8 0-1.4.1-1.9.4-.5.3-.8.8-.8 1.6H16c0-.7.2-1.2.4-1.7.3-.5.6-.8 1-1.1s.9-.5 1.4-.6c.5-.1 1.1-.2 1.7-.2.5 0 1 0 1.5.1s.9.2 1.3.4.7.5.9.9c.2.4.4.9.4 1.5v5.6c0 .4 0 .7.1.9 0 .2.2.3.5.3.2 0 .3 0 .5-.1V15zm-2.9-5.6c-.2.2-.5.3-.9.4-.4.1-.7.1-1.1.2-.4 0-.8.1-1.2.2-.4.1-.8.2-1.1.3-.3.1-.6.3-.8.6-.2.3-.3.6-.3 1.1 0 .3.1.5.2.7.1.2.3.4.5.5.2.1.4.2.7.3.3.1.5.1.8.1.6 0 1.1-.1 1.5-.2.4-.2.8-.4 1-.6.3-.2.5-.5.6-.8.1-.3.2-.6.2-.8v-2zM2.4 27v4.3h5.3V27H9v10H7.7v-4.6H2.4V37H1.1V27h1.3zM16.8 36.5c-.5.4-1.2.6-2 .6-.6 0-1.1-.1-1.5-.3-.4-.2-.8-.4-1.1-.8-.3-.3-.5-.7-.7-1.2-.1-.5-.2-1-.2-1.5 0-.6.1-1.1.3-1.5.2-.5.4-.9.7-1.2.3-.3.7-.6 1.1-.8.4-.2.9-.3 1.4-.3.6 0 1.2.1 1.6.4.4.3.8.6 1 1 .3.4.4.9.5 1.3.1.5.1.9.1 1.4h-5.4c0 .3 0 .6.1.9s.2.5.4.8c.2.2.4.4.7.5.3.1.6.2 1 .2.5 0 .9-.1 1.2-.4.3-.2.5-.6.6-1.1h1.2c-.1 1-.4 1.6-1 2zm-.3-4.6c-.1-.3-.3-.5-.4-.7-.2-.2-.4-.3-.6-.4-.2-.1-.5-.2-.8-.2-.3 0-.6.1-.8.2-.2.1-.5.3-.6.4-.2.2-.3.4-.4.7-.1.2-.2.5-.2.8h4.2c-.2-.3-.3-.6-.4-.8zM21.2 27v10H20V27h1.2zM25.7 37L23 29.8h1.3l2 6 2-6h1.2L27 37h-1.3zM36.6 36.5c-.5.4-1.2.6-2 .6-.6 0-1.1-.1-1.5-.3-.4-.2-.8-.4-1.1-.8-.3-.3-.5-.7-.7-1.2-.1-.5-.2-1-.2-1.5 0-.6.1-1.1.3-1.5.2-.5.4-.9.7-1.2.3-.3.7-.6 1.1-.8.4-.2.9-.3 1.4-.3.6 0 1.2.1 1.6.4.4.3.8.6 1 1 .3.4.4.9.5 1.3.1.5.1.9.1 1.4h-5.4c0 .3 0 .6.1.9s.2.5.4.8c.2.2.4.4.7.5.3.1.6.2 1 .2.5 0 .9-.1 1.2-.4.3-.2.5-.6.6-1.1h1.2c-.2 1-.5 1.6-1 2zm-.3-4.6c-.1-.3-.3-.5-.4-.7-.2-.2-.4-.3-.6-.4-.2-.1-.5-.2-.8-.2-.3 0-.6.1-.8.2-.2.1-.5.3-.6.4-.2.2-.3.4-.4.7-.1.2-.2.5-.2.8h4.2c-.3-.3-.3-.6-.4-.8zM42.7 29.8v1h-1.4v4.5c0 .1 0 .3 0 .3 0 .1.1.1.1.2.1 0 .2.1.3.1.1 0 .3 0 .5 0h.5v1h-.9c-.3 0-.6 0-.8-.1s-.4-.1-.5-.2-.2-.3-.3-.5c-.1-.2-.1-.5-.1-.8v-4.6h-1.2v-1h1.2v-2.2h1.2v2.2h1.4zM44.8 28.5V27H46v1.5h-1.2zm1.2 1.3V37h-1.2v-7.2H46zM52.9 31c-.3-.3-.7-.4-1.2-.4-.4 0-.8.1-1.1.2-.3.2-.5.4-.7.6-.2.3-.3.6-.4.9s-.1.7-.1 1.1c0 .3 0 .7.1 1 .1.3.2.6.4.8.2.2.4.4.7.6.3.1.6.2 1 .2.6 0 1-.2 1.4-.5.3-.3.5-.7.6-1.3h1.2c-.1.9-.5 1.6-1 2.1s-1.3.7-2.2.7c-.6 0-1-.1-1.5-.3-.4-.2-.8-.4-1.1-.8-.3-.3-.5-.7-.6-1.2-.1-.5-.2-.9-.2-1.5 0-.5.1-1 .2-1.5s.4-.9.6-1.2c.3-.4.6-.6 1.1-.8s.9-.3 1.5-.3c.4 0 .8 0 1.2.1.4.1.7.2 1 .5.3.2.5.5.7.8s.3.7.3 1.1h-1.2c-.2-.3-.4-.6-.7-.9zM63.2 37c-.2.1-.5.2-.9.2-.3 0-.6-.1-.7-.3-.2-.2-.3-.5-.3-.8-.3.4-.7.7-1.1.8-.4.2-.9.3-1.4.3-.3 0-.6 0-.9-.1-.3-.1-.5-.2-.8-.4-.2-.2-.4-.4-.5-.6-.1-.3-.2-.6-.2-.9 0-.4.1-.7.2-1 .1-.3.3-.5.6-.6.2-.2.5-.3.8-.4.3-.1.6-.2.9-.2.3-.1.6-.1.9-.1.3 0 .6-.1.8-.1.2-.1.4-.1.5-.3s.2-.3.2-.5c0-.3 0-.5-.1-.6-.1-.2-.2-.3-.4-.4-.2-.1-.3-.1-.5-.2-.2 0-.4 0-.6 0-.5 0-.9.1-1.3.3s-.5.6-.5 1.1h-1.2c0-.4.1-.8.3-1.1.2-.3.4-.6.7-.7.3-.2.6-.3 1-.4s.7-.1 1.2-.1c.3 0 .7 0 1 .1.3 0 .6.1.9.3.3.1.5.3.6.6.2.3.2.6.2 1v3.7c0 .3 0 .5 0 .6 0 .1.1.2.3.2.1 0 .2 0 .4-.1v.7zm-1.9-3.7c-.1.1-.3.2-.6.2s-.5.1-.8.1-.5.1-.8.1c-.3 0-.5.1-.7.2-.2.1-.4.2-.5.4s-.2.4-.2.7c0 .2 0 .4.1.5.1.1.2.2.3.3s.3.1.4.2.3.1.5.1c.4 0 .7-.1 1-.2.3-.1.5-.2.7-.4.2-.2.3-.3.4-.5.1-.2.1-.4.1-.5v-1.2zM71.2 27l5.3 8.1V27h1.3v10h-1.5l-5.2-8v8h-1.3V27h1.4zM85.5 36.5c-.5.4-1.2.6-2 .6-.6 0-1.1-.1-1.5-.3-.4-.2-.8-.4-1.1-.8-.3-.3-.5-.7-.7-1.2-.1-.5-.2-1-.2-1.5 0-.6.1-1.1.3-1.5.2-.5.4-.9.7-1.2.3-.3.7-.6 1.1-.8.4-.2.9-.3 1.4-.3.6 0 1.2.1 1.6.4.4.3.8.6 1 1 .3.4.4.9.5 1.3.1.5.1.9.1 1.4h-5.4c0 .3 0 .6.1.9s.2.5.4.8c.2.2.4.4.7.5.3.1.6.2 1 .2.5 0 .9-.1 1.2-.4.3-.2.5-.6.6-1.1h1.2c-.1 1-.4 1.6-1 2zm-.3-4.6c-.1-.3-.3-.5-.4-.7-.2-.2-.4-.3-.6-.4-.2-.1-.5-.2-.8-.2-.3 0-.6.1-.8.2-.2.1-.5.3-.6.4-.2.2-.3.4-.4.7-.1.2-.2.5-.2.8h4.2c-.2-.3-.3-.6-.4-.8zM93.5 37v-1.1c-.3.4-.6.8-1 1s-.9.3-1.4.3c-.5 0-.9-.1-1.2-.2-.3-.1-.6-.3-.8-.5-.2-.2-.3-.5-.4-.8-.1-.3-.1-.7-.1-1.1v-4.8h1.2v4.9c0 .4.1.8.4 1.1s.6.4 1.1.4c.4 0 .7-.1.9-.2.3-.1.5-.3.7-.5s.3-.4.4-.7c.1-.3.1-.6.1-.9v-4.1h1.2V37h-1.1zM102.2 36.5c-.5.4-1.2.6-2 .6-.6 0-1.1-.1-1.5-.3-.4-.2-.8-.4-1.1-.8-.3-.3-.5-.7-.7-1.2-.1-.5-.2-1-.2-1.5 0-.6.1-1.1.3-1.5.2-.5.4-.9.7-1.2.3-.3.7-.6 1.1-.8.4-.2.9-.3 1.4-.3.6 0 1.2.1 1.6.4.4.3.8.6 1 1 .3.4.4.9.5 1.3.1.5.1.9.1 1.4H98c0 .3 0 .6.1.9s.2.5.4.8c.2.2.4.4.7.5.3.1.6.2 1 .2.5 0 .9-.1 1.2-.4.3-.2.5-.6.6-1.1h1.2c-.1 1-.4 1.6-1 2zm-.3-4.6c-.1-.3-.3-.5-.4-.7-.2-.2-.4-.3-.6-.4-.2-.1-.5-.2-.8-.2-.3 0-.6.1-.8.2-.2.1-.5.3-.6.4-.2.2-.3.4-.4.7-.3.2-.3.5-.3.8h4.2c-.1-.3-.2-.6-.3-.8zM114.8 27c1 0 1.7.2 2.2.7s.8 1.1.8 1.9c0 .6-.1 1.1-.4 1.6-.3.5-.7.8-1.3.9.3.1.5.1.7.3.2.1.3.3.4.5.1.2.2.4.2.6s.1.5.1.7c0 .2 0 .5 0 .7 0 .3 0 .5.1.7 0 .2.1.5.2.7.1.2.2.4.3.6h-1.5c-.1-.1-.2-.2-.2-.4s-.1-.4-.1-.6c0-.2 0-.5 0-.7s0-.5-.1-.7c0-.2-.1-.5-.1-.7-.1-.2-.1-.4-.3-.6-.1-.2-.3-.3-.5-.4-.2-.1-.5-.1-.8-.1h-3.2V37H110V27h4.8zm.3 4.5c.3 0 .5-.1.7-.3s.4-.3.5-.5c.1-.2.2-.5.2-.9 0-.5-.1-.9-.4-1.2s-.7-.5-1.4-.5h-3.3v3.5h2.8c.3 0 .6 0 .9-.1zM125.3 36.5c-.5.4-1.2.6-2 .6-.6 0-1.1-.1-1.5-.3-.4-.2-.8-.4-1.1-.8-.3-.3-.5-.7-.7-1.2-.1-.5-.2-1-.2-1.5 0-.6.1-1.1.3-1.5.2-.5.4-.9.7-1.2.3-.3.7-.6 1.1-.8.4-.2.9-.3 1.4-.3.6 0 1.2.1 1.6.4.4.3.8.6 1 1 .3.4.4.9.5 1.3.1.5.1.9.1 1.4h-5.4c0 .3 0 .6.1.9s.2.5.4.8c.2.2.4.4.7.5.3.1.6.2 1 .2.5 0 .9-.1 1.2-.4.3-.2.5-.6.6-1.1h1.2c-.1 1-.4 1.6-1 2zm-.3-4.6c-.1-.3-.3-.5-.4-.7-.2-.2-.4-.3-.6-.4-.2-.1-.5-.2-.8-.2-.3 0-.6.1-.8.2-.2.1-.5.3-.6.4-.2.2-.3.4-.4.7-.1.2-.2.5-.2.8h4.2c-.2-.3-.3-.6-.4-.8zM133.9 39c-.5.6-1.4.9-2.5.9-.3 0-.7 0-1-.1s-.7-.2-1-.4-.5-.4-.7-.7c-.2-.3-.3-.6-.3-1h1.2c0 .2.1.4.2.5.1.1.3.3.5.4.2.1.4.2.6.2s.4.1.6.1c.4 0 .7-.1 1-.2.3-.1.5-.3.7-.6.2-.2.3-.5.4-.9s.1-.7.1-1.1v-.5c-.2.4-.5.8-.9 1-.4.2-.9.3-1.3.3-.5 0-1-.1-1.4-.3-.4-.2-.7-.5-1-.8-.3-.3-.5-.7-.6-1.2s-.2-.9-.2-1.4c0-.4.1-.9.2-1.3.1-.5.3-.9.6-1.2.3-.4.6-.7 1-.9.4-.2 1-.4 1.6-.4.5 0 .9.1 1.3.3s.7.5.9.9v-1h1.1v6.6c-.3 1.4-.6 2.2-1.1 2.8zm-1.6-3.2c.3-.2.5-.4.7-.6s.3-.6.4-.9c.1-.3.1-.7.1-1 0-.3 0-.6-.1-.9-.1-.3-.2-.6-.4-.8-.2-.2-.4-.4-.6-.6s-.6-.2-1-.2-.7.1-1 .2c-.3.1-.5.3-.7.6-.2.2-.3.5-.4.8-.1.3-.1.6-.1 1 0 .3 0 .7.1 1 .1.3.2.6.3.9.2.3.4.5.6.6.3.2.6.2 1 .2s.9-.2 1.1-.3zM142 37v-1.1c-.3.4-.6.8-1 1s-.9.3-1.4.3c-.5 0-.9-.1-1.2-.2-.3-.1-.6-.3-.8-.5-.2-.2-.3-.5-.4-.8-.1-.3-.1-.7-.1-1.1v-4.8h1.2v4.9c0 .4.1.8.4 1.1s.6.4 1.1.4c.4 0 .7-.1.9-.2.3-.1.5-.3.7-.5s.3-.4.4-.7c.1-.3.1-.6.1-.9v-4.1h1.2V37H142zM146.9 27v10h-1.2V27h1.2zM155.9 37c-.2.1-.5.2-.9.2-.3 0-.6-.1-.7-.3-.2-.2-.3-.5-.3-.8-.3.4-.7.7-1.1.8-.4.2-.9.3-1.4.3-.3 0-.6 0-.9-.1-.3-.1-.5-.2-.8-.4-.2-.2-.4-.4-.5-.6-.1-.3-.2-.6-.2-.9 0-.4.1-.7.2-1 .1-.3.3-.5.6-.6.2-.2.5-.3.8-.4.3-.1.6-.2.9-.2.3-.1.6-.1.9-.1.3 0 .6-.1.8-.1.2-.1.4-.1.5-.3s.2-.3.2-.5c0-.3 0-.5-.1-.6-.1-.2-.2-.3-.4-.4-.2-.1-.3-.1-.5-.2-.2 0-.4 0-.6 0-.5 0-.9.1-1.3.3s-.5.6-.5 1.1h-1.2c0-.4.1-.8.3-1.1.2-.3.4-.6.7-.7.3-.2.6-.3 1-.4s.7-.1 1.2-.1c.3 0 .7 0 1 .1.3 0 .6.1.9.3.3.1.5.3.6.6.2.3.2.6.2 1v3.7c0 .3 0 .5 0 .6 0 .1.1.2.3.2.1 0 .2 0 .4-.1v.7zm-2-3.7c-.1.1-.3.2-.6.2s-.5.1-.8.1-.5.1-.8.1c-.3 0-.5.1-.7.2-.2.1-.4.2-.5.4s-.2.4-.2.7c0 .2 0 .4.1.5.1.1.2.2.3.3s.3.1.4.2.3.1.5.1c.4 0 .7-.1 1-.2.3-.1.5-.2.7-.4.2-.2.3-.3.4-.5.1-.2.1-.4.1-.5v-1.2zM158.7 29.8v1.5c.3-.6.6-1 1.1-1.3.4-.3 1-.4 1.6-.4v1.3c-.5 0-.9.1-1.2.2-.3.1-.6.3-.8.6-.2.3-.4.6-.4.9s-.1.8-.1 1.2V37h-1.2v-7.2h1zM3.2 44.5v3.8h4v-3.8h2.2v10H7.2v-4.3h-4v4.3H1v-10h2.2zM14 52.8c.3.3.7.4 1.3.4.4 0 .7-.1 1-.3.3-.2.5-.4.5-.6h1.8c-.3.9-.7 1.5-1.3 1.9-.6.4-1.3.6-2.1.6-.6 0-1.1-.1-1.5-.3-.5-.2-.8-.4-1.2-.8s-.6-.7-.7-1.2c-.2-.5-.3-1-.3-1.5s.1-1 .3-1.5.4-.9.8-1.2c.3-.3.7-.6 1.2-.8.5-.2 1-.3 1.5-.3.6 0 1.2.1 1.6.4.5.2.8.6 1.1 1 .3.4.5.9.6 1.4.1.5.2 1.1.1 1.6h-5.2c0 .4.2.9.5 1.2zm2.2-3.9c-.2-.3-.6-.4-1.1-.4-.3 0-.6.1-.8.2s-.3.3-.5.4-.2.3-.3.5-.1.3-.1.5h3.2c0-.5-.2-.9-.4-1.2zM22.6 44.5v10h-2v-10h2zM26.7 54.5l-2.5-7.2h2.1l1.5 4.9 1.5-4.9h2l-2.5 7.2h-2.1zM35 52.8c.3.3.7.4 1.3.4.4 0 .7-.1 1-.3.3-.2.5-.4.5-.6h1.8c-.3.9-.7 1.5-1.3 1.9-.6.4-1.3.6-2.1.6-.6 0-1.1-.1-1.5-.3-.5-.2-.8-.4-1.2-.8s-.6-.7-.7-1.2c-.2-.5-.3-1-.3-1.5s.1-1 .3-1.5.4-.9.8-1.2c.3-.3.7-.6 1.2-.8.5-.2 1-.3 1.5-.3.6 0 1.2.1 1.6.4.5.2.8.6 1.1 1 .3.4.5.9.6 1.4.1.5.2 1.1.1 1.6h-5.2c0 .4.2.9.5 1.2zm2.2-3.9c-.2-.3-.6-.4-1.1-.4-.3 0-.6.1-.8.2s-.3.3-.4.4-.2.3-.3.5-.1.3-.1.5h3.2c-.1-.5-.2-.9-.5-1.2zM45.6 47.3v1.3h-1.5v3.6c0 .3.1.6.2.7.1.1.3.1.7.1.1 0 .2 0 .3 0 .1 0 .2 0 .3 0v1.5c-.2 0-.4 0-.6.1-.2 0-.4 0-.6 0-.3 0-.6 0-.9-.1s-.5-.1-.7-.2c-.2-.1-.4-.3-.5-.5-.1-.2-.2-.5-.2-.9v-4.3h-1.2v-1.3h1.2v-2.2h2v2.2h1.5zM47.3 46.1v-1.6h2v1.6h-2zm2 1.2v7.2h-2v-7.2h2zM55 48.6c-.3 0-.6.1-.8.2-.2.1-.4.3-.5.6-.1.2-.2.5-.3.8s-.1.5-.1.8c0 .3 0 .5.1.8.1.3.1.5.3.7s.3.4.5.5c.2.1.5.2.8.2.5 0 .8-.1 1.1-.4.3-.3.4-.6.5-1.1h1.9c-.1 1-.5 1.7-1.1 2.2-.6.5-1.4.8-2.4.8-.5 0-1-.1-1.5-.3-.5-.2-.8-.4-1.2-.8s-.6-.7-.7-1.2-.3-.9-.3-1.5.1-1.1.2-1.6c.2-.5.4-.9.7-1.2.3-.4.7-.6 1.2-.8.5-.2 1-.3 1.6-.3.4 0 .8.1 1.2.2.4.1.8.3 1.1.5.3.2.6.5.8.9.2.3.3.7.3 1.2h-1.9c-.2-.8-.7-1.2-1.5-1.2zM60.2 49.5c0-.5.1-.9.4-1.2.2-.3.5-.6.8-.7.3-.2.7-.3 1.1-.4.4-.1.8-.1 1.2-.1.4 0 .7 0 1.1.1.4.1.7.2 1 .3.3.1.6.4.8.6s.3.6.3 1.1V53c0 .3 0 .6.1.9 0 .3.1.5.2.7h-2c0-.1-.1-.2-.1-.3s0-.2 0-.4c-.3.3-.7.6-1.1.7-.4.1-.9.2-1.3.2-.3 0-.7 0-1-.1s-.6-.2-.8-.4-.4-.4-.5-.7c-.1-.3-.2-.6-.2-1s.1-.7.2-1c.1-.3.3-.5.6-.6.2-.2.5-.3.8-.4.3-.1.6-.1.9-.2s.6-.1.9-.1c.3 0 .5-.1.8-.1.2-.1.4-.1.5-.2.1-.1.2-.3.2-.5s0-.4-.1-.5c-.1-.1-.2-.2-.3-.3-.1-.1-.3-.1-.4-.1-.2 0-.3 0-.5 0-.4 0-.7.1-.9.3-.2.2-.4.4-.4.8h-2.3zm4.6 1.5c-.1.1-.2.1-.3.2s-.3.1-.4.1c-.1 0-.3.1-.5.1s-.3 0-.5.1c-.1 0-.3.1-.4.1-.1 0-.3.1-.4.2-.1.1-.2.2-.3.3-.1.1-.1.3-.1.5s0 .3.1.4c.1.1.2.2.3.3.1.1.2.1.4.1.1 0 .3 0 .5 0 .4 0 .7-.1.9-.2.2-.1.4-.3.5-.5.1-.2.2-.4.2-.6 0-.2 0-.3 0-.4V51zM76 44.5l4.2 6.7v-6.7h2.1v10H80l-4.2-6.7v6.7h-2.1v-10H76zM86.8 52.8c.3.3.7.4 1.3.4.4 0 .7-.1 1-.3.3-.2.5-.4.5-.6h1.8c-.3.9-.7 1.5-1.3 1.9-.6.4-1.3.6-2.1.6-.6 0-1.1-.1-1.5-.3-.5-.2-.8-.4-1.2-.8s-.6-.7-.7-1.2c-.2-.5-.3-1-.3-1.5s.1-1 .3-1.5.4-.9.8-1.2c.3-.3.7-.6 1.2-.8.5-.2 1-.3 1.5-.3.6 0 1.2.1 1.6.4.5.2.8.6 1.1 1 .3.4.5.9.6 1.4.1.5.2 1.1.1 1.6h-5.2c0 .4.2.9.5 1.2zm2.2-3.9c-.2-.3-.6-.4-1.1-.4-.3 0-.6.1-.8.2s-.4.2-.5.4-.2.3-.3.5-.1.3-.1.5h3.2c0-.5-.1-.9-.4-1.2zM98.3 54.5v-1c-.3.4-.6.7-1 .9s-.8.3-1.2.3c-.5 0-1-.1-1.3-.2-.3-.1-.6-.3-.8-.6-.2-.3-.3-.6-.4-.9-.1-.4-.1-.8-.1-1.2v-4.5h2v4.1c0 .6.1 1 .3 1.3s.5.4 1 .4.9-.2 1.2-.5.4-.9.4-1.6v-3.8h2v7.2h-2.1zM104.5 52.8c.3.3.7.4 1.3.4.4 0 .7-.1 1-.3.3-.2.5-.4.5-.6h1.8c-.3.9-.7 1.5-1.3 1.9-.6.4-1.3.6-2.1.6-.6 0-1.1-.1-1.5-.3-.5-.2-.8-.4-1.2-.8s-.6-.7-.7-1.2c-.2-.5-.3-1-.3-1.5s.1-1 .3-1.5.4-.9.8-1.2c.3-.3.7-.6 1.2-.8.5-.2 1-.3 1.5-.3.6 0 1.2.1 1.6.4.5.2.8.6 1.1 1 .3.4.5.9.6 1.4.1.5.2 1.1.1 1.6H104c.1.4.2.9.5 1.2zm2.3-3.9c-.2-.3-.6-.4-1.1-.4-.3 0-.6.1-.8.2s-.4.2-.5.4-.2.3-.3.5-.1.3-.1.5h3.2c0-.5-.2-.9-.4-1.2zM120.6 44.5c.5 0 .9 0 1.3.1s.7.2 1 .4c.3.2.5.4.7.8.2.3.2.7.2 1.2s-.1.9-.3 1.3c-.2.3-.6.6-1 .8.6.2 1.1.5 1.4.9s.5 1 .5 1.6c0 .5-.1.9-.3 1.3-.2.4-.5.7-.8.9-.3.2-.7.4-1.1.5-.4.1-.9.2-1.3.2h-4.8v-10h4.5zm-.2 4c.4 0 .7-.1 1-.3.3-.2.4-.5.4-.9 0-.2 0-.4-.1-.6s-.2-.3-.3-.4-.3-.1-.5-.2-.4 0-.6 0h-2.1v2.3h2.2zm.1 4.3c.2 0 .4 0 .6-.1.2 0 .4-.1.5-.2s.3-.2.4-.4.1-.4.1-.6c0-.5-.1-.9-.4-1.1-.3-.2-.7-.3-1.1-.3h-2.4v2.7h2.3zM126.3 49.3c.2-.5.4-.9.8-1.2.3-.3.7-.6 1.2-.8.5-.2 1-.3 1.5-.3s1.1.1 1.5.3c.5.2.9.4 1.2.8.3.3.6.7.8 1.2s.3 1 .3 1.6-.1 1.1-.3 1.6-.4.9-.8 1.2c-.3.3-.7.6-1.2.8s-1 .3-1.5.3-1.1-.1-1.5-.3c-.5-.2-.8-.4-1.2-.8-.3-.3-.6-.7-.8-1.2s-.3-1-.3-1.6.2-1.1.3-1.6zm1.8 2.4c.1.3.2.5.3.7.1.2.3.4.5.5.2.1.5.2.8.2s.6-.1.8-.2c.2-.1.4-.3.5-.5s.2-.5.3-.7c.1-.3.1-.6.1-.8 0-.3 0-.6-.1-.9-.1-.3-.2-.5-.3-.7-.1-.2-.3-.4-.5-.5-.2-.1-.5-.2-.8-.2s-.6.1-.8.2c-.2.1-.4.3-.5.5-.1.2-.2.5-.3.7-.1.3-.1.6-.1.9.1.3.1.6.1.8zM137.6 44.5v10h-2v-10h2zM145 53.6c-.2.4-.5.7-.9.8-.4.2-.8.3-1.3.3s-1-.1-1.4-.3-.7-.5-1-.9-.5-.8-.6-1.2c-.1-.5-.2-1-.2-1.5s.1-1 .2-1.4.3-.9.6-1.2c.3-.3.6-.6 1-.8s.9-.3 1.4-.3c.4 0 .8.1 1.2.3.4.2.7.5.9.8v-3.6h2v10H145v-1zm-.1-3.6c-.1-.3-.2-.5-.3-.7s-.3-.4-.5-.5c-.2-.1-.5-.2-.8-.2s-.6.1-.8.2c-.2.1-.4.3-.5.5-.1.2-.2.5-.3.7s-.1.6-.1.9c0 .3 0 .6.1.8.1.3.2.5.3.7.1.2.3.4.5.5s.5.2.8.2c.3 0 .6-.1.8-.2.2-.1.4-.3.5-.5.1-.2.2-.5.3-.7s.1-.6.1-.9c0-.2 0-.5-.1-.8z" class="st0"/></svg>