<svg xmlns="http://www.w3.org/2000/svg" viewBox="0 0 841 32.7" enable-background="new 0 0 841 32.7"><style type="text/css">.st0{opacity:0.2;} .st1{fill:#A8ADB9;}</style><g class="st0"><path d="M0 4.8V0h21.1v4.8h-7.7v21H7.7v-21H0zM30.4 0v9.7h.1c.6-1.1 1.5-1.9 2.5-2.4s2-.7 3-.7c1.4 0 2.5.2 3.4.6.9.4 1.6.9 2.1 1.5s.9 1.5 1.1 2.4c.2.9.3 2 .3 3.1v11.4h-5.1V15.2c0-1.5-.2-2.7-.7-3.4-.5-.8-1.3-1.1-2.6-1.1-1.4 0-2.4.4-3 1.2-.6.8-.9 2.2-.9 4.1v9.8h-5.1V0h4.9zM53.9 21.2c.8.7 1.9 1.1 3.3 1.1 1 0 1.9-.3 2.7-.8.7-.5 1.2-1.1 1.4-1.6h4.5c-.7 2.2-1.8 3.8-3.3 4.8-1.5 1-3.3 1.4-5.4 1.4-1.5 0-2.8-.2-4-.7-1.2-.5-2.2-1.1-3-2-.8-.9-1.4-1.9-1.9-3.1-.4-1.2-.7-2.5-.7-4 0-1.4.2-2.7.7-3.9.5-1.2 1.1-2.2 1.9-3.1.8-.9 1.8-1.6 3-2.1s2.5-.8 3.9-.8c1.6 0 3 .3 4.1.9 1.2.6 2.1 1.4 2.9 2.5.8 1 1.3 2.2 1.6 3.5.3 1.3.5 2.7.4 4.1H52.6c.1 1.9.5 3.1 1.3 3.8zm5.8-9.8c-.6-.7-1.5-1-2.8-1-.8 0-1.5.1-2 .4-.5.3-1 .6-1.3 1-.3.4-.6.8-.7 1.3-.1.5-.2.9-.2 1.2H61c-.3-1.2-.7-2.2-1.3-2.9zM95.7 32.2v-8.9h-.1c-.6 1-1.4 1.7-2.5 2.2-1.1.4-2.2.6-3.3.6-.9 0-1.8-.2-2.7-.5-.9-.3-1.8-.9-2.5-1.6-.8-.8-1.4-1.8-1.9-3s-.8-2.8-.8-4.6c0-1.3.2-2.5.5-3.7.3-1.2.9-2.3 1.5-3.2.7-.9 1.6-1.7 2.6-2.2 1-.6 2.3-.8 3.7-.8 1.2 0 2.2.2 3.3.7 1 .4 1.8 1.2 2.4 2.2h.1V7.1h4.9v25.1h-5.2zm-8.5-13.6c.1.7.4 1.3.7 1.9.3.6.8 1 1.4 1.4.6.3 1.3.5 2.1.5s1.5-.2 2.1-.5 1-.8 1.4-1.3c.3-.5.6-1.2.8-1.9.2-.7.2-1.4.2-2.2 0-.7-.1-1.4-.2-2.2-.2-.7-.4-1.4-.7-1.9-.3-.6-.8-1-1.4-1.4-.6-.4-1.2-.5-2-.5s-1.5.2-2.1.5c-.6.3-1 .8-1.4 1.3-.4.6-.6 1.2-.8 1.9-.2.7-.2 1.4-.2 2.2-.1.8 0 1.5.1 2.2zM119.1 25.7v-2.6h-.1c-.6 1.1-1.5 1.9-2.5 2.3-1 .5-2.1.7-3.2.7-1.4 0-2.5-.2-3.4-.5-.9-.4-1.6-.9-2.1-1.5-.5-.7-.9-1.5-1.1-2.4-.2-.9-.3-2-.3-3.1V7.1h5.1v10.5c0 1.5.2 2.7.7 3.4.5.8 1.3 1.1 2.6 1.1 1.4 0 2.4-.4 3-1.2.6-.8.9-2.2.9-4.1V7.1h5.1v18.6h-4.7zM129.8 4.2V0h5.1v4.2h-5.1zm5.1 2.9v18.6h-5.1V7.1h5.1zM149.6 10.4c-.8 0-1.5.2-2.1.6-.6.4-1 .9-1.4 1.4-.3.6-.6 1.2-.7 1.9s-.2 1.4-.2 2.1c0 .7.1 1.4.2 2.1.1.7.4 1.3.7 1.9.3.6.8 1 1.3 1.4.6.4 1.2.5 2 .5 1.2 0 2.2-.3 2.8-1 .7-.7 1.1-1.6 1.2-2.8h4.9c-.3 2.5-1.3 4.4-2.9 5.7s-3.6 1.9-6.1 1.9c-1.4 0-2.7-.2-3.8-.7-1.2-.5-2.2-1.1-3-2-.8-.8-1.5-1.8-1.9-3-.5-1.2-.7-2.4-.7-3.8s.2-2.8.6-4c.4-1.2 1-2.3 1.9-3.2.8-.9 1.8-1.6 3-2.1s2.5-.8 4-.8c1.1 0 2.2.1 3.2.4 1 .3 1.9.7 2.7 1.3.8.6 1.5 1.3 2 2.2s.8 1.9.9 3.1h-5c-.1-2-1.4-3.1-3.6-3.1zM168.8 0v13.8l6.4-6.7h6l-7 6.8 7.8 11.8h-6.2l-5.1-8.3-2 1.9v6.4h-5.1V0h5.2zM202.6 0v9.4h.1c.6-1 1.5-1.7 2.5-2.1 1.1-.4 2.2-.7 3.3-.7.9 0 1.9.2 2.8.6.9.4 1.7 1 2.5 1.8.7.8 1.3 1.8 1.8 3s.7 2.7.7 4.4c0 1.7-.2 3.2-.7 4.4-.5 1.2-1.1 2.2-1.8 3-.7.8-1.6 1.4-2.5 1.8-.9.4-1.8.6-2.8.6-1.4 0-2.6-.2-3.7-.6-1.1-.4-1.9-1.2-2.4-2.2h-.1v2.4h-4.9V0h5.2zm8.2 14.1c-.2-.7-.4-1.4-.8-1.9-.4-.6-.8-1-1.4-1.3-.5-.3-1.2-.5-2-.5-.7 0-1.4.2-1.9.5-.6.3-1 .8-1.4 1.3-.4.6-.6 1.2-.8 1.9-.2.7-.3 1.5-.3 2.3 0 .8.1 1.5.3 2.2.2.7.4 1.4.8 1.9.4.6.8 1 1.4 1.3.6.3 1.2.5 1.9.5.8 0 1.4-.2 2-.5s1-.8 1.4-1.3c.4-.6.6-1.2.8-1.9.2-.7.3-1.5.3-2.2 0-.8-.1-1.5-.3-2.3zM226.1 7.1v3.5h.1c.2-.6.6-1.1 1-1.6s.9-.9 1.4-1.3c.5-.3 1.1-.6 1.7-.8.6-.2 1.2-.3 1.9-.3.3 0 .7.1 1.1.2v4.8c-.2 0-.5-.1-.9-.1-.3 0-.7-.1-1-.1-.9 0-1.7.2-2.4.5-.6.3-1.2.7-1.6 1.3s-.7 1.2-.8 1.9c-.2.7-.3 1.5-.3 2.3v8.4h-5.1V7.1h4.9zM236.5 12.4c.5-1.2 1.1-2.2 1.9-3.1.8-.9 1.8-1.5 3-2s2.5-.7 4-.7 2.8.2 4 .7c1.2.5 2.2 1.1 3 2 .8.9 1.5 1.9 1.9 3.1.5 1.2.7 2.6.7 4 0 1.5-.2 2.8-.7 4-.5 1.2-1.1 2.2-1.9 3.1-.8.9-1.9 1.5-3 2s-2.5.7-4 .7-2.8-.2-4-.7c-1.2-.5-2.2-1.1-3-2-.8-.9-1.5-1.9-1.9-3.1s-.7-2.5-.7-4 .3-2.8.7-4zm4.7 6.2c.1.7.4 1.3.7 1.9.3.6.8 1 1.4 1.4.6.3 1.3.5 2.2.5.9 0 1.6-.2 2.2-.5.6-.3 1.1-.8 1.4-1.4.3-.6.6-1.2.7-1.9.1-.7.2-1.4.2-2.2 0-.7-.1-1.5-.2-2.2-.1-.7-.4-1.4-.7-1.9-.3-.6-.8-1-1.4-1.4-.6-.3-1.3-.5-2.2-.5-.9 0-1.6.2-2.2.5-.6.3-1 .8-1.4 1.4-.3.6-.6 1.2-.7 1.9-.1.7-.2 1.5-.2 2.2-.1.8 0 1.5.2 2.2zM276.2 25.7l-3.3-12.5h-.1l-3.2 12.5h-5.3l-5.9-18.6h5.4l3.4 12.6h.1l3.1-12.6h5l3.2 12.6h.1l3.4-12.6h5.3l-5.9 18.6h-5.3zM296.2 7.1v2.6h.1c.6-1.1 1.5-1.9 2.5-2.4s2.1-.7 3.2-.7c1.4 0 2.5.2 3.4.6.9.4 1.6.9 2.1 1.5s.9 1.5 1.1 2.4c.2.9.3 2 .3 3.1v11.4h-5.1V15.2c0-1.5-.2-2.7-.7-3.4-.5-.8-1.3-1.1-2.6-1.1-1.4 0-2.4.4-3 1.2-.6.8-.9 2.2-.9 4.1v9.8h-5.1V7.1h4.7zM324.3 10.5V7.1h3.1V5.7c0-1.7.5-3 1.5-4.1 1-1.1 2.6-1.6 4.7-1.6.5 0 .9 0 1.4.1.5 0 .9.1 1.3.1V4c-.6-.1-1.2-.1-1.9-.1s-1.2.2-1.5.5c-.3.3-.5.9-.5 1.6v1.1h3.5v3.4h-3.5v15.2h-5.1V10.5h-3zM340.2 12.4c.5-1.2 1.1-2.2 1.9-3.1.8-.9 1.8-1.5 3-2s2.5-.7 4-.7 2.8.2 4 .7c1.2.5 2.2 1.1 3 2 .8.9 1.5 1.9 1.9 3.1.5 1.2.7 2.6.7 4 0 1.5-.2 2.8-.7 4-.5 1.2-1.1 2.2-1.9 3.1-.8.9-1.9 1.5-3 2s-2.5.7-4 .7-2.8-.2-4-.7-2.2-1.1-3-2c-.8-.9-1.5-1.9-1.9-3.1s-.7-2.5-.7-4 .2-2.8.7-4zm4.6 6.2c.1.7.4 1.3.7 1.9.3.6.8 1 1.4 1.4.6.3 1.3.5 2.2.5.9 0 1.6-.2 2.2-.5.6-.3 1.1-.8 1.4-1.4.3-.6.6-1.2.7-1.9.1-.7.2-1.4.2-2.2 0-.7-.1-1.5-.2-2.2-.1-.7-.4-1.4-.7-1.9-.3-.6-.8-1-1.4-1.4-.6-.3-1.3-.5-2.2-.5-.9 0-1.6.2-2.2.5-.6.3-1 .8-1.4 1.4-.3.6-.6 1.2-.7 1.9-.1.7-.2 1.5-.2 2.2 0 .8.1 1.5.2 2.2zM362.5 7.1h5.8l3.3 4.9 3.2-4.9h5.7l-6.1 8.7 6.9 9.9h-5.8l-3.9-5.9-3.9 5.9H362l6.7-9.8-6.2-8.8zM395.3 28c.5 0 1-.1 1.4-.3.4-.2.6-.7.6-1.4V7.1h5.1v19.5c0 1-.1 1.8-.3 2.5-.2.7-.6 1.3-1 1.7-.5.5-1.2.8-2 1-.8.2-1.9.3-3.2.3-.6 0-1.1 0-1.6-.1v-4.2c.2.2.5.2 1 .2zm2-23.8V0h5.1v4.2h-5.1zM421.2 25.7v-2.6h-.1c-.6 1.1-1.5 1.9-2.5 2.3-1 .5-2.1.7-3.2.7-1.4 0-2.5-.2-3.4-.5-.9-.4-1.6-.9-2.1-1.5-.5-.7-.9-1.5-1.1-2.4-.2-.9-.3-2-.3-3.1V7.1h5.1v10.5c0 1.5.2 2.7.7 3.4.5.8 1.3 1.1 2.6 1.1 1.4 0 2.4-.4 3-1.2.6-.8.9-2.2.9-4.1V7.1h5.1v18.6h-4.7zM436.7 7.1v2.5h.1c.7-1 1.5-1.7 2.4-2.2.9-.5 2-.8 3.3-.8 1.2 0 2.2.2 3.2.7 1 .5 1.7 1.3 2.2 2.4.6-.8 1.3-1.5 2.2-2.2.9-.6 2.1-.9 3.4-.9 1 0 1.9.1 2.7.4.8.2 1.6.6 2.2 1.2.6.5 1.1 1.2 1.4 2.1.3.9.5 1.9.5 3.1v12.5h-5.1V15.2c0-.6 0-1.2-.1-1.8 0-.6-.2-1-.4-1.4-.2-.4-.5-.7-1-1-.4-.2-1-.4-1.7-.4s-1.3.1-1.7.4c-.4.3-.8.6-1 1.1-.3.4-.4.9-.5 1.5-.1.6-.1 1.1-.1 1.7v10.4h-5.1V15.3c0-.6 0-1.1 0-1.6s-.1-1-.3-1.5-.5-.8-.9-1.1-1-.4-1.9-.4c-.2 0-.6.1-1 .2s-.8.3-1.2.6c-.4.3-.7.7-1 1.3-.3.6-.4 1.3-.4 2.2v10.8h-5.1V7.1h4.9zM471 7.1v2.4h.1c.6-1 1.4-1.7 2.4-2.2 1-.5 2-.7 3.2-.7 1.5 0 2.7.3 3.8.8 1.1.6 1.9 1.3 2.6 2.2.7.9 1.2 2 1.5 3.2s.5 2.5.5 3.8c0 1.2-.2 2.4-.5 3.6-.3 1.2-.8 2.2-1.5 3.1-.7.9-1.5 1.6-2.6 2.1-1 .5-2.2.8-3.6.8-1.2 0-2.2-.2-3.2-.7-1-.5-1.8-1.2-2.4-2.1h-.1v8.8h-5.1V7.1h4.9zm6.7 14.8c.6-.3 1-.8 1.4-1.3.3-.5.6-1.2.7-1.9.1-.7.2-1.5.2-2.2 0-.7-.1-1.5-.2-2.2-.2-.7-.4-1.4-.8-1.9-.4-.6-.8-1-1.4-1.4-.6-.3-1.3-.5-2.1-.5s-1.5.2-2.1.5c-.6.3-1 .8-1.4 1.4-.3.6-.6 1.2-.7 1.9-.1.7-.2 1.5-.2 2.2 0 .7.1 1.5.2 2.2.2.7.4 1.4.8 1.9.3.5.8 1 1.4 1.3.6.3 1.3.5 2.1.5s1.5-.2 2.1-.5zM494.3 21.1c.2.4.5.7.9 1s.8.4 1.2.6c.5.1 1 .2 1.5.2.4 0 .7 0 1.1-.1.4-.1.8-.2 1.1-.4s.6-.4.8-.7c.2-.3.3-.7.3-1.1 0-.8-.5-1.3-1.5-1.7-1-.4-2.4-.8-4.3-1.2-.7-.2-1.5-.4-2.2-.6-.7-.2-1.3-.5-1.9-.9-.6-.4-1-.8-1.3-1.4-.3-.6-.5-1.3-.5-2.1 0-1.2.2-2.2.7-3 .5-.8 1.1-1.4 1.9-1.8.8-.4 1.6-.8 2.6-.9 1-.2 1.9-.3 3-.3s2 .1 2.9.3c.9.2 1.8.5 2.5 1s1.4 1.1 1.9 1.8c.5.8.8 1.7.9 2.9H501c-.1-1-.4-1.6-1.1-2-.7-.3-1.5-.5-2.4-.5-.3 0-.6 0-.9.1-.3 0-.6.1-.9.2-.3.1-.5.3-.7.5-.2.2-.3.5-.3.9 0 .5.2.8.5 1.1s.8.5 1.3.7c.5.2 1.2.3 1.9.5s1.4.3 2.1.5c.7.2 1.5.4 2.2.6.7.2 1.3.6 1.9 1 .6.4 1 .9 1.3 1.5.3.6.5 1.3.5 2.2 0 1.2-.2 2.2-.7 3.1s-1.1 1.5-1.9 2-1.7.9-2.7 1.1c-1 .2-2.1.3-3.1.3-1.1 0-2.1-.1-3.2-.3-1-.2-2-.6-2.8-1.1-.8-.5-1.5-1.2-2-2s-.8-1.9-.8-3.1h4.9c-.2.2-.1.7.2 1.1zM523 12.4c.5-1.2 1.1-2.2 1.9-3.1.8-.9 1.8-1.5 3-2s2.5-.7 4-.7 2.8.2 4 .7c1.2.5 2.2 1.1 3 2 .8.9 1.5 1.9 1.9 3.1.5 1.2.7 2.6.7 4 0 1.5-.2 2.8-.7 4-.5 1.2-1.1 2.2-1.9 3.1-.8.9-1.9 1.5-3 2s-2.5.7-4 .7-2.8-.2-4-.7-2.2-1.1-3-2c-.8-.9-1.5-1.9-1.9-3.1s-.7-2.5-.7-4 .2-2.8.7-4zm4.6 6.2c.1.7.4 1.3.7 1.9.3.6.8 1 1.4 1.4.6.3 1.3.5 2.2.5.9 0 1.6-.2 2.2-.5.6-.3 1.1-.8 1.4-1.4.3-.6.6-1.2.7-1.9.1-.7.2-1.4.2-2.2 0-.7-.1-1.5-.2-2.2-.1-.7-.4-1.4-.7-1.9-.3-.6-.8-1-1.4-1.4-.6-.3-1.3-.5-2.2-.5-.9 0-1.6.2-2.2.5-.6.3-1 .8-1.4 1.4-.3.6-.6 1.2-.7 1.9-.1.7-.2 1.5-.2 2.2 0 .8.1 1.5.2 2.2zM551.3 25.7l-6.4-18.6h5.4l3.9 12.7h.1l3.9-12.7h5.1L557 25.7h-5.7zM572.7 21.2c.8.7 1.9 1.1 3.3 1.1 1 0 1.9-.3 2.7-.8.7-.5 1.2-1.1 1.4-1.6h4.5c-.7 2.2-1.8 3.8-3.3 4.8-1.5 1-3.3 1.4-5.4 1.4-1.5 0-2.8-.2-4-.7-1.2-.5-2.2-1.1-3-2-.8-.9-1.4-1.9-1.9-3.1-.4-1.2-.7-2.5-.7-4 0-1.4.2-2.7.7-3.9s1.1-2.2 1.9-3.1c.8-.9 1.8-1.6 3-2.1s2.5-.8 3.9-.8c1.6 0 3 .3 4.1.9 1.2.6 2.1 1.4 2.9 2.5.8 1 1.3 2.2 1.6 3.5.3 1.3.5 2.7.4 4.1h-13.4c.1 1.9.5 3.1 1.3 3.8zm5.8-9.8c-.6-.7-1.5-1-2.8-1-.8 0-1.5.1-2 .4-.5.3-1 .6-1.3 1-.3.4-.6.8-.7 1.3-.1.5-.2.9-.2 1.2h8.3c-.3-1.2-.7-2.2-1.3-2.9zM594.5 7.1v3.5h.1c.2-.6.6-1.1 1-1.6s.9-.9 1.4-1.3c.5-.3 1.1-.6 1.7-.8.6-.2 1.2-.3 1.9-.3.3 0 .7.1 1.1.2v4.8c-.2 0-.5-.1-.9-.1-.3 0-.7-.1-1-.1-.9 0-1.7.2-2.4.5-.6.3-1.2.7-1.6 1.3-.4.5-.7 1.2-.8 1.9s-.3 1.5-.3 2.3v8.4h-5.1V7.1h4.9zM627.5 7.1v3.4h-3.7v9.2c0 .9.1 1.4.4 1.7.3.3.9.4 1.7.4.3 0 .6 0 .8 0 .3 0 .5-.1.8-.1v4c-.4.1-.9.1-1.4.1-.5 0-1 0-1.5 0-.8 0-1.5-.1-2.2-.2s-1.3-.3-1.9-.6-1-.8-1.3-1.3c-.3-.6-.5-1.3-.5-2.3v-11h-3.1V7.1h3.1V1.5h5.1v5.6h3.7zM636.9 0v9.7h.1c.6-1.1 1.5-1.9 2.5-2.4s2-.7 3-.7c1.4 0 2.5.2 3.4.6.9.4 1.6.9 2.1 1.5s.9 1.5 1.1 2.4c.2.9.3 2 .3 3.1v11.4h-5.1V15.2c0-1.5-.2-2.7-.7-3.4-.5-.8-1.3-1.1-2.6-1.1-1.4 0-2.4.4-3 1.2-.6.8-.9 2.2-.9 4.1v9.8H632V0h4.9zM660.4 21.2c.8.7 1.9 1.1 3.3 1.1 1 0 1.9-.3 2.7-.8.7-.5 1.2-1.1 1.4-1.6h4.5c-.7 2.2-1.8 3.8-3.3 4.8-1.5 1-3.3 1.4-5.4 1.4-1.5 0-2.8-.2-4-.7-1.2-.5-2.2-1.1-3-2-.8-.9-1.4-1.9-1.9-3.1-.4-1.2-.7-2.5-.7-4 0-1.4.2-2.7.7-3.9s1.1-2.2 1.9-3.1c.8-.9 1.8-1.6 3-2.1s2.5-.8 3.9-.8c1.6 0 3 .3 4.1.9 1.2.6 2.1 1.4 2.9 2.5.8 1 1.3 2.2 1.6 3.5.3 1.3.5 2.7.4 4.1h-13.4c.1 1.9.5 3.1 1.3 3.8zm5.8-9.8c-.6-.7-1.5-1-2.8-1-.8 0-1.5.1-2 .4-.5.3-1 .6-1.3 1-.3.4-.6.8-.7 1.3-.1.5-.2.9-.2 1.2h8.3c-.3-1.2-.7-2.2-1.3-2.9zM694.4 0v25.7h-5.1V0h5.1zM700 12.8c.1-1.2.4-2.2.9-3 .5-.8 1.2-1.4 2-1.9s1.7-.8 2.8-1c1-.2 2-.3 3.1-.3.9 0 1.9.1 2.8.2 1 .1 1.8.4 2.6.8s1.4.9 1.9 1.6c.5.7.8 1.6.8 2.7v9.7c0 .8 0 1.6.1 2.4.1.8.3 1.3.5 1.7h-5.2c-.1-.3-.2-.6-.2-.9-.1-.3-.1-.6-.1-.9-.8.8-1.8 1.4-2.9 1.8-1.1.3-2.2.5-3.4.5-.9 0-1.7-.1-2.5-.3-.8-.2-1.4-.6-2-1s-1-1-1.4-1.7c-.3-.7-.5-1.5-.5-2.5 0-1.1.2-1.9.6-2.6s.9-1.2 1.4-1.6c.6-.4 1.3-.7 2-.9.8-.2 1.5-.4 2.3-.5.8-.1 1.5-.2 2.3-.3.7-.1 1.4-.2 2-.3s1-.4 1.4-.6c.3-.3.5-.7.5-1.2 0-.6-.1-1-.3-1.3-.2-.3-.4-.6-.7-.8-.3-.2-.6-.3-1-.4-.4-.1-.8-.1-1.3-.1-1 0-1.8.2-2.4.6-.6.4-.9 1.2-1 2.2H700zm11.9 3.8c-.2.2-.5.3-.8.4-.3.1-.7.2-1 .3-.4.1-.8.1-1.2.2-.4 0-.8.1-1.2.2-.4.1-.8.2-1.1.3-.4.1-.7.3-1 .5-.3.2-.5.5-.7.8-.2.3-.3.7-.3 1.2s.1.8.3 1.2c.2.3.4.6.7.7.3.2.6.3 1 .4.4.1.8.1 1.2.1 1 0 1.8-.2 2.3-.5.6-.3 1-.7 1.2-1.2.3-.5.4-.9.5-1.4.1-.5.1-.9.1-1.2v-2zM731.3 10.9h-9V7.1H738V11l-9.7 10.9h10.4v3.9h-17.1v-3.9l9.7-11zM750.1 31.2c-1 .6-2.4 1-4.1 1-.5 0-1 0-1.6-.1-.5 0-1-.1-1.6-.1v-4.2c.5 0 1 .1 1.5.1s1 .1 1.5 0c.7-.1 1.2-.3 1.5-.8.3-.5.5-1 .5-1.5 0-.4-.1-.8-.2-1.2l-6.5-17.5h5.4l4.2 12.7h.1l4.1-12.7h5.3L752.4 28c-.6 1.5-1.3 2.6-2.3 3.2zM788.7 23.3c-.6 1-1.4 1.7-2.4 2.2-1 .4-2.1.7-3.3.7-1.4 0-2.6-.3-3.7-.8s-1.9-1.3-2.6-2.2c-.7-.9-1.2-2-1.5-3.2-.3-1.2-.5-2.4-.5-3.7 0-1.2.2-2.5.5-3.6.3-1.2.9-2.2 1.5-3.1.7-.9 1.5-1.6 2.6-2.1 1-.5 2.2-.8 3.6-.8 1.1 0 2.2.2 3.1.7 1 .5 1.8 1.2 2.4 2.1h.1V0h5.1v25.7h-4.9v-2.4zm-.2-9.2c-.1-.7-.4-1.3-.7-1.9-.3-.5-.8-1-1.4-1.3-.6-.3-1.2-.5-2.1-.5s-1.5.2-2.1.5c-.6.3-1 .8-1.4 1.3-.3.6-.6 1.2-.8 1.9-.2.7-.2 1.4-.2 2.2 0 .7.1 1.4.3 2.2.2.7.4 1.4.8 1.9s.8 1 1.4 1.4c.6.3 1.2.5 2 .5s1.5-.2 2.1-.5c.6-.3 1-.8 1.3-1.4.3-.6.6-1.2.7-1.9.1-.7.2-1.5.2-2.2s0-1.5-.1-2.2zM799.4 12.4c.5-1.2 1.1-2.2 1.9-3.1.8-.9 1.8-1.5 3-2s2.5-.7 4-.7 2.8.2 4 .7c1.2.5 2.2 1.1 3 2 .8.9 1.5 1.9 1.9 3.1.5 1.2.7 2.6.7 4 0 1.5-.2 2.8-.7 4-.5 1.2-1.1 2.2-1.9 3.1-.8.9-1.9 1.5-3 2s-2.5.7-4 .7-2.8-.2-4-.7-2.2-1.1-3-2c-.8-.9-1.5-1.9-1.9-3.1s-.7-2.5-.7-4 .3-2.8.7-4zm4.7 6.2c.1.7.4 1.3.7 1.9.3.6.8 1 1.4 1.4.6.3 1.3.5 2.2.5.9 0 1.6-.2 2.2-.5.6-.3 1.1-.8 1.4-1.4.3-.6.6-1.2.7-1.9.1-.7.2-1.4.2-2.2 0-.7-.1-1.5-.2-2.2-.1-.7-.4-1.4-.7-1.9-.3-.6-.8-1-1.4-1.4-.6-.3-1.3-.5-2.2-.5-.9 0-1.6.2-2.2.5-.6.3-1 .8-1.4 1.4-.3.6-.6 1.2-.7 1.9-.1.7-.2 1.5-.2 2.2-.1.8 0 1.5.2 2.2zM840.7 27.1c-.2 1-.6 1.9-1.3 2.7-.7.8-1.6 1.5-2.9 2.1-1.3.6-3 .9-5.1.9-.9 0-1.8-.1-2.8-.3-.9-.2-1.8-.6-2.6-1.1-.8-.5-1.4-1.1-1.9-1.9-.5-.8-.8-1.7-.9-2.7h5.1c.2 1 .7 1.6 1.4 2 .7.4 1.5.6 2.4.6 1.4 0 2.5-.4 3.2-1.3.7-.9 1-2 1-3.3v-2.4h-.1c-.6 1-1.3 1.7-2.4 2.2-1 .5-2.1.7-3.2.7-1.4 0-2.6-.2-3.6-.7-1-.5-1.8-1.2-2.5-2-.6-.9-1.1-1.8-1.4-3-.3-1.1-.5-2.3-.5-3.6 0-1.2.2-2.4.5-3.5s.9-2.1 1.5-3c.7-.9 1.5-1.5 2.5-2s2.1-.8 3.4-.8c1.2 0 2.3.2 3.2.7.9.5 1.7 1.2 2.3 2.3h.1V7.1h4.9v17.4c0 .8-.1 1.6-.3 2.6zm-7-6.2c.6-.3 1-.7 1.4-1.2.4-.5.6-1 .8-1.6.2-.6.3-1.3.3-1.9 0-.8-.1-1.5-.2-2.2-.1-.7-.4-1.3-.7-1.8-.3-.5-.8-.9-1.3-1.3-.6-.3-1.2-.5-2.1-.5-.7 0-1.3.1-1.9.4-.5.3-.9.7-1.3 1.2-.3.5-.6 1.1-.8 1.7-.2.6-.2 1.3-.2 2s.1 1.3.2 2 .4 1.3.7 1.8c.3.5.7 1 1.3 1.3.5.3 1.2.5 2 .5.6 0 1.2-.1 1.8-.4z" class="st1"/></g></svg>