<?xml version="1.0" encoding="utf-8"?>
<!-- Generator: Adobe Illustrator 18.0.0, SVG Export Plug-In . SVG Version: 6.00 Build 0)  -->
<!DOCTYPE svg PUBLIC "-//W3C//DTD SVG 1.1//EN" "http://www.w3.org/Graphics/SVG/1.1/DTD/svg11.dtd">
<svg version="1.1" id="Calque_1" xmlns="http://www.w3.org/2000/svg" xmlns:xlink="http://www.w3.org/1999/xlink" x="0px" y="0px"
	 viewBox="0 0 874 36.2" style="enable-background:new 0 0 874 36.2;" xml:space="preserve">
<style type="text/css">
	.st0{opacity:0.2;}
	.st1{fill:#A8ADB9;}
</style>
<g class="st0">
	<path class="st1" d="M12.4,27.5H7V6.4H0V1.8h19.4v4.5h-7V27.5z"/>
	<path class="st1" d="M42.9,27.5h-5.4V16.1c0-2.8-1.1-4.3-3.2-4.3c-1.5,0-2.6,0.5-3.3,1.5s-1,2.7-1,5v9.2h-5.4V0.2h5.4v5.6
		c0,0.4,0,1.5-0.1,3.1l-0.1,1.6h0.3c1.2-1.9,3.1-2.9,5.7-2.9c2.3,0,4.1,0.6,5.3,1.9s1.8,3,1.8,5.3V27.5z"/>
	<path class="st1" d="M59.1,27.9c-3.2,0-5.6-0.9-7.4-2.6S49,21.1,49,17.9c0-3.3,0.8-5.8,2.5-7.6s3.9-2.7,6.8-2.7
		c2.8,0,4.9,0.8,6.5,2.4s2.3,3.8,2.3,6.6v2.6H54.4c0.1,1.5,0.5,2.7,1.4,3.6s2,1.3,3.6,1.3c1.2,0,2.3-0.1,3.4-0.4s2.2-0.6,3.3-1.2
		v4.1c-0.9,0.5-1.9,0.8-3,1S60.6,27.9,59.1,27.9z M58.3,11.3c-1.1,0-2,0.4-2.7,1.1s-1,1.7-1.1,3.1h7.5c0-1.3-0.4-2.3-1-3.1
		S59.5,11.3,58.3,11.3z"/>
	<path class="st1" d="M90.6,27.9c-2.3,0-4.1-0.9-5.4-2.7s-2-4.3-2-7.5c0-3.2,0.7-5.7,2-7.5s3.2-2.7,5.5-2.7c1.2,0,2.3,0.2,3.3,0.7
		c0.9,0.5,1.7,1.2,2.4,2.2h0.1l0.5-2.5h4.5v28.3h-5.4v-8.2c0-0.7,0.1-1.7,0.2-3h-0.2c-0.6,0.9-1.3,1.7-2.3,2.2S91.9,27.9,90.6,27.9z
		 M92.6,23.7c1.4,0,2.4-0.4,3-1.2s1-2.1,1-4.1v-0.7c0-2.1-0.3-3.6-1-4.5s-1.7-1.4-3.1-1.4c-2.5,0-3.8,2-3.8,5.9c0,2,0.3,3.4,0.9,4.4
		S91.2,23.7,92.6,23.7z"/>
	<path class="st1" d="M122.9,27.5l-0.7-2.5h-0.3c-0.6,0.9-1.4,1.6-2.4,2.1s-2.3,0.7-3.6,0.7c-2.3,0-4-0.6-5.2-1.9s-1.8-3-1.8-5.3
		V7.9h5.4v11.5c0,1.4,0.3,2.5,0.8,3.2s1.3,1.1,2.4,1.1c1.5,0,2.6-0.5,3.3-1.5s1-2.7,1-5V7.9h5.4v19.7H122.9z"/>
	<path class="st1" d="M134.2,2.8c0-1.7,1-2.6,2.9-2.6s2.9,0.9,2.9,2.6c0,0.8-0.2,1.5-0.7,1.9s-1.2,0.7-2.2,0.7
		C135.2,5.4,134.2,4.6,134.2,2.8z M139.8,27.5h-5.4V7.9h5.4V27.5z"/>
	<path class="st1" d="M155.2,27.9c-6.1,0-9.2-3.4-9.2-10.1c0-3.3,0.8-5.9,2.5-7.7s4-2.6,7.2-2.6c2.3,0,4.3,0.4,6.1,1.3l-1.6,4.1
		c-0.8-0.3-1.6-0.6-2.4-0.8s-1.5-0.3-2.2-0.3c-2.8,0-4.2,2-4.2,5.9c0,3.8,1.4,5.8,4.2,5.8c1,0,2-0.1,2.9-0.4s1.8-0.7,2.6-1.3v4.6
		c-0.9,0.6-1.7,0.9-2.6,1.1S156.6,27.9,155.2,27.9z"/>
	<path class="st1" d="M172.7,16.9l2.3-3l5.5-6h6l-7.8,8.5l8.3,11.1h-6.2l-5.7-8l-2.3,1.8v6.1h-5.4V0.2h5.4v12.2L172.7,16.9
		L172.7,16.9z"/>
	<path class="st1" d="M213.8,7.5c2.3,0,4.1,0.9,5.4,2.7s2,4.3,2,7.4c0,3.2-0.7,5.8-2,7.5s-3.2,2.7-5.5,2.7c-2.3,0-4.1-0.8-5.4-2.5
		h-0.4l-0.9,2.2h-4.1V0.2h5.4v6.4c0,0.8-0.1,2.1-0.2,3.9h0.2C209.4,8.5,211.3,7.5,213.8,7.5z M212,11.8c-1.3,0-2.3,0.4-2.9,1.2
		s-0.9,2.2-0.9,4v0.6c0,2.1,0.3,3.6,0.9,4.5s1.6,1.4,3,1.4c1.1,0,2-0.5,2.6-1.5s1-2.5,1-4.4s-0.3-3.4-1-4.4S213.2,11.8,212,11.8z"/>
	<path class="st1" d="M238.4,7.5c0.7,0,1.3,0.1,1.8,0.2l-0.4,5c-0.4-0.1-1-0.2-1.6-0.2c-1.7,0-3,0.4-4,1.3s-1.4,2.1-1.4,3.7v10h-5.4
		V7.9h4.1l0.8,3.3h0.3c0.6-1.1,1.4-2,2.5-2.7S237.2,7.5,238.4,7.5z"/>
	<path class="st1" d="M263.4,17.7c0,3.2-0.8,5.7-2.5,7.5s-4,2.7-7,2.7c-1.9,0-3.6-0.4-5-1.2s-2.5-2-3.3-3.6s-1.2-3.4-1.2-5.4
		c0-3.2,0.8-5.7,2.5-7.5s4-2.7,7.1-2.7c1.9,0,3.6,0.4,5,1.2s2.5,2,3.3,3.5S263.4,15.6,263.4,17.7z M249.8,17.7c0,1.9,0.3,3.4,1,4.4
		s1.7,1.5,3.1,1.5c1.4,0,2.5-0.5,3.1-1.5s0.9-2.5,0.9-4.4c0-1.9-0.3-3.4-0.9-4.4s-1.7-1.5-3.1-1.5c-1.4,0-2.5,0.5-3.1,1.5
		S249.8,15.7,249.8,17.7z"/>
	<path class="st1" d="M285.8,27.5l-1.5-6.9l-2-8.7h-0.1l-3.6,15.6h-5.8l-5.6-19.7h5.3l2.3,8.7c0.4,1.6,0.7,3.7,1.1,6.5h0.1
		c0-0.9,0.3-2.3,0.6-4.2l0.3-1.5l2.4-9.4h5.9l2.3,9.4c0,0.3,0.1,0.6,0.2,1.1s0.2,1,0.3,1.6s0.2,1.1,0.3,1.7s0.1,1,0.1,1.3h0.1
		c0.1-0.8,0.3-2,0.6-3.5c0.3-1.5,0.5-2.5,0.6-3l2.4-8.7h5.3l-5.7,19.7H285.8z"/>
	<path class="st1" d="M320.4,27.5H315V16.1c0-1.4-0.3-2.5-0.8-3.2s-1.3-1.1-2.4-1.1c-1.5,0-2.6,0.5-3.3,1.5s-1,2.7-1,5v9.2h-5.4V7.9
		h4.1l0.7,2.5h0.3c0.6-0.9,1.4-1.7,2.5-2.2s2.2-0.7,3.6-0.7c2.3,0,4,0.6,5.2,1.9s1.8,3,1.8,5.4V27.5z"/>
	<path class="st1" d="M349.7,11.9h-4.6v15.6h-5.4V11.9h-3V9.3l3-1.4V6.5c0-2.2,0.6-3.9,1.7-4.9s2.9-1.5,5.3-1.5
		c1.9,0,3.5,0.3,4.9,0.8l-1.4,3.9c-1.1-0.3-2.1-0.5-3-0.5c-0.8,0-1.3,0.2-1.7,0.7s-0.5,1-0.5,1.7v1.2h4.6V11.9z"/>
	<path class="st1" d="M372.5,17.7c0,3.2-0.8,5.7-2.5,7.5s-4,2.7-7,2.7c-1.9,0-3.6-0.4-5-1.2s-2.5-2-3.3-3.6s-1.2-3.4-1.2-5.4
		c0-3.2,0.8-5.7,2.5-7.5s4-2.7,7.1-2.7c1.9,0,3.6,0.4,5,1.2s2.5,2,3.3,3.5S372.5,15.6,372.5,17.7z M358.9,17.7c0,1.9,0.3,3.4,1,4.4
		s1.7,1.5,3.1,1.5c1.4,0,2.5-0.5,3.1-1.5s0.9-2.5,0.9-4.4c0-1.9-0.3-3.4-0.9-4.4s-1.7-1.5-3.1-1.5c-1.4,0-2.5,0.5-3.1,1.5
		S358.9,15.7,358.9,17.7z"/>
	<path class="st1" d="M382.7,17.5l-6.3-9.6h6.1l3.8,6.3l3.8-6.3h6.1l-6.4,9.6l6.7,10h-6.1l-4.1-6.7l-4.1,6.7h-6.1L382.7,17.5z"/>
	<path class="st1" d="M410.9,36.2c-1.4,0-2.5-0.1-3.5-0.4v-4.2c0.8,0.2,1.7,0.3,2.5,0.3c0.9,0,1.6-0.3,2-0.8s0.6-1.2,0.6-2.2v-21
		h5.4v21.8c0,2.1-0.6,3.7-1.8,4.8S413.1,36.2,410.9,36.2z M412.2,2.8c0-1.7,1-2.6,2.9-2.6s2.9,0.9,2.9,2.6c0,0.8-0.2,1.5-0.7,1.9
		s-1.2,0.7-2.2,0.7C413.2,5.4,412.2,4.6,412.2,2.8z"/>
	<path class="st1" d="M439.2,27.5l-0.7-2.5h-0.3c-0.6,0.9-1.4,1.6-2.4,2.1s-2.3,0.7-3.6,0.7c-2.3,0-4-0.6-5.2-1.9s-1.8-3-1.8-5.3
		V7.9h5.4v11.5c0,1.4,0.3,2.5,0.8,3.2s1.3,1.1,2.4,1.1c1.5,0,2.6-0.5,3.3-1.5s1-2.7,1-5V7.9h5.4v19.7H439.2z"/>
	<path class="st1" d="M468.3,27.5H463V16.1c0-1.4-0.2-2.5-0.7-3.2s-1.2-1.1-2.2-1.1c-1.4,0-2.4,0.5-3,1.5s-0.9,2.7-0.9,5v9.2h-5.4
		V7.9h4.1l0.7,2.5h0.3c0.5-0.9,1.3-1.6,2.3-2.1s2.1-0.8,3.4-0.8c2.9,0,4.9,1,6,2.9h0.5c0.5-0.9,1.3-1.6,2.3-2.1s2.2-0.8,3.5-0.8
		c2.2,0,3.9,0.6,5.1,1.7s1.7,3,1.7,5.5v12.8h-5.4V16.1c0-1.4-0.2-2.5-0.7-3.2s-1.2-1.1-2.2-1.1c-1.3,0-2.3,0.5-2.9,1.4s-1,2.4-1,4.5
		V27.5z"/>
	<path class="st1" d="M498.7,27.9c-2.3,0-4.1-0.8-5.4-2.5h-0.3c0.2,1.6,0.3,2.6,0.3,2.8v8h-5.4V7.9h4.4l0.8,2.5h0.2
		c1.3-1.9,3.1-2.9,5.6-2.9c2.3,0,4.1,0.9,5.4,2.7s2,4.3,2,7.5c0,2.1-0.3,3.9-0.9,5.5s-1.5,2.7-2.6,3.5S500.2,27.9,498.7,27.9z
		 M497.1,11.8c-1.3,0-2.3,0.4-2.9,1.2s-0.9,2.2-0.9,4v0.6c0,2.1,0.3,3.6,0.9,4.5s1.6,1.4,3,1.4c2.4,0,3.6-2,3.6-5.9
		c0-1.9-0.3-3.4-0.9-4.4S498.3,11.8,497.1,11.8z"/>
	<path class="st1" d="M526.2,21.7c0,2-0.7,3.6-2.1,4.6s-3.5,1.6-6.3,1.6c-1.4,0-2.6-0.1-3.7-0.3s-2-0.5-2.8-0.9v-4.4
		c1,0.5,2.1,0.9,3.4,1.2S517,24,518,24c1.9,0,2.9-0.6,2.9-1.7c0-0.4-0.1-0.8-0.4-1s-0.7-0.6-1.3-0.9s-1.5-0.7-2.5-1.2
		c-1.5-0.6-2.6-1.2-3.3-1.8s-1.2-1.2-1.5-1.9s-0.5-1.6-0.5-2.6c0-1.7,0.7-3.1,2-4.1s3.3-1.4,5.8-1.4c2.4,0,4.7,0.5,6.9,1.5l-1.6,3.9
		c-1-0.4-1.9-0.8-2.8-1s-1.7-0.4-2.6-0.4c-1.6,0-2.4,0.4-2.4,1.3c0,0.5,0.3,0.9,0.8,1.2s1.6,0.9,3.3,1.6c1.5,0.6,2.7,1.2,3.4,1.7
		s1.2,1.2,1.6,1.9S526.2,20.7,526.2,21.7z"/>
	<path class="st1" d="M561.2,17.7c0,3.2-0.8,5.7-2.5,7.5s-4,2.7-7,2.7c-1.9,0-3.6-0.4-5-1.2s-2.5-2-3.3-3.6s-1.2-3.4-1.2-5.4
		c0-3.2,0.8-5.7,2.5-7.5s4-2.7,7.1-2.7c1.9,0,3.6,0.4,5,1.2s2.5,2,3.3,3.5S561.2,15.6,561.2,17.7z M547.6,17.7c0,1.9,0.3,3.4,1,4.4
		s1.7,1.5,3.1,1.5c1.4,0,2.5-0.5,3.1-1.5s0.9-2.5,0.9-4.4c0-1.9-0.3-3.4-0.9-4.4s-1.7-1.5-3.1-1.5c-1.4,0-2.5,0.5-3.1,1.5
		S547.6,15.7,547.6,17.7z"/>
	<path class="st1" d="M572.1,27.5l-7.5-19.7h5.6l3.8,11.2c0.4,1.4,0.7,2.8,0.8,4h0.1c0.1-1.1,0.3-2.5,0.8-4l3.8-11.2h5.6l-7.5,19.7
		H572.1z"/>
	<path class="st1" d="M598.6,27.9c-3.2,0-5.6-0.9-7.4-2.6s-2.7-4.2-2.7-7.4c0-3.3,0.8-5.8,2.5-7.6s3.9-2.7,6.8-2.7
		c2.8,0,4.9,0.8,6.5,2.4s2.3,3.8,2.3,6.6v2.6h-12.7c0.1,1.5,0.5,2.7,1.4,3.6s2,1.3,3.6,1.3c1.2,0,2.3-0.1,3.4-0.4s2.2-0.6,3.3-1.2
		v4.1c-0.9,0.5-1.9,0.8-3,1S600.1,27.9,598.6,27.9z M597.8,11.3c-1.1,0-2,0.4-2.7,1.1s-1,1.7-1.1,3.1h7.5c0-1.3-0.4-2.3-1-3.1
		S598.9,11.3,597.8,11.3z"/>
	<path class="st1" d="M623.7,7.5c0.7,0,1.3,0.1,1.8,0.2l-0.4,5c-0.4-0.1-1-0.2-1.6-0.2c-1.7,0-3,0.4-4,1.3s-1.4,2.1-1.4,3.7v10h-5.4
		V7.9h4.1l0.8,3.3h0.3c0.6-1.1,1.4-2,2.5-2.7S622.5,7.5,623.7,7.5z"/>
	<path class="st1" d="M650.3,23.6c0.9,0,2.1-0.2,3.4-0.6v4c-1.3,0.6-3,0.9-4.9,0.9c-2.1,0-3.7-0.5-4.7-1.6s-1.5-2.7-1.5-4.9v-9.5
		H640V9.7l3-1.8l1.5-4.1h3.4v4.2h5.5v4H648v9.5c0,0.8,0.2,1.3,0.6,1.7S649.6,23.6,650.3,23.6z"/>
	<path class="st1" d="M677.6,27.5h-5.4V16.1c0-2.8-1.1-4.3-3.2-4.3c-1.5,0-2.6,0.5-3.3,1.5s-1,2.7-1,5v9.2h-5.4V0.2h5.4v5.6
		c0,0.4,0,1.5-0.1,3.1l-0.1,1.6h0.3c1.2-1.9,3.1-2.9,5.7-2.9c2.3,0,4.1,0.6,5.3,1.9s1.8,3,1.8,5.3V27.5z"/>
	<path class="st1" d="M693.8,27.9c-3.2,0-5.6-0.9-7.4-2.6s-2.7-4.2-2.7-7.4c0-3.3,0.8-5.8,2.5-7.6s3.9-2.7,6.8-2.7
		c2.8,0,4.9,0.8,6.5,2.4s2.3,3.8,2.3,6.6v2.6h-12.7c0.1,1.5,0.5,2.7,1.4,3.6s2,1.3,3.6,1.3c1.2,0,2.3-0.1,3.4-0.4s2.2-0.6,3.3-1.2
		v4.1c-0.9,0.5-1.9,0.8-3,1S695.3,27.9,693.8,27.9z M693.1,11.3c-1.1,0-2,0.4-2.7,1.1s-1,1.7-1.1,3.1h7.5c0-1.3-0.4-2.3-1-3.1
		S694.2,11.3,693.1,11.3z"/>
	<path class="st1" d="M724.5,27.5h-5.4V0.2h5.4V27.5z"/>
	<path class="st1" d="M744.4,27.5l-1-2.7h-0.1c-0.9,1.1-1.8,1.9-2.8,2.4s-2.2,0.7-3.7,0.7c-1.9,0-3.4-0.5-4.5-1.6s-1.6-2.6-1.6-4.6
		c0-2.1,0.7-3.6,2.2-4.6s3.7-1.5,6.6-1.6l3.4-0.1v-0.9c0-2-1-3-3.1-3c-1.6,0-3.4,0.5-5.5,1.4l-1.8-3.6c2.3-1.2,4.8-1.8,7.5-1.8
		c2.6,0,4.7,0.6,6.1,1.7s2.1,2.9,2.1,5.2v13.1H744.4z M742.8,18.4l-2.1,0.1c-1.6,0-2.7,0.3-3.5,0.8s-1.1,1.3-1.1,2.4
		c0,1.5,0.9,2.3,2.6,2.3c1.2,0,2.2-0.4,3-1.1s1.1-1.7,1.1-2.8V18.4z"/>
	<path class="st1" d="M769.1,27.5h-15.5v-3.2l9.1-12.4h-8.6V7.9h14.7v3.5L760,23.4h9.2V27.5z"/>
	<path class="st1" d="M772,7.9h5.9l3.7,11.1c0.3,1,0.5,2.1,0.7,3.4h0.1c0.1-1.2,0.4-2.3,0.8-3.4l3.6-11.1h5.7l-8.3,22.2
		c-0.8,2.1-1.8,3.6-3.3,4.6s-3.1,1.5-4.9,1.5c-0.9,0-1.8-0.1-2.7-0.3v-4.3c0.6,0.2,1.3,0.2,2.1,0.2c0.9,0,1.8-0.3,2.5-0.9
		s1.3-1.5,1.7-2.6l0.3-1L772,7.9z"/>
	<path class="st1" d="M814.5,27.9c-2.3,0-4.1-0.9-5.4-2.7s-2-4.3-2-7.5c0-3.2,0.7-5.7,2-7.5s3.2-2.7,5.5-2.7c2.5,0,4.4,1,5.7,2.9
		h0.2c-0.3-1.5-0.4-2.8-0.4-3.9V0.2h5.4v27.4h-4.1l-1-2.5h-0.2C818.8,26.9,817,27.9,814.5,27.9z M816.4,23.6c1.4,0,2.4-0.4,3-1.2
		s1-2.2,1-4.1v-0.6c0-2.1-0.3-3.6-1-4.5s-1.7-1.4-3.2-1.4c-1.2,0-2.1,0.5-2.8,1.5s-1,2.5-1,4.4s0.3,3.4,1,4.4S815.1,23.6,816.4,23.6
		z"/>
	<path class="st1" d="M850.7,17.7c0,3.2-0.8,5.7-2.5,7.5s-4,2.7-7,2.7c-1.9,0-3.6-0.4-5-1.2s-2.5-2-3.3-3.6s-1.2-3.4-1.2-5.4
		c0-3.2,0.8-5.7,2.5-7.5s4-2.7,7.1-2.7c1.9,0,3.6,0.4,5,1.2s2.5,2,3.3,3.5S850.7,15.6,850.7,17.7z M837.1,17.7c0,1.9,0.3,3.4,1,4.4
		s1.7,1.5,3.1,1.5c1.4,0,2.5-0.5,3.1-1.5s0.9-2.5,0.9-4.4c0-1.9-0.3-3.4-0.9-4.4s-1.7-1.5-3.1-1.5c-1.4,0-2.5,0.5-3.1,1.5
		S837.1,15.7,837.1,17.7z"/>
	<path class="st1" d="M874,7.9v2.7l-3.1,0.8c0.6,0.9,0.8,1.9,0.8,3c0,2.1-0.7,3.8-2.2,4.9s-3.5,1.8-6.1,1.8l-1-0.1l-0.8-0.1
		c-0.6,0.4-0.8,0.9-0.8,1.4c0,0.8,1,1.2,3,1.2h3.3c2.2,0,3.8,0.5,4.9,1.4s1.7,2.3,1.7,4.1c0,2.3-1,4.1-2.9,5.3s-4.7,1.9-8.3,1.9
		c-2.7,0-4.8-0.5-6.3-1.4s-2.2-2.3-2.2-4c0-1.2,0.4-2.2,1.1-3s1.8-1.4,3.3-1.7c-0.6-0.2-1-0.6-1.4-1.2s-0.6-1.1-0.6-1.7
		c0-0.8,0.2-1.4,0.7-1.9s1.1-1,1.9-1.5c-1-0.4-1.8-1.2-2.5-2.1s-0.9-2.1-0.9-3.5c0-2.1,0.7-3.8,2.1-5s3.4-1.8,6-1.8
		c0.6,0,1.2,0,2,0.1s1.2,0.2,1.5,0.2H874z M858.9,30.3c0,0.7,0.4,1.3,1.1,1.7c0.7,0.4,1.7,0.6,3,0.6c1.9,0,3.4-0.3,4.5-0.8
		c1.1-0.5,1.6-1.2,1.6-2.2c0-0.7-0.3-1.2-1-1.5s-1.6-0.4-3-0.4h-2.8c-1,0-1.8,0.2-2.5,0.7S858.9,29.6,858.9,30.3z M860.8,14.3
		c0,1.1,0.2,1.9,0.7,2.5s1.2,0.9,2.2,0.9c1,0,1.7-0.3,2.2-0.9s0.7-1.5,0.7-2.5c0-2.4-1-3.6-2.9-3.6C861.8,10.8,860.8,12,860.8,14.3z
		"/>
</g>
</svg>
