<svg xmlns="http://www.w3.org/2000/svg" viewBox="0 0 874 36.2" enable-background="new 0 0 874 36.2"><style type="text/css">.st0{opacity:0.2;} .st1{fill:#A8ADB9;}</style><path d="M12.4 27.5H7V6.4H0V1.8h19.4v4.5h-7v21.2zm30.5 0h-5.4V16.1c0-2.8-1.1-4.3-3.2-4.3-1.5 0-2.6.5-3.3 1.5s-1 2.7-1 5v9.2h-5.4V.2H30v5.6c0 .4 0 1.5-.1 3.1l-.1 1.6h.3c1.2-1.9 3.1-2.9 5.7-2.9 2.3 0 4.1.6 5.3 1.9s1.8 3 1.8 5.3v12.7zm16.2.4c-3.2 0-5.6-.9-7.4-2.6S49 21.1 49 17.9c0-3.3.8-5.8 2.5-7.6s3.9-2.7 6.8-2.7c2.8 0 4.9.8 6.5 2.4s2.3 3.8 2.3 6.6v2.6H54.4c.1 1.5.5 2.7 1.4 3.6s2 1.3 3.6 1.3c1.2 0 2.3-.1 3.4-.4s2.2-.6 3.3-1.2v4.1c-.9.5-1.9.8-3 1s-2.5.3-4 .3zm-.8-16.6c-1.1 0-2 .4-2.7 1.1s-1 1.7-1.1 3.1H62c0-1.3-.4-2.3-1-3.1s-1.5-1.1-2.7-1.1zm32.3 16.6c-2.3 0-4.1-.9-5.4-2.7s-2-4.3-2-7.5.7-5.7 2-7.5 3.2-2.7 5.5-2.7c1.2 0 2.3.2 3.3.7.9.5 1.7 1.2 2.4 2.2h.1l.5-2.5h4.5v28.3h-5.4V28c0-.7.1-1.7.2-3h-.2c-.6.9-1.3 1.7-2.3 2.2s-1.9.7-3.2.7zm2-4.2c1.4 0 2.4-.4 3-1.2s1-2.1 1-4.1v-.7c0-2.1-.3-3.6-1-4.5s-1.7-1.4-3.1-1.4c-2.5 0-3.8 2-3.8 5.9 0 2 .3 3.4.9 4.4s1.6 1.6 3 1.6zm30.3 3.8l-.7-2.5h-.3c-.6.9-1.4 1.6-2.4 2.1s-2.3.7-3.6.7c-2.3 0-4-.6-5.2-1.9s-1.8-3-1.8-5.3V7.9h5.4v11.5c0 1.4.3 2.5.8 3.2s1.3 1.1 2.4 1.1c1.5 0 2.6-.5 3.3-1.5s1-2.7 1-5V7.9h5.4v19.7h-4.3zm11.3-24.7c0-1.7 1-2.6 2.9-2.6s2.9.9 2.9 2.6c0 .8-.2 1.5-.7 1.9s-1.2.7-2.2.7c-1.9 0-2.9-.8-2.9-2.6zm5.6 24.7h-5.4V7.9h5.4v19.6zm15.4.4c-6.1 0-9.2-3.4-9.2-10.1 0-3.3.8-5.9 2.5-7.7s4-2.6 7.2-2.6c2.3 0 4.3.4 6.1 1.3l-1.6 4.1c-.8-.3-1.6-.6-2.4-.8s-1.5-.3-2.2-.3c-2.8 0-4.2 2-4.2 5.9 0 3.8 1.4 5.8 4.2 5.8 1 0 2-.1 2.9-.4s1.8-.7 2.6-1.3v4.6c-.9.6-1.7.9-2.6 1.1s-1.9.4-3.3.4zm17.5-11l2.3-3 5.5-6h6l-7.8 8.5 8.3 11.1h-6.2l-5.7-8-2.3 1.8v6.1h-5.4V.2h5.4v12.2l-.1 4.5zm41.1-9.4c2.3 0 4.1.9 5.4 2.7s2 4.3 2 7.4c0 3.2-.7 5.8-2 7.5s-3.2 2.7-5.5 2.7-4.1-.8-5.4-2.5h-.4l-.9 2.2h-4.1V.2h5.4v6.4c0 .8-.1 2.1-.2 3.9h.2c1.1-2 3-3 5.5-3zm-1.8 4.3c-1.3 0-2.3.4-2.9 1.2s-.9 2.2-.9 4v.6c0 2.1.3 3.6.9 4.5s1.6 1.4 3 1.4c1.1 0 2-.5 2.6-1.5s1-2.5 1-4.4-.3-3.4-1-4.4-1.5-1.4-2.7-1.4zm26.4-4.3c.7 0 1.3.1 1.8.2l-.4 5c-.4-.1-1-.2-1.6-.2-1.7 0-3 .4-4 1.3s-1.4 2.1-1.4 3.7v10h-5.4V7.9h4.1l.8 3.3h.3c.6-1.1 1.4-2 2.5-2.7s2.1-1 3.3-1zm25 10.2c0 3.2-.8 5.7-2.5 7.5s-4 2.7-7 2.7c-1.9 0-3.6-.4-5-1.2s-2.5-2-3.3-3.6-1.2-3.4-1.2-5.4c0-3.2.8-5.7 2.5-7.5s4-2.7 7.1-2.7c1.9 0 3.6.4 5 1.2s2.5 2 3.3 3.5 1.1 3.4 1.1 5.5zm-13.6 0c0 1.9.3 3.4 1 4.4s1.7 1.5 3.1 1.5c1.4 0 2.5-.5 3.1-1.5s.9-2.5.9-4.4c0-1.9-.3-3.4-.9-4.4s-1.7-1.5-3.1-1.5c-1.4 0-2.5.5-3.1 1.5s-1 2.4-1 4.4zm36 9.8l-1.5-6.9-2-8.7h-.1l-3.6 15.6h-5.8l-5.6-19.7h5.3l2.3 8.7c.4 1.6.7 3.7 1.1 6.5h.1c0-.9.3-2.3.6-4.2l.3-1.5 2.4-9.4h5.9l2.3 9.4c0 .3.1.6.2 1.1s.2 1 .3 1.6.2 1.1.3 1.7.1 1 .1 1.3h.1c.1-.8.3-2 .6-3.5s.5-2.5.6-3l2.4-8.7h5.3l-5.7 19.7h-5.9zm34.6 0H315V16.1c0-1.4-.3-2.5-.8-3.2s-1.3-1.1-2.4-1.1c-1.5 0-2.6.5-3.3 1.5s-1 2.7-1 5v9.2h-5.4V7.9h4.1l.7 2.5h.3c.6-.9 1.4-1.7 2.5-2.2s2.2-.7 3.6-.7c2.3 0 4 .6 5.2 1.9s1.8 3 1.8 5.4v12.7zm29.3-15.6h-4.6v15.6h-5.4V11.9h-3V9.3l3-1.4V6.5c0-2.2.6-3.9 1.7-4.9s2.9-1.5 5.3-1.5c1.9 0 3.5.3 4.9.8l-1.4 3.9c-1.1-.3-2.1-.5-3-.5-.8 0-1.3.2-1.7.7s-.5 1-.5 1.7v1.2h4.6v4zm22.8 5.8c0 3.2-.8 5.7-2.5 7.5s-4 2.7-7 2.7c-1.9 0-3.6-.4-5-1.2s-2.5-2-3.3-3.6-1.2-3.4-1.2-5.4c0-3.2.8-5.7 2.5-7.5s4-2.7 7.1-2.7c1.9 0 3.6.4 5 1.2s2.5 2 3.3 3.5 1.1 3.4 1.1 5.5zm-13.6 0c0 1.9.3 3.4 1 4.4s1.7 1.5 3.1 1.5c1.4 0 2.5-.5 3.1-1.5s.9-2.5.9-4.4c0-1.9-.3-3.4-.9-4.4s-1.7-1.5-3.1-1.5c-1.4 0-2.5.5-3.1 1.5s-1 2.4-1 4.4zm23.8-.2l-6.3-9.6h6.1l3.8 6.3 3.8-6.3h6.1l-6.4 9.6 6.7 10h-6.1l-4.1-6.7-4.1 6.7h-6.1l6.6-10zm28.2 18.7c-1.4 0-2.5-.1-3.5-.4v-4.2c.8.2 1.7.3 2.5.3.9 0 1.6-.3 2-.8s.6-1.2.6-2.2v-21h5.4v21.8c0 2.1-.6 3.7-1.8 4.8s-3 1.7-5.2 1.7zm1.3-33.4c0-1.7 1-2.6 2.9-2.6s2.9.9 2.9 2.6c0 .8-.2 1.5-.7 1.9s-1.2.7-2.2.7c-1.9 0-2.9-.8-2.9-2.6zm27 24.7l-.7-2.5h-.3c-.6.9-1.4 1.6-2.4 2.1s-2.3.7-3.6.7c-2.3 0-4-.6-5.2-1.9s-1.8-3-1.8-5.3V7.9h5.4v11.5c0 1.4.3 2.5.8 3.2s1.3 1.1 2.4 1.1c1.5 0 2.6-.5 3.3-1.5s1-2.7 1-5V7.9h5.4v19.7h-4.3zm29.1 0H463V16.1c0-1.4-.2-2.5-.7-3.2s-1.2-1.1-2.2-1.1c-1.4 0-2.4.5-3 1.5s-.9 2.7-.9 5v9.2h-5.4V7.9h4.1l.7 2.5h.3c.5-.9 1.3-1.6 2.3-2.1s2.1-.8 3.4-.8c2.9 0 4.9 1 6 2.9h.5c.5-.9 1.3-1.6 2.3-2.1s2.2-.8 3.5-.8c2.2 0 3.9.6 5.1 1.7s1.7 3 1.7 5.5v12.8h-5.4V16.1c0-1.4-.2-2.5-.7-3.2s-1.2-1.1-2.2-1.1c-1.3 0-2.3.5-2.9 1.4s-1 2.4-1 4.5v9.8zm30.4.4c-2.3 0-4.1-.8-5.4-2.5h-.3c.2 1.6.3 2.6.3 2.8v8h-5.4V7.9h4.4l.8 2.5h.2c1.3-1.9 3.1-2.9 5.6-2.9 2.3 0 4.1.9 5.4 2.7s2 4.3 2 7.5c0 2.1-.3 3.9-.9 5.5s-1.5 2.7-2.6 3.5-2.6 1.2-4.1 1.2zm-1.6-16.1c-1.3 0-2.3.4-2.9 1.2s-.9 2.2-.9 4v.6c0 2.1.3 3.6.9 4.5s1.6 1.4 3 1.4c2.4 0 3.6-2 3.6-5.9 0-1.9-.3-3.4-.9-4.4s-1.6-1.4-2.8-1.4zm29.1 9.9c0 2-.7 3.6-2.1 4.6s-3.5 1.6-6.3 1.6c-1.4 0-2.6-.1-3.7-.3s-2-.5-2.8-.9v-4.4c1 .5 2.1.9 3.4 1.2s2.3.5 3.3.5c1.9 0 2.9-.6 2.9-1.7 0-.4-.1-.8-.4-1s-.7-.6-1.3-.9-1.5-.7-2.5-1.2c-1.5-.6-2.6-1.2-3.3-1.8s-1.2-1.2-1.5-1.9-.5-1.6-.5-2.6c0-1.7.7-3.1 2-4.1s3.3-1.4 5.8-1.4c2.4 0 4.7.5 6.9 1.5l-1.6 3.9c-1-.4-1.9-.8-2.8-1s-1.7-.4-2.6-.4c-1.6 0-2.4.4-2.4 1.3 0 .5.3.9.8 1.2s1.6.9 3.3 1.6c1.5.6 2.7 1.2 3.4 1.7s1.2 1.2 1.6 1.9.4 1.6.4 2.6zm35-4c0 3.2-.8 5.7-2.5 7.5s-4 2.7-7 2.7c-1.9 0-3.6-.4-5-1.2s-2.5-2-3.3-3.6-1.2-3.4-1.2-5.4c0-3.2.8-5.7 2.5-7.5s4-2.7 7.1-2.7c1.9 0 3.6.4 5 1.2s2.5 2 3.3 3.5 1.1 3.4 1.1 5.5zm-13.6 0c0 1.9.3 3.4 1 4.4s1.7 1.5 3.1 1.5c1.4 0 2.5-.5 3.1-1.5s.9-2.5.9-4.4c0-1.9-.3-3.4-.9-4.4s-1.7-1.5-3.1-1.5c-1.4 0-2.5.5-3.1 1.5s-1 2.4-1 4.4zm24.5 9.8l-7.5-19.7h5.6L574 19c.4 1.4.7 2.8.8 4h.1c.1-1.1.3-2.5.8-4l3.8-11.2h5.6l-7.5 19.7h-5.5zm26.5.4c-3.2 0-5.6-.9-7.4-2.6s-2.7-4.2-2.7-7.4c0-3.3.8-5.8 2.5-7.6s3.9-2.7 6.8-2.7c2.8 0 4.9.8 6.5 2.4s2.3 3.8 2.3 6.6v2.6h-12.7c.1 1.5.5 2.7 1.4 3.6s2 1.3 3.6 1.3c1.2 0 2.3-.1 3.4-.4s2.2-.6 3.3-1.2v4.1c-.9.5-1.9.8-3 1s-2.5.3-4 .3zm-.8-16.6c-1.1 0-2 .4-2.7 1.1s-1 1.7-1.1 3.1h7.5c0-1.3-.4-2.3-1-3.1s-1.6-1.1-2.7-1.1zm25.9-3.8c.7 0 1.3.1 1.8.2l-.4 5c-.4-.1-1-.2-1.6-.2-1.7 0-3 .4-4 1.3s-1.4 2.1-1.4 3.7v10h-5.4V7.9h4.1l.8 3.3h.3c.6-1.1 1.4-2 2.5-2.7s2.1-1 3.3-1zm26.6 16.1c.9 0 2.1-.2 3.4-.6v4c-1.3.6-3 .9-4.9.9-2.1 0-3.7-.5-4.7-1.6s-1.5-2.7-1.5-4.9v-9.5H640V9.7l3-1.8 1.5-4.1h3.4V8h5.5v4H648v9.5c0 .8.2 1.3.6 1.7s1 .4 1.7.4zm27.3 3.9h-5.4V16.1c0-2.8-1.1-4.3-3.2-4.3-1.5 0-2.6.5-3.3 1.5s-1 2.7-1 5v9.2h-5.4V.2h5.4v5.6c0 .4 0 1.5-.1 3.1l-.1 1.6h.3c1.2-1.9 3.1-2.9 5.7-2.9 2.3 0 4.1.6 5.3 1.9s1.8 3 1.8 5.3v12.7zm16.2.4c-3.2 0-5.6-.9-7.4-2.6s-2.7-4.2-2.7-7.4c0-3.3.8-5.8 2.5-7.6s3.9-2.7 6.8-2.7c2.8 0 4.9.8 6.5 2.4s2.3 3.8 2.3 6.6v2.6h-12.7c.1 1.5.5 2.7 1.4 3.6s2 1.3 3.6 1.3c1.2 0 2.3-.1 3.4-.4s2.2-.6 3.3-1.2v4.1c-.9.5-1.9.8-3 1s-2.5.3-4 .3zm-.7-16.6c-1.1 0-2 .4-2.7 1.1s-1 1.7-1.1 3.1h7.5c0-1.3-.4-2.3-1-3.1s-1.6-1.1-2.7-1.1zm31.4 16.2h-5.4V.2h5.4v27.3zm19.9 0l-1-2.7h-.1c-.9 1.1-1.8 1.9-2.8 2.4s-2.2.7-3.7.7c-1.9 0-3.4-.5-4.5-1.6s-1.6-2.6-1.6-4.6c0-2.1.7-3.6 2.2-4.6s3.7-1.5 6.6-1.6l3.4-.1v-.9c0-2-1-3-3.1-3-1.6 0-3.4.5-5.5 1.4l-1.8-3.6c2.3-1.2 4.8-1.8 7.5-1.8 2.6 0 4.7.6 6.1 1.7s2.1 2.9 2.1 5.2v13.1h-3.8zm-1.6-9.1l-2.1.1c-1.6 0-2.7.3-3.5.8s-1.1 1.3-1.1 2.4c0 1.5.9 2.3 2.6 2.3 1.2 0 2.2-.4 3-1.1s1.1-1.7 1.1-2.8v-1.7zm26.3 9.1h-15.5v-3.2l9.1-12.4h-8.6v-4h14.7v3.5l-8.8 12h9.2v4.1zM772 7.9h5.9l3.7 11.1c.3 1 .5 2.1.7 3.4h.1c.1-1.2.4-2.3.8-3.4l3.6-11.1h5.7l-8.3 22.2c-.8 2.1-1.8 3.6-3.3 4.6s-3.1 1.5-4.9 1.5c-.9 0-1.8-.1-2.7-.3v-4.3c.6.2 1.3.2 2.1.2.9 0 1.8-.3 2.5-.9s1.3-1.5 1.7-2.6l.3-1L772 7.9zm42.5 20c-2.3 0-4.1-.9-5.4-2.7s-2-4.3-2-7.5.7-5.7 2-7.5 3.2-2.7 5.5-2.7c2.5 0 4.4 1 5.7 2.9h.2c-.3-1.5-.4-2.8-.4-3.9V.2h5.4v27.4h-4.1l-1-2.5h-.2c-1.4 1.8-3.2 2.8-5.7 2.8zm1.9-4.3c1.4 0 2.4-.4 3-1.2s1-2.2 1-4.1v-.6c0-2.1-.3-3.6-1-4.5s-1.7-1.4-3.2-1.4c-1.2 0-2.1.5-2.8 1.5s-1 2.5-1 4.4.3 3.4 1 4.4 1.7 1.5 3 1.5zm34.3-5.9c0 3.2-.8 5.7-2.5 7.5s-4 2.7-7 2.7c-1.9 0-3.6-.4-5-1.2s-2.5-2-3.3-3.6-1.2-3.4-1.2-5.4c0-3.2.8-5.7 2.5-7.5s4-2.7 7.1-2.7c1.9 0 3.6.4 5 1.2s2.5 2 3.3 3.5 1.1 3.4 1.1 5.5zm-13.6 0c0 1.9.3 3.4 1 4.4s1.7 1.5 3.1 1.5c1.4 0 2.5-.5 3.1-1.5s.9-2.5.9-4.4c0-1.9-.3-3.4-.9-4.4s-1.7-1.5-3.1-1.5c-1.4 0-2.5.5-3.1 1.5s-1 2.4-1 4.4zM874 7.9v2.7l-3.1.8c.6.9.8 1.9.8 3 0 2.1-.7 3.8-2.2 4.9s-3.5 1.8-6.1 1.8l-1-.1-.8-.1c-.6.4-.8.9-.8 1.4 0 .8 1 1.2 3 1.2h3.3c2.2 0 3.8.5 4.9 1.4s1.7 2.3 1.7 4.1c0 2.3-1 4.1-2.9 5.3s-4.7 1.9-8.3 1.9c-2.7 0-4.8-.5-6.3-1.4s-2.2-2.3-2.2-4c0-1.2.4-2.2 1.1-3s1.8-1.4 3.3-1.7c-.6-.2-1-.6-1.4-1.2s-.6-1.1-.6-1.7c0-.8.2-1.4.7-1.9s1.1-1 1.9-1.5c-1-.4-1.8-1.2-2.5-2.1s-.9-2.1-.9-3.5c0-2.1.7-3.8 2.1-5s3.4-1.8 6-1.8c.6 0 1.2 0 2 .1s1.2.2 1.5.2h6.8zm-15.1 22.4c0 .7.4 1.3 1.1 1.7.7.4 1.7.6 3 .6 1.9 0 3.4-.3 4.5-.8s1.6-1.2 1.6-2.2c0-.7-.3-1.2-1-1.5s-1.6-.4-3-.4h-2.8c-1 0-1.8.2-2.5.7s-.9 1.2-.9 1.9zm1.9-16c0 1.1.2 1.9.7 2.5s1.2.9 2.2.9c1 0 1.7-.3 2.2-.9s.7-1.5.7-2.5c0-2.4-1-3.6-2.9-3.6-1.9.1-2.9 1.3-2.9 3.6z" class="st1"/></svg>