<svg xmlns="http://www.w3.org/2000/svg" viewBox="0 0 134.6 57.9" enable-background="new 0 0 134.6 57.9"><style type="text/css">.st0{fill:#004459;}</style><path d="M11.5 15.1l-1.9-4.8h-6l-1.8 4.8H0L5.9 0h1.5l5.9 15.1h-1.8zM9.1 8.7L7.3 4.1c-.2-.6-.4-1.3-.7-2.2-.1.7-.3 1.4-.6 2.2L4.2 8.7h4.9zM23.1 15.1l-.3-1.6h-.1c-.6.7-1.1 1.2-1.7 1.4-.6.2-1.3.4-2.1.4-1.1 0-2-.3-2.6-.9s-.9-1.4-.9-2.5c0-2.3 1.8-3.5 5.4-3.6l1.9-.1v-.6c0-.9-.2-1.5-.6-2-.4-.4-1-.6-1.8-.6-.9 0-2 .3-3.2.9l-.5-1.3c.6-.3 1.2-.5 1.8-.7s1.3-.3 2-.3c1.3 0 2.3.3 3 .9.6.6 1 1.5 1 2.9v7.7h-1.3zm-3.9-1.2c1.1 0 1.9-.3 2.5-.9.6-.6.9-1.4.9-2.4v-1l-1.7.1c-1.4 0-2.3.3-2.9.6-.6.4-.9 1-.9 1.7 0 .6.2 1.1.6 1.4s.8.5 1.5.5zM9.9 32c0 1.6-.4 2.9-1.2 3.8s-1.9 1.4-3.4 1.4-2.6-.5-3.4-1.4S.7 33.7.7 32c0-1.6.4-2.9 1.2-3.8s1.9-1.3 3.4-1.3c1.4 0 2.6.5 3.4 1.4s1.2 2.1 1.2 3.7zM2 32c0 1.4.3 2.4.9 3.1s1.4 1 2.5 1 1.9-.3 2.5-1 .8-1.7.8-3.1c0-1.3-.3-2.4-.8-3.1s-1.4-1-2.5-1-1.9.3-2.5 1S2 30.7 2 32zM16.2 37.2c-.5 0-.9-.1-1.3-.3s-.7-.5-1-.8h-.1c.1.4.1.9.1 1.2v3.1h-1.1V29.6h.9l.2 1h.1c.3-.4.6-.7 1-.9s.8-.3 1.3-.3c1 0 1.8.3 2.3 1s.8 1.6.8 2.9c0 1.2-.3 2.2-.8 2.9s-1.5 1-2.4 1zm-.2-6.8c-.8 0-1.3.2-1.7.6s-.5 1.1-.5 2v.3c0 1.1.2 1.8.5 2.3s.9.7 1.7.7c.6 0 1.2-.3 1.5-.8s.6-1.2.6-2.2c0-.9-.2-1.7-.6-2.1s-.8-.8-1.5-.8zM25.1 37.2c-1.1 0-2-.3-2.6-1s-1-1.6-1-2.8c0-1.2.3-2.2.9-2.9s1.4-1.1 2.4-1.1c.9 0 1.7.3 2.2.9s.8 1.4.8 2.4v.7h-5.2c0 .9.2 1.5.7 2s1 .7 1.8.7 1.6-.2 2.4-.5v1c-.4.2-.8.3-1.1.4s-.8.2-1.3.2zm-.3-6.8c-.6 0-1.1.2-1.4.6s-.6.9-.6 1.6h3.9c0-.7-.2-1.3-.5-1.6s-.8-.6-1.4-.6zM35.6 37.1v-4.8c0-.6-.1-1.1-.4-1.4s-.7-.5-1.3-.5c-.8 0-1.4.2-1.7.6s-.5 1.1-.5 2.1V37h-1.1v-7.5h.9l.2 1h.1c.2-.4.6-.7 1-.9s.9-.3 1.4-.3c.9 0 1.6.2 2 .7s.7 1.1.7 2.1V37h-1.3zM50 34.4c0 .9-.3 1.6-1 2.1s-1.5.7-2.6.7c-1.2 0-2.1-.2-2.7-.5v-1.1c.4.2.9.3 1.3.4s1 .2 1.4.2c.8 0 1.4-.1 1.8-.4s.6-.7.6-1.2c0-.3-.1-.6-.2-.9s-.4-.4-.7-.6-.8-.4-1.5-.6c-.9-.3-1.6-.7-2-1.2s-.6-1.1-.6-1.8c0-.8.3-1.4.9-1.8S46 27 47 27c1 0 1.9.2 2.7.5l-.4 1c-.8-.3-1.6-.5-2.4-.5-.6 0-1.1.1-1.4.4s-.5.6-.5 1.1c0 .3.1.6.2.9s.3.4.6.6.8.4 1.4.6c1 .4 1.8.8 2.2 1.2s.6.9.6 1.6zM57.1 37.1l-.2-1.1h-.1c-.4.5-.7.8-1.1 1s-.8.2-1.4.2c-.7 0-1.3-.2-1.7-.6s-.6-.9-.6-1.6c0-1.5 1.2-2.3 3.6-2.4h1.3v-.5c0-.6-.1-1-.4-1.3s-.7-.4-1.2-.4c-.6 0-1.3.2-2.1.6l-.3-.9c.4-.2.8-.4 1.2-.5s.9-.2 1.3-.2c.9 0 1.6.2 2 .6s.6 1 .6 1.9V37h-.9zm-2.5-.8c.7 0 1.3-.2 1.7-.6s.6-.9.6-1.6v-.7h-1.1c-.9 0-1.6.2-2 .4s-.6.6-.6 1.2c0 .4.1.7.4.9s.5.4 1 .4zM66.1 37.1v-4.8c0-.6-.1-1.1-.4-1.4s-.7-.5-1.3-.5c-.8 0-1.4.2-1.7.6s-.5 1.1-.5 2.1V37H61v-7.5h.9l.2 1h.1c.2-.4.6-.7 1-.9s.9-.3 1.4-.3c.9 0 1.6.2 2 .7s.7 1.1.7 2.1V37h-1.2zM75.1 35c0 .7-.3 1.2-.8 1.6s-1.2.6-2.2.6c-1 0-1.8-.2-2.3-.5v-1.1c.4.2.7.3 1.2.4s.8.2 1.2.2c.6 0 1-.1 1.4-.3s.5-.5.5-.9c0-.3-.1-.5-.4-.7s-.7-.5-1.5-.7c-.7-.3-1.2-.5-1.5-.7s-.5-.4-.7-.7-.2-.5-.2-.9c0-.6.2-1.1.7-1.4s1.2-.5 2-.5 1.6.2 2.4.5l-.4.9c-.8-.3-1.4-.5-2-.5-.5 0-.9.1-1.2.3s-.4.4-.4.7c0 .2.1.4.2.5s.3.3.5.4.7.3 1.3.6c.9.3 1.5.6 1.8 1s.4.7.4 1.2zM83.4 32.9v4.2h-1.2v-10h2.7c1.2 0 2.1.2 2.7.7s.9 1.2.9 2.1c0 1.3-.7 2.2-2 2.7l2.7 4.5h-1.4l-2.4-4.2h-2zm0-1H85c.8 0 1.4-.2 1.8-.5s.6-.8.6-1.5-.2-1.1-.6-1.4-1-.4-1.9-.4h-1.5v3.8zM94.5 37.2c-1.1 0-2-.3-2.6-1s-1-1.6-1-2.8c0-1.2.3-2.2.9-2.9s1.4-1.1 2.4-1.1c.9 0 1.7.3 2.2.9s.8 1.4.8 2.4v.7H92c0 .9.2 1.5.7 2s1 .7 1.8.7 1.6-.2 2.4-.5v1c-.4.2-.8.3-1.1.4s-.8.2-1.3.2zm-.3-6.8c-.6 0-1.1.2-1.4.6s-.6.9-.6 1.6h3.9c0-.7-.2-1.3-.5-1.6s-.8-.6-1.4-.6zM106.1 29.6v.7l-1.4.2c.1.2.2.4.3.6s.2.5.2.9c0 .7-.3 1.3-.8 1.8s-1.2.7-2.1.7c-.2 0-.4 0-.6-.1-.5.3-.7.6-.7 1 0 .2.1.4.3.5s.5.1.9.1h1.3c.8 0 1.4.2 1.9.5s.7.8.7 1.5c0 .8-.3 1.5-1 1.9s-1.6.7-2.9.7c-1 0-1.7-.2-2.3-.5S99 39 99 38.3c0-.5.1-.9.4-1.2s.7-.6 1.2-.7c-.2-.1-.4-.2-.5-.4s-.2-.4-.2-.6c0-.3.1-.5.2-.7s.4-.4.7-.6c-.4-.2-.7-.4-.9-.8s-.4-.8-.4-1.3c0-.8.2-1.5.7-1.9s1.2-.7 2.1-.7c.4 0 .7 0 1.1.1h2.7zm-6 8.7c0 .4.2.7.5.9s.8.3 1.5.3c1 0 1.7-.1 2.1-.4s.7-.7.7-1.2c0-.4-.1-.7-.4-.8s-.7-.2-1.4-.2h-1.4c-.5 0-.9.1-1.2.4s-.4.5-.4 1zm.6-6.3c0 .5.1.9.4 1.2s.7.4 1.2.4c1.1 0 1.7-.5 1.7-1.6s-.6-1.7-1.7-1.7c-.5 0-.9.1-1.2.4s-.4.7-.4 1.3zM109.4 29.6v4.9c0 .6.1 1.1.4 1.4s.7.5 1.3.5c.8 0 1.4-.2 1.7-.6s.5-1.1.5-2.1v-3.9h1.1v7.5h-.9l-.2-1h-.1c-.2.4-.6.7-1 .8s-.9.3-1.4.3c-.9 0-1.6-.2-2-.6s-.7-1.1-.7-2.1v-4.9h1.3zM118.7 37.1h-1.1V26.4h1.1v10.7zM126.4 37.1l-.2-1.1h-.1c-.4.5-.7.8-1.1 1s-.8.2-1.4.2c-.7 0-1.3-.2-1.7-.6s-.6-.9-.6-1.6c0-1.5 1.2-2.3 3.6-2.4h1.3v-.5c0-.6-.1-1-.4-1.3s-.7-.4-1.2-.4c-.6 0-1.3.2-2.1.6l-.3-.9c.4-.2.8-.4 1.2-.5s.9-.2 1.3-.2c.9 0 1.6.2 2 .6s.6 1 .6 1.9V37h-.9zm-2.5-.8c.7 0 1.3-.2 1.7-.6s.6-.9.6-1.6v-.7h-1.1c-.9 0-1.6.2-2 .4s-.6.6-.6 1.2c0 .4.1.7.4.9s.5.4 1 .4zM133.7 29.4c.3 0 .6 0 .9.1l-.2 1.1c-.3-.1-.6-.1-.8-.1-.6 0-1.1.2-1.6.7s-.6 1.1-.6 1.8v4h-1.1v-7.5h.9l.1 1.4h.1c.3-.5.6-.9 1-1.1s.9-.4 1.3-.4zM10.2 49.5c0 1.7-.4 2.9-1.2 3.8s-2 1.3-3.5 1.3-2.7-.4-3.5-1.3S.8 51.1.8 49.5s.4-2.9 1.2-3.8 2-1.3 3.5-1.3 2.7.4 3.5 1.3 1.2 2.2 1.2 3.8zm-7.3 0c0 1.1.2 2 .6 2.5s1.1.8 1.9.8c1.7 0 2.5-1.1 2.5-3.4S7.1 46 5.4 46c-.8 0-1.5.3-1.9.9s-.6 1.5-.6 2.6zM17 54.7c-.9 0-1.6-.3-2.1-1h-.1c.1.6.1 1 .1 1.1v3.1h-2.1v-11h1.7l.3 1h.1c.5-.8 1.2-1.1 2.2-1.1.9 0 1.6.3 2.1 1s.8 1.7.8 2.9c0 .8-.1 1.5-.4 2.1s-.6 1.1-1 1.4-1 .5-1.6.5zm-.6-6.3c-.5 0-.9.2-1.1.5s-.4.8-.4 1.6v.2c0 .8.1 1.4.4 1.8s.6.5 1.2.5c.9 0 1.4-.8 1.4-2.3 0-.8-.1-1.3-.3-1.7s-.7-.6-1.2-.6zM25.8 54.7c-1.2 0-2.2-.3-2.9-1s-1-1.6-1-2.9c0-1.3.3-2.3 1-3s1.5-1 2.7-1c1.1 0 1.9.3 2.5.9s.9 1.5.9 2.5v1h-5c0 .6.2 1.1.5 1.4s.8.5 1.4.5c.5 0 .9 0 1.3-.1s.8-.2 1.3-.5v1.6c-.4.2-.8.3-1.2.4s-.9.2-1.5.2zm-.3-6.5c-.4 0-.8.1-1 .4s-.4.7-.4 1.2H27c0-.5-.1-.9-.4-1.2s-.6-.4-1.1-.4zM38.4 54.6h-2.1v-4.5c0-.6-.1-1-.3-1.2s-.5-.4-.9-.4c-.6 0-1 .2-1.3.6s-.4 1-.4 1.9v3.6h-2.1V47h1.6l.3 1h.1c.2-.4.6-.6 1-.8s.9-.3 1.4-.3c.9 0 1.6.2 2 .7s.7 1.2.7 2.1v4.9zM51.6 51.8c0 .9-.3 1.6-1 2.1s-1.6.8-2.7.8-2-.2-2.8-.6v-2c.7.3 1.2.5 1.7.6s.9.2 1.3.2c.5 0 .8-.1 1.1-.3s.4-.4.4-.8c0-.2-.1-.4-.2-.5s-.3-.3-.5-.4-.6-.4-1.3-.7c-.6-.3-1.1-.6-1.4-.8s-.5-.6-.7-.9-.3-.8-.3-1.2c0-.9.3-1.6.9-2.1s1.4-.8 2.5-.8c.5 0 1 .1 1.5.2s1 .3 1.5.5l-.7 1.6c-.5-.2-1-.4-1.3-.5s-.7-.1-1-.1c-.4 0-.7.1-.9.3s-.3.4-.3.7c0 .2 0 .3.1.5s.2.3.4.4.6.4 1.3.7c.9.4 1.6.9 1.9 1.3s.5 1.1.5 1.8zM58.8 54.6l-.4-1h-.1c-.4.4-.7.7-1.1.9s-.9.3-1.5.3c-.7 0-1.3-.2-1.7-.6s-.6-1-.6-1.8.3-1.4.9-1.8 1.4-.6 2.6-.6h1.3v-.3c0-.8-.4-1.2-1.2-1.2-.6 0-1.3.2-2.2.6l-.7-1.4c.9-.5 1.9-.7 2.9-.7s1.8.2 2.4.7.8 1.1.8 2v5.1h-1.4zm-.6-3.6h-.8c-.6 0-1.1.1-1.4.3s-.4.5-.4.9c0 .6.3.9 1 .9.5 0 .9-.1 1.2-.4s.4-.6.4-1.1V51zM70.2 54.6h-2.1v-4.5c0-.6-.1-1-.3-1.2s-.5-.4-.9-.4c-.6 0-1 .2-1.3.6s-.4 1-.4 1.9v3.6h-2.1V47h1.6l.3 1h.1c.2-.4.6-.6 1-.8s.9-.3 1.4-.3c.9 0 1.6.2 2 .7s.7 1.2.7 2.1v4.9zM78.4 52.3c0 .8-.3 1.4-.8 1.8s-1.4.6-2.4.6c-.6 0-1 0-1.4-.1s-.8-.2-1.1-.3v-1.7c.4.2.8.3 1.3.5s.9.2 1.3.2c.8 0 1.1-.2 1.1-.7 0-.2-.1-.3-.2-.4s-.3-.2-.5-.3-.6-.3-1-.5c-.6-.2-1-.5-1.3-.7s-.5-.5-.6-.7-.2-.6-.2-1c0-.7.3-1.2.8-1.6s1.3-.6 2.2-.6c.9 0 1.8.2 2.7.6l-.6 1.5c-.4-.2-.7-.3-1.1-.4s-.7-.2-1-.2c-.6 0-.9.2-.9.5 0 .2.1.3.3.5s.6.3 1.3.6c.6.2 1 .5 1.3.7s.5.5.6.7.2.6.2 1zM85.2 44.6h3.1c1.4 0 2.4.2 3.1.6s1 1 1 1.9c0 .6-.1 1.1-.4 1.5s-.7.6-1.1.7v.1c.6.1 1.1.4 1.4.8s.4.9.4 1.5c0 .9-.3 1.6-1 2.1s-1.6.8-2.7.8h-3.7v-10zm2.1 3.9h1.2c.6 0 1-.1 1.2-.3s.4-.5.4-.9-.1-.7-.4-.8-.7-.2-1.3-.2h-1.1v2.2zm0 1.7v2.6h1.4c.6 0 1-.1 1.3-.3s.4-.6.4-1c0-.8-.6-1.2-1.8-1.2h-1.3zM102.1 50.7c0 1.2-.3 2.2-1 2.9s-1.6 1.1-2.7 1.1c-.7 0-1.4-.2-1.9-.5s-1-.8-1.3-1.4-.5-1.3-.5-2.1c0-1.2.3-2.2 1-2.9s1.6-1 2.7-1c.7 0 1.4.2 1.9.5s1 .8 1.3 1.4.5 1.2.5 2zm-5.3 0c0 .8.1 1.3.4 1.7s.7.6 1.2.6c.6 0 1-.2 1.2-.6s.4-1 .4-1.7c0-.8-.1-1.3-.4-1.7s-.6-.6-1.2-.6-1 .2-1.2.6-.4 1-.4 1.7zM106.6 54.6h-2.1V43.9h2.1v10.7zM111.9 54.7c-.9 0-1.6-.3-2.1-1s-.8-1.7-.8-3 .3-2.2.8-2.9 1.2-1 2.2-1c1 0 1.7.4 2.2 1.1h.1c-.1-.6-.2-1.1-.2-1.5V44h2.1v10.6h-1.6l-.4-1h-.1c-.5.7-1.2 1.1-2.2 1.1zm.7-1.7c.5 0 .9-.2 1.2-.5s.4-.8.4-1.6v-.2c0-.8-.1-1.4-.4-1.8s-.7-.5-1.2-.5-.8.2-1.1.6-.4 1-.4 1.7.1 1.3.4 1.7.7.6 1.1.6z" class="st0"/></svg>