<?xml version="1.0" encoding="utf-8"?>
<!-- Generator: Adobe Illustrator 18.0.0, SVG Export Plug-In . SVG Version: 6.00 Build 0)  -->
<!DOCTYPE svg PUBLIC "-//W3C//DTD SVG 1.1//EN" "http://www.w3.org/Graphics/SVG/1.1/DTD/svg11.dtd">
<svg version="1.1" id="Calque_1" xmlns="http://www.w3.org/2000/svg" xmlns:xlink="http://www.w3.org/1999/xlink" x="0px" y="0px"
	 viewBox="0 0 836.2 35.5" style="enable-background:new 0 0 836.2 35.5;" xml:space="preserve">
<style type="text/css">
	.st0{opacity:0.2;}
	.st1{fill:#A8ADB9;}
</style>
<g class="st0">
	<path class="st1" d="M20,6.5h-7.2v20.6H7.2V6.5H0V1.9h20V6.5z"/>
	<path class="st1" d="M42,27.1h-5.5V16.8c0-2.6-1-4-2.9-4c-1,0-1.8,0.4-2.4,1.1s-0.9,1.7-0.9,2.8v10.3h-5.6V0.4h5.6v11.3h0.1
		c1.4-2.1,3.2-3.1,5.5-3.1c4.1,0,6.1,2.5,6.1,7.4V27.1z"/>
	<path class="st1" d="M64.3,19.7H52.6c0.2,2.6,1.8,3.9,4.9,3.9c2,0,3.7-0.5,5.2-1.4v4c-1.7,0.9-3.8,1.3-6.5,1.3
		c-2.9,0-5.2-0.8-6.8-2.4s-2.4-3.9-2.4-6.7c0-3,0.9-5.4,2.6-7.1s3.9-2.6,6.4-2.6c2.6,0,4.7,0.8,6.1,2.3s2.2,3.7,2.2,6.3V19.7z
		 M59.2,16.2c0-2.6-1-3.9-3.1-3.9c-0.9,0-1.7,0.4-2.3,1.1s-1,1.7-1.2,2.8H59.2z"/>
	<path class="st1" d="M98.8,35.3h-5.6V24.6h-0.1c-1.3,1.9-3.1,2.9-5.5,2.9c-2.3,0-4.1-0.8-5.5-2.4s-2.1-3.8-2.1-6.6
		c0-3,0.8-5.4,2.3-7.2s3.5-2.7,5.9-2.7c2.2,0,3.8,0.8,4.9,2.5h0.1V9.1h5.6V35.3z M93.3,18.5V17c0-1.2-0.3-2.2-1-3s-1.6-1.2-2.6-1.2
		c-1.2,0-2.2,0.5-2.9,1.5s-1.1,2.3-1.1,4c0,1.5,0.3,2.7,1,3.6s1.6,1.3,2.7,1.3c1.2,0,2.1-0.4,2.8-1.3S93.3,19.9,93.3,18.5z"/>
	<path class="st1" d="M122.4,27.1h-5.5v-2.7h-0.1c-1.4,2.1-3.2,3.2-5.5,3.2c-4.2,0-6.3-2.5-6.3-7.6V9.1h5.5v10.4c0,2.5,1,3.8,3,3.8
		c1,0,1.8-0.3,2.4-1s0.9-1.6,0.9-2.8V9.1h5.5V27.1z"/>
	<path class="st1" d="M131.6,6.2c-0.9,0-1.7-0.3-2.3-0.8s-0.9-1.2-0.9-2c0-0.8,0.3-1.5,0.9-2s1.4-0.8,2.3-0.8c0.9,0,1.7,0.3,2.3,0.8
		s0.9,1.2,0.9,2c0,0.8-0.3,1.5-0.9,2.1S132.6,6.2,131.6,6.2z M134.4,27.1h-5.6v-18h5.6V27.1z"/>
	<path class="st1" d="M154.5,26.4c-1.3,0.7-3.1,1.1-5.4,1.1c-2.8,0-5-0.8-6.7-2.5s-2.6-3.8-2.6-6.5c0-3.1,0.9-5.5,2.8-7.2
		s4.3-2.6,7.4-2.6c2.1,0,3.7,0.3,4.6,0.8v4.7c-1.2-0.9-2.5-1.3-3.9-1.3c-1.6,0-2.9,0.5-3.8,1.4s-1.4,2.2-1.4,3.9
		c0,1.6,0.4,2.8,1.3,3.8s2.1,1.4,3.7,1.4c1.4,0,2.7-0.4,4.1-1.3V26.4z"/>
	<path class="st1" d="M178,27.1h-6.7l-5.7-8.9h-0.1v8.9h-5.6V0.4h5.6v17h0.1l5.4-8.3h6.6l-6.5,8.5L178,27.1z"/>
	<path class="st1" d="M199.2,25L199.2,25l-0.1,2.1h-5.6V0.4h5.6v11.4h0.1c1.4-2.1,3.3-3.1,5.9-3.1c2.3,0,4.1,0.8,5.4,2.4
		s1.9,3.8,1.9,6.5c0,3-0.7,5.4-2.2,7.2s-3.4,2.7-5.9,2.7C202,27.5,200.4,26.7,199.2,25z M199.1,17.4v1.8c0,1.2,0.3,2.1,1,2.9
		s1.5,1.1,2.6,1.1c1.3,0,2.2-0.5,2.9-1.5s1-2.4,1-4.2c0-1.5-0.3-2.7-1-3.5s-1.5-1.3-2.7-1.3c-1.1,0-2,0.4-2.8,1.2
		S199.1,16,199.1,17.4z"/>
	<path class="st1" d="M229.5,14.1c-0.7-0.4-1.4-0.5-2.3-0.5c-1.2,0-2.2,0.4-2.8,1.3s-1,2.1-1,3.6v8.6h-5.6v-18h5.6v3.3h0.1
		c0.9-2.4,2.5-3.7,4.7-3.7c0.6,0,1,0.1,1.4,0.2V14.1z"/>
	<path class="st1" d="M242.3,27.5c-3,0-5.4-0.8-7.1-2.5s-2.6-4-2.6-6.8c0-3,0.9-5.3,2.7-7s4.2-2.5,7.2-2.5c3,0,5.3,0.8,7,2.5
		s2.5,3.9,2.5,6.7c0,3-0.9,5.3-2.6,7.1S245.3,27.5,242.3,27.5z M242.4,12.9c-1.3,0-2.3,0.5-3.1,1.4s-1.1,2.2-1.1,3.8
		c0,3.5,1.4,5.2,4.2,5.2c2.7,0,4-1.8,4-5.3C246.5,14.6,245.1,12.9,242.4,12.9z"/>
	<path class="st1" d="M283.6,9.1l-5.2,18h-5.8l-2.7-10.5c-0.2-0.7-0.3-1.5-0.3-2.3h-0.1c-0.1,0.9-0.2,1.7-0.4,2.2l-2.8,10.6h-5.8
		l-5.1-18h5.7l2.5,11.7c0.1,0.6,0.2,1.2,0.3,2h0.1c0.1-0.8,0.2-1.5,0.3-2.1l3.1-11.7h5.3l2.8,11.7c0.1,0.3,0.2,1,0.2,2h0.1
		c0.1-0.7,0.2-1.4,0.3-2l2.3-11.7H283.6z"/>
	<path class="st1" d="M305.4,27.1h-5.5v-10c0-2.8-1-4.2-3-4.2c-1,0-1.8,0.4-2.4,1.1s-0.9,1.7-0.9,2.8v10.3H288v-18h5.6v2.8h0.1
		c1.3-2.2,3.3-3.3,5.8-3.3c4,0,6,2.5,6,7.4V27.1z"/>
	<path class="st1" d="M335.1,4.7c-0.7-0.3-1.4-0.4-2.1-0.4c-1.8,0-2.7,1-2.7,2.9v1.9h4.1v4.1h-4.1v13.9h-5.5V13.2h-3V9.1h3V6.8
		c0-2.1,0.7-3.7,2-5S330,0,332.3,0c1.1,0,2.1,0.1,2.8,0.4V4.7z"/>
	<path class="st1" d="M347.5,27.5c-3,0-5.4-0.8-7.1-2.5s-2.6-4-2.6-6.8c0-3,0.9-5.3,2.7-7s4.2-2.5,7.2-2.5c3,0,5.3,0.8,7,2.5
		s2.5,3.9,2.5,6.7c0,3-0.9,5.3-2.6,7.1S350.6,27.5,347.5,27.5z M347.7,12.9c-1.3,0-2.3,0.5-3.1,1.4s-1.1,2.2-1.1,3.8
		c0,3.5,1.4,5.2,4.2,5.2c2.7,0,4-1.8,4-5.3C351.7,14.6,350.3,12.9,347.7,12.9z"/>
	<path class="st1" d="M379.4,9.1l-5.9,8.7l5.9,9.3H373l-2.6-4.9c-0.2-0.4-0.5-0.9-0.8-1.6h-0.1c-0.2,0.5-0.4,1-0.7,1.6l-2.6,4.9
		h-6.4l6.1-9l-5.7-9h6.4l2.6,5c0.3,0.7,0.6,1.2,0.7,1.7h0.1c0.2-0.6,0.4-1.1,0.8-1.7l2.6-5H379.4z"/>
	<path class="st1" d="M401,26.8c0,2.7-0.7,4.8-2,6.4c-1.3,1.6-3.2,2.4-5.6,2.4c-0.8,0-1.7-0.2-2.7-0.5v-4.4c0.8,0.4,1.5,0.7,2.1,0.7
		c1.7,0,2.6-1.4,2.6-4.1V9.1h5.6V26.8z M398.2,6.2c-0.9,0-1.7-0.3-2.3-0.8s-0.9-1.2-0.9-2c0-0.8,0.3-1.5,0.9-2s1.4-0.8,2.3-0.8
		c0.9,0,1.7,0.3,2.3,0.8s0.9,1.2,0.9,2c0,0.8-0.3,1.5-0.9,2.1S399.2,6.2,398.2,6.2z"/>
	<path class="st1" d="M424.6,27.1H419v-2.7h-0.1c-1.4,2.1-3.2,3.2-5.5,3.2c-4.2,0-6.3-2.5-6.3-7.6V9.1h5.5v10.4c0,2.5,1,3.8,3,3.8
		c1,0,1.8-0.3,2.4-1s0.9-1.6,0.9-2.8V9.1h5.5V27.1z"/>
	<path class="st1" d="M459.6,27.1h-5.5V16.8c0-2.6-1-3.9-2.9-3.9c-0.9,0-1.7,0.4-2.2,1.2s-0.9,1.8-0.9,2.9v10.1h-5.6V16.7
		c0-2.5-0.9-3.8-2.8-3.8c-0.9,0-1.7,0.4-2.3,1.1s-0.9,1.8-0.9,3.1v10H431v-18h5.6v2.8h0.1c0.6-1,1.4-1.7,2.4-2.3s2.2-0.9,3.4-0.9
		c2.5,0,4.3,1.1,5.2,3.4c1.4-2.2,3.4-3.4,6-3.4c3.9,0,5.9,2.4,5.9,7.2V27.1z"/>
	<path class="st1" d="M471.4,25L471.4,25l-0.1,10.4h-5.6V9.1h5.6v2.7h0.1c1.4-2.1,3.3-3.1,5.8-3.1c2.3,0,4.1,0.8,5.4,2.4
		s1.9,3.8,1.9,6.5c0,3-0.7,5.4-2.2,7.2s-3.5,2.7-5.9,2.7C474.2,27.5,472.6,26.7,471.4,25z M471.3,17.6V19c0,1.2,0.3,2.3,1,3
		s1.5,1.2,2.6,1.2c1.3,0,2.2-0.5,2.9-1.5s1-2.4,1-4.2c0-3.2-1.2-4.7-3.7-4.7c-1.1,0-2.1,0.4-2.8,1.3S471.3,16.2,471.3,17.6z"/>
	<path class="st1" d="M488.8,26.6v-4.5c0.9,0.6,1.8,1,2.7,1.2s1.8,0.4,2.6,0.4c1,0,1.8-0.1,2.3-0.4s0.9-0.7,0.9-1.2
		c0-0.4-0.1-0.6-0.4-0.9s-0.6-0.4-1-0.6s-0.8-0.3-1.3-0.5s-0.9-0.3-1.4-0.5c-0.7-0.3-1.3-0.6-1.9-0.9s-1-0.7-1.4-1.1
		s-0.7-0.9-0.8-1.4s-0.3-1.2-0.3-1.9c0-1,0.2-1.9,0.7-2.6s1-1.3,1.8-1.8s1.6-0.8,2.5-1s1.9-0.3,2.9-0.3c0.8,0,1.6,0.1,2.4,0.2
		s1.6,0.3,2.4,0.5v4.3c-0.7-0.4-1.5-0.7-2.3-0.9s-1.6-0.3-2.4-0.3c-0.4,0-0.7,0-1,0.1s-0.6,0.2-0.9,0.3s-0.4,0.3-0.6,0.5
		s-0.2,0.4-0.2,0.7c0,0.3,0.1,0.6,0.3,0.8s0.5,0.4,0.8,0.6s0.7,0.3,1.1,0.5s0.8,0.3,1.2,0.4c0.7,0.3,1.4,0.5,2,0.8s1.1,0.7,1.5,1.1
		s0.8,0.9,1,1.4s0.3,1.2,0.3,2c0,1.1-0.2,2-0.7,2.7s-1.1,1.4-1.8,1.8s-1.7,0.8-2.7,1s-2,0.3-3.1,0.3
		C492.3,27.5,490.5,27.2,488.8,26.6z"/>
	<path class="st1" d="M527.9,27.5c-3,0-5.4-0.8-7.1-2.5s-2.6-4-2.6-6.8c0-3,0.9-5.3,2.7-7s4.2-2.5,7.2-2.5c3,0,5.3,0.8,7,2.5
		s2.5,3.9,2.5,6.7c0,3-0.9,5.3-2.6,7.1S530.9,27.5,527.9,27.5z M528,12.9c-1.3,0-2.3,0.5-3.1,1.4s-1.1,2.2-1.1,3.8
		c0,3.5,1.4,5.2,4.2,5.2c2.7,0,4-1.8,4-5.3C532.1,14.6,530.7,12.9,528,12.9z"/>
	<path class="st1" d="M560.3,9.1l-6.7,18h-6.3l-6.4-18h5.9l3.1,11.1c0.4,1.3,0.6,2.3,0.6,3.2h0.1c0.1-0.8,0.3-1.9,0.7-3.1l3.2-11.2
		H560.3z"/>
	<path class="st1" d="M580.3,19.7h-11.7c0.2,2.6,1.8,3.9,4.9,3.9c2,0,3.7-0.5,5.2-1.4v4c-1.7,0.9-3.8,1.3-6.5,1.3
		c-2.9,0-5.2-0.8-6.8-2.4s-2.4-3.9-2.4-6.7c0-3,0.9-5.4,2.6-7.1s3.9-2.6,6.4-2.6c2.6,0,4.7,0.8,6.1,2.3s2.2,3.7,2.2,6.3V19.7z
		 M575.1,16.2c0-2.6-1-3.9-3.1-3.9c-0.9,0-1.7,0.4-2.3,1.1s-1,1.7-1.2,2.8H575.1z"/>
	<path class="st1" d="M597.1,14.1c-0.7-0.4-1.4-0.5-2.3-0.5c-1.2,0-2.2,0.4-2.8,1.3s-1,2.1-1,3.6v8.6h-5.6v-18h5.6v3.3h0.1
		c0.9-2.4,2.5-3.7,4.7-3.7c0.6,0,1,0.1,1.4,0.2V14.1z"/>
	<path class="st1" d="M624.1,26.9c-0.8,0.4-2.1,0.7-3.7,0.7c-3.9,0-5.9-2-5.9-6.1v-8.2h-2.9V9.1h2.9V5.2l5.5-1.6v5.5h4v4.1h-4v7.3
		c0,1.9,0.7,2.8,2.2,2.8c0.6,0,1.2-0.2,1.8-0.5V26.9z"/>
	<path class="st1" d="M646.3,27.1h-5.5V16.8c0-2.6-1-4-2.9-4c-1,0-1.8,0.4-2.4,1.1s-0.9,1.7-0.9,2.8v10.3H629V0.4h5.6v11.3h0.1
		c1.4-2.1,3.2-3.1,5.5-3.1c4.1,0,6.1,2.5,6.1,7.4V27.1z"/>
	<path class="st1" d="M668.7,19.7h-11.7c0.2,2.6,1.8,3.9,4.9,3.9c2,0,3.7-0.5,5.2-1.4v4c-1.7,0.9-3.8,1.3-6.5,1.3
		c-2.9,0-5.2-0.8-6.8-2.4s-2.4-3.9-2.4-6.7c0-3,0.9-5.4,2.6-7.1s3.9-2.6,6.4-2.6c2.6,0,4.7,0.8,6.1,2.3s2.2,3.7,2.2,6.3V19.7z
		 M663.5,16.2c0-2.6-1-3.9-3.1-3.9c-0.9,0-1.7,0.4-2.3,1.1s-1,1.7-1.2,2.8H663.5z"/>
	<path class="st1" d="M691.1,27.1h-5.6V0.4h5.6V27.1z"/>
	<path class="st1" d="M712.5,27.1h-5.3v-2.6h-0.1c-1.2,2-3,3-5.4,3c-1.7,0-3.1-0.5-4.1-1.5s-1.5-2.3-1.5-4c0-3.5,2.1-5.5,6.2-6
		l4.9-0.7c0-2-1.1-3-3.2-3c-2.1,0-4.2,0.6-6.1,1.9v-4.2c0.8-0.4,1.8-0.8,3.2-1.1s2.6-0.5,3.7-0.5c5.1,0,7.7,2.6,7.7,7.7V27.1z
		 M707.3,19.8v-1.2L704,19c-1.8,0.2-2.7,1-2.7,2.4c0,0.6,0.2,1.2,0.7,1.6s1,0.6,1.8,0.6c1,0,1.9-0.4,2.5-1.1S707.3,20.9,707.3,19.8z
		"/>
	<path class="st1" d="M733,27.1h-16.2v-2.3l9-11.6h-8.1V9.1h15.2v2.7L724.3,23h8.6V27.1z"/>
	<path class="st1" d="M754.9,9.1l-7.3,19.4c-1.8,4.7-4.4,7-7.9,7c-1.3,0-2.5-0.2-3.3-0.5v-4.4c0.7,0.4,1.5,0.7,2.4,0.7
		c1.4,0,2.4-0.7,3-2l0.9-2.2l-7.3-18h6.2l3.4,11c0.2,0.7,0.4,1.5,0.5,2.4h0.1c0.1-0.7,0.3-1.5,0.6-2.4l3.4-11H754.9z"/>
	<path class="st1" d="M788.3,27.1h-5.6v-2.5h-0.1c-1.3,1.9-3.1,2.9-5.6,2.9c-2.2,0-4.1-0.8-5.4-2.4s-2.1-3.8-2.1-6.7
		c0-3,0.8-5.4,2.3-7.2s3.5-2.7,5.9-2.7c2.3,0,3.9,0.8,4.9,2.5h0.1V0.4h5.6V27.1z M782.8,18.3V17c0-1.2-0.3-2.1-1-2.9
		s-1.6-1.2-2.7-1.2c-1.2,0-2.2,0.5-2.9,1.5s-1,2.3-1,4c0,1.6,0.3,2.8,1,3.7s1.6,1.3,2.8,1.3c1.1,0,2-0.5,2.8-1.4
		S782.8,19.8,782.8,18.3z"/>
	<path class="st1" d="M803.3,27.5c-3,0-5.4-0.8-7.1-2.5s-2.6-4-2.6-6.8c0-3,0.9-5.3,2.7-7s4.2-2.5,7.2-2.5c3,0,5.3,0.8,7,2.5
		s2.5,3.9,2.5,6.7c0,3-0.9,5.3-2.6,7.1S806.4,27.5,803.3,27.5z M803.5,12.9c-1.3,0-2.3,0.5-3.1,1.4s-1.1,2.2-1.1,3.8
		c0,3.5,1.4,5.2,4.2,5.2c2.7,0,4-1.8,4-5.3C807.5,14.6,806.2,12.9,803.5,12.9z"/>
	<path class="st1" d="M836.2,25c0,3.3-1,5.9-2.9,7.8c-1.9,1.8-4.7,2.8-8.4,2.8c-2.4,0-4.3-0.3-5.8-1v-4.7c1.9,1.1,3.7,1.6,5.6,1.6
		c1.9,0,3.3-0.5,4.4-1.5s1.5-2.3,1.5-4v-1.4h-0.1c-1.3,2-3.1,3-5.6,3c-2.3,0-4.1-0.8-5.5-2.4s-2-3.8-2-6.5c0-3,0.8-5.5,2.2-7.3
		s3.5-2.7,5.9-2.7c2.2,0,3.8,0.8,4.9,2.5h0.1V9.1h5.6V25z M830.7,18.4V17c0-1.1-0.3-2.1-1-2.9s-1.5-1.2-2.6-1.2
		c-1.2,0-2.2,0.5-2.9,1.4s-1.1,2.3-1.1,4.1c0,1.5,0.3,2.7,1,3.6s1.6,1.3,2.7,1.3c1.1,0,2.1-0.4,2.8-1.3S830.7,19.9,830.7,18.4z"/>
</g>
</svg>
