<?xml version="1.0" encoding="utf-8"?>
<!-- Generator: Adobe Illustrator 18.0.0, SVG Export Plug-In . SVG Version: 6.00 Build 0)  -->
<!DOCTYPE svg PUBLIC "-//W3C//DTD SVG 1.1//EN" "http://www.w3.org/Graphics/SVG/1.1/DTD/svg11.dtd">
<svg version="1.1" id="Calque_1" xmlns="http://www.w3.org/2000/svg" xmlns:xlink="http://www.w3.org/1999/xlink" x="0px" y="0px"
	 viewBox="0 0 116.5 57.5" style="enable-background:new 0 0 116.5 57.5;" xml:space="preserve">
<style type="text/css">
	.st0{fill:#004459;}
</style>
<g>
	<g>
		<path class="st0" d="M13.1,14.7h-1.9l-1.6-4.1H3.4l-1.5,4.1H0L5.6,0h1.8L13.1,14.7z M9.1,9L6.7,2.8c-0.1-0.2-0.2-0.5-0.2-1h0
			c-0.1,0.4-0.1,0.7-0.2,1L4,9H9.1z"/>
		<path class="st0" d="M23.6,14.7h-1.7v-1.6h0c-0.7,1.3-1.8,1.9-3.2,1.9c-1,0-1.9-0.3-2.5-0.8s-0.9-1.3-0.9-2.2c0-2,1.2-3.1,3.5-3.4
			L21.9,8c0-1.8-0.7-2.7-2.2-2.7c-1.3,0-2.4,0.4-3.4,1.3V4.9c1-0.7,2.2-1,3.6-1c2.5,0,3.7,1.3,3.7,3.9V14.7z M21.9,9.4l-2.5,0.3
			c-0.8,0.1-1.4,0.3-1.8,0.6c-0.4,0.3-0.6,0.8-0.6,1.5c0,0.5,0.2,0.9,0.5,1.3c0.4,0.3,0.9,0.5,1.5,0.5c0.8,0,1.5-0.3,2.1-0.9
			c0.5-0.6,0.8-1.3,0.8-2.2V9.4z"/>
	</g>
	<g>
		<path class="st0" d="M0.5,36.3V35c0.2,0.1,0.3,0.3,0.6,0.4s0.4,0.2,0.7,0.3s0.5,0.1,0.7,0.2s0.5,0.1,0.7,0.1
			c0.7,0,1.2-0.1,1.6-0.4s0.5-0.6,0.5-1.1c0-0.3-0.1-0.5-0.2-0.7s-0.3-0.4-0.5-0.5s-0.4-0.3-0.7-0.5s-0.6-0.3-0.9-0.5
			c-0.3-0.2-0.7-0.3-1-0.5S1.4,31.3,1.2,31s-0.4-0.5-0.5-0.7s-0.2-0.6-0.2-1c0-0.4,0.1-0.8,0.3-1.2s0.5-0.6,0.8-0.8s0.7-0.4,1.1-0.5
			s0.8-0.2,1.2-0.2c1,0,1.7,0.1,2.1,0.3v1.3c-0.6-0.4-1.3-0.6-2.2-0.6c-0.3,0-0.5,0-0.8,0.1S2.6,28,2.4,28.1S2,28.4,1.9,28.6
			S1.7,29,1.7,29.3c0,0.3,0,0.5,0.1,0.6s0.2,0.3,0.4,0.5s0.4,0.3,0.7,0.4s0.6,0.3,0.9,0.5c0.4,0.2,0.7,0.4,1,0.5
			c0.3,0.2,0.6,0.4,0.8,0.6s0.4,0.5,0.6,0.8s0.2,0.6,0.2,1c0,0.5-0.1,0.9-0.3,1.2s-0.4,0.6-0.8,0.8s-0.7,0.4-1.1,0.5
			s-0.9,0.1-1.3,0.1c-0.2,0-0.3,0-0.6,0s-0.5-0.1-0.7-0.1S1.2,36.6,1,36.5S0.6,36.4,0.5,36.3z"/>
		<path class="st0" d="M14.5,33.5H9.6c0,0.8,0.2,1.4,0.6,1.8s1,0.6,1.7,0.6c0.8,0,1.5-0.3,2.2-0.8v1.1c-0.6,0.4-1.4,0.7-2.4,0.7
			c-1,0-1.8-0.3-2.3-1s-0.8-1.5-0.8-2.7c0-1.1,0.3-2,0.9-2.7s1.4-1,2.3-1s1.6,0.3,2.1,0.9s0.8,1.4,0.8,2.5V33.5z M13.4,32.5
			c0-0.6-0.2-1.2-0.5-1.5s-0.7-0.5-1.3-0.5c-0.5,0-1,0.2-1.3,0.6s-0.6,0.9-0.7,1.5H13.4z"/>
		<path class="st0" d="M22.9,36.1c0,2.6-1.2,3.9-3.7,3.9c-0.9,0-1.6-0.2-2.3-0.5v-1.1c0.8,0.4,1.5,0.7,2.3,0.7
			c1.7,0,2.6-0.9,2.6-2.7v-0.8h0c-0.5,0.9-1.3,1.3-2.4,1.3c-0.9,0-1.6-0.3-2.1-0.9s-0.8-1.5-0.8-2.5c0-1.2,0.3-2.1,0.9-2.8
			s1.4-1.1,2.3-1.1c0.9,0,1.6,0.4,2.1,1.1h0v-1h1.1V36.1z M21.8,33.5v-1c0-0.6-0.2-1-0.6-1.4s-0.8-0.6-1.4-0.6
			c-0.7,0-1.2,0.3-1.6,0.8s-0.6,1.2-0.6,2.1c0,0.8,0.2,1.4,0.6,1.9s0.9,0.7,1.5,0.7c0.6,0,1.1-0.2,1.5-0.7S21.8,34.2,21.8,33.5z"/>
		<path class="st0" d="M28.8,36.9c-1,0-1.9-0.3-2.5-1s-0.9-1.5-0.9-2.6c0-1.2,0.3-2.1,1-2.8s1.5-1,2.6-1c1,0,1.9,0.3,2.4,1
			s0.9,1.5,0.9,2.7c0,1.1-0.3,2-0.9,2.7S29.9,36.9,28.8,36.9z M28.9,30.5c-0.7,0-1.3,0.2-1.7,0.7s-0.6,1.2-0.6,2
			c0,0.8,0.2,1.5,0.6,2s1,0.7,1.7,0.7c0.7,0,1.3-0.2,1.7-0.7s0.6-1.1,0.6-2c0-0.9-0.2-1.5-0.6-2S29.6,30.5,28.9,30.5z"/>
		<path class="st0" d="M40.4,33.5h-4.9c0,0.8,0.2,1.4,0.6,1.8s1,0.6,1.7,0.6c0.8,0,1.5-0.3,2.2-0.8v1.1c-0.6,0.4-1.4,0.7-2.4,0.7
			c-1,0-1.8-0.3-2.3-1s-0.8-1.5-0.8-2.7c0-1.1,0.3-2,0.9-2.7s1.4-1,2.3-1s1.6,0.3,2.1,0.9s0.8,1.4,0.8,2.5V33.5z M39.3,32.5
			c0-0.6-0.2-1.2-0.5-1.5s-0.7-0.5-1.3-0.5c-0.5,0-1,0.2-1.3,0.6s-0.6,0.9-0.7,1.5H39.3z"/>
		<path class="st0" d="M54.7,32.7c0,2.8-1.2,4.1-3.7,4.1c-2.4,0-3.6-1.3-3.6-4v-6h1.1v5.9c0,2,0.8,3,2.5,3c1.6,0,2.5-1,2.5-2.9v-6
			h1.1V32.7z"/>
		<path class="st0" d="M59.9,26.9v1h-1v7.8h1v1h-3.1v-1h1v-7.8h-1v-1H59.9z"/>
		<path class="st0" d="M73.8,36.7h-1.4L70.8,34c-0.2-0.3-0.3-0.5-0.4-0.7s-0.3-0.3-0.4-0.4s-0.3-0.2-0.5-0.2s-0.4-0.1-0.6-0.1h-0.9
			v4.2h-1.1v-9.8h2.9c0.4,0,0.8,0.1,1.2,0.2s0.7,0.3,0.9,0.5s0.5,0.5,0.6,0.8s0.2,0.7,0.2,1.1c0,0.3-0.1,0.7-0.2,0.9
			s-0.2,0.5-0.4,0.8s-0.4,0.4-0.7,0.6s-0.6,0.3-0.9,0.4v0c0.2,0.1,0.3,0.2,0.4,0.2s0.2,0.2,0.3,0.3s0.2,0.3,0.3,0.4s0.2,0.3,0.4,0.6
			L73.8,36.7z M67.9,27.9v3.6h1.6c0.3,0,0.6,0,0.8-0.1s0.5-0.2,0.6-0.4s0.3-0.4,0.4-0.6s0.2-0.5,0.2-0.8c0-0.5-0.2-0.9-0.5-1.2
			s-0.8-0.4-1.5-0.4H67.9z"/>
		<path class="st0" d="M80.9,33.5H76c0,0.8,0.2,1.4,0.6,1.8s1,0.6,1.7,0.6c0.8,0,1.5-0.3,2.2-0.8v1.1c-0.6,0.4-1.4,0.7-2.4,0.7
			c-1,0-1.8-0.3-2.3-1s-0.8-1.5-0.8-2.7c0-1.1,0.3-2,0.9-2.7s1.4-1,2.3-1s1.6,0.3,2.1,0.9s0.8,1.4,0.8,2.5V33.5z M79.8,32.5
			c0-0.6-0.2-1.2-0.5-1.5s-0.7-0.5-1.3-0.5c-0.5,0-1,0.2-1.3,0.6s-0.6,0.9-0.7,1.5H79.8z"/>
		<path class="st0" d="M89.3,36.1c0,2.6-1.2,3.9-3.7,3.9c-0.9,0-1.6-0.2-2.3-0.5v-1.1c0.8,0.4,1.5,0.7,2.3,0.7
			c1.7,0,2.6-0.9,2.6-2.7v-0.8h0c-0.5,0.9-1.3,1.3-2.4,1.3c-0.9,0-1.6-0.3-2.1-0.9s-0.8-1.5-0.8-2.5c0-1.2,0.3-2.1,0.9-2.8
			s1.4-1.1,2.3-1.1c0.9,0,1.6,0.4,2.1,1.1h0v-1h1.1V36.1z M88.2,33.5v-1c0-0.6-0.2-1-0.6-1.4s-0.8-0.6-1.4-0.6
			c-0.7,0-1.2,0.3-1.6,0.8S84,32.4,84,33.4c0,0.8,0.2,1.4,0.6,1.9s0.9,0.7,1.5,0.7c0.6,0,1.1-0.2,1.5-0.7S88.2,34.2,88.2,33.5z"/>
		<path class="st0" d="M97.9,36.7h-1.1v-1.1h0c-0.5,0.8-1.2,1.3-2.2,1.3c-1.7,0-2.5-1-2.5-3v-4.2h1.1v4c0,1.5,0.6,2.2,1.7,2.2
			c0.5,0,1-0.2,1.4-0.6s0.5-0.9,0.5-1.6v-4h1.1V36.7z"/>
		<path class="st0" d="M102,36.7h-1.1V26.3h1.1V36.7z"/>
		<path class="st0" d="M110,36.7h-1.1v-1.1h0c-0.5,0.8-1.2,1.3-2.2,1.3c-0.7,0-1.2-0.2-1.6-0.6s-0.6-0.9-0.6-1.5
			c0-1.3,0.8-2.1,2.3-2.3l2.1-0.3c0-1.2-0.5-1.8-1.4-1.8c-0.8,0-1.6,0.3-2.3,0.9v-1.1c0.7-0.4,1.5-0.7,2.4-0.7
			c1.6,0,2.5,0.9,2.5,2.6V36.7z M108.9,33.2l-1.7,0.2c-0.5,0.1-0.9,0.2-1.2,0.4s-0.4,0.5-0.4,1c0,0.3,0.1,0.6,0.4,0.8s0.6,0.3,1,0.3
			c0.6,0,1-0.2,1.4-0.6s0.5-0.9,0.5-1.5V33.2z"/>
		<path class="st0" d="M116.5,30.8c-0.2-0.2-0.5-0.2-0.8-0.2c-0.5,0-0.9,0.2-1.2,0.7s-0.5,1.1-0.5,1.8v3.6h-1.1v-7h1.1v1.4h0
			c0.2-0.5,0.4-0.9,0.7-1.2s0.7-0.4,1.1-0.4c0.3,0,0.5,0,0.7,0.1V30.8z"/>
	</g>
	<g>
		<path class="st0" d="M0.3,53.8v-2.2c0.4,0.3,0.8,0.6,1.3,0.7s0.9,0.2,1.4,0.2c0.3,0,0.5,0,0.7-0.1s0.4-0.1,0.5-0.2
			s0.2-0.2,0.3-0.3s0.1-0.3,0.1-0.4c0-0.2-0.1-0.4-0.2-0.5s-0.3-0.3-0.4-0.4s-0.4-0.3-0.7-0.4S2.9,50.1,2.6,50
			c-0.8-0.3-1.3-0.7-1.7-1.2s-0.6-1-0.6-1.7c0-0.5,0.1-0.9,0.3-1.3s0.5-0.7,0.8-0.9s0.8-0.4,1.2-0.5s1-0.2,1.5-0.2
			c0.5,0,1,0,1.4,0.1s0.8,0.2,1.1,0.3v2c-0.2-0.1-0.3-0.2-0.5-0.3s-0.4-0.2-0.6-0.2S5,46,4.8,46s-0.4,0-0.6,0C4,46,3.8,46,3.6,46
			S3.2,46.2,3,46.2s-0.3,0.2-0.3,0.3S2.6,46.8,2.6,47c0,0.2,0,0.3,0.1,0.4s0.2,0.3,0.4,0.4s0.4,0.2,0.6,0.3s0.5,0.2,0.8,0.3
			c0.4,0.2,0.7,0.3,1.1,0.5s0.6,0.4,0.8,0.6s0.4,0.5,0.5,0.8s0.2,0.6,0.2,1c0,0.5-0.1,1-0.3,1.4s-0.5,0.7-0.8,0.9s-0.8,0.4-1.2,0.5
			s-1,0.2-1.5,0.2c-0.5,0-1,0-1.5-0.1S0.7,54,0.3,53.8z"/>
		<path class="st0" d="M15.4,51.3h-4.6c0.1,1,0.7,1.5,1.9,1.5c0.8,0,1.4-0.2,2-0.5v1.6c-0.6,0.3-1.5,0.5-2.5,0.5
			c-1.1,0-2-0.3-2.6-0.9s-0.9-1.5-0.9-2.6c0-1.2,0.3-2.1,1-2.8s1.5-1,2.5-1c1,0,1.8,0.3,2.4,0.9s0.8,1.4,0.8,2.5V51.3z M13.4,50
			c0-1-0.4-1.5-1.2-1.5c-0.3,0-0.6,0.1-0.9,0.4s-0.4,0.6-0.5,1.1H13.4z"/>
		<path class="st0" d="M24.2,53.4c0,1.3-0.4,2.3-1.1,3s-1.8,1.1-3.3,1.1c-0.9,0-1.7-0.1-2.2-0.4v-1.8c0.7,0.4,1.4,0.6,2.2,0.6
			c0.7,0,1.3-0.2,1.7-0.6s0.6-0.9,0.6-1.6v-0.6h0c-0.5,0.8-1.2,1.2-2.2,1.2c-0.9,0-1.6-0.3-2.1-0.9S17,52,17,50.9
			c0-1.2,0.3-2.1,0.9-2.8s1.4-1,2.3-1c0.9,0,1.5,0.3,1.9,1h0v-0.8h2.2V53.4z M22.1,50.8v-0.6c0-0.4-0.1-0.8-0.4-1.1s-0.6-0.5-1-0.5
			c-0.5,0-0.9,0.2-1.1,0.6s-0.4,0.9-0.4,1.6c0,0.6,0.1,1,0.4,1.4s0.6,0.5,1.1,0.5c0.4,0,0.8-0.2,1.1-0.5S22.1,51.4,22.1,50.8z"/>
		<path class="st0" d="M30.1,54.4c-1.2,0-2.1-0.3-2.8-1s-1-1.5-1-2.7c0-1.2,0.3-2.1,1-2.7s1.6-1,2.8-1c1.2,0,2.1,0.3,2.7,1
			s1,1.5,1,2.6c0,1.2-0.3,2.1-1,2.8S31.3,54.4,30.1,54.4z M30.1,48.7c-0.5,0-0.9,0.2-1.2,0.5s-0.4,0.8-0.4,1.5c0,1.3,0.5,2,1.6,2
			c1,0,1.6-0.7,1.6-2.1C31.7,49.3,31.2,48.7,30.1,48.7z"/>
		<path class="st0" d="M42.3,51.3h-4.6c0.1,1,0.7,1.5,1.9,1.5c0.8,0,1.4-0.2,2-0.5v1.6c-0.6,0.3-1.5,0.5-2.5,0.5
			c-1.1,0-2-0.3-2.6-0.9s-0.9-1.5-0.9-2.6c0-1.2,0.3-2.1,1-2.8s1.5-1,2.5-1c1,0,1.8,0.3,2.4,0.9s0.8,1.4,0.8,2.5V51.3z M40.3,50
			c0-1-0.4-1.5-1.2-1.5c-0.3,0-0.6,0.1-0.9,0.4s-0.4,0.6-0.5,1.1H40.3z"/>
		<path class="st0" d="M57,50c0,2.9-1.4,4.4-4.1,4.4c-2.7,0-4-1.4-4-4.3v-5.7h2.2v5.7c0,1.6,0.6,2.4,1.9,2.4c1.2,0,1.8-0.8,1.8-2.3
			v-5.8H57V50z"/>
		<path class="st0" d="M62.9,44.4v1.7h-0.8v6.4h0.8v1.7h-3.8v-1.7h0.8v-6.4h-0.8v-1.7H62.9z"/>
		<path class="st0" d="M69.6,54.2v-9.8h3.6c1.1,0,1.9,0.2,2.5,0.6s0.9,1,0.9,1.7c0,0.5-0.2,1-0.5,1.4s-0.8,0.7-1.4,0.8v0
			c0.7,0.1,1.3,0.3,1.7,0.8s0.6,1,0.6,1.6c0,0.9-0.3,1.6-1,2.1s-1.5,0.8-2.6,0.8H69.6z M71.8,46v2.3h1c0.5,0,0.8-0.1,1.1-0.3
			s0.4-0.5,0.4-0.9c0-0.7-0.5-1.1-1.6-1.1H71.8z M71.8,50v2.6H73c0.5,0,0.9-0.1,1.2-0.4s0.4-0.6,0.4-1c0-0.4-0.1-0.7-0.4-0.9
			S73.5,50,73,50H71.8z"/>
		<path class="st0" d="M82.4,54.4c-1.2,0-2.1-0.3-2.8-1s-1-1.5-1-2.7c0-1.2,0.3-2.1,1-2.7s1.6-1,2.8-1c1.2,0,2.1,0.3,2.7,1
			s1,1.5,1,2.6c0,1.2-0.3,2.1-1,2.8S83.6,54.4,82.4,54.4z M82.4,48.7c-0.5,0-0.9,0.2-1.2,0.5s-0.4,0.8-0.4,1.5c0,1.3,0.5,2,1.6,2
			c1,0,1.6-0.7,1.6-2.1C84,49.3,83.5,48.7,82.4,48.7z"/>
		<path class="st0" d="M90.5,54.2h-2.2V43.8h2.2V54.2z"/>
		<path class="st0" d="M99.8,54.2h-2.2v-1h0c-0.5,0.8-1.2,1.1-2.2,1.1c-0.9,0-1.6-0.3-2.1-0.9s-0.8-1.5-0.8-2.6
			c0-1.2,0.3-2.1,0.9-2.8s1.4-1,2.3-1c0.9,0,1.5,0.3,1.9,1h0v-4.2h2.2V54.2z M97.7,50.8v-0.5c0-0.5-0.1-0.8-0.4-1.1s-0.6-0.5-1-0.5
			c-0.5,0-0.9,0.2-1.1,0.6s-0.4,0.9-0.4,1.5c0,0.6,0.1,1.1,0.4,1.4s0.6,0.5,1.1,0.5c0.4,0,0.8-0.2,1.1-0.5S97.7,51.4,97.7,50.8z"/>
	</g>
</g>
</svg>
