<svg xmlns="http://www.w3.org/2000/svg" viewBox="0 0 116.5 57.5" enable-background="new 0 0 116.5 57.5"><style type="text/css">.st0{fill:#004459;}</style><path d="M13.1 14.7h-1.9l-1.6-4.1H3.4l-1.5 4.1H0L5.6 0h1.8l5.7 14.7zM9.1 9L6.7 2.8c-.1-.2-.2-.5-.2-1-.1.4-.1.7-.2 1L4 9h5.1zm14.5 5.7h-1.7v-1.6c-.7 1.3-1.8 1.9-3.2 1.9-1 0-1.9-.3-2.5-.8s-.9-1.3-.9-2.2c0-2 1.2-3.1 3.5-3.4l3.1-.6c0-1.8-.7-2.7-2.2-2.7-1.3 0-2.4.4-3.4 1.3V4.9c1-.7 2.2-1 3.6-1 2.5 0 3.7 1.3 3.7 3.9v6.9zm-1.7-5.3l-2.5.3c-.8.1-1.4.3-1.8.6-.4.3-.6.8-.6 1.5 0 .5.2.9.5 1.3.4.3.9.5 1.5.5.8 0 1.5-.3 2.1-.9.5-.6.8-1.3.8-2.2V9.4zM.5 36.3V35c.2.1.3.3.6.4s.4.2.7.3.5.1.7.2.5.1.7.1c.7 0 1.2-.1 1.6-.4s.5-.6.5-1.1c0-.3-.1-.5-.2-.7s-.3-.4-.5-.5-.4-.3-.7-.5-.6-.3-.9-.5c-.3-.2-.7-.3-1-.5s-.6-.5-.8-.8-.4-.5-.5-.7-.2-.6-.2-1 .1-.8.3-1.2.5-.6.8-.8.7-.4 1.1-.5.8-.2 1.2-.2c1 0 1.7.1 2.1.3v1.3c-.6-.4-1.3-.6-2.2-.6-.3 0-.5 0-.8.1s-.4.3-.6.4-.4.3-.5.5-.2.4-.2.7c0 .3 0 .5.1.6s.2.3.4.5.4.3.7.4.6.3.9.5c.4.2.7.4 1 .5.3.2.6.4.8.6s.4.5.6.8.2.6.2 1c0 .5-.1.9-.3 1.2s-.4.6-.8.8-.7.4-1.1.5-.9.1-1.3.1c-.2 0-.3 0-.6 0s-.5-.1-.7-.1-.4-.1-.6-.2-.4-.1-.5-.2zm14-2.8H9.6c0 .8.2 1.4.6 1.8s1 .6 1.7.6c.8 0 1.5-.3 2.2-.8v1.1c-.6.4-1.4.7-2.4.7s-1.8-.3-2.3-1-.8-1.5-.8-2.7c0-1.1.3-2 .9-2.7s1.4-1 2.3-1 1.6.3 2.1.9.8 1.4.8 2.5v.6zm-1.1-1c0-.6-.2-1.2-.5-1.5s-.7-.5-1.3-.5c-.5 0-1 .2-1.3.6s-.6.9-.7 1.5h3.8zm9.5 3.6c0 2.6-1.2 3.9-3.7 3.9-.9 0-1.6-.2-2.3-.5v-1.1c.8.4 1.5.7 2.3.7 1.7 0 2.6-.9 2.6-2.7v-.8c-.5.9-1.3 1.3-2.4 1.3-.9 0-1.6-.3-2.1-.9s-.8-1.5-.8-2.5c0-1.2.3-2.1.9-2.8s1.4-1.1 2.3-1.1c.9 0 1.6.4 2.1 1.1v-1h1.1v6.4zm-1.1-2.6v-1c0-.6-.2-1-.6-1.4s-.8-.6-1.4-.6c-.7 0-1.2.3-1.6.8s-.6 1.2-.6 2.1c0 .8.2 1.4.6 1.9s.9.7 1.5.7 1.1-.2 1.5-.7.6-1.1.6-1.8zm7 3.4c-1 0-1.9-.3-2.5-1s-.9-1.5-.9-2.6c0-1.2.3-2.1 1-2.8s1.5-1 2.6-1c1 0 1.9.3 2.4 1s.9 1.5.9 2.7c0 1.1-.3 2-.9 2.7s-1.5 1-2.6 1zm.1-6.4c-.7 0-1.3.2-1.7.7s-.6 1.2-.6 2 .2 1.5.6 2 1 .7 1.7.7 1.3-.2 1.7-.7.6-1.1.6-2c0-.9-.2-1.5-.6-2s-1-.7-1.7-.7zm11.5 3h-4.9c0 .8.2 1.4.6 1.8s1 .6 1.7.6c.8 0 1.5-.3 2.2-.8v1.1c-.6.4-1.4.7-2.4.7s-1.8-.3-2.3-1-.8-1.5-.8-2.7c0-1.1.3-2 .9-2.7s1.4-1 2.3-1 1.6.3 2.1.9.8 1.4.8 2.5v.6zm-1.1-1c0-.6-.2-1.2-.5-1.5s-.7-.5-1.3-.5c-.5 0-1 .2-1.3.6s-.6.9-.7 1.5h3.8zm15.4.2c0 2.8-1.2 4.1-3.7 4.1-2.4 0-3.6-1.3-3.6-4v-6h1.1v5.9c0 2 .8 3 2.5 3 1.6 0 2.5-1 2.5-2.9v-6h1.1v5.9zm5.2-5.8v1h-1v7.8h1v1h-3.1v-1h1v-7.8h-1v-1h3.1zm13.9 9.8h-1.4L70.8 34c-.2-.3-.3-.5-.4-.7s-.3-.3-.4-.4-.3-.2-.5-.2-.4-.1-.6-.1H68v4.2h-1.1V27h2.9c.4 0 .8.1 1.2.2s.7.3.9.5.5.5.6.8.2.7.2 1.1c0 .3-.1.7-.2.9s-.2.5-.4.8-.4.4-.7.6-.6.3-.9.4c.2.1.3.2.4.2s.2.2.3.3.2.3.3.4.2.3.4.6l1.9 2.9zm-5.9-8.8v3.6h1.6c.3 0 .6 0 .8-.1s.5-.2.6-.4.3-.4.4-.6.2-.5.2-.8c0-.5-.2-.9-.5-1.2s-.8-.4-1.5-.4h-1.6zm13 5.6H76c0 .8.2 1.4.6 1.8s1 .6 1.7.6c.8 0 1.5-.3 2.2-.8v1.1c-.6.4-1.4.7-2.4.7s-1.8-.3-2.3-1-.8-1.5-.8-2.7c0-1.1.3-2 .9-2.7s1.4-1 2.3-1 1.6.3 2.1.9.8 1.4.8 2.5v.6zm-1.1-1c0-.6-.2-1.2-.5-1.5s-.7-.5-1.3-.5c-.5 0-1 .2-1.3.6s-.6.9-.7 1.5h3.8zm9.5 3.6c0 2.6-1.2 3.9-3.7 3.9-.9 0-1.6-.2-2.3-.5v-1.1c.8.4 1.5.7 2.3.7 1.7 0 2.6-.9 2.6-2.7v-.8c-.5.9-1.3 1.3-2.4 1.3-.9 0-1.6-.3-2.1-.9s-.8-1.5-.8-2.5c0-1.2.3-2.1.9-2.8s1.4-1.1 2.3-1.1c.9 0 1.6.4 2.1 1.1v-1h1.1v6.4zm-1.1-2.6v-1c0-.6-.2-1-.6-1.4s-.8-.6-1.4-.6c-.7 0-1.2.3-1.6.8s-.6 1.1-.6 2.1c0 .8.2 1.4.6 1.9s.9.7 1.5.7 1.1-.2 1.5-.7.6-1.1.6-1.8zm9.7 3.2h-1.1v-1.1c-.5.8-1.2 1.3-2.2 1.3-1.7 0-2.5-1-2.5-3v-4.2h1.1v4c0 1.5.6 2.2 1.7 2.2.5 0 1-.2 1.4-.6s.5-.9.5-1.6v-4h1.1v7zm4.1 0h-1.1V26.3h1.1v10.4zm8 0h-1.1v-1.1c-.5.8-1.2 1.3-2.2 1.3-.7 0-1.2-.2-1.6-.6s-.6-.9-.6-1.5c0-1.3.8-2.1 2.3-2.3l2.1-.3c0-1.2-.5-1.8-1.4-1.8-.8 0-1.6.3-2.3.9v-1.1c.7-.4 1.5-.7 2.4-.7 1.6 0 2.5.9 2.5 2.6v4.6zm-1.1-3.5l-1.7.2c-.5.1-.9.2-1.2.4s-.4.5-.4 1c0 .3.1.6.4.8s.6.3 1 .3c.6 0 1-.2 1.4-.6s.5-.9.5-1.5v-.6zm7.6-2.4c-.2-.2-.5-.2-.8-.2-.5 0-.9.2-1.2.7s-.5 1.1-.5 1.8v3.6h-1.1v-7h1.1v1.4c.2-.5.4-.9.7-1.2s.7-.4 1.1-.4c.3 0 .5 0 .7.1v1.2zM.3 53.8v-2.2c.4.3.8.6 1.3.7s.9.2 1.4.2c.3 0 .5 0 .7-.1s.4-.1.5-.2.2-.2.3-.3.1-.3.1-.4c0-.2-.1-.4-.2-.5s-.3-.3-.4-.4-.4-.3-.7-.4-.4-.1-.7-.2c-.8-.3-1.3-.7-1.7-1.2s-.6-1-.6-1.7c0-.5.1-.9.3-1.3s.5-.7.8-.9.8-.4 1.2-.5 1-.2 1.5-.2 1 0 1.4.1.8.2 1.1.3v2c-.2-.1-.3-.2-.5-.3s-.4-.2-.6-.2-.5-.1-.7-.1-.4 0-.6 0c-.2 0-.4 0-.6 0s-.4.2-.6.2-.3.2-.3.3-.1.3-.1.5 0 .3.1.4.2.3.4.4.4.2.6.3.5.2.8.3c.4.2.7.3 1.1.5s.6.4.8.6.4.5.5.8.2.6.2 1c0 .5-.1 1-.3 1.4s-.5.7-.8.9-.8.4-1.2.5-1 .2-1.5.2-1 0-1.5-.1-1.1-.2-1.5-.4zm15.1-2.5h-4.6c.1 1 .7 1.5 1.9 1.5.8 0 1.4-.2 2-.5v1.6c-.6.3-1.5.5-2.5.5-1.1 0-2-.3-2.6-.9s-.9-1.5-.9-2.6c0-1.2.3-2.1 1-2.8s1.5-1 2.5-1 1.8.3 2.4.9.8 1.4.8 2.5v.8zm-2-1.3c0-1-.4-1.5-1.2-1.5-.3 0-.6.1-.9.4s-.4.6-.5 1.1h2.6zm10.8 3.4c0 1.3-.4 2.3-1.1 3s-1.8 1.1-3.3 1.1c-.9 0-1.7-.1-2.2-.4v-1.8c.7.4 1.4.6 2.2.6.7 0 1.3-.2 1.7-.6s.6-.9.6-1.6v-.6c-.5.8-1.2 1.2-2.2 1.2-.9 0-1.6-.3-2.1-.9S17 52 17 50.9c0-1.2.3-2.1.9-2.8s1.4-1 2.3-1c.9 0 1.5.3 1.9 1v-.8h2.2v6.1zm-2.1-2.6v-.6c0-.4-.1-.8-.4-1.1s-.6-.5-1-.5c-.5 0-.9.2-1.1.6s-.4.9-.4 1.6c0 .6.1 1 .4 1.4s.6.5 1.1.5c.4 0 .8-.2 1.1-.5s.3-.8.3-1.4zm8 3.6c-1.2 0-2.1-.3-2.8-1s-1-1.5-1-2.7c0-1.2.3-2.1 1-2.7s1.6-1 2.8-1c1.2 0 2.1.3 2.7 1s1 1.5 1 2.6c0 1.2-.3 2.1-1 2.8s-1.5 1-2.7 1zm0-5.7c-.5 0-.9.2-1.2.5s-.4.8-.4 1.5c0 1.3.5 2 1.6 2 1 0 1.6-.7 1.6-2.1 0-1.3-.5-1.9-1.6-1.9zm12.2 2.6h-4.6c.1 1 .7 1.5 1.9 1.5.8 0 1.4-.2 2-.5v1.6c-.6.3-1.5.5-2.5.5-1.1 0-2-.3-2.6-.9s-.9-1.5-.9-2.6c0-1.2.3-2.1 1-2.8s1.5-1 2.5-1 1.8.3 2.4.9.8 1.4.8 2.5v.8zm-2-1.3c0-1-.4-1.5-1.2-1.5-.3 0-.6.1-.9.4s-.4.6-.5 1.1h2.6zM57 50c0 2.9-1.4 4.4-4.1 4.4-2.7 0-4-1.4-4-4.3v-5.7h2.2v5.7c0 1.6.6 2.4 1.9 2.4 1.2 0 1.8-.8 1.8-2.3v-5.8H57V50zm5.9-5.6v1.7h-.8v6.4h.8v1.7h-3.8v-1.7h.8v-6.4h-.8v-1.7h3.8zm6.7 9.8v-9.8h3.6c1.1 0 1.9.2 2.5.6s.9 1 .9 1.7c0 .5-.2 1-.5 1.4s-.8.7-1.4.8c.7.1 1.3.3 1.7.8s.6 1 .6 1.6c0 .9-.3 1.6-1 2.1s-1.5.8-2.6.8h-3.8zm2.2-8.2v2.3h1c.5 0 .8-.1 1.1-.3s.4-.5.4-.9c0-.7-.5-1.1-1.6-1.1h-.9zm0 4v2.6H73c.5 0 .9-.1 1.2-.4s.4-.6.4-1-.1-.7-.4-.9-.7-.3-1.2-.3h-1.2zm10.6 4.4c-1.2 0-2.1-.3-2.8-1s-1-1.5-1-2.7c0-1.2.3-2.1 1-2.7s1.6-1 2.8-1c1.2 0 2.1.3 2.7 1s1 1.5 1 2.6c0 1.2-.3 2.1-1 2.8s-1.5 1-2.7 1zm0-5.7c-.5 0-.9.2-1.2.5s-.4.8-.4 1.5c0 1.3.5 2 1.6 2 1 0 1.6-.7 1.6-2.1 0-1.3-.5-1.9-1.6-1.9zm8.1 5.5h-2.2V43.8h2.2v10.4zm9.3 0h-2.2v-1c-.5.8-1.2 1.1-2.2 1.1-.9 0-1.6-.3-2.1-.9s-.8-1.5-.8-2.6c0-1.2.3-2.1.9-2.8s1.4-1 2.3-1c.9 0 1.5.3 1.9 1v-4.2h2.2v10.4zm-2.1-3.4v-.5c0-.5-.1-.8-.4-1.1s-.6-.5-1-.5c-.5 0-.9.2-1.1.6s-.4.9-.4 1.5.1 1.1.4 1.4.6.5 1.1.5c.4 0 .8-.2 1.1-.5s.3-.8.3-1.4z" class="st0"/></svg>