<svg xmlns="http://www.w3.org/2000/svg" viewBox="0 0 836.2 35.5" enable-background="new 0 0 836.2 35.5"><style type="text/css">.st0{opacity:0.2;} .st1{fill:#A8ADB9;}</style><path d="M20 6.5h-7.2v20.6H7.2V6.5H0V1.9h20v4.6zm22 20.6h-5.5V16.8c0-2.6-1-4-2.9-4-1 0-1.8.4-2.4 1.1s-.9 1.7-.9 2.8V27h-5.6V.4h5.6v11.3h.1c1.4-2.1 3.2-3.1 5.5-3.1C40 8.6 42 11.1 42 16v11.1zm22.3-7.4H52.6c.2 2.6 1.8 3.9 4.9 3.9 2 0 3.7-.5 5.2-1.4v4c-1.7.9-3.8 1.3-6.5 1.3-2.9 0-5.2-.8-6.8-2.4S47 21.2 47 18.4c0-3 .9-5.4 2.6-7.1s3.9-2.6 6.4-2.6c2.6 0 4.7.8 6.1 2.3s2.2 3.7 2.2 6.3v2.4zm-5.1-3.5c0-2.6-1-3.9-3.1-3.9-.9 0-1.7.4-2.3 1.1s-1 1.7-1.2 2.8h6.6zm39.6 19.1h-5.6V24.6h-.1c-1.3 1.9-3.1 2.9-5.5 2.9-2.3 0-4.1-.8-5.5-2.4S80 21.3 80 18.5c0-3 .8-5.4 2.3-7.2s3.5-2.7 5.9-2.7c2.2 0 3.8.8 4.9 2.5h.1v-2h5.6v26.2zm-5.5-16.8V17c0-1.2-.3-2.2-1-3s-1.6-1.2-2.6-1.2c-1.2 0-2.2.5-2.9 1.5s-1.1 2.3-1.1 4c0 1.5.3 2.7 1 3.6s1.6 1.3 2.7 1.3c1.2 0 2.1-.4 2.8-1.3s1.1-2 1.1-3.4zm29.1 8.6h-5.5v-2.7h-.1c-1.4 2.1-3.2 3.2-5.5 3.2-4.2 0-6.3-2.5-6.3-7.6V9.1h5.5v10.4c0 2.5 1 3.8 3 3.8 1 0 1.8-.3 2.4-1s.9-1.6.9-2.8V9.1h5.5v18zm9.2-20.9c-.9 0-1.7-.3-2.3-.8s-.9-1.2-.9-2 .3-1.5.9-2 1.4-.8 2.3-.8c.9 0 1.7.3 2.3.8s.9 1.2.9 2-.3 1.5-.9 2.1-1.3.7-2.3.7zm2.8 20.9h-5.6v-18h5.6v18zm20.1-.7c-1.3.7-3.1 1.1-5.4 1.1-2.8 0-5-.8-6.7-2.5s-2.6-3.8-2.6-6.5c0-3.1.9-5.5 2.8-7.2s4.3-2.6 7.4-2.6c2.1 0 3.7.3 4.6.8v4.7c-1.2-.9-2.5-1.3-3.9-1.3-1.6 0-2.9.5-3.8 1.4s-1.4 2.2-1.4 3.9c0 1.6.4 2.8 1.3 3.8s2.1 1.4 3.7 1.4c1.4 0 2.7-.4 4.1-1.3v4.3zm23.5.7h-6.7l-5.7-8.9h-.1v8.9h-5.6V.4h5.6v17h.1l5.4-8.3h6.6l-6.5 8.5 6.9 9.5zm21.2-2.1l-.1 2.1h-5.6V.4h5.6v11.4h.1c1.4-2.1 3.3-3.1 5.9-3.1 2.3 0 4.1.8 5.4 2.4s1.9 3.8 1.9 6.5c0 3-.7 5.4-2.2 7.2s-3.4 2.7-5.9 2.7c-2.3 0-3.9-.8-5.1-2.5zm-.1-7.6v1.8c0 1.2.3 2.1 1 2.9s1.5 1.1 2.6 1.1c1.3 0 2.2-.5 2.9-1.5s1-2.4 1-4.2c0-1.5-.3-2.7-1-3.5s-1.5-1.3-2.7-1.3c-1.1 0-2 .4-2.8 1.2s-1 2.1-1 3.5zm30.4-3.3c-.7-.4-1.4-.5-2.3-.5-1.2 0-2.2.4-2.8 1.3s-1 2.1-1 3.6v8.6h-5.6v-18h5.6v3.3h.1c.9-2.4 2.5-3.7 4.7-3.7.6 0 1 .1 1.4.2v5.2zm12.8 13.4c-3 0-5.4-.8-7.1-2.5s-2.6-4-2.6-6.8c0-3 .9-5.3 2.7-7s4.2-2.5 7.2-2.5 5.3.8 7 2.5 2.5 3.9 2.5 6.7c0 3-.9 5.3-2.6 7.1s-4.1 2.5-7.1 2.5zm.1-14.6c-1.3 0-2.3.5-3.1 1.4s-1.1 2.2-1.1 3.8c0 3.5 1.4 5.2 4.2 5.2 2.7 0 4-1.8 4-5.3.1-3.4-1.3-5.1-4-5.1zm41.2-3.8l-5.2 18h-5.8l-2.7-10.5c-.2-.7-.3-1.5-.3-2.3h-.1c-.1.9-.2 1.7-.4 2.2l-2.8 10.6h-5.8l-5.1-18h5.7l2.5 11.7c.1.6.2 1.2.3 2h.1c.1-.8.2-1.5.3-2.1L267.4 9h5.3l2.8 11.7c.1.3.2 1 .2 2h.1c.1-.7.2-1.4.3-2L278.4 9h5.2zm21.8 18h-5.5v-10c0-2.8-1-4.2-3-4.2-1 0-1.8.4-2.4 1.1s-.9 1.7-.9 2.8v10.3H288v-18h5.6v2.8h.1c1.3-2.2 3.3-3.3 5.8-3.3 4 0 6 2.5 6 7.4v11.1zm29.7-22.4c-.7-.3-1.4-.4-2.1-.4-1.8 0-2.7 1-2.7 2.9v1.9h4.1v4.1h-4.1v13.9h-5.5V13.2h-3V9.1h3V6.8c0-2.1.7-3.7 2-5S330 0 332.3 0c1.1 0 2.1.1 2.8.4v4.3zm12.4 22.8c-3 0-5.4-.8-7.1-2.5s-2.6-4-2.6-6.8c0-3 .9-5.3 2.7-7s4.2-2.5 7.2-2.5 5.3.8 7 2.5 2.5 3.9 2.5 6.7c0 3-.9 5.3-2.6 7.1s-4 2.5-7.1 2.5zm.2-14.6c-1.3 0-2.3.5-3.1 1.4s-1.1 2.2-1.1 3.8c0 3.5 1.4 5.2 4.2 5.2 2.7 0 4-1.8 4-5.3 0-3.4-1.4-5.1-4-5.1zm31.7-3.8l-5.9 8.7 5.9 9.3H373l-2.6-4.9c-.2-.4-.5-.9-.8-1.6h-.1c-.2.5-.4 1-.7 1.6l-2.6 4.9h-6.4l6.1-9-5.7-9h6.4l2.6 5c.3.7.6 1.2.7 1.7h.1c.2-.6.4-1.1.8-1.7l2.6-5h6zM401 26.8c0 2.7-.7 4.8-2 6.4-1.3 1.6-3.2 2.4-5.6 2.4-.8 0-1.7-.2-2.7-.5v-4.4c.8.4 1.5.7 2.1.7 1.7 0 2.6-1.4 2.6-4.1V9.1h5.6v17.7zm-2.8-20.6c-.9 0-1.7-.3-2.3-.8s-.9-1.2-.9-2 .3-1.5.9-2 1.4-.8 2.3-.8c.9 0 1.7.3 2.3.8s.9 1.2.9 2-.3 1.5-.9 2.1-1.3.7-2.3.7zm26.4 20.9H419v-2.7h-.1c-1.4 2.1-3.2 3.2-5.5 3.2-4.2 0-6.3-2.5-6.3-7.6V9.1h5.5v10.4c0 2.5 1 3.8 3 3.8 1 0 1.8-.3 2.4-1s.9-1.6.9-2.8V9.1h5.5v18zm35 0h-5.5V16.8c0-2.6-1-3.9-2.9-3.9-.9 0-1.7.4-2.2 1.2s-.9 1.8-.9 2.9v10.1h-5.6V16.7c0-2.5-.9-3.8-2.8-3.8-.9 0-1.7.4-2.3 1.1s-.9 1.8-.9 3.1v10H431v-18h5.6v2.8h.1c.6-1 1.4-1.7 2.4-2.3s2.2-.9 3.4-.9c2.5 0 4.3 1.1 5.2 3.4 1.4-2.2 3.4-3.4 6-3.4 3.9 0 5.9 2.4 5.9 7.2v11.2zm11.8-2.1l-.1 10.4h-5.6V9.1h5.6v2.7h.1c1.4-2.1 3.3-3.1 5.8-3.1 2.3 0 4.1.8 5.4 2.4s1.9 3.8 1.9 6.5c0 3-.7 5.4-2.2 7.2s-3.5 2.7-5.9 2.7c-2.2 0-3.8-.8-5-2.5zm-.1-7.4V19c0 1.2.3 2.3 1 3s1.5 1.2 2.6 1.2c1.3 0 2.2-.5 2.9-1.5s1-2.4 1-4.2c0-3.2-1.2-4.7-3.7-4.7-1.1 0-2.1.4-2.8 1.3s-1 2.1-1 3.5zm17.5 9v-4.5c.9.6 1.8 1 2.7 1.2s1.8.4 2.6.4c1 0 1.8-.1 2.3-.4s.9-.7.9-1.2c0-.4-.1-.6-.4-.9s-.6-.4-1-.6-.8-.3-1.3-.5-.9-.3-1.4-.5c-.7-.3-1.3-.6-1.9-.9s-1-.7-1.4-1.1-.7-.9-.8-1.4-.3-1.2-.3-1.9c0-1 .2-1.9.7-2.6s1-1.3 1.8-1.8 1.6-.8 2.5-1 1.9-.3 2.9-.3c.8 0 1.6.1 2.4.2s1.6.3 2.4.5v4.3c-.7-.4-1.5-.7-2.3-.9s-1.6-.3-2.4-.3c-.4 0-.7 0-1 .1s-.6.2-.9.3-.4.3-.6.5-.2.4-.2.7c0 .3.1.6.3.8s.5.4.8.6.7.3 1.1.5.8.3 1.2.4c.7.3 1.4.5 2 .8s1.1.7 1.5 1.1.8.9 1 1.4.3 1.2.3 2c0 1.1-.2 2-.7 2.7s-1.1 1.4-1.8 1.8-1.7.8-2.7 1-2 .3-3.1.3c-1.7.1-3.5-.2-5.2-.8zm39.1.9c-3 0-5.4-.8-7.1-2.5s-2.6-4-2.6-6.8c0-3 .9-5.3 2.7-7s4.2-2.5 7.2-2.5 5.3.8 7 2.5 2.5 3.9 2.5 6.7c0 3-.9 5.3-2.6 7.1s-4.1 2.5-7.1 2.5zm.1-14.6c-1.3 0-2.3.5-3.1 1.4s-1.1 2.2-1.1 3.8c0 3.5 1.4 5.2 4.2 5.2 2.7 0 4-1.8 4-5.3.1-3.4-1.3-5.1-4-5.1zm32.3-3.8l-6.7 18h-6.3l-6.4-18h5.9l3.1 11.1c.4 1.3.6 2.3.6 3.2h.1c.1-.8.3-1.9.7-3.1l3.2-11.2h5.8zm20 10.6h-11.7c.2 2.6 1.8 3.9 4.9 3.9 2 0 3.7-.5 5.2-1.4v4c-1.7.9-3.8 1.3-6.5 1.3-2.9 0-5.2-.8-6.8-2.4s-2.4-3.9-2.4-6.7c0-3 .9-5.4 2.6-7.1s3.9-2.6 6.4-2.6c2.6 0 4.7.8 6.1 2.3s2.2 3.7 2.2 6.3v2.4zm-5.2-3.5c0-2.6-1-3.9-3.1-3.9-.9 0-1.7.4-2.3 1.1s-1 1.7-1.2 2.8h6.6zm22-2.1c-.7-.4-1.4-.5-2.3-.5-1.2 0-2.2.4-2.8 1.3s-1 2.1-1 3.6v8.6h-5.6v-18h5.6v3.3h.1c.9-2.4 2.5-3.7 4.7-3.7.6 0 1 .1 1.4.2v5.2zm27 12.8c-.8.4-2.1.7-3.7.7-3.9 0-5.9-2-5.9-6.1v-8.2h-2.9V9.1h2.9V5.2l5.5-1.6v5.5h4v4.1h-4v7.3c0 1.9.7 2.8 2.2 2.8.6 0 1.2-.2 1.8-.5v4.1zm22.2.2h-5.5V16.8c0-2.6-1-4-2.9-4-1 0-1.8.4-2.4 1.1s-.9 1.7-.9 2.8V27H629V.4h5.6v11.3h.1c1.4-2.1 3.2-3.1 5.5-3.1 4.1 0 6.1 2.5 6.1 7.4v11.1zm22.4-7.4H657c.2 2.6 1.8 3.9 4.9 3.9 2 0 3.7-.5 5.2-1.4v4c-1.7.9-3.8 1.3-6.5 1.3-2.9 0-5.2-.8-6.8-2.4s-2.4-3.9-2.4-6.7c0-3 .9-5.4 2.6-7.1s3.9-2.6 6.4-2.6c2.6 0 4.7.8 6.1 2.3s2.2 3.7 2.2 6.3v2.4zm-5.2-3.5c0-2.6-1-3.9-3.1-3.9-.9 0-1.7.4-2.3 1.1s-1 1.7-1.2 2.8h6.6zm27.6 10.9h-5.6V.4h5.6v26.7zm21.4 0h-5.3v-2.6h-.1c-1.2 2-3 3-5.4 3-1.7 0-3.1-.5-4.1-1.5s-1.5-2.3-1.5-4c0-3.5 2.1-5.5 6.2-6l4.9-.7c0-2-1.1-3-3.2-3s-4.2.6-6.1 1.9V10c.8-.4 1.8-.8 3.2-1.1s2.6-.5 3.7-.5c5.1 0 7.7 2.6 7.7 7.7v11zm-5.2-7.3v-1.2l-3.3.4c-1.8.2-2.7 1-2.7 2.4 0 .6.2 1.2.7 1.6s1 .6 1.8.6c1 0 1.9-.4 2.5-1.1s1-1.6 1-2.7zm25.7 7.3h-16.2v-2.3l9-11.6h-8.1V9.1h15.2v2.7L724.3 23h8.6v4.1zm21.9-18l-7.3 19.4c-1.8 4.7-4.4 7-7.9 7-1.3 0-2.5-.2-3.3-.5v-4.4c.7.4 1.5.7 2.4.7 1.4 0 2.4-.7 3-2l.9-2.2-7.3-18h6.2l3.4 11c.2.7.4 1.5.5 2.4h.1c.1-.7.3-1.5.6-2.4l3.4-11h5.3zm33.4 18h-5.6v-2.5h-.1c-1.3 1.9-3.1 2.9-5.6 2.9-2.2 0-4.1-.8-5.4-2.4s-2.1-3.8-2.1-6.7c0-3 .8-5.4 2.3-7.2s3.5-2.7 5.9-2.7c2.3 0 3.9.8 4.9 2.5h.1V.4h5.6v26.7zm-5.5-8.8V17c0-1.2-.3-2.1-1-2.9s-1.6-1.2-2.7-1.2c-1.2 0-2.2.5-2.9 1.5s-1 2.3-1 4c0 1.6.3 2.8 1 3.7s1.6 1.3 2.8 1.3c1.1 0 2-.5 2.8-1.4s1-2.2 1-3.7zm20.5 9.2c-3 0-5.4-.8-7.1-2.5s-2.6-4-2.6-6.8c0-3 .9-5.3 2.7-7s4.2-2.5 7.2-2.5 5.3.8 7 2.5 2.5 3.9 2.5 6.7c0 3-.9 5.3-2.6 7.1s-4 2.5-7.1 2.5zm.2-14.6c-1.3 0-2.3.5-3.1 1.4s-1.1 2.2-1.1 3.8c0 3.5 1.4 5.2 4.2 5.2 2.7 0 4-1.8 4-5.3 0-3.4-1.3-5.1-4-5.1zM836.2 25c0 3.3-1 5.9-2.9 7.8-1.9 1.8-4.7 2.8-8.4 2.8-2.4 0-4.3-.3-5.8-1v-4.7c1.9 1.1 3.7 1.6 5.6 1.6 1.9 0 3.3-.5 4.4-1.5s1.5-2.3 1.5-4v-1.4h-.1c-1.3 2-3.1 3-5.6 3-2.3 0-4.1-.8-5.5-2.4s-2-3.8-2-6.5c0-3 .8-5.5 2.2-7.3s3.5-2.7 5.9-2.7c2.2 0 3.8.8 4.9 2.5h.1V9.1h5.6V25zm-5.5-6.6V17c0-1.1-.3-2.1-1-2.9s-1.5-1.2-2.6-1.2c-1.2 0-2.2.5-2.9 1.4s-1.1 2.3-1.1 4.1c0 1.5.3 2.7 1 3.6s1.6 1.3 2.7 1.3 2.1-.4 2.8-1.3 1.1-2.1 1.1-3.6z" class="st1"/></svg>