<?xml version="1.0" encoding="utf-8"?>
<!-- Generator: Adobe Illustrator 18.0.0, SVG Export Plug-In . SVG Version: 6.00 Build 0)  -->
<!DOCTYPE svg PUBLIC "-//W3C//DTD SVG 1.1//EN" "http://www.w3.org/Graphics/SVG/1.1/DTD/svg11.dtd">
<svg version="1.1" id="Calque_1" xmlns="http://www.w3.org/2000/svg" xmlns:xlink="http://www.w3.org/1999/xlink" x="0px" y="0px"
	 viewBox="0 89.1 190 283.8" enable-background="new 0 89.1 190 283.8" xml:space="preserve">
<g>
	<g>
		<path fill="#FFFFFF" d="M150.8,202.3c-15.8-11.5-35.1-18.6-56.1-18.6c-21.1,0-40.4,6.9-56.1,18.6C28,209.9,19.3,219.6,12.8,231
			c6.6,11.4,15.3,21.1,25.7,28.7c3.9-11.5,11.2-21.6,20.8-28.7c9.9-7.5,22.2-11.9,35.3-11.9c13.3,0,25.5,4.4,35.3,11.9
			c9.6,7.1,16.9,17.2,20.8,28.7c2,5.9,3,12.1,3,18.6c0,32.6-26.4,59.1-59.1,59.1S35.5,311,35.5,278.4h-0.5L3.5,303.5
			c11,39.9,47.5,69.4,91,69.4c52.3,0,94.5-42.4,94.5-94.5c0-17.2-4.6-33.3-12.8-47.4C169.9,219.6,161.1,209.9,150.8,202.3z"/>
	</g>
	<g>
		<path fill="#FFFFFF" d="M140.3,266.5c-3.2-12.2-11-22.5-21.6-28.9c-7.5,3.4-15.4,5.1-24.1,5.1c-8.5,0-16.7-2-24.1-5.1
			c-10.6,6.4-18.4,16.7-21.6,28.9c13.5,7.5,29.1,11.9,45.8,11.9S126.8,273.9,140.3,266.5z"/>
	</g>
	<g>
		<path fill="#FFFFFF" d="M94.5,89.1C42.4,89.1,0,131.5,0,183.6c0,12.2,2.5,23.9,6.6,34.8c7.8-11.4,17.7-21.1,29.1-28.7
			c-0.2-2-0.4-3.9-0.4-5.9c0.2-32.8,26.6-59.2,59.2-59.2c32.3,0,58.4,25.9,59.1,58l31.6-25.5C173.8,117.8,137.6,89.1,94.5,89.1z"/>
	</g>
</g>
</svg>
