<svg xmlns="http://www.w3.org/2000/svg" viewBox="175.2 389.6 476.8 117" enable-background="new 175.2 389.6 476.8 117"><style type="text/css">.st0{fill:#FFFFFF;} .st1{display:none;}</style><g id="Calque_1_1_"><path d="M185.6 391.1h14.7l11.7 30.6 12.3-30.6H239l8.7 57.2h-14.9l-4.3-32.9h-.1l-13.8 33h-5.9l-13-33h-.1l-4.9 32.9h-14.8l9.7-57.2zM272.2 438.3l-3.9 9.9h-15.8l22.1-57.2h16.3l21.6 57.2h-15.9l-3.8-9.9h-20.6zm10.4-29.5h-.1l-6.1 18.2h12.4l-6.2-18.2zM338.9 448.3H324v-44.6h-12.3v-12.5h39.5v12.7h-12.3v44.4zM421.7 405.7c-2.8-2.3-6.3-3.8-9.9-3.8-2.8 0-6.4 1.6-6.4 4.8 0 3.4 4 4.6 6.6 5.5l3.8 1.1c8 2.4 14.2 6.4 14.2 15.7 0 5.6-1.4 11.5-5.9 15.4-4.5 3.8-10.5 5.4-16.3 5.4-7.3 0-14.3-2.4-20.1-6.5l6.4-12c3.8 3.3 8.1 5.9 13.2 5.9 3.5 0 7.3-1.8 7.3-5.8 0-4.1-5.9-5.6-9-6.5-9.3-2.6-15.5-5.1-15.5-16.2 0-11.7 8.3-19.2 19.7-19.2 5.8 0 12.8 1.9 17.9 4.8l-6 11.4zM455.6 403.6v9.5h16.8v12.7h-16.8v9.9h17.7v12.7h-32.6v-57.3h32.6v12.7h-17.7v-.2zM534 448.3h-18.6l-14-22.1h-.1v22.1h-14.9v-57.2h22.2c11.3 0 19.9 5.4 19.9 17.6 0 7.9-4.4 14.7-12.5 16.2l18 23.4zm-32.7-31.6h1.4c4.9 0 10.3-.9 10.3-7.1s-5.5-7.1-10.3-7.1h-1.4v14.2zM589.4 448.3h-18.6l-14-22.1h-.1v22.1h-14.9v-57.2H564c11.3 0 19.9 5.4 19.9 17.6 0 7.9-4.4 14.7-12.5 16.2l18 23.4zm-32.7-31.6h1.4c4.9 0 10.3-.9 10.3-7.1s-5.5-7.1-10.3-7.1h-1.4v14.2zM611.8 438.3l-3.9 9.9h-15.8l22.1-57.2h16.3l21.6 57.2h-15.9l-3.8-9.9h-20.6zm10.4-29.5h-.2l-6.1 18.2h12.4l-6.1-18.2zM181.6 498.7l-3.1 7.5h-3.3l12.2-27.7 11.9 27.7H196l-3.1-7.5h-11.3zm5.6-13.5l-4.5 10.7h8.9l-4.4-10.7zM215.5 506.1h-3v-26.5h3.9c5 0 9.7 1.4 9.7 7.3 0 4-2.5 6.9-6.6 7.3l8.4 11.9h-3.6l-8-11.7h-.8v11.7zm0-14.2h.9c3.4 0 6.6-.6 6.6-4.8 0-4.4-3.1-4.8-6.8-4.8h-.9v9.5h.2zM248.5 506.1h-3v-23.7h-6.4v-2.8h15.8v2.8h-6.5v23.7h.1zM271.6 506.1h-3v-26.5h3v26.5zM299.4 484.7c-1-1.9-2.3-2.9-4.5-2.9-2.4 0-4.4 1.6-4.4 4.1 0 2.3 2.4 3.4 4.1 4.1l1.8.8c3.4 1.5 6.4 3.3 6.4 7.4 0 4.6-3.8 8.1-8.3 8.1-4.3 0-7.4-2.8-8.3-6.9l2.9-.8c.4 2.8 2.5 4.9 5.3 4.9 2.9 0 5.4-2.1 5.4-5.1 0-3.1-2.4-4.1-4.9-5.3l-1.6-.8c-3.1-1.4-5.8-3-5.8-6.8 0-4.1 3.5-6.8 7.4-6.8 3 0 5.4 1.5 6.9 4.1l-2.4 1.9zM324.6 506.1h-3v-23.7h-6.4v-2.8H331v2.8h-6.5v23.7h.1zM347.7 506.1h-3v-26.5h3v26.5zM383.7 485.5c-2.1-2.1-5-3.5-8-3.5-5.9 0-10.7 5.1-10.7 10.9 0 5.8 4.8 10.9 10.8 10.9 3 0 5.9-1.4 8-3.5v3.6c-2.3 1.6-5.1 2.6-7.9 2.6-7.5 0-13.8-6-13.8-13.5s6.3-13.8 13.8-13.8c3 0 5.5.9 7.9 2.6v3.6h-.1zM420.5 479.6h5c4 0 7.1.5 10.3 3.1 3 2.6 4.4 6.1 4.4 10 0 3.9-1.4 7.3-4.3 9.9-3.1 2.8-6.3 3.4-10.4 3.4h-4.9v-26.5h-.1zm5.2 23.8c3.3 0 5.9-.5 8.4-2.8 2.1-2 3.3-4.8 3.3-7.8s-1.1-5.9-3.4-7.9c-2.4-2.1-5.1-2.5-8.3-2.5h-2.1v20.9h2.1zM457.9 506.1h-3v-26.5h3v26.5zM476.8 506.1h-3v-26.5h3.9c5 0 9.7 1.4 9.7 7.3 0 4-2.5 6.9-6.6 7.3l8.4 11.9h-3.6l-8-11.7h-.8v11.7zm0-14.2h.9c3.4 0 6.6-.6 6.6-4.8 0-4.4-3.1-4.8-6.8-4.8h-.9v9.5h.2zM503.4 479.6h13.7v2.8h-10.8v7.9h10.4v2.8h-10.4v10.4h10.8v2.8h-13.7v-26.7zM552.8 485.5c-2.1-2.1-5-3.5-8-3.5-5.9 0-10.7 5.1-10.7 10.9 0 5.8 4.8 10.9 10.8 10.9 3 0 5.9-1.4 8-3.5v3.6c-2.3 1.6-5.1 2.6-7.9 2.6-7.5 0-13.8-6-13.8-13.5s6.3-13.8 13.8-13.8c3 0 5.5.9 7.9 2.6v3.6h-.1zM575.4 506.1h-3v-23.7H566v-2.8h15.8v2.8h-6.5v23.7h.1zM621.7 492.9c0 7.6-6.3 13.7-13.8 13.7s-13.8-6-13.8-13.7c0-7.5 6.3-13.7 13.8-13.7s13.8 6.2 13.8 13.7zm-24.6 0c0 6 4.9 10.9 10.9 10.9s10.9-5 10.9-10.9c0-6-4.8-10.9-10.9-10.9s-10.9 4.9-10.9 10.9zM639.2 506.1h-3v-26.5h3.9c5 0 9.7 1.4 9.7 7.3 0 4-2.5 6.9-6.6 7.3l8.4 11.9H648l-8-11.7h-.8v11.7zm0-14.2h.9c3.4 0 6.6-.6 6.6-4.8 0-4.4-3.1-4.8-6.8-4.8h-.9v9.5h.2z" class="st0"/></g></svg>