<?xml version="1.0" encoding="utf-8"?>
<!-- Generator: Adobe Illustrator 18.0.0, SVG Export Plug-In . SVG Version: 6.00 Build 0)  -->
<!DOCTYPE svg PUBLIC "-//W3C//DTD SVG 1.1//EN" "http://www.w3.org/Graphics/SVG/1.1/DTD/svg11.dtd">
<svg version="1.1" id="Calque_1" xmlns="http://www.w3.org/2000/svg" xmlns:xlink="http://www.w3.org/1999/xlink" x="0px" y="0px"
	 viewBox="0 0 53.4 31.3" enable-background="new 0 0 53.4 31.3" xml:space="preserve">
<g>
	<path fill="#FFFFFF" d="M3.1,7.8L2.5,9.3H0l3.5-9H6l3.4,9H6.9L6.4,7.8H3.1z M4.8,3.1L4.8,3.1L3.8,6h2L4.8,3.1z"/>
	<path fill="#FFFFFF" d="M12.6,9.3v-9h3.4c1.6,0,2.7,0.6,2.7,2.4c0,0.8-0.3,1.5-1,1.8v0c1.3,0.2,1.8,1,1.8,2.3
		c0,1.9-1.6,2.5-3.3,2.5H12.6z M14.9,3.8h0.3c0.6,0,1.3-0.1,1.3-0.9c0-0.8-0.7-0.9-1.4-0.9h-0.2V3.8z M14.9,7.5h0.3
		c0.7,0,1.9,0,1.9-1c0-1.1-1.2-1-1.9-1h-0.2V7.5z"/>
	<path fill="#FFFFFF" d="M32.7,4.7c0,2.9-2.1,5-5,5s-5-2.1-5-5c0-2.7,2.4-4.7,5-4.7S32.7,1.9,32.7,4.7z M25.1,4.7
		c0,1.6,1.2,2.7,2.6,2.7s2.6-1.1,2.6-2.7c0-1.2-1.2-2.4-2.6-2.4S25.1,3.4,25.1,4.7z"/>
	<path fill="#FFFFFF" d="M44,0.3v5.1c0,1.2,0,2.3-0.9,3.2c-0.8,0.7-1.9,1-3,1c-1.1,0-2.2-0.3-3-1c-0.9-0.9-0.9-2-0.9-3.2V0.3h2.3
		v4.8c0,1.2,0.1,2.5,1.6,2.5s1.6-1.3,1.6-2.5V0.3H44z"/>
	<path fill="#FFFFFF" d="M51.5,9.3h-2.3V2.3h-1.9v-2h6.2v2h-1.9V9.3z"/>
	<path fill="#FFFFFF" d="M1.8,22.3h2.3L6,27.1l1.9-4.8h2.3l1.4,9H9.3l-0.7-5.2h0l-2.2,5.2H5.5l-2.1-5.2h0l-0.8,5.2H0.3L1.8,22.3z"/>
	<path fill="#FFFFFF" d="M17.4,24.3v1.5H20v2h-2.7v1.6h2.8v2H15v-9h5.1v2H17.4z"/>
</g>
</svg>
