<svg xmlns="http://www.w3.org/2000/svg" viewBox="0 354 125.4 188.1" enable-background="new 0 354 125.4 188.1"><style type="text/css">.st0{fill:#FFFFFF;} .st1{display:none;}</style><g id="Calque_1_1_"><path d="M99.9 428.9c-10.5-7.6-23.3-12.3-37.1-12.3-14 0-26.8 4.6-37.1 12.3-7.1 5-12.9 11.5-17.2 19.1 4.4 7.5 10.2 14 17.1 19.1 2.6-7.6 7.4-14.3 13.8-19.1 6.5-4.9 14.7-7.9 23.4-7.9s16.9 2.9 23.4 7.9c6.4 4.8 11.2 11.4 13.8 19.1 1.3 3.9 2 8 2 12.3 0 21.6-17.6 39.1-39.1 39.1s-39.1-17.6-39.1-39.1h-.4L2.4 496c7.3 26.5 31.5 46 60.3 46 34.7 0 62.7-28.1 62.7-62.7 0-11.4-3-22.1-8.4-31.3-4.4-7.5-10.3-14-17.1-19.1zM93 471.4c-2.1-8.1-7.3-14.9-14.3-19.2-4.9 2.3-10.3 3.4-15.9 3.4s-11-1.3-16-3.4c-7 4.3-12.3 11-14.3 19.2 8.9 4.9 19.3 7.9 30.3 7.9s21.2-2.8 30.2-7.9zM62.7 354C28.1 354 0 382 0 416.7c0 8.1 1.6 15.9 4.4 23.1 5.1-7.5 11.8-14 19.3-19.1-.1-1.3-.3-2.6-.3-3.9.1-21.8 17.6-39.4 39.2-39.4 21.4 0 38.6 17.2 39.1 38.5l20.9-16.9c-7.4-26-31.3-45-59.9-45z" class="st0"/></g></svg>