<svg xmlns="http://www.w3.org/2000/svg" viewBox="0 0 53.5 24.4" enable-background="new 0 0 53.5 24.4"><style type="text/css">.st0{fill:#FFFFFF;}</style><path d="M3.1 7.8l-.6 1.5H0l3.5-9H6l3.4 9H6.9l-.5-1.5H3.1zm1.7-4.7L3.8 6h2l-1-2.9zM12.6 9.3v-9H16c1.6 0 2.7.6 2.7 2.4 0 .8-.3 1.5-1 1.8 1.3.2 1.8 1 1.8 2.3 0 1.9-1.6 2.5-3.3 2.5h-3.6zm2.3-5.5h.3c.6 0 1.3-.1 1.3-.9s-.7-.9-1.4-.9h-.2s0 1.8 0 1.8zm0 3.7h.3c.7 0 1.9 0 1.9-1 0-1.1-1.2-1-1.9-1H15v2h-.1zM32.7 4.7c0 2.9-2.1 5-5 5s-5-2.1-5-5c0-2.7 2.4-4.7 5-4.7s5 1.9 5 4.7zm-7.6 0c0 1.6 1.2 2.7 2.6 2.7s2.6-1.1 2.6-2.7c0-1.2-1.2-2.4-2.6-2.4s-2.6 1.1-2.6 2.4zM44 .3v5.1c0 1.2 0 2.3-.9 3.2-.8.7-1.9 1-3 1s-2.2-.3-3-1c-.9-.9-.9-2-.9-3.2V.3h2.3v4.8c0 1.2.1 2.5 1.6 2.5s1.6-1.3 1.6-2.5V.3H44zM51.5 9.3h-2.3v-7h-1.9v-2h6.2v2h-1.9l-.1 7zM1.8 15.3h2.3L6 20.1l1.9-4.8h2.3l1.4 9H9.3l-.7-5.2-2.2 5.2h-.9l-2.1-5.2-.8 5.2H.3l1.5-9zM17.4 17.3v1.5H20v2h-2.7v1.6h2.8v2H15v-9h5.1v2h-2.7v-.1z" class="st0"/></svg>