<svg xmlns="http://www.w3.org/2000/svg" viewBox="270.7 145 1009.3 174.7" enable-background="new 270.7 145 1009.3 174.7"><g fill="#fff"><path d="M286.1 147.1h20.6L323 190l17.2-42.9H361l12.2 80.4h-20.9l-5.9-46.3h-.2l-19.3 46.3h-8.3l-18.4-46.3h-.2l-6.7 46.3h-20.8l13.6-80.4zM408 213.6l-5.5 14h-22.2l30.9-80.4h22.9l30.2 80.2h-22.4l-5.1-14H408v.2zm14.5-41.7h-.2l-8.7 25.5H431l-8.5-25.5zM501.8 227.5h-20.9v-62.6h-17.2v-17.7h55.5v17.7H502v62.6h-.2zM583.1 178.1v-31H604v80.4h-20.9v-32.8h-30.2v32.8H532v-80.4h20.9v31h30.2zM643.9 227.5H623v-80.4h20.9v80.4zM683.8 209.9h25v17.7h-45.9v-80.5h20.9v62.8zM721.1 147.1h29.6c22.4 0 40.8 17.6 40.8 40.3s-18.6 40.1-40.8 40.1h-29.6v-80.4zm20.7 62.8h4.6c12.4 0 23.1-6.7 23.1-22.5 0-14.4-9.6-22.5-22.9-22.5h-5V210h.2zM827.5 164.8v13.5h23.6V196h-23.6v13.8h24.8v17.7h-45.8V147h45.8v17.7h-24.8zM956.6 167.9c-3.9-3.2-8.7-5.3-13.8-5.3-3.9 0-9 2.3-9 6.7 0 4.6 5.7 6.6 9.2 7.6l5.3 1.6c11.2 3.4 19.9 9 19.9 22 0 8-2 16.1-8.3 21.6-6.2 5.3-14.7 7.6-22.9 7.6-10.1 0-20-3.4-28.2-9.2l8.9-16.9c5.1 4.6 11.4 8.3 18.6 8.3 5 0 10.1-2.5 10.1-8.2 0-5.9-8.2-7.8-12.8-9.2-13.1-3.7-21.8-7.1-21.8-22.7 0-16.3 11.7-27 27.7-27 8.2 0 18.1 2.5 25.2 6.6l-8.1 16.5zM1004.3 164.8v13.5h23.6V196h-23.6v13.8h24.8v17.7h-45.8V147h45.8v17.7h-24.8zM1114.3 227.5h-26.1l-19.7-30.9h-.2v30.9h-20.9v-80.4h31.2c16 0 28 7.6 28 24.7 0 11.2-6.2 20.8-17.6 22.7l25.3 33zm-45.9-44.4h2c6.7 0 14.5-1.2 14.5-9.9 0-8.7-7.6-10.1-14.5-10.1h-2v20zM1192.2 227.5h-26.1l-19.7-30.9h-.2v30.9h-20.9v-80.4h31.2c16 0 28 7.6 28 24.7 0 11.2-6.2 20.8-17.6 22.7l25.3 33zm-45.9-44.4h2c6.7 0 14.5-1.2 14.5-9.9 0-8.7-7.6-10.1-14.5-10.1h-2v20zM1223.8 213.6l-5.5 14h-22.2l30.9-80.4h22.9l30.2 80.2h-22.4l-5.1-14h-28.7v.2zm14.5-41.7h-.2l-8.7 25.5h17.4l-8.5-25.5z"/></g><g fill="#fff"><path d="M278.7 306l-5.3 13.3h-2.7l16.9-41.5 16.9 41.5h-2.7l-5.3-13.3h-17.8zm8.8-21.8l-8 19.5h15.8l-7.8-19.5zM344.8 319.3h-3l-13.1-19h-1.2v19H325V279h5c3.2 0 6.4 0 9.2 2 2.8 2 4.1 5.1 4.1 8.7 0 6.9-4.8 10.6-11.5 10.5l13 19.1zm-14-21.4c2.5 0 5-.2 7.1-2 2-1.6 2.8-3.9 2.8-6.4 0-3-1.4-6-4.3-7.3-2.1-1.1-4.8-.9-7.3-.9h-1.6v16.3h3.2v.3zM375 319.3h-2.5v-37.8H362V279h23.4v2.5H375v37.8zM408.5 319.3H406V279h2.5v40.3zM451.8 285.6c-1.8-2.8-4.4-4.8-8.2-4.8-4.3 0-7.6 3.5-7.6 7.6 0 4.3 4.1 6 7.3 7.5l7.6 4.1c3 2 4.6 4.4 4.6 8 0 6.7-6 11.7-12.6 11.7-5.7 0-9.9-3.5-11.9-8.7l2.3-1.1c1.8 4.3 4.8 7.3 9.8 7.3 5.3 0 9.9-4.1 9.9-9.6 0-4.6-4.6-6.4-8.2-8.2l-7.3-3.9c-2.7-1.6-4.1-4.1-4.1-7.3 0-6 4.3-10.1 10.3-10.1 4.1 0 8 2.1 9.8 5.7l-1.7 1.8zM487.1 319.3h-2.5v-37.8h-10.5V279h23.4v2.5H487l.1 37.8zM520.8 319.3h-2.5V279h2.5v40.3zM577.4 287.2c-3-3.7-8.5-6.4-13.5-6.4-10.1 0-18.3 8.7-18.3 18.4 0 4.6 2 9 5.3 12.4 3.4 3.2 8.2 5.5 12.9 5.5 4.6 0 10.5-2.5 13.5-6.2v3.5c-3.7 3.2-8.5 5-13.5 5-11.2 0-20.9-9.4-20.9-20.6 0-11.4 9.6-20.8 21.1-20.8 4.8 0 9.8 2 13.3 5.1v4.1zM633.3 279.1h7.3c5.9 0 10.5.9 14.9 5.1 4.3 3.9 6.4 9.4 6.4 15.1 0 5.5-2.1 10.8-6.2 14.7-4.4 4.3-9.2 5.3-15.1 5.3h-7.3v-40.2zm7.2 37.8c5.3 0 9.6-1.1 13.5-4.8 3.4-3.4 5.3-8 5.3-12.8 0-5.1-2-9.9-5.9-13.5-3.9-3.5-8-4.4-12.9-4.4h-4.6v35.5h4.6zM686.7 319.3h-2.5V279h2.5v40.3zM731.2 319.3h-3l-13.1-19h-1.2v19h-2.5V279h5c3.2 0 6.4 0 9.2 2 2.8 2 4.1 5.1 4.1 8.7 0 6.9-4.8 10.6-11.5 10.5l13 19.1zm-14-21.4c2.5 0 5-.2 7.1-2 2-1.6 2.8-3.9 2.8-6.4 0-3-1.4-6-4.3-7.3-2.1-1.1-4.8-.9-7.3-.9H714v16.3h3.2v.3zM755.8 281.4v14.5H772v2.5h-16.1v18.4h16.7v2.5h-19.2V279h19.2v2.5h-16.7v-.1zM828.4 287.2c-3-3.7-8.5-6.4-13.5-6.4-10.1 0-18.3 8.7-18.3 18.4 0 4.6 2 9 5.3 12.4 3.4 3.2 8.2 5.5 12.9 5.5 4.6 0 10.5-2.5 13.5-6.2v3.5c-3.7 3.2-8.5 5-13.5 5-11.2 0-20.9-9.4-20.9-20.6 0-11.4 9.6-20.8 21.1-20.8 4.8 0 9.8 2 13.3 5.1v4.1zM860.8 319.3h-2.5v-37.8h-10.5V279h23.4v2.5h-10.5l.1 37.8zM931.1 299.1c0 11.4-9.6 20.6-20.9 20.6-11.4 0-20.9-9.4-20.9-20.6 0-11.2 9.6-20.6 20.9-20.6 11.5 0 20.9 9.4 20.9 20.6zm-39 0c0 9.9 8.3 18.3 18.3 18.3s18.3-8.3 18.3-18.3c0-9.9-8.3-18.3-18.3-18.3-10.2 0-18.3 8.4-18.3 18.3zM973.3 319.3h-3l-13.1-19H956v19h-2.5V279h5c3.2 0 6.4 0 9.2 2 2.8 2 4.1 5.1 4.1 8.7 0 6.9-4.8 10.6-11.5 10.5l13 19.1zm-14-21.4c2.5 0 5-.2 7.1-2 2-1.6 2.8-3.9 2.8-6.4 0-3-1.4-6-4.3-7.3-2.1-1.1-4.8-.9-7.3-.9H956v16.3h3.2v.3z"/></g></svg>