<?xml version="1.0" encoding="utf-8"?>
<!-- Generator: Adobe Illustrator 18.0.0, SVG Export Plug-In . SVG Version: 6.00 Build 0)  -->
<!DOCTYPE svg PUBLIC "-//W3C//DTD SVG 1.1//EN" "http://www.w3.org/Graphics/SVG/1.1/DTD/svg11.dtd">
<svg version="1.1" id="Calque_1" xmlns="http://www.w3.org/2000/svg" xmlns:xlink="http://www.w3.org/1999/xlink" x="0px" y="0px"
	 viewBox="270.7 145 1009.3 174.7" enable-background="new 270.7 145 1009.3 174.7" xml:space="preserve">
<g>
	<g>
		<g>
			<path fill="#FFFFFF" d="M286.1,147.1h20.6L323,190l17.2-42.9H361l12.2,80.4h-20.9l-5.9-46.3h-0.2l-19.3,46.3h-8.3l-18.4-46.3H300
				l-6.7,46.3h-20.8L286.1,147.1z"/>
			<path fill="#FFFFFF" d="M408,213.6l-5.5,14h-22.2l30.9-80.4h22.9l30.2,80.2h-22.4l-5.1-14H408V213.6z M422.5,171.9h-0.2
				l-8.7,25.5H431L422.5,171.9z"/>
			<path fill="#FFFFFF" d="M501.8,227.5h-20.9v-62.6h-17.2v-17.7h55.5v17.7H502v62.6H501.8z"/>
			<path fill="#FFFFFF" d="M583.1,178.1v-31H604v80.4h-20.9v-32.8h-30.2v32.8H532v-80.4h20.9v31H583.1z"/>
			<path fill="#FFFFFF" d="M643.9,227.5H623v-80.4h20.9V227.5z"/>
			<path fill="#FFFFFF" d="M683.8,209.9h25v17.7h-45.9v-80.5h20.9V209.9z"/>
			<path fill="#FFFFFF" d="M721.1,147.1h29.6c22.4,0,40.8,17.6,40.8,40.3s-18.6,40.1-40.8,40.1h-29.6V147.1z M741.8,209.9h4.6
				c12.4,0,23.1-6.7,23.1-22.5c0-14.4-9.6-22.5-22.9-22.5h-5v45.1H741.8z"/>
			<path fill="#FFFFFF" d="M827.5,164.8v13.5h23.6v17.7h-23.6v13.8h24.8v17.7h-45.8v-80.5h45.8v17.7H827.5z"/>
			<path fill="#FFFFFF" d="M956.6,167.9c-3.9-3.2-8.7-5.3-13.8-5.3c-3.9,0-9,2.3-9,6.7c0,4.6,5.7,6.6,9.2,7.6l5.3,1.6
				c11.2,3.4,19.9,9,19.9,22c0,8-2,16.1-8.3,21.6c-6.2,5.3-14.7,7.6-22.9,7.6c-10.1,0-20-3.4-28.2-9.2l8.9-16.9
				c5.1,4.6,11.4,8.3,18.6,8.3c5,0,10.1-2.5,10.1-8.2c0-5.9-8.2-7.8-12.8-9.2c-13.1-3.7-21.8-7.1-21.8-22.7c0-16.3,11.7-27,27.7-27
				c8.2,0,18.1,2.5,25.2,6.6L956.6,167.9z"/>
			<path fill="#FFFFFF" d="M1004.3,164.8v13.5h23.6v17.7h-23.6v13.8h24.8v17.7h-45.8v-80.5h45.8v17.7H1004.3z"/>
			<path fill="#FFFFFF" d="M1114.3,227.5h-26.1l-19.7-30.9h-0.2v30.9h-20.9v-80.4h31.2c16,0,28,7.6,28,24.7
				c0,11.2-6.2,20.8-17.6,22.7L1114.3,227.5z M1068.4,183.1h2c6.7,0,14.5-1.2,14.5-9.9c0-8.7-7.6-10.1-14.5-10.1h-2V183.1z"/>
			<path fill="#FFFFFF" d="M1192.2,227.5h-26.1l-19.7-30.9h-0.2v30.9h-20.9v-80.4h31.2c16,0,28,7.6,28,24.7
				c0,11.2-6.2,20.8-17.6,22.7L1192.2,227.5z M1146.3,183.1h2c6.7,0,14.5-1.2,14.5-9.9c0-8.7-7.6-10.1-14.5-10.1h-2V183.1z"/>
			<path fill="#FFFFFF" d="M1223.8,213.6l-5.5,14h-22.2l30.9-80.4h22.9l30.2,80.2h-22.4l-5.1-14h-28.7V213.6z M1238.3,171.9h-0.2
				l-8.7,25.5h17.4L1238.3,171.9z"/>
		</g>
	</g>
	<g>
		<g>
			<path fill="#FFFFFF" d="M278.7,306l-5.3,13.3h-2.7l16.9-41.5l16.9,41.5h-2.7l-5.3-13.3H278.7z M287.5,284.2l-8,19.5h15.8
				L287.5,284.2z"/>
			<path fill="#FFFFFF" d="M344.8,319.3h-3l-13.1-19h-1.2v19H325v-40.3h5c3.2,0,6.4,0,9.2,2c2.8,2,4.1,5.1,4.1,8.7
				c0,6.9-4.8,10.6-11.5,10.5L344.8,319.3z M330.8,297.9c2.5,0,5-0.2,7.1-2c2-1.6,2.8-3.9,2.8-6.4c0-3-1.4-6-4.3-7.3
				c-2.1-1.1-4.8-0.9-7.3-0.9h-1.6v16.3h3.2V297.9z"/>
			<path fill="#FFFFFF" d="M375,319.3h-2.5v-37.8H362v-2.5h23.4v2.5H375L375,319.3L375,319.3z"/>
			<path fill="#FFFFFF" d="M408.5,319.3H406v-40.3h2.5V319.3z"/>
			<path fill="#FFFFFF" d="M451.8,285.6c-1.8-2.8-4.4-4.8-8.2-4.8c-4.3,0-7.6,3.5-7.6,7.6c0,4.3,4.1,6,7.3,7.5l7.6,4.1
				c3,2,4.6,4.4,4.6,8c0,6.7-6,11.7-12.6,11.7c-5.7,0-9.9-3.5-11.9-8.7l2.3-1.1c1.8,4.3,4.8,7.3,9.8,7.3c5.3,0,9.9-4.1,9.9-9.6
				c0-4.6-4.6-6.4-8.2-8.2l-7.3-3.9c-2.7-1.6-4.1-4.1-4.1-7.3c0-6,4.3-10.1,10.3-10.1c4.1,0,8,2.1,9.8,5.7L451.8,285.6z"/>
			<path fill="#FFFFFF" d="M487.1,319.3h-2.5v-37.8h-10.5v-2.5h23.4v2.5h-10.5L487.1,319.3L487.1,319.3z"/>
			<path fill="#FFFFFF" d="M520.8,319.3h-2.5v-40.3h2.5V319.3z"/>
			<path fill="#FFFFFF" d="M577.4,287.2c-3-3.7-8.5-6.4-13.5-6.4c-10.1,0-18.3,8.7-18.3,18.4c0,4.6,2,9,5.3,12.4
				c3.4,3.2,8.2,5.5,12.9,5.5c4.6,0,10.5-2.5,13.5-6.2v3.5c-3.7,3.2-8.5,5-13.5,5c-11.2,0-20.9-9.4-20.9-20.6
				c0-11.4,9.6-20.8,21.1-20.8c4.8,0,9.8,2,13.3,5.1V287.2z"/>
			<path fill="#FFFFFF" d="M633.3,279.1h7.3c5.9,0,10.5,0.9,14.9,5.1c4.3,3.9,6.4,9.4,6.4,15.1c0,5.5-2.1,10.8-6.2,14.7
				c-4.4,4.3-9.2,5.3-15.1,5.3h-7.3V279.1z M640.5,316.9c5.3,0,9.6-1.1,13.5-4.8c3.4-3.4,5.3-8,5.3-12.8c0-5.1-2-9.9-5.9-13.5
				c-3.9-3.5-8-4.4-12.9-4.4h-4.6v35.5H640.5z"/>
			<path fill="#FFFFFF" d="M686.7,319.3h-2.5v-40.3h2.5V319.3z"/>
			<path fill="#FFFFFF" d="M731.2,319.3h-3l-13.1-19h-1.2v19h-2.5v-40.3h5c3.2,0,6.4,0,9.2,2c2.8,2,4.1,5.1,4.1,8.7
				c0,6.9-4.8,10.6-11.5,10.5L731.2,319.3z M717.2,297.9c2.5,0,5-0.2,7.1-2c2-1.6,2.8-3.9,2.8-6.4c0-3-1.4-6-4.3-7.3
				c-2.1-1.1-4.8-0.9-7.3-0.9H714v16.3h3.2V297.9z"/>
			<path fill="#FFFFFF" d="M755.8,281.4v14.5H772v2.5h-16.1v18.4h16.7v2.5h-19.2v-40.3h19.2v2.5h-16.7V281.4z"/>
			<path fill="#FFFFFF" d="M828.4,287.2c-3-3.7-8.5-6.4-13.5-6.4c-10.1,0-18.3,8.7-18.3,18.4c0,4.6,2,9,5.3,12.4
				c3.4,3.2,8.2,5.5,12.9,5.5c4.6,0,10.5-2.5,13.5-6.2v3.5c-3.7,3.2-8.5,5-13.5,5c-11.2,0-20.9-9.4-20.9-20.6
				c0-11.4,9.6-20.8,21.1-20.8c4.8,0,9.8,2,13.3,5.1V287.2z"/>
			<path fill="#FFFFFF" d="M860.8,319.3h-2.5v-37.8h-10.5v-2.5h23.4v2.5h-10.5L860.8,319.3L860.8,319.3z"/>
			<path fill="#FFFFFF" d="M931.1,299.1c0,11.4-9.6,20.6-20.9,20.6c-11.4,0-20.9-9.4-20.9-20.6c0-11.2,9.6-20.6,20.9-20.6
				C921.7,278.5,931.1,287.9,931.1,299.1z M892.1,299.1c0,9.9,8.3,18.3,18.3,18.3s18.3-8.3,18.3-18.3c0-9.9-8.3-18.3-18.3-18.3
				C900.2,280.8,892.1,289.2,892.1,299.1z"/>
			<path fill="#FFFFFF" d="M973.3,319.3h-3l-13.1-19h-1.2v19h-2.5v-40.3h5c3.2,0,6.4,0,9.2,2c2.8,2,4.1,5.1,4.1,8.7
				c0,6.9-4.8,10.6-11.5,10.5L973.3,319.3z M959.3,297.9c2.5,0,5-0.2,7.1-2c2-1.6,2.8-3.9,2.8-6.4c0-3-1.4-6-4.3-7.3
				c-2.1-1.1-4.8-0.9-7.3-0.9h-1.6v16.3h3.2V297.9z"/>
		</g>
	</g>
</g>
</svg>
