<svg xmlns="http://www.w3.org/2000/svg" viewBox="0 0 520 150" enable-background="new 0 0 520 150"><style type="text/css">.st0{fill:#FFFFFF;} .st1{display:none;} .st2{display:inline;opacity:0.4;fill:#FF0000;}</style><g id="Calque_1"><path d="M79.7 59.8C71.3 53.7 61.1 50 50.1 50c-11.2 0-21.4 3.7-29.6 9.8-5.7 4-10.3 9.2-13.7 15.2 3.5 6 8.1 11.2 13.6 15.2 2.1-6.1 5.9-11.4 11-15.2 5.2-3.9 11.7-6.3 18.7-6.3S63.6 71 68.8 75c5.1 3.8 8.9 9.1 11 15.2 1 3.1 1.6 6.4 1.6 9.8 0 17.2-14 31.2-31.2 31.2S19 117.2 19 100h-.3L1.9 113.3C7.7 134.4 27 150 50 150c27.7 0 50-22.4 50-50 0-9.1-2.4-17.6-6.7-25-3.5-6-8.2-11.2-13.6-15.2zM74.2 93.7c-1.7-6.5-5.8-11.9-11.4-15.3-3.9 1.8-8.2 2.7-12.7 2.7s-8.8-1-12.8-2.7c-5.6 3.4-9.8 8.8-11.4 15.3 7.1 3.9 15.4 6.3 24.2 6.3s16.9-2.3 24.1-6.3zM50 0C22.4 0 0 22.4 0 50c0 6.5 1.3 12.7 3.5 18.4 4.1-6 9.4-11.2 15.4-15.2-.1-1-.2-2.1-.2-3.1.1-17.4 14-31.4 31.3-31.4 17.1 0 30.8 13.7 31.2 30.7l16.7-13.5C91.9 15.2 72.8 0 50 0zM148 29.6h11.7L169 54l9.8-24.4h11.8l6.9 45.6h-11.9L182.2 49h-.1l-11 26.3h-4.7L156 49h-.1L152 75.2h-11.8l7.8-45.6zM217.1 67.3l-3.1 7.9h-12.6L219 29.6h13l17.2 45.6h-12.7l-3-7.9h-16.4zm8.3-23.6h-.1l-4.9 14.5h9.9l-4.9-14.5zM270.3 75.2h-11.9V39.6h-9.8v-10h31.5v10.1h-9.8v35.5zM336.3 41.3c-2.2-1.8-5-3-7.9-3-2.2 0-5.1 1.3-5.1 3.8 0 2.7 3.2 3.7 5.3 4.4l3 .9c6.4 1.9 11.3 5.1 11.3 12.5 0 4.5-1.1 9.2-4.7 12.3-3.6 3-8.4 4.3-13 4.3-5.8 0-11.4-1.9-16-5.2l5.1-9.6c3 2.6 6.5 4.7 10.5 4.7 2.8 0 5.8-1.4 5.8-4.6 0-3.3-4.7-4.5-7.2-5.2-7.4-2.1-12.4-4.1-12.4-12.9 0-9.3 6.6-15.3 15.7-15.3 4.6 0 10.2 1.5 14.3 3.8l-4.7 9.1zM363.4 39.6v7.6h13.4v10.1h-13.4v7.9h14.1v10.1h-26V29.6h26v10.1h-14.1zM425.9 75.2h-14.8l-11.2-17.6h-.1v17.6h-11.9V29.6h17.7c9 0 15.9 4.3 15.9 14 0 6.3-3.5 11.7-10 12.9l14.4 18.7zM399.8 50h1.1c3.9 0 8.2-.7 8.2-5.7s-4.4-5.7-8.2-5.7h-1.1V50zM470.1 75.2h-14.8l-11.2-17.6h-.1v17.6h-11.9V29.6h17.7c9 0 15.9 4.3 15.9 14 0 6.3-3.5 11.7-10 12.9l14.4 18.7zM444 50h1.1c3.9 0 8.2-.7 8.2-5.7s-4.4-5.7-8.2-5.7H444V50zM487.9 67.3l-3.1 7.9h-12.6l17.6-45.6h13L520 75.2h-12.7l-3-7.9h-16.4zm8.3-23.6h-.1l-4.9 14.5h9.9l-4.9-14.5zM144.8 115.4l-2.5 6h-2.6l9.7-22.1 9.5 22.1h-2.6l-2.5-6h-9zm4.5-10.7l-3.6 8.5h7.1l-3.5-8.5zM171.9 121.3h-2.4v-21.1h3.1c4 0 7.7 1.1 7.7 5.8 0 3.2-2 5.5-5.3 5.8l6.7 9.5h-2.9l-6.4-9.3h-.6v9.3zm0-11.3h.7c2.7 0 5.3-.5 5.3-3.8 0-3.5-2.5-3.8-5.4-3.8h-.7v7.6zM198.2 121.3h-2.4v-18.9h-5.1v-2.2h12.6v2.2h-5.2v18.9zM216.6 121.3h-2.4v-21.1h2.4v21.1zM238.8 104.3c-.8-1.5-1.8-2.3-3.6-2.3-1.9 0-3.5 1.3-3.5 3.3 0 1.8 1.9 2.7 3.3 3.3l1.4.6c2.7 1.2 5.1 2.6 5.1 5.9 0 3.7-3 6.5-6.6 6.5-3.4 0-5.9-2.2-6.6-5.5l2.3-.6c.3 2.2 2 3.9 4.2 3.9 2.3 0 4.3-1.7 4.3-4.1 0-2.5-1.9-3.3-3.9-4.2l-1.3-.6c-2.5-1.1-4.6-2.4-4.6-5.4 0-3.3 2.8-5.4 5.9-5.4 2.4 0 4.3 1.2 5.5 3.3l-1.9 1.3zM258.9 121.3h-2.4v-18.9h-5.1v-2.2H264v2.2h-5.2v18.9zM277.3 121.3h-2.4v-21.1h2.4v21.1zM306 104.9c-1.7-1.7-4-2.8-6.4-2.8-4.7 0-8.5 4.1-8.5 8.7s3.8 8.7 8.6 8.7c2.4 0 4.7-1.1 6.4-2.8v2.9c-1.8 1.3-4.1 2.1-6.3 2.1-6 0-11-4.8-11-10.8 0-6 5-11 11-11 2.4 0 4.4.7 6.3 2.1v2.9zM335.4 100.2h4c3.2 0 5.7.4 8.2 2.5 2.4 2.1 3.5 4.9 3.5 8 0 3.1-1.1 5.8-3.4 7.9-2.5 2.2-5 2.7-8.3 2.7h-3.9v-21.1zm4.1 19c2.6 0 4.7-.4 6.7-2.2 1.7-1.6 2.6-3.8 2.6-6.2 0-2.4-.9-4.7-2.7-6.3-1.9-1.7-4.1-2-6.6-2h-1.7v16.7h1.7zM365.2 121.3h-2.4v-21.1h2.4v21.1zM380.3 121.3h-2.4v-21.1h3.1c4 0 7.7 1.1 7.7 5.8 0 3.2-2 5.5-5.3 5.8l6.7 9.5h-2.9l-6.4-9.3h-.6v9.3zm0-11.3h.7c2.7 0 5.3-.5 5.3-3.8 0-3.5-2.5-3.8-5.4-3.8h-.7v7.6zM401.5 100.2h10.9v2.2h-8.6v6.3h8.3v2.2h-8.3v8.3h8.6v2.2h-10.9v-21.2zM440.9 104.9c-1.7-1.7-4-2.8-6.4-2.8-4.7 0-8.5 4.1-8.5 8.7s3.8 8.7 8.6 8.7c2.4 0 4.7-1.1 6.4-2.8v2.9c-1.8 1.3-4.1 2.1-6.3 2.1-6 0-11-4.8-11-10.8 0-6 5-11 11-11 2.4 0 4.4.7 6.3 2.1v2.9zM458.9 121.3h-2.4v-18.9h-5.1v-2.2H464v2.2h-5.2v18.9zM495.8 110.8c0 6.1-5 10.9-11 10.9s-11-4.8-11-10.9c0-6 5-10.9 11-10.9s11 4.9 11 10.9zm-19.6 0c0 4.8 3.9 8.7 8.7 8.7 4.8 0 8.7-4 8.7-8.7 0-4.8-3.8-8.7-8.7-8.7-4.9 0-8.7 3.9-8.7 8.7zM509.8 121.3h-2.4v-21.1h3.1c4 0 7.7 1.1 7.7 5.8 0 3.2-2 5.5-5.3 5.8l6.7 9.5h-2.9l-6.4-9.3h-.6v9.3zm0-11.3h.7c2.7 0 5.3-.5 5.3-3.8 0-3.5-2.5-3.8-5.4-3.8h-.7v7.6z" class="st0"/></g></svg>