<svg xmlns="http://www.w3.org/2000/svg" viewBox="0 0 32 32" enable-background="new 0 0 32 32"><style type="text/css">.st0{fill:none;stroke:#000000;stroke-width:2;stroke-miterlimit:10;} .st1{fill:#001732;}</style><path d="M25.4 17.3c-2.3-1.2-2.7-1.8-2.7-2.6 0-.7.6-1.6 2.3-1.6 1.4 0 2.9.4 3.8 1 .2.1.3 0 .3-.2v-3c0-.2 0-.3-.2-.4-.7-.3-2.1-.6-4-.6-3.9 0-6.1 2.4-6.1 5.2 0 2.5 1.3 4.1 4.5 5.6 2.2 1.2 2.7 1.9 2.7 2.7 0 1-.7 1.7-2.5 1.7-1.5 0-3.1-.4-4.5-1.3-.2-.1-.3 0-.3.2v3.3c0 .2 0 .3.2.4 1 .6 2.6 1 4.5 1 3.7 0 6.4-1.9 6.4-5.4.2-2.7-.9-4.3-4.4-6zM8.2 3.6c-2.2 0-4.3 0-5.7.1-.1 0-.5.1-.5.2v23.8c0 .3.1.3.3.3h3.4c.2 0 .2-.1.2-.3v-8.5c.7 0 .9 0 1.7 0 5 0 9.1-2.4 9.1-8 .1-4.2-2.3-7.6-8.5-7.6zm-.4 12.2c-.9 0-1.2 0-1.8 0V7.2c.4 0 1.3-.1 2.1-.1 2.9 0 4.7 1.4 4.7 4.2 0 3.6-2.4 4.5-5 4.5z" class="st1"/></svg>