<svg xmlns="http://www.w3.org/2000/svg" viewBox="0 0 32 32" enable-background="new 0 0 32 32"><style type="text/css">.st0{fill:none;stroke:#000000;stroke-width:2;stroke-miterlimit:10;} .st1{fill:#001732;}</style><path d="M29.4 10.1h-3.7c-.2 0-.3.1-.3.3V29c0 .2.1.3.3.3h3.7c.2 0 .3-.1.3-.2V10.4c0-.2-.1-.3-.3-.3zM27.5 7.5c1.5 0 2.5-.9 2.5-2.4 0-1.4-1-2.4-2.4-2.4-1.3 0-2.4.9-2.4 2.4s1 2.4 2.3 2.4zM14.4 3.6c0-.2-.1-.2-.3-.2h-5c-.1-.1-.1 0-.1.2 0 1.2-.1 1.5-.2 2L2 29c0 .3 0 .3.2.3h3.5c.2 0 .3 0 .4-.2L8 22h7.6l1.9 7.1c0 .2.2.2.4.2h3.9c.2 0 .2-.1.2-.3L14.4 3.6zM8.9 18.2c1-3.7 2.2-8.4 2.7-11.1.6 2.8 2.2 8.4 2.8 11.1H8.9z" class="st1"/></svg>