<svg xmlns="http://www.w3.org/2000/svg" viewBox="0 0 32 32" enable-background="new 0 0 32 32"><style type="text/css">.st0{fill:none;stroke:#000000;stroke-width:2;stroke-miterlimit:10;} .st1{fill:#001732;}</style><path d="M26 5.5l-4.9-2.2H10.9L6 5.5 2 10l14 18.6L30 10l-4-4.5zm2.8 4.7l-4.4 3.3-3.1-4.7 4.5-2.1 3 3.5zm-6 3.8H9l2.8-4.9H20l2.8 4.9zm-11-9.9h8.4l4.2 1.8-4.2 1.8h-8.4L7.7 5.9l4.1-1.8zM6.3 6.7l4.2 2.1-3 4.6-4.3-3.2 3.1-3.5zm-1.5 5.9l2.7 2.3L14 25.5 4.8 12.6zm4.5 2.9h13.1L16 27.4 9.3 15.5zm8.7 10l6.5-10.7 2.7-2.3-9.2 13z" class="st1"/></svg>