<svg xmlns="http://www.w3.org/2000/svg" viewBox="0 0 32 32" enable-background="new 0 0 32 32"><style type="text/css">.st0{fill:none;stroke:#000000;stroke-width:2;stroke-miterlimit:10;} .st1{fill:#001732;}</style><path id="Edit_2_" d="M18.8 7.9c-.7-.7-1.9-.7-2.7 0l-.7.7-9.3 9.3-.3.3s-.9.9-3 7.8c0 0 0 .1 0 .1 0 .1-.1.2-.1.4 0 .1-.1.2-.1.3 0 .1-.1.2-.1.3-.1.2-.1.4-.2.7-.2.5-.5 1.7-.1 2.1.4.4 1.6 0 2.1-.1.2-.1.5-.1.7-.2.1 0 .2-.1.3-.1.1 0 .2-.1.3-.1.1 0 .3-.1.4-.1 0 0 .1 0 .1 0 6.5-2 7.6-3 7.7-3.1l.3-.3 9.3-9.3.7-.7c.7-.7.7-1.9 0-2.7l-5.3-5.3zm-6 17c-.1 0-.1 0 0 0-.1 0-.1 0 0 0-.1.1-.1.1-.1.1-.3.2-1.2.7-3.4 1.5-.3.1-.5.2-.8.3l-3.1-3.1c.1-.3.2-.6.3-.8.8-2.2 1.3-3.1 1.5-3.4l.1-.5 5.7 5.7-.2.2zm16.6-17l-5.3-5.3c-.7-.7-1.9-.7-2.7 0l-1.3 1.3c-.7.7-.7 1.9 0 2.7l5.3 5.3c.7.7 1.9.7 2.7 0l1.3-1.3c.8-.8.8-2 0-2.7z" class="st1"/></svg>