<svg xmlns="http://www.w3.org/2000/svg" viewBox="0 0 32 32" enable-background="new 0 0 32 32"><style type="text/css">.st0{fill:none;stroke:#000000;stroke-width:2;stroke-miterlimit:10;} .st1{fill:#001732;}</style><path d="M24.6 10.8c-4 0-6.2 3.6-6.2 7.9 0 4 1.8 7.6 6.7 7.6 1.5 0 2.7-.2 3.7-.7.1-.1.2-.2.2-.4v-2.3c0-.2-.1-.2-.2-.1-1 .4-1.9.6-3 .6-2.8 0-4-1.7-4-4.1h4.8c1.6 0 2.7-.1 3.1-.1.1 0 .2-.1.2-.2.1-.4.1-1.1.1-2 0-2.9-1.4-6.2-5.4-6.2zm2.2 5.8c-.1 0-.4 0-1.4 0h-3.7c.2-1.6.9-3.2 2.7-3.2 1.9 0 2.4 1.8 2.4 2.8 0 .2 0 .3 0 .4zM11.7 5.9c0-.1-.1-.2-.2-.2H7.6c-.1 0-.1 0-.1.2 0 .9-.1 1.2-.2 1.5L2 25.7c0 .2 0 .3.2.3h2.7c.2 0 .2-.1.3-.2l1.4-5.5h5.9l1.5 5.5c0 .1.1.2.3.2h3c.1 0 .2-.1.1-.2L11.7 5.9zM7.4 17.3c.8-2.8 1.8-6.5 2.2-8.7.5 2.2 1.7 6.6 2.2 8.7H7.4z" class="st1"/></svg>