<svg xmlns="http://www.w3.org/2000/svg" viewBox="0 0 351.9 182.6" enable-background="new 0 0 351.9 182.6"><style type="text/css">.st0{fill:#FFFFFF;}</style><path d="M117.2 177.7c1.3 1.3 2.5 1.9 3.8 2v2.5c-5.9-.2-13.4-.4-22.4-.4-9.4 0-16.2.1-20.6.4v-2.5c3.1-.1 5.3-.5 6.6-1.1 1.3-.6 2-1.8 2-3.4 0-1.2-.5-3.2-1.5-5.8L45.3 65.2H20.5l-2.1 5.5c-2.6 6.9-4 12.2-4 16 0 3.4.9 5.7 2.8 6.9 1.9 1.2 4.6 1.9 8.3 2v2.5c-6.1-.2-11.5-.4-16.1-.4-3.9 0-7 .1-9.5.4v-2.5c2-.3 3.9-1.6 5.7-3.8 1.8-2.2 3.7-5.7 5.6-10.6L38.5 11c1.8.2 3.9.2 6.5.2s4.7-.1 6.4-.2l62.2 160.8c1.1 2.7 2.3 4.7 3.6 5.9zM33.3 32L21.5 62.7h23L33.3 32zM136.2 30.6c4.2 0 7.8 1.1 11 3.4s5.7 5.7 7.6 10.4c1.8 4.6 2.8 10.3 2.8 17.1 0 13-2.6 22.3-7.9 28-5.3 5.6-12.2 8.5-20.7 8.5-2.8 0-5.1-.1-6.9-.3-1.8-.2-3.6-.7-5.2-1.4-2.8-1-5.7-1.6-8.8-1.6-2.5 0-4.8.3-6.9 1s-3.8 1.5-4.9 2.6L94.6 97c.6-1.7.8-4 .8-6.7V14.8c0-3.8-.5-6.6-1.6-8.3C92.8 4.8 91 4 88.5 4V1.4c2.6.2 5.1.4 7.6.4 8.6 0 15.7-.6 21.4-1.7v39.8c3.7-6.2 9.9-9.3 18.7-9.3zm-12.9 64.8c7.5 0 11.3-10.4 11.3-31.1 0-10.1-.7-17.2-2.2-21.2-1.5-4-3.5-6.1-6-6.1-1.5 0-3 .4-4.3 1.1-1.4.8-2.5 1.8-3.3 3.2-.8 1.3-1.2 2.9-1.2 4.5V94c1.7.9 3.6 1.4 5.7 1.4zM220.2 38.8c5.5 5.3 8.2 13.9 8.2 25.8 0 11.8-2.7 20.4-8.2 25.7-5.5 5.3-13.3 7.9-23.3 7.9-10.1 0-17.9-2.6-23.4-7.9-5.5-5.3-8.2-13.8-8.2-25.7 0-11.9 2.8-20.5 8.3-25.8 5.5-5.3 13.3-8 23.4-8 9.9 0 17.7 2.7 23.2 8zM190.6 41c-1.6 5.2-2.4 13-2.4 23.5s.8 18.3 2.4 23.4c1.6 5.1 3.7 7.7 6.3 7.7 2.6 0 4.7-2.6 6.2-7.7 1.6-5.1 2.3-12.9 2.3-23.4 0-10.5-.8-18.4-2.3-23.5s-3.6-7.7-6.2-7.7c-2.7 0-4.7 2.6-6.3 7.7zM301.2 91.3c1 1.7 2.8 2.6 5.3 2.6v2.6c-2.6-.2-5.1-.4-7.6-.4-8.6 0-15.7.6-21.4 1.7v-8.9c-3.7 6.2-10.2 9.2-19.6 9.2-6.5 0-11.1-1.6-13.9-4.9-1.2-1.5-2.2-3.5-2.7-5.9-.6-2.5-.9-5.8-.9-9.9V46c0-3.8-.5-6.6-1.5-8.3-1-1.7-2.8-2.6-5.3-2.6v-2.6c2.6.2 5.1.4 7.6.4 8.5 0 15.6-.6 21.4-1.7V84c0 2.6.5 4.6 1.4 5.9 1 1.3 2.5 1.9 4.6 1.9 1.5 0 3-.4 4.3-1.1 1.4-.8 2.5-1.8 3.3-3.2.8-1.3 1.3-2.9 1.3-4.5V46c0-3.8-.5-6.6-1.6-8.3-1-1.7-2.8-2.6-5.3-2.6v-2.6c2.6.2 5.1.4 7.6.4 8.5 0 15.6-.6 21.4-1.7V83c0 3.8.5 6.6 1.6 8.3zM351.8 32.7v2.5h-12.1v50.9c0 1.6.3 2.7.8 3.4.6.7 1.5 1 2.9 1 1 0 2.1-.3 3.3-.9 1.2-.6 2.3-1.5 3.3-2.7l1.9 1.5c-3.8 6.5-9.6 9.7-17.5 9.7-5.6 0-9.9-1.4-12.7-4.2-1.7-1.7-2.8-3.8-3.4-6.4-.6-2.6-.8-6.1-.8-10.7V35.2h-9.3v-2.5h9.3V18.1c4.4 0 8.4-.4 12-1.3 3.6-.9 6.9-2.2 10.1-4.1v20h12.2zM246.5 175.9c.4 1.3 1.2 2.2 2.1 2.7 1 .5 2.3.8 4.1.8v2.6c-8.8-.3-14.5-.5-17.2-.5-2.5 0-7.9.2-16.3.5v-2.6c1.2 0 2-.3 2.7-.8.6-.5 1.1-1.4 1.4-2.7.3-1.3.4-3.1.4-5.4v-40c0-2.6-.5-4.6-1.4-5.9s-2.5-1.9-4.6-1.9c-1.4 0-2.8.4-4.1 1.3s-2.4 2-3.3 3.3-1.5 2.9-1.7 4.5c.1 1.6.2 3.3.2 5.3v33.3c0 2.3.2 4.1.5 5.4.4 1.3.9 2.2 1.7 2.7.8.5 1.9.8 3.4.8v2.6c-8.3-.3-13.7-.5-16-.5-2.6 0-8 .2-16.2.5v-2.6c1.1 0 1.9-.3 2.6-.8.6-.5 1.1-1.4 1.4-2.7.3-1.3.5-3.1.5-5.3v-40c0-2.6-.4-4.6-1.1-5.9s-2-1.9-3.7-1.9c-1.5 0-3 .4-4.3 1.1-1.4.8-2.5 1.8-3.3 3.2-.8 1.3-1.3 2.9-1.3 4.5v38.9c0 2.3.1 4.1.4 5.4.3 1.3.7 2.2 1.4 2.7.6.5 1.5.8 2.6.8v2.6c-7.5-.3-12.5-.5-15-.5-2.8 0-9 .2-18.4.5v-2.6c1.7 0 3.1-.3 4.1-.8 1-.5 1.7-1.4 2.2-2.7.4-1.3.7-3.1.7-5.3v-39c0-3.8-.5-6.6-1.6-8.3-1-1.7-2.8-2.6-5.3-2.6V118c2.6.2 5.1.4 7.6.4 8.5 0 15.6-.6 21.4-1.7v8.8c3.5-6.2 9.6-9.2 18.3-9.2 6.6 0 11.2 1.6 13.9 4.9 1.2 1.5 2.1 3.4 2.6 5.8 2.1-3.9 4.9-6.7 8.3-8.3 3.4-1.6 7.5-2.4 12.2-2.4 6.5 0 11.1 1.6 13.9 4.9 1.2 1.5 2.2 3.5 2.7 6 .6 2.5.9 5.8.9 9.9v33.3c-.1 2.4.1 4.2.6 5.5zM282 147.3c0 7.9 1.4 13.5 4.1 16.8 2.7 3.3 6.1 5 10.1 5 6 0 10.9-2.7 14.9-8.2l2.1.8c-1.2 3.6-2.8 7-5 10.2-2.2 3.1-5 5.7-8.5 7.7s-7.5 3-12.1 3c-8.6 0-15.5-2.7-20.7-8s-7.8-13.9-7.8-25.5c0-7.6 1.4-13.9 4.1-19 2.7-5 6.5-8.8 11.2-11.2 4.7-2.4 10.2-3.6 16.4-3.6 15.5 0 23.2 9.2 23.2 27.5h-31.7c-.3 1.1-.3 2.5-.3 4.5zm12.5-22.8c-1-4.2-2.6-6.3-4.8-6.3-2.2 0-4 1.8-5.4 5.3-1.4 3.5-2.2 9.2-2.6 17h14.2c.1-6.5-.4-11.8-1.4-16z" class="st0"/></svg>