<svg xmlns="http://www.w3.org/2000/svg" viewBox="0 0 408.6 169.6" enable-background="new 0 0 408.6 169.6"><style type="text/css">.st0{fill:#001933;} .st1{fill:url(#SVGID_1_);} .st2{fill:#6C5E6F;} .st3{opacity:0.4;fill:#FFFFFF;} .st4{fill:#796D7B;} .st5{opacity:0.1;fill:#FFFFFF;} .st6{opacity:0.2;fill:#000330;} .st7{opacity:0.3;fill:#FFFFFF;} .st8{opacity:0.1;fill:#0C011A;} .st9{opacity:0.5;fill:#05032C;} .st10{opacity:0.1;fill:#05032C;}</style><path d="M24.5 57.1l2-.2.1 4c-5.2.7-9.6 1.1-13.2 1.1-4.9 0-8.3-1.5-10.4-4.3s-3-7.2-3-13.1c0-11.8 4.7-17.8 14.1-17.8 4.5 0 7.9 1.3 10.2 3.8 2.3 2.5 3.4 6.5 3.4 12l-.3 3.9H5.1c0 3.7.7 6.5 2 8.3 1.4 1.8 3.7 2.7 7.1 2.7 3.4 0 6.8-.1 10.3-.4zm-1.9-14.7c0-4.1-.7-7.1-2-8.8-1.3-1.7-3.5-2.6-6.5-2.6s-5.2.9-6.8 2.7C5.8 35.5 5 38.4 5 42.3h17.6zM31.9 27.5h5.5l8.2 13.2L54 27.5h5.5L48.8 44.3l10.7 17H54l-8.2-13.2-8.2 13.2h-5.5l10.6-16.9-10.8-16.9zM65.9 76.3V27.5h5v2.4c3.4-2.1 6.8-3.1 10.1-3.1 4.3 0 7.4 1.4 9.3 4.1 1.9 2.7 2.9 7.2 2.9 13.5s-1.1 10.8-3.4 13.5c-2.3 2.7-6 4.1-11.3 4.1-2.7 0-5.3-.2-7.6-.7v15.1h-5zm14.3-44.9c-1.4 0-2.8.2-4.4.7-1.6.5-2.8.9-3.7 1.4l-1.3.7V57c3.2.5 5.6.7 7.3.7 3.6 0 6.2-1 7.7-3.1S88 49.2 88 44.5c0-4.7-.7-8-2-10-1.2-2.2-3.2-3.1-5.8-3.1zM100 44.3c0-6.2 1.1-10.6 3.3-13.4 2.2-2.7 5.9-4.1 11.2-4.1 5.2 0 9 1.4 11.1 4.1 2.2 2.7 3.3 7.2 3.3 13.4s-1 10.7-3.1 13.4c-2.1 2.8-5.9 4.2-11.3 4.2s-9.3-1.4-11.3-4.2C101 55 100 50.5 100 44.3zm5.2-.1c0 4.9.6 8.4 1.8 10.4 1.2 2 3.7 3 7.5 3s6.3-1 7.5-2.9c1.2-2 1.8-5.4 1.8-10.4s-.7-8.4-2-10.2c-1.3-1.9-3.7-2.8-7.3-2.8-3.5 0-6 .9-7.3 2.8-1.4 1.8-2 5.2-2 10.1z" class="st0"/><linearGradient id="SVGID_1_" x1="4914.688" x2="5033.801" y1="5211.368" y2="5053.136" gradientUnits="userSpaceOnUse" gradientTransform="matrix(.276 -.961 .961 .276 -5964.269 3452.179)"><stop offset="0" stop-color="#00F2CC"/><stop offset="1" stop-color="#00F2CC" stop-opacity="0"/></linearGradient><path d="M402.7 161.7l-17.3 7.9-18-7.2-5-7.7L278.6 0l116.5 121.4 10.6 9.7 2.9 12.5z" class="st1"/><path d="M384.7 166.8l-16.3-7.1-3.5-5.1 6.5-12.4 5.9-2.4 6.4-.1 3.5-9.4 9.6-3.4 7.9 6.1 1.5 12.3-5.6 14.5z" class="st2"/><path d="M384.7 166.8l-1-27.1 16.9 20.1z" class="st3"/><path d="M384.1 149.7l10.9 3.5-10.3 13.6z" class="st4"/><path d="M384.7 166.8l-9.2-14-7.1 6.9z" class="st5"/><path d="M384.1 149.7l-8.6 3.1 9.2 14z" class="st6"/><path d="M383.7 139.7l22.5 5.6-5.6 14.5z" class="st7"/><path d="M395 153.2l11.2-7.9-22.5-5.6z" class="st4"/><path d="M384.1 149.7l-12.7-7.5 5.9-2.4z" class="st8"/><path d="M383.7 139.7l.4 10-6.8-9.9z" class="st9"/><path d="M375.5 152.8l-7.1 6.9-3.5-5.1z" class="st3"/><path d="M371.4 142.2l4.1 10.6-10.6 1.8z" class="st5"/><path d="M395.9 135.1l-1.3 7.3-10.9-2.7z" class="st7"/><path d="M404.7 133l-10.1 9.4 11.6 2.9z" class="st2"/><path d="M395.9 135.1l8.8-2.1-10.1 9.4z" class="st10"/><path d="M396.8 126.9l-.9 8.2 8.8-2.1z" class="st9"/><path d="M387.2 130.3l8.7 4.8-12.2 4.6z" class="st5"/><path d="M22.7 133.1c-8.4 0-14.2-2.3-17.2-7S1 113.7 1 103c0-10.7 1.5-18.3 4.6-22.8 3-4.5 8.8-6.8 17.1-6.8 5 0 10.5.7 16.5 2.1l-.3 7.6c-5.1-.9-10.1-1.4-15.2-1.4s-8.5 1.5-10.3 4.5c-1.8 3-2.7 8.7-2.7 17s.9 14 2.6 17c1.7 3 5.2 4.5 10.2 4.5 5.1 0 10.2-.4 15.4-1.3l.3 7.8c-5.8 1.3-11.3 1.9-16.5 1.9zM87.9 126c-3.5 4.7-9.6 7.1-18.3 7.1-8.7 0-14.8-2.4-18.3-7.1-3.5-4.8-5.2-12.2-5.2-22.4s1.8-17.8 5.3-22.7c3.5-5 9.6-7.4 18.3-7.4 8.7 0 14.7 2.5 18.2 7.4S93 93.3 93 103.6c0 10.2-1.7 17.7-5.1 22.4zm-29.3-6c1.9 3.3 5.6 5 11 5s9-1.6 10.9-4.9c1.9-3.3 2.8-8.7 2.8-16.4 0-7.7-1-13.3-2.9-16.8s-5.6-5.2-10.9-5.2-8.9 1.7-10.9 5.2-3 9-3 16.7c.1 7.6 1.1 13 3 16.4zM103.9 132.2V74.4h16.3l12.9 45.2L146 74.4h16.4v57.8H153V84.7h-1.3L138 129.8h-9.8l-13.7-45.1h-1.3v47.5h-9.3zM175.7 132.2V74.4h36.5v8.2h-27.1V99h22v8.1h-22V124h27.1v8.3h-36.5zm9.1-79.3l19.9 8.7-2.4 6.4-20.5-6.9 3-8.2zM216.8 82.7v-8.4H259v8.4h-16.3v49.5h-9.5V82.7h-16.4zM266.8 132.2V74.4h36.5v8.2h-27.1V99h22v8.1h-22V124h27.1v8.3h-36.5zM330.5 81.6c-7.1 0-10.7 2.5-10.7 7.5 0 2.6.8 4.4 2.5 5.5s5.4 2.4 11.2 4.1c5.8 1.6 9.8 3.5 12.2 5.7 2.4 2.2 3.5 5.7 3.5 10.5 0 6.1-1.7 10.6-5.2 13.6s-8.2 4.5-14.1 4.5c-4.8 0-10.1-.6-15.9-1.7l-3-.6.9-7.5c7.6 1 13.4 1.5 17.4 1.5 7 0 10.5-3.1 10.5-9.3 0-2.4-.8-4.2-2.4-5.4-1.6-1.2-5.1-2.4-10.6-3.8s-9.6-3.3-12.3-5.7c-2.7-2.4-4.1-6.2-4.1-11.5 0-5.2 1.7-9.2 5.1-11.9 3.4-2.7 8.1-4 14.1-4 4.3 0 9.5.5 15.4 1.5l3 .5-.8 7.6c-7.9-.6-13.5-1.1-16.7-1.1z" class="st0"/></svg>