<?xml version="1.0" encoding="utf-8"?>
<!-- Generator: Adobe Illustrator 18.0.0, SVG Export Plug-In . SVG Version: 6.00 Build 0)  -->
<!DOCTYPE svg PUBLIC "-//W3C//DTD SVG 1.1//EN" "http://www.w3.org/Graphics/SVG/1.1/DTD/svg11.dtd">
<svg version="1.1" id="Calque_1" xmlns="http://www.w3.org/2000/svg" xmlns:xlink="http://www.w3.org/1999/xlink" x="0px" y="0px"
	 viewBox="0 0 408.6 169.6" style="enable-background:new 0 0 408.6 169.6;" xml:space="preserve">
<style type="text/css">
	.st0{fill:#001933;}
	.st1{fill:url(#SVGID_1_);}
	.st2{fill:#6C5E6F;}
	.st3{opacity:0.4;fill:#FFFFFF;}
	.st4{fill:#796D7B;}
	.st5{opacity:0.1;fill:#FFFFFF;}
	.st6{opacity:0.2;fill:#000330;}
	.st7{opacity:0.3;fill:#FFFFFF;}
	.st8{opacity:0.1;fill:#0C011A;}
	.st9{opacity:0.5;fill:#05032C;}
	.st10{opacity:0.1;fill:#05032C;}
</style>
<g>
	<g>
		<path class="st0" d="M24.5,57.1l2-0.2l0.1,4C21.4,61.6,17,62,13.4,62C8.5,62,5.1,60.5,3,57.7s-3-7.2-3-13.1
			c0-11.8,4.7-17.8,14.1-17.8c4.5,0,7.9,1.3,10.2,3.8c2.3,2.5,3.4,6.5,3.4,12l-0.3,3.9H5.1c0,3.7,0.7,6.5,2,8.3
			c1.4,1.8,3.7,2.7,7.1,2.7C17.6,57.5,21,57.4,24.5,57.1z M22.6,42.4c0-4.1-0.7-7.1-2-8.8c-1.3-1.7-3.5-2.6-6.5-2.6
			c-3,0-5.2,0.9-6.8,2.7c-1.5,1.8-2.3,4.7-2.3,8.6H22.6z"/>
		<path class="st0" d="M31.9,27.5h5.5l8.2,13.2L54,27.5h5.5L48.8,44.3l10.7,17h-5.5l-8.2-13.2l-8.2,13.2h-5.5l10.6-16.9L31.9,27.5z"
			/>
		<path class="st0" d="M65.9,76.3V27.5h5v2.4c3.4-2.1,6.8-3.1,10.1-3.1c4.3,0,7.4,1.4,9.3,4.1c1.9,2.7,2.9,7.2,2.9,13.5
			c0,6.3-1.1,10.8-3.4,13.5c-2.3,2.7-6,4.1-11.3,4.1c-2.7,0-5.3-0.2-7.6-0.7v15.1H65.9z M80.2,31.4c-1.4,0-2.8,0.2-4.4,0.7
			c-1.6,0.5-2.8,0.9-3.7,1.4l-1.3,0.7v22.8c3.2,0.5,5.6,0.7,7.3,0.7c3.6,0,6.2-1,7.7-3.1c1.5-2.1,2.2-5.4,2.2-10.1c0-4.7-0.7-8-2-10
			C84.8,32.3,82.8,31.4,80.2,31.4z"/>
		<path class="st0" d="M100,44.3c0-6.2,1.1-10.6,3.3-13.4c2.2-2.7,5.9-4.1,11.2-4.1c5.2,0,9,1.4,11.1,4.1c2.2,2.7,3.3,7.2,3.3,13.4
			c0,6.2-1,10.7-3.1,13.4c-2.1,2.8-5.9,4.2-11.3,4.2s-9.3-1.4-11.3-4.2C101,55,100,50.5,100,44.3z M105.2,44.2
			c0,4.9,0.6,8.4,1.8,10.4c1.2,2,3.7,3,7.5,3c3.8,0,6.3-1,7.5-2.9c1.2-2,1.8-5.4,1.8-10.4c0-5-0.7-8.4-2-10.2
			c-1.3-1.9-3.7-2.8-7.3-2.8c-3.5,0-6,0.9-7.3,2.8C105.8,35.9,105.2,39.3,105.2,44.2z"/>
	</g>
	<g>
		
			<linearGradient id="SVGID_1_" gradientUnits="userSpaceOnUse" x1="4914.688" y1="5211.3677" x2="5033.8013" y2="5053.1357" gradientTransform="matrix(0.2757 -0.9613 0.9613 0.2757 -5964.269 3452.1792)">
			<stop  offset="0" style="stop-color:#00F2CC"/>
			<stop  offset="1" style="stop-color:#00F2CC;stop-opacity:0"/>
		</linearGradient>
		<polygon class="st1" points="402.7,161.7 385.4,169.6 367.4,162.4 362.4,154.7 278.6,0 395.1,121.4 405.7,131.1 408.6,143.6 		"/>
		<polygon class="st2" points="384.7,166.8 368.4,159.7 364.9,154.6 371.4,142.2 377.3,139.8 383.7,139.7 387.2,130.3 396.8,126.9 
			404.7,133 406.2,145.3 400.6,159.8 		"/>
		<polygon class="st3" points="384.7,166.8 383.7,139.7 400.6,159.8 		"/>
		<polygon class="st4" points="384.1,149.7 395,153.2 384.7,166.8 		"/>
		<polygon class="st5" points="384.7,166.8 375.5,152.8 368.4,159.7 		"/>
		<polygon class="st6" points="384.1,149.7 375.5,152.8 384.7,166.8 		"/>
		<g>
			<polygon class="st7" points="383.7,139.7 406.2,145.3 400.6,159.8 			"/>
			<polygon class="st4" points="395,153.2 406.2,145.3 383.7,139.7 			"/>
			<polygon class="st8" points="384.1,149.7 371.4,142.2 377.3,139.8 			"/>
			<polygon class="st9" points="383.7,139.7 384.1,149.7 377.3,139.8 			"/>
			<polygon class="st3" points="375.5,152.8 368.4,159.7 364.9,154.6 			"/>
			<polygon class="st5" points="371.4,142.2 375.5,152.8 364.9,154.6 			"/>
			<polygon class="st7" points="395.9,135.1 394.6,142.4 383.7,139.7 			"/>
			<polygon class="st2" points="404.7,133 394.6,142.4 406.2,145.3 			"/>
			<polygon class="st10" points="395.9,135.1 404.7,133 394.6,142.4 			"/>
			<polygon class="st9" points="396.8,126.9 395.9,135.1 404.7,133 			"/>
			<polygon class="st5" points="387.2,130.3 395.9,135.1 383.7,139.7 			"/>
		</g>
	</g>
	<g>
		<path class="st0" d="M22.7,133.1c-8.4,0-14.2-2.3-17.2-7c-3-4.7-4.5-12.4-4.5-23.1c0-10.7,1.5-18.3,4.6-22.8
			c3-4.5,8.8-6.8,17.1-6.8c5,0,10.5,0.7,16.5,2.1l-0.3,7.6c-5.1-0.9-10.1-1.4-15.2-1.4c-5.1,0-8.5,1.5-10.3,4.5
			c-1.8,3-2.7,8.7-2.7,17c0,8.3,0.9,14,2.6,17c1.7,3,5.2,4.5,10.2,4.5c5.1,0,10.2-0.4,15.4-1.3l0.3,7.8
			C33.4,132.5,27.9,133.1,22.7,133.1z"/>
		<path class="st0" d="M87.9,126c-3.5,4.7-9.6,7.1-18.3,7.1c-8.7,0-14.8-2.4-18.3-7.1c-3.5-4.8-5.2-12.2-5.2-22.4
			c0-10.2,1.8-17.8,5.3-22.7c3.5-5,9.6-7.4,18.3-7.4c8.7,0,14.7,2.5,18.2,7.4S93,93.3,93,103.6C93,113.8,91.3,121.3,87.9,126z
			 M58.6,120c1.9,3.3,5.6,5,11,5c5.4,0,9-1.6,10.9-4.9c1.9-3.3,2.8-8.7,2.8-16.4c0-7.7-1-13.3-2.9-16.8c-1.9-3.5-5.6-5.2-10.9-5.2
			s-8.9,1.7-10.9,5.2s-3,9-3,16.7C55.7,111.2,56.7,116.6,58.6,120z"/>
		<path class="st0" d="M103.9,132.2V74.4h16.3l12.9,45.2l12.9-45.2h16.4v57.8H153V84.7h-1.3L138,129.8h-9.8l-13.7-45.1h-1.3v47.5
			H103.9z"/>
		<path class="st0" d="M175.7,132.2V74.4h36.5v8.2h-27.1v16.4h22v8.1h-22v16.9h27.1v8.3H175.7z M184.8,52.9l19.9,8.7l-2.4,6.4
			l-20.5-6.9L184.8,52.9z"/>
		<path class="st0" d="M216.8,82.7v-8.4H259v8.4h-16.3v49.5h-9.5V82.7H216.8z"/>
		<path class="st0" d="M266.8,132.2V74.4h36.5v8.2h-27.1v16.4h22v8.1h-22v16.9h27.1v8.3H266.8z"/>
		<path class="st0" d="M330.5,81.6c-7.1,0-10.7,2.5-10.7,7.5c0,2.6,0.8,4.4,2.5,5.5s5.4,2.4,11.2,4.1c5.8,1.6,9.8,3.5,12.2,5.7
			c2.4,2.2,3.5,5.7,3.5,10.5c0,6.1-1.7,10.6-5.2,13.6c-3.5,3-8.2,4.5-14.1,4.5c-4.8,0-10.1-0.6-15.9-1.7l-3-0.6l0.9-7.5
			c7.6,1,13.4,1.5,17.4,1.5c7,0,10.5-3.1,10.5-9.3c0-2.4-0.8-4.2-2.4-5.4c-1.6-1.2-5.1-2.4-10.6-3.8c-5.5-1.4-9.6-3.3-12.3-5.7
			c-2.7-2.4-4.1-6.2-4.1-11.5c0-5.2,1.7-9.2,5.1-11.9c3.4-2.7,8.1-4,14.1-4c4.3,0,9.5,0.5,15.4,1.5l3,0.5l-0.8,7.6
			C339.3,82.1,333.7,81.6,330.5,81.6z"/>
	</g>
</g>
</svg>
