<svg xmlns="http://www.w3.org/2000/svg" viewBox="0 0 1000 236.1" enable-background="new 0 0 1000 236.1"><style type="text/css">.st0{fill:#230F66;}</style><path d="M0 104.1l5.5-20.2h4.9l5.5 20.2h-2.2l-1.5-5.2H3.7l-1.5 5.2H0zm7.2-18.3l-3 11h7.6l-3-11H7.2zM19.2 83.9h7.3c2 0 3.5.4 4.5 1.2 1 .8 1.5 2.1 1.5 3.9 0 1.3-.2 2.3-.7 3-.4.7-1.1 1.3-1.9 1.7 2.1.7 3.2 2.3 3.2 4.8 0 2-.5 3.5-1.6 4.3-1.1.9-2.6 1.3-4.6 1.3h-7.7V83.9zm7.2 1.9h-5v7h5.2c1.2 0 2.2-.3 2.7-.9.6-.6.9-1.5.9-2.7s-.3-2.1-.9-2.6c-.6-.5-1.6-.8-2.9-.8zm.2 9h-5.2v7.3h5.4c1.3 0 2.3-.3 3-.8.7-.6 1-1.5 1-2.9 0-.7-.1-1.4-.4-1.9-.3-.5-.7-.9-1.1-1.1-.9-.4-1.7-.6-2.7-.6zM49.3 103.7c-2 .4-3.8.6-5.4.6s-2.9-.2-3.9-.7c-1-.4-1.7-1.1-2.3-2-.5-.9-.9-2-1.1-3.2-.2-1.2-.3-2.7-.3-4.5 0-1.8.1-3.3.3-4.5.2-1.2.6-2.3 1.1-3.2.5-.9 1.3-1.6 2.3-2 1-.4 2.2-.6 3.8-.6 1.6 0 3.4.2 5.5.6l-.1 1.9c-2-.4-3.7-.5-5.3-.5-2.1 0-3.6.6-4.2 1.9-.7 1.3-1 3.4-1 6.5 0 1.5.1 2.8.2 3.7.1.9.4 1.8.7 2.5.4.7.9 1.3 1.6 1.6.7.3 1.8.5 3.1.5 1.4 0 3-.2 4.9-.5l.1 1.9zM60.2 104.1H53V83.9h7.2c3.3 0 5.5 1.3 6.5 3.9.6 1.5.9 3.5.9 5.9 0 5.1-1.3 8.3-3.8 9.6-.9.5-2.1.8-3.6.8zm5.2-10.4c0-3.9-.9-6.3-2.6-7.2-.7-.4-1.6-.6-2.6-.6h-5v16.2h5c3.5 0 5.2-2.8 5.2-8.4zM71.8 104.1V83.9h12.3v2h-10v7h8.3v2h-8.3v7.3h10v2H71.8zM88 104.1V83.9h12v2h-9.8v7.9h8.3v2h-8.3v8.3H88zM111 95.7v-2h5.6v9.9c-2.5.5-4.6.7-6.6.7-2.9 0-5-.8-6.1-2.5-1.1-1.7-1.7-4.3-1.7-7.8s.6-6.1 1.7-7.8 3.2-2.6 6.1-2.6c1.8 0 3.7.2 5.6.6l1 .2-.1 1.9c-2.4-.4-4.5-.6-6.3-.6-2.2 0-3.7.6-4.5 1.9-.8 1.3-1.2 3.4-1.2 6.4 0 3 .4 5.2 1.2 6.4.8 1.3 2.3 1.9 4.5 1.9 1.4 0 2.8-.1 4.2-.4v-6.2H111zM133.5 104.1V95h-10.3v9.1H121V83.9h2.2v9h10.3v-9h2.2v20.2h-2.2zM140.7 104.1V83.9h2.2v20.2h-2.2zM145.7 106.2v-2c1.4 0 2.3-.2 2.7-.5.4-.3.6-1.2.6-2.7V83.9h2.2v17.4c0 1.6-.3 2.8-.8 3.6-.4.6-1.3 1-2.7 1.2-.4 0-1.1.1-2 .1zM158.4 104.1h-2.2V83.9h2.2v9.4l3.3-.1 5.2-9.3h2.6L163.6 94l6.1 10H167l-5.4-8.9-3.4.1v8.9zM183.8 104.1h-11.1V83.9h2.2V102h8.9v2.1zM186.7 104.1V83.9h4.1l5.7 17.1 5.7-17.1h4.1v20.2H204V86.3h-.4l-5.9 17.1h-2.5l-5.9-17.1h-.4v17.8h-2.2zM211.2 104.1V83.9h4.2l7.7 18.2h.6V83.9h2.2v20.2h-4.1L214 85.8h-.6V104h-2.2zM246.1 94.1c0 3.6-.6 6.2-1.7 7.8-1.1 1.6-3.2 2.4-6.3 2.4-3 0-5.1-.8-6.3-2.5-1.1-1.7-1.7-4.3-1.7-7.8s.6-6.2 1.8-7.9c1.2-1.7 3.2-2.6 6.2-2.6s5.1.9 6.2 2.6c1.2 1.8 1.8 4.4 1.8 8zm-13.7-.1c0 3 .4 5.1 1.2 6.4.8 1.3 2.3 1.9 4.5 1.9s3.7-.6 4.5-1.9c.8-1.3 1.2-3.4 1.2-6.4s-.4-5.1-1.2-6.5c-.8-1.4-2.3-2-4.5-2s-3.7.7-4.5 2c-.8 1.4-1.2 3.6-1.2 6.5zM257.5 97.3h-5.1v6.8h-2.2V83.9h7.4c2.2 0 3.8.5 4.9 1.6 1.1 1.1 1.6 2.7 1.6 4.9-.1 4.6-2.3 6.9-6.6 6.9zm-5.1-2h5.1c2.8 0 4.2-1.6 4.2-4.9 0-1.6-.3-2.7-1-3.4-.7-.7-1.7-1.1-3.2-1.1h-5.1v9.4zM274.6 104.3c-3 0-5.1-.8-6.2-2.5-1.1-1.7-1.7-4.3-1.7-7.8s.6-6.2 1.8-7.9c1.2-1.7 3.2-2.6 6.2-2.6s5.1.9 6.2 2.6c1.2 1.7 1.8 4.3 1.8 7.9 0 2.5-.3 4.4-.8 5.9s-1.4 2.6-2.6 3.3l2.5 4-2.1 1-2.6-4.2c-.7.3-1.5.3-2.5.3zM269 94c0 3 .4 5.1 1.2 6.4.8 1.3 2.3 1.9 4.5 1.9s3.7-.6 4.5-1.9c.8-1.3 1.2-3.4 1.2-6.4 0-3-.4-5.2-1.2-6.5-.8-1.4-2.3-2-4.5-2s-3.7.7-4.5 2c-.9 1.4-1.2 3.6-1.2 6.5zM289 96.3v7.7h-2.2V83.9h7.5c2.1 0 3.7.5 4.8 1.5 1.1 1 1.6 2.5 1.6 4.6 0 3.1-1.2 5.1-3.7 5.9l3.9 8.2h-2.5l-3.6-7.7H289zm5.2-2c2.7 0 4.1-1.4 4.1-4.2 0-2.8-1.4-4.2-4.1-4.2H289v8.5h5.2zM310.3 85.5c-2.9 0-4.4 1.1-4.4 3.3 0 1.2.3 2.1 1 2.5.7.5 2 .9 4.1 1.4 2.1.5 3.5 1.1 4.4 1.8.9.7 1.3 1.9 1.3 3.6 0 4.1-2.1 6.2-6.4 6.2-1.4 0-3.2-.2-5.3-.5l-1.1-.1.2-1.9c2.6.4 4.7.5 6 .5 2.9 0 4.3-1.4 4.3-4.1 0-1.1-.3-1.9-.9-2.3-.6-.5-1.8-.9-3.5-1.2-2.3-.5-3.9-1.1-4.8-1.9-1-.8-1.4-2.1-1.4-3.9 0-3.6 2.2-5.4 6.5-5.4 1.4 0 3.1.1 5.1.4l1 .1-.4 2c-2.7-.3-4.6-.5-5.7-.5zM318.4 85.9v-2H333v2h-6.2v18.2h-2.2V85.9h-6.2zM337.9 98c0 2.9 1.6 4.4 4.7 4.4 1.6 0 2.9-.3 3.7-1 .8-.7 1.2-1.8 1.2-3.3V83.9h2.2V98c0 2.3-.6 3.9-1.8 4.9-1.2 1-3 1.5-5.3 1.5s-4.1-.5-5.3-1.5c-1.2-1-1.8-2.6-1.8-4.9V83.9h2.2V98zM366.1 83.9h2.3l-5.3 20.2h-5l-5.3-20.2h2.3l4.6 18.2h1.6l4.8-18.2zM370 83.9h2.3l3.4 18.2h.8l4.1-18h2.6l4.1 18h.8l3.4-18.2h2.3l-4.1 20.2h-4.1l-3.8-17.2-3.8 17.2h-4.1L370 83.9zM398.1 83.9l5.1 8.6 5.1-8.6h2.4l-6.2 10.2 6.2 9.9h-2.5l-5.1-8.4-5.2 8.4h-2.4l6.2-9.9-6.2-10.3h2.6zM420.2 104.1H418v-8.5l-6.4-11.7h2.5l5 9.5 5-9.5h2.5l-6.4 11.7v8.5zM428.2 85.8v-2h13.1v2.6l-10.6 15v.6h10.6v2h-13.1v-2.6l10.5-15v-.6h-10.5zM96.2 128.9v7.5c.1.7.6 1.1 1.7 1.3l-.1 1.7c-1.5 0-2.7-.4-3.5-1.2-1.8.8-3.5 1.2-5.3 1.2-1.3 0-2.4-.4-3.1-1.1-.7-.8-1.1-1.8-1.1-3.3 0-1.4.4-2.5 1.1-3.1.7-.7 1.8-1.1 3.4-1.2l4.6-.4V129c0-1-.2-1.7-.6-2.1-.4-.4-1-.6-1.8-.6-1.6 0-3.2.1-4.8.3l-.9.1-.1-1.7c2.1-.4 4-.6 5.7-.6 1.7 0 2.9.4 3.6 1.1.9.6 1.2 1.8 1.2 3.4zm-8.9 5.9c0 1.8.7 2.7 2.2 2.7 1.3 0 2.6-.2 3.9-.7l.7-.2v-4.8l-4.3.4c-.9.1-1.5.3-1.9.8-.4.4-.6 1-.6 1.8zM107 124.2c2 0 3.3.6 4.1 1.7.8 1.1 1.2 3.1 1.2 5.9 0 2.8-.5 4.8-1.5 5.9-1 1.1-2.8 1.7-5.4 1.7-.8 0-2.2-.1-4.1-.2l-.8-.1v-20.9h2.2v7.1c1.5-.8 2.9-1.1 4.3-1.1zm-1.6 13.2c1.9 0 3.2-.4 3.8-1.3.6-.9.9-2.3.9-4.4 0-2.1-.2-3.5-.7-4.3-.5-.8-1.4-1.2-2.6-1.2-1.1 0-2.3.2-3.5.6l-.6.2v10.3c1.3.1 2.2.1 2.7.1zM121.4 124.2c.6 0 1.7.1 3.3.4l.7.1-.1 1.8c-1.6-.2-2.7-.3-3.4-.3-1.7 0-2.8.4-3.4 1.2-.6.8-.9 2.2-.9 4.4 0 2.1.3 3.6.8 4.4.6.8 1.7 1.3 3.5 1.3l3.4-.3.1 1.8c-1.8.3-3.2.4-4.1.4-2.3 0-3.8-.6-4.7-1.8-.9-1.2-1.3-3.1-1.3-5.9 0-2.8.5-4.7 1.4-5.8.9-1.2 2.5-1.7 4.7-1.7zM139.7 118.1V139h-2.2v-1c-1.5.9-3 1.3-4.4 1.3-.8 0-1.5-.1-2-.3-.6-.2-1.1-.5-1.6-1.1-1.1-1.1-1.6-3-1.6-5.8s.5-4.9 1.4-6.1c.9-1.3 2.5-1.9 4.7-1.9 1.1 0 2.3.1 3.6.4v-6.4h2.1zm-7.6 19.1c.4.1.8.2 1.4.2.6 0 1.2-.1 1.9-.3.7-.2 1.2-.4 1.6-.5l.6-.3v-9.9c-1.2-.2-2.4-.4-3.5-.4-1.5 0-2.5.5-3.1 1.4-.6.9-.9 2.4-.9 4.4 0 2.3.3 3.8 1 4.5.3.5.6.8 1 .9zM153.8 137.3l.8-.1.1 1.7c-2.2.3-4.1.5-5.7.5-2.1 0-3.6-.6-4.5-1.8-.9-1.2-1.3-3.1-1.3-5.7 0-5.1 2-7.7 6.1-7.7 2 0 3.4.6 4.4 1.6 1 1.1 1.5 2.8 1.5 5.2l-.1 1.7h-9.6c0 1.6.3 2.8.9 3.6.6.8 1.6 1.2 3 1.2 1.5-.1 2.9-.1 4.4-.2zm-.8-6.4c0-1.8-.3-3.1-.9-3.8-.6-.7-1.5-1.1-2.8-1.1-1.3 0-2.3.4-2.9 1.2-.7.8-1 2-1 3.7h7.6zM161.4 126.4v12.7h-2.2v-12.7h-1.8v-1.9h1.8v-1.3c0-2.1.3-3.5.9-4.2.6-.7 1.6-1.1 3.1-1.1l2.9.2v1.8c-1.1 0-2-.1-2.7-.1-.7 0-1.2.2-1.5.7-.3.5-.5 1.4-.5 2.7v1.3h4.2v1.9h-4.2zM173.8 145.9c-2.3 0-4-.3-4.9-.9-.9-.6-1.4-1.8-1.4-3.5 0-.8.2-1.4.5-1.9.4-.5.9-1.1 1.8-1.7-.5-.4-.8-1-.8-2 0-.3.2-.9.7-1.8l.3-.5c-1.5-.7-2.3-2.2-2.3-4.4 0-3.3 1.8-5 5.5-5 .9 0 1.8.1 2.6.3l.4.1 4.3-.1v1.9l-2.8-.1c.6.6 1 1.6 1 2.9 0 1.8-.5 3.1-1.4 3.8-.9.7-2.3 1.1-4.3 1.1-.5 0-1 0-1.4-.1-.3.9-.5 1.4-.5 1.7 0 .6.2 1 .6 1.1.4.1 1.5.2 3.4.2s3.2.3 4 .9c.8.6 1.2 1.7 1.2 3.4 0 3.1-2.2 4.6-6.5 4.6zm-4.1-4.6c0 1 .3 1.7.9 2.1.6.4 1.6.6 3.2.6 1.5 0 2.7-.2 3.3-.6.7-.4 1-1.1 1-2.1s-.2-1.6-.7-1.9c-.5-.3-1.4-.4-2.9-.4l-3.2-.1c-.6.5-1.1.9-1.3 1.2-.2.2-.3.7-.3 1.2zm.2-12.1c0 1.1.3 2 .8 2.5s1.4.7 2.6.7c1.2 0 2-.2 2.5-.7s.8-1.3.8-2.5-.3-2-.8-2.5-1.4-.7-2.5-.7c-1.2 0-2 .2-2.6.7-.6.5-.8 1.3-.8 2.5zM185.3 139.1h-2.2v-20.9h2.2v7.2c1.6-.7 3.1-1.1 4.5-1.1 1.9 0 3.3.5 3.9 1.6.7 1.1 1 2.9 1 5.6v7.7h-2.2v-7.6c0-2-.2-3.4-.6-4.2-.4-.7-1.2-1.1-2.5-1.1-1.2 0-2.4.2-3.6.7l-.6.2v11.9zM198.8 121.2v-2.5h2.2v2.5h-2.2zm0 17.9v-14.6h2.2v14.6h-2.2zM205.2 138.7v-14.2h2.2v14.2c0 1.8-.3 3.1-1 4-.6.9-1.9 1.8-3.9 2.8l-.9-1.7c1.5-.9 2.5-1.6 2.9-2.2.5-.6.7-1.6.7-2.9zm0-17.5v-2.5h2.2v2.5h-2.2zM213.8 139.1h-2.2v-20.9h2.2v12.4l2.3-.1 4.2-5.9h2.5l-4.8 6.7 5 7.9h-2.5l-4.3-6.8-2.3.1v6.6zM225.7 139.1v-20.9h2.2v20.9h-2.2zM234.5 139.1h-2.2v-14.6h2.2v1c1.5-.9 2.9-1.3 4.3-1.3 1.8 0 3.1.5 3.8 1.5.6-.4 1.5-.7 2.5-1 1-.3 1.9-.5 2.7-.5 1.9 0 3.3.5 3.9 1.6.7 1 1 2.9 1 5.6v7.7h-2.2v-7.6c0-2-.2-3.4-.6-4.2-.4-.7-1.2-1.1-2.5-1.1-.6 0-1.3.1-2 .3-.7.2-1.2.4-1.6.5l-.6.3c.3.6.4 2.1.4 4.3v7.6h-2.2v-7.5c0-2.1-.2-3.5-.6-4.3-.4-.7-1.2-1.1-2.5-1.1-.6 0-1.3.1-1.9.3-.7.2-1.2.4-1.5.5l-.5.3v11.7zM258.9 139.1h-2.2v-14.6h2.2v1c1.6-.9 3.1-1.3 4.5-1.3 1.9 0 3.3.5 3.9 1.6s1 2.9 1 5.6v7.7h-2.2v-7.6c0-2-.2-3.4-.6-4.2-.4-.7-1.2-1.1-2.6-1.1-.6 0-1.3.1-2 .3-.7.2-1.2.4-1.6.5l-.6.3v11.8zM271.7 131.7c0-2.7.5-4.6 1.4-5.8 1-1.2 2.6-1.8 4.8-1.8 2.3 0 3.9.6 4.8 1.8.9 1.2 1.4 3.1 1.4 5.8 0 2.7-.4 4.6-1.3 5.8-.9 1.2-2.5 1.8-4.9 1.8-2.4 0-4-.6-4.9-1.8-.8-1.2-1.3-3.1-1.3-5.8zm2.3 0c0 2.1.3 3.6.8 4.5.5.9 1.6 1.3 3.2 1.3s2.7-.4 3.2-1.3c.5-.8.8-2.3.8-4.5 0-2.1-.3-3.6-.8-4.4-.6-.8-1.6-1.2-3.1-1.2s-2.6.4-3.2 1.2c-.6.8-.9 2.3-.9 4.4zM287.8 145.5v-21.1h2.2v1.1c1.5-.9 2.9-1.3 4.4-1.3 1.8 0 3.2.6 4 1.8.8 1.2 1.3 3.1 1.3 5.8s-.5 4.6-1.5 5.8c-1 1.2-2.6 1.8-4.9 1.8-1.2 0-2.3-.1-3.3-.3v6.5h-2.2zm6.2-19.4c-.6 0-1.2.1-1.9.3-.7.2-1.2.4-1.6.6l-.6.3v9.8c1.4.2 2.4.3 3.2.3 1.6 0 2.7-.4 3.3-1.3.6-.9.9-2.4.9-4.4s-.3-3.5-.9-4.3c-.5-.8-1.3-1.3-2.4-1.3zM308 139.4c-2 0-3.4-.6-4.2-1.7-.8-1.1-1.3-3.1-1.3-5.8s.5-4.7 1.5-5.9c1-1.2 2.8-1.8 5.4-1.8l4.9.3v21.1h-2.2v-7.1c-1.4.5-2.7.9-4.1.9zm1.4-13.3c-1.8 0-3.1.5-3.7 1.4-.7.9-1 2.4-1 4.4 0 2 .3 3.4.8 4.3.5.9 1.4 1.3 2.7 1.3 1.1 0 2.2-.2 3.4-.6l.5-.2v-10.3c-1.2-.3-2.1-.3-2.7-.3zM318.5 139.1v-14.6h2.2v2c1.7-1.2 3.5-1.9 5.3-2.3v2.2c-.8.2-1.7.4-2.6.7-.9.3-1.6.6-2 .9l-.7.4v10.7h-2.2zM333.2 126.1c-2.1 0-3.2.7-3.2 2.2 0 .7.2 1.2.7 1.4.5.3 1.6.6 3.3.9 1.7.3 3 .7 3.7 1.3.7.5 1.1 1.6 1.1 3.1s-.5 2.6-1.4 3.3-2.4 1.1-4.2 1.1c-1.2 0-2.6-.1-4.3-.4l-.9-.1.1-1.9c2.2.3 3.9.5 5 .5s2-.2 2.6-.5c.6-.4.9-1 .9-1.8s-.3-1.4-.8-1.7c-.5-.3-1.6-.6-3.3-.9-1.7-.3-2.9-.7-3.6-1.2-.7-.5-1.1-1.5-1.1-2.9s.5-2.5 1.5-3.1c1-.7 2.3-1 3.7-1 1.2 0 2.7.1 4.5.4l.8.1-.1 1.9c-2.1-.5-3.8-.7-5-.7zM349.7 126.4h-4.6v7c0 1.7.1 2.8.4 3.3.2.5.8.8 1.7.8l2.6-.2.1 1.8c-1.3.2-2.3.3-3 .3-1.5 0-2.6-.4-3.2-1.1-.6-.7-.9-2.1-.9-4.2v-7.7h-2.1v-1.9h2.1V120h2.2v4.5h4.6v1.9zM361.5 124.5h2.2v14.6h-2.2v-1c-1.5.9-2.9 1.3-4.3 1.3-2 0-3.3-.5-4-1.5-.7-1-1-2.9-1-5.7v-7.6h2.2v7.6c0 2.1.2 3.5.6 4.3.4.7 1.2 1.1 2.5 1.1.6 0 1.3-.1 2-.3.7-.2 1.2-.4 1.5-.5l.5-.3v-12zM366.5 124.5h2.3l3.4 12.7h1.1l3.5-12.7h2.2l-4.1 14.6h-4.4l-4-14.6zM380.7 124.5h2.2l2.9 12.7h.5l3.5-12.4h2.3l3.5 12.4h.5l2.9-12.7h2.2l-3.5 14.6H394l-3.1-11.4-3.1 11.4h-3.6l-3.5-14.6zM402.7 124.5h2.4l3.6 5.7 3.6-5.7h2.4l-4.6 7.2 4.6 7.4h-2.4l-3.5-5.7-3.6 5.7h-2.4l4.6-7.3-4.7-7.3zM416 124.5h2.2l3.6 12.7h1l3.7-12.7h2.2l-6.1 21.1h-2.2l1.9-6.5h-2.2l-4.1-14.6zM430.6 126.4v-2h10.8v2l-8.2 10.7h8.2v2h-10.8v-2l8.2-10.7h-8.2zM287.4 154.5c1.6 0 2.9.3 3.9.9 2.1 1.2 3.2 4.4 3.2 9.3 0 3.5-.6 6-1.8 7.5-1.2 1.4-2.9 2.2-5.3 2.2-2.3 0-4.1-.7-5.3-2.1-1.2-1.4-1.8-4-1.8-7.6s.6-6.3 1.7-7.8c1.3-1.6 3-2.4 5.4-2.4zm0 2c-1.1 0-2 .2-2.6.7-1.4 1-2.1 3.5-2.1 7.6 0 2.9.4 4.9 1.1 6 .8 1.1 1.9 1.6 3.6 1.6 1.6 0 2.8-.6 3.6-1.7.8-1.1 1.1-3.2 1.1-6.2s-.4-5.1-1.1-6.3c-.7-1.1-1.9-1.7-3.6-1.7zM306.9 154.8v19.3h-2.2v-16.7l-5 3.3-1-1.7 6.1-4.1h2.1zM326.2 174.1h-12.3v-1.9l5.6-5.9c1-1 1.7-1.8 2.1-2.3.4-.5.8-1.1 1.2-1.9.4-.7.5-1.4.5-2.2 0-1.2-.3-2.1-1-2.6s-1.7-.8-3.2-.8c-1.3 0-2.7.2-4.2.5l-.8.1-.2-1.9c1.8-.5 3.8-.8 5.7-.8 2 0 3.4.4 4.4 1.2 1 .8 1.5 2.1 1.5 3.9 0 1.4-.3 2.5-.9 3.6-.6 1-1.6 2.2-3.1 3.6l-5.1 5.2h9.7v2.2zM330.3 155.3c1.8-.5 3.8-.8 5.9-.8s3.6.4 4.5 1.2c.9.8 1.4 2.1 1.4 3.8 0 .9-.1 1.5-.4 1.9-.2.4-.4.7-.6.9-.1.2-.3.4-.6.6-.4.3-.8.6-1 .7l-.3.2c1.1.4 2 .9 2.5 1.6.5.6.8 1.7.8 3.1 0 2-.5 3.4-1.5 4.4-1 1-2.6 1.4-4.7 1.4-1.7 0-3.5-.2-5.4-.6l-.9-.2.2-1.8c2.1.4 4.1.6 5.9.6 2.8 0 4.2-1.3 4.2-3.7 0-2.3-1.3-3.5-4-3.6h-3.9v-1.9h3.9c.8 0 1.6-.3 2.4-1 .8-.7 1.1-1.5 1.1-2.6s-.3-1.8-.9-2.3c-.6-.5-1.6-.7-3-.7-1.6 0-3.1.1-4.6.4l-.8.1-.2-1.7zM355.1 174.1v-3.8h-9.3v-1.8l5.5-13.7h2.5l-5.6 13.5h7v-6h2.2v6h2.5v2h-2.5v3.8h-2.3zM374.8 154.8v2h-9.4l-.5 6.3c1.5-.8 3-1.2 4.5-1.2 4.1 0 6.1 1.9 6.1 5.7 0 2.2-.6 3.8-1.7 5-1.1 1.1-2.7 1.7-4.8 1.7-1.6 0-3.4-.2-5.4-.6l-1-.2.3-1.8c2.2.4 4.1.6 5.6.6s2.7-.4 3.5-1.2c.8-.8 1.2-1.9 1.2-3.3s-.4-2.4-1.1-3c-.7-.6-1.7-.9-3-.9-.7 0-1.4.1-2.2.3-.8.2-1.4.4-1.8.6l-.6.3-1.5-.3.5-10h11.3zM391.3 156.9c-1.8-.2-3.5-.3-5.1-.3-1.7 0-2.9.6-3.8 1.7-.9 1.1-1.3 2.8-1.3 4.9l.7-.3c.5-.2 1.1-.4 1.9-.6.8-.2 1.5-.3 2.1-.3 4.3 0 6.5 2 6.5 6 0 2-.6 3.6-1.8 4.7-1.2 1.1-2.8 1.6-5 1.6-4.6 0-6.9-3.3-6.9-10 0-3.4.7-5.8 2-7.4 1.3-1.6 3.2-2.4 5.6-2.4 1.6 0 3.1.1 4.5.3l.8.1-.2 2zm-5.6 7.1c-.7 0-1.4.1-2.2.3-.8.2-1.4.4-1.9.5l-.7.3c0 2.2.4 4 1.1 5.3.7 1.3 1.8 2 3.3 2s2.6-.4 3.4-1.1c.8-.7 1.1-1.8 1.1-3.2s-.4-2.4-1.1-3c-.6-.7-1.6-1.1-3-1.1zM395.8 156.9v-2h12v2.9l-7.4 16.6-2.1-.7 7.3-16.1v-.8h-9.8zM413 155.8c1.2-.8 2.9-1.3 5-1.3s3.8.4 5.1 1.3c1.3.8 1.9 2.1 1.9 3.7 0 1.2-.2 2.1-.7 2.8-.5.6-1.3 1.2-2.5 1.7 1.2.5 2 1.1 2.6 1.9.6.7.9 1.7.9 3 0 3.7-2.4 5.5-7.2 5.5-4.8 0-7.2-1.7-7.2-5.2 0-1.4.3-2.4.8-3.1.5-.7 1.4-1.4 2.5-2-1.1-.5-1.8-1.1-2.3-1.8-.5-.7-.7-1.6-.7-2.7 0-1.7.6-3 1.8-3.8zm.2 13c0 2.4 1.6 3.5 4.8 3.5s4.8-1.2 4.8-3.7c0-1-.3-1.8-.9-2.3-.6-.5-1.4-.9-2.6-1.2h-3.1c-1.1.3-1.9.7-2.4 1.3-.3.6-.6 1.4-.6 2.4zm9.4-9c0-2.2-1.5-3.2-4.5-3.2s-4.5 1.1-4.5 3.2c0 .9.2 1.5.7 2.1.5.5 1.2 1 2.2 1.3h3.1c1.1-.3 1.8-.8 2.3-1.3.5-.6.7-1.3.7-2.1zM433.5 172.4c3.5 0 5.3-2.2 5.3-6.7-1.9.7-3.6 1.1-5 1.1-4.2 0-6.3-2-6.3-5.9 0-2 .6-3.5 1.8-4.7 1.2-1.1 2.8-1.7 4.9-1.7 2.4 0 4.1.9 5.3 2.6 1.1 1.7 1.7 4.3 1.7 7.7 0 3.4-.6 5.8-1.9 7.3-1.3 1.5-3.2 2.2-5.7 2.2-1.5 0-3-.1-4.5-.4l-.8-.1.2-1.8c1.6.3 3.3.4 5 .4zm.4-7.6c1.2 0 2.6-.3 4.1-.8l.8-.3c-.1-4.8-1.6-7.2-4.7-7.2-1.4 0-2.4.4-3.2 1.2-.8.8-1.2 1.9-1.2 3.2.1 2.6 1.5 3.9 4.2 3.9zM288.5 214.2l.4-1.7h11.4l-.4 1.7h-4.7l-3.7 15.9h-1.9l3.7-15.9h-4.8zM298.2 230.1l2.9-12.8h1.9l-3 12.8h-1.8zm3.5-15.4l.6-2.3h1.9l-.5 2.3h-2zM306.7 227.5c0 .8.4 1.2 1.3 1.2l2-.2-.1 1.5c-.9.2-1.7.4-2.5.4s-1.4-.2-1.9-.6c-.5-.4-.7-1-.7-1.7s.1-1.6.4-2.7l1.5-6.3H305l.4-1.7h1.7l.9-3.8h1.9l-.9 3.8h3.6l-.6 1.6h-3.6l-1.5 6.4c-.1.8-.2 1.5-.2 2.1zM311.6 230.1l2.9-12.8h1.9l-3 12.8h-1.8zm3.5-15.4l.6-2.3h1.9l-.5 2.3h-2zM316.9 230.1l4.2-18.3h1.9l-4.2 18.3h-1.9zM322.3 230.1l2.9-12.8h1.9l-3 12.8h-1.8zm3.6-15.4l.6-2.3h1.9l-.5 2.3h-2zM331.4 230.4c-1 0-1.7-.3-2.2-.9-.5-.6-.8-1.3-.8-2.2 0-.9.2-2.1.5-3.4l1.5-6.5h1.9l-1.5 6.4c-.3 1.3-.5 2.3-.5 3.1 0 1.3.6 1.9 1.7 1.9.5 0 1.1-.2 1.7-.7.7-.5 1.2-1 1.6-1.4l.6-.7 2-8.5h1.9l-2.9 12.8H335l.5-2.2c-.2.2-.4.4-.6.7-.2.3-.7.6-1.5 1.1-.7.2-1.3.5-2 .5zM349.8 220.7c0-1.3-.6-1.9-1.7-1.9-.5 0-1.1.2-1.7.7-.7.5-1.2 1-1.6 1.4l-.6.7-2 8.5h-1.9l2.9-12.8h1.9l-.5 2.2c.4-.5.8-1 1.4-1.4 1-.7 2-1.1 2.8-1.1 1 0 1.6.3 2.1.8.4.5.6 1 .7 1.5.2-.2.4-.4.7-.6.3-.3.8-.6 1.5-1s1.4-.6 2.1-.6c1 0 1.7.3 2.2.9.5.6.8 1.3.8 2.1 0 .9-.2 2-.5 3.6l-1.5 6.4H355l1.5-6.4c.3-1.3.5-2.3.5-3 0-1.3-.6-1.9-1.7-1.9-.5 0-1 .2-1.6.6-.6.4-1.1.8-1.4 1.2l-.5.6c-.1.8-.2 1.7-.4 2.6l-1.5 6.4H348l1.5-6.4c.1-1.3.3-2.4.3-3.1zM375.5 212.4c1.5 0 2.7.3 3.5 1s1.1 1.8 1.1 3.5-.5 3.1-1.4 4.1c-.9 1.1-2 1.8-3.2 2.1l1.9 6.9h-2l-1.8-6.6h-4.2l-1.6 6.6H366l4.1-17.7h5.4zm2.5 4.4c0-1-.2-1.6-.6-2-.4-.4-1.1-.6-2.1-.6h-3.6l-1.8 7.6h3.8c1.3 0 2.4-.5 3.2-1.4.7-.9 1.1-2.2 1.1-3.6zM382.5 226.4c0 .7.2 1.3.7 1.7.4.4 1 .6 1.6.6 1.2 0 2.5-.1 3.7-.4l.6-.2-.2 1.5c-1.5.5-3 .7-4.4.7-2.7 0-4.1-1.3-4.1-3.9 0-2.4.5-4.5 1.6-6.3.5-.9 1.3-1.7 2.2-2.2.9-.6 1.9-.8 3.1-.8 2.5 0 3.8 1 3.8 3.1 0 1.5-.6 2.6-1.7 3.2-1.1.6-3 .9-5.4.9h-1.3c-.1.7-.2 1.4-.2 2.1zm2-3.6c1.7 0 3-.2 3.8-.5.8-.4 1.1-1 1.1-2s-.7-1.5-2-1.5c-2.1 0-3.5 1.4-4.3 4.1h1.4zM395.1 236.1c-1.4 0-2.5-.3-3.3-.9-.8-.6-1.2-1.4-1.2-2.5 0-1.4 1.1-2.7 3.4-3.9-.3-.3-.4-.6-.4-1s.1-.8.4-1.2c.2-.4.5-.7.7-1l.3-.4c-1.2-.5-1.8-1.5-1.8-2.9s.5-2.6 1.4-3.7c.9-1 2.2-1.6 3.7-1.6.8 0 1.5.1 2.1.3l.3.1 3.8-.2-.4 1.6h-2.3c.3.5.4 1.1.4 1.8 0 1.3-.5 2.4-1.4 3.5-1 1-2.3 1.6-3.9 1.6l-.8-.1c-.5.7-.8 1.2-.8 1.6 0 .4.2.6.5.7.3.1 1.1.3 2.2.4 1.1.1 2 .4 2.6.9.6.5.9 1.2.9 2.1 0 1.3-.6 2.4-1.7 3.3-1.2 1.1-2.8 1.5-4.7 1.5zm-2-5.3c-.5.5-.8 1.1-.8 1.6 0 .6.2 1.1.7 1.5.5.4 1.3.6 2.3.6 1.1 0 2.1-.3 2.9-.8.9-.5 1.3-1.2 1.3-2.1 0-.5-.2-.9-.5-1.1-.4-.2-1-.4-2-.5-1-.1-1.7-.3-2.1-.4-.7.3-1.3.7-1.8 1.2zm4-6.6c1.1 0 1.9-.4 2.5-1.1.6-.7.9-1.5.9-2.2 0-.7-.2-1.3-.5-1.7-.4-.4-1-.5-1.9-.5-.9 0-1.6.4-2.2 1.1-.6.7-.9 1.5-.9 2.4 0 1.3.7 2 2.1 2zM407.5 230.4c-1 0-1.7-.3-2.2-.9-.5-.6-.8-1.3-.8-2.2 0-.9.2-2.1.5-3.4l1.5-6.5h1.9l-1.5 6.4c-.3 1.3-.5 2.3-.5 3.1 0 1.3.6 1.9 1.7 1.9.5 0 1.1-.2 1.7-.7.7-.5 1.2-1 1.6-1.4l.6-.7 2-8.5h1.9l-2.9 12.8h-1.9l.5-2.2c-.2.2-.4.4-.6.7-.2.3-.7.6-1.5 1.1s-1.3.5-2 .5zM416.5 230.1l4.2-18.3h1.9l-4.2 18.3h-1.9zM425.8 230.4c-2.2 0-3.3-1.3-3.3-3.8 0-1.4.2-2.8.7-4.2.5-1.4 1.2-2.6 2.2-3.7 1-1 2.2-1.6 3.5-1.6 1 0 2.5.2 4.3.5l1 .2-1.9 8.3c-.2 1-.4 2.1-.6 3.4l-.1.7-1.9.1c.2-1.5.4-2.4.5-2.7-.1.2-.3.4-.8.9-.4.4-.8.8-1.1 1-.3.3-.7.5-1.2.7-.5.1-.9.2-1.3.2zm6.1-11.3c-1.2-.2-2.2-.4-3.1-.4-.9 0-1.6.4-2.4 1.3-.7.9-1.2 1.9-1.6 3.1-.3 1.2-.5 2.2-.5 3.1s.1 1.6.4 1.9c.3.4.7.5 1.3.5s1.2-.3 1.9-.8c.7-.6 1.3-1.1 1.7-1.7l.7-.8 1.6-6.2zM434.7 230.1l3-12.8h1.9l-.5 1.9c1.6-1.1 3.1-1.9 4.6-2.2l-.5 2c-.9.2-2.2.7-3.7 1.5l-.8.4-2.1 9.2h-1.9zM373.1 45.4L385.6 0h11l12.5 45.4h-5l-3.3-11.7h-19.4l-3.3 11.7h-5zm16.3-41.1l-6.9 24.9h17.2l-6.9-24.9h-3.4zM438.6 22.5v16.8c.1 1.6 1.4 2.6 3.8 2.9l-.2 3.9c-3.5 0-6.1-.9-7.8-2.6-3.9 1.8-7.9 2.6-11.8 2.6-3 0-5.3-.9-6.9-2.6-1.6-1.7-2.4-4.2-2.4-7.4s.8-5.5 2.4-7.1c1.6-1.5 4.2-2.4 7.6-2.8l10.3-1v-2.8c0-2.2-.5-3.8-1.4-4.8-1-1-2.3-1.4-3.9-1.4-3.5 0-7.1.2-10.9.7l-2 .2-.2-3.7c4.8-1 9.1-1.4 12.8-1.4s6.4.9 8.1 2.6c1.6 1.6 2.5 4.3 2.5 7.9zm-20.2 13.4c0 4 1.7 6 5 6 3 0 5.9-.5 8.8-1.5l1.5-.5V29.1l-9.7.9c-2 .2-3.4.7-4.3 1.7-.9 1-1.3 2.4-1.3 4.2zM552.5 104.4l4.5-19.8h7.6l4.5 19.8h-4l-.8-3.6h-6.9l-.8 3.6h-4.1zm7.6-16.5l-2 9.4h5.4l-2-9.4h-1.4zM571.7 84.6h7.8c2.1 0 3.6.4 4.6 1.2 1 .8 1.5 2.2 1.5 4 0 1.1-.2 2-.5 2.6-.3.7-.9 1.2-1.7 1.7.9.4 1.5.9 1.9 1.6s.6 1.7.6 2.9c0 1.9-.6 3.4-1.7 4.3-1.1.9-2.7 1.4-4.8 1.4h-7.9V84.6zm7.6 3.4h-3.6v4.7h3.6c1.5 0 2.3-.8 2.3-2.4 0-1.5-.8-2.3-2.3-2.3zm.1 8.1h-3.7v4.8h3.7c.9 0 1.5-.2 1.9-.5.4-.4.6-1 .6-1.9.1-1.6-.8-2.4-2.5-2.4zM602.1 104.1c-2.1.4-3.9.7-5.6.7-1.7 0-3-.2-4-.6-1-.4-1.8-1.1-2.3-2-.6-.9-1-1.9-1.2-3.2-.2-1.2-.3-2.7-.3-4.6 0-3.8.5-6.5 1.6-8s3.1-2.3 6-2.3c1.7 0 3.6.3 5.8.8l-.1 3.2c-1.9-.3-3.5-.4-4.8-.4-1.3 0-2.2.2-2.7.5s-.9 1-1.2 1.9c-.3 1-.4 2.6-.4 4.9 0 2.3.3 3.9.8 4.8.5.9 1.6 1.3 3.2 1.3s3.3-.1 5.1-.4l.1 3.4zM612 104.4h-6.7V84.6h6.7c1.7 0 3.1.2 4.2.5s2 1 2.6 1.8c.6.8 1 1.8 1.3 2.9.2 1.1.3 2.6.3 4.4 0 1.8-.1 3.3-.3 4.4-.2 1.2-.6 2.2-1.2 3.1-.6.9-1.5 1.6-2.6 2-1.1.5-2.5.7-4.3.7zm4.2-7.9c0-.6.1-1.5.1-2.6s0-2-.1-2.6c-.1-.7-.3-1.3-.6-1.8s-.7-.9-1.3-1.1c-.6-.2-1.3-.3-2.3-.3h-2.7v12.8h2.7c1.5 0 2.5-.4 3.2-1.1.6-.6.9-1.7 1-3.3zM623.9 104.4V84.6h12.8v3.5H628v4.6h7.1v3.4H628v4.8h8.8v3.5h-12.9zM640.1 104.4V84.6h12.7v3.5h-8.6v5.8h7.1v3.5h-7.1v7h-4.1zM663.9 97.3v-3.5h5.8v10.3c-2.8.4-5 .7-6.8.7-3.1 0-5.2-.8-6.4-2.5-1.2-1.7-1.7-4.3-1.7-7.9 0-3.6.6-6.2 1.8-7.8 1.2-1.6 3.3-2.4 6.2-2.4 1.8 0 3.8.2 5.9.6l1.1.2-.1 3.1c-2.3-.3-4.2-.4-5.7-.4s-2.5.2-3.1.5c-.6.4-1 1-1.3 1.9-.3.9-.4 2.6-.4 4.8 0 2.3.3 3.9.8 4.8.6.9 1.7 1.4 3.5 1.4l2.4-.1v-3.9h-2zM684.8 104.4v-8.2h-7.4v8.2h-4V84.6h4v8.1h7.4v-8.1h4v19.8h-4zM693.2 104.4V84.6h4v19.8h-4zM699.9 106.5V103c.8 0 1.3-.1 1.7-.4.3-.3.5-.8.5-1.6V84.6h4v16.5c0 2.1-.5 3.5-1.4 4.3-.9.7-2.5 1.1-4.8 1.1zM714.4 104.4h-4V84.6h4v8.7l2.6-.3 3.3-8.4h4.6l-4.3 9.9 4.4 9.9h-4.6l-3.3-7.9-2.7.3v7.6zM738.9 104.4h-11.3V84.6h4v16.3h7.3v3.5zM741.4 104.4V84.6h6.9l3.5 14.5 3.5-14.5h6.9v19.8h-4V89.1h-.4l-3.9 14.5h-4L746 89.1h-.4v15.3h-4.2zM766.4 104.4V84.6h6.8l4.8 16.3h.3V84.6h4v19.8h-6.6l-5-16.3h-.3v16.3h-4zM800.4 102.3c-1.2 1.6-3.4 2.5-6.4 2.5s-5.1-.8-6.4-2.5c-1.2-1.6-1.9-4.2-1.9-7.7s.6-6.1 1.9-7.8c1.2-1.7 3.4-2.6 6.4-2.6s5.1.9 6.4 2.6c1.2 1.7 1.9 4.3 1.9 7.8-.1 3.5-.7 6.1-1.9 7.7zm-9.6-2.6c.6 1 1.6 1.5 3.2 1.5s2.6-.5 3.2-1.5c.6-1 .9-2.7.9-5.1 0-2.4-.3-4.1-.9-5.2-.6-1.1-1.7-1.6-3.2-1.6-1.6 0-2.6.5-3.2 1.6-.6 1.1-.9 2.8-.9 5.2 0 2.4.3 4.1.9 5.1zM813 98.6h-3.3v5.8h-4V84.6h7.3c4.7 0 7.1 2.3 7.1 6.9 0 2.3-.6 4.1-1.8 5.3-1.3 1.2-3 1.8-5.3 1.8zm-3.3-3.4h3.2c2 0 3-1.2 3-3.7 0-1.2-.2-2.1-.7-2.6-.5-.5-1.2-.8-2.3-.8h-3.2v7.1zM830.2 104.8c-3 0-5.2-.8-6.4-2.5-1.2-1.6-1.8-4.2-1.8-7.7s.6-6.1 1.9-7.8c1.2-1.7 3.4-2.6 6.4-2.6s5.1.9 6.4 2.6c1.2 1.7 1.9 4.3 1.9 7.8 0 4.3-1 7.2-3.1 8.7l2.4 3.9-3.7 1.7-2.6-4.3c-.3.1-.7.2-1.4.2zm-3.2-5c.6 1 1.6 1.5 3.2 1.5s2.6-.5 3.2-1.5c.6-1 .9-2.7.9-5.1s-.3-4.2-.9-5.3c-.6-1.1-1.7-1.6-3.2-1.6-1.6 0-2.6.5-3.2 1.6-.6 1.1-.9 2.8-.9 5.3s.3 4 .9 5.1zM845.9 97.8v6.7h-4V84.6h7.7c4.7 0 7 2.2 7 6.5 0 2.6-1 4.5-2.9 5.7l2.8 7.6h-4.4l-2.3-6.7h-3.9zm5.9-4.3c.5-.6.7-1.4.7-2.3 0-1-.2-1.7-.7-2.3-.5-.6-1.2-.8-2.1-.8H846v6.3h3.7c.9-.1 1.6-.4 2.1-.9zM866.1 87.7c-2.1 0-3.2.7-3.2 2.1 0 .6.3 1.1.8 1.4.5.3 1.8.8 3.7 1.4 1.9.6 3.3 1.3 4.1 2.1.8.8 1.2 2 1.2 3.6 0 2.1-.6 3.7-1.9 4.7-1.3 1.1-2.9 1.6-5 1.6-1.5 0-3.4-.2-5.6-.7l-1.1-.2.4-3.1c2.6.3 4.6.5 6 .5 2.1 0 3.1-.9 3.1-2.6 0-.6-.2-1.1-.7-1.5-.5-.4-1.4-.7-2.8-1.1-2.3-.6-3.8-1.4-4.8-2.3-.9-.9-1.4-2.1-1.4-3.7 0-2 .6-3.5 1.8-4.4 1.2-1 2.9-1.5 5-1.5 1.4 0 3.3.2 5.5.6l1.1.2-.3 3.2c-2.9-.1-4.8-.3-5.9-.3zM874.1 88.1v-3.6h14.6v3.6h-5.3v16.3h-4V88.1h-5.3zM895 97.8c0 2.3 1.2 3.5 3.5 3.5 2.4 0 3.5-1.2 3.5-3.5V84.6h4v13.1c0 2.4-.6 4.2-1.9 5.4-1.3 1.1-3.1 1.7-5.7 1.7-2.5 0-4.4-.6-5.7-1.7-1.3-1.1-1.9-2.9-1.9-5.4V84.6h4v13.2zM921 84.6h4.2l-4.6 19.8h-7.4l-4.6-19.8h4.2l3.4 16.3h1.3l3.5-16.3zM926.2 84.6h4.2l2.5 16.4h.4l3.6-16.4h4.7l3.6 16.4h.4l2.5-16.4h4.2l-3.8 19.8h-6.1l-3.1-15.1-3.1 15.1H930l-3.8-19.8zM957.6 84.6l3.7 7.3 3.8-7.3h4.2l-5.7 10.1 5.7 9.7h-4.5l-3.7-6.9-3.8 6.9h-4.2l5.7-9.5-5.7-10.3h4.5zM979.6 104.4h-4v-8l-6.1-11.8h4.5l3.6 7.9 3.6-7.9h4.5l-6.1 11.8v8zM986.9 88.1v-3.5h13.1v3.5l-8.3 12.3v.5h8.3v3.5h-13.1V101l8.3-12.3v-.5h-8.3zM565 129.4v6.1c0 .5.1.8.2 1 .1.2.4.3.7.4l-.1 2.9c-1 0-1.8-.1-2.4-.2-.6-.1-1.2-.4-1.8-.8-1.4.7-2.8 1-4.3 1-3 0-4.5-1.6-4.5-4.8 0-1.6.4-2.7 1.3-3.3.8-.7 2.1-1 3.8-1.2l3.1-.2v-.9c0-.6-.1-1-.4-1.2-.3-.2-.7-.3-1.3-.3l-5.5.2-.1-2.7c2.1-.6 4.1-.8 5.9-.8s3.2.4 4.1 1.2c.9.6 1.3 1.9 1.3 3.6zm-6.6 3.9c-1.1.1-1.6.7-1.6 1.8s.5 1.6 1.4 1.6c.7 0 1.5-.1 2.4-.4l.4-.1V133l-2.6.3zM575.8 124.5c2 0 3.5.6 4.5 1.7.9 1.1 1.4 3.1 1.4 6s-.5 4.9-1.6 6c-1.1 1.1-3 1.6-5.6 1.6-.8 0-2.4-.1-4.6-.3l-1.1-.1V119h3.9v6.3c1.2-.5 2.2-.8 3.1-.8zm-1.4 11.8c1.3 0 2.2-.3 2.6-.9.4-.6.7-1.8.7-3.4 0-2.6-.8-3.9-2.5-3.9-.8 0-1.5.1-2.2.3l-.4.1v7.8c.9-.1 1.5 0 1.8 0zM590 124.5c1 0 2.3.2 3.9.5l.8.2-.1 3.1c-1.5-.2-2.7-.2-3.4-.2-1.3 0-2.2.3-2.7.9-.4.6-.7 1.7-.7 3.3 0 1.6.2 2.7.7 3.3.4.6 1.3.9 2.7.9l3.4-.2.1 3.1c-2.1.4-3.7.6-4.8.6-2.2 0-3.7-.6-4.7-1.8-.9-1.2-1.4-3.2-1.4-5.8 0-2.7.5-4.6 1.5-5.8 1-1.5 2.6-2.1 4.7-2.1zM610 119v20.4h-3.9v-.6c-1.4.6-2.5 1-3.5 1-2.1 0-3.6-.6-4.4-1.8-.8-1.2-1.3-3.2-1.3-5.8 0-2.7.5-4.6 1.5-5.8 1-1.2 2.5-1.8 4.5-1.8.6 0 1.5.1 2.6.3l.6.1v-6h3.9zm-4.3 16.9l.4-.1v-7.7c-1.1-.2-2-.3-2.9-.3-1.6 0-2.4 1.4-2.4 4.2 0 1.5.2 2.6.5 3.2.3.6.9 1 1.7 1 .9.1 1.8 0 2.7-.3zM617.5 135.7c.5.4 1.1.6 2 .6 1.8 0 3.4-.1 4.8-.2l.8-.1.1 2.9c-2.2.5-4.3.8-6.1.8-2.2 0-3.8-.6-4.8-1.8-1-1.2-1.5-3.1-1.5-5.7 0-5.2 2.1-7.8 6.4-7.8 4.2 0 6.4 2.2 6.4 6.6l-.3 2.7h-8.6c.1 1 .4 1.6.8 2zm4.3-4.9c0-1.2-.2-2-.6-2.4-.4-.5-1-.7-1.9-.7-.9 0-1.6.2-2 .7-.4.5-.6 1.3-.6 2.4h5.1zM633.1 128.2v11.3h-3.9v-11.3h-1.6v-3.3h1.6v-.6c0-2.1.3-3.6.9-4.3.6-.8 1.7-1.2 3.3-1.2.7 0 1.6.1 2.7.3l.6.1-.1 3.2c-.9 0-1.6-.1-2.2-.1-.6 0-1 .2-1.2.5s-.3.8-.3 1.6v.6h3.5v3.3h-3.3zM652.1 141.3c0 1.7-.6 2.9-1.9 3.7-1.3.8-3 1.2-5.2 1.2s-3.9-.3-5-.9c-1.2-.6-1.8-1.6-1.8-3.2 0-1.2.7-2.4 2.1-3.5-.7-.5-1.1-1.2-1.1-2.2 0-.4.3-1 .9-1.9l.3-.4c-1.3-1-2-2.4-2-4.2 0-1.9.6-3.2 1.7-4 1.1-.8 2.6-1.3 4.4-1.3.8 0 1.7.1 2.5.3l.5.1 4.7-.1v3.1l-2.2-.2c.4.7.6 1.3.6 2 0 1.9-.5 3.3-1.5 4-1 .7-2.5 1.1-4.7 1.1-.4 0-.8 0-1.2-.1-.2.5-.3.9-.3 1.2 0 .3.2.5.5.7.3.1 1.1.2 2.3.2 2.5 0 4.1.3 5 1 1 .5 1.4 1.7 1.4 3.4zm-10.1.4c0 .8 1 1.3 3.1 1.3s3.1-.5 3.1-1.5c0-.5-.2-.9-.5-1s-1.1-.2-2.2-.2l-2.6-.2c-.6.4-.9 1-.9 1.6zm.3-12c0 1.4.7 2.1 2.2 2.1 1.5 0 2.2-.7 2.2-2.1 0-1.4-.7-2.1-2.2-2.1-1.5 0-2.2.7-2.2 2.1zM658.4 139.4h-3.9V119h3.9v6.5c1.3-.7 2.5-1.1 3.6-1.1 1.9 0 3.3.6 4 1.7.7 1.1 1.1 2.9 1.1 5.3v7.9h-3.9v-7.8c0-1.2-.1-2.1-.4-2.7s-.9-.9-1.8-.9c-.8 0-1.5.1-2.3.4l-.4.1v11zM670.6 123v-4h3.9v4h-3.9zm0 16.4v-14.6h3.9v14.6h-3.9zM678.2 138.7v-13.9h3.9v13.9c0 2-.3 3.4-1 4.4-.7.9-2.1 1.9-4.2 3l-1.5-2.9c.9-.6 1.5-1 1.8-1.4.4-.3.6-.7.8-1.2.1-.4.2-1 .2-1.9zm0-15.7v-4h3.9v4h-3.9zM689.6 139.4h-3.9V119h3.9v11.6l1.5-.3 2.9-5.5h4.4l-3.8 6.9 4 7.7h-4.4l-2.9-5.7-1.6.3v5.4zM700.9 139.4V119h3.9v20.4h-3.9zM712.5 139.4h-3.9v-14.6h3.9v.8c1.3-.8 2.5-1.2 3.4-1.2 1.6 0 2.8.5 3.6 1.4 1.8-.9 3.4-1.4 4.9-1.4 1.9 0 3.3.6 4 1.7.7 1.1 1.1 2.9 1.1 5.4v7.9h-3.9v-7.8c0-1.2-.1-2.2-.4-2.8-.3-.6-.8-.9-1.6-.9-.6 0-1.4.1-2.3.4l-.4.1c.1 1.5.1 2.6.1 3.3v7.6h-3.9v-7.5c0-1.4-.1-2.5-.4-3-.3-.6-.8-.9-1.7-.9-.8 0-1.5.1-2.2.4l-.4.1v11zM737 139.4h-3.9v-14.6h3.9v.8c1.3-.8 2.5-1.2 3.6-1.2 1.9 0 3.3.6 4 1.7.7 1.1 1.1 2.9 1.1 5.3v7.9h-3.9v-7.8c0-1.2-.1-2.2-.4-2.8-.3-.6-.9-.9-1.8-.9-.8 0-1.6.1-2.3.4l-.4.1v11.1zM750 126.5c1-1.3 2.8-2 5.2-2s4.1.7 5.2 2 1.5 3.2 1.5 5.6c0 5.1-2.2 7.7-6.7 7.7s-6.7-2.6-6.7-7.7c0-2.4.5-4.3 1.5-5.6zm3 8.9c.4.7 1.1 1.1 2.1 1.1s1.7-.4 2.1-1.1c.4-.7.6-1.8.6-3.3s-.2-2.6-.6-3.3c-.4-.7-1.1-1-2.1-1s-1.7.3-2.1 1c-.4.7-.6 1.8-.6 3.3s.2 2.6.6 3.3zM764.7 145.6v-20.7h3.9v.8c1.3-.8 2.4-1.1 3.3-1.1 2 0 3.4.6 4.3 1.8.9 1.2 1.4 3.2 1.4 6s-.5 4.8-1.5 5.9c-1 1.1-2.7 1.6-5.1 1.6-.6 0-1.3-.1-2.1-.2l-.4-.1v6h-3.8zm6.5-17.6c-.7 0-1.4.1-2.2.4l-.4.1v7.6c.9.1 1.6.2 2.1.2 1.1 0 1.9-.3 2.3-1 .4-.7.6-1.8.6-3.4.1-2.6-.7-3.9-2.4-3.9zM785.8 139.8c-2 0-3.5-.6-4.5-1.7-.9-1.1-1.4-3.1-1.4-6s.5-4.9 1.6-6c1.1-1.1 3-1.6 5.6-1.6 1.2 0 2.7.1 4.6.3l1.1.1v20.7h-3.9V139c-1.2.5-2.3.8-3.1.8zm1.3-11.9c-1.3 0-2.2.3-2.6 1s-.7 1.8-.7 3.5c0 2.6.8 3.9 2.5 3.9.8 0 1.5-.1 2.2-.3l.4-.1V128c-.7-.1-1.3-.1-1.8-.1zM796.5 139.4v-14.6h3.9v1.5c1.6-1 3.2-1.6 4.7-1.9v3.9c-1.6.3-2.9.7-4.1 1l-.6.2v9.8h-3.9zM817.8 128.5c-2.4-.3-4.1-.5-5.1-.5s-1.6.1-1.9.3c-.3.2-.4.5-.4.8 0 .4.2.6.6.8.4.1 1.4.4 2.9.6 1.6.3 2.7.7 3.3 1.4.7.6 1 1.7 1 3.1 0 3.2-2 4.7-5.9 4.7-1.3 0-2.8-.2-4.7-.5l-.9-.2.1-3.3c2.4.3 4.1.5 5 .5.9 0 1.6-.1 1.9-.3.3-.2.5-.5.5-.8 0-.4-.2-.6-.5-.8-.4-.2-1.3-.4-2.8-.6-1.5-.3-2.6-.7-3.4-1.3-.7-.6-1.1-1.7-1.1-3.2 0-1.5.5-2.7 1.6-3.5 1-.8 2.4-1.2 4.1-1.2 1.1 0 2.7.2 4.7.6l1 .2v3.2zM829.2 128.2h-3.6v6c0 .6 0 1 0 1.2 0 .2.1.5.3.6.2.2.5.3.9.3l2.2-.1.2 3.1c-1.3.3-2.3.4-3 .4-1.8 0-2.9-.4-3.6-1.2-.6-.8-1-2.2-1-4.4V128h-1.7v-3.3h1.7v-4.1h3.9v4.1h3.6v3.5zM840.3 124.8h3.9v14.6h-3.9v-.8c-1.4.8-2.6 1.2-3.6 1.2-2 0-3.4-.6-4.1-1.7-.7-1.1-1.1-3-1.1-5.6v-7.6h3.9v7.7c0 1.4.1 2.4.4 2.9.2.5.8.8 1.7.8.9 0 1.7-.1 2.4-.4l.4-.1v-11zM846.5 124.8h4.1l2.3 11.3h.8l2.5-11.3h4l-3.5 14.6H850l-3.5-14.6zM861.2 124.8h3.9l1.8 11.3h.7l2.2-11h4l2.2 11h.7l1.8-11.3h3.8l-2.8 14.6h-6.1l-1.7-8.9-1.7 8.9h-6l-2.8-14.6zM883.5 124.8h4.2l2.3 4.5 2.4-4.5h4.2l-4.1 7.1 4.1 7.4h-4.2L890 135l-2.3 4.5h-4.2l4-7.3-4-7.4zM897.4 124.8h3.9l2.7 11.3h.7l2.7-11.3h3.8l-5.1 20.7h-3.8l1.6-6.1H901l-3.6-14.6zM912.7 128.3v-3.5h10.8v3.5l-6.1 7.6h6.1v3.5h-10.8v-3.5l6.1-7.6h-6.1zM554.6 157.2c1.3-1.6 3.1-2.4 5.6-2.4 2.5 0 4.3.8 5.6 2.4 1.3 1.6 1.9 4.2 1.9 7.7s-.6 6.1-1.9 7.6c-1.2 1.5-3.1 2.3-5.6 2.3-2.5 0-4.4-.8-5.6-2.3-1.2-1.5-1.9-4.1-1.9-7.6s.6-6.1 1.9-7.7zm8.9 7.6c0-2.4-.3-4.1-.8-5-.5-1-1.4-1.4-2.6-1.4-1.2 0-2.1.5-2.6 1.5s-.8 2.7-.8 5c0 2.4.3 4.1.8 5 .5 1 1.4 1.4 2.6 1.4s2-.5 2.5-1.4c.6-1 .9-2.7.9-5.1zM580.5 155.2v19.3h-4v-14.7l-4.2 2.7-1.8-3 6.4-4.2h3.6zM599.1 174.4h-12.5V171l4.1-4.2c1.5-1.5 2.5-2.6 3-3.4.6-.8.9-1.6.9-2.6s-.2-1.5-.7-1.9c-.5-.4-1.2-.6-2-.6-1.3 0-2.7.1-4.3.3l-.7.1-.2-3.1c1.9-.6 3.9-.9 5.9-.9 4.1 0 6.1 1.8 6.1 5.5 0 1.4-.3 2.7-.9 3.7-.6 1.1-1.8 2.3-3.4 3.8l-3.4 3h8v3.7zM602.8 155.9c1.8-.7 3.8-1.1 6-1.1s3.8.4 4.8 1.3 1.5 2.2 1.5 4.1c0 1.9-.7 3.3-2.2 4.3.9.5 1.6 1 2 1.6.4.5.6 1.4.6 2.6 0 2.1-.5 3.6-1.6 4.6s-2.7 1.5-5 1.5c-1.7 0-3.5-.3-5.3-.8l-.9-.2.2-3.1c2.2.4 4 .6 5.5.6 2 0 3-.9 3-2.6 0-.7-.3-1.3-.8-1.7-.5-.4-1.2-.6-2-.6h-3.9V163h3.9c.6 0 1.2-.3 1.7-.8s.7-1.1.7-1.8c0-1.4-1-2.1-2.9-2.1-1.3 0-2.8.1-4.3.4l-.8.1-.2-2.9zM626.7 174.4v-3.2h-8.2v-3.1l4.8-13h4.4l-5.2 12.6h4.1v-5.4h4v5.4h1.8v3.5h-1.8v3.2h-3.9zM648 155.2v3.5h-8.6l-.5 4.2c1.2-.5 2.4-.7 3.4-.7 4.2 0 6.2 1.9 6.2 5.8 0 2.2-.6 3.9-1.7 5-1.1 1.2-2.8 1.8-4.9 1.8-.9 0-1.9-.1-3-.3-1.1-.2-2-.4-2.7-.6l-1.1-.3.4-3c2.4.4 4.3.6 5.9.6 1 0 1.7-.3 2.2-.8.5-.5.8-1.2.8-2.2 0-.9-.2-1.6-.6-2.1-.4-.4-1-.6-1.8-.6-1.3 0-2.5.1-3.4.4l-.4.1-2.4-.6.5-10.4H648zM664.5 158.8c-2-.3-3.7-.4-5.2-.4-2.8 0-4.1 1.5-4.1 4.5l.6-.2c1.3-.4 2.3-.6 3.1-.6 2.2 0 3.9.5 5 1.5s1.7 2.6 1.7 4.7-.6 3.7-1.9 4.8c-1.2 1.1-3 1.6-5.4 1.6-2.4 0-4.1-.9-5.4-2.6-1.2-1.7-1.8-4.3-1.8-7.6s.7-5.8 2.1-7.4c1.4-1.6 3.4-2.4 6-2.4 1.5 0 3.1.2 4.9.6l.9.2-.5 3.3zm-6 6.8c-.9 0-1.9.2-2.9.5l-.5.1c0 3.4 1.1 5 3.3 5 .9 0 1.7-.3 2.2-.8.5-.5.8-1.2.8-2.2-.1-1.7-1-2.6-2.9-2.6zM668.4 158.8v-3.6h12.3v4.5l-6.9 15.1-3.7-1.1 6.6-14v-.9h-8.3zM685.7 156.2c1.3-.9 3-1.4 5.1-1.4 2.1 0 3.8.5 5.1 1.4 1.3.9 2 2.2 2 3.9 0 1.1-.1 2-.4 2.5-.3.6-.8 1.2-1.7 1.9.9.7 1.5 1.4 1.8 2 .4.6.6 1.5.6 2.7 0 1.9-.7 3.3-2 4.2-1.4.9-3.1 1.4-5.3 1.4-4.9 0-7.3-1.8-7.3-5.3 0-1.2.2-2.2.6-2.9.4-.7 1-1.4 1.9-2.1-.8-.7-1.4-1.3-1.7-1.9s-.4-1.5-.4-2.5c-.2-1.7.5-3 1.7-3.9zm2.1 12.4c0 1.7 1 2.6 3 2.6s3-.9 3-2.6c0-1-.6-1.7-1.7-2.2h-2.6c-1.1.5-1.7 1.2-1.7 2.2zm3.1-10.1c-.9 0-1.5.2-2 .6-.5.4-.7 1-.7 1.8s.5 1.5 1.4 2.2h2.6c1-.7 1.4-1.4 1.4-2.3 0-1.6-.9-2.3-2.7-2.3zM706.3 171.3c2.6 0 3.9-1.6 3.9-4.7l-.6.2c-1.3.4-2.4.7-3.1.7-2.1 0-3.8-.5-4.9-1.5-1.1-1-1.7-2.6-1.7-4.6 0-2 .6-3.6 1.9-4.8 1.3-1.1 3.1-1.7 5.4-1.7 2.3 0 4.1.9 5.3 2.6s1.8 4.3 1.8 7.7-.7 5.9-2 7.4c-1.4 1.5-3.4 2.3-6 2.3-1.5 0-3.1-.2-4.9-.6l-.9-.2.4-3.1c1.9.1 3.7.3 5.4.3zm.5-7.4c.9 0 1.9-.2 2.9-.5l.5-.1c0-3.3-1.1-4.9-3.3-4.9-.9 0-1.7.3-2.2.8-.5.5-.8 1.2-.8 2.2.1 1.7 1 2.5 2.9 2.5zM555.9 215.1l.4-1.7h11.4l-.4 1.7h-4.7l-3.7 15.9H557l3.7-15.9h-4.8zM565.7 231l2.9-12.8h1.9l-3 12.8h-1.8zm3.5-15.4l.6-2.3h1.9l-.5 2.3h-2zM574.1 228.4c0 .8.4 1.2 1.3 1.2l2-.2-.1 1.5c-.9.2-1.7.4-2.5.4s-1.4-.2-1.9-.6c-.5-.4-.7-1-.7-1.7s.1-1.6.4-2.7l1.5-6.3h-1.7l.4-1.7h1.7l.9-3.8h1.9l-.9 3.8h3.6l-.4 1.7H576l-1.5 6.4c-.3.7-.4 1.4-.4 2zM579 231l2.9-12.8h1.9l-3 12.8H579zm3.6-15.4l.6-2.3h1.9l-.5 2.3h-2zM584.4 231l4.2-18.3h1.9l-4.2 18.3h-1.9zM589.8 231l2.9-12.8h1.9l-3 12.8h-1.8zm3.5-15.4l.6-2.3h1.9l-.5 2.3h-2zM598.9 231.3c-1 0-1.7-.3-2.2-.9-.5-.6-.8-1.3-.8-2.2 0-.9.2-2.1.5-3.4l1.5-6.5h1.9l-1.5 6.4c-.3 1.3-.5 2.3-.5 3.1 0 1.3.6 1.9 1.7 1.9.5 0 1.1-.2 1.7-.7.7-.5 1.2-1 1.6-1.4l.6-.7 2-8.5h1.9l-2.9 12.8h-1.9l.5-2.2c-.2.2-.4.4-.6.7-.2.3-.7.6-1.5 1.1-.7.2-1.4.5-2 .5zM617.3 221.6c0-1.3-.6-1.9-1.7-1.9-.5 0-1.1.2-1.7.7-.7.5-1.2 1-1.6 1.4l-.6.7-2 8.5h-1.9l2.9-12.8h1.9l-.5 2.2c.4-.5.9-1 1.4-1.4 1-.7 2-1.1 2.8-1.1 1 0 1.6.3 2.1.8.4.5.6 1 .7 1.5.2-.2.4-.4.6-.6.3-.3.8-.6 1.5-1s1.4-.6 2.1-.6c1 0 1.7.3 2.2.9.5.6.8 1.3.8 2.1 0 .9-.2 2-.5 3.6l-1.5 6.4h-1.9l1.5-6.4c.3-1.3.5-2.3.5-3 0-1.3-.6-1.9-1.7-1.9-.5 0-1 .2-1.6.6-.6.4-1.1.8-1.4 1.2l-.5.6c-.1.8-.2 1.7-.4 2.6l-1.5 6.4h-1.9l1.5-6.4c.2-1.3.4-2.4.4-3.1zM643.2 213.3c1.4 0 2.5.3 3.2.8.7.5 1.1 1.4 1.1 2.7 0 1.2-.3 2.3-.9 3.1-.6.9-1.4 1.5-2.4 1.9 1.4.6 2.1 1.6 2.1 3 0 1.9-.6 3.3-1.8 4.4s-2.8 1.7-5 1.7h-6.1l4.1-17.7h5.7zm-1.9 9.5h-4l-1.5 6.5h4.1c1.3 0 2.4-.4 3.2-1.2.8-.8 1.1-1.8 1.1-3.2.1-1.4-.9-2.1-2.9-2.1zm1.6-7.7h-3.8l-1.4 6.1h3.9c1.1 0 2.1-.4 2.8-1.2.7-.8 1.1-1.7 1.1-2.9 0-.7-.2-1.3-.6-1.6s-1.1-.4-2-.4zM655 218c2.9 0 4.4 1.4 4.4 4.3 0 1.6-.3 3-.8 4.4-.5 1.3-1.3 2.4-2.3 3.3-1 .8-2.2 1.3-3.5 1.3-2.9 0-4.4-1.4-4.4-4.2 0-2.5.6-4.6 1.8-6.4 1.4-1.8 2.9-2.7 4.8-2.7zm-2.1 11.6c1.4 0 2.5-.7 3.3-2.2.8-1.4 1.3-3.2 1.3-5.1 0-.8-.2-1.5-.6-1.9-.4-.5-1-.7-1.9-.7-1.3 0-2.4.7-3.3 2.2-.8 1.5-1.3 3.2-1.3 5.2 0 1.7.9 2.5 2.5 2.5zM660.6 231l4.2-18.3h1.9l-4.2 18.3h-1.9zM669.8 231.3c-2.1 0-3.2-1.2-3.2-3.7 0-1.5.2-3 .7-4.4.5-1.4 1.2-2.6 2.2-3.7 1-1 2.2-1.5 3.4-1.5.9 0 1.8.1 2.9.4l.5.1 1.4-5.8h1.9l-4.3 18.3h-1.8l.5-2.3c-.2.2-.4.5-.8.8-.3.3-.7.6-1 .8-.8.7-1.6 1-2.4 1zM676 220c-1.1-.3-2.1-.4-3.1-.4-.9 0-1.7.4-2.4 1.3s-1.2 1.9-1.5 3.1c-.3 1.2-.5 2.3-.5 3.4 0 1.4.6 2.1 1.8 2.1.5 0 1.1-.3 1.8-.8s1.2-1 1.7-1.5l.6-.7 1.6-6.5zM553.1 45.1l10-44.6h17.2l10 44.6h-9.1l-1.8-8.1H564l-1.8 8.1h-9.1zM570.2 8l-4.5 21.2h12.2L573.3 8h-3.1zM620.7 22.6v13.7c.1 1.1.3 1.8.5 2.2.3.4.8.7 1.6.9l-.3 6.6c-2.2 0-4-.2-5.3-.5-1.3-.3-2.7-.9-4-1.8-3.1 1.5-6.4 2.3-9.6 2.3-6.8 0-10.2-3.6-10.2-10.8 0-3.5.9-6 2.8-7.5s4.8-2.3 8.7-2.6l7-.5v-2c0-1.4-.3-2.3-.9-2.8-.6-.5-1.6-.8-3-.8l-12.3.5-.3-6.1c4.7-1.3 9.1-1.9 13.4-1.9s7.3.9 9.1 2.6c1.9 1.8 2.8 4.6 2.8 8.5zM606 31.2c-2.5.2-3.7 1.5-3.7 3.9s1.1 3.6 3.2 3.6c1.7 0 3.5-.3 5.4-.8l1-.3v-7l-5.9.6z" class="st0"/></svg>