<?xml version="1.0" encoding="utf-8"?>
<!-- Generator: Adobe Illustrator 18.0.0, SVG Export Plug-In . SVG Version: 6.00 Build 0)  -->
<!DOCTYPE svg PUBLIC "-//W3C//DTD SVG 1.1//EN" "http://www.w3.org/Graphics/SVG/1.1/DTD/svg11.dtd">
<svg version="1.1" id="Calque_1" xmlns="http://www.w3.org/2000/svg" xmlns:xlink="http://www.w3.org/1999/xlink" x="0px" y="0px"
	 viewBox="0 0 1000 236.1" style="enable-background:new 0 0 1000 236.1;" xml:space="preserve">
<style type="text/css">
	.st0{fill:#230F66;}
</style>
<g>
	<g>
		<path class="st0" d="M0,104.1l5.5-20.2h4.9l5.5,20.2h-2.2l-1.5-5.2H3.7l-1.5,5.2H0z M7.2,85.8L4.2,96.8h7.6L8.8,85.8H7.2z"/>
		<path class="st0" d="M19.2,83.9h7.3c2,0,3.5,0.4,4.5,1.2c1,0.8,1.5,2.1,1.5,3.9c0,1.3-0.2,2.3-0.7,3c-0.4,0.7-1.1,1.3-1.9,1.7
			c2.1,0.7,3.2,2.3,3.2,4.8c0,2-0.5,3.5-1.6,4.3c-1.1,0.9-2.6,1.3-4.6,1.3h-7.7V83.9z M26.4,85.8h-5v7h5.2c1.2,0,2.2-0.3,2.7-0.9
			c0.6-0.6,0.9-1.5,0.9-2.7s-0.3-2.1-0.9-2.6C28.7,86.1,27.7,85.8,26.4,85.8z M26.6,94.8h-5.2v7.3h5.4c1.3,0,2.3-0.3,3-0.8
			c0.7-0.6,1-1.5,1-2.9c0-0.7-0.1-1.4-0.4-1.9c-0.3-0.5-0.7-0.9-1.1-1.1C28.4,95,27.6,94.8,26.6,94.8z"/>
		<path class="st0" d="M49.3,103.7c-2,0.4-3.8,0.6-5.4,0.6s-2.9-0.2-3.9-0.7c-1-0.4-1.7-1.1-2.3-2c-0.5-0.9-0.9-2-1.1-3.2
			c-0.2-1.2-0.3-2.7-0.3-4.5c0-1.8,0.1-3.3,0.3-4.5c0.2-1.2,0.6-2.3,1.1-3.2c0.5-0.9,1.3-1.6,2.3-2c1-0.4,2.2-0.6,3.8-0.6
			c1.6,0,3.4,0.2,5.5,0.6l-0.1,1.9c-2-0.4-3.7-0.5-5.3-0.5c-2.1,0-3.6,0.6-4.2,1.9c-0.7,1.3-1,3.4-1,6.5c0,1.5,0.1,2.8,0.2,3.7
			c0.1,0.9,0.4,1.8,0.7,2.5c0.4,0.7,0.9,1.3,1.6,1.6c0.7,0.3,1.8,0.5,3.1,0.5c1.4,0,3-0.2,4.9-0.5L49.3,103.7z"/>
		<path class="st0" d="M60.2,104.1H53V83.9h7.2c3.3,0,5.5,1.3,6.5,3.9c0.6,1.5,0.9,3.5,0.9,5.9c0,5.1-1.3,8.3-3.8,9.6
			C62.9,103.8,61.7,104.1,60.2,104.1z M65.4,93.7c0-3.9-0.9-6.3-2.6-7.2c-0.7-0.4-1.6-0.6-2.6-0.6h-5v16.2h5
			C63.7,102.1,65.4,99.3,65.4,93.7z"/>
		<path class="st0" d="M71.8,104.1V83.9h12.3v2h-10v7h8.3v2h-8.3v7.3h10v2H71.8z"/>
		<path class="st0" d="M88,104.1V83.9H100v2h-9.8v7.9h8.3v2h-8.3v8.3H88z"/>
		<path class="st0" d="M111,95.7v-2h5.6v9.9c-2.5,0.5-4.6,0.7-6.6,0.7c-2.9,0-5-0.8-6.1-2.5c-1.1-1.7-1.7-4.3-1.7-7.8
			c0-3.5,0.6-6.1,1.7-7.8s3.2-2.6,6.1-2.6c1.8,0,3.7,0.2,5.6,0.6l1,0.2l-0.1,1.9c-2.4-0.4-4.5-0.6-6.3-0.6c-2.2,0-3.7,0.6-4.5,1.9
			c-0.8,1.3-1.2,3.4-1.2,6.4c0,3,0.4,5.2,1.2,6.4c0.8,1.3,2.3,1.9,4.5,1.9c1.4,0,2.8-0.1,4.2-0.4v-6.2H111z"/>
		<path class="st0" d="M133.5,104.1v-9.1h-10.3v9.1H121V83.9h2.2v9h10.3v-9h2.2v20.2H133.5z"/>
		<path class="st0" d="M140.7,104.1V83.9h2.2v20.2H140.7z"/>
		<path class="st0" d="M145.7,106.2v-2c1.4,0,2.3-0.2,2.7-0.5c0.4-0.3,0.6-1.2,0.6-2.7V83.9h2.2l0,17.4c0,1.6-0.3,2.8-0.8,3.6
			c-0.4,0.6-1.3,1-2.7,1.2C147.3,106.1,146.6,106.2,145.7,106.2z"/>
		<path class="st0" d="M158.4,104.1h-2.2V83.9h2.2v9.4l3.3-0.1l5.2-9.3h2.6L163.6,94l6.1,10h-2.7l-5.4-8.9l-3.4,0.1V104.1z"/>
		<path class="st0" d="M183.8,104.1h-11.1V83.9h2.2V102h8.9V104.1z"/>
		<path class="st0" d="M186.7,104.1V83.9h4.1l5.7,17.1l5.7-17.1h4.1v20.2H204V86.3h-0.4l-5.9,17.1h-2.5l-5.9-17.1h-0.4v17.8H186.7z"
			/>
		<path class="st0" d="M211.2,104.1V83.9h4.2l7.7,18.2h0.6V83.9h2.2v20.2h-4.1L214,85.8h-0.6v18.2H211.2z"/>
		<path class="st0" d="M246.1,94.1c0,3.6-0.6,6.2-1.7,7.8c-1.1,1.6-3.2,2.4-6.3,2.4c-3,0-5.1-0.8-6.3-2.5c-1.1-1.7-1.7-4.3-1.7-7.8
			c0-3.5,0.6-6.2,1.8-7.9c1.2-1.7,3.2-2.6,6.2-2.6s5.1,0.9,6.2,2.6C245.5,87.9,246.1,90.5,246.1,94.1z M232.4,94
			c0,3,0.4,5.1,1.2,6.4c0.8,1.3,2.3,1.9,4.5,1.9c2.2,0,3.7-0.6,4.5-1.9c0.8-1.3,1.2-3.4,1.2-6.4s-0.4-5.1-1.2-6.5
			c-0.8-1.4-2.3-2-4.5-2c-2.2,0-3.7,0.7-4.5,2C232.8,88.9,232.4,91.1,232.4,94z"/>
		<path class="st0" d="M257.5,97.3h-5.1v6.8h-2.2V83.9h7.4c2.2,0,3.8,0.5,4.9,1.6c1.1,1.1,1.6,2.7,1.6,4.9
			C264,95,261.8,97.3,257.5,97.3z M252.4,95.3h5.1c2.8,0,4.2-1.6,4.2-4.9c0-1.6-0.3-2.7-1-3.4c-0.7-0.7-1.7-1.1-3.2-1.1h-5.1V95.3z"
			/>
		<path class="st0" d="M274.6,104.3c-3,0-5.1-0.8-6.2-2.5c-1.1-1.7-1.7-4.3-1.7-7.8c0-3.5,0.6-6.2,1.8-7.9c1.2-1.7,3.2-2.6,6.2-2.6
			c3,0,5.1,0.9,6.2,2.6c1.2,1.7,1.8,4.3,1.8,7.9c0,2.5-0.3,4.4-0.8,5.9c-0.5,1.5-1.4,2.6-2.6,3.3l2.5,4l-2.1,1l-2.6-4.2
			C276.4,104.3,275.6,104.3,274.6,104.3z M269,94c0,3,0.4,5.1,1.2,6.4c0.8,1.3,2.3,1.9,4.5,1.9c2.2,0,3.7-0.6,4.5-1.9
			c0.8-1.3,1.2-3.4,1.2-6.4c0-3-0.4-5.2-1.2-6.5c-0.8-1.4-2.3-2-4.5-2c-2.2,0-3.7,0.7-4.5,2C269.3,88.9,269,91.1,269,94z"/>
		<path class="st0" d="M289,96.3v7.7h-2.2V83.9h7.5c2.1,0,3.7,0.5,4.8,1.5c1.1,1,1.6,2.5,1.6,4.6c0,3.1-1.2,5.1-3.7,5.9l3.9,8.2
			h-2.5l-3.6-7.7H289z M294.2,94.3c2.7,0,4.1-1.4,4.1-4.2c0-2.8-1.4-4.2-4.1-4.2H289v8.5H294.2z"/>
		<path class="st0" d="M310.3,85.5c-2.9,0-4.4,1.1-4.4,3.3c0,1.2,0.3,2.1,1,2.5c0.7,0.5,2,0.9,4.1,1.4c2.1,0.5,3.5,1.1,4.4,1.8
			c0.9,0.7,1.3,1.9,1.3,3.6c0,4.1-2.1,6.2-6.4,6.2c-1.4,0-3.2-0.2-5.3-0.5l-1.1-0.1l0.2-1.9c2.6,0.4,4.7,0.5,6,0.5
			c2.9,0,4.3-1.4,4.3-4.1c0-1.1-0.3-1.9-0.9-2.3c-0.6-0.5-1.8-0.9-3.5-1.2c-2.3-0.5-3.9-1.1-4.8-1.9c-1-0.8-1.4-2.1-1.4-3.9
			c0-3.6,2.2-5.4,6.5-5.4c1.4,0,3.1,0.1,5.1,0.4l1,0.1L316,86C313.3,85.7,311.4,85.5,310.3,85.5z"/>
		<path class="st0" d="M318.4,85.9v-2H333v2h-6.2v18.2h-2.2V85.9H318.4z"/>
		<path class="st0" d="M337.9,98c0,2.9,1.6,4.4,4.7,4.4c1.6,0,2.9-0.3,3.7-1c0.8-0.7,1.2-1.8,1.2-3.3V83.9h2.2v14.1
			c0,2.3-0.6,3.9-1.8,4.9c-1.2,1-3,1.5-5.3,1.5c-2.3,0-4.1-0.5-5.3-1.5c-1.2-1-1.8-2.6-1.8-4.9V83.9h2.2V98z"/>
		<path class="st0" d="M366.1,83.9h2.3l-5.3,20.2h-5l-5.3-20.2h2.3l4.6,18.2h1.6L366.1,83.9z"/>
		<path class="st0" d="M370,83.9h2.3l3.4,18.2h0.8l4.1-18h2.6l4.1,18h0.8l3.4-18.2h2.3l-4.1,20.2h-4.1l-3.8-17.2l-3.8,17.2h-4.1
			L370,83.9z"/>
		<path class="st0" d="M398.1,83.9l5.1,8.6l5.1-8.6h2.4l-6.2,10.2l6.2,9.9h-2.5l-5.1-8.4l-5.2,8.4h-2.4l6.2-9.9l-6.2-10.3H398.1z"/>
		<path class="st0" d="M420.2,104.1H418v-8.5l-6.4-11.7h2.5l5,9.5l5-9.5h2.5l-6.4,11.7V104.1z"/>
		<path class="st0" d="M428.2,85.8v-2h13.1v2.6l-10.6,15v0.6h10.6v2h-13.1v-2.6l10.5-15v-0.6H428.2z"/>
		<path class="st0" d="M96.2,128.9v7.5c0.1,0.7,0.6,1.1,1.7,1.3l-0.1,1.7c-1.5,0-2.7-0.4-3.5-1.2c-1.8,0.8-3.5,1.2-5.3,1.2
			c-1.3,0-2.4-0.4-3.1-1.1c-0.7-0.8-1.1-1.8-1.1-3.3c0-1.4,0.4-2.5,1.1-3.1c0.7-0.7,1.8-1.1,3.4-1.2l4.6-0.4v-1.3
			c0-1-0.2-1.7-0.6-2.1c-0.4-0.4-1-0.6-1.8-0.6c-1.6,0-3.2,0.1-4.8,0.3l-0.9,0.1l-0.1-1.7c2.1-0.4,4-0.6,5.7-0.6
			c1.7,0,2.9,0.4,3.6,1.1C95.9,126.1,96.2,127.3,96.2,128.9z M87.3,134.8c0,1.8,0.7,2.7,2.2,2.7c1.3,0,2.6-0.2,3.9-0.7l0.7-0.2v-4.8
			l-4.3,0.4c-0.9,0.1-1.5,0.3-1.9,0.8C87.5,133.4,87.3,134,87.3,134.8z"/>
		<path class="st0" d="M107,124.2c2,0,3.3,0.6,4.1,1.7c0.8,1.1,1.2,3.1,1.2,5.9c0,2.8-0.5,4.8-1.5,5.9c-1,1.1-2.8,1.7-5.4,1.7
			c-0.8,0-2.2-0.1-4.1-0.2l-0.8-0.1v-20.9h2.2v7.1C104.2,124.5,105.6,124.2,107,124.2z M105.4,137.4c1.9,0,3.2-0.4,3.8-1.3
			c0.6-0.9,0.9-2.3,0.9-4.4c0-2.1-0.2-3.5-0.7-4.3c-0.5-0.8-1.4-1.2-2.6-1.2c-1.1,0-2.3,0.2-3.5,0.6l-0.6,0.2v10.3
			C104,137.4,104.9,137.4,105.4,137.4z"/>
		<path class="st0" d="M121.4,124.2c0.6,0,1.7,0.1,3.3,0.4l0.7,0.1l-0.1,1.8c-1.6-0.2-2.7-0.3-3.4-0.3c-1.7,0-2.8,0.4-3.4,1.2
			c-0.6,0.8-0.9,2.2-0.9,4.4c0,2.1,0.3,3.6,0.8,4.4c0.6,0.8,1.7,1.3,3.5,1.3l3.4-0.3l0.1,1.8c-1.8,0.3-3.2,0.4-4.1,0.4
			c-2.3,0-3.8-0.6-4.7-1.8c-0.9-1.2-1.3-3.1-1.3-5.9c0-2.8,0.5-4.7,1.4-5.8C117.6,124.7,119.2,124.2,121.4,124.2z"/>
		<path class="st0" d="M139.7,118.1v20.9h-2.2v-1c-1.5,0.9-3,1.3-4.4,1.3c-0.8,0-1.5-0.1-2-0.3c-0.6-0.2-1.1-0.5-1.6-1.1
			c-1.1-1.1-1.6-3-1.6-5.8c0-2.8,0.5-4.9,1.4-6.1c0.9-1.3,2.5-1.9,4.7-1.9c1.1,0,2.3,0.1,3.6,0.4v-6.4H139.7z M132.1,137.2
			c0.4,0.1,0.8,0.2,1.4,0.2c0.6,0,1.2-0.1,1.9-0.3c0.7-0.2,1.2-0.4,1.6-0.5l0.6-0.3v-9.9c-1.2-0.2-2.4-0.4-3.5-0.4
			c-1.5,0-2.5,0.5-3.1,1.4c-0.6,0.9-0.9,2.4-0.9,4.4c0,2.3,0.3,3.8,1,4.5C131.4,136.8,131.7,137.1,132.1,137.2z"/>
		<path class="st0" d="M153.8,137.3l0.8-0.1l0.1,1.7c-2.2,0.3-4.1,0.5-5.7,0.5c-2.1,0-3.6-0.6-4.5-1.8c-0.9-1.2-1.3-3.1-1.3-5.7
			c0-5.1,2-7.7,6.1-7.7c2,0,3.4,0.6,4.4,1.6c1,1.1,1.5,2.8,1.5,5.2l-0.1,1.7h-9.6c0,1.6,0.3,2.8,0.9,3.6c0.6,0.8,1.6,1.2,3,1.2
			C150.9,137.4,152.3,137.4,153.8,137.3z M153,130.9c0-1.8-0.3-3.1-0.9-3.8c-0.6-0.7-1.5-1.1-2.8-1.1c-1.3,0-2.3,0.4-2.9,1.2
			c-0.7,0.8-1,2-1,3.7H153z"/>
		<path class="st0" d="M161.4,126.4v12.7h-2.2v-12.7h-1.8v-1.9h1.8v-1.3c0-2.1,0.3-3.5,0.9-4.2c0.6-0.7,1.6-1.1,3.1-1.1l2.9,0.2
			l0,1.8c-1.1,0-2-0.1-2.7-0.1c-0.7,0-1.2,0.2-1.5,0.7c-0.3,0.5-0.5,1.4-0.5,2.7v1.3h4.2v1.9H161.4z"/>
		<path class="st0" d="M173.8,145.9c-2.3,0-4-0.3-4.9-0.9c-0.9-0.6-1.4-1.8-1.4-3.5c0-0.8,0.2-1.4,0.5-1.9c0.4-0.5,0.9-1.1,1.8-1.7
			c-0.5-0.4-0.8-1-0.8-2c0-0.3,0.2-0.9,0.7-1.8l0.3-0.5c-1.5-0.7-2.3-2.2-2.3-4.4c0-3.3,1.8-5,5.5-5c0.9,0,1.8,0.1,2.6,0.3l0.4,0.1
			l4.3-0.1v1.9l-2.8-0.1c0.6,0.6,1,1.6,1,2.9c0,1.8-0.5,3.1-1.4,3.8c-0.9,0.7-2.3,1.1-4.3,1.1c-0.5,0-1,0-1.4-0.1
			c-0.3,0.9-0.5,1.4-0.5,1.7c0,0.6,0.2,1,0.6,1.1c0.4,0.1,1.5,0.2,3.4,0.2c1.9,0,3.2,0.3,4,0.9c0.8,0.6,1.2,1.7,1.2,3.4
			C180.3,144.4,178.1,145.9,173.8,145.9z M169.7,141.3c0,1,0.3,1.7,0.9,2.1c0.6,0.4,1.6,0.6,3.2,0.6c1.5,0,2.7-0.2,3.3-0.6
			c0.7-0.4,1-1.1,1-2.1c0-1-0.2-1.6-0.7-1.9c-0.5-0.3-1.4-0.4-2.9-0.4l-3.2-0.1c-0.6,0.5-1.1,0.9-1.3,1.2
			C169.8,140.3,169.7,140.8,169.7,141.3z M169.9,129.2c0,1.1,0.3,2,0.8,2.5c0.5,0.5,1.4,0.7,2.6,0.7c1.2,0,2-0.2,2.5-0.7
			s0.8-1.3,0.8-2.5s-0.3-2-0.8-2.5c-0.5-0.5-1.4-0.7-2.5-0.7c-1.2,0-2,0.2-2.6,0.7C170.1,127.2,169.9,128,169.9,129.2z"/>
		<path class="st0" d="M185.3,139.1h-2.2v-20.9h2.2v7.2c1.6-0.7,3.1-1.1,4.5-1.1c1.9,0,3.3,0.5,3.9,1.6c0.7,1.1,1,2.9,1,5.6v7.7
			h-2.2v-7.6c0-2-0.2-3.4-0.6-4.2c-0.4-0.7-1.2-1.1-2.5-1.1c-1.2,0-2.4,0.2-3.6,0.7l-0.6,0.2V139.1z"/>
		<path class="st0" d="M198.8,121.2v-2.5h2.2v2.5H198.8z M198.8,139.1v-14.6h2.2v14.6H198.8z"/>
		<path class="st0" d="M205.2,138.7v-14.2h2.2v14.2c0,1.8-0.3,3.1-1,4c-0.6,0.9-1.9,1.8-3.9,2.8l-0.9-1.7c1.5-0.9,2.5-1.6,2.9-2.2
			C205,141,205.2,140,205.2,138.7z M205.2,121.2v-2.5h2.2v2.5H205.2z"/>
		<path class="st0" d="M213.8,139.1h-2.2v-20.9h2.2v12.4l2.3-0.1l4.2-5.9h2.5l-4.8,6.7l5,7.9h-2.5l-4.3-6.8l-2.3,0.1V139.1z"/>
		<path class="st0" d="M225.7,139.1v-20.9h2.2v20.9H225.7z"/>
		<path class="st0" d="M234.5,139.1h-2.2v-14.6h2.2v1c1.5-0.9,2.9-1.3,4.3-1.3c1.8,0,3.1,0.5,3.8,1.5c0.6-0.4,1.5-0.7,2.5-1
			c1-0.3,1.9-0.5,2.7-0.5c1.9,0,3.3,0.5,3.9,1.6c0.7,1,1,2.9,1,5.6v7.7h-2.2v-7.6c0-2-0.2-3.4-0.6-4.2c-0.4-0.7-1.2-1.1-2.5-1.1
			c-0.6,0-1.3,0.1-2,0.3c-0.7,0.2-1.2,0.4-1.6,0.5l-0.6,0.3c0.3,0.6,0.4,2.1,0.4,4.3v7.6h-2.2v-7.5c0-2.1-0.2-3.5-0.6-4.3
			c-0.4-0.7-1.2-1.1-2.5-1.1c-0.6,0-1.3,0.1-1.9,0.3c-0.7,0.2-1.2,0.4-1.5,0.5l-0.5,0.3V139.1z"/>
		<path class="st0" d="M258.9,139.1h-2.2v-14.6h2.2v1c1.6-0.9,3.1-1.3,4.5-1.3c1.9,0,3.3,0.5,3.9,1.6s1,2.9,1,5.6v7.7h-2.2v-7.6
			c0-2-0.2-3.4-0.6-4.2c-0.4-0.7-1.2-1.1-2.6-1.1c-0.6,0-1.3,0.1-2,0.3c-0.7,0.2-1.2,0.4-1.6,0.5l-0.6,0.3V139.1z"/>
		<path class="st0" d="M271.7,131.7c0-2.7,0.5-4.6,1.4-5.8c1-1.2,2.6-1.8,4.8-1.8c2.3,0,3.9,0.6,4.8,1.8c0.9,1.2,1.4,3.1,1.4,5.8
			c0,2.7-0.4,4.6-1.3,5.8c-0.9,1.2-2.5,1.8-4.9,1.8c-2.4,0-4-0.6-4.9-1.8C272.2,136.3,271.7,134.4,271.7,131.7z M274,131.7
			c0,2.1,0.3,3.6,0.8,4.5c0.5,0.9,1.6,1.3,3.2,1.3c1.6,0,2.7-0.4,3.2-1.3c0.5-0.8,0.8-2.3,0.8-4.5c0-2.1-0.3-3.6-0.8-4.4
			c-0.6-0.8-1.6-1.2-3.1-1.2c-1.5,0-2.6,0.4-3.2,1.2C274.3,128.1,274,129.6,274,131.7z"/>
		<path class="st0" d="M287.8,145.5v-21.1h2.2v1.1c1.5-0.9,2.9-1.3,4.4-1.3c1.8,0,3.2,0.6,4,1.8c0.8,1.2,1.3,3.1,1.3,5.8
			s-0.5,4.6-1.5,5.8c-1,1.2-2.6,1.8-4.9,1.8c-1.2,0-2.3-0.1-3.3-0.3v6.5H287.8z M294,126.1c-0.6,0-1.2,0.1-1.9,0.3
			c-0.7,0.2-1.2,0.4-1.6,0.6l-0.6,0.3v9.8c1.4,0.2,2.4,0.3,3.2,0.3c1.6,0,2.7-0.4,3.3-1.3c0.6-0.9,0.9-2.4,0.9-4.4s-0.3-3.5-0.9-4.3
			C295.9,126.6,295.1,126.1,294,126.1z"/>
		<path class="st0" d="M308,139.4c-2,0-3.4-0.6-4.2-1.7c-0.8-1.1-1.3-3.1-1.3-5.8s0.5-4.7,1.5-5.9c1-1.2,2.8-1.8,5.4-1.8l4.9,0.3
			v21.1h-2.2v-7.1C310.7,139,309.4,139.4,308,139.4z M309.4,126.1c-1.8,0-3.1,0.5-3.7,1.4c-0.7,0.9-1,2.4-1,4.4c0,2,0.3,3.4,0.8,4.3
			c0.5,0.9,1.4,1.3,2.7,1.3c1.1,0,2.2-0.2,3.4-0.6l0.5-0.2v-10.3C310.9,126.1,310,126.1,309.4,126.1z"/>
		<path class="st0" d="M318.5,139.1v-14.6h2.2v2c1.7-1.2,3.5-1.9,5.3-2.3v2.2c-0.8,0.2-1.7,0.4-2.6,0.7c-0.9,0.3-1.6,0.6-2,0.9
			l-0.7,0.4v10.7H318.5z"/>
		<path class="st0" d="M333.2,126.1c-2.1,0-3.2,0.7-3.2,2.2c0,0.7,0.2,1.2,0.7,1.4c0.5,0.3,1.6,0.6,3.3,0.9c1.7,0.3,3,0.7,3.7,1.3
			c0.7,0.5,1.1,1.6,1.1,3.1c0,1.5-0.5,2.6-1.4,3.3s-2.4,1.1-4.2,1.1c-1.2,0-2.6-0.1-4.3-0.4l-0.9-0.1l0.1-1.9c2.2,0.3,3.9,0.5,5,0.5
			c1.1,0,2-0.2,2.6-0.5c0.6-0.4,0.9-1,0.9-1.8s-0.3-1.4-0.8-1.7c-0.5-0.3-1.6-0.6-3.3-0.9c-1.7-0.3-2.9-0.7-3.6-1.2
			c-0.7-0.5-1.1-1.5-1.1-2.9c0-1.4,0.5-2.5,1.5-3.1c1-0.7,2.3-1,3.7-1c1.2,0,2.7,0.1,4.5,0.4l0.8,0.1l-0.1,1.9
			C336.1,126.3,334.4,126.1,333.2,126.1z"/>
		<path class="st0" d="M349.7,126.4h-4.6v7c0,1.7,0.1,2.8,0.4,3.3c0.2,0.5,0.8,0.8,1.7,0.8l2.6-0.2l0.1,1.8c-1.3,0.2-2.3,0.3-3,0.3
			c-1.5,0-2.6-0.4-3.2-1.1c-0.6-0.7-0.9-2.1-0.9-4.2v-7.7h-2.1v-1.9h2.1V120h2.2v4.5h4.6V126.4z"/>
		<path class="st0" d="M361.5,124.5h2.2v14.6h-2.2v-1c-1.5,0.9-2.9,1.3-4.3,1.3c-2,0-3.3-0.5-4-1.5c-0.7-1-1-2.9-1-5.7v-7.6h2.2v7.6
			c0,2.1,0.2,3.5,0.6,4.3c0.4,0.7,1.2,1.1,2.5,1.1c0.6,0,1.3-0.1,2-0.3c0.7-0.2,1.2-0.4,1.5-0.5l0.5-0.3V124.5z"/>
		<path class="st0" d="M366.5,124.5h2.3l3.4,12.7h1.1l3.5-12.7h2.2l-4.1,14.6h-4.4L366.5,124.5z"/>
		<path class="st0" d="M380.7,124.5h2.2l2.9,12.7h0.5l3.5-12.4h2.3l3.5,12.4h0.5l2.9-12.7h2.2l-3.5,14.6H394l-3.1-11.4l-3.1,11.4
			h-3.6L380.7,124.5z"/>
		<path class="st0" d="M402.7,124.5h2.4l3.6,5.7l3.6-5.7h2.4l-4.6,7.2l4.6,7.4h-2.4l-3.5-5.7l-3.6,5.7h-2.4l4.6-7.3L402.7,124.5z"/>
		<path class="st0" d="M416,124.5h2.2l3.6,12.7h1l3.7-12.7h2.2l-6.1,21.1h-2.2l1.9-6.5h-2.2L416,124.5z"/>
		<path class="st0" d="M430.6,126.4v-2h10.8v2l-8.2,10.7h8.2v2h-10.8v-2l8.2-10.7H430.6z"/>
		<path class="st0" d="M287.4,154.5c1.6,0,2.9,0.3,3.9,0.9c2.1,1.2,3.2,4.4,3.2,9.3c0,3.5-0.6,6-1.8,7.5c-1.2,1.4-2.9,2.2-5.3,2.2
			c-2.3,0-4.1-0.7-5.3-2.1c-1.2-1.4-1.8-4-1.8-7.6s0.6-6.3,1.7-7.8C283.3,155.3,285,154.5,287.4,154.5z M287.4,156.5
			c-1.1,0-2,0.2-2.6,0.7c-1.4,1-2.1,3.5-2.1,7.6c0,2.9,0.4,4.9,1.1,6c0.8,1.1,1.9,1.6,3.6,1.6c1.6,0,2.8-0.6,3.6-1.7
			c0.8-1.1,1.1-3.2,1.1-6.2c0-3-0.4-5.1-1.1-6.3C290.3,157.1,289.1,156.5,287.4,156.5z"/>
		<path class="st0" d="M306.9,154.8v19.3h-2.2v-16.7l-5,3.3l-1-1.7l6.1-4.1H306.9z"/>
		<path class="st0" d="M326.2,174.1h-12.3v-1.9l5.6-5.9c1-1,1.7-1.8,2.1-2.3c0.4-0.5,0.8-1.1,1.2-1.9c0.4-0.7,0.5-1.4,0.5-2.2
			c0-1.2-0.3-2.1-1-2.6s-1.7-0.8-3.2-0.8c-1.3,0-2.7,0.2-4.2,0.5l-0.8,0.1l-0.2-1.9c1.8-0.5,3.8-0.8,5.7-0.8c2,0,3.4,0.4,4.4,1.2
			c1,0.8,1.5,2.1,1.5,3.9c0,1.4-0.3,2.5-0.9,3.6c-0.6,1-1.6,2.2-3.1,3.6l-5.1,5.2h9.7V174.1z"/>
		<path class="st0" d="M330.3,155.3c1.8-0.5,3.8-0.8,5.9-0.8s3.6,0.4,4.5,1.2c0.9,0.8,1.4,2.1,1.4,3.8c0,0.9-0.1,1.5-0.4,1.9
			c-0.2,0.4-0.4,0.7-0.6,0.9c-0.1,0.2-0.3,0.4-0.6,0.6c-0.4,0.3-0.8,0.6-1,0.7l-0.3,0.2c1.1,0.4,2,0.9,2.5,1.6
			c0.5,0.6,0.8,1.7,0.8,3.1c0,2-0.5,3.4-1.5,4.4c-1,1-2.6,1.4-4.7,1.4c-1.7,0-3.5-0.2-5.4-0.6l-0.9-0.2l0.2-1.8
			c2.1,0.4,4.1,0.6,5.9,0.6c2.8,0,4.2-1.3,4.2-3.7c0-2.3-1.3-3.5-4-3.6h-3.9v-1.9h3.9c0.8,0,1.6-0.3,2.4-1c0.8-0.7,1.1-1.5,1.1-2.6
			c0-1.1-0.3-1.8-0.9-2.3c-0.6-0.5-1.6-0.7-3-0.7c-1.6,0-3.1,0.1-4.6,0.4l-0.8,0.1L330.3,155.3z"/>
		<path class="st0" d="M355.1,174.1v-3.8h-9.3v-1.8l5.5-13.7h2.5l-5.6,13.5h7v-6h2.2v6h2.5v2h-2.5v3.8H355.1z"/>
		<path class="st0" d="M374.8,154.8v2h-9.4l-0.5,6.3c1.5-0.8,3-1.2,4.5-1.2c4.1,0,6.1,1.9,6.1,5.7c0,2.2-0.6,3.8-1.7,5
			c-1.1,1.1-2.7,1.7-4.8,1.7c-1.6,0-3.4-0.2-5.4-0.6l-1-0.2l0.3-1.8c2.2,0.4,4.1,0.6,5.6,0.6c1.5,0,2.7-0.4,3.5-1.2
			c0.8-0.8,1.2-1.9,1.2-3.3c0-1.4-0.4-2.4-1.1-3c-0.7-0.6-1.7-0.9-3-0.9c-0.7,0-1.4,0.1-2.2,0.3c-0.8,0.2-1.4,0.4-1.8,0.6l-0.6,0.3
			l-1.5-0.3l0.5-10H374.8z"/>
		<path class="st0" d="M391.3,156.9c-1.8-0.2-3.5-0.3-5.1-0.3c-1.7,0-2.9,0.6-3.8,1.7c-0.9,1.1-1.3,2.8-1.3,4.9l0.7-0.3
			c0.5-0.2,1.1-0.4,1.9-0.6c0.8-0.2,1.5-0.3,2.1-0.3c4.3,0,6.5,2,6.5,6c0,2-0.6,3.6-1.8,4.7c-1.2,1.1-2.8,1.6-5,1.6
			c-4.6,0-6.9-3.3-6.9-10c0-3.4,0.7-5.8,2-7.4c1.3-1.6,3.2-2.4,5.6-2.4c1.6,0,3.1,0.1,4.5,0.3l0.8,0.1L391.3,156.9z M385.7,164
			c-0.7,0-1.4,0.1-2.2,0.3c-0.8,0.2-1.4,0.4-1.9,0.5l-0.7,0.3c0,2.2,0.4,4,1.1,5.3c0.7,1.3,1.8,2,3.3,2s2.6-0.4,3.4-1.1
			c0.8-0.7,1.1-1.8,1.1-3.2s-0.4-2.4-1.1-3C388.1,164.4,387.1,164,385.7,164z"/>
		<path class="st0" d="M395.8,156.9v-2h12v2.9l-7.4,16.6l-2.1-0.7l7.3-16.1v-0.8H395.8z"/>
		<path class="st0" d="M413,155.8c1.2-0.8,2.9-1.3,5-1.3c2.1,0,3.8,0.4,5.1,1.3c1.3,0.8,1.9,2.1,1.9,3.7c0,1.2-0.2,2.1-0.7,2.8
			c-0.5,0.6-1.3,1.2-2.5,1.7c1.2,0.5,2,1.1,2.6,1.9c0.6,0.7,0.9,1.7,0.9,3c0,3.7-2.4,5.5-7.2,5.5c-4.8,0-7.2-1.7-7.2-5.2
			c0-1.4,0.3-2.4,0.8-3.1c0.5-0.7,1.4-1.4,2.5-2c-1.1-0.5-1.8-1.1-2.3-1.8c-0.5-0.7-0.7-1.6-0.7-2.7
			C411.2,157.9,411.8,156.6,413,155.8z M413.2,168.8c0,2.4,1.6,3.5,4.8,3.5s4.8-1.2,4.8-3.7c0-1-0.3-1.8-0.9-2.3
			c-0.6-0.5-1.4-0.9-2.6-1.2h-3.1c-1.1,0.3-1.9,0.7-2.4,1.3C413.5,167,413.2,167.8,413.2,168.8z M422.6,159.8c0-2.2-1.5-3.2-4.5-3.2
			c-3,0-4.5,1.1-4.5,3.2c0,0.9,0.2,1.5,0.7,2.1c0.5,0.5,1.2,1,2.2,1.3h3.1c1.1-0.3,1.8-0.8,2.3-1.3
			C422.4,161.3,422.6,160.6,422.6,159.8z"/>
		<path class="st0" d="M433.5,172.4c3.5,0,5.3-2.2,5.3-6.7c-1.9,0.7-3.6,1.1-5,1.1c-4.2,0-6.3-2-6.3-5.9c0-2,0.6-3.5,1.8-4.7
			c1.2-1.1,2.8-1.7,4.9-1.7c2.4,0,4.1,0.9,5.3,2.6c1.1,1.7,1.7,4.3,1.7,7.7c0,3.4-0.6,5.8-1.9,7.3c-1.3,1.5-3.2,2.2-5.7,2.2
			c-1.5,0-3-0.1-4.5-0.4l-0.8-0.1l0.2-1.8C430.1,172.3,431.8,172.4,433.5,172.4z M433.9,164.8c1.2,0,2.6-0.3,4.1-0.8l0.8-0.3
			c-0.1-4.8-1.6-7.2-4.7-7.2c-1.4,0-2.4,0.4-3.2,1.2c-0.8,0.8-1.2,1.9-1.2,3.2C429.8,163.5,431.2,164.8,433.9,164.8z"/>
	</g>
	<g>
		<path class="st0" d="M288.5,214.2l0.4-1.7h11.4l-0.4,1.7h-4.7l-3.7,15.9h-1.9l3.7-15.9H288.5z"/>
		<path class="st0" d="M298.2,230.1l2.9-12.8h1.9l-3,12.8H298.2z M301.7,214.7l0.6-2.3h1.9l-0.5,2.3H301.7z"/>
		<path class="st0" d="M306.7,227.5c0,0.8,0.4,1.2,1.3,1.2l2-0.2l-0.1,1.5c-0.9,0.2-1.7,0.4-2.5,0.4c-0.8,0-1.4-0.2-1.9-0.6
			c-0.5-0.4-0.7-1-0.7-1.7c0-0.7,0.1-1.6,0.4-2.7l1.5-6.3h-1.7l0.4-1.7h1.7l0.9-3.8h1.9l-0.9,3.8h3.6L312,219h-3.6l-1.5,6.4
			C306.8,226.2,306.7,226.9,306.7,227.5z"/>
		<path class="st0" d="M311.6,230.1l2.9-12.8h1.9l-3,12.8H311.6z M315.1,214.7l0.6-2.3h1.9l-0.5,2.3H315.1z"/>
		<path class="st0" d="M316.9,230.1l4.2-18.3h1.9l-4.2,18.3H316.9z"/>
		<path class="st0" d="M322.3,230.1l2.9-12.8h1.9l-3,12.8H322.3z M325.9,214.7l0.6-2.3h1.9l-0.5,2.3H325.9z"/>
		<path class="st0" d="M331.4,230.4c-1,0-1.7-0.3-2.2-0.9c-0.5-0.6-0.8-1.3-0.8-2.2c0-0.9,0.2-2.1,0.5-3.4l1.5-6.5h1.9l-1.5,6.4
			c-0.3,1.3-0.5,2.3-0.5,3.1c0,1.3,0.6,1.9,1.7,1.9c0.5,0,1.1-0.2,1.7-0.7c0.7-0.5,1.2-1,1.6-1.4l0.6-0.7l2-8.5h1.9l-2.9,12.8h-1.9
			l0.5-2.2c-0.2,0.2-0.4,0.4-0.6,0.7c-0.2,0.3-0.7,0.6-1.5,1.1C332.7,230.1,332.1,230.4,331.4,230.4z"/>
		<path class="st0" d="M349.8,220.7c0-1.3-0.6-1.9-1.7-1.9c-0.5,0-1.1,0.2-1.7,0.7c-0.7,0.5-1.2,1-1.6,1.4l-0.6,0.7l-2,8.5h-1.9
			l2.9-12.8h1.9l-0.5,2.2c0.4-0.5,0.8-1,1.4-1.4c1-0.7,2-1.1,2.8-1.1c1,0,1.6,0.3,2.1,0.8c0.4,0.5,0.6,1,0.7,1.5
			c0.2-0.2,0.4-0.4,0.7-0.6c0.3-0.3,0.8-0.6,1.5-1c0.7-0.4,1.4-0.6,2.1-0.6c1,0,1.7,0.3,2.2,0.9c0.5,0.6,0.8,1.3,0.8,2.1
			c0,0.9-0.2,2-0.5,3.6l-1.5,6.4h-1.9l1.5-6.4c0.3-1.3,0.5-2.3,0.5-3c0-1.3-0.6-1.9-1.7-1.9c-0.5,0-1,0.2-1.6,0.6
			c-0.6,0.4-1.1,0.8-1.4,1.2l-0.5,0.6c-0.1,0.8-0.2,1.7-0.4,2.6l-1.5,6.4h-1.9l1.5-6.4C349.6,222.5,349.8,221.4,349.8,220.7z"/>
		<path class="st0" d="M375.5,212.4c1.5,0,2.7,0.3,3.5,1s1.1,1.8,1.1,3.5c0,1.7-0.5,3.1-1.4,4.1c-0.9,1.1-2,1.8-3.2,2.1l1.9,6.9h-2
			l-1.8-6.6h-4.2l-1.6,6.6H366l4.1-17.7H375.5z M378,216.8c0-1-0.2-1.6-0.6-2c-0.4-0.4-1.1-0.6-2.1-0.6h-3.6l-1.8,7.6h3.8
			c1.3,0,2.4-0.5,3.2-1.4C377.6,219.5,378,218.2,378,216.8z"/>
		<path class="st0" d="M382.5,226.4c0,0.7,0.2,1.3,0.7,1.7c0.4,0.4,1,0.6,1.6,0.6c1.2,0,2.5-0.1,3.7-0.4l0.6-0.2l-0.2,1.5
			c-1.5,0.5-3,0.7-4.4,0.7c-2.7,0-4.1-1.3-4.1-3.9c0-2.4,0.5-4.5,1.6-6.3c0.5-0.9,1.3-1.7,2.2-2.2c0.9-0.6,1.9-0.8,3.1-0.8
			c2.5,0,3.8,1,3.8,3.1c0,1.5-0.6,2.6-1.7,3.2c-1.1,0.6-3,0.9-5.4,0.9h-1.3C382.6,225,382.5,225.7,382.5,226.4z M384.5,222.8
			c1.7,0,3-0.2,3.8-0.5c0.8-0.4,1.1-1,1.1-2c0-1-0.7-1.5-2-1.5c-2.1,0-3.5,1.4-4.3,4.1H384.5z"/>
		<path class="st0" d="M395.1,236.1c-1.4,0-2.5-0.3-3.3-0.9c-0.8-0.6-1.2-1.4-1.2-2.5c0-1.4,1.1-2.7,3.4-3.9c-0.3-0.3-0.4-0.6-0.4-1
			c0-0.4,0.1-0.8,0.4-1.2c0.2-0.4,0.5-0.7,0.7-1l0.3-0.4c-1.2-0.5-1.8-1.5-1.8-2.9c0-1.4,0.5-2.6,1.4-3.7c0.9-1,2.2-1.6,3.7-1.6
			c0.8,0,1.5,0.1,2.1,0.3l0.3,0.1l3.8-0.2l-0.4,1.6h-2.3c0.3,0.5,0.4,1.1,0.4,1.8c0,1.3-0.5,2.4-1.4,3.5c-1,1-2.3,1.6-3.9,1.6
			l-0.8-0.1c-0.5,0.7-0.8,1.2-0.8,1.6c0,0.4,0.2,0.6,0.5,0.7c0.3,0.1,1.1,0.3,2.2,0.4c1.1,0.1,2,0.4,2.6,0.9
			c0.6,0.5,0.9,1.2,0.9,2.1c0,1.3-0.6,2.4-1.7,3.3C398.6,235.7,397,236.1,395.1,236.1z M393.1,230.8c-0.5,0.5-0.8,1.1-0.8,1.6
			c0,0.6,0.2,1.1,0.7,1.5c0.5,0.4,1.3,0.6,2.3,0.6c1.1,0,2.1-0.3,2.9-0.8c0.9-0.5,1.3-1.2,1.3-2.1c0-0.5-0.2-0.9-0.5-1.1
			c-0.4-0.2-1-0.4-2-0.5c-1-0.1-1.7-0.3-2.1-0.4C394.2,229.9,393.6,230.3,393.1,230.8z M397.1,224.2c1.1,0,1.9-0.4,2.5-1.1
			c0.6-0.7,0.9-1.5,0.9-2.2c0-0.7-0.2-1.3-0.5-1.7c-0.4-0.4-1-0.5-1.9-0.5c-0.9,0-1.6,0.4-2.2,1.1c-0.6,0.7-0.9,1.5-0.9,2.4
			C395,223.5,395.7,224.2,397.1,224.2z"/>
		<path class="st0" d="M407.5,230.4c-1,0-1.7-0.3-2.2-0.9c-0.5-0.6-0.8-1.3-0.8-2.2c0-0.9,0.2-2.1,0.5-3.4l1.5-6.5h1.9l-1.5,6.4
			c-0.3,1.3-0.5,2.3-0.5,3.1c0,1.3,0.6,1.9,1.7,1.9c0.5,0,1.1-0.2,1.7-0.7c0.7-0.5,1.2-1,1.6-1.4l0.6-0.7l2-8.5h1.9l-2.9,12.8h-1.9
			l0.5-2.2c-0.2,0.2-0.4,0.4-0.6,0.7c-0.2,0.3-0.7,0.6-1.5,1.1S408.2,230.4,407.5,230.4z"/>
		<path class="st0" d="M416.5,230.1l4.2-18.3h1.9l-4.2,18.3H416.5z"/>
		<path class="st0" d="M425.8,230.4c-2.2,0-3.3-1.3-3.3-3.8c0-1.4,0.2-2.8,0.7-4.2c0.5-1.4,1.2-2.6,2.2-3.7c1-1,2.2-1.6,3.5-1.6
			c1,0,2.5,0.2,4.3,0.5l1,0.2l-1.9,8.3c-0.2,1-0.4,2.1-0.6,3.4l-0.1,0.7l-1.9,0.1c0.2-1.5,0.4-2.4,0.5-2.7c-0.1,0.2-0.3,0.4-0.8,0.9
			c-0.4,0.4-0.8,0.8-1.1,1c-0.3,0.3-0.7,0.5-1.2,0.7C426.6,230.3,426.2,230.4,425.8,230.4z M431.9,219.1c-1.2-0.2-2.2-0.4-3.1-0.4
			c-0.9,0-1.6,0.4-2.4,1.3c-0.7,0.9-1.2,1.9-1.6,3.1c-0.3,1.2-0.5,2.2-0.5,3.1s0.1,1.6,0.4,1.9c0.3,0.4,0.7,0.5,1.3,0.5
			s1.2-0.3,1.9-0.8c0.7-0.6,1.3-1.1,1.7-1.7l0.7-0.8L431.9,219.1z"/>
		<path class="st0" d="M434.7,230.1l3-12.8h1.9l-0.5,1.9c1.6-1.1,3.1-1.9,4.6-2.2l-0.5,2c-0.9,0.2-2.2,0.7-3.7,1.5l-0.8,0.4
			l-2.1,9.2H434.7z"/>
	</g>
	<g>
		<path class="st0" d="M373.1,45.4L385.6,0h11l12.5,45.4h-5l-3.3-11.7h-19.4l-3.3,11.7H373.1z M389.4,4.3l-6.9,24.9h17.2l-6.9-24.9
			H389.4z"/>
		<path class="st0" d="M438.6,22.5v16.8c0.1,1.6,1.4,2.6,3.8,2.9l-0.2,3.9c-3.5,0-6.1-0.9-7.8-2.6c-3.9,1.8-7.9,2.6-11.8,2.6
			c-3,0-5.3-0.9-6.9-2.6c-1.6-1.7-2.4-4.2-2.4-7.4c0-3.2,0.8-5.5,2.4-7.1c1.6-1.5,4.2-2.4,7.6-2.8l10.3-1v-2.8
			c0-2.2-0.5-3.8-1.4-4.8c-1-1-2.3-1.4-3.9-1.4c-3.5,0-7.1,0.2-10.9,0.7l-2,0.2l-0.2-3.7c4.8-1,9.1-1.4,12.8-1.4s6.4,0.9,8.1,2.6
			C437.7,16.2,438.6,18.9,438.6,22.5z M418.4,35.9c0,4,1.7,6,5,6c3,0,5.9-0.5,8.8-1.5l1.5-0.5V29.1l-9.7,0.9c-2,0.2-3.4,0.7-4.3,1.7
			C418.8,32.7,418.4,34.1,418.4,35.9z"/>
	</g>
	<g>
		<path class="st0" d="M552.5,104.4l4.5-19.8h7.6l4.5,19.8h-4l-0.8-3.6h-6.9l-0.8,3.6H552.5z M560.1,87.9l-2,9.4h5.4l-2-9.4H560.1z"
			/>
		<path class="st0" d="M571.7,84.6h7.8c2.1,0,3.6,0.4,4.6,1.2c1,0.8,1.5,2.2,1.5,4c0,1.1-0.2,2-0.5,2.6c-0.3,0.7-0.9,1.2-1.7,1.7
			c0.9,0.4,1.5,0.9,1.9,1.6s0.6,1.7,0.6,2.9c0,1.9-0.6,3.4-1.7,4.3c-1.1,0.9-2.7,1.4-4.8,1.4h-7.9V84.6z M579.3,88h-3.6v4.7h3.6
			c1.5,0,2.3-0.8,2.3-2.4C581.6,88.8,580.8,88,579.3,88z M579.4,96.1h-3.7v4.8h3.7c0.9,0,1.5-0.2,1.9-0.5c0.4-0.4,0.6-1,0.6-1.9
			C582,96.9,581.1,96.1,579.4,96.1z"/>
		<path class="st0" d="M602.1,104.1c-2.1,0.4-3.9,0.7-5.6,0.7c-1.7,0-3-0.2-4-0.6c-1-0.4-1.8-1.1-2.3-2c-0.6-0.9-1-1.9-1.2-3.2
			c-0.2-1.2-0.3-2.7-0.3-4.6c0-3.8,0.5-6.5,1.6-8c1.1-1.5,3.1-2.3,6-2.3c1.7,0,3.6,0.3,5.8,0.8l-0.1,3.2c-1.9-0.3-3.5-0.4-4.8-0.4
			c-1.3,0-2.2,0.2-2.7,0.5c-0.5,0.3-0.9,1-1.2,1.9c-0.3,1-0.4,2.6-0.4,4.9c0,2.3,0.3,3.9,0.8,4.8c0.5,0.9,1.6,1.3,3.2,1.3
			s3.3-0.1,5.1-0.4L602.1,104.1z"/>
		<path class="st0" d="M612,104.4h-6.7V84.6h6.7c1.7,0,3.1,0.2,4.2,0.5s2,1,2.6,1.8c0.6,0.8,1,1.8,1.3,2.9c0.2,1.1,0.3,2.6,0.3,4.4
			c0,1.8-0.1,3.3-0.3,4.4c-0.2,1.2-0.6,2.2-1.2,3.1c-0.6,0.9-1.5,1.6-2.6,2C615.2,104.2,613.8,104.4,612,104.4z M616.2,96.5
			c0-0.6,0.1-1.5,0.1-2.6c0-1.1,0-2-0.1-2.6c-0.1-0.7-0.3-1.3-0.6-1.8c-0.3-0.5-0.7-0.9-1.3-1.1c-0.6-0.2-1.3-0.3-2.3-0.3h-2.7v12.8
			h2.7c1.5,0,2.5-0.4,3.2-1.1C615.8,99.2,616.1,98.1,616.2,96.5z"/>
		<path class="st0" d="M623.9,104.4V84.6h12.8v3.5H628v4.6h7.1v3.4H628v4.8h8.8v3.5H623.9z"/>
		<path class="st0" d="M640.1,104.4V84.6h12.7v3.5h-8.6v5.8h7.1v3.5h-7.1v7H640.1z"/>
		<path class="st0" d="M663.9,97.3v-3.5h5.8v10.3c-2.8,0.4-5,0.7-6.8,0.7c-3.1,0-5.2-0.8-6.4-2.5c-1.2-1.7-1.7-4.3-1.7-7.9
			c0-3.6,0.6-6.2,1.8-7.8c1.2-1.6,3.3-2.4,6.2-2.4c1.8,0,3.8,0.2,5.9,0.6l1.1,0.2l-0.1,3.1c-2.3-0.3-4.2-0.4-5.7-0.4
			c-1.5,0-2.5,0.2-3.1,0.5c-0.6,0.4-1,1-1.3,1.9c-0.3,0.9-0.4,2.6-0.4,4.8c0,2.3,0.3,3.9,0.8,4.8c0.6,0.9,1.7,1.4,3.5,1.4l2.4-0.1
			v-3.9H663.9z"/>
		<path class="st0" d="M684.8,104.4v-8.2h-7.4v8.2h-4V84.6h4v8.1h7.4v-8.1h4v19.8H684.8z"/>
		<path class="st0" d="M693.2,104.4V84.6h4v19.8H693.2z"/>
		<path class="st0" d="M699.9,106.5V103c0.8,0,1.3-0.1,1.7-0.4c0.3-0.3,0.5-0.8,0.5-1.6V84.6h4l0,16.5c0,2.1-0.5,3.5-1.4,4.3
			C703.8,106.1,702.2,106.5,699.9,106.5z"/>
		<path class="st0" d="M714.4,104.4h-4V84.6h4v8.7L717,93l3.3-8.4h4.6l-4.3,9.9l4.4,9.9h-4.6l-3.3-7.9l-2.7,0.3V104.4z"/>
		<path class="st0" d="M738.9,104.4h-11.3V84.6h4v16.3h7.3V104.4z"/>
		<path class="st0" d="M741.4,104.4V84.6h6.9l3.5,14.5l3.5-14.5h6.9v19.8h-4V89.1h-0.4l-3.9,14.5h-4l-3.9-14.5h-0.4v15.3H741.4z"/>
		<path class="st0" d="M766.4,104.4V84.6h6.8l4.8,16.3h0.3V84.6h4v19.8h-6.6l-5-16.3h-0.3v16.3H766.4z"/>
		<path class="st0" d="M800.4,102.3c-1.2,1.6-3.4,2.5-6.4,2.5s-5.1-0.8-6.4-2.5c-1.2-1.6-1.9-4.2-1.9-7.7c0-3.5,0.6-6.1,1.9-7.8
			c1.2-1.7,3.4-2.6,6.4-2.6s5.1,0.9,6.4,2.6c1.2,1.7,1.9,4.3,1.9,7.8C802.2,98.1,801.6,100.7,800.4,102.3z M790.8,99.7
			c0.6,1,1.6,1.5,3.2,1.5c1.6,0,2.6-0.5,3.2-1.5c0.6-1,0.9-2.7,0.9-5.1c0-2.4-0.3-4.1-0.9-5.2c-0.6-1.1-1.7-1.6-3.2-1.6
			c-1.6,0-2.6,0.5-3.2,1.6c-0.6,1.1-0.9,2.8-0.9,5.2C789.9,97,790.2,98.7,790.8,99.7z"/>
		<path class="st0" d="M813,98.6h-3.3v5.8h-4V84.6h7.3c4.7,0,7.1,2.3,7.1,6.9c0,2.3-0.6,4.1-1.8,5.3C817,98,815.3,98.6,813,98.6z
			 M809.7,95.2h3.2c2,0,3-1.2,3-3.7c0-1.2-0.2-2.1-0.7-2.6c-0.5-0.5-1.2-0.8-2.3-0.8h-3.2V95.2z"/>
		<path class="st0" d="M830.2,104.8c-3,0-5.2-0.8-6.4-2.5c-1.2-1.6-1.8-4.2-1.8-7.7c0-3.5,0.6-6.1,1.9-7.8c1.2-1.7,3.4-2.6,6.4-2.6
			s5.1,0.9,6.4,2.6c1.2,1.7,1.9,4.3,1.9,7.8c0,4.3-1,7.2-3.1,8.7l2.4,3.9l-3.7,1.7l-2.6-4.3C831.3,104.7,830.9,104.8,830.2,104.8z
			 M827,99.8c0.6,1,1.6,1.5,3.2,1.5s2.6-0.5,3.2-1.5c0.6-1,0.9-2.7,0.9-5.1s-0.3-4.2-0.9-5.3c-0.6-1.1-1.7-1.6-3.2-1.6
			c-1.6,0-2.6,0.5-3.2,1.6c-0.6,1.1-0.9,2.8-0.9,5.3S826.4,98.7,827,99.8z"/>
		<path class="st0" d="M845.9,97.8v6.7h-4V84.6h7.7c4.7,0,7,2.2,7,6.5c0,2.6-1,4.5-2.9,5.7l2.8,7.6h-4.4l-2.3-6.7H845.9z
			 M851.8,93.5c0.5-0.6,0.7-1.4,0.7-2.3c0-1-0.2-1.7-0.7-2.3c-0.5-0.6-1.2-0.8-2.1-0.8h-3.7v6.3h3.7C850.6,94.3,851.3,94,851.8,93.5
			z"/>
		<path class="st0" d="M866.1,87.7c-2.1,0-3.2,0.7-3.2,2.1c0,0.6,0.3,1.1,0.8,1.4c0.5,0.3,1.8,0.8,3.7,1.4c1.9,0.6,3.3,1.3,4.1,2.1
			c0.8,0.8,1.2,2,1.2,3.6c0,2.1-0.6,3.7-1.9,4.7c-1.3,1.1-2.9,1.6-5,1.6c-1.5,0-3.4-0.2-5.6-0.7l-1.1-0.2l0.4-3.1
			c2.6,0.3,4.6,0.5,6,0.5c2.1,0,3.1-0.9,3.1-2.6c0-0.6-0.2-1.1-0.7-1.5c-0.5-0.4-1.4-0.7-2.8-1.1c-2.3-0.6-3.8-1.4-4.8-2.3
			c-0.9-0.9-1.4-2.1-1.4-3.7c0-2,0.6-3.5,1.8-4.4c1.2-1,2.9-1.5,5-1.5c1.4,0,3.3,0.2,5.5,0.6l1.1,0.2l-0.3,3.2
			C869.1,87.9,867.2,87.7,866.1,87.7z"/>
		<path class="st0" d="M874.1,88.1v-3.6h14.6v3.6h-5.3v16.3h-4V88.1H874.1z"/>
		<path class="st0" d="M895,97.8c0,2.3,1.2,3.5,3.5,3.5c2.4,0,3.5-1.2,3.5-3.5V84.6h4v13.1c0,2.4-0.6,4.2-1.9,5.4
			c-1.3,1.1-3.1,1.7-5.7,1.7c-2.5,0-4.4-0.6-5.7-1.7c-1.3-1.1-1.9-2.9-1.9-5.4V84.6h4V97.8z"/>
		<path class="st0" d="M921,84.6h4.2l-4.6,19.8h-7.4l-4.6-19.8h4.2l3.4,16.3h1.3L921,84.6z"/>
		<path class="st0" d="M926.2,84.6h4.2l2.5,16.4h0.4l3.6-16.4h4.7l3.6,16.4h0.4l2.5-16.4h4.2l-3.8,19.8h-6.1l-3.1-15.1l-3.1,15.1
			H930L926.2,84.6z"/>
		<path class="st0" d="M957.6,84.6l3.7,7.3l3.8-7.3h4.2l-5.7,10.1l5.7,9.7h-4.5l-3.7-6.9l-3.8,6.9h-4.2l5.7-9.5l-5.7-10.3H957.6z"/>
		<path class="st0" d="M979.6,104.4h-4v-8l-6.1-11.8h4.5l3.6,7.9l3.6-7.9h4.5l-6.1,11.8V104.4z"/>
		<path class="st0" d="M986.9,88.1v-3.5h13.1v3.5l-8.3,12.3v0.5h8.3v3.5h-13.1V101l8.3-12.3v-0.5H986.9z"/>
		<path class="st0" d="M565,129.4v6.1c0,0.5,0.1,0.8,0.2,1c0.1,0.2,0.4,0.3,0.7,0.4l-0.1,2.9c-1,0-1.8-0.1-2.4-0.2
			c-0.6-0.1-1.2-0.4-1.8-0.8c-1.4,0.7-2.8,1-4.3,1c-3,0-4.5-1.6-4.5-4.8c0-1.6,0.4-2.7,1.3-3.3c0.8-0.7,2.1-1,3.8-1.2l3.1-0.2v-0.9
			c0-0.6-0.1-1-0.4-1.2c-0.3-0.2-0.7-0.3-1.3-0.3l-5.5,0.2l-0.1-2.7c2.1-0.6,4.1-0.8,5.9-0.8s3.2,0.4,4.1,1.2
			C564.6,126.4,565,127.7,565,129.4z M558.4,133.3c-1.1,0.1-1.6,0.7-1.6,1.8c0,1.1,0.5,1.6,1.4,1.6c0.7,0,1.5-0.1,2.4-0.4l0.4-0.1
			V133L558.4,133.3z"/>
		<path class="st0" d="M575.8,124.5c2,0,3.5,0.6,4.5,1.7c0.9,1.1,1.4,3.1,1.4,6c0,2.9-0.5,4.9-1.6,6c-1.1,1.1-3,1.6-5.6,1.6
			c-0.8,0-2.4-0.1-4.6-0.3l-1.1-0.1V119h3.9v6.3C573.9,124.8,574.9,124.5,575.8,124.5z M574.4,136.3c1.3,0,2.2-0.3,2.6-0.9
			c0.4-0.6,0.7-1.8,0.7-3.4c0-2.6-0.8-3.9-2.5-3.9c-0.8,0-1.5,0.1-2.2,0.3l-0.4,0.1v7.8C573.5,136.2,574.1,136.3,574.4,136.3z"/>
		<path class="st0" d="M590,124.5c1,0,2.3,0.2,3.9,0.5l0.8,0.2l-0.1,3.1c-1.5-0.2-2.7-0.2-3.4-0.2c-1.3,0-2.2,0.3-2.7,0.9
			c-0.4,0.6-0.7,1.7-0.7,3.3c0,1.6,0.2,2.7,0.7,3.3c0.4,0.6,1.3,0.9,2.7,0.9l3.4-0.2l0.1,3.1c-2.1,0.4-3.7,0.6-4.8,0.6
			c-2.2,0-3.7-0.6-4.7-1.8c-0.9-1.2-1.4-3.2-1.4-5.8c0-2.7,0.5-4.6,1.5-5.8C586.3,125.1,587.9,124.5,590,124.5z"/>
		<path class="st0" d="M610,119v20.4h-3.9v-0.6c-1.4,0.6-2.5,1-3.5,1c-2.1,0-3.6-0.6-4.4-1.8c-0.8-1.2-1.3-3.2-1.3-5.8
			c0-2.7,0.5-4.6,1.5-5.8c1-1.2,2.5-1.8,4.5-1.8c0.6,0,1.5,0.1,2.6,0.3l0.6,0.1V119H610z M605.7,135.9l0.4-0.1v-7.7
			c-1.1-0.2-2-0.3-2.9-0.3c-1.6,0-2.4,1.4-2.4,4.2c0,1.5,0.2,2.6,0.5,3.2c0.3,0.6,0.9,1,1.7,1C603.9,136.3,604.8,136.2,605.7,135.9z
			"/>
		<path class="st0" d="M617.5,135.7c0.5,0.4,1.1,0.6,2,0.6c1.8,0,3.4-0.1,4.8-0.2l0.8-0.1l0.1,2.9c-2.2,0.5-4.3,0.8-6.1,0.8
			c-2.2,0-3.8-0.6-4.8-1.8c-1-1.2-1.5-3.1-1.5-5.7c0-5.2,2.1-7.8,6.4-7.8c4.2,0,6.4,2.2,6.4,6.6l-0.3,2.7h-8.6
			C616.8,134.7,617.1,135.3,617.5,135.7z M621.8,130.8c0-1.2-0.2-2-0.6-2.4c-0.4-0.5-1-0.7-1.9-0.7c-0.9,0-1.6,0.2-2,0.7
			c-0.4,0.5-0.6,1.3-0.6,2.4H621.8z"/>
		<path class="st0" d="M633.1,128.2v11.3h-3.9v-11.3h-1.6v-3.3h1.6v-0.6c0-2.1,0.3-3.6,0.9-4.3c0.6-0.8,1.7-1.2,3.3-1.2
			c0.7,0,1.6,0.1,2.7,0.3l0.6,0.1l-0.1,3.2c-0.9,0-1.6-0.1-2.2-0.1c-0.6,0-1,0.2-1.2,0.5s-0.3,0.8-0.3,1.6v0.6h3.5v3.3H633.1z"/>
		<path class="st0" d="M652.1,141.3c0,1.7-0.6,2.9-1.9,3.7c-1.3,0.8-3,1.2-5.2,1.2c-2.2,0-3.9-0.3-5-0.9c-1.2-0.6-1.8-1.6-1.8-3.2
			c0-1.2,0.7-2.4,2.1-3.5c-0.7-0.5-1.1-1.2-1.1-2.2c0-0.4,0.3-1,0.9-1.9l0.3-0.4c-1.3-1-2-2.4-2-4.2c0-1.9,0.6-3.2,1.7-4
			c1.1-0.8,2.6-1.3,4.4-1.3c0.8,0,1.7,0.1,2.5,0.3l0.5,0.1l4.7-0.1v3.1l-2.2-0.2c0.4,0.7,0.6,1.3,0.6,2c0,1.9-0.5,3.3-1.5,4
			c-1,0.7-2.5,1.1-4.7,1.1c-0.4,0-0.8,0-1.2-0.1c-0.2,0.5-0.3,0.9-0.3,1.2c0,0.3,0.2,0.5,0.5,0.7c0.3,0.1,1.1,0.2,2.3,0.2
			c2.5,0,4.1,0.3,5,1C651.7,138.4,652.1,139.6,652.1,141.3z M642,141.7c0,0.8,1,1.3,3.1,1.3c2.1,0,3.1-0.5,3.1-1.5
			c0-0.5-0.2-0.9-0.5-1s-1.1-0.2-2.2-0.2l-2.6-0.2C642.3,140.5,642,141.1,642,141.7z M642.3,129.7c0,1.4,0.7,2.1,2.2,2.1
			c1.5,0,2.2-0.7,2.2-2.1c0-1.4-0.7-2.1-2.2-2.1C643,127.6,642.3,128.3,642.3,129.7z"/>
		<path class="st0" d="M658.4,139.4h-3.9V119h3.9v6.5c1.3-0.7,2.5-1.1,3.6-1.1c1.9,0,3.3,0.6,4,1.7c0.7,1.1,1.1,2.9,1.1,5.3v7.9
			h-3.9v-7.8c0-1.2-0.1-2.1-0.4-2.7s-0.9-0.9-1.8-0.9c-0.8,0-1.5,0.1-2.3,0.4l-0.4,0.1V139.4z"/>
		<path class="st0" d="M670.6,123v-4h3.9v4H670.6z M670.6,139.4v-14.6h3.9v14.6H670.6z"/>
		<path class="st0" d="M678.2,138.7v-13.9h3.9v13.9c0,2-0.3,3.4-1,4.4c-0.7,0.9-2.1,1.9-4.2,3l-1.5-2.9c0.9-0.6,1.5-1,1.8-1.4
			c0.4-0.3,0.6-0.7,0.8-1.2C678.1,140.2,678.2,139.6,678.2,138.7z M678.2,123v-4h3.9v4H678.2z"/>
		<path class="st0" d="M689.6,139.4h-3.9V119h3.9v11.6l1.5-0.3l2.9-5.5h4.4l-3.8,6.9l4,7.7h-4.4l-2.9-5.7l-1.6,0.3V139.4z"/>
		<path class="st0" d="M700.9,139.4V119h3.9v20.4H700.9z"/>
		<path class="st0" d="M712.5,139.4h-3.9v-14.6h3.9v0.8c1.3-0.8,2.5-1.2,3.4-1.2c1.6,0,2.8,0.5,3.6,1.4c1.8-0.9,3.4-1.4,4.9-1.4
			c1.9,0,3.3,0.6,4,1.7c0.7,1.1,1.1,2.9,1.1,5.4v7.9h-3.9v-7.8c0-1.2-0.1-2.2-0.4-2.8c-0.3-0.6-0.8-0.9-1.6-0.9
			c-0.6,0-1.4,0.1-2.3,0.4l-0.4,0.1c0.1,1.5,0.1,2.6,0.1,3.3v7.6h-3.9v-7.5c0-1.4-0.1-2.5-0.4-3c-0.3-0.6-0.8-0.9-1.7-0.9
			c-0.8,0-1.5,0.1-2.2,0.4l-0.4,0.1V139.4z"/>
		<path class="st0" d="M737,139.4h-3.9v-14.6h3.9v0.8c1.3-0.8,2.5-1.2,3.6-1.2c1.9,0,3.3,0.6,4,1.7c0.7,1.1,1.1,2.9,1.1,5.3v7.9
			h-3.9v-7.8c0-1.2-0.1-2.2-0.4-2.8c-0.3-0.6-0.9-0.9-1.8-0.9c-0.8,0-1.6,0.1-2.3,0.4l-0.4,0.1V139.4z"/>
		<path class="st0" d="M750,126.5c1-1.3,2.8-2,5.2-2s4.1,0.7,5.2,2s1.5,3.2,1.5,5.6c0,5.1-2.2,7.7-6.7,7.7c-4.5,0-6.7-2.6-6.7-7.7
			C748.5,129.7,749,127.8,750,126.5z M753,135.4c0.4,0.7,1.1,1.1,2.1,1.1s1.7-0.4,2.1-1.1c0.4-0.7,0.6-1.8,0.6-3.3s-0.2-2.6-0.6-3.3
			c-0.4-0.7-1.1-1-2.1-1s-1.7,0.3-2.1,1c-0.4,0.7-0.6,1.8-0.6,3.3S752.6,134.7,753,135.4z"/>
		<path class="st0" d="M764.7,145.6v-20.7h3.9v0.8c1.3-0.8,2.4-1.1,3.3-1.1c2,0,3.4,0.6,4.3,1.8c0.9,1.2,1.4,3.2,1.4,6
			c0,2.8-0.5,4.8-1.5,5.9c-1,1.1-2.7,1.6-5.1,1.6c-0.6,0-1.3-0.1-2.1-0.2l-0.4-0.1v6H764.7z M771.2,128c-0.7,0-1.4,0.1-2.2,0.4
			l-0.4,0.1v7.6c0.9,0.1,1.6,0.2,2.1,0.2c1.1,0,1.9-0.3,2.3-1c0.4-0.7,0.6-1.8,0.6-3.4C773.7,129.3,772.9,128,771.2,128z"/>
		<path class="st0" d="M785.8,139.8c-2,0-3.5-0.6-4.5-1.7c-0.9-1.1-1.4-3.1-1.4-6s0.5-4.9,1.6-6c1.1-1.1,3-1.6,5.6-1.6
			c1.2,0,2.7,0.1,4.6,0.3l1.1,0.1v20.7h-3.9V139C787.7,139.5,786.6,139.8,785.8,139.8z M787.1,127.9c-1.3,0-2.2,0.3-2.6,1
			s-0.7,1.8-0.7,3.5c0,2.6,0.8,3.9,2.5,3.9c0.8,0,1.5-0.1,2.2-0.3l0.4-0.1V128C788.2,127.9,787.6,127.9,787.1,127.9z"/>
		<path class="st0" d="M796.5,139.4v-14.6h3.9v1.5c1.6-1,3.2-1.6,4.7-1.9v3.9c-1.6,0.3-2.9,0.7-4.1,1l-0.6,0.2v9.8H796.5z"/>
		<path class="st0" d="M817.8,128.5c-2.4-0.3-4.1-0.5-5.1-0.5s-1.6,0.1-1.9,0.3c-0.3,0.2-0.4,0.5-0.4,0.8c0,0.4,0.2,0.6,0.6,0.8
			c0.4,0.1,1.4,0.4,2.9,0.6c1.6,0.3,2.7,0.7,3.3,1.4c0.7,0.6,1,1.7,1,3.1c0,3.2-2,4.7-5.9,4.7c-1.3,0-2.8-0.2-4.7-0.5l-0.9-0.2
			l0.1-3.3c2.4,0.3,4.1,0.5,5,0.5c0.9,0,1.6-0.1,1.9-0.3c0.3-0.2,0.5-0.5,0.5-0.8c0-0.4-0.2-0.6-0.5-0.8c-0.4-0.2-1.3-0.4-2.8-0.6
			c-1.5-0.3-2.6-0.7-3.4-1.3c-0.7-0.6-1.1-1.7-1.1-3.2c0-1.5,0.5-2.7,1.6-3.5c1-0.8,2.4-1.2,4.1-1.2c1.1,0,2.7,0.2,4.7,0.6l1,0.2
			L817.8,128.5z"/>
		<path class="st0" d="M829.2,128.2h-3.6v6c0,0.6,0,1,0,1.2c0,0.2,0.1,0.5,0.3,0.6c0.2,0.2,0.5,0.3,0.9,0.3l2.2-0.1l0.2,3.1
			c-1.3,0.3-2.3,0.4-3,0.4c-1.8,0-2.9-0.4-3.6-1.2c-0.6-0.8-1-2.2-1-4.4v-6.1h-1.7v-3.3h1.7v-4.1h3.9v4.1h3.6V128.2z"/>
		<path class="st0" d="M840.3,124.8h3.9v14.6h-3.9v-0.8c-1.4,0.8-2.6,1.2-3.6,1.2c-2,0-3.4-0.6-4.1-1.7c-0.7-1.1-1.1-3-1.1-5.6v-7.6
			h3.9v7.7c0,1.4,0.1,2.4,0.4,2.9c0.2,0.5,0.8,0.8,1.7,0.8c0.9,0,1.7-0.1,2.4-0.4l0.4-0.1V124.8z"/>
		<path class="st0" d="M846.5,124.8h4.1l2.3,11.3h0.8l2.5-11.3h4l-3.5,14.6H850L846.5,124.8z"/>
		<path class="st0" d="M861.2,124.8h3.9l1.8,11.3h0.7l2.2-11h4l2.2,11h0.7l1.8-11.3h3.8l-2.8,14.6h-6.1l-1.7-8.9l-1.7,8.9H864
			L861.2,124.8z"/>
		<path class="st0" d="M883.5,124.8h4.2l2.3,4.5l2.4-4.5h4.2l-4.1,7.1l4.1,7.4h-4.2L890,135l-2.3,4.5h-4.2l4-7.3L883.5,124.8z"/>
		<path class="st0" d="M897.4,124.8h3.9l2.7,11.3h0.7l2.7-11.3h3.8l-5.1,20.7h-3.8l1.6-6.1H901L897.4,124.8z"/>
		<path class="st0" d="M912.7,128.3v-3.5h10.8v3.5l-6.1,7.6h6.1v3.5h-10.8v-3.5l6.1-7.6H912.7z"/>
		<path class="st0" d="M554.6,157.2c1.3-1.6,3.1-2.4,5.6-2.4c2.5,0,4.3,0.8,5.6,2.4c1.3,1.6,1.9,4.2,1.9,7.7c0,3.5-0.6,6.1-1.9,7.6
			c-1.2,1.5-3.1,2.3-5.6,2.3c-2.5,0-4.4-0.8-5.6-2.3c-1.2-1.5-1.9-4.1-1.9-7.6C552.7,161.4,553.3,158.8,554.6,157.2z M563.5,164.8
			c0-2.4-0.3-4.1-0.8-5c-0.5-1-1.4-1.4-2.6-1.4c-1.2,0-2.1,0.5-2.6,1.5c-0.5,1-0.8,2.7-0.8,5c0,2.4,0.3,4.1,0.8,5
			c0.5,1,1.4,1.4,2.6,1.4s2-0.5,2.5-1.4C563.2,168.9,563.5,167.2,563.5,164.8z"/>
		<path class="st0" d="M580.5,155.2v19.3h-4v-14.7l-4.2,2.7l-1.8-3l6.4-4.2H580.5z"/>
		<path class="st0" d="M599.1,174.4h-12.5V171l4.1-4.2c1.5-1.5,2.5-2.6,3-3.4c0.6-0.8,0.9-1.6,0.9-2.6s-0.2-1.5-0.7-1.9
			c-0.5-0.4-1.2-0.6-2-0.6c-1.3,0-2.7,0.1-4.3,0.3l-0.7,0.1l-0.2-3.1c1.9-0.6,3.9-0.9,5.9-0.9c4.1,0,6.1,1.8,6.1,5.5
			c0,1.4-0.3,2.7-0.9,3.7c-0.6,1.1-1.8,2.3-3.4,3.8l-3.4,3h8V174.4z"/>
		<path class="st0" d="M602.8,155.9c1.8-0.7,3.8-1.1,6-1.1c2.2,0,3.8,0.4,4.8,1.3s1.5,2.2,1.5,4.1c0,1.9-0.7,3.3-2.2,4.3
			c0.9,0.5,1.6,1,2,1.6c0.4,0.5,0.6,1.4,0.6,2.6c0,2.1-0.5,3.6-1.6,4.6s-2.7,1.5-5,1.5c-1.7,0-3.5-0.3-5.3-0.8l-0.9-0.2l0.2-3.1
			c2.2,0.4,4,0.6,5.5,0.6c2,0,3-0.9,3-2.6c0-0.7-0.3-1.3-0.8-1.7c-0.5-0.4-1.2-0.6-2-0.6h-3.9V163h3.9c0.6,0,1.2-0.3,1.7-0.8
			c0.5-0.5,0.7-1.1,0.7-1.8c0-1.4-1-2.1-2.9-2.1c-1.3,0-2.8,0.1-4.3,0.4l-0.8,0.1L602.8,155.9z"/>
		<path class="st0" d="M626.7,174.4v-3.2h-8.2v-3.1l4.8-13h4.4l-5.2,12.6h4.1v-5.4h4v5.4h1.8v3.5h-1.8v3.2H626.7z"/>
		<path class="st0" d="M648,155.2v3.5h-8.6l-0.5,4.2c1.2-0.5,2.4-0.7,3.4-0.7c4.2,0,6.2,1.9,6.2,5.8c0,2.2-0.6,3.9-1.7,5
			c-1.1,1.2-2.8,1.8-4.9,1.8c-0.9,0-1.9-0.1-3-0.3c-1.1-0.2-2-0.4-2.7-0.6l-1.1-0.3l0.4-3c2.4,0.4,4.3,0.6,5.9,0.6
			c1,0,1.7-0.3,2.2-0.8c0.5-0.5,0.8-1.2,0.8-2.2c0-0.9-0.2-1.6-0.6-2.1c-0.4-0.4-1-0.6-1.8-0.6c-1.3,0-2.5,0.1-3.4,0.4l-0.4,0.1
			l-2.4-0.6l0.5-10.4H648z"/>
		<path class="st0" d="M664.5,158.8c-2-0.3-3.7-0.4-5.2-0.4c-2.8,0-4.1,1.5-4.1,4.5l0.6-0.2c1.3-0.4,2.3-0.6,3.1-0.6
			c2.2,0,3.9,0.5,5,1.5c1.1,1,1.7,2.6,1.7,4.7s-0.6,3.7-1.9,4.8c-1.2,1.1-3,1.6-5.4,1.6c-2.4,0-4.1-0.9-5.4-2.6
			c-1.2-1.7-1.8-4.3-1.8-7.6c0-3.3,0.7-5.8,2.1-7.4c1.4-1.6,3.4-2.4,6-2.4c1.5,0,3.1,0.2,4.9,0.6l0.9,0.2L664.5,158.8z M658.5,165.6
			c-0.9,0-1.9,0.2-2.9,0.5l-0.5,0.1c0,3.4,1.1,5,3.3,5c0.9,0,1.7-0.3,2.2-0.8c0.5-0.5,0.8-1.2,0.8-2.2
			C661.3,166.5,660.4,165.6,658.5,165.6z"/>
		<path class="st0" d="M668.4,158.8v-3.6h12.3v4.5l-6.9,15.1l-3.7-1.1l6.6-14v-0.9H668.4z"/>
		<path class="st0" d="M685.7,156.2c1.3-0.9,3-1.4,5.1-1.4c2.1,0,3.8,0.5,5.1,1.4c1.3,0.9,2,2.2,2,3.9c0,1.1-0.1,2-0.4,2.5
			c-0.3,0.6-0.8,1.2-1.7,1.9c0.9,0.7,1.5,1.4,1.8,2c0.4,0.6,0.6,1.5,0.6,2.7c0,1.9-0.7,3.3-2,4.2c-1.4,0.9-3.1,1.4-5.3,1.4
			c-4.9,0-7.3-1.8-7.3-5.3c0-1.2,0.2-2.2,0.6-2.9c0.4-0.7,1-1.4,1.9-2.1c-0.8-0.7-1.4-1.3-1.7-1.9s-0.4-1.5-0.4-2.5
			C683.8,158.4,684.5,157.1,685.7,156.2z M687.8,168.6c0,1.7,1,2.6,3,2.6c2,0,3-0.9,3-2.6c0-1-0.6-1.7-1.7-2.2h-2.6
			C688.4,166.9,687.8,167.6,687.8,168.6z M690.9,158.5c-0.9,0-1.5,0.2-2,0.6c-0.5,0.4-0.7,1-0.7,1.8s0.5,1.5,1.4,2.2h2.6
			c1-0.7,1.4-1.4,1.4-2.3C693.6,159.2,692.7,158.5,690.9,158.5z"/>
		<path class="st0" d="M706.3,171.3c2.6,0,3.9-1.6,3.9-4.7l-0.6,0.2c-1.3,0.4-2.4,0.7-3.1,0.7c-2.1,0-3.8-0.5-4.9-1.5
			c-1.1-1-1.7-2.6-1.7-4.6c0-2,0.6-3.6,1.9-4.8c1.3-1.1,3.1-1.7,5.4-1.7c2.3,0,4.1,0.9,5.3,2.6s1.8,4.3,1.8,7.7s-0.7,5.9-2,7.4
			c-1.4,1.5-3.4,2.3-6,2.3c-1.5,0-3.1-0.2-4.9-0.6l-0.9-0.2l0.4-3.1C702.8,171.1,704.6,171.3,706.3,171.3z M706.8,163.9
			c0.9,0,1.9-0.2,2.9-0.5l0.5-0.1c0-3.3-1.1-4.9-3.3-4.9c-0.9,0-1.7,0.3-2.2,0.8c-0.5,0.5-0.8,1.2-0.8,2.2
			C704,163.1,704.9,163.9,706.8,163.9z"/>
	</g>
	<g>
		<path class="st0" d="M555.9,215.1l0.4-1.7h11.4l-0.4,1.7h-4.7l-3.7,15.9H557l3.7-15.9H555.9z"/>
		<path class="st0" d="M565.7,231l2.9-12.8h1.9l-3,12.8H565.7z M569.2,215.6l0.6-2.3h1.9l-0.5,2.3H569.2z"/>
		<path class="st0" d="M574.1,228.4c0,0.8,0.4,1.2,1.3,1.2l2-0.2l-0.1,1.5c-0.9,0.2-1.7,0.4-2.5,0.4c-0.8,0-1.4-0.2-1.9-0.6
			c-0.5-0.4-0.7-1-0.7-1.7c0-0.7,0.1-1.6,0.4-2.7l1.5-6.3h-1.7l0.4-1.7h1.7l0.9-3.8h1.9l-0.9,3.8h3.6l-0.4,1.7h-3.6l-1.5,6.4
			C574.2,227.1,574.1,227.8,574.1,228.4z"/>
		<path class="st0" d="M579,231l2.9-12.8h1.9l-3,12.8H579z M582.6,215.6l0.6-2.3h1.9l-0.5,2.3H582.6z"/>
		<path class="st0" d="M584.4,231l4.2-18.3h1.9l-4.2,18.3H584.4z"/>
		<path class="st0" d="M589.8,231l2.9-12.8h1.9l-3,12.8H589.8z M593.3,215.6l0.6-2.3h1.9l-0.5,2.3H593.3z"/>
		<path class="st0" d="M598.9,231.3c-1,0-1.7-0.3-2.2-0.9c-0.5-0.6-0.8-1.3-0.8-2.2c0-0.9,0.2-2.1,0.5-3.4l1.5-6.5h1.9l-1.5,6.4
			c-0.3,1.3-0.5,2.3-0.5,3.1c0,1.3,0.6,1.9,1.7,1.9c0.5,0,1.1-0.2,1.7-0.7c0.7-0.5,1.2-1,1.6-1.4l0.6-0.7l2-8.5h1.9l-2.9,12.8h-1.9
			l0.5-2.2c-0.2,0.2-0.4,0.4-0.6,0.7c-0.2,0.3-0.7,0.6-1.5,1.1C600.2,231,599.5,231.3,598.9,231.3z"/>
		<path class="st0" d="M617.3,221.6c0-1.3-0.6-1.9-1.7-1.9c-0.5,0-1.1,0.2-1.7,0.7c-0.7,0.5-1.2,1-1.6,1.4l-0.6,0.7l-2,8.5h-1.9
			l2.9-12.8h1.9l-0.5,2.2c0.4-0.5,0.9-1,1.4-1.4c1-0.7,2-1.1,2.8-1.1c1,0,1.6,0.3,2.1,0.8c0.4,0.5,0.6,1,0.7,1.5
			c0.2-0.2,0.4-0.4,0.6-0.6c0.3-0.3,0.8-0.6,1.5-1c0.7-0.4,1.4-0.6,2.1-0.6c1,0,1.7,0.3,2.2,0.9c0.5,0.6,0.8,1.3,0.8,2.1
			c0,0.9-0.2,2-0.5,3.6l-1.5,6.4h-1.9l1.5-6.4c0.3-1.3,0.5-2.3,0.5-3c0-1.3-0.6-1.9-1.7-1.9c-0.5,0-1,0.2-1.6,0.6
			c-0.6,0.4-1.1,0.8-1.4,1.2l-0.5,0.6c-0.1,0.8-0.2,1.7-0.4,2.6l-1.5,6.4h-1.9l1.5-6.4C617.1,223.4,617.3,222.3,617.3,221.6z"/>
		<path class="st0" d="M643.2,213.3c1.4,0,2.5,0.3,3.2,0.8c0.7,0.5,1.1,1.4,1.1,2.7c0,1.2-0.3,2.3-0.9,3.1c-0.6,0.9-1.4,1.5-2.4,1.9
			c1.4,0.6,2.1,1.6,2.1,3c0,1.9-0.6,3.3-1.8,4.4s-2.8,1.7-5,1.7h-6.1l4.1-17.7H643.2z M641.3,222.8h-4l-1.5,6.5h4.1
			c1.3,0,2.4-0.4,3.2-1.2c0.8-0.8,1.1-1.8,1.1-3.2C644.3,223.5,643.3,222.8,641.3,222.8z M642.9,215.1h-3.8l-1.4,6.1h3.9
			c1.1,0,2.1-0.4,2.8-1.2c0.7-0.8,1.1-1.7,1.1-2.9c0-0.7-0.2-1.3-0.6-1.6S643.8,215.1,642.9,215.1z"/>
		<path class="st0" d="M655,218c2.9,0,4.4,1.4,4.4,4.3c0,1.6-0.3,3-0.8,4.4c-0.5,1.3-1.3,2.4-2.3,3.3c-1,0.8-2.2,1.3-3.5,1.3
			c-2.9,0-4.4-1.4-4.4-4.2c0-2.5,0.6-4.6,1.8-6.4C651.6,218.9,653.1,218,655,218z M652.9,229.6c1.4,0,2.5-0.7,3.3-2.2
			c0.8-1.4,1.3-3.2,1.3-5.1c0-0.8-0.2-1.5-0.6-1.9c-0.4-0.5-1-0.7-1.9-0.7c-1.3,0-2.4,0.7-3.3,2.2c-0.8,1.5-1.3,3.2-1.3,5.2
			C650.4,228.8,651.3,229.6,652.9,229.6z"/>
		<path class="st0" d="M660.6,231l4.2-18.3h1.9l-4.2,18.3H660.6z"/>
		<path class="st0" d="M669.8,231.3c-2.1,0-3.2-1.2-3.2-3.7c0-1.5,0.2-3,0.7-4.4c0.5-1.4,1.2-2.6,2.2-3.7c1-1,2.2-1.5,3.4-1.5
			c0.9,0,1.8,0.1,2.9,0.4l0.5,0.1l1.4-5.8h1.9l-4.3,18.3h-1.8l0.5-2.3c-0.2,0.2-0.4,0.5-0.8,0.8c-0.3,0.3-0.7,0.6-1,0.8
			C671.4,231,670.6,231.3,669.8,231.3z M676,220c-1.1-0.3-2.1-0.4-3.1-0.4c-0.9,0-1.7,0.4-2.4,1.3c-0.7,0.9-1.2,1.9-1.5,3.1
			c-0.3,1.2-0.5,2.3-0.5,3.4c0,1.4,0.6,2.1,1.8,2.1c0.5,0,1.1-0.3,1.8-0.8c0.7-0.5,1.2-1,1.7-1.5l0.6-0.7L676,220z"/>
	</g>
	<g>
		<path class="st0" d="M553.1,45.1l10-44.6h17.2l10,44.6h-9.1l-1.8-8.1H564l-1.8,8.1H553.1z M570.2,8l-4.5,21.2h12.2L573.3,8H570.2z
			"/>
		<path class="st0" d="M620.7,22.6v13.7c0.1,1.1,0.3,1.8,0.5,2.2c0.3,0.4,0.8,0.7,1.6,0.9l-0.3,6.6c-2.2,0-4-0.2-5.3-0.5
			c-1.3-0.3-2.7-0.9-4-1.8c-3.1,1.5-6.4,2.3-9.6,2.3c-6.8,0-10.2-3.6-10.2-10.8c0-3.5,0.9-6,2.8-7.5c1.9-1.5,4.8-2.3,8.7-2.6l7-0.5
			v-2c0-1.4-0.3-2.3-0.9-2.8c-0.6-0.5-1.6-0.8-3-0.8l-12.3,0.5l-0.3-6.1c4.7-1.3,9.1-1.9,13.4-1.9s7.3,0.9,9.1,2.6
			C619.8,15.9,620.7,18.7,620.7,22.6z M606,31.2c-2.5,0.2-3.7,1.5-3.7,3.9c0,2.4,1.1,3.6,3.2,3.6c1.7,0,3.5-0.3,5.4-0.8l1-0.3v-7
			L606,31.2z"/>
	</g>
</g>
</svg>
