<?xml version="1.0" encoding="utf-8"?>
<!-- Generator: Adobe Illustrator 18.0.0, SVG Export Plug-In . SVG Version: 6.00 Build 0)  -->
<!DOCTYPE svg PUBLIC "-//W3C//DTD SVG 1.1//EN" "http://www.w3.org/Graphics/SVG/1.1/DTD/svg11.dtd">
<svg version="1.1" id="Calque_1" xmlns="http://www.w3.org/2000/svg" xmlns:xlink="http://www.w3.org/1999/xlink" x="0px" y="0px"
	 viewBox="0 0 462 462" style="fill: #abb0bc;enable-background:new 0 0 462 462;" xml:space="preserve">
<g>
	<linearGradient id="SVGID_1_" gradientUnits="userSpaceOnUse" x1="231.8136" y1="-2.1631" x2="231.8136" y2="457.4379">
		<stop  offset="0" style="stop-color:#4DD0FF"/>
		<stop  offset="1" style="stop-color:#5D1BB0"/>
	</linearGradient>
	<path class="st0" d="M231.8,33.3c109,0,197.6,88.7,197.6,197.6s-88.7,197.6-197.6,197.6S34.2,339.9,34.2,231S122.8,33.3,231.8,33.3
		 M231.8,0.4C104.5,0.4,1.2,103.6,1.2,231s103.2,230.6,230.6,230.6S462.4,358.3,462.4,231S359.2,0.4,231.8,0.4L231.8,0.4z"/>
	<linearGradient id="SVGID_2_" gradientUnits="userSpaceOnUse" x1="231.8136" y1="261.7813" x2="231.8136" y2="5.4991">
		<stop  offset="0" style="stop-color:#FFFFFF;stop-opacity:0"/>
		<stop  offset="1" style="stop-color:#FFFFFF"/>
	</linearGradient>
	<path style="opacity:0.3;fill:url(#SVGID_2_);" d="M185.8,38.8c14.8-3.5,30.2-5.4,46-5.4s31.2,1.9,46,5.4
		C377.8,59,454.2,143.9,461.8,247.9c0.4-5.6,0.6-11.2,0.6-16.9c0-127.3-103.2-230.6-230.6-230.6S1.2,103.6,1.2,231
		c0,5.7,0.2,11.3,0.6,16.9C9.4,143.9,85.9,59,185.8,38.8z"/>
	<linearGradient id="SVGID_3_" gradientUnits="userSpaceOnUse" x1="231.8136" y1="448.4283" x2="231.8136" y2="276.7943">
		<stop  offset="0" style="stop-color:#000000;stop-opacity:0.5"/>
		<stop  offset="0.9955" style="stop-color:#000000;stop-opacity:0"/>
	</linearGradient>
	<path class="st2" d="M429.4,264.7c0-5.7-0.3-11.3-0.7-16.9c-8.6,101.1-93.6,180.8-196.9,180.8S43.5,349,34.9,247.9
		c-0.5,5.6-0.7,11.2-0.7,16.9c0,93.1,64.8,171.4,151.6,192.2c14.9,3,30.3,4.6,46,4.6s31.1-1.6,46-4.6
		C364.7,436.2,429.4,357.9,429.4,264.7z"/>
	<g>
		<linearGradient id="SVGID_4_" gradientUnits="userSpaceOnUse" x1="115.8716" y1="98.5954" x2="115.8716" y2="350.1494">
			<stop  offset="0" style="stop-color:#4DD0FF"/>
			<stop  offset="1" style="stop-color:#5D1BB0"/>
		</linearGradient>
		<path class="st3" d="M34.2,36.1c93.4,15.7,164.7,97.1,164.7,194.9S127.5,410.1,34.2,425.9V36.1 M1.2,0.4v461.1
			c127.3,0,229.3-103.2,229.3-230.6S128.6,0.4,1.2,0.4L1.2,0.4z"/>
		<path class="st51" d="M35,2.3v0.4c4,0.6,8.9,1.4,13.3,2.3C43.9,4,39,3.1,35,2.3z"/>
		<linearGradient id="SVGID_5_" gradientUnits="userSpaceOnUse" x1="197.6673" y1="303.4238" x2="41.8854" y2="445.2253">
			<stop  offset="0" style="stop-color:#4DD0FF"/>
			<stop  offset="1" style="stop-color:#5D1BB0"/>
		</linearGradient>
		<path class="st4" d="M46.9,423.1c-4.4,1.1-8.9,2-12.9,2.7v-0.4c-12,1.5-22.8,2.4-34,2.4v33.8c127.7,0,230.7-103.2,230.7-230.6
			c0-5.7,0.1-11.3-0.4-16.9C224,318.8,146.7,402.8,46.9,423.1z"/>
		<linearGradient id="SVGID_6_" gradientUnits="userSpaceOnUse" x1="225.6971" y1="219.0932" x2="139.3643" y2="339.6332">
			<stop  offset="0" style="stop-color:#FFFFFF;stop-opacity:0"/>
			<stop  offset="1" style="stop-color:#FFFFFF;stop-opacity:0.6"/>
		</linearGradient>
		<path class="st5" d="M34,425.9c171-30.5,185.4-230,185.4-230s8.1,14.6,10.5,33.8C204.7,379.7,75.5,422.5,34,425.9z"/>
		<linearGradient id="SVGID_7_" gradientUnits="userSpaceOnUse" x1="225.6432" y1="299.087" x2="35.0596" y2="447.3186">
			<stop  offset="0" style="stop-color:#000000;stop-opacity:0.4"/>
			<stop  offset="1" style="stop-color:#000000;stop-opacity:0"/>
		</linearGradient>
		<path class="st6" d="M34,425.9c0,0,152,4.6,196.2-178.9C210.8,436.8,34,459.9,34,459.9V425.9z"/>
		<linearGradient id="SVGID_8_" gradientUnits="userSpaceOnUse" x1="225.9105" y1="299.1727" x2="36.1749" y2="446.7448">
			<stop  offset="0" style="stop-color:#000000;stop-opacity:0.4"/>
			<stop  offset="1" style="stop-color:#000000;stop-opacity:0"/>
		</linearGradient>
		<path class="st7" d="M34.8,446.5c0,0,169.5-14.8,195.5-199.5C212.5,413.2,74.5,456,34.8,458.8V446.5z"/>
		<linearGradient id="SVGID_9_" gradientUnits="userSpaceOnUse" x1="13.8204" y1="445.1313" x2="20.8256" y2="38.8327">
			<stop  offset="0" style="stop-color:#4DD0FF"/>
			<stop  offset="1" style="stop-color:#5D1BB0"/>
		</linearGradient>
		<path class="st8" d="M34.5,391.8v-356c0,0-22.1-10.3-34.5-1.9V462c11.3,0,22.4-1.4,34.5-2.9L34.5,391.8z"/>
		<linearGradient id="SVGID_10_" gradientUnits="userSpaceOnUse" x1="17.1942" y1="37.4703" x2="17.1942" y2="91.8837">
			<stop  offset="0" style="stop-color:#000000;stop-opacity:0.2"/>
			<stop  offset="1" style="stop-color:#000000;stop-opacity:0"/>
		</linearGradient>
		<path class="st10" d="M34.4,36.9C20.4,34.4,0,34.5,0,34.5L0,96l34.4,0.6L34.4,36.9z"/>
		<linearGradient id="SVGID_11_" gradientUnits="userSpaceOnUse" x1="17.5018" y1="35.1369" x2="17.5018" y2="367.5687">
			<stop  offset="0" style="stop-color:#000000;stop-opacity:0.2"/>
			<stop  offset="1" style="stop-color:#000000;stop-opacity:0"/>
		</linearGradient>
		<path class="st11" d="M34.1,35.8c-32.1,86.6-44.4,292.7,0.9,424c-10.8,3.2-34,1.7-34,1.7L0,34.6C0,34.6,15.7,34.3,34.1,35.8z"/>
		<linearGradient id="SVGID_12_" gradientUnits="userSpaceOnUse" x1="17.3849" y1="35.1563" x2="17.3849" y2="367.6532">
			<stop  offset="0" style="stop-color:#000000;stop-opacity:0.2"/>
			<stop  offset="1" style="stop-color:#000000;stop-opacity:0"/>
		</linearGradient>
		<path class="st12" d="M34.4,69.2c-32.1,86.6-46.7,224.2-0.2,356.7c0.7,6.6,0.8,27.2,0.3,33.3C21.5,460.6,0,462,0,462V34.6
			c0,0,27.8,0.2,34.4,2.3V69.2z"/>
		<linearGradient id="SVGID_13_" gradientUnits="userSpaceOnUse" x1="17.1811" y1="35.1193" x2="17.1811" y2="367.6493">
			<stop  offset="0" style="stop-color:#FFFFFF;stop-opacity:0"/>
			<stop  offset="1" style="stop-color:#FFFFFF;stop-opacity:0.2"/>
		</linearGradient>
		<path class="st13" d="M33.3,36.7c-32.1,86.6-44.2,291,1,422.4C23.5,462.3,0,462,0,462V34.6C0,34.6,14.8,34.1,33.3,36.7z"/>
		<linearGradient id="SVGID_14_" gradientUnits="userSpaceOnUse" x1="23.3703" y1="0.9255" x2="260.5111" y2="215.0527">
			<stop  offset="0" style="stop-color:#4DD0FF"/>
			<stop  offset="1" style="stop-color:#5D1BB0"/>
		</linearGradient>
		<path class="st14" d="M230,247.8c0.4-5.3,0.8-14.9,0.8-20.2C230.8,103.8,127.7,0,0,0v34.4C122.6,34.4,221.8,127.9,230,247.8z"/>
		<linearGradient id="SVGID_15_" gradientUnits="userSpaceOnUse" x1="200.6243" y1="147.0564" x2="5.1904" y2="26.9573">
			<stop  offset="0" style="stop-color:#FFFFFF;stop-opacity:0"/>
			<stop  offset="1" style="stop-color:#FFFFFF;stop-opacity:0.1"/>
		</linearGradient>
		<path class="st15" d="M0,34.5c202.2,11.8,229.4,128.2,229.9,195.1C236.4,186.5,194.1,5.7,0,0V34.5z"/>
		<linearGradient id="SVGID_16_" gradientUnits="userSpaceOnUse" x1="199.9178" y1="147.3783" x2="-9.7088" y2="15.2698">
			<stop  offset="0" style="stop-color:#FFFFFF;stop-opacity:0"/>
			<stop  offset="1" style="stop-color:#FFFFFF;stop-opacity:0.2"/>
		</linearGradient>
		<path class="st16" d="M0,9c170.5,3.2,231,148.7,229.9,220.7C236.4,186.5,186.2,2.5,0,0V9z"/>
	</g>
	<g>

			<linearGradient id="SVGID_17_" gradientUnits="userSpaceOnUse" x1="-115.0279" y1="98.5954" x2="-115.0279" y2="350.1494" gradientTransform="matrix(-1 0 0 1 230.75 0)">
			<stop  offset="0" style="stop-color:#4DD0FF"/>
			<stop  offset="1" style="stop-color:#5D1BB0"/>
		</linearGradient>
		<path class="st17" d="M427.8,36.1v389.8c-93.4-15.7-164.7-97.1-164.7-194.9S334.5,51.8,427.8,36.1 M460.8,0.4
			c-127.3,0-230,103.9-230,231.3s102.6,229.9,230,229.9V0.4L460.8,0.4z"/>
		<path class="st51" d="M427,2.3v0.4c-4,0.6-8.9,1.4-13.3,2.3C418.1,4,423,3.1,427,2.3z"/>

			<linearGradient id="SVGID_18_" gradientUnits="userSpaceOnUse" x1="-33.4" y1="303.6246" x2="-189.1819" y2="445.4261" gradientTransform="matrix(-1 0 0 1 230.75 0)">
			<stop  offset="0" style="stop-color:#4DD0FF"/>
			<stop  offset="1" style="stop-color:#5D1BB0"/>
		</linearGradient>
		<path class="st18" d="M415.1,423.1c4.4,1.1,8.9,2,12.9,2.7v-0.4c12,1.5,22.8,2.4,34,2.4v33.8c-127.7,0-232.2-102.8-231.2-230.3
			c0-5.7,0.5-11.6,0.9-17.2C238,318.8,315.3,402.8,415.1,423.1z"/>

			<linearGradient id="SVGID_19_" gradientUnits="userSpaceOnUse" x1="-5.553" y1="219.0932" x2="-91.8857" y2="339.6332" gradientTransform="matrix(-1 0 0 1 230.75 0)">
			<stop  offset="0" style="stop-color:#FFFFFF;stop-opacity:0"/>
			<stop  offset="1" style="stop-color:#FFFFFF;stop-opacity:0.6"/>
		</linearGradient>
		<path class="st19" d="M428,425.9c-171-30.5-185.4-230-185.4-230s-8.1,14.6-10.5,33.8C257.3,379.7,386.5,422.5,428,425.9z"/>

			<linearGradient id="SVGID_20_" gradientUnits="userSpaceOnUse" x1="-4.9633" y1="298.8893" x2="-195.175" y2="446.8317" gradientTransform="matrix(-1 0 0 1 230.75 0)">
			<stop  offset="0" style="stop-color:#000000;stop-opacity:0.4"/>
			<stop  offset="1" style="stop-color:#000000;stop-opacity:0"/>
		</linearGradient>
		<path class="st20" d="M428,425.9c0,0-152.5,4.3-196.8-179.1C248.8,426.5,412,459.2,427.2,459L428,425.9z"/>

			<linearGradient id="SVGID_21_" gradientUnits="userSpaceOnUse" x1="-5.4266" y1="299.0607" x2="-195.1622" y2="446.6328" gradientTransform="matrix(-1 0 0 1 230.75 0)">
			<stop  offset="0" style="stop-color:#000000;stop-opacity:0.4"/>
			<stop  offset="1" style="stop-color:#000000;stop-opacity:0"/>
		</linearGradient>
		<path class="st21" d="M427.2,446.5c0,0-169.5-14.8-195.5-199.5C243.5,407.5,387,455.8,427.2,458.8V446.5z"/>

			<linearGradient id="SVGID_22_" gradientUnits="userSpaceOnUse" x1="-217.4296" y1="445.1313" x2="-210.4244" y2="38.8327" gradientTransform="matrix(-1 0 0 1 230.75 0)">
			<stop  offset="0" style="stop-color:#4DD0FF"/>
			<stop  offset="1" style="stop-color:#5D1BB0"/>
		</linearGradient>
		<path class="st22" d="M427.5,391.8v-356c0,0,22.1-10.3,34.5-1.9V462c-11.3,0-22.4-1.4-34.5-2.9L427.5,391.8z"/>

			<linearGradient id="SVGID_23_" gradientUnits="userSpaceOnUse" x1="-214.0558" y1="37.4703" x2="-214.0558" y2="91.8837" gradientTransform="matrix(-1 0 0 1 230.75 0)">
			<stop  offset="0" style="stop-color:#000000;stop-opacity:0.2"/>
			<stop  offset="1" style="stop-color:#000000;stop-opacity:0"/>
		</linearGradient>
		<path class="st23" d="M427.6,36.9c14-2.5,34.4-2.5,34.4-2.5V96l-34.4,0.6L427.6,36.9z"/>

			<linearGradient id="SVGID_24_" gradientUnits="userSpaceOnUse" x1="-213.7482" y1="35.1369" x2="-213.7482" y2="367.5687" gradientTransform="matrix(-1 0 0 1 230.75 0)">
			<stop  offset="0" style="stop-color:#000000;stop-opacity:0.2"/>
			<stop  offset="1" style="stop-color:#000000;stop-opacity:0"/>
		</linearGradient>
		<path class="st24" d="M427.9,35.8c32.1,86.6,44.4,292.7-0.9,424c10.8,3.2,34,1.7,34,1.7l1-426.9C462,34.6,446.3,34.3,427.9,35.8z"
			/>

			<linearGradient id="SVGID_25_" gradientUnits="userSpaceOnUse" x1="-213.8651" y1="35.1563" x2="-213.8651" y2="367.6532" gradientTransform="matrix(-1 0 0 1 230.75 0)">
			<stop  offset="0" style="stop-color:#000000;stop-opacity:0.2"/>
			<stop  offset="1" style="stop-color:#000000;stop-opacity:0"/>
		</linearGradient>
		<path class="st25" d="M427.6,69.2c32.1,86.6,46.7,224.2,0.2,356.7c-0.7,6.6-0.8,27.2-0.3,33.3c13,1.4,34.5,2.8,34.5,2.8V34.6
			c0,0-27.8,0.2-34.4,2.3V69.2z"/>

			<linearGradient id="SVGID_26_" gradientUnits="userSpaceOnUse" x1="-214.0689" y1="35.1193" x2="-214.0689" y2="367.6493" gradientTransform="matrix(-1 0 0 1 230.75 0)">
			<stop  offset="0" style="stop-color:#FFFFFF;stop-opacity:0"/>
			<stop  offset="1" style="stop-color:#FFFFFF;stop-opacity:0.2"/>
		</linearGradient>
		<path class="st26" d="M428.7,36.7c32.1,86.6,44.2,291-1,422.4c10.8,3.2,34.4,2.9,34.4,2.9V34.6C462,34.6,447.2,34.1,428.7,36.7z"
			/>

			<linearGradient id="SVGID_27_" gradientUnits="userSpaceOnUse" x1="-207.7406" y1="0.8083" x2="29.727" y2="215.2305" gradientTransform="matrix(-1 0 0 1 230.75 0)">
			<stop  offset="0" style="stop-color:#4DD0FF"/>
			<stop  offset="1" style="stop-color:#5D1BB0"/>
		</linearGradient>
		<path class="st27" d="M231.4,247.8c-0.4-5.3-0.6-14.2-0.6-19.6C230.8,104.4,334.3,0,462,0v34.4
			C339.4,34.4,239.6,127.9,231.4,247.8z"/>

			<linearGradient id="SVGID_28_" gradientUnits="userSpaceOnUse" x1="-30.6257" y1="147.0564" x2="-226.0596" y2="26.9573" gradientTransform="matrix(-1 0 0 1 230.75 0)">
			<stop  offset="0" style="stop-color:#FFFFFF;stop-opacity:0"/>
			<stop  offset="1" style="stop-color:#FFFFFF;stop-opacity:0.1"/>
		</linearGradient>
		<path class="st28" d="M462,34.5C259.8,46.3,232.6,162.7,232.1,229.6C225.6,186.5,267.9,5.7,462,0V34.5z"/>

			<linearGradient id="SVGID_29_" gradientUnits="userSpaceOnUse" x1="-31.3322" y1="147.3783" x2="-240.9588" y2="15.2698" gradientTransform="matrix(-1 0 0 1 230.75 0)">
			<stop  offset="0" style="stop-color:#FFFFFF;stop-opacity:0"/>
			<stop  offset="1" style="stop-color:#FFFFFF;stop-opacity:0.2"/>
		</linearGradient>
		<path class="st29" d="M462,9c-170.5,3.2-231,148.7-229.9,220.7C225.6,186.5,275.8,2.5,462,0V9z"/>
	</g>
	<path class="st51" d="M430,425.9c-3-0.8-8.9-1.7-13.3-2.7c4.4,0.9,10.3,1.7,13.3,2.3V425.9z"/>
	<path class="st51" d="M185.8,456.9c14.8,3.5,30.2,5.4,46,5.4s31.2-1.9,46-5.4c-14.9,3-30.3,4.6-46,4.6S200.7,460,185.8,456.9z"/>
	<path class="st51" d="M277.8,38.8c-14.8-3.5-30.2-5.4-46-5.4s-31.2,1.9-46,5.4c14.9-3,30.3-4.6,46-4.6S263,35.8,277.8,38.8z"/>
</g>
</svg>
