<?xml version="1.0" encoding="utf-8"?>
<!-- Generator: Adobe Illustrator 18.0.0, SVG Export Plug-In . SVG Version: 6.00 Build 0)  -->
<!DOCTYPE svg PUBLIC "-//W3C//DTD SVG 1.1//EN" "http://www.w3.org/Graphics/SVG/1.1/DTD/svg11.dtd">
<svg version="1.1" id="Calque_1" xmlns="http://www.w3.org/2000/svg" xmlns:xlink="http://www.w3.org/1999/xlink" x="0px" y="0px"
	 viewBox="0 0 462 462" style="enable-background:new 0 0 462 462;" xml:space="preserve">
<style type="text/css">
	.st0{fill:url(#SVGID_1_);}
	.st1{fill:url(#SVGID_2_);}
	.st2{fill:url(#SVGID_3_);}
	.st3{fill:url(#SVGID_4_);}
	.st4{fill:url(#SVGID_5_);}
	.st5{fill:url(#SVGID_6_);}
	.st6{fill:url(#SVGID_7_);}
	.st7{fill:url(#SVGID_8_);}
	.st8{fill:url(#SVGID_9_);}
	.st9{fill:#FF0000;}
	.st10{fill:url(#SVGID_10_);}
	.st11{fill:url(#SVGID_11_);}
	.st12{fill:url(#SVGID_12_);}
	.st13{fill:url(#SVGID_13_);}
	.st14{fill:url(#SVGID_14_);}
	.st15{fill:url(#SVGID_15_);}
	.st16{fill:url(#SVGID_16_);}
	.st17{fill:url(#SVGID_17_);}
	.st18{fill:url(#SVGID_18_);}
	.st19{fill:url(#SVGID_19_);}
	.st20{fill:url(#SVGID_20_);}
	.st21{fill:url(#SVGID_21_);}
	.st22{fill:url(#SVGID_22_);}
	.st23{fill:url(#SVGID_23_);}
	.st24{fill:url(#SVGID_24_);}
	.st25{fill:url(#SVGID_25_);}
	.st26{fill:url(#SVGID_26_);}
	.st27{fill:url(#SVGID_27_);}
	.st28{fill:url(#SVGID_28_);}
	.st29{fill:url(#SVGID_29_);}
	.st30{fill:url(#SVGID_30_);}
	.st31{fill:url(#SVGID_31_);}
	.st32{fill:url(#SVGID_32_);}
	.st33{fill:url(#SVGID_33_);}
	.st34{fill:url(#SVGID_34_);}
	.st35{fill:url(#SVGID_35_);}
	.st36{fill:url(#SVGID_36_);}
	.st37{fill:url(#SVGID_37_);}
	.st38{fill:url(#SVGID_38_);}
	.st39{fill:url(#SVGID_39_);}
	.st40{fill:url(#SVGID_40_);}
	.st41{fill:url(#SVGID_41_);}
	.st42{fill:url(#SVGID_42_);}
	.st43{fill:url(#SVGID_43_);}
	.st44{fill:url(#SVGID_44_);}
	.st45{fill:url(#SVGID_45_);}
	.st46{fill:url(#SVGID_46_);}
	.st47{fill:url(#SVGID_47_);}
	.st48{opacity:0.3;fill:url(#SVGID_48_);}
	.st49{fill:url(#SVGID_49_);}
	.st50{fill:url(#SVGID_50_);}
	.st51{fill:none;}
	.st52{fill:url(#SVGID_51_);}
	.st53{fill:url(#SVGID_52_);}
	.st54{fill:url(#SVGID_53_);}
	.st55{fill:url(#SVGID_54_);}
	.st56{fill:url(#SVGID_55_);}
	.st57{fill:url(#SVGID_56_);}
	.st58{fill:url(#SVGID_57_);}
	.st59{fill:url(#SVGID_58_);}
	.st60{fill:url(#SVGID_59_);}
	.st61{fill:url(#SVGID_60_);}
	.st62{fill:url(#SVGID_61_);}
	.st63{fill:url(#SVGID_62_);}
	.st64{fill:url(#SVGID_63_);}
	.st65{fill:url(#SVGID_64_);}
	.st66{fill:url(#SVGID_65_);}
	.st67{fill:url(#SVGID_66_);}
	.st68{fill:url(#SVGID_67_);}
	.st69{fill:url(#SVGID_68_);}
	.st70{fill:url(#SVGID_69_);}
	.st71{fill:url(#SVGID_70_);}
	.st72{fill:url(#SVGID_71_);}
	.st73{fill:url(#SVGID_72_);}
	.st74{fill:url(#SVGID_73_);}
	.st75{fill:url(#SVGID_74_);}
	.st76{fill:url(#SVGID_75_);}
	.st77{fill:url(#SVGID_76_);}
	.st78{fill:url(#SVGID_77_);}
	.st79{fill:url(#SVGID_78_);}
	.st80{fill:url(#SVGID_79_);}
	.st81{fill:url(#SVGID_80_);}
	.st82{fill:url(#SVGID_81_);}
	.st83{opacity:0.15;fill:url(#SVGID_82_);}
	.st84{opacity:0.15;fill:url(#SVGID_83_);}
	.st85{fill:url(#SVGID_84_);}
	.st86{opacity:0.2;fill:#FFFFFF;}
	.st87{fill:url(#SVGID_85_);}
	.st88{fill:url(#SVGID_86_);}
	.st89{fill:url(#SVGID_87_);}
	.st90{fill:url(#SVGID_88_);}
	.st91{fill:url(#SVGID_89_);}
	.st92{fill:url(#SVGID_90_);}
	.st93{fill:url(#SVGID_91_);}
	.st94{fill:url(#SVGID_92_);}
	.st95{fill:url(#SVGID_93_);}
	.st96{opacity:0.15;fill:url(#SVGID_94_);}
	.st97{opacity:0.15;fill:url(#SVGID_95_);}
	.st98{fill:url(#SVGID_96_);}
	.st99{fill:url(#SVGID_97_);}
	.st100{fill:url(#SVGID_98_);}
	.st101{fill:url(#SVGID_99_);}
	.st102{fill:url(#SVGID_100_);}
	.st103{opacity:0.2;fill:url(#SVGID_101_);}
	.st104{opacity:0.2;fill:url(#SVGID_102_);}
	.st105{fill:url(#SVGID_103_);}
	.st106{opacity:0.4;fill:url(#SVGID_104_);}
	.st107{opacity:0.4;fill:url(#SVGID_105_);}
	.st108{fill:url(#SVGID_106_);}
	.st109{opacity:0.2;fill:url(#SVGID_107_);}
	.st110{opacity:0.2;fill:url(#SVGID_108_);}
	.st111{opacity:0.2;fill:url(#SVGID_109_);}
	.st112{opacity:0.2;fill:url(#SVGID_110_);}
	.st113{fill:url(#SVGID_111_);}
	.st114{fill:url(#SVGID_112_);}
	.st115{fill:url(#SVGID_113_);}
	.st116{opacity:0.2;fill:url(#SVGID_114_);}
	.st117{opacity:0.2;fill:url(#SVGID_115_);}
	.st118{opacity:0.2;fill:url(#SVGID_116_);}
	.st119{opacity:0.2;fill:url(#SVGID_117_);}
	.st120{fill:url(#SVGID_118_);}
	.st121{opacity:0.4;fill:url(#SVGID_119_);}
	.st122{opacity:0.4;fill:url(#SVGID_120_);}
	.st123{fill:url(#SVGID_121_);}
	.st124{opacity:0.2;fill:url(#SVGID_122_);}
	.st125{opacity:0.2;fill:url(#SVGID_123_);}
	.st126{fill:url(#SVGID_124_);}
	.st127{opacity:0.2;fill:url(#SVGID_125_);}
	.st128{opacity:0.2;fill:url(#SVGID_126_);}
	.st129{opacity:0.2;fill:url(#SVGID_127_);}
	.st130{opacity:0.2;fill:url(#SVGID_128_);}
	.st131{opacity:0.2;fill:url(#SVGID_129_);}
	.st132{opacity:0.2;fill:url(#SVGID_130_);}
	.st133{fill:url(#SVGID_131_);}
	.st134{fill:url(#SVGID_132_);}
	.st135{opacity:0.2;fill:url(#SVGID_133_);}
	.st136{opacity:0.2;fill:url(#SVGID_134_);}
	.st137{fill:url(#SVGID_135_);}
	.st138{opacity:0.4;fill:url(#SVGID_136_);}
	.st139{opacity:0.4;fill:url(#SVGID_137_);}
	.st140{fill:url(#SVGID_138_);}
	.st141{fill:url(#SVGID_139_);}
	.st142{opacity:0.2;fill:url(#SVGID_140_);}
	.st143{fill:url(#SVGID_141_);}
	.st144{opacity:0.2;fill:url(#SVGID_142_);}
	.st145{opacity:0.2;fill:url(#SVGID_143_);}
	.st146{opacity:0.2;fill:url(#SVGID_144_);}
	.st147{fill:url(#SVGID_145_);}
	.st148{opacity:0.2;fill:url(#SVGID_146_);}
	.st149{opacity:0.2;fill:url(#SVGID_147_);}
	.st150{fill:url(#SVGID_148_);}
	.st151{opacity:0.2;fill:url(#SVGID_149_);}
	.st152{opacity:0.2;fill:url(#SVGID_150_);}
	.st153{opacity:0.2;fill:url(#SVGID_151_);}
	.st154{opacity:0.2;fill:url(#SVGID_152_);}
	.st155{opacity:0.2;fill:url(#SVGID_153_);}
	.st156{opacity:0.2;fill:url(#SVGID_154_);}
	.st157{opacity:0.2;fill:url(#SVGID_155_);}
	.st158{opacity:0.2;fill:url(#SVGID_156_);}
	.st159{opacity:0.2;fill:url(#SVGID_157_);}
	.st160{opacity:0.2;fill:url(#SVGID_158_);}
	.st161{fill:url(#SVGID_159_);}
	.st162{fill:url(#SVGID_160_);}
	.st163{fill:url(#SVGID_161_);}
	.st164{fill:url(#SVGID_162_);}
	.st165{fill:url(#SVGID_163_);}
	.st166{fill:url(#SVGID_164_);}
	.st167{fill:url(#SVGID_165_);}
	.st168{opacity:0.5;fill:url(#SVGID_166_);}
	.st169{fill:url(#SVGID_167_);}
	.st170{opacity:0.6;fill:url(#SVGID_168_);}
	.st171{fill:url(#SVGID_169_);}
	.st172{opacity:0.4;fill:url(#SVGID_170_);}
	.st173{fill:url(#SVGID_171_);}
	.st174{opacity:0.7;fill:url(#SVGID_172_);}
	.st175{opacity:0.3;fill:url(#SVGID_173_);}
	.st176{fill:url(#SVGID_174_);}
	.st177{opacity:0.7;fill:url(#SVGID_175_);}
	.st178{fill:url(#SVGID_176_);}
	.st179{opacity:0.4;fill:url(#SVGID_177_);}
	.st180{opacity:0.7;fill:url(#SVGID_178_);}
	.st181{opacity:0.8;fill:url(#SVGID_179_);}
	.st182{fill:url(#SVGID_180_);}
	.st183{opacity:0.8;fill:url(#SVGID_181_);}
	.st184{opacity:0.3;fill:url(#SVGID_182_);}
	.st185{opacity:0.3;fill:url(#SVGID_183_);}
	.st186{opacity:0.2;fill:url(#SVGID_184_);}
	.st187{opacity:0.2;fill:url(#SVGID_185_);}
	.st188{opacity:0.2;fill:url(#SVGID_186_);}
	.st189{opacity:0.8;fill:url(#SVGID_187_);}
	.st190{opacity:0.4;fill:url(#SVGID_188_);}
	.st191{opacity:0.6;fill:url(#SVGID_189_);}
	.st192{opacity:0.4;fill:url(#SVGID_190_);}
	.st193{opacity:0.4;fill:url(#SVGID_191_);}
	.st194{opacity:0.2;fill:url(#SVGID_192_);}
	.st195{opacity:0.19;fill:url(#SVGID_193_);}
	.st196{opacity:0.8;fill:url(#SVGID_194_);}
</style>
<g>
	<g>
		<linearGradient id="SVGID_1_" gradientUnits="userSpaceOnUse" x1="454.9643" y1="15.1632" x2="212.4948" y2="16.4882">
			<stop  offset="0" style="stop-color:#4DD0FF"/>
			<stop  offset="1" style="stop-color:#5D1BB0"/>
		</linearGradient>
		<path class="st0" d="M213.1,0H462l0,0c-10.3,20.4-30.4,31.9-53.3,31.9l-179.9-0.1L213.1,0z"/>
		<linearGradient id="SVGID_2_" gradientUnits="userSpaceOnUse" x1="330.2649" y1="228.9024" x2="445.8348" y2="-6.8868">
			<stop  offset="0" style="stop-color:#4DD0FF"/>
			<stop  offset="1" style="stop-color:#5D1BB0"/>
		</linearGradient>
		<path class="st1" d="M462,0h-37.9c0,0-67,136.1-86.6,174.2c-19,37-1.7,71.7-1.7,71.7L462,0z"/>
		<linearGradient id="SVGID_3_" gradientUnits="userSpaceOnUse" x1="396.9952" y1="88.2764" x2="414.1701" y2="55.7345">
			<stop  offset="0" style="stop-color:#000000;stop-opacity:0.3"/>
			<stop  offset="1" style="stop-color:#000000"/>
		</linearGradient>
		<path style="opacity:0.2;fill:url(#SVGID_3_);" d="M394.3,60.1l-13.8,29.2c21.9,0.3,40.7-8.9,50.5-28.5L462,0h-37.9L394.3,60.1z"
			/>
		<linearGradient id="SVGID_4_" gradientUnits="userSpaceOnUse" x1="410.75" y1="61.7758" x2="423.1949" y2="38.196">
			<stop  offset="0" style="stop-color:#000000;stop-opacity:0.3"/>
			<stop  offset="1" style="stop-color:#000000"/>
		</linearGradient>
		<path style="opacity:0.2;fill:url(#SVGID_4_);" d="M408.9,31.4l-13.8,29.2c21.9,0.3,40.7-8.9,50.5-28.5L462,0h-37.9L408.9,31.4z"
			/>
		<linearGradient id="SVGID_5_" gradientUnits="userSpaceOnUse" x1="223.2613" y1="-4.8622" x2="350.7279" y2="232.146">
			<stop  offset="0" style="stop-color:#4DD0FF"/>
			<stop  offset="1" style="stop-color:#5D1BB0"/>
		</linearGradient>
		<path class="st4" d="M335.9,246.1l19.8-36.3L265.3,31.8C255.5,12.5,234.3,0,212.7,0l0,0L335.9,246.1z"/>
		<linearGradient id="SVGID_6_" gradientUnits="userSpaceOnUse" x1="298.739" y1="143.0577" x2="310.5602" y2="162.7596">
			<stop  offset="0" style="stop-color:#000000;stop-opacity:0.2"/>
			<stop  offset="1" style="stop-color:#000000"/>
		</linearGradient>
		<path style="opacity:0.4;fill:url(#SVGID_6_);" d="M336.7,247.6l-29.9-60.1c-11.7-18.6-13.5-39.4-1.8-58l5.3-8.6l45.4,88.6
			L336.7,247.6z"/>
		<linearGradient id="SVGID_7_" gradientUnits="userSpaceOnUse" x1="315.2625" y1="173.3548" x2="323.3512" y2="186.8359">
			<stop  offset="0" style="stop-color:#000000;stop-opacity:0.2"/>
			<stop  offset="1" style="stop-color:#000000"/>
		</linearGradient>
		<path style="opacity:0.4;fill:url(#SVGID_7_);" d="M336.7,247.6l-12.4-25.5c-11.7-18.6-13.5-39.4-1.8-58l5.3-8.6l28,54.1
			L336.7,247.6z"/>
		<linearGradient id="SVGID_8_" gradientUnits="userSpaceOnUse" x1="461.5046" y1="15.9498" x2="215.7341" y2="15.9498">
			<stop  offset="0" style="stop-color:#4DD0FF"/>
			<stop  offset="1" style="stop-color:#5D1BB0"/>
		</linearGradient>
		<path class="st7" d="M324.2,0H462l0,0c-10.3,20.4-30.4,31.9-53.3,31.9l-68.5-0.1L324.2,0z"/>
		<linearGradient id="SVGID_9_" gradientUnits="userSpaceOnUse" x1="310.9677" y1="15.7099" x2="286.1634" y2="15.7099">
			<stop  offset="0" style="stop-color:#000000;stop-opacity:0.2"/>
			<stop  offset="1" style="stop-color:#000000"/>
		</linearGradient>
		<path style="opacity:0.2;fill:url(#SVGID_9_);" d="M265,31.4h57.2c-9.4-20-26.1-31.2-48.1-31.4h-61.4l15.8,31.4H265z"/>
		<linearGradient id="SVGID_10_" gradientUnits="userSpaceOnUse" x1="285.8125" y1="15.7099" x2="267.3556" y2="15.7099">
			<stop  offset="0" style="stop-color:#000000;stop-opacity:0.2"/>
			<stop  offset="1" style="stop-color:#000000"/>
		</linearGradient>
		<path style="opacity:0.2;fill:url(#SVGID_10_);" d="M265,31.4h29.2c-9.4-20-26.1-31.2-48-31.4h-33.4l15.8,31.4H265z"/>
		<linearGradient id="SVGID_11_" gradientUnits="userSpaceOnUse" x1="360.5462" y1="16.2104" x2="462" y2="16.2104">
			<stop  offset="0" style="stop-color:#FFFFFF;stop-opacity:0.2"/>
			<stop  offset="1" style="stop-color:#FFFFFF"/>
		</linearGradient>
		<path style="opacity:0.2;fill:url(#SVGID_11_);" d="M360.5,32.4C381.9,10.4,410.5,0,440.8,0H462l0,0
			c-10.1,20.5-30.6,32.4-53.5,32.4H360.5z"/>
		<linearGradient id="SVGID_12_" gradientUnits="userSpaceOnUse" x1="323.6963" y1="16.2104" x2="462" y2="16.2104">
			<stop  offset="0" style="stop-color:#FFFFFF;stop-opacity:0.2"/>
			<stop  offset="1" style="stop-color:#FFFFFF"/>
		</linearGradient>
		<path style="opacity:0.2;fill:url(#SVGID_12_);" d="M323.7,32.4C345.1,10.4,373.1,0,403.3,0H462l0,0
			c-10.1,20.5-30.6,32.4-53.5,32.4H323.7z"/>
	</g>
	<g>
		<linearGradient id="SVGID_13_" gradientUnits="userSpaceOnUse" x1="242.6954" y1="15.1583" x2="-0.6289" y2="16.4879">
			<stop  offset="0" style="stop-color:#4DD0FF"/>
			<stop  offset="1" style="stop-color:#5D1BB0"/>
		</linearGradient>
		<path class="st13" d="M0,0h249.8h-0.7c-10.3,20.4-30.7,31.9-53.6,31.9L15.9,31.8L0,0z"/>
		<linearGradient id="SVGID_14_" gradientUnits="userSpaceOnUse" x1="117.173" y1="228.9529" x2="232.7948" y2="-6.942">
			<stop  offset="0" style="stop-color:#4DD0FF"/>
			<stop  offset="1" style="stop-color:#5D1BB0"/>
		</linearGradient>
		<path class="st14" d="M249.1,0h-38.2c0,0-67,136.1-86.5,174.2c-19,37-1.7,71.7-1.7,71.7L249.1,0z"/>
		<linearGradient id="SVGID_15_" gradientUnits="userSpaceOnUse" x1="226.0573" y1="-4.5345" x2="351.647" y2="230.781">
			<stop  offset="0" style="stop-color:#4DD0FF"/>
			<stop  offset="1" style="stop-color:#5D1BB0"/>
		</linearGradient>
		<path class="st15" d="M284.8,142.9l18.5-36.3l-38-74.8C255.5,12.5,234.6,0,212.9,0l0,0L284.8,142.9z"/>
		<linearGradient id="SVGID_16_" gradientUnits="userSpaceOnUse" x1="271.8318" y1="82.8534" x2="233.0435" y2="2.6472">
			<stop  offset="0" style="stop-color:#FFFFFF;stop-opacity:0.2"/>
			<stop  offset="1" style="stop-color:#FFFFFF"/>
		</linearGradient>
		<path style="opacity:0.2;fill:url(#SVGID_16_);" d="M284.1,68.8L284.1,68.8c-22.8-0.3-43.6-13.3-53.8-33.6L212.7,0h0.2
			c22.7,0,42.8,12.6,52.9,32.8L284.1,68.8z"/>
		<linearGradient id="SVGID_17_" gradientUnits="userSpaceOnUse" x1="286.8784" y1="113.5684" x2="234.8315" y2="5.946">
			<stop  offset="0" style="stop-color:#FFFFFF;stop-opacity:0.2"/>
			<stop  offset="1" style="stop-color:#FFFFFF"/>
		</linearGradient>
		<path style="opacity:0.2;fill:url(#SVGID_17_);" d="M298.4,97.1L298.4,97.1c-22.8-0.3-43.6-13.3-53.8-33.6L212.4,0l0,0
			c22.7,0,43.2,12.6,53.4,32.8L298.4,97.1z"/>
		<linearGradient id="SVGID_18_" gradientUnits="userSpaceOnUse" x1="183.8607" y1="88.2954" x2="201.0705" y2="55.6874">
			<stop  offset="0" style="stop-color:#000000;stop-opacity:0.3"/>
			<stop  offset="1" style="stop-color:#000000"/>
		</linearGradient>
		<path style="opacity:0.2;fill:url(#SVGID_18_);" d="M181,60.1l-13.8,29.2c21.9,0.3,40.7-8.9,50.5-28.5L249.3,0h-38.2L181,60.1z"/>
		<linearGradient id="SVGID_19_" gradientUnits="userSpaceOnUse" x1="197.6082" y1="61.8086" x2="210.0567" y2="38.2218">
			<stop  offset="0" style="stop-color:#000000;stop-opacity:0.3"/>
			<stop  offset="1" style="stop-color:#000000"/>
		</linearGradient>
		<path style="opacity:0.2;fill:url(#SVGID_19_);" d="M195.7,31.4l-13.8,29.2c21.9,0.3,40.7-8.9,50.5-28.5L248.8,0h-37.8L195.7,31.4
			z"/>
		<linearGradient id="SVGID_20_" gradientUnits="userSpaceOnUse" x1="10.1749" y1="-4.6369" x2="137.5225" y2="232.1502">
			<stop  offset="0" style="stop-color:#4DD0FF"/>
			<stop  offset="1" style="stop-color:#5D1BB0"/>
		</linearGradient>
		<path class="st20" d="M122.7,246.1l19-36.5L52.1,31.8C42.3,12.5,21.7,0,0,0l0,0L122.7,246.1z"/>
		<linearGradient id="SVGID_21_" gradientUnits="userSpaceOnUse" x1="85.5312" y1="143.0577" x2="97.3523" y2="162.7596">
			<stop  offset="0" style="stop-color:#000000;stop-opacity:0.2"/>
			<stop  offset="1" style="stop-color:#000000"/>
		</linearGradient>
		<path style="opacity:0.4;fill:url(#SVGID_21_);" d="M123.5,247.6l-29.9-60.1c-11.7-18.6-13.5-39.4-1.8-58l5.3-8.6l45.4,88.6
			L123.5,247.6z"/>
		<linearGradient id="SVGID_22_" gradientUnits="userSpaceOnUse" x1="102.0546" y1="173.3548" x2="110.1433" y2="186.8359">
			<stop  offset="0" style="stop-color:#000000;stop-opacity:0.2"/>
			<stop  offset="1" style="stop-color:#000000"/>
		</linearGradient>
		<path style="opacity:0.4;fill:url(#SVGID_22_);" d="M123.5,247.6L111,222.1c-11.7-18.6-13.5-39.4-1.8-58l5.3-8.6l28,54.1
			L123.5,247.6z"/>
		<linearGradient id="SVGID_23_" gradientUnits="userSpaceOnUse" x1="248.5763" y1="15.9498" x2="1.8716" y2="15.9498">
			<stop  offset="0" style="stop-color:#4DD0FF"/>
			<stop  offset="1" style="stop-color:#5D1BB0"/>
		</linearGradient>
		<path class="st23" d="M110.7,0h138.3l0,0c-10.3,20.4-30.7,31.9-53.6,31.9L127,31.8L110.7,0z"/>
		<linearGradient id="SVGID_24_" gradientUnits="userSpaceOnUse" x1="97.8153" y1="15.7099" x2="73.1338" y2="15.7099">
			<stop  offset="0" style="stop-color:#000000;stop-opacity:0.2"/>
			<stop  offset="1" style="stop-color:#000000"/>
		</linearGradient>
		<path style="opacity:0.2;fill:url(#SVGID_24_);" d="M51.8,31.4H109C99.6,11.4,83.5,0.2,61.6,0H0l15.6,31.4L51.8,31.4z"/>
		<linearGradient id="SVGID_25_" gradientUnits="userSpaceOnUse" x1="72.6601" y1="15.7099" x2="54.3259" y2="15.7099">
			<stop  offset="0" style="stop-color:#000000;stop-opacity:0.2"/>
			<stop  offset="1" style="stop-color:#000000"/>
		</linearGradient>
		<path style="opacity:0.2;fill:url(#SVGID_25_);" d="M51.8,31.4H81C71.6,11.4,54.9,0.2,32.9,0H0l15.6,31.4L51.8,31.4z"/>
		<linearGradient id="SVGID_26_" gradientUnits="userSpaceOnUse" x1="12.9183" y1="-4.4058" x2="138.3917" y2="230.6919">
			<stop  offset="0" style="stop-color:#4DD0FF"/>
			<stop  offset="1" style="stop-color:#5D1BB0"/>
		</linearGradient>
		<path class="st26" d="M71.6,142.9l18.2-35.8L52.1,31.8C42.3,12.5,21.7,0,0,0l0,0L71.6,142.9z"/>
		<linearGradient id="SVGID_27_" gradientUnits="userSpaceOnUse" x1="147.3383" y1="16.2104" x2="248.846" y2="16.2104">
			<stop  offset="0" style="stop-color:#FFFFFF;stop-opacity:0.2"/>
			<stop  offset="1" style="stop-color:#FFFFFF"/>
		</linearGradient>
		<path style="opacity:0.2;fill:url(#SVGID_27_);" d="M147.3,32.4C168.7,10.4,196.9,0,227.2,0h21.6h-0.2
			c-10.1,20.5-30.5,32.4-53.4,32.4H147.3z"/>
		<linearGradient id="SVGID_28_" gradientUnits="userSpaceOnUse" x1="110.4884" y1="16.2104" x2="249.0736" y2="16.2104">
			<stop  offset="0" style="stop-color:#FFFFFF;stop-opacity:0.2"/>
			<stop  offset="1" style="stop-color:#FFFFFF"/>
		</linearGradient>
		<path style="opacity:0.2;fill:url(#SVGID_28_);" d="M110.5,32.4C131.8,10.4,160.3,0,190.6,0h58.5h-0.5
			c-10.1,20.5-30.5,32.4-53.4,32.4H110.5z"/>
		<linearGradient id="SVGID_29_" gradientUnits="userSpaceOnUse" x1="124.5368" y1="53.4644" x2="124.5368" y2="87.7347">
			<stop  offset="0" style="stop-color:#4DD0FF;stop-opacity:0.5"/>
			<stop  offset="1" style="stop-color:#5D1BB0"/>
		</linearGradient>
		<path style="opacity:0.2;fill:url(#SVGID_29_);" d="M0,0h249.1c-40.5,80.8-71,106.5-130.5,73.2L0,0z"/>
		<linearGradient id="SVGID_30_" gradientUnits="userSpaceOnUse" x1="124.423" y1="39.0314" x2="124.423" y2="60.1669">
			<stop  offset="0" style="stop-color:#4DD0FF;stop-opacity:0.5"/>
			<stop  offset="1" style="stop-color:#5D1BB0"/>
		</linearGradient>
		<path style="opacity:0.2;fill:url(#SVGID_30_);" d="M0,0h248.6h0.2C200.3,94.8,98,59.4,52.9,31.4L0,0z"/>
		<linearGradient id="SVGID_31_" gradientUnits="userSpaceOnUse" x1="58.8354" y1="82.7305" x2="20.1455" y2="2.7277">
			<stop  offset="0" style="stop-color:#FFFFFF;stop-opacity:0.2"/>
			<stop  offset="1" style="stop-color:#FFFFFF"/>
		</linearGradient>
		<path style="opacity:0.2;fill:url(#SVGID_31_);" d="M70.9,68.8L70.9,68.8c-22.8-0.3-43.2-13.3-53.4-33.7L0,0l0,0
			c22.7,0,42.5,12.6,52.6,32.8L70.9,68.8z"/>
		<linearGradient id="SVGID_32_" gradientUnits="userSpaceOnUse" x1="73.9709" y1="113.394" x2="22.0636" y2="6.0603">
			<stop  offset="0" style="stop-color:#FFFFFF;stop-opacity:0.2"/>
			<stop  offset="1" style="stop-color:#FFFFFF"/>
		</linearGradient>
		<path style="opacity:0.2;fill:url(#SVGID_32_);" d="M85.2,97.1L85.2,97.1c-22.8-0.3-43.6-13.3-53.8-33.6L0,0l0,0
			c22.7,0,42.5,12.6,52.6,32.8L85.2,97.1z"/>
	</g>
	<g>
		<linearGradient id="SVGID_33_" gradientUnits="userSpaceOnUse" x1="347.2115" y1="228.6829" x2="105.4107" y2="230.0042">
			<stop  offset="0" style="stop-color:#4DD0FF"/>
			<stop  offset="1" style="stop-color:#5D1BB0"/>
		</linearGradient>
		<path class="st33" d="M106,212.9l247.7-0.3h0.5c-1.5,0-0.4,0.9-1.1,2.2c-10.5,19.2-28.5,31.2-50.5,31.2l-179.9-0.1L106,212.9z"/>
		<linearGradient id="SVGID_34_" gradientUnits="userSpaceOnUse" x1="223.2124" y1="442.6076" x2="339.093" y2="206.1846">
			<stop  offset="0" style="stop-color:#4DD0FF"/>
			<stop  offset="1" style="stop-color:#5D1BB0"/>
		</linearGradient>
		<path class="st34" d="M354.3,212.6l-35.9,0.3c0,0-67.4,137.5-87,175.6c-19,37-1.7,71.7-1.7,71.7L354.3,212.6z"/>
		<linearGradient id="SVGID_35_" gradientUnits="userSpaceOnUse" x1="290.3404" y1="302.169" x2="307.5599" y2="269.5426">
			<stop  offset="0" style="stop-color:#000000;stop-opacity:0.3"/>
			<stop  offset="1" style="stop-color:#000000"/>
		</linearGradient>
		<path style="opacity:0.2;fill:url(#SVGID_35_);" d="M288.2,274.3l-13.8,29.2c21.9,0.3,39-8.9,48.8-28.5l30.9-62.1l-35.2-0.1
			L288.2,274.3z"/>
		<linearGradient id="SVGID_36_" gradientUnits="userSpaceOnUse" x1="303.7159" y1="275.7543" x2="316.232" y2="252.0397">
			<stop  offset="0" style="stop-color:#000000;stop-opacity:0.3"/>
			<stop  offset="1" style="stop-color:#000000"/>
		</linearGradient>
		<path style="opacity:0.2;fill:url(#SVGID_36_);" d="M302.1,246l-14,28.6c21.9,0.3,39.2-8.7,49.1-28.3l16.9-33.3l-35.2-0.1
			L302.1,246z"/>
		<linearGradient id="SVGID_37_" gradientUnits="userSpaceOnUse" x1="116.4867" y1="208.0985" x2="244.6116" y2="446.3308">
			<stop  offset="0" style="stop-color:#4DD0FF"/>
			<stop  offset="1" style="stop-color:#5D1BB0"/>
		</linearGradient>
		<path class="st37" d="M229.8,460.3l19-36.5L159.2,246c-9.8-19.3-31.5-33.1-53.2-33.1h0L229.8,460.3z"/>
		<linearGradient id="SVGID_38_" gradientUnits="userSpaceOnUse" x1="192.6356" y1="357.2666" x2="204.4567" y2="376.9684">
			<stop  offset="0" style="stop-color:#000000;stop-opacity:0.2"/>
			<stop  offset="1" style="stop-color:#000000"/>
		</linearGradient>
		<path style="opacity:0.4;fill:url(#SVGID_38_);" d="M230.6,461.8l-29.9-60.1c-11.7-18.6-13.5-39.4-1.8-58l5.3-8.6l45.3,88.4
			L230.6,461.8z"/>
		<linearGradient id="SVGID_39_" gradientUnits="userSpaceOnUse" x1="209.1591" y1="387.5637" x2="217.2477" y2="401.0447">
			<stop  offset="0" style="stop-color:#000000;stop-opacity:0.2"/>
			<stop  offset="1" style="stop-color:#000000"/>
		</linearGradient>
		<path style="opacity:0.4;fill:url(#SVGID_39_);" d="M230.6,461.8l-12.4-25.5c-11.7-18.6-13.5-39.4-1.8-58l5.3-8.6l27.9,53.9
			L230.6,461.8z"/>
		<linearGradient id="SVGID_40_" gradientUnits="userSpaceOnUse" x1="221.0252" y1="445.3918" x2="337.2341" y2="210.3177">
			<stop  offset="0" style="stop-color:#4DD0FF"/>
			<stop  offset="1" style="stop-color:#5D1BB0"/>
		</linearGradient>
		<path class="st40" d="M303.7,313.7l-34.6-0.7c0,0-18.1,37.4-37.6,75.5c-19,37-0.9,73.6-0.9,73.6L303.7,313.7z"/>
		<linearGradient id="SVGID_41_" gradientUnits="userSpaceOnUse" x1="353.731" y1="229.2898" x2="109.8788" y2="229.2898">
			<stop  offset="0" style="stop-color:#4DD0FF"/>
			<stop  offset="1" style="stop-color:#5D1BB0"/>
		</linearGradient>
		<path class="st41" d="M217.5,212.9l136.2-0.3h0.5c-10.3,21-28.8,33.4-51.7,33.4l-68.5-0.1L217.5,212.9z"/>
		<linearGradient id="SVGID_42_" gradientUnits="userSpaceOnUse" x1="204.8185" y1="229.2465" x2="179.9131" y2="229.2465">
			<stop  offset="0" style="stop-color:#000000;stop-opacity:0.2"/>
			<stop  offset="1" style="stop-color:#000000"/>
		</linearGradient>
		<path style="opacity:0.2;fill:url(#SVGID_42_);" d="M158.9,245.6h57.2c-9.4-20-25.9-32.6-47.9-32.8l-62.1,0l16.3,32.8H158.9z"/>
		<linearGradient id="SVGID_43_" gradientUnits="userSpaceOnUse" x1="114.3402" y1="231.3774" x2="230.6758" y2="-3.9528">
			<stop  offset="0" style="stop-color:#4DD0FF"/>
			<stop  offset="1" style="stop-color:#5D1BB0"/>
		</linearGradient>
		<path class="st43" d="M197.6,99.8L162,98.8c0,0-18.1,37.4-37.6,75.5c-19,37-0.9,73.6-0.9,73.6L197.6,99.8z"/>
		<linearGradient id="SVGID_44_" gradientUnits="userSpaceOnUse" x1="161.1004" y1="144.9032" x2="115.0555" y2="222.312">
			<stop  offset="0" style="stop-color:#FFFFFF;stop-opacity:0.2"/>
			<stop  offset="1" style="stop-color:#FFFFFF"/>
		</linearGradient>
		<path style="opacity:0.2;fill:url(#SVGID_44_);" d="M147.3,128.5l-22.4,45.1c-12.2,23-12.1,52.8-1.5,74.3l0,0l17.8-35.1
			C154.5,186.6,156.7,156.2,147.3,128.5L147.3,128.5z"/>
		<linearGradient id="SVGID_45_" gradientUnits="userSpaceOnUse" x1="174.6383" y1="120.4407" x2="116.6423" y2="217.9412">
			<stop  offset="0" style="stop-color:#FFFFFF;stop-opacity:0.2"/>
			<stop  offset="1" style="stop-color:#FFFFFF"/>
		</linearGradient>
		<path style="opacity:0.2;fill:url(#SVGID_45_);" d="M147.3,128.5l-22.4,45.1c-12.2,23-12.1,52.8-1.5,74.3l0,0l31.5-61.6
			c13.2-26.1,15.4-56.5,6-84.2L147.3,128.5z"/>
		<linearGradient id="SVGID_46_" gradientUnits="userSpaceOnUse" x1="179.6632" y1="229.2465" x2="161.1052" y2="229.2465">
			<stop  offset="0" style="stop-color:#000000;stop-opacity:0.2"/>
			<stop  offset="1" style="stop-color:#000000"/>
		</linearGradient>
		<path style="opacity:0.2;fill:url(#SVGID_46_);" d="M158.9,245.6h29.2c-9.4-20-25.9-32.6-47.9-32.8l-34.1,0l16.3,32.8H158.9z"/>
		<linearGradient id="SVGID_47_" gradientUnits="userSpaceOnUse" x1="119.244" y1="208.3444" x2="246.0343" y2="445.9093">
			<stop  offset="0" style="stop-color:#4DD0FF"/>
			<stop  offset="1" style="stop-color:#5D1BB0"/>
		</linearGradient>
		<path class="st47" d="M178.7,357.1l18.5-36.3l-38-74.8c-9.8-19.3-31.5-33.1-53.2-33.1h0L178.7,357.1z"/>
		<linearGradient id="SVGID_48_" gradientUnits="userSpaceOnUse" x1="254.4427" y1="229.6131" x2="353.7221" y2="229.6131">
			<stop  offset="0" style="stop-color:#FFFFFF;stop-opacity:0.2"/>
			<stop  offset="1" style="stop-color:#FFFFFF"/>
		</linearGradient>
		<path style="opacity:0.2;fill:url(#SVGID_48_);" d="M254.4,246.6c21.4-22,49.8-34,80.1-34h19.2v0.3
			c-10.1,20.5-28.5,33.7-51.4,33.7H254.4z"/>
		<linearGradient id="SVGID_49_" gradientUnits="userSpaceOnUse" x1="217.5928" y1="229.6131" x2="353.7221" y2="229.6131">
			<stop  offset="0" style="stop-color:#FFFFFF;stop-opacity:0.2"/>
			<stop  offset="1" style="stop-color:#FFFFFF"/>
		</linearGradient>
		<path style="opacity:0.2;fill:url(#SVGID_49_);" d="M217.6,246.6c21.4-22,49.8-34,80.1-34h55.6h0.5c-10.1,21-28.3,33.4-51.2,33.4
			L217.6,246.6z"/>
		<linearGradient id="SVGID_50_" gradientUnits="userSpaceOnUse" x1="323.8082" y1="240.1211" x2="443.7117" y2="-5.6811">
			<stop  offset="0" style="stop-color:#4DD0FF"/>
			<stop  offset="1" style="stop-color:#5D1BB0"/>
		</linearGradient>
		<path class="st50" d="M410.9,99.4l-35.5-0.6c0,0-18.3,37.3-37.8,75.4c-19,37-0.9,73.6-0.9,73.6L410.9,99.4z"/>
		<linearGradient id="SVGID_51_" gradientUnits="userSpaceOnUse" x1="374.3083" y1="144.9032" x2="328.2634" y2="222.312">
			<stop  offset="0" style="stop-color:#FFFFFF;stop-opacity:0.2"/>
			<stop  offset="1" style="stop-color:#FFFFFF"/>
		</linearGradient>
		<path style="opacity:0.2;fill:url(#SVGID_51_);" d="M360.5,128.5l-22.4,45.1c-12.2,23-12.1,52.8-1.5,74.3v0l17.6-35.2
			C367.5,186.5,369.9,156.2,360.5,128.5L360.5,128.5z"/>
		<linearGradient id="SVGID_52_" gradientUnits="userSpaceOnUse" x1="387.8462" y1="120.4407" x2="329.8502" y2="217.9412">
			<stop  offset="0" style="stop-color:#FFFFFF;stop-opacity:0.2"/>
			<stop  offset="1" style="stop-color:#FFFFFF"/>
		</linearGradient>
		<path style="opacity:0.2;fill:url(#SVGID_52_);" d="M360.5,128.5l-22.4,45.1c-12.2,23-12.1,52.8-1.5,74.3v0l31.1-62
			c13.2-26.1,15.9-56,6.5-83.8L360.5,128.5z"/>
		
			<linearGradient id="SVGID_53_" gradientUnits="userSpaceOnUse" x1="3383.8853" y1="2476.2288" x2="3383.8853" y2="2510.9294" gradientTransform="matrix(-0.4875 0.9639 -0.8924 -0.4513 4211.5181 -2047.7925)">
			<stop  offset="0" style="stop-color:#4DD0FF;stop-opacity:0.5"/>
			<stop  offset="1" style="stop-color:#5D1BB0"/>
		</linearGradient>
		<path style="opacity:0.2;fill:url(#SVGID_53_);" d="M461.4,0L339.4,241.7l0,0C287,166.1,278,124,336.7,81.7L461.4,0z"/>
		
			<linearGradient id="SVGID_54_" gradientUnits="userSpaceOnUse" x1="3386.7983" y1="2461.3489" x2="3386.7983" y2="2482.8396" gradientTransform="matrix(-0.4875 0.9639 -0.8924 -0.4513 4211.5181 -2047.7925)">
			<stop  offset="0" style="stop-color:#4DD0FF;stop-opacity:0.5"/>
			<stop  offset="1" style="stop-color:#5D1BB0"/>
		</linearGradient>
		<path style="opacity:0.2;fill:url(#SVGID_54_);" d="M461.4,0L339.8,241.9l-3.1,5.5C275.7,157.8,359,68.1,406,37.3L461.4,0z"/>
		<linearGradient id="SVGID_55_" gradientUnits="userSpaceOnUse" x1="268.2048" y1="359.112" x2="222.1599" y2="436.5208">
			<stop  offset="0" style="stop-color:#FFFFFF;stop-opacity:0.2"/>
			<stop  offset="1" style="stop-color:#FFFFFF"/>
		</linearGradient>
		<path style="opacity:0.2;fill:url(#SVGID_55_);" d="M254.4,342.7L232,387.7c-12.2,23-12.1,52.8-1.5,74.3l0,0l17.5-35.4
			C261.3,400.4,263.8,370.4,254.4,342.7L254.4,342.7z"/>
		<linearGradient id="SVGID_56_" gradientUnits="userSpaceOnUse" x1="281.7427" y1="334.6495" x2="223.7467" y2="432.1501">
			<stop  offset="0" style="stop-color:#FFFFFF;stop-opacity:0.2"/>
			<stop  offset="1" style="stop-color:#FFFFFF"/>
		</linearGradient>
		<path style="opacity:0.2;fill:url(#SVGID_56_);" d="M254.4,342.7L232,387.7c-12.2,23-12.1,52.8-1.5,74.3l0,0l30.8-62.4
			c13.2-26.1,16.2-55.7,6.8-83.4L254.4,342.7z"/>
		<linearGradient id="SVGID_57_" gradientUnits="userSpaceOnUse" x1="165.7469" y1="297.1753" x2="126.3751" y2="215.7626">
			<stop  offset="0" style="stop-color:#FFFFFF;stop-opacity:0.2"/>
			<stop  offset="1" style="stop-color:#FFFFFF"/>
		</linearGradient>
		<path style="opacity:0.2;fill:url(#SVGID_57_);" d="M178,283L178,283c-22.8-0.3-43.6-13.3-53.8-33.6L105.9,213h0
			c22.7,0,43.7,13.8,53.8,34L178,283z"/>
		<linearGradient id="SVGID_58_" gradientUnits="userSpaceOnUse" x1="180.8824" y1="327.8388" x2="128.2932" y2="219.0951">
			<stop  offset="0" style="stop-color:#FFFFFF;stop-opacity:0.2"/>
			<stop  offset="1" style="stop-color:#FFFFFF"/>
		</linearGradient>
		<path style="opacity:0.2;fill:url(#SVGID_58_);" d="M192.3,311.3L192.3,311.3c-22.8-0.3-43.6-13.3-53.8-33.6L105.9,213h0
			c22.7,0,43.7,13.8,53.8,34L192.3,311.3z"/>
		
			<linearGradient id="SVGID_59_" gradientUnits="userSpaceOnUse" x1="3947.4819" y1="-2000.0107" x2="3947.4819" y2="-1965.3102" gradientTransform="matrix(-0.4832 -0.9661 0.8944 -0.4473 3912.8721 3233.2908)">
			<stop  offset="0" style="stop-color:#4DD0FF;stop-opacity:0.5"/>
			<stop  offset="1" style="stop-color:#5D1BB0"/>
		</linearGradient>
		<path style="opacity:0.2;fill:url(#SVGID_59_);" d="M229.1,459.5L107.8,217.4l0,0c91.9,3,131,20.9,130,93.2L229.1,459.5z"/>
		
			<linearGradient id="SVGID_60_" gradientUnits="userSpaceOnUse" x1="3949.3259" y1="-2014.8348" x2="3949.3259" y2="-1993.481" gradientTransform="matrix(-0.4832 -0.9661 0.8944 -0.4473 3912.8721 3233.2908)">
			<stop  offset="0" style="stop-color:#4DD0FF;stop-opacity:0.5"/>
			<stop  offset="1" style="stop-color:#5D1BB0"/>
		</linearGradient>
		<path style="opacity:0.2;fill:url(#SVGID_60_);" d="M229.1,459.5L107.8,217.4l-1-1.8c-0.7-1.2,0.3-2.8,1.7-2.7
			c105.4,6.7,127,124.4,123.7,179.8L229.1,459.5z"/>
	</g>
</g>
</svg>
