<?xml version="1.0" encoding="utf-8"?>
<!-- Generator: Adobe Illustrator 18.0.0, SVG Export Plug-In . SVG Version: 6.00 Build 0)  -->
<!DOCTYPE svg PUBLIC "-//W3C//DTD SVG 1.1//EN" "http://www.w3.org/Graphics/SVG/1.1/DTD/svg11.dtd">
<svg version="1.1" id="Calque_1" xmlns="http://www.w3.org/2000/svg" xmlns:xlink="http://www.w3.org/1999/xlink" x="0px" y="0px"
	 viewBox="0 0 462 462" style="enable-background:new 0 0 462 462;" xml:space="preserve">
<style type="text/css">
	.st0{fill:url(#SVGID_1_);}
	.st1{fill:url(#SVGID_2_);}
	.st2{fill:url(#SVGID_3_);}
	.st3{fill:url(#SVGID_4_);}
	.st4{fill:url(#SVGID_5_);}
	.st5{fill:url(#SVGID_6_);}
	.st6{fill:url(#SVGID_7_);}
	.st7{fill:url(#SVGID_8_);}
	.st8{fill:url(#SVGID_9_);}
	.st9{fill:#FF0000;}
	.st10{fill:url(#SVGID_10_);}
	.st11{fill:url(#SVGID_11_);}
	.st12{fill:url(#SVGID_12_);}
	.st13{fill:url(#SVGID_13_);}
	.st14{fill:url(#SVGID_14_);}
	.st15{fill:url(#SVGID_15_);}
	.st16{fill:url(#SVGID_16_);}
	.st17{fill:url(#SVGID_17_);}
	.st18{fill:url(#SVGID_18_);}
	.st19{fill:url(#SVGID_19_);}
	.st20{fill:url(#SVGID_20_);}
	.st21{fill:url(#SVGID_21_);}
	.st22{fill:url(#SVGID_22_);}
	.st23{fill:url(#SVGID_23_);}
	.st24{fill:url(#SVGID_24_);}
	.st25{fill:url(#SVGID_25_);}
	.st26{fill:url(#SVGID_26_);}
	.st27{fill:url(#SVGID_27_);}
	.st28{fill:url(#SVGID_28_);}
	.st29{fill:url(#SVGID_29_);}
	.st30{fill:url(#SVGID_30_);}
	.st31{fill:url(#SVGID_31_);}
	.st32{fill:url(#SVGID_32_);}
	.st33{fill:url(#SVGID_33_);}
	.st34{fill:url(#SVGID_34_);}
	.st35{fill:url(#SVGID_35_);}
	.st36{fill:url(#SVGID_36_);}
	.st37{fill:url(#SVGID_37_);}
	.st38{fill:url(#SVGID_38_);}
	.st39{fill:url(#SVGID_39_);}
	.st40{fill:url(#SVGID_40_);}
	.st41{fill:url(#SVGID_41_);}
	.st42{fill:url(#SVGID_42_);}
	.st43{fill:url(#SVGID_43_);}
	.st44{fill:url(#SVGID_44_);}
	.st45{fill:url(#SVGID_45_);}
	.st46{fill:url(#SVGID_46_);}
	.st47{fill:url(#SVGID_47_);}
	.st48{opacity:0.3;fill:url(#SVGID_48_);}
	.st49{fill:url(#SVGID_49_);}
	.st50{fill:url(#SVGID_50_);}
	.st51{fill:none;}
	.st52{fill:url(#SVGID_51_);}
	.st53{fill:url(#SVGID_52_);}
	.st54{fill:url(#SVGID_53_);}
	.st55{fill:url(#SVGID_54_);}
	.st56{fill:url(#SVGID_55_);}
	.st57{fill:url(#SVGID_56_);}
	.st58{fill:url(#SVGID_57_);}
	.st59{fill:url(#SVGID_58_);}
	.st60{fill:url(#SVGID_59_);}
	.st61{fill:url(#SVGID_60_);}
	.st62{fill:url(#SVGID_61_);}
	.st63{fill:url(#SVGID_62_);}
	.st64{fill:url(#SVGID_63_);}
	.st65{fill:url(#SVGID_64_);}
	.st66{fill:url(#SVGID_65_);}
	.st67{fill:url(#SVGID_66_);}
	.st68{fill:url(#SVGID_67_);}
	.st69{fill:url(#SVGID_68_);}
	.st70{fill:url(#SVGID_69_);}
	.st71{fill:url(#SVGID_70_);}
	.st72{fill:url(#SVGID_71_);}
	.st73{fill:url(#SVGID_72_);}
	.st74{fill:url(#SVGID_73_);}
	.st75{fill:url(#SVGID_74_);}
	.st76{fill:url(#SVGID_75_);}
	.st77{fill:url(#SVGID_76_);}
	.st78{fill:url(#SVGID_77_);}
	.st79{fill:url(#SVGID_78_);}
	.st80{fill:url(#SVGID_79_);}
	.st81{fill:url(#SVGID_80_);}
	.st82{fill:url(#SVGID_81_);}
	.st83{opacity:0.15;fill:url(#SVGID_82_);}
	.st84{opacity:0.15;fill:url(#SVGID_83_);}
	.st85{fill:url(#SVGID_84_);}
	.st86{opacity:0.2;fill:#FFFFFF;}
	.st87{fill:url(#SVGID_85_);}
	.st88{fill:url(#SVGID_86_);}
	.st89{fill:url(#SVGID_87_);}
	.st90{fill:url(#SVGID_88_);}
	.st91{fill:url(#SVGID_89_);}
	.st92{fill:url(#SVGID_90_);}
	.st93{fill:url(#SVGID_91_);}
	.st94{fill:url(#SVGID_92_);}
	.st95{fill:url(#SVGID_93_);}
	.st96{opacity:0.15;fill:url(#SVGID_94_);}
	.st97{opacity:0.15;fill:url(#SVGID_95_);}
	.st98{fill:url(#SVGID_96_);}
	.st99{fill:url(#SVGID_97_);}
	.st100{fill:url(#SVGID_98_);}
	.st101{fill:none;stroke:#000000;stroke-width:2;stroke-miterlimit:10;}
	.st102{fill:url(#SVGID_99_);}
	.st103{fill:url(#SVGID_100_);}
	.st104{opacity:0.2;fill:url(#SVGID_101_);}
	.st105{opacity:0.2;fill:url(#SVGID_102_);}
	.st106{fill:url(#SVGID_103_);}
	.st107{opacity:0.4;fill:url(#SVGID_104_);}
	.st108{opacity:0.4;fill:url(#SVGID_105_);}
	.st109{fill:url(#SVGID_106_);}
	.st110{opacity:0.2;fill:url(#SVGID_107_);}
	.st111{opacity:0.2;fill:url(#SVGID_108_);}
	.st112{opacity:0.2;fill:url(#SVGID_109_);}
	.st113{opacity:0.2;fill:url(#SVGID_110_);}
	.st114{fill:url(#SVGID_111_);}
	.st115{fill:url(#SVGID_112_);}
	.st116{fill:url(#SVGID_113_);}
	.st117{opacity:0.2;fill:url(#SVGID_114_);}
	.st118{opacity:0.2;fill:url(#SVGID_115_);}
	.st119{opacity:0.2;fill:url(#SVGID_116_);}
	.st120{opacity:0.2;fill:url(#SVGID_117_);}
	.st121{fill:url(#SVGID_118_);}
	.st122{opacity:0.4;fill:url(#SVGID_119_);}
	.st123{opacity:0.4;fill:url(#SVGID_120_);}
	.st124{fill:url(#SVGID_121_);}
	.st125{opacity:0.2;fill:url(#SVGID_122_);}
	.st126{opacity:0.2;fill:url(#SVGID_123_);}
	.st127{fill:url(#SVGID_124_);}
	.st128{opacity:0.2;fill:url(#SVGID_125_);}
	.st129{opacity:0.2;fill:url(#SVGID_126_);}
	.st130{opacity:0.2;fill:url(#SVGID_127_);}
	.st131{opacity:0.2;fill:url(#SVGID_128_);}
	.st132{opacity:0.2;fill:url(#SVGID_129_);}
	.st133{opacity:0.2;fill:url(#SVGID_130_);}
	.st134{fill:url(#SVGID_131_);}
	.st135{fill:url(#SVGID_132_);}
	.st136{opacity:0.2;fill:url(#SVGID_133_);}
	.st137{opacity:0.2;fill:url(#SVGID_134_);}
	.st138{fill:url(#SVGID_135_);}
	.st139{opacity:0.4;fill:url(#SVGID_136_);}
	.st140{opacity:0.4;fill:url(#SVGID_137_);}
	.st141{fill:url(#SVGID_138_);}
	.st142{fill:url(#SVGID_139_);}
	.st143{opacity:0.2;fill:url(#SVGID_140_);}
	.st144{fill:url(#SVGID_141_);}
	.st145{opacity:0.2;fill:url(#SVGID_142_);}
	.st146{opacity:0.2;fill:url(#SVGID_143_);}
	.st147{opacity:0.2;fill:url(#SVGID_144_);}
	.st148{fill:url(#SVGID_145_);}
	.st149{opacity:0.2;fill:url(#SVGID_146_);}
	.st150{opacity:0.2;fill:url(#SVGID_147_);}
	.st151{fill:url(#SVGID_148_);}
	.st152{opacity:0.2;fill:url(#SVGID_149_);}
	.st153{opacity:0.2;fill:url(#SVGID_150_);}
	.st154{opacity:0.2;fill:url(#SVGID_151_);}
	.st155{opacity:0.2;fill:url(#SVGID_152_);}
	.st156{opacity:0.2;fill:url(#SVGID_153_);}
	.st157{opacity:0.2;fill:url(#SVGID_154_);}
	.st158{opacity:0.2;fill:url(#SVGID_155_);}
	.st159{opacity:0.2;fill:url(#SVGID_156_);}
	.st160{opacity:0.2;fill:url(#SVGID_157_);}
	.st161{opacity:0.2;fill:url(#SVGID_158_);}
	.st162{fill:url(#SVGID_159_);}
	.st163{fill:url(#SVGID_160_);}
	.st164{fill:url(#SVGID_161_);}
	.st165{fill:url(#SVGID_162_);}
	.st166{fill:url(#SVGID_163_);}
	.st167{fill:url(#SVGID_164_);}
	.st168{fill:url(#SVGID_165_);}
	.st169{opacity:0.5;fill:url(#SVGID_166_);}
	.st170{fill:url(#SVGID_167_);}
	.st171{opacity:0.6;fill:url(#SVGID_168_);}
	.st172{fill:url(#SVGID_169_);}
	.st173{opacity:0.4;fill:url(#SVGID_170_);}
	.st174{fill:url(#SVGID_171_);}
	.st175{opacity:0.7;fill:url(#SVGID_172_);}
	.st176{opacity:0.3;fill:url(#SVGID_173_);}
	.st177{fill:url(#SVGID_174_);}
	.st178{opacity:0.7;fill:url(#SVGID_175_);}
	.st179{fill:url(#SVGID_176_);}
	.st180{opacity:0.4;fill:url(#SVGID_177_);}
	.st181{opacity:0.7;fill:url(#SVGID_178_);}
	.st182{opacity:0.8;fill:url(#SVGID_179_);}
	.st183{fill:url(#SVGID_180_);}
	.st184{opacity:0.8;fill:url(#SVGID_181_);}
	.st185{opacity:0.3;fill:url(#SVGID_182_);}
	.st186{opacity:0.3;fill:url(#SVGID_183_);}
	.st187{opacity:0.2;fill:url(#SVGID_184_);}
	.st188{opacity:0.2;fill:url(#SVGID_185_);}
	.st189{opacity:0.2;fill:url(#SVGID_186_);}
	.st190{opacity:0.8;fill:url(#SVGID_187_);}
	.st191{opacity:0.4;fill:url(#SVGID_188_);}
	.st192{opacity:0.6;fill:url(#SVGID_189_);}
	.st193{opacity:0.4;fill:url(#SVGID_190_);}
	.st194{opacity:0.4;fill:url(#SVGID_191_);}
	.st195{opacity:0.2;fill:url(#SVGID_192_);}
	.st196{opacity:0.19;fill:url(#SVGID_193_);}
	.st197{opacity:0.8;fill:url(#SVGID_194_);}
</style>
<g>
	<linearGradient id="SVGID_1_" gradientUnits="userSpaceOnUse" x1="231" y1="13.0295" x2="231" y2="351.7967">
		<stop  offset="0" style="stop-color:#4DD0FF"/>
		<stop  offset="1" style="stop-color:#5D1BB0"/>
	</linearGradient>
	<path class="st0" d="M231,33.3c81.6,0,147.9,66.4,147.9,147.9S312.6,329.2,231,329.2S83.1,262.8,83.1,181.2S149.4,33.3,231,33.3
		 M231,0.3c-99.9,0-180.9,81-180.9,180.9s81,180.9,180.9,180.9s180.9-81,180.9-180.9S330.9,0.3,231,0.3L231,0.3z"/>
	<path class="st51" d="M191.7,357.9c12.5,3.5,25.7,5.3,39.3,5.3c13.6,0,26.8-1.9,39.3-5.3c-12.7,2.8-25.8,4.3-39.3,4.3
		C217.5,362.1,204.4,360.7,191.7,357.9z"/>
	<linearGradient id="SVGID_2_" gradientUnits="userSpaceOnUse" x1="231" y1="5.3575" x2="231" y2="182.8411">
		<stop  offset="0" style="stop-color:#FFFFFF;stop-opacity:0.1"/>
		<stop  offset="1" style="stop-color:#FFFFFF;stop-opacity:0.8"/>
	</linearGradient>
	<path class="st1" d="M191.7,38.6c12.5-3.5,25.7-5.3,39.3-5.3c13.6,0,26.8,1.9,39.3,5.3c75.6,16.8,133.5,80.8,140.8,159.6
		c0.5-5.6,0.8-11.3,0.8-17c0-99.9-81-180.9-180.9-180.9c-99.9,0-180.9,81-180.9,180.9c0,5.7,0.3,11.4,0.8,17
		C58.2,119.5,116.1,55.4,191.7,38.6z"/>
	<linearGradient id="SVGID_3_" gradientUnits="userSpaceOnUse" x1="231" y1="360.2061" x2="231" y2="177.8786">
		<stop  offset="0" style="stop-color:#000000;stop-opacity:0.5"/>
		<stop  offset="0.9955" style="stop-color:#000000;stop-opacity:0"/>
	</linearGradient>
	<path class="st2" d="M378.9,215.2c0-5.7-0.3-11.4-1-17c-8.5,73.6-71.1,130.9-146.9,130.9c-75.8,0-138.5-57.3-146.9-130.9
		c-0.6,5.6-1,11.3-1,17c0,68,46.1,125.3,108.6,142.6c12.7,2.8,25.8,4.3,39.3,4.3c13.5,0,26.6-1.5,39.3-4.3
		C332.8,340.6,378.9,283.2,378.9,215.2z"/>
	<linearGradient id="SVGID_4_" gradientUnits="userSpaceOnUse" x1="231" y1="101.9439" x2="231" y2="457.4453">
		<stop  offset="0" style="stop-color:#4DD0FF"/>
		<stop  offset="1" style="stop-color:#5D1BB0"/>
	</linearGradient>
	<path class="st3" d="M231,132.3c81.8,0,148.4,66.6,148.4,148.4S312.8,429.1,231,429.1S82.6,362.6,82.6,280.7S149.2,132.3,231,132.3
		 M231,99.3c-100.2,0-181.4,81.2-181.4,181.4S130.8,462.1,231,462.1s181.4-81.2,181.4-181.4S331.2,99.3,231,99.3L231,99.3z"/>
	<linearGradient id="SVGID_5_" gradientUnits="userSpaceOnUse" x1="231.0552" y1="104.3611" x2="231.0552" y2="281.9704">
		<stop  offset="0" style="stop-color:#FFFFFF;stop-opacity:0.1"/>
		<stop  offset="1" style="stop-color:#FFFFFF;stop-opacity:0.8"/>
	</linearGradient>
	<path class="st4" d="M191.7,137.6c12.5-3.5,25.7-5.3,39.3-5.3c13.6,0,26.8,1.9,39.3,5.3c75.6,16.8,134,81,141.3,159.7
		c0.5-5.6,0.8-11.3,0.8-17c0-99.9-81.5-181-181.4-181c-99.9,0-181.3,80.5-181.3,180.4c0,5.7,0.3,11.4,0.8,17
		C57.8,218,116.1,154.4,191.7,137.6z"/>
	<linearGradient id="SVGID_6_" gradientUnits="userSpaceOnUse" x1="230.94" y1="460.0601" x2="230.94" y2="277.7326">
		<stop  offset="0" style="stop-color:#000000;stop-opacity:0.5"/>
		<stop  offset="0.9955" style="stop-color:#000000;stop-opacity:0"/>
	</linearGradient>
	<path class="st5" d="M378.9,315.1c0-5.7,0-11.1-0.7-16.7C369.8,372,306.8,429,231,429c-75.8,0-139.2-57.3-147.7-130.9
		c-0.6,5.6-0.2,11.3-0.2,17c0,68,46.1,125.3,108.6,142.6c12.7,2.8,25.8,4.3,39.3,4.3c13.5,0,26.6-1.5,39.3-4.3
		C332.8,440.4,378.9,383.1,378.9,315.1z"/>
	<linearGradient id="SVGID_7_" gradientUnits="userSpaceOnUse" x1="231" y1="169.3468" x2="231" y2="298.7025">
		<stop  offset="0" style="stop-color:#4DD0FF"/>
		<stop  offset="1" style="stop-color:#5D1BB0"/>
	</linearGradient>
	<circle style="opacity:0.15;fill:url(#SVGID_7_);" cx="231" cy="231.2" r="71"/>
	<linearGradient id="SVGID_8_" gradientUnits="userSpaceOnUse" x1="231" y1="187.9901" x2="231" y2="273.0386">
		<stop  offset="0" style="stop-color:#4DD0FF"/>
		<stop  offset="1" style="stop-color:#5D1BB0"/>
	</linearGradient>
	<circle style="opacity:0.15;fill:url(#SVGID_8_);" cx="231" cy="231.2" r="50"/>
	<linearGradient id="SVGID_9_" gradientUnits="userSpaceOnUse" x1="231" y1="202.3311" x2="231" y2="265.4317">
		<stop  offset="0" style="stop-color:#4DD0FF"/>
		<stop  offset="1" style="stop-color:#5D1BB0"/>
	</linearGradient>
	<circle class="st8" cx="231" cy="231.2" r="33"/>
	<path class="st86" d="M252.5,207.4c0-0.4,0-0.8,0-1.2c-5.8-5-13.3-8-21.5-8c-18.2,0-33,14.8-33,33c0,7.7,2.6,14.8,7.1,20.4
		c1,0.1,2,0.1,3,0.1C232.6,251.8,252.5,231.9,252.5,207.4z"/>
	<path class="st86" d="M239.1,207.4c0-2.9-0.4-5.7-1.2-8.4c-2.2-0.5-4.5-0.7-6.9-0.7c-18.2,0-33,14.8-33,33c0,1.9,0.2,3.7,0.5,5.5
		c3,1,6.3,1.5,9.7,1.5C225.2,238.3,239.1,224.5,239.1,207.4z"/>
	<path class="st86" d="M228.6,206.8c0-3-0.7-5.8-1.8-8.3c-14,1.8-25.3,12.3-28.1,25.9c2.9,1.6,6.2,2.5,9.7,2.5
		C219.6,227,228.6,218,228.6,206.8z"/>
	<linearGradient id="SVGID_10_" gradientUnits="userSpaceOnUse" x1="387.9036" y1="2.9908" x2="387.9036" y2="360.3703">
		<stop  offset="0" style="stop-color:#4DD0FF"/>
		<stop  offset="1" style="stop-color:#5D1BB0"/>
	</linearGradient>
	<path class="st10" d="M378.9,181.2c0,17.2-2.9,33.6-8.3,49c5.7,15.8,8.9,32.8,8.9,50.5c0,1.3,0,2.7-0.1,4
		c11.5-16.4,20.3-34.9,25.9-54.7c-5.7-19.8-14.8-38.2-26.4-54.6C378.9,177.4,378.9,179.3,378.9,181.2z"/>
	<linearGradient id="SVGID_11_" gradientUnits="userSpaceOnUse" x1="374.6959" y1="360.2061" x2="374.6959" y2="177.8786">
		<stop  offset="0" style="stop-color:#000000;stop-opacity:0.5"/>
		<stop  offset="0.9955" style="stop-color:#000000;stop-opacity:0"/>
	</linearGradient>
	<path class="st11" d="M378.9,215.2c0-5.7-0.3-11.4-1-17c-1.3,11.2-3.8,21.9-7.5,32.2c1.7,4.6,3.5,10.1,5,16.6
		C377.7,236.8,378.9,226.2,378.9,215.2z"/>
</g>
</svg>
