<?xml version="1.0" encoding="utf-8"?>
<!-- Generator: Adobe Illustrator 18.0.0, SVG Export Plug-In . SVG Version: 6.00 Build 0)  -->
<!DOCTYPE svg PUBLIC "-//W3C//DTD SVG 1.1//EN" "http://www.w3.org/Graphics/SVG/1.1/DTD/svg11.dtd">
<svg version="1.1" id="Calque_1" xmlns="http://www.w3.org/2000/svg" xmlns:xlink="http://www.w3.org/1999/xlink" x="0px" y="0px"
	 viewBox="0 0 462 462" style="enable-background:new 0 0 462 462;" xml:space="preserve">
<style type="text/css">
	.st0{fill:url(#SVGID_1_);}
	.st1{fill:url(#SVGID_2_);}
	.st2{fill:url(#SVGID_3_);}
	.st3{fill:url(#SVGID_4_);}
	.st4{fill:url(#SVGID_5_);}
	.st5{fill:url(#SVGID_6_);}
	.st6{fill:url(#SVGID_7_);}
	.st7{fill:url(#SVGID_8_);}
	.st8{fill:url(#SVGID_9_);}
	.st9{fill:#FF0000;}
	.st10{fill:url(#SVGID_10_);}
	.st11{fill:url(#SVGID_11_);}
	.st12{fill:url(#SVGID_12_);}
	.st13{fill:url(#SVGID_13_);}
	.st14{fill:url(#SVGID_14_);}
	.st15{fill:url(#SVGID_15_);}
	.st16{fill:url(#SVGID_16_);}
	.st17{fill:url(#SVGID_17_);}
	.st18{fill:url(#SVGID_18_);}
	.st19{fill:url(#SVGID_19_);}
	.st20{fill:url(#SVGID_20_);}
	.st21{fill:url(#SVGID_21_);}
	.st22{fill:url(#SVGID_22_);}
	.st23{fill:url(#SVGID_23_);}
	.st24{fill:url(#SVGID_24_);}
	.st25{fill:url(#SVGID_25_);}
	.st26{fill:url(#SVGID_26_);}
	.st27{fill:url(#SVGID_27_);}
	.st28{fill:url(#SVGID_28_);}
	.st29{fill:url(#SVGID_29_);}
	.st30{fill:url(#SVGID_30_);}
	.st31{fill:url(#SVGID_31_);}
	.st32{fill:url(#SVGID_32_);}
	.st33{fill:url(#SVGID_33_);}
	.st34{fill:url(#SVGID_34_);}
	.st35{fill:url(#SVGID_35_);}
	.st36{fill:url(#SVGID_36_);}
	.st37{fill:url(#SVGID_37_);}
	.st38{fill:url(#SVGID_38_);}
	.st39{fill:url(#SVGID_39_);}
	.st40{fill:url(#SVGID_40_);}
	.st41{fill:url(#SVGID_41_);}
	.st42{fill:url(#SVGID_42_);}
	.st43{fill:url(#SVGID_43_);}
	.st44{fill:url(#SVGID_44_);}
	.st45{fill:url(#SVGID_45_);}
	.st46{fill:url(#SVGID_46_);}
	.st47{fill:url(#SVGID_47_);}
	.st48{opacity:0.3;fill:url(#SVGID_48_);}
	.st49{fill:url(#SVGID_49_);}
	.st50{fill:url(#SVGID_50_);}
	.st51{fill:none;}
	.st52{fill:url(#SVGID_51_);}
	.st53{fill:url(#SVGID_52_);}
	.st54{fill:url(#SVGID_53_);}
	.st55{fill:url(#SVGID_54_);}
	.st56{fill:url(#SVGID_55_);}
	.st57{fill:url(#SVGID_56_);}
	.st58{fill:url(#SVGID_57_);}
	.st59{fill:url(#SVGID_58_);}
	.st60{fill:url(#SVGID_59_);}
	.st61{fill:url(#SVGID_60_);}
	.st62{fill:url(#SVGID_61_);}
	.st63{fill:url(#SVGID_62_);}
	.st64{fill:url(#SVGID_63_);}
	.st65{fill:url(#SVGID_64_);}
	.st66{fill:url(#SVGID_65_);}
	.st67{fill:url(#SVGID_66_);}
	.st68{fill:url(#SVGID_67_);}
	.st69{fill:url(#SVGID_68_);}
	.st70{fill:url(#SVGID_69_);}
	.st71{fill:url(#SVGID_70_);}
	.st72{fill:url(#SVGID_71_);}
	.st73{fill:url(#SVGID_72_);}
	.st74{fill:url(#SVGID_73_);}
	.st75{fill:url(#SVGID_74_);}
	.st76{fill:url(#SVGID_75_);}
	.st77{fill:url(#SVGID_76_);}
	.st78{fill:url(#SVGID_77_);}
	.st79{fill:url(#SVGID_78_);}
	.st80{fill:url(#SVGID_79_);}
	.st81{fill:url(#SVGID_80_);}
	.st82{fill:url(#SVGID_81_);}
	.st83{opacity:0.15;fill:url(#SVGID_82_);}
	.st84{opacity:0.15;fill:url(#SVGID_83_);}
	.st85{fill:url(#SVGID_84_);}
	.st86{opacity:0.2;fill:#FFFFFF;}
	.st87{fill:url(#SVGID_85_);}
	.st88{fill:url(#SVGID_86_);}
	.st89{fill:url(#SVGID_87_);}
	.st90{fill:url(#SVGID_88_);}
	.st91{fill:url(#SVGID_89_);}
	.st92{fill:url(#SVGID_90_);}
	.st93{fill:url(#SVGID_91_);}
	.st94{fill:url(#SVGID_92_);}
	.st95{fill:url(#SVGID_93_);}
	.st96{opacity:0.15;fill:url(#SVGID_94_);}
	.st97{opacity:0.15;fill:url(#SVGID_95_);}
	.st98{fill:url(#SVGID_96_);}
	.st99{fill:url(#SVGID_97_);}
	.st100{fill:url(#SVGID_98_);}
	.st101{fill:url(#SVGID_99_);}
	.st102{fill:url(#SVGID_100_);}
	.st103{opacity:0.2;fill:url(#SVGID_101_);}
	.st104{opacity:0.2;fill:url(#SVGID_102_);}
	.st105{fill:url(#SVGID_103_);}
	.st106{opacity:0.4;fill:url(#SVGID_104_);}
	.st107{opacity:0.4;fill:url(#SVGID_105_);}
	.st108{fill:url(#SVGID_106_);}
	.st109{opacity:0.2;fill:url(#SVGID_107_);}
	.st110{opacity:0.2;fill:url(#SVGID_108_);}
	.st111{opacity:0.2;fill:url(#SVGID_109_);}
	.st112{opacity:0.2;fill:url(#SVGID_110_);}
	.st113{fill:url(#SVGID_111_);}
	.st114{fill:url(#SVGID_112_);}
	.st115{fill:url(#SVGID_113_);}
	.st116{opacity:0.2;fill:url(#SVGID_114_);}
	.st117{opacity:0.2;fill:url(#SVGID_115_);}
	.st118{opacity:0.2;fill:url(#SVGID_116_);}
	.st119{opacity:0.2;fill:url(#SVGID_117_);}
	.st120{fill:url(#SVGID_118_);}
	.st121{opacity:0.4;fill:url(#SVGID_119_);}
	.st122{opacity:0.4;fill:url(#SVGID_120_);}
	.st123{fill:url(#SVGID_121_);}
	.st124{opacity:0.2;fill:url(#SVGID_122_);}
	.st125{opacity:0.2;fill:url(#SVGID_123_);}
	.st126{fill:url(#SVGID_124_);}
	.st127{opacity:0.2;fill:url(#SVGID_125_);}
	.st128{opacity:0.2;fill:url(#SVGID_126_);}
	.st129{opacity:0.2;fill:url(#SVGID_127_);}
	.st130{opacity:0.2;fill:url(#SVGID_128_);}
	.st131{opacity:0.2;fill:url(#SVGID_129_);}
	.st132{opacity:0.2;fill:url(#SVGID_130_);}
	.st133{fill:url(#SVGID_131_);}
	.st134{fill:url(#SVGID_132_);}
	.st135{opacity:0.2;fill:url(#SVGID_133_);}
	.st136{opacity:0.2;fill:url(#SVGID_134_);}
	.st137{fill:url(#SVGID_135_);}
	.st138{opacity:0.4;fill:url(#SVGID_136_);}
	.st139{opacity:0.4;fill:url(#SVGID_137_);}
	.st140{fill:url(#SVGID_138_);}
	.st141{fill:url(#SVGID_139_);}
	.st142{opacity:0.2;fill:url(#SVGID_140_);}
	.st143{fill:url(#SVGID_141_);}
	.st144{opacity:0.2;fill:url(#SVGID_142_);}
	.st145{opacity:0.2;fill:url(#SVGID_143_);}
	.st146{opacity:0.2;fill:url(#SVGID_144_);}
	.st147{fill:url(#SVGID_145_);}
	.st148{opacity:0.2;fill:url(#SVGID_146_);}
	.st149{opacity:0.2;fill:url(#SVGID_147_);}
	.st150{fill:url(#SVGID_148_);}
	.st151{opacity:0.2;fill:url(#SVGID_149_);}
	.st152{opacity:0.2;fill:url(#SVGID_150_);}
	.st153{opacity:0.2;fill:url(#SVGID_151_);}
	.st154{opacity:0.2;fill:url(#SVGID_152_);}
	.st155{opacity:0.2;fill:url(#SVGID_153_);}
	.st156{opacity:0.2;fill:url(#SVGID_154_);}
	.st157{opacity:0.2;fill:url(#SVGID_155_);}
	.st158{opacity:0.2;fill:url(#SVGID_156_);}
	.st159{opacity:0.2;fill:url(#SVGID_157_);}
	.st160{opacity:0.2;fill:url(#SVGID_158_);}
	.st161{fill:url(#SVGID_159_);}
	.st162{fill:url(#SVGID_160_);}
	.st163{fill:url(#SVGID_161_);}
	.st164{fill:url(#SVGID_162_);}
	.st165{fill:url(#SVGID_163_);}
	.st166{fill:url(#SVGID_164_);}
	.st167{fill:url(#SVGID_165_);}
	.st168{opacity:0.5;fill:url(#SVGID_166_);}
	.st169{fill:url(#SVGID_167_);}
	.st170{opacity:0.6;fill:url(#SVGID_168_);}
	.st171{fill:url(#SVGID_169_);}
	.st172{opacity:0.4;fill:url(#SVGID_170_);}
	.st173{fill:url(#SVGID_171_);}
	.st174{opacity:0.7;fill:url(#SVGID_172_);}
	.st175{opacity:0.3;fill:url(#SVGID_173_);}
	.st176{fill:url(#SVGID_174_);}
	.st177{opacity:0.7;fill:url(#SVGID_175_);}
	.st178{fill:url(#SVGID_176_);}
	.st179{opacity:0.4;fill:url(#SVGID_177_);}
	.st180{opacity:0.7;fill:url(#SVGID_178_);}
	.st181{opacity:0.8;fill:url(#SVGID_179_);}
	.st182{fill:url(#SVGID_180_);}
	.st183{opacity:0.8;fill:url(#SVGID_181_);}
	.st184{opacity:0.3;fill:url(#SVGID_182_);}
	.st185{opacity:0.3;fill:url(#SVGID_183_);}
	.st186{opacity:0.2;fill:url(#SVGID_184_);}
	.st187{opacity:0.2;fill:url(#SVGID_185_);}
	.st188{opacity:0.2;fill:url(#SVGID_186_);}
	.st189{opacity:0.8;fill:url(#SVGID_187_);}
	.st190{opacity:0.4;fill:url(#SVGID_188_);}
	.st191{opacity:0.6;fill:url(#SVGID_189_);}
	.st192{opacity:0.4;fill:url(#SVGID_190_);}
	.st193{opacity:0.4;fill:url(#SVGID_191_);}
	.st194{opacity:0.2;fill:url(#SVGID_192_);}
	.st195{opacity:0.19;fill:url(#SVGID_193_);}
	.st196{opacity:0.8;fill:url(#SVGID_194_);}
</style>
<linearGradient id="SVGID_1_" gradientUnits="userSpaceOnUse" x1="238.5297" y1="303.0217" x2="232.4898" y2="353.4984">
	<stop  offset="0" style="stop-color:#4DD0FF"/>
	<stop  offset="1" style="stop-color:#5D1BB0"/>
</linearGradient>
<polygon class="st0" points="213.2,329.7 249.4,329.7 249.2,398 213.1,398 "/>
<linearGradient id="SVGID_2_" gradientUnits="userSpaceOnUse" x1="253.4281" y1="294.1223" x2="229.6997" y2="399.8215">
	<stop  offset="0" style="stop-color:#4DD0FF"/>
	<stop  offset="1" style="stop-color:#5D1BB0"/>
</linearGradient>
<path class="st1" d="M213.2,358.8c24-2.6,35.6-29.8,36.1-62.1L249.2,427h-36.1L213.2,358.8z"/>
<linearGradient id="SVGID_3_" gradientUnits="userSpaceOnUse" x1="241.2666" y1="346.3422" x2="226.1667" y2="480.9468">
	<stop  offset="0" style="stop-color:#4DD0FF"/>
	<stop  offset="1" style="stop-color:#5D1BB0"/>
</linearGradient>
<path class="st2" d="M213.2,409.3c19.4-7.1,36.1-33.1,36.1-77.5L249.2,462h-36.1L213.2,409.3z"/>
<linearGradient id="SVGID_4_" gradientUnits="userSpaceOnUse" x1="236.3396" y1="423.9221" x2="224.6911" y2="511.0699">
	<stop  offset="0" style="stop-color:#4DD0FF"/>
	<stop  offset="1" style="stop-color:#5D1BB0"/>
</linearGradient>
<path class="st3" d="M213.2,462c21-12.6,36.1-48.9,36.1-93.3l-0.1,93.3H213.2z"/>
<linearGradient id="SVGID_5_" gradientUnits="userSpaceOnUse" x1="228.3006" y1="79.0263" x2="224.5724" y2="145.6681">
	<stop  offset="0" style="stop-color:#4DD0FF"/>
	<stop  offset="1" style="stop-color:#5D1BB0"/>
</linearGradient>
<path class="st4" d="M105,39.5c7.7,32.5,50.1,95,127,95S348.5,72,356,39.3c-6.9,25.8-19.6,48.4-40.6,69.1
	c-29.7,29.3-66.1,42-83.4,44.1c-22.4-3.8-55.1-14.8-85.4-44.5C126.4,88.2,109.3,59.8,105,39.5z"/>
<linearGradient id="SVGID_6_" gradientUnits="userSpaceOnUse" x1="230.5184" y1="152.1504" x2="230.5184" y2="83.0548">
	<stop  offset="0" style="stop-color:#000000"/>
	<stop  offset="1" style="stop-color:#000000;stop-opacity:0"/>
</linearGradient>
<path class="st5" d="M105,39.5c7.7,32.5,50.1,95,127,95S348.5,72,356,39.3c-6.9,25.8-19.6,48.4-40.6,69.1
	c-29.7,29.3-66.1,42-83.4,44.1c-22.4-3.8-55.1-14.8-85.4-44.5C126.4,88.2,109.3,59.8,105,39.5z"/>
<linearGradient id="SVGID_7_" gradientUnits="userSpaceOnUse" x1="34.8769" y1="-48.215" x2="231.0741" y2="156.8367">
	<stop  offset="0" style="stop-color:#4DD0FF"/>
	<stop  offset="1" style="stop-color:#5D1BB0"/>
</linearGradient>
<path class="st6" d="M306.3,150.5C189.5,178,98.9,88.8,98.9,0h-35c0,61.8,34.6,122.5,97.1,152C201.8,171.2,259,174,306.3,150.5z"/>
<linearGradient id="SVGID_8_" gradientUnits="userSpaceOnUse" x1="192.7231" y1="110.4361" x2="137.3898" y2="-32.2306">
	<stop  offset="0.1634" style="stop-color:#A6F6FF;stop-opacity:0"/>
	<stop  offset="0.5" style="stop-color:#A6F6FF"/>
	<stop  offset="0.8663" style="stop-color:#A6F6FF;stop-opacity:0"/>
</linearGradient>
<path style="opacity:0.5;fill:url(#SVGID_8_);" d="M306.3,150.5C189.5,178,98.9,88.8,98.9,0h-35c0,61.8,34.6,122.5,97.1,152
	C201.8,171.2,259,174,306.3,150.5z"/>
<linearGradient id="SVGID_9_" gradientUnits="userSpaceOnUse" x1="381.6572" y1="357.7244" x2="98.2964" y2="149.4872">
	<stop  offset="0" style="stop-color:#4DD0FF"/>
	<stop  offset="1" style="stop-color:#5D1BB0"/>
</linearGradient>
<path class="st8" d="M349.2,283.5c-48.6,31.4-120.3,41.1-183.6-0.6c-35.5-23.4-66.7-64.3-66-117.3c0,0-4.6-59.6,50.4-103.9
	C60,92,65.5,165.5,65.5,165.5c0,94.8,74,167.1,165.9,167.1C296.6,332.6,338.6,294.9,349.2,283.5z"/>
<linearGradient id="SVGID_10_" gradientUnits="userSpaceOnUse" x1="303.3207" y1="235.7151" x2="166.2532" y2="193.5405">
	<stop  offset="0.1634" style="stop-color:#BDCCFF;stop-opacity:0"/>
	<stop  offset="0.5" style="stop-color:#BDCCFF"/>
	<stop  offset="0.8663" style="stop-color:#BDCCFF;stop-opacity:0"/>
</linearGradient>
<path style="opacity:0.6;fill:url(#SVGID_10_);" d="M349.2,283.5c-48.6,31.4-120.3,41.1-183.6-0.6c-35.5-23.4-66.7-64.3-66-117.3
	c0,0-4.6-59.6,50.4-103.9C60,92,65.5,165.5,65.5,165.5c0,94.8,74,167.1,165.9,167.1C296.6,332.6,338.6,294.9,349.2,283.5z"/>
<linearGradient id="SVGID_11_" gradientUnits="userSpaceOnUse" x1="72.1609" y1="445.5626" x2="227.0209" y2="48.1985">
	<stop  offset="0" style="stop-color:#4DD0FF"/>
	<stop  offset="1" style="stop-color:#5D1BB0"/>
</linearGradient>
<path class="st11" d="M113.4,283.9C82,235.3,72.8,163.4,114.5,100c23.4-35.5,64.3-66.7,117.3-66c0,0,66.9-1.4,107.2,57.2
	C334.6,37.3,231.9,0,231.9,0C137.1,0,64.8,74,64.8,165.9C64.8,231,102.2,273.2,113.4,283.9z"/>
<linearGradient id="SVGID_12_" gradientUnits="userSpaceOnUse" x1="199.9057" y1="117.5872" x2="215.7212" y2="243.4521">
	<stop  offset="0.1634" style="stop-color:#D1CCFF;stop-opacity:0"/>
	<stop  offset="0.5" style="stop-color:#D1CCFF"/>
	<stop  offset="0.8663" style="stop-color:#D1CCFF;stop-opacity:0"/>
</linearGradient>
<path style="opacity:0.4;fill:url(#SVGID_12_);" d="M113.4,283.9C82,235.3,72.8,163.4,114.5,100c23.4-35.5,64.3-66.7,117.3-66
	c0,0,66.9-1.4,107.2,57.2C334.6,37.3,231.9,0,231.9,0C137.1,0,64.8,74,64.8,165.9C64.8,231,102.2,273.2,113.4,283.9z"/>
<linearGradient id="SVGID_13_" gradientUnits="userSpaceOnUse" x1="177.4642" y1="-1.8091" x2="437.7607" y2="272.985">
	<stop  offset="0" style="stop-color:#4DD0FF"/>
	<stop  offset="1" style="stop-color:#5D1BB0"/>
</linearGradient>
<path class="st13" d="M112.1,49.2C160.7,17.8,233.3,8,296.7,49.7c35.5,23.4,66.7,64.3,66,117.3c0,0,3.1,60.8-51.2,103.2
	c72-18.2,85.2-103.2,85.2-103.2C396.7,72.2,322.7,0,230.8,0C165.7,0,123.8,36.6,112.1,49.2z"/>
<linearGradient id="SVGID_14_" gradientUnits="userSpaceOnUse" x1="130.5539" y1="81.7528" x2="325.6116" y2="148.9686">
	<stop  offset="0.1634" style="stop-color:#A6F6FF;stop-opacity:0"/>
	<stop  offset="0.5" style="stop-color:#A6F6FF"/>
	<stop  offset="0.8663" style="stop-color:#A6F6FF;stop-opacity:0"/>
</linearGradient>
<path style="opacity:0.7;fill:url(#SVGID_14_);" d="M112.1,49.2C160.7,17.8,233.3,8,296.7,49.7c35.5,23.4,66.7,64.3,66,117.3
	c0,0,3.1,60.8-51.2,103.2c72-18.2,85.2-103.2,85.2-103.2C396.7,72.2,322.7,0,230.8,0C165.7,0,123.8,36.6,112.1,49.2z"/>
<linearGradient id="SVGID_15_" gradientUnits="userSpaceOnUse" x1="661.1471" y1="-238.2633" x2="798.5014" y2="-249.5915" gradientTransform="matrix(4.489700e-11 -1 1 4.489700e-11 591.6743 877.4639)">
	<stop  offset="0" style="stop-color:#000000"/>
	<stop  offset="1" style="stop-color:#000000;stop-opacity:0"/>
</linearGradient>
<path style="opacity:0.3;fill:url(#SVGID_15_);" d="M328.1,255.3c72.8-76,45.9-169.4,20.7-205.7L339,89.8
	c12.2,16.9,24.9,45.5,23.8,76.7C361.6,200.5,353.3,225.4,328.1,255.3z"/>
<linearGradient id="SVGID_16_" gradientUnits="userSpaceOnUse" x1="358.4594" y1="-15.2596" x2="246.433" y2="283.9167">
	<stop  offset="0" style="stop-color:#4DD0FF"/>
	<stop  offset="1" style="stop-color:#5D1BB0"/>
</linearGradient>
<path class="st16" d="M347.7,47.7c31.4,48.6,41.2,120.8-0.5,184.1c-23.4,35.5-64.3,66.7-117.3,66c0,0-48.2,4.5-92.2-38.2
	c30,32.5,74.6,48.8,103.6,50.6c31.8,1.9,63.6-1.2,105.6-24.8c31.2-30.1,50.1-72.5,50.1-119.5C396.9,100.8,359.1,58.4,347.7,47.7z"/>
<linearGradient id="SVGID_17_" gradientUnits="userSpaceOnUse" x1="266.9098" y1="222.7439" x2="273.4995" y2="81.7225">
	<stop  offset="0.1634" style="stop-color:#BDCCFF;stop-opacity:0"/>
	<stop  offset="0.5" style="stop-color:#BDCCFF"/>
	<stop  offset="0.8663" style="stop-color:#BDCCFF;stop-opacity:0"/>
</linearGradient>
<path style="opacity:0.7;fill:url(#SVGID_17_);" d="M347.7,47.7c31.4,48.6,41.2,120.8-0.5,184.1c-23.4,35.5-64.3,66.7-117.3,66
	c0,0-48.2,4.5-92.2-38.2c30,32.5,74.6,48.8,103.6,50.6c31.8,1.9,63.6-1.2,105.6-24.8c31.2-30.1,50.1-72.5,50.1-119.5
	C396.9,100.8,359.1,58.4,347.7,47.7z"/>
<linearGradient id="SVGID_18_" gradientUnits="userSpaceOnUse" x1="367.3239" y1="-2.4528" x2="122.1939" y2="295.3383">
	<stop  offset="0" style="stop-color:#4DD0FF"/>
	<stop  offset="1" style="stop-color:#5D1BB0"/>
</linearGradient>
<path class="st18" d="M157.7,150.5C274.6,178,362.2,88.8,362.2,0l35,0c0,59.8-30.1,123-94.1,152C262,170.6,209,174.8,157.7,150.5z"
	/>
<linearGradient id="SVGID_19_" gradientUnits="userSpaceOnUse" x1="192.8778" y1="152.3703" x2="147.8467" y2="115.5891">
	<stop  offset="0" style="stop-color:#000000"/>
	<stop  offset="1" style="stop-color:#000000;stop-opacity:0"/>
</linearGradient>
<path style="opacity:0.4;fill:url(#SVGID_19_);" d="M232.1,152.5c-25.9,5.9-56.4,2.5-74.4-2c-26.2-12.7-48-35.6-48-35.6l39.5-4.3
	C149.3,110.6,182.1,144.1,232.1,152.5z"/>
<linearGradient id="SVGID_20_" gradientUnits="userSpaceOnUse" x1="265.5395" y1="119.8569" x2="352.8728" y2="-12.1431">
	<stop  offset="0.1634" style="stop-color:#A6F6FF;stop-opacity:0"/>
	<stop  offset="0.5" style="stop-color:#A6F6FF"/>
	<stop  offset="0.8663" style="stop-color:#A6F6FF;stop-opacity:0"/>
</linearGradient>
<path style="opacity:0.7;fill:url(#SVGID_20_);" d="M157.7,150.5C274.6,178,362.2,88.8,362.2,0l35,0c0,59.8-30.1,123-94.1,152
	C262,170.6,209,174.8,157.7,150.5z"/>
<linearGradient id="SVGID_21_" gradientUnits="userSpaceOnUse" x1="119.3015" y1="101.2011" x2="138.8741" y2="118.6288">
	<stop  offset="0" style="stop-color:#000000"/>
	<stop  offset="1" style="stop-color:#000000;stop-opacity:0"/>
</linearGradient>
<path style="opacity:0.8;fill:url(#SVGID_21_);" d="M109.7,114.9c0,0,5.6-15.6,17.4-29.8c4.3,7.8,22.1,25.5,22.1,25.5L131.3,134
	C125,130.5,109.7,114.9,109.7,114.9z"/>
<linearGradient id="SVGID_22_" gradientUnits="userSpaceOnUse" x1="313.1924" y1="53.7819" x2="134.6151" y2="51.7792">
	<stop  offset="0" style="stop-color:#000000"/>
	<stop  offset="1" style="stop-color:#000000;stop-opacity:0"/>
</linearGradient>
<path class="st22" d="M112.5,49.1c24.7-15.7,64.8-30.7,108.5-26.5c38.8,3.7,81.4,21.1,113.5,62.2c-34.7-43.1-84.4-55.2-123.2-49.4
	S145,63.1,137.5,72.8L112.5,49.1z"/>
<linearGradient id="SVGID_23_" gradientUnits="userSpaceOnUse" x1="108.4402" y1="104.359" x2="116.7736" y2="264.359">
	<stop  offset="0" style="stop-color:#000000"/>
	<stop  offset="1" style="stop-color:#000000;stop-opacity:0"/>
</linearGradient>
<path style="opacity:0.8;fill:url(#SVGID_23_);" d="M113.4,283.9C57.7,195.7,100,109.3,133.9,76.3C65.3,155,115.7,243,137.7,259.7
	L113.4,283.9z"/>
<linearGradient id="SVGID_24_" gradientUnits="userSpaceOnUse" x1="179.5904" y1="288.6507" x2="319.3448" y2="277.1246">
	<stop  offset="0" style="stop-color:#000000"/>
	<stop  offset="1" style="stop-color:#000000;stop-opacity:0"/>
</linearGradient>
<path style="opacity:0.3;fill:url(#SVGID_24_);" d="M139.9,262.5c83.9,78.9,173.6,43.9,209.3,21l-43.6-9.1
	c-16.9,12.2-45.5,24.1-76.7,23.8C194.3,297.8,169.8,287.7,139.9,262.5z"/>
<linearGradient id="SVGID_25_" gradientUnits="userSpaceOnUse" x1="363.353" y1="105.1942" x2="376.3801" y2="122.3518">
	<stop  offset="0" style="stop-color:#000000"/>
	<stop  offset="1" style="stop-color:#000000;stop-opacity:0"/>
</linearGradient>
<path style="opacity:0.3;fill:url(#SVGID_25_);" d="M352.7,116c0,0,16.2-16.2,23.2-31.5c9.2,15.6,15.9,41,15.9,41l-32.1,12.1
	C357.2,127.4,352.7,116,352.7,116z"/>
<linearGradient id="SVGID_26_" gradientUnits="userSpaceOnUse" x1="363.353" y1="105.1942" x2="376.3801" y2="122.3518">
	<stop  offset="0" style="stop-color:#000000"/>
	<stop  offset="1" style="stop-color:#000000;stop-opacity:0"/>
</linearGradient>
<path style="opacity:0.2;fill:url(#SVGID_26_);" d="M352.7,116c0,0,16.2-16.2,23.2-31.5c9.2,15.6,15.9,41,15.9,41l-32.1,12.1
	C357.2,127.4,352.7,116,352.7,116z"/>
<linearGradient id="SVGID_27_" gradientUnits="userSpaceOnUse" x1="112.4977" y1="48.8687" x2="160.6486" y2="21.0351">
	<stop  offset="0" style="stop-color:#000000"/>
	<stop  offset="1" style="stop-color:#000000;stop-opacity:0"/>
</linearGradient>
<path style="opacity:0.2;fill:url(#SVGID_27_);" d="M112.3,48.9c7-4,24.4-15.1,47.9-21c0,0-0.4-8.9-0.8-12
	C131.4,29.1,118.5,43.2,112.3,48.9z"/>
<linearGradient id="SVGID_28_" gradientUnits="userSpaceOnUse" x1="112.4977" y1="48.8687" x2="160.6486" y2="21.0351">
	<stop  offset="0" style="stop-color:#000000"/>
	<stop  offset="1" style="stop-color:#000000;stop-opacity:0"/>
</linearGradient>
<path style="opacity:0.2;fill:url(#SVGID_28_);" d="M112.3,48.9c7-4,24.4-15.1,47.9-21c0,0-0.4-8.9-0.8-12
	C131.4,29.1,118.5,43.2,112.3,48.9z"/>
<linearGradient id="SVGID_29_" gradientUnits="userSpaceOnUse" x1="238.5479" y1="454.8823" x2="229.3499" y2="412.7495">
	<stop  offset="0" style="stop-color:#000000"/>
	<stop  offset="1" style="stop-color:#000000;stop-opacity:0"/>
</linearGradient>
<path style="opacity:0.8;fill:url(#SVGID_29_);" d="M213.1,417.8l0.1,44.2c7.3-4.1,31.9-22.5,35.8-82.2
	C234.2,412.8,213.1,417.8,213.1,417.8z"/>
<linearGradient id="SVGID_30_" gradientUnits="userSpaceOnUse" x1="255.9182" y1="443.0253" x2="233.9617" y2="423.4424">
	<stop  offset="0" style="stop-color:#000000"/>
	<stop  offset="1" style="stop-color:#000000;stop-opacity:0"/>
</linearGradient>
<path style="opacity:0.4;fill:url(#SVGID_30_);" d="M213.1,417.8l0.1,44.2c7.3-4.1,31.9-22.5,35.8-82.2
	C234.2,412.8,213.1,417.8,213.1,417.8z"/>
<linearGradient id="SVGID_31_" gradientUnits="userSpaceOnUse" x1="242.2674" y1="399.8409" x2="227.1352" y2="364.8292">
	<stop  offset="0" style="stop-color:#000000"/>
	<stop  offset="0.1278" style="stop-color:#000000;stop-opacity:0.8722"/>
	<stop  offset="1" style="stop-color:#000000;stop-opacity:0"/>
</linearGradient>
<path style="opacity:0.6;fill:url(#SVGID_31_);" d="M213.2,409.3c18.3-6.9,34.3-28.8,35.8-70.4c-8.6,18.7-35.9,24-35.9,24
	L213.2,409.3z"/>
<linearGradient id="SVGID_32_" gradientUnits="userSpaceOnUse" x1="243.3787" y1="388.0748" x2="237.1478" y2="380.9538">
	<stop  offset="0" style="stop-color:#000000"/>
	<stop  offset="1" style="stop-color:#000000;stop-opacity:0"/>
</linearGradient>
<path style="opacity:0.4;fill:url(#SVGID_32_);" d="M213.2,409.3c18.3-6.9,34.3-28.8,35.8-70.4c-8.6,18.7-35.9,24-35.9,24
	L213.2,409.3z"/>
<linearGradient id="SVGID_33_" gradientUnits="userSpaceOnUse" x1="228.7213" y1="355.7513" x2="226.6483" y2="342.1284">
	<stop  offset="0" style="stop-color:#000000"/>
	<stop  offset="1" style="stop-color:#000000;stop-opacity:0"/>
</linearGradient>
<path style="opacity:0.4;fill:url(#SVGID_33_);" d="M213.2,358.8c0,0,19.2-0.4,28.3-23.2l-28.2,0.6L213.2,358.8z"/>
<linearGradient id="SVGID_34_" gradientUnits="userSpaceOnUse" x1="228.2854" y1="357.5591" x2="227.9887" y2="353.9986">
	<stop  offset="0" style="stop-color:#000000"/>
	<stop  offset="1" style="stop-color:#000000;stop-opacity:0"/>
</linearGradient>
<path style="opacity:0.2;fill:url(#SVGID_34_);" d="M213.2,358.8c0,0,19.2-0.4,28.3-23.2l-28.2,0.6L213.2,358.8z"/>
<linearGradient id="SVGID_35_" gradientUnits="userSpaceOnUse" x1="231.4208" y1="334" x2="231.4208" y2="356.0404">
	<stop  offset="0" style="stop-color:#000000"/>
	<stop  offset="1" style="stop-color:#000000;stop-opacity:0"/>
</linearGradient>
<path style="opacity:0.19;fill:url(#SVGID_35_);" d="M249.4,331.6c-22.3,2.1-36.1,0-36.1,0v44.5h36L249.4,331.6z"/>
<linearGradient id="SVGID_36_" gradientUnits="userSpaceOnUse" x1="231.4208" y1="333.3333" x2="231.4208" y2="374.672">
	<stop  offset="0" style="stop-color:#000000"/>
	<stop  offset="1" style="stop-color:#000000;stop-opacity:0"/>
</linearGradient>
<path style="opacity:0.8;fill:url(#SVGID_36_);" d="M249.4,331.6c-22.3,2.1-36.1,0-36.1,0v44.5h36L249.4,331.6z"/>
</svg>
