<?xml version="1.0" encoding="utf-8"?>
<!-- Generator: Adobe Illustrator 18.0.0, SVG Export Plug-In . SVG Version: 6.00 Build 0)  -->
<!DOCTYPE svg PUBLIC "-//W3C//DTD SVG 1.1//EN" "http://www.w3.org/Graphics/SVG/1.1/DTD/svg11.dtd">
<svg version="1.1" id="Calque_1" xmlns="http://www.w3.org/2000/svg" xmlns:xlink="http://www.w3.org/1999/xlink" x="0px" y="0px"
	 viewBox="0 0 300 4102.9" style="enable-background:new 0 0 300 4102.9;" xml:space="preserve">
<style type="text/css">
	.st0{fill:#FFFFFF;}
</style>
<g>
	<path class="st0" d="M182.1,178.7h108.6v73.1H9.3v-73.1h115.3V73.1H9.3V0h281.3v73.1H182.1V178.7z"/>
	<path class="st0" d="M155.2,596.6C64.2,596.6,0,531.3,0,441s64.2-155.6,155.2-155.6c85.1,0,144.8,74.6,144.8,155.6
		C300,522,240.3,596.6,155.2,596.6z M154.9,361.6c-48.5,0-84,35.8-84,79.5s35.4,79.5,84,79.5c38.8,0,74.3-35.8,74.3-79.5
		S193.7,361.6,154.9,361.6z"/>
	<path class="st0" d="M290.7,661.6v72l-150.4,57.1l150.4,60.4v72.8L9.3,966.4v-73.1l161.9-20.5V872L9.3,804.5v-29.1l161.9-64.6v-0.7
		L9.3,686.6v-72.8L290.7,661.6z"/>
	<path class="st0" d="M228.7,1070.5h-47v82.5h-61.9v-82.5H71.3v86.9H9.3V997.4h281.3v160.1h-61.9V1070.5z"/>
	<path class="st0" d="M290.7,1202.6v111.9c0,60.4-28,102.2-92.5,102.2c-66.4,0-95.5-35.8-95.5-99.6v-41.4H9.3v-73.1H290.7z
		 M161.6,1275.7v12.3c0,26.5,0,52.6,34.3,52.6c35.4,0,35.8-24.3,35.8-52.6v-12.3H161.6z"/>
	<path class="st0" d="M58.2,1493.3l-48.9-19.4v-77.6l281.3,108.2v79.9l-281.3,106v-78l48.9-18.3V1493.3z M203.7,1544.4v-0.7
		l-89.6-30.2v60.8L203.7,1544.4z"/>
	<path class="st0" d="M166.4,1993.6c-41-0.7-76.1-3.7-111.2-28.7c-38.4-27.6-55.2-69-55.2-116c0-88.4,60.1-150,148.5-150
		c91.4,0,151.5,61.9,151.5,152.6c0,57.8-26.1,102.6-78.7,126.9l-29.1-69.4c26.9-10.1,44.8-31.3,44.8-60.8
		c0-48.1-45.9-73.1-88.8-73.1c-43.7,0-88.1,26.1-88.1,74.3c0,31.7,16.4,56,48.9,59v-59.7h57.5V1993.6z"/>
	<path class="st0" d="M228.7,2100.3h-47v82.5h-61.9v-82.5H71.3v86.9H9.3v-160.1h281.3v160.1h-61.9V2100.3z"/>
	<path class="st0" d="M290.7,2360.4v103.7c0,78.4-61.6,142.9-140.7,142.9c-79.1,0-140.7-64.9-140.7-142.9v-103.7H290.7z
		 M71.3,2433.5v16.4c0,43.7,23.9,81,78.7,81c50.4,0,78.7-33.2,78.7-80.2v-17.2H71.3z"/>
	<path class="st0" d="M228.7,2714.1h-47v82.5h-61.9v-82.5H71.3v86.9H9.3V2641h281.3v160.1h-61.9V2714.1z"/>
	<path class="st0" d="M218.3,3000.7c11.2-13.4,18.7-30.6,18.7-48.5c0-13.4-7.8-31.3-23.5-31.3c-16.4,0-22.8,19.8-26.9,32.5L181,2972
		c-11.6,39.2-31.3,69.4-76.9,69.4c-28,0-56.7-6.7-75.7-29.1c-18.7-22-26.5-51.5-26.5-79.9c0-35.4,11.9-70.1,32.1-98.9l59,31.3
		c-16,18.3-29.1,39.9-29.1,64.9c0,17.2,8.6,35.4,28.4,35.4c20.5,0,27.6-28.7,32.1-44.4c13.1-45.9,25-76.1,79.5-76.1
		c57.1,0,94.4,40.7,94.4,97c0,28.4-9,63.1-23.1,88.1L218.3,3000.7z"/>
	<path class="st0" d="M290.7,3238.4v90.7l-133.2-111.9l-148.1,122v-94.8l122-94.4v-0.7H9.3v-73.1h281.3v73.1h-116v0.7L290.7,3238.4z
		"/>
	<path class="st0" d="M9.3,3470.8v-73.1h219.4v-60.4h61.9v194h-61.9v-60.4H9.3z"/>
	<path class="st0" d="M155.2,3854.8c-91,0-155.2-65.3-155.2-155.6s64.2-155.6,155.2-155.6c85.1,0,144.8,74.6,144.8,155.6
		C300,3780.2,240.3,3854.8,155.2,3854.8z M154.9,3619.7c-48.5,0-84,35.8-84,79.5c0,43.7,35.4,79.5,84,79.5
		c38.8,0,74.3-35.8,74.3-79.5C229.1,3655.5,193.7,3619.7,154.9,3619.7z"/>
	<path class="st0" d="M290.7,3888.7v111.9c0,60.4-28,102.2-92.5,102.2c-66.4,0-95.5-35.8-95.5-99.6v-41.4H9.3v-73.1H290.7z
		 M161.6,3961.9v12.3c0,26.5,0,52.6,34.3,52.6c35.4,0,35.8-24.3,35.8-52.6v-12.3H161.6z"/>
</g>
</svg>
