<?xml version="1.0" encoding="utf-8"?>
<!-- Generator: Adobe Illustrator 18.0.0, SVG Export Plug-In . SVG Version: 6.00 Build 0)  -->
<!DOCTYPE svg PUBLIC "-//W3C//DTD SVG 1.1//EN" "http://www.w3.org/Graphics/SVG/1.1/DTD/svg11.dtd">
<svg version="1.1" id="Calque_1" xmlns="http://www.w3.org/2000/svg" xmlns:xlink="http://www.w3.org/1999/xlink" x="0px" y="0px"
	 viewBox="0 0 288 288" style="enable-background:new 0 0 288 288;" xml:space="preserve">
<style type="text/css">
	.st0{fill:#FFFFFF;}
	.st1{opacity:0.4;}
	.st2{fill:#A8ADB9;}
	.st3{fill:#373737;}
	.st4{fill:#00B0DC;}
</style>
<g>
	<path class="st0" d="M284,288H4c-2.2,0-4-1.8-4-4V4c0-2.2,1.8-4,4-4h280c2.2,0,4,1.8,4,4v280C288,286.2,286.2,288,284,288z"/>
	<g class="st1">
		<rect x="55.8" y="56.3" class="st2" width="0.5" height="176"/>
		<rect x="59.9" y="56.3" class="st2" width="0.5" height="176"/>
		<rect x="64" y="56.3" class="st2" width="0.5" height="176"/>
		<rect x="68.1" y="56.3" class="st2" width="0.5" height="176"/>
		<rect x="72.2" y="56.3" class="st2" width="0.5" height="176"/>
		<rect x="76.3" y="56.3" class="st2" width="0.5" height="176"/>
		<rect x="80.3" y="56.3" class="st2" width="0.5" height="176"/>
		<rect x="84.4" y="56.3" class="st2" width="0.5" height="176"/>
		<rect x="92.6" y="56.3" class="st2" width="0.5" height="176"/>
		<rect x="96.7" y="56.3" class="st2" width="0.5" height="176"/>
		<rect x="100.8" y="56.3" class="st2" width="0.5" height="176"/>
		<rect x="109" y="56.3" class="st2" width="0.5" height="176"/>
		<rect x="117.2" y="56.3" class="st2" width="0.5" height="176"/>
		<rect x="125.4" y="56.3" class="st2" width="0.5" height="176"/>
		<rect x="133.6" y="56.3" class="st2" width="0.5" height="176"/>
		<rect x="141.8" y="56.3" class="st2" width="0.5" height="176"/>
		<rect x="149.9" y="56.3" class="st2" width="0.5" height="176"/>
		<rect x="158.1" y="56.3" class="st2" width="0.5" height="176"/>
		<rect x="166.3" y="56.3" class="st2" width="0.5" height="176"/>
		<rect x="174.5" y="56.3" class="st2" width="0.5" height="176"/>
		<rect x="182.7" y="56.3" class="st2" width="0.5" height="176"/>
		<rect x="190.9" y="56.3" class="st2" width="0.5" height="176"/>
		<rect x="195" y="56.3" class="st2" width="0.5" height="176"/>
		<rect x="199.1" y="56.3" class="st2" width="0.5" height="176"/>
		<rect x="203.2" y="56.3" class="st2" width="0.5" height="176"/>
		<rect x="207.3" y="56.3" class="st2" width="0.5" height="176"/>
		<rect x="211.4" y="56.3" class="st2" width="0.5" height="176"/>
		<rect x="215.4" y="56.3" class="st2" width="0.5" height="176"/>
		<rect x="219.5" y="56.3" class="st2" width="0.5" height="176"/>
		<rect x="223.6" y="56.3" class="st2" width="0.5" height="176"/>
		<rect x="227.7" y="56.3" class="st2" width="0.5" height="176"/>
		<rect x="231.8" y="56.3" class="st2" width="0.5" height="176"/>
		<rect x="88.5" y="56.3" class="st2" width="0.5" height="176"/>
		<rect x="104.9" y="56.3" class="st2" width="0.5" height="176"/>
		<rect x="113.1" y="56.3" class="st2" width="0.5" height="176"/>
		<rect x="121.3" y="56.3" class="st2" width="0.5" height="176"/>
		<rect x="129.5" y="56.3" class="st2" width="0.5" height="176"/>
		<rect x="137.7" y="56.3" class="st2" width="0.5" height="176"/>
		<rect x="145.9" y="56.3" class="st2" width="0.5" height="176"/>
		<rect x="154" y="56.3" class="st2" width="0.5" height="176"/>
		<rect x="162.2" y="56.3" class="st2" width="0.5" height="176"/>
		<rect x="170.4" y="56.3" class="st2" width="0.5" height="176"/>
		<rect x="178.6" y="56.3" class="st2" width="0.5" height="176"/>
		<rect x="186.8" y="56.3" class="st2" width="0.5" height="176"/>
		<rect x="56.5" y="55.8" class="st2" width="176" height="0.5"/>
		<rect x="56.5" y="59.9" class="st2" width="176" height="0.5"/>
		<rect x="56.5" y="64" class="st2" width="176" height="0.5"/>
		<rect x="56.5" y="68.1" class="st2" width="176" height="0.5"/>
		<rect x="56.5" y="72.2" class="st2" width="176" height="0.5"/>
		<rect x="56.5" y="76.3" class="st2" width="176" height="0.5"/>
		<rect x="56.5" y="80.4" class="st2" width="176" height="0.5"/>
		<rect x="56.5" y="84.5" class="st2" width="176" height="0.5"/>
		<rect x="56.5" y="92.6" class="st2" width="176" height="0.5"/>
		<rect x="56.5" y="96.7" class="st2" width="176" height="0.5"/>
		<rect x="56.5" y="100.8" class="st2" width="176" height="0.5"/>
		<rect x="56.5" y="109" class="st2" width="176" height="0.5"/>
		<rect x="56.5" y="117.2" class="st2" width="176" height="0.5"/>
		<rect x="56.5" y="125.4" class="st2" width="176" height="0.5"/>
		<rect x="56.5" y="133.6" class="st2" width="176" height="0.5"/>
		<rect x="56.5" y="141.8" class="st2" width="176" height="0.5"/>
		<rect x="56.5" y="150" class="st2" width="176" height="0.5"/>
		<rect x="56.5" y="158.1" class="st2" width="176" height="0.5"/>
		<rect x="56.5" y="166.3" class="st2" width="176" height="0.5"/>
		<rect x="56.5" y="174.5" class="st2" width="176" height="0.5"/>
		<rect x="56.5" y="182.7" class="st2" width="176" height="0.5"/>
		<rect x="56.5" y="190.9" class="st2" width="176" height="0.5"/>
		<rect x="56.5" y="195" class="st2" width="176" height="0.5"/>
		<rect x="56.5" y="199.1" class="st2" width="176" height="0.5"/>
		<rect x="56.5" y="203.2" class="st2" width="176" height="0.5"/>
		<rect x="56.5" y="207.3" class="st2" width="176" height="0.5"/>
		<rect x="56.5" y="211.4" class="st2" width="176" height="0.5"/>
		<rect x="56.5" y="215.5" class="st2" width="176" height="0.5"/>
		<rect x="56.5" y="219.6" class="st2" width="176" height="0.5"/>
		<rect x="56.5" y="223.6" class="st2" width="176" height="0.5"/>
		<rect x="56.5" y="227.7" class="st2" width="176" height="0.5"/>
		<rect x="56.5" y="231.8" class="st2" width="176" height="0.5"/>
		<rect x="56.5" y="88.5" class="st2" width="176" height="0.5"/>
		<rect x="56.5" y="104.9" class="st2" width="176" height="0.5"/>
		<rect x="56.5" y="113.1" class="st2" width="176" height="0.5"/>
		<rect x="56.5" y="121.3" class="st2" width="176" height="0.5"/>
		<rect x="56.5" y="129.5" class="st2" width="176" height="0.5"/>
		<rect x="56.5" y="137.7" class="st2" width="176" height="0.5"/>
		<rect x="56.5" y="145.9" class="st2" width="176" height="0.5"/>
		<rect x="56.5" y="154.1" class="st2" width="176" height="0.5"/>
		<rect x="56.5" y="162.2" class="st2" width="176" height="0.5"/>
		<rect x="56.5" y="170.4" class="st2" width="176" height="0.5"/>
		<rect x="56.5" y="178.6" class="st2" width="176" height="0.5"/>
		<rect x="56.5" y="186.8" class="st2" width="176" height="0.5"/>
	</g>
	<g class="st1">
		<path class="st3" d="M203.9,207.2c-2.5,0-4.6,2-4.6,4.6v4.3c0,4.4-3.4,7.9-7.8,7.9h-90.7c-6.6,0-12-5.4-12-12l0-12.7h102.7
			c8.9,0,16-7.1,16-16l0.2-111c0-8.8-7.2-16-16-16h-74.9h-7.9h-12c-8.8,0-16,7.2-16,16v128.3l0,0V216c0,8.8,7.2,16,16,16h93.9
			c9.2,0,16.6-7.5,16.6-16.8v-4.6C207.4,208.7,205.8,207.2,203.9,207.2z M191.5,64.3c4.4,0,7.8,2.6,7.8,7l0.1,112.1c0,4.4-3.6,8-8,8
			l-73.8,0l-0.2-127.1H191.5z M88.8,72.2c0-4.4,3.6-7.9,8-7.9h12.4v127l-20.4,0V72.2z"/>
		<polygon class="st3" points="205.6,207.7 205.6,207.7 205.6,207.7 		"/>
		<path class="st3" d="M101.1,207.5c-2.2,0-4,1.8-4,4c0,2.2,1.8,4,4,4l85.9-0.1c2.2,0,4.1-1.7,4.1-3.9c0-2.2-1.8-4-4-4H101.1z"/>
	</g>
	<rect x="56.5" y="10.3" class="st4" width="1" height="34"/>
	<rect x="233.5" y="10.3" class="st4" width="1" height="34"/>
	<rect x="243.5" y="55.3" class="st4" width="34" height="1"/>
	<rect x="243.5" y="232.3" class="st4" width="34" height="1"/>
	<rect x="12.5" y="55.3" class="st4" width="34" height="1"/>
	<rect x="12.5" y="232.3" class="st4" width="34" height="1"/>
	<rect x="56.5" y="244.3" class="st4" width="1" height="34"/>
	<rect x="233.5" y="244.3" class="st4" width="1" height="34"/>
	<g>
		<path class="st4" d="M254.7,141.9v0.8h-0.9v1.2h-0.8v-1.2h-3.9l4.7-6.7h0v6H254.7z M252.9,138.5L252.9,138.5l-2.4,3.4h2.4V138.5z"
			/>
		<path class="st4" d="M260.9,141.9v0.8h-0.9v1.2h-0.8v-1.2h-3.9l4.7-6.7h0v6H260.9z M259.1,138.5L259.1,138.5l-2.4,3.4h2.4V138.5z"
			/>
		<path class="st4" d="M262.9,139.9L262.9,139.9c0.2-0.3,0.4-0.5,0.7-0.6s0.6-0.2,0.9-0.2c0.3,0,0.7,0.1,0.9,0.2
			c0.3,0.1,0.5,0.3,0.7,0.5c0.2,0.2,0.3,0.5,0.5,0.8s0.2,0.6,0.2,0.9c0,0.3-0.1,0.6-0.2,1c-0.1,0.3-0.3,0.6-0.4,0.8
			s-0.4,0.4-0.7,0.5c-0.3,0.1-0.6,0.2-1,0.2c-0.3,0-0.6-0.1-0.9-0.2s-0.5-0.3-0.7-0.6h0v3.3h-0.8v-7.3h0.8V139.9z M264.4,139.9
			c-0.2,0-0.4,0-0.6,0.1c-0.2,0.1-0.3,0.2-0.5,0.4c-0.1,0.2-0.2,0.3-0.3,0.5s-0.1,0.4-0.1,0.6c0,0.2,0,0.5,0.1,0.7
			c0.1,0.2,0.2,0.4,0.3,0.6c0.1,0.2,0.3,0.3,0.5,0.4c0.2,0.1,0.4,0.1,0.7,0.1c0.3,0,0.5,0,0.7-0.1s0.4-0.2,0.5-0.4
			c0.1-0.2,0.2-0.4,0.3-0.6c0.1-0.2,0.1-0.4,0.1-0.7c0-0.2,0-0.5-0.1-0.7c-0.1-0.2-0.2-0.4-0.3-0.5s-0.3-0.3-0.5-0.4
			C264.8,139.9,264.6,139.9,264.4,139.9z"/>
		<path class="st4" d="M267.4,139.2h1l1.2,1.6l1.2-1.6h1l-1.7,2.2l2,2.5h-1l-1.5-1.9l-1.5,1.9h-1l2-2.5L267.4,139.2z"/>
	</g>
	<g>
		<path class="st4" d="M139.6,261.9v0.8h-0.9v1.2h-0.8v-1.2H134l4.7-6.7h0v6H139.6z M137.8,258.5L137.8,258.5l-2.4,3.4h2.4V258.5z"
			/>
		<path class="st4" d="M145.7,261.9v0.8h-0.9v1.2H144v-1.2h-3.9l4.7-6.7h0v6H145.7z M144,258.5L144,258.5l-2.4,3.4h2.4V258.5z"/>
		<path class="st4" d="M147.7,259.9L147.7,259.9c0.2-0.3,0.4-0.5,0.7-0.6s0.6-0.2,0.9-0.2c0.3,0,0.7,0.1,0.9,0.2
			c0.3,0.1,0.5,0.3,0.7,0.5c0.2,0.2,0.3,0.5,0.5,0.8s0.2,0.6,0.2,0.9c0,0.3-0.1,0.6-0.2,1c-0.1,0.3-0.3,0.6-0.4,0.8
			s-0.4,0.4-0.7,0.5c-0.3,0.1-0.6,0.2-1,0.2c-0.3,0-0.6-0.1-0.9-0.2s-0.5-0.3-0.7-0.6h0v3.3h-0.8v-7.3h0.8V259.9z M149.2,259.9
			c-0.2,0-0.4,0-0.6,0.1c-0.2,0.1-0.3,0.2-0.5,0.4c-0.1,0.2-0.2,0.3-0.3,0.5s-0.1,0.4-0.1,0.6c0,0.2,0,0.5,0.1,0.7
			c0.1,0.2,0.2,0.4,0.3,0.6c0.1,0.2,0.3,0.3,0.5,0.4c0.2,0.1,0.4,0.1,0.7,0.1c0.3,0,0.5,0,0.7-0.1s0.4-0.2,0.5-0.4
			c0.1-0.2,0.2-0.4,0.3-0.6c0.1-0.2,0.1-0.4,0.1-0.7c0-0.2,0-0.5-0.1-0.7c-0.1-0.2-0.2-0.4-0.3-0.5s-0.3-0.3-0.5-0.4
			C149.7,259.9,149.5,259.9,149.2,259.9z"/>
		<path class="st4" d="M152.3,259.2h1l1.2,1.6l1.2-1.6h1l-1.7,2.2l2,2.5h-1l-1.5-1.9l-1.5,1.9h-1l2-2.5L152.3,259.2z"/>
	</g>
</g>
</svg>
