<svg xmlns="http://www.w3.org/2000/svg" viewBox="0 0 288 288" enable-background="new 0 0 288 288"><style type="text/css">.st0{fill:#FFFFFF;} .st1{opacity:0.4;} .st2{fill:#A8ADB9;} .st3{fill:#373737;} .st4{opacity:0.6;fill:#00B0DC;} .st5{fill:#00B0DC;}</style><path d="M284 288H4c-2.2 0-4-1.8-4-4V4c0-2.2 1.8-4 4-4h280c2.2 0 4 1.8 4 4v280c0 2.2-1.8 4-4 4z" class="st0"/><path d="M55.8 56.3h.5v176h-.5zm4.1 0h.5v176h-.5zm4.1 0h.5v176H64zm4.1 0h.5v176h-.5zm4.1 0h.5v176h-.5zm4.1 0h.5v176h-.5zm4 0h.5v176h-.5zm4.1 0h.5v176h-.5zm8.2 0h.5v176h-.5zm4.1 0h.5v176h-.5zm4.1 0h.5v176h-.5zm8.2 0h.5v176h-.5zm8.2 0h.5v176h-.5zm8.2 0h.5v176h-.5zm8.2 0h.5v176h-.5zm8.2 0h.5v176h-.5zm8.1 0h.5v176h-.5zm8.2 0h.5v176h-.5zm8.2 0h.5v176h-.5zm8.2 0h.5v176h-.5zm8.2 0h.5v176h-.5zm8.2 0h.5v176h-.5zm4.1 0h.5v176h-.5zm4.1 0h.5v176h-.5zm4.1 0h.5v176h-.5zm4.1 0h.5v176h-.5zm4.1 0h.5v176h-.5zm4 0h.5v176h-.5zm4.1 0h.5v176h-.5zm4.1 0h.5v176h-.5zm4.1 0h.5v176h-.5zm4.1 0h.5v176h-.5zm-143.3 0h.5v176h-.5zm16.4 0h.5v176h-.5zm8.2 0h.5v176h-.5zm8.2 0h.5v176h-.5zm8.2 0h.5v176h-.5zm8.2 0h.5v176h-.5zm8.2 0h.5v176h-.5zm8.1 0h.5v176h-.5zm8.2 0h.5v176h-.5zm8.2 0h.5v176h-.5zm8.2 0h.5v176h-.5zm8.2 0h.5v176h-.5zm-130.3-.5h176v.5h-176zm0 4.1h176v.5h-176zm0 4.1h176v.5h-176zm0 4.1h176v.5h-176zm0 4.1h176v.5h-176zm0 4.1h176v.5h-176zm0 4.1h176v.5h-176zm0 4.1h176v.5h-176zm0 8.1h176v.5h-176zm0 4.1h176v.5h-176zm0 4.1h176v.5h-176zm0 8.2h176v.5h-176zm0 8.2h176v.5h-176zm0 8.2h176v.5h-176zm0 8.2h176v.5h-176zm0 8.2h176v.5h-176zm0 8.2h176v.5h-176zm0 8.1h176v.5h-176zm0 8.2h176v.5h-176zm0 8.2h176v.5h-176zm0 8.2h176v.5h-176zm0 8.2h176v.5h-176zm0 4.1h176v.5h-176zm0 4.1h176v.5h-176zm0 4.1h176v.5h-176zm0 4.1h176v.5h-176zm0 4.1h176v.5h-176zm0 4.1h176v.5h-176zm0 4.1h176v.5h-176zm0 4h176v.5h-176zm0 4.1h176v.5h-176zm0 4.1h176v.5h-176zm0-143.3h176v.5h-176zm0 16.4h176v.5h-176zm0 8.2h176v.5h-176zm0 8.2h176v.5h-176zm0 8.2h176v.5h-176zm0 8.2h176v.5h-176zm0 8.2h176v.5h-176zm0 8.2h176v.5h-176zm0 8.1h176v.5h-176zm0 8.2h176v.5h-176zm0 8.2h176v.5h-176zm0 8.2h176v.5h-176z" class="st2"/><path d="M224.5 56.3h-160c-4.4 0-8 3.4-8 7.8v160c0 4.4 3.6 8.2 8 8.2h120.1l47.9-45.6V64.1c0-4.4-3.6-7.8-8-7.8zm-37.3 163.5v-28.5h29.9l-29.9 28.5zm36.7-36.9h-36.8c-4.4 0-8 3.4-8 7.8v33.1H64.5v-131h159.4v90.1zm0-98.1H64.5V64.3h159.4v20.5zM84.5 117.4h120c2.2 0 4-1.8 4-4s-1.8-4-4-4h-120c-2.2 0-4 1.8-4 4s1.8 4 4 4zm0 24.6h112c2.2 0 4-1.8 4-4s-1.8-4-4-4h-112c-2.2 0-4 1.8-4 4s1.8 4 4 4zm0 24.4h120c2.2 0 4-1.8 4-4s-1.8-4-4-4h-120c-2.2 0-4 1.8-4 4s1.8 4 4 4zm0 24.6h76c2.2 0 4-1.8 4-4s-1.8-4-4-4h-76c-2.2 0-4 1.8-4 4s1.8 4 4 4zm0 24.9h68c2.2 0 4-1.8 4-4s-1.8-4-4-4h-68c-2.2 0-4 1.8-4 4s1.8 4 4 4z" class="st3"/><circle cx="187.8" cy="191" r="8.6" class="st4"/><path d="M101.5 92.8H142v16.5h-40.5zm0 41H142v8h-40.5z" class="st4"/><path d="M23.9 103.1v.8H23v1.2h-.8v-1.2h-3.9l4.7-6.7v6h.9zm-1.8-3.4l-2.4 3.4h2.4v-3.4zm3.8 1.3c.2-.3.5-.5.7-.6s.6-.2.9-.2c.3 0 .7.1.9.2.3.1.5.3.7.5.2.2.3.5.5.8.1.3.2.6.2.9 0 .3-.1.6-.2 1-.1.3-.3.6-.4.8s-.4.4-.7.5c-.3.1-.6.2-1 .2-.3 0-.6-.1-.9-.2s-.5-.3-.7-.6v3.3h-.8v-7.3h.8v.7zm1.5 0c-.2 0-.4 0-.6.1-.2.1-.3.2-.5.4-.1.2-.2.3-.3.5s-.1.4-.1.6c0 .2 0 .5.1.7.1.2.2.4.3.6.1.2.3.3.5.4.2.1.4.1.7.1.3 0 .5 0 .7-.1.2-.1.4-.2.5-.4.1-.2.2-.4.3-.6.1-.2.1-.4.1-.7 0-.2 0-.5-.1-.7-.1-.2-.2-.4-.3-.5s-.3-.3-.5-.4c-.4 0-.6 0-.8 0zm3-.6h1l1.2 1.6 1.2-1.6h1l-1.7 2.2 2 2.5h-1l-1.5-1.9-1.5 1.9h-1l2-2.5-1.7-2.2zm-6.9 39.1v.8h-4.9l3.5-4.2c.2-.2.3-.4.4-.6s.1-.4.1-.7c0-.2 0-.4-.1-.6-.1-.2-.2-.3-.3-.5-.1-.1-.3-.2-.5-.3-.2-.1-.4-.1-.6-.1-.2 0-.4 0-.6.1-.2.1-.3.2-.5.3s-.2.3-.3.5c-.1.2-.1.4-.1.6h-.8c0-.3.1-.6.2-.9.1-.3.3-.5.5-.7s.5-.4.7-.5.6-.2.9-.2c.3 0 .6.1.9.2s.5.3.8.5c.2.2.4.4.5.7.1.3.2.6.2.9 0 .6-.2 1.2-.6 1.6l-2.6 3.1h3.2zm2.4-3.2c.2-.3.5-.5.7-.6s.6-.2.9-.2c.3 0 .7.1.9.2.3.1.5.3.7.5.2.2.3.5.5.8.1.3.2.6.2.9 0 .3-.1.6-.2 1-.1.3-.3.6-.4.8s-.4.4-.7.5c-.3.1-.6.2-1 .2-.3 0-.6-.1-.9-.2s-.5-.3-.7-.6v3.3h-.8v-7.3h.8v.7zm1.5-.1c-.2 0-.4 0-.6.1-.2.1-.3.2-.5.4-.1.2-.2.3-.3.5s-.1.4-.1.6c0 .2 0 .5.1.7.1.2.2.4.3.6.1.2.3.3.5.4.2.1.4.1.7.1.3 0 .5 0 .7-.1.2-.1.4-.2.5-.4.1-.2.2-.4.3-.6.1-.2.1-.4.1-.7 0-.2 0-.5-.1-.7-.1-.2-.2-.4-.3-.5s-.3-.3-.5-.4c-.4 0-.6 0-.8 0zm3-.6h1l1.2 1.6 1.2-1.6h1l-1.7 2.2 2 2.5h-1l-1.5-1.9-1.5 1.9h-1l2-2.5-1.7-2.2z" class="st5"/><path d="M43.5 99.8h54v1h-54zm0 38h54v1h-54z" class="st4"/><path d="M23.5 192.5v.8h-4.9l3.5-4.2c.2-.2.3-.4.4-.6s.1-.4.1-.7c0-.2 0-.4-.1-.6-.1-.2-.2-.3-.3-.5-.1-.1-.3-.2-.5-.3-.2-.1-.4-.1-.6-.1-.2 0-.4 0-.6.1-.2.1-.3.2-.5.3s-.2.3-.3.5c-.1.2-.1.4-.1.6h-.8c0-.3.1-.6.2-.9.1-.3.3-.5.5-.7s.5-.4.7-.5.6-.2.9-.2c.3 0 .6.1.9.2s.5.3.8.5c.2.2.4.4.5.7.1.3.2.6.2.9 0 .6-.2 1.2-.6 1.6l-2.6 3.1h3.2zm2.4-3.2c.2-.3.5-.5.7-.6s.6-.2.9-.2c.3 0 .7.1.9.2.3.1.5.3.7.5.2.2.3.5.5.8.1.3.2.6.2.9 0 .3-.1.6-.2 1-.1.3-.3.6-.4.8s-.4.4-.7.5c-.3.1-.6.2-1 .2-.3 0-.6-.1-.9-.2s-.5-.3-.7-.6v3.3h-.8v-7.3h.8v.7zm1.5-.1c-.2 0-.4 0-.6.1-.2.1-.3.2-.5.4-.1.2-.2.3-.3.5s-.1.4-.1.6c0 .2 0 .5.1.7.1.2.2.4.3.6.1.2.3.3.5.4.2.1.4.1.7.1.3 0 .5 0 .7-.1.2-.1.4-.2.5-.4.1-.2.2-.4.3-.6.1-.2.1-.4.1-.7 0-.2 0-.5-.1-.7-.1-.2-.2-.4-.3-.5s-.3-.3-.5-.4c-.4 0-.6 0-.8 0zm3-.6h1l1.2 1.6 1.2-1.6h1l-1.7 2.2 2 2.5h-1l-1.5-1.9-1.5 1.9h-1l2-2.5-1.7-2.2z" class="st5"/><path d="M43.5 190.8h131v1h-131z" class="st4"/></svg>