<svg xmlns="http://www.w3.org/2000/svg" viewBox="0 0 288 288" enable-background="new 0 0 288 288"><style type="text/css">.st0{fill:#FFFFFF;} .st1{opacity:0.4;} .st2{fill:#A8ADB9;} .st3{fill:#373737;} .st4{fill:#00B0DC;}</style><path d="M284 288H4c-2.2 0-4-1.8-4-4V4c0-2.2 1.8-4 4-4h280c2.2 0 4 1.8 4 4v280c0 2.2-1.8 4-4 4z" class="st0"/><g class="st1"><path d="M55.8 56.3h.5v176h-.5zM59.9 56.3h.5v176h-.5zM64 56.3h.5v176H64zM68.1 56.3h.5v176h-.5zM72.2 56.3h.5v176h-.5zM76.3 56.3h.5v176h-.5zM80.3 56.3h.5v176h-.5zM84.4 56.3h.5v176h-.5zM92.6 56.3h.5v176h-.5zM96.7 56.3h.5v176h-.5zM100.8 56.3h.5v176h-.5zM109 56.3h.5v176h-.5zM117.2 56.3h.5v176h-.5zM125.4 56.3h.5v176h-.5zM133.6 56.3h.5v176h-.5zM141.8 56.3h.5v176h-.5zM149.9 56.3h.5v176h-.5zM158.1 56.3h.5v176h-.5zM166.3 56.3h.5v176h-.5zM174.5 56.3h.5v176h-.5zM182.7 56.3h.5v176h-.5zM190.9 56.3h.5v176h-.5zM195 56.3h.5v176h-.5zM199.1 56.3h.5v176h-.5zM203.2 56.3h.5v176h-.5zM207.3 56.3h.5v176h-.5zM211.4 56.3h.5v176h-.5zM215.4 56.3h.5v176h-.5zM219.5 56.3h.5v176h-.5zM223.6 56.3h.5v176h-.5zM227.7 56.3h.5v176h-.5zM231.8 56.3h.5v176h-.5zM88.5 56.3h.5v176h-.5zM104.9 56.3h.5v176h-.5zM113.1 56.3h.5v176h-.5zM121.3 56.3h.5v176h-.5zM129.5 56.3h.5v176h-.5zM137.7 56.3h.5v176h-.5zM145.9 56.3h.5v176h-.5zM154 56.3h.5v176h-.5zM162.2 56.3h.5v176h-.5zM170.4 56.3h.5v176h-.5zM178.6 56.3h.5v176h-.5zM186.8 56.3h.5v176h-.5zM56.5 55.8h176v.5h-176zM56.5 59.9h176v.5h-176zM56.5 64h176v.5h-176zM56.5 68.1h176v.5h-176zM56.5 72.2h176v.5h-176zM56.5 76.3h176v.5h-176zM56.5 80.4h176v.5h-176zM56.5 84.5h176v.5h-176zM56.5 92.6h176v.5h-176zM56.5 96.7h176v.5h-176zM56.5 100.8h176v.5h-176zM56.5 109h176v.5h-176zM56.5 117.2h176v.5h-176zM56.5 125.4h176v.5h-176zM56.5 133.6h176v.5h-176zM56.5 141.8h176v.5h-176zM56.5 150h176v.5h-176zM56.5 158.1h176v.5h-176zM56.5 166.3h176v.5h-176zM56.5 174.5h176v.5h-176zM56.5 182.7h176v.5h-176zM56.5 190.9h176v.5h-176zM56.5 195h176v.5h-176zM56.5 199.1h176v.5h-176zM56.5 203.2h176v.5h-176zM56.5 207.3h176v.5h-176zM56.5 211.4h176v.5h-176zM56.5 215.5h176v.5h-176zM56.5 219.6h176v.5h-176zM56.5 223.6h176v.5h-176zM56.5 227.7h176v.5h-176zM56.5 231.8h176v.5h-176zM56.5 88.5h176v.5h-176zM56.5 104.9h176v.5h-176zM56.5 113.1h176v.5h-176zM56.5 121.3h176v.5h-176zM56.5 129.5h176v.5h-176zM56.5 137.7h176v.5h-176zM56.5 145.9h176v.5h-176zM56.5 154.1h176v.5h-176zM56.5 162.2h176v.5h-176zM56.5 170.4h176v.5h-176zM56.5 178.6h176v.5h-176zM56.5 186.8h176v.5h-176z" class="st2"/></g><g class="st1"><path d="M203.9 207.2c-2.5 0-4.6 2-4.6 4.6v4.3c0 4.4-3.4 7.9-7.8 7.9h-90.7c-6.6 0-12-5.4-12-12v-12.7h102.7c8.9 0 16-7.1 16-16l.2-111c0-8.8-7.2-16-16-16H96.9c-8.8 0-16 7.2-16 16V216c0 8.8 7.2 16 16 16h93.9c9.2 0 16.6-7.5 16.6-16.8v-4.6c0-1.9-1.6-3.4-3.5-3.4zM191.5 64.3c4.4 0 7.8 2.6 7.8 7l.1 112.1c0 4.4-3.6 8-8 8h-73.8l-.2-127.1h74.1zM88.8 72.2c0-4.4 3.6-7.9 8-7.9h12.4v127H88.8V72.2zM205.6 207.7zM101.1 207.5c-2.2 0-4 1.8-4 4s1.8 4 4 4l85.9-.1c2.2 0 4.1-1.7 4.1-3.9s-1.8-4-4-4h-86z" class="st3"/></g><path d="M56.5 10.3h1v34h-1zM233.5 10.3h1v34h-1zM243.5 55.3h34v1h-34zM243.5 232.3h34v1h-34zM12.5 55.3h34v1h-34zM12.5 232.3h34v1h-34zM56.5 244.3h1v34h-1zM233.5 244.3h1v34h-1zM254.7 141.9v.8h-.9v1.2h-.8v-1.2h-3.9l4.7-6.7v6h.9zm-1.8-3.4l-2.4 3.4h2.4v-3.4zM260.9 141.9v.8h-.9v1.2h-.8v-1.2h-3.9l4.7-6.7v6h.9zm-1.8-3.4l-2.4 3.4h2.4v-3.4zM262.9 139.9c.2-.3.4-.5.7-.6s.6-.2.9-.2c.3 0 .7.1.9.2.3.1.5.3.7.5.2.2.3.5.5.8s.2.6.2.9c0 .3-.1.6-.2 1-.1.3-.3.6-.4.8s-.4.4-.7.5c-.3.1-.6.2-1 .2-.3 0-.6-.1-.9-.2s-.5-.3-.7-.6v3.3h-.8v-7.3h.8v.7zm1.5 0c-.2 0-.4 0-.6.1-.2.1-.3.2-.5.4-.1.2-.2.3-.3.5s-.1.4-.1.6c0 .2 0 .5.1.7.1.2.2.4.3.6.1.2.3.3.5.4.2.1.4.1.7.1.3 0 .5 0 .7-.1s.4-.2.5-.4c.1-.2.2-.4.3-.6.1-.2.1-.4.1-.7 0-.2 0-.5-.1-.7-.1-.2-.2-.4-.3-.5s-.3-.3-.5-.4c-.4 0-.6 0-.8 0zM267.4 139.2h1l1.2 1.6 1.2-1.6h1l-1.7 2.2 2 2.5h-1l-1.5-1.9-1.5 1.9h-1l2-2.5-1.7-2.2zM139.6 261.9v.8h-.9v1.2h-.8v-1.2H134l4.7-6.7v6h.9zm-1.8-3.4l-2.4 3.4h2.4v-3.4zM145.7 261.9v.8h-.9v1.2h-.8v-1.2h-3.9l4.7-6.7v6h.9zm-1.7-3.4l-2.4 3.4h2.4v-3.4zM147.7 259.9c.2-.3.4-.5.7-.6s.6-.2.9-.2c.3 0 .7.1.9.2.3.1.5.3.7.5.2.2.3.5.5.8s.2.6.2.9c0 .3-.1.6-.2 1-.1.3-.3.6-.4.8s-.4.4-.7.5c-.3.1-.6.2-1 .2-.3 0-.6-.1-.9-.2s-.5-.3-.7-.6v3.3h-.8v-7.3h.8v.7zm1.5 0c-.2 0-.4 0-.6.1-.2.1-.3.2-.5.4-.1.2-.2.3-.3.5s-.1.4-.1.6c0 .2 0 .5.1.7.1.2.2.4.3.6.1.2.3.3.5.4.2.1.4.1.7.1.3 0 .5 0 .7-.1s.4-.2.5-.4c.1-.2.2-.4.3-.6.1-.2.1-.4.1-.7 0-.2 0-.5-.1-.7-.1-.2-.2-.4-.3-.5s-.3-.3-.5-.4c-.3 0-.5 0-.8 0zM152.3 259.2h1l1.2 1.6 1.2-1.6h1l-1.7 2.2 2 2.5h-1l-1.5-1.9-1.5 1.9h-1l2-2.5-1.7-2.2z" class="st4"/></svg>