<svg xmlns="http://www.w3.org/2000/svg" viewBox="0 0 1018 121.5" enable-background="new 0 0 1018 121.5"><style type="text/css">.st0{fill:#FFFFFF;}</style><path d="M31.1 38.7c-.6 0-1.1.5-1.1 1.1v1.1c0 1.1-.9 2-2 2H5c-1.7 0-3-1.3-3-3v-3h26c2.2 0 4-1.8 4-4v-28c0-2.2-1.8-4-4-4H4c-2.2 0-4 1.8-4 4v36c0 2.2 1.8 4 4 4h23.9c2.3 0 4.1-1.9 4.1-4.2v-1.2c0-.4-.4-.8-.9-.8zm-3-35.8c1.1 0 2 .6 2 1.7v28.3c0 1.1-.9 2-2 2H9v-32h19.1zM2 4.9c0-1.1.9-2 2-2h3v32H2v-30zm29.2 33.8zM5 38.9c-.6 0-1 .4-1 1s.4 1 1 1h22c.6 0 1-.4 1-1s-.4-1-1-1H5z" class="st0"/><circle cx="196" cy="38.9" r="2" class="st0"/><path d="M205 0h-17.9c-2.2 0-4.1 2.7-4.1 4.9V6h-.5c-.3 0-.5 1.1-.5 1.4v1c0 .3.2-.4.5-.4h.5v2h-.5c-.3 0-.5 1.1-.5 1.4v3c0 .3.2-.4.5-.4h.5v2h-.5c-.3 0-.5 1.1-.5 1.4v3c0 .3.2-.4.5-.4h.5v20.9c0 2.2 1.9 3.1 4.1 3.1H205c2.2 0 4-.9 4-3.1v-36c0-2.2-1.8-4.9-4-4.9zm2 40.9c0 1.1-.9 1.1-2 1.1h-18c-1.1 0-2 0-2-1.1V34h22v6.9zm0-8.9h-22V7h22v25zm0-27h-22v-.1c0-1.1 1-2.9 2.1-2.9H205c1.1 0 2 1.8 2 2.9V5zm-4.5-2h-13c-.3 0-.5.2-.5.5s.2.5.5.5h13c.3 0 .5-.2.5-.5s-.3-.5-.5-.5zm-13 8h13c.3 0 .5-.2.5-.5s-.2-.5-.5-.5h-13c-.3 0-.5.2-.5.5s.2.5.5.5zm0 3h13c.3 0 .5-.2.5-.5s-.2-.5-.5-.5h-13c-.3 0-.5.2-.5.5s.2.5.5.5zm0 3h13c.3 0 .5-.2.5-.5s-.2-.5-.5-.5h-13c-.3 0-.5.2-.5.5s.2.5.5.5zm0 3h13c.3 0 .5-.2.5-.5s-.2-.5-.5-.5h-13c-.3 0-.5.2-.5.5s.2.5.5.5zm0 3h13c.3 0 .5-.2.5-.5s-.2-.5-.5-.5h-13c-.3 0-.5.2-.5.5s.2.5.5.5zm0 3h13c.3 0 .5-.2.5-.5s-.2-.5-.5-.5h-13c-.3 0-.5.2-.5.5s.2.5.5.5zm0 3h13c.3 0 .5-.2.5-.5s-.2-.5-.5-.5h-13c-.3 0-.5.2-.5.5s.2.5.5.5zm189-16.1l10.9-2.5c.3-.1.6-.4.6-.7 0-.5-.5-.8-1-.7l-10.9 2.5c-.4.1-.6.4-.6.8.1.4.6.6 1 .6zm0 4.1l10.9-2.5c.3-.1.6-.4.6-.7 0-.5-.5-.8-1-.7l-10.9 2.5c-.4.1-.6.4-.6.8.1.4.6.7 1 .6zm0 4.1l10.9-2.5c.3-.1.6-.4.6-.7 0-.5-.5-.8-1-.7l-10.9 2.5c-.4.1-.6.4-.6.8.1.4.6.7 1 .6zm0 4.2l10.9-2.5c.3-.1.6-.4.6-.7 0-.5-.5-.8-1-.7l-10.9 2.5c-.4.1-.6.4-.6.8.1.4.6.7 1 .6zm0 4.1l10.9-2.5c.3-.1.6-.4.6-.7 0-.5-.5-.8-1-.7L378.2 28c-.4.1-.6.4-.6.8s.5.7.9.6zm0 4.2l10.9-2.5c.3-.1.6-.4.6-.7 0-.5-.5-.8-1-.7l-10.9 2.5c-.4.1-.6.4-.6.8.1.4.6.7 1 .6zM370.2 13h-2.6c-.4 0-.7.1-.7.5s.3.5.7.5h2.6c.4 0 .7-.1.7-.5s-.3-.5-.7-.5zm0 4h-2.6c-.4 0-.7.1-.7.5s.3.5.7.5h2.6c.4 0 .7-.1.7-.5s-.3-.5-.7-.5zm0 4h-11.6c-.4 0-.7.1-.7.5s.3.5.7.5h11.6c.4 0 .7-.1.7-.5s-.3-.5-.7-.5zm0 4h-11.6c-.4 0-.7.1-.7.5s.3.5.7.5h11.6c.4 0 .7-.1.7-.5s-.3-.5-.7-.5zm0 4h-11.6c-.4 0-.7.1-.7.5s.3.5.7.5h11.6c.4 0 .7-.1.7-.5s-.3-.5-.7-.5zm0 4h-11.6c-.4 0-.7.1-.7.5s.3.5.7.5h11.6c.4 0 .7-.1.7-.5s-.3-.5-.7-.5zm24 7c1.5 0 2.8.1 2.8-2.1v-30c0-2-1.3-3.9-2.8-3.9h-.2v2h.2c.4 0 .8 1.2.8 1.7v30.5c0 .4-.4-.2-.8-.2h-10.8l9.5-1.5c.6-.1 1.1-.1 1.1-.8l-.1-33.9c0-.7-.8-1-1.5-1-.2 0-.3-.4-.5-.4l-18 3.6h-6c-.6 0-1 .4-1 1s.4 1 1 1h6.1v32h-18.3c-.4 0-.7.6-.7.2V8.9c0-1.1 1-2 2-2v12c0 .8.6 1.1 1.3 1.1.3 0 .5-.1.8-.2l1.8-1.9 1.8 2.2c.2.2.5.2.8.2.7 0 1.5-.6 1.5-1.4V4h-8.1c-2.2 0-3.9 2.7-3.9 4.9v29.3c0 1.5 1.1 1.8 2.7 1.8h18.2v2h-18.3c-.4 0-.7.6-.7.2 0-.4-.4-2.1-.9-2.1h-.5c-.4 0-.7 1.7-.7 2.1 0 1.5 1.1 1.8 2.7 1.8h38.6c1.5 0 2.8-.3 2.8-1.8 0-.4-.4-2.1-.9-2.1h-.5c-.4 0-.7 1.7-.7 2.1 0 .4-.4-.2-.8-.2h-18v-2h18.2zM359 6.9h4v11l-2-2-2 2v-11zm17 0v-.4L391.9 3h.1v32l-16 3.5V6.9zM50.4 110L18 77.8c-.4-.4-.9-.6-1.5-.6-.5 0-1.1.2-1.5.6l-7.4 7.4c-.8.8-.8 2.1 0 2.9l32.5 32.3c.4.4.9.7 1.5.7H49c1.1 0 2-1.1 2-2.2v-7.4c0-.6-.2-1.2-.6-1.5zM9 86.6l7.5-7.5 3.5 3.4-7.5 7.5L9 86.6zm31.4 31L13.9 91.5l7.5-7.5L48 110.1l-7.6 7.5zM49 119h-7l-.1-.1 7.1-7v7.1zm-14 0H8c-.6 0-1 .4-1 1s.4 1 1 1h27c.6 0 1-.4 1-1s-.5-1-1-1zM22.6 88.4c-.4-.4-1-.4-1.4 0-.4.4-.4 1 0 1.4l13.4 13.3c.4.4 1 .4 1.4 0 .4-.4.4-1 0-1.4L22.6 88.4zm21.3 21.4l-4.6-4.5c-.4-.4-1-.4-1.4 0-.4.4-.4 1 0 1.4l4.6 4.5c.4.4 1 .4 1.4 0 .4-.4.4-1.1 0-1.4zm94.4-30.5c-.5-.8-1.4-1.2-2.3-1.2-.4 0-.8.1-1.2.3L96.6 97.1c-.9.5-1.5 1.4-1.5 2.5s.6 2 1.5 2.4l10.1 4.9c.4.2.8.3 1.2.3.5 0 1.1-.2 1.5-.5 0 0 0 .1 0 .1.1.9.7 1.6 1.5 2l12 6.1c.4.2.8.3 1.2.3 1.1 0 2.1-.7 2.5-1.7l12-31.6c.3-.9.2-1.9-.3-2.6zm-1.5 1.8l-12 31.6c-.1.4-.5.6-.8.6-.1 0-.3 0-.4-.1l-12-6.1c-.6-.3-.7-1-.2-1.5l17.3-17.2-20.3 16.6c-.2.1-.4.2-.6.2-.1 0-.3 0-.4-.1l-10.1-4.9c-.7-.3-.7-1.3 0-1.6L135.6 80c.1-.1.3-.1.4-.1.6 0 1.1.6.8 1.2zm-22.6 33l-5.8-2.7c-.1-.1-.2-.1-.4-.1-.5 0-.9.4-.9 1v7c0 .6.4 1 1 1 .2 0 .3-.1.5-.2l5.8-4.3c.6-.3.5-1.3-.2-1.7zm-5.2 3.2v-3.5l2.9 1.4-2.9 2.1zm6.7-77.7c3.1-3.8 6.1-12.7 6.1-18.8 0-6.9-4.9-11-8.9-11v-3c2 0 2.9-1.8 2.9-3.4S114.4 0 112.7 0h-14c-1.7 0-2.9 1.8-2.9 3.4S97 6.9 99 6.9v3c-4 .1-9.1 4.3-9.1 11 0 6.1 2.8 15 5.9 18.8-.6.5-1 .9-1 1.8 0 1.7 1.3 2.6 3 2.6h16c1.6 0 3-.9 3-2.6 0-.8-.3-1.3-.9-1.9-.1-.1-.1.1-.2 0zM94.2 28.4c.7.5 1.4 1.1 2.5 1.1s1.8-.6 2.4-1.1c.6-.5 1.1-1 2.1-1 .8 0 1.4.4 2.1.9.7.5 1.5 1.1 2.7 1.1 1.1 0 2-.6 2.8-1.1.8-.5 1.5-1 2.4-1 .8 0 1.4.4 2 .9.7.5 1.4 1.2 2.6 1.2 1.2 0 2.2-.6 2.9-1.2 0 0 .2 0 .2 0-.5 2-.8 3.9-1.8 5.6V33H94.7c-.8-2-1.6-3.7-2.1-5.9.6.2 1.1.9 1.6 1.3zm-1.8-2c-.3-1.4-.5-2.8-.6-4.1 1 0 1.7.5 2.4 1s1.4 1.1 2.5 1.1 1.8-.6 2.4-1.1c.6-.5 1.1-1 2.1-1 .8 0 1.4.4 2.1.9.7.5 1.5 1.1 2.7 1.1 1.3 0 2.2-.6 2.9-1.2.7-.5 1.3-.9 2.2-.9 1 0 1.5.5 2.1 1 .6.5 1.3 1.1 2.4 1.1 1.2 0 2.2-.6 2.9-1.2.3-.3.7-.5 1-.7-.1 1.3-.3 2.7-.6 4.1-.5.2-.7.5-1 .8-.6.5-1.4 1-2.3 1-.8 0-1.4-.4-2-.9-.7-.5-1.4-1.2-2.6-1.2-1.2 0-2.1.6-2.9 1.1-.7.5-1.5.9-2.3.9-.8 0-1.4-.4-2.1-.9-.7-.5-1.5-1.1-2.7-1.1-1.3 0-2.1.6-2.7 1.2-.6.5-1 .9-1.8.9-.7 0-1.3-.4-1.9-.9-.4-.3-1.3-.8-2.2-1zm23.9 7.6c-.2 0-.3 1-.5 1H96v1c0-.4-.6-2-.8-2h21.1zm-1.1 2c-.5 1-1 1-1.5 2h-16c-.5-1-1-1-1.5-2h19zM97.7 3c0-.6.4-1 1-1h14c.6 0 1 .4 1 1s-.4 1-1 1h-14c-.5 0-1-.4-1-1zm3.3 3h10v1h-10V6zm10 2v1h-10V8h10zm-12.1 3h13.8c2.2 0 4.8 2 6.2 5.1-.6.2-1 .8-1.4 1.2-.6.5-.9 1.1-1.8 1.1-.8 0-1.2-.3-1.7-.8-.6-.6-1.4-1.2-2.9-1.2-1.4 0-2.1.6-2.8 1.1-.7.5-1.2 1-2.4 1-.8 0-1.4-.4-2.1-.9-.7-.5-1.5-1.1-2.7-1.1-1.3 0-2.1.6-2.7 1.2-.6.5-1 .9-1.8.9-.7 0-1.3-.4-1.9-.9-.6-.4-1.4-1.3-2.2-1.5 1.5-3.1 4.1-5.2 6.4-5.2zm-6.6 6.4c.7.1 1.4.5 2 1 .7.5 1.4 1.1 2.5 1.1s1.8-.6 2.4-1.1c.6-.5 1.1-1 2.1-1 .8 0 1.4.4 2.1.9.7.5 1.5 1.1 2.7 1.1 1.5 0 2.3-.6 3-1.2.6-.5 1.2-.9 2.2-.9 1.1 0 1.6.5 2.2 1 .6.5 1.2 1.1 2.3 1.1 1.2 0 1.8-.6 2.4-1.2.3-.3.8-.5 1.1-.7.3 1 .5 2.1.5 3.3 0 .2 0 .4 0 .6-1 .2-1.2.6-1.7 1-.6.5-1.4 1-2.3 1-.8 0-1.2-.4-1.8-.9-.7-.6-1.4-1.2-2.8-1.2-1.3 0-2.1.6-2.8 1.1-.7.5-1.3 1-2.4 1-.8 0-1.4-.4-2.1-.9-.7-.5-1.5-1.1-2.7-1.1-1.3 0-2.1.6-2.7 1.2-.6.5-1 .9-1.8.9-.7 0-1.3-.4-1.9-.9-.8-.6-2.1-1.2-3.1-1.2 0-.2 0-.3 0-.5 0-1.3.2-2.5.6-3.5zM113.7 42h-16c-.6 0-1-.4-1-1s.4-1 1-1h16c.6 0 1 .5 1 1 0 .6-.4 1-1 1zm370.2-24.8l-2.7-.5c-.1-.4-.3-.9-.5-1.3l1.8-2.2c1.2-1.4 1.1-3.5-.1-4.8l-1.6-1.8c-.7-.8-1.7-1.3-2.8-1.3-.7 0-1.4.2-2 .6l-2.3 1.5c-1-.6-2.1-1.1-3.2-1.5l-.5-2.7c-.3-1.8-1.9-3.2-3.7-3.2h-2.4c-1.8 0-3.4 1.4-3.7 3.2l-.5 2.8c-.8.3-1.6.6-2.3 1l-2.2-1.6c-.6-.5-1.4-.7-2.2-.7-1 0-1.9.4-2.7 1.1l-1.7 1.7c-1.3 1.3-1.5 3.3-.4 4.8l1.6 2.2c-.4.7-.7 1.5-.9 2.3l-2.8.5c-1.8.3-3.2 1.9-3.2 3.7v2.4c0 1.8 1.3 3.4 3.2 3.7l2.8.5c.2.5.4 1 .6 1.5l-1.7 2.1c-1.2 1.4-1.1 3.5.1 4.8l1.6 1.8c.7.8 1.7 1.3 2.8 1.3.7 0 1.4-.2 2-.6l2.4-1.5c1 .6 2 1 3.1 1.4l.5 2.7c.3 1.8 1.8 3.1 3.7 3.1h2.4c1.8 0 3.4-1.3 3.7-3.1l.5-2.7c.8-.3 1.5-.6 2.3-.9L475 39c.6.5 1.4.7 2.2.7 1 0 1.9-.4 2.7-1.1l1.7-1.7c1.3-1.3 1.5-3.3.4-4.8l-1.7-2.3c.4-.7.7-1.5.9-2.3l2.7-.5c1.8-.3 3.1-1.9 3.1-3.7v-2.4c0-1.8-1.3-3.4-3.1-3.7zm1.1 6.1c0 .9-.6 1.6-1.4 1.7l-3.9.7c-.4 1.5-1 2.9-1.7 4.2l2.4 3.4c.5.7.4 1.6-.2 2.3l-1.7 1.7c-.3.3-.8.5-1.2.5-.4 0-.7-.1-1-.3l-3.4-2.4c-1.3.8-2.7 1.4-4.2 1.7l-.7 3.9c-.1.8-.9 1.4-1.7 1.4h-2.4c-.9 0-1.6-.6-1.7-1.4l-.7-4c-1.8-.4-3.4-1.2-4.9-2.1l-3.4 2.2c-.3.2-.6.3-.9.3-.5 0-1-.2-1.3-.6l-1.6-1.8c-.6-.6-.6-1.6-.1-2.3l2.5-3.1c-.6-1.1-1-2.3-1.3-3.5l-4-.7c-.8-.1-1.5-.9-1.5-1.7V21c0-.9.7-1.6 1.5-1.7l4-.7c.4-1.5 1-2.9 1.7-4.2l-2.3-3.2c-.5-.7-.4-1.6.2-2.3l1.7-1.7c.3-.3.8-.5 1.2-.5.4 0 .7.1 1 .3l3.2 2.3c1.3-.8 2.7-1.4 4.2-1.7l.7-4c.1-.8.9-1.5 1.7-1.5h2.4c.9 0 1.6.7 1.7 1.5l.7 4c1.8.4 3.5 1.2 5 2.3l3.4-2.1c.3-.2.6-.3.9-.3.5 0 1 .2 1.3.6l1.6 1.8c.6.6.6 1.6.1 2.3l-2.5 3.1c.5 1 1 2.2 1.3 3.4l3.9.7c.8.1 1.4.9 1.4 1.7v2.2zm-19.9-8.7c-4.1 0-7.5 3.4-7.5 7.5s3.4 7.5 7.5 7.5 7.5-3.4 7.5-7.5-3.3-7.5-7.5-7.5zm0 13c-3 0-5.5-2.5-5.5-5.5s2.5-5.5 5.5-5.5 5.5 2.5 5.5 5.5-2.4 5.5-5.5 5.5zM733.8.9c-12.1 0-22 9.9-22 22s9.9 22 22 22 22-9.9 22-22-9.9-22-22-22zm20 20.1h-10c-.2-2-1-3.4-2.2-4.8l7.1-7.3c2.9 3.3 4.8 7.1 5.1 12.1zm-36.6 2c.1 2 .5 4.3 1.3 6.1.1.2.3.5.5.5.1 0 .1.1.2.1.3-.1.4-.8.3-1-.7-1.7-1.1-3.7-1.3-5.7h5.7c.2 2 1 4.3 2.2 5.8l-7.1 6.9c-3-3.3-4.9-7.7-5.2-12.7h3.4zm10.4 7.7c1.5 1.2 3.4 2 5.4 2.2v10c-5-.2-9.1-2.1-12.5-5.1l7.1-7.1zm7.4 2.1c2-.2 3.8-1 5.2-2.2l7.1 7.1c-3.3 3-7.3 4.9-12.3 5.2V32.8zm-.8-2.8h-.8c-1.7 0-3-.3-4.3-1.2l-1.1-.9c-1-1.1-1.9-3.9-2.1-4.9h.1v-2h-.1c.2-2 .8-2.5 1.7-3.6l1.1-.9c1.4-1.1 3.2-1.7 5.1-1.7 4.4 0 8 3.2 8 7.6 0 4.3-3.4 7.6-7.6 7.6zm-3-23.6c-3.2.5-6.1 1.9-8.4 4L720.5 8c3.3-3 7.5-4.9 12.5-5.1v10c-2 .2-3.9 1-5.4 2.2l-4.1-4c2.2-1.9 4.9-3.2 7.9-3.7.3 0 .5-.3.4-.6 0-.2-.3-.4-.6-.4zm9 8.8c-1.5-1.2-3.2-2-5.2-2.2V3c5 .3 9 2.2 12.3 5.2l-7.1 7zM719 9l2.3 2.6c-1.2 1.4-2.2 3.1-3 4.8-.1.3 0 .6.3.7.1 0 .1.1.2.1.2 0 .4-.1.5-.3.7-1.6 1.6-3.1 2.8-4.4l4 3.6c-1.2 1.5-2 2.9-2.3 4.9h-5.7c0-1 .1-.9.2-1.6.1-.3-.1-.3-.4-.4-.3-.1-.5-.2-.6.1-.1.7-.2.9-.3 1.9h-3.3c.4-5 2.3-8.7 5.3-12zm29.7 26.8l-7.1-7.3c1.2-1.5 2-3.5 2.2-5.5h10c-.3 5-2.1 9.5-5.1 12.8zM664.1 0h-40C623 0 622 1.7 622 2.9v40c0 1.1 1 1.1 2.1 1.1h30L666 32.9v-30c0-1.2-.8-2.9-1.9-2.9zM655 41v-8h7.3l-7.3 8zm9-10h-8.9c-1.1 0-2.1 1.7-2.1 2.9V42h-29V9h40v22zm0-24h-40V2h40v5zm-34.9 8h30c.6 0 1-.4 1-1s-.4-1-1-1h-30c-.6 0-1 .4-1 1s.4 1 1 1zm0 6h28c.6 0 1-.4 1-1s-.4-1-1-1h-28c-.6 0-1 .4-1 1s.4 1 1 1zm0 6h30c.6 0 1-.4 1-1s-.4-1-1-1h-30c-.6 0-1 .4-1 1s.4 1 1 1zm0 6h19c.6 0 1-.4 1-1s-.4-1-1-1h-19c-.6 0-1 .4-1 1s.4 1 1 1zm0 6h17c.6 0 1-.4 1-1s-.4-1-1-1h-17c-.6 0-1 .4-1 1s.4 1 1 1zM845 11.5l-1-1 .7-.7c.8-.8.8-2 0-2.8l-.7-.8c-.4-.4-.9-.6-1.4-.6s-1 .2-1.4.6l-.7.7-1.2-1.2c-.4-.4-.9-.6-1.4-.6s-1 .2-1.4.6l-1.1 1.1-.8-.8 1.8-1.8c.4-.4.4-1 0-1.4-.4-.4-1-.4-1.4 0l-12.6 12.6c-.4.4-.4 1 0 1.4.4.4 1 .4 1.4 0l6.4-6.4.8.8-18.1 18.1c-.8.8-.8 2 0 2.8l-3.4 3.6c-.4.4-.4.9-.4 1.4v1.2c0 .4-.1.8.2 1.2l-1.5 2.3c-.5.9.4 1.9 1.3 1.4l2.4-2c.3.2.6-.2 1-.2h1.2c.5 0 1 .3 1.4-.1l3.6-3.3c.4.4.9.7 1.4.7.5 0 1-.1 1.4-.5L845 14.3c.7-.8.7-2 0-2.8zm-2.4-3.9l.7.7-.7.7-.7-.7.7-.7zm-24 18.7l14.8-14.8 5.8 5.8-14.8 14.8-5.8-5.8zm5.1 6.5l-.8.8-5.8-5.8.8-.8 5.8 5.8zm10.4-22l.8-.8 5.8 5.8-.8.8-5.8-5.8zm-16.9 25.7l-2.1 2.1-3-3 2.1-2.1 3 3zm-4.8 2.5l-1.4-.7v-1.2l-.1-.1 2.9 2.5-.2-.4h-1.2zm7.6-2.5l-1.1-1.1c-.1-.1-.2-.2-.3-.3l-3-3c-.1-.1-.2-.2-.3-.3l-1.1-1.1 2.2-2.2 5.8 5.8-2.2 2.2zm21.4-21.4l-5.8-6.3 2.2-2.7h.2v1l5.7 5.8-2.3 2.2zM806 41h-4c-.3 0-.5.2-.5.5s.2.5.5.5h4c.3 0 .5-.2.5-.5s-.2-.5-.5-.5zm210-36h-5c0-1-.9-2-2-2h-2v-.1c0-1.1-.9-2.9-2-2.9h-4c-1.1 0-2 1.7-2 2.9V3h-2c-1.1 0-2 1-2 2h-5c-1.1 0-2 1.7-2 2.9v35c0 1.1.9 1.1 2 1.1h26c1.1 0 2 0 2-1.1v-35c0-1.2-.9-2.9-2-2.9zm-19 2.9V5h4V2h4v3h4v3h-12v-.1zm19 34.1h-26V7h5v1.9c0 1.1.9 1.1 2 1.1h12c1.1 0 2 0 2-1.1V7h5v35zm-22.2-16.2c-.4-.4-1-.4-1.4 0-.4.4-.4 1 0 1.4l5.4 5.4c.8.8 2 .8 2.8 0l13.2-13.2c.4-.4.4-1 0-1.4-.4-.4-1-.4-1.4 0l-13.2 13.2-5.4-5.4zM930.3 5h-34c-.6 0-1 .4-1 1s.4 1 1 1h34c.6 0 1-.4 1-1s-.5-1-1-1zm0 5h-34c-.6 0-1 .4-1 1s.4 1 1 1h34c.6 0 1-.4 1-1s-.5-1-1-1zm0 5h-34c-.6 0-1 .4-1 1s.4 1 1 1h34c.6 0 1-.4 1-1s-.5-1-1-1zm2.4-15h-38C893 0 891 2.2 891 3.8V21c0 .5.6 1 .9 1.4l10.1 9.4c.4.4 1.1.2 1.6.2h8.9c.2 0 .5 1.3.5 1.5v10.3c0 .6.6 1 1.1 1 .2 0 .6-.1.8-.3l2.3-2.3 2.4 2.3c.2.2.3.3.6.3.5 0 .9-.4.9-1V33.7c0-.2 1-1.7 1.3-1.7h10.4c1.7 0 2.3-.5 2.3-2.2v-26c-.1-1.6-.7-3.8-2.4-3.8zM901 28.8l-5.3-6.8h5c.6 0 .3 1.3.3 1.8v5zm18 12.7l-.5-.7-1.4-1.4-1.5 1.4-.6.5V34h4v7.5zm2.4-11.1c-.9 1.2-2.3 1.6-3.9 1.6h-.2c-1.6 0-3-.4-3.9-1.6-.6-.8-1-1.6-1-2.8 0-2.8 2.2-4.9 5-4.9s5 2.1 5 4.8c0 1.2-.4 2.1-1 2.9zm11.6-.6c0 .6.3.2-.3.2h-9c.4-1 .7-1.5.7-2.6 0-3.9-3.1-6.8-7-6.8s-7 2.8-7 6.7c0 1.1.2 1.7.7 2.7H903v-6.2c0-1.7-.6-3.8-2.3-3.8H893V3.8c0-.6 1.2-1.8 1.7-1.8h38c.6 0 .3 1.3.3 1.8v26zm-15.6-4.9c-1.7 0-3 1.3-3 3s1.3 3 3 3 3-1.3 3-3-1.4-3-3-3zm0 4c-.6 0-1-.4-1-1s.4-1 1-1 1 .4 1 1-.5 1-1 1zM222 113.1v-4c0-1.1-1.1-2.1-2.2-2.1h-.8V91.1c0-7.7-6.5-14.1-14.2-14.1-7.7 0-13.8 6.4-13.8 14.1V107h-1.2c-1.1 0-1.8 1-1.8 2.1v4c-1 0-2 .9-2 2v4c0 1.1.7 1.9 1.8 1.9h34c1.1 0 2.2-.8 2.2-1.9v-4c0-1.1-1-2-2-2zm-29-22c0-6.6 5.4-12 12-12s12 5.4 12 12V107h-11v-5.4c0 .4 1.3.5 2 .5 2.2 0 4-1.8 4-4v-7.9c0-2.2-1.9-4-4.1-4-.9 0-1.7.3-2.4.8l-.6.4-.6-.4c-.7-.5-1.4-.8-2.3-.8-2.2 0-3.9 1.8-3.9 4v7.9c0 2.2 1.8 4 4 4 .7 0 1-.2 2-.5v5.4h-11V91.1zm13 8v-10l.7-.6c.4-.3.8-.4 1.2-.4 1 0 2.1.8 2.1 2V98c0 1.2-1.1 2-2.1 2-.4 0-.8-.1-1.1-.4l-.8-.5zm-2-9.9v10l-.9.6c-.4.3-.7.4-1.1.4-1 0-2-.8-2-2v-7.9c0-1.2.9-2 1.9-2 .4 0 .9.1 1.2.4l.9.5zM190 109h30v4h-30v-4zm32 10h-34v-4h34v4zm61.7-28h8c.6 0 1-.4 1-1s-.4-1-1-1h-8c-.6 0-1 .4-1 1s.5 1 1 1zm18 22h-18c-.6 0-1 .4-1 1s.4 1 1 1h18c.6 0 1-.4 1-1s-.4-1-1-1zm0-6h-18c-.6 0-1 .4-1 1s.4 1 1 1h18c.6 0 1-.4 1-1s-.4-1-1-1zm-18-22h8c.6 0 1-.4 1-1s-.4-1-1-1h-8c-.6 0-1 .4-1 1s.5 1 1 1zM297 98.5l-2.3 2.3-4.3-4.3c-.4-.4-1-.4-1.4 0l-6 6c-.4.4-.4 1 0 1.4.4.4 1 .4 1.4 0l5.3-5.3 5.3 5.3c.4.4 1 .4 1.4 0 .4-.4.4-1 0-1.4l-.3-.3 1.6-1.6 3.3 3.3c.4.4 1 .4 1.4 0 .4-.4.4-1 0-1.4l-4-4c-.3-.4-1-.4-1.4 0z" class="st0"/><circle cx="296.2" cy="95.7" r="1.5" class="st0"/><path d="M308.4 87.9L298 77.5c-.2-.2-.4-.3-.7-.3h-17.5c-1.7 0-3 1.3-3 3v38c0 1.7 1.3 3 3 3h26c1.7 0 3-1.3 3-3V88.6c-.1-.3-.2-.5-.4-.7zm-9.7-6.7l6 6h-5c-.6 0-1-.4-1-1v-5zm7 38h-26c-.6 0-1-.4-1-1v-38c0-.6.4-1 1-1h17v7c0 1.7 1.3 3 3 3h7v29c0 .5-.4 1-1 1zm74.9-42c-12.2 0-22 9.8-22 22s9.8 22 22 22 22-9.8 22-22-9.8-22-22-22zm0 42c-11 0-20-9-20-20s9-20 20-20 20 9 20 20-8.9 20-20 20zM383 95c0-1.1-.9-2-2-2s-2 .9-2 2v18c0 1.1.9 2 2 2s2-.9 2-2V95zm0-10c0-1.1-.9-2-2-2s-2 .9-2 2v2c0 1.1.9 2 2 2s2-.9 2-2v-2zm82.3-7.5c-5.4 1.2-9.7 5.4-11 10.7-1.2 5 .3 9.7 3.1 13 1.4 1.6 2.2 2.4 3.5 3.9 1.1 1.3 2 1.9 2 3.1v1.1c0 1 .5 1.7 1.5 1.7h8.2c1 0 2.3-.7 2.3-1.7v-1c0-1.1.8-2.1 1.7-3.3 1-1.3 1.6-2.2 2.9-3.8 2.2-2.5 3.5-5.8 3.5-9.5.2-9.1-8.2-16.2-17.7-14.2zm12.6 22.7c-1.5 2-5.2 5.6-5.2 6.9 0 1.3-.1 1.9-.1 1.9h-8s0-.5 0-1.7c0-1.4-3.7-5.2-5.3-7.2-2.5-3.2-4.2-7.3-2.7-12.1 1.5-4.5 5.4-8 10.1-8.7 7.7-1.1 14.4 4.9 14.4 12.4 0 3.3-1.4 6-3.2 8.5zm-4.3 12.8h-10c-.6 0-1 .4-1 1s.5 1 1 1h10c.6 0 1-.4 1-1s-.4-1-1-1zm-1 3h-8c-.6 0-1 .4-1 1s.5 1 1 1h8c.6 0 1-.4 1-1s-.5-1-1-1zm-.9 3h-6.1c-.5 0-1 .5-1 1s.4 1 1 1h6.1c.5 0 1-.5 1-1-.1-.5-.5-1-1-1zm1.5-29.4l-2.4 1.3-1.5-1.4c-.4-.4-1-.4-1.4 0l-1.5 1.5-2.4-1.2c-.4-.2-.9-.1-1.2.2-.3.3-.4.8-.1 1.2 0 .1 3.1 5.4 3.1 15 0 .6.4 1 1 1s1-.4 1-1c0-6.2-1.2-10.7-2.2-13.3l.5.2c.4.2.8.1 1.2-.2l1.3-1.3 1.3 1.2c.3.3.8.4 1.2.2l.4-.2c-.9 2.6-2 6.9-2 13.3 0 .6.4 1 1 1s1-.4 1-1c0-10.4 3-15 3-15.1.3-.4.2-.9-.1-1.2-.3-.3-.8-.4-1.2-.2zm-4.7-7.4c.5 0 1-.4 1.1-.9 0-.6-.4-1-.9-1.1-3.9-.3-8.8 2.9-10.1 6.6-.2.5.1 1.1.6 1.3.1 0 .2.1.3.1.4 0 .8-.3.9-.7 1-2.9 5-5.5 8.1-5.3zm-8.9 9.1c.1-.5-.3-1.1-.8-1.1-.6-.1-1.1.3-1.1.8-.3 1.9 0 3.7.7 5 .2.3.5.5.9.5.2 0 .3 0 .5-.1.5-.3.6-.9.4-1.4-.6-.9-.8-2.3-.6-3.7zM569.4 82h-5c0-1-.9-2-2-2H560v-.9c0-1.1-.4-2.1-1.6-2.1h-4c-1.1 0-2.4 1-2.4 2.1v.9h-1.6c-1.1 0-2 1-2 2h-5c-1.1 0-2.4 1-2.4 2.1v35c0 1.1 1.3 1.9 2.4 1.9h26c1.1 0 1.6-.8 1.6-1.9v-35c0-1.1-.4-2.1-1.6-2.1zM550 84.1V82h4v-3h4v3h4v3h-12v-.9zm19 34.9h-26V84h5v1.1c0 1.1 1.3 1.9 2.4 1.9h12c1.1 0 1.6-.8 1.6-1.9V84h5v35zm-16-8h4v4h-4zm9-18c-1.4-1.2-3.3-1.8-5.7-1.8-2.2 0-4.1.6-5.5 1.7-1.4 1.1-2.1 2.8-2 4.9v.2h4.6c0-1 .3-1.7.9-2.2.6-.5 1.2-.8 2-.8 1 0 1.7.2 2.2.8.5.6.8 1.3.8 2.3 0 .9-.2 1.7-.7 2.4-.5.7-1.1 1.4-1.8 2-1.3 1-2.2 1.6-2.6 2.3-.4.7-.7 2.1-.7 3.1h4.7s.1-1.4.3-1.9c.2-.5.6-.9 1.3-1.4 1.2-.8 2.2-1.7 3-2.9.8-1.2 1.2-2.4 1.2-3.8.1-2-.6-3.6-2-4.9zm102.1-14h-14c-1.1 0-2 1-2 2.1v1c0 1.1.9 1.9 2 1.9h.2l.7 6h-13.7l.7-6h.2c1.1 0 1.9-.8 1.9-1.9v-1c0-1.1-.8-2.1-1.9-2.1h-14c-1.1 0-2.1 1-2.1 2.1v1c0 1.1 1 1.9 2.1 1.9h.2l1.5 14.1c-1 .1-1.8 1-1.8 2v1c0 1.1 1 1.8 2.1 1.8h.3l1.4 10h-.2c-.4 0-.7.3-.9.6l-.9 1.4c-.8 1.3.2 3 1.7 3h7c1.6 0 2.5-1.6 1.7-2.9l-.9-1.6c-.2-.3-.5-.5-.9-.5h-.2l.4-3h18.5l.4 3h-.2c-.4 0-.7.3-.9.6l-.9 1.4c-.8 1.3.2 3 1.7 3h7c1.6 0 2.5-1.6 1.7-2.9l-.9-1.6c-.2-.3-.5-.5-.9-.5h-.2l1.4-10h.3c1.1 0 1.9-.7 1.9-1.8v-1c0-1-.8-1.9-1.8-2l1.6-14.1h.2c1.1 0 1.9-.8 1.9-1.9v-1c.5-1.1-.3-2.1-1.4-2.1zm-13 13l.2 2h-14.6l.2-2h14.2zm.9 11h.3l.1 1h-16.8l.1-1h.3c1.1 0 1.9-.7 1.9-1.8v-1c0-1-.7-1.9-1.8-2l.3-2.1h15.1l.2 2.1c-1 .1-1.8 1-1.8 2v1c.1 1.1 1 1.8 2.1 1.8zm-28-21v-1h14v1h-14zm11.8 2l-1.6 14h-6.4l-1.6-14h9.6zm-1.2 32h-7l.6-1h5.8l.6 1zm-6.2-13h5.4l-1.4 10h-2.6l-1.4-10zm-2.4-2v-1h10v1h-10zm9.1 7l.3-2h17.4l.3 2h-18zm25.4 8h-7l.6-1h5.8l.6 1zm-6.2-13h5.4l-1.4 10h-2.6l-1.4-10zm7.7-2h-10v-1h10v1zm-9.7-17h9.6l-1.6 14h-6.4l-1.6-14zm11.7-2h-14v-1h14v1zm86.3-5h-24c-2.2 0-4 1.9-4 4.1v22c0 .8.5 1.5 1.2 1.9.3.1.5.2.8.2.5 0 1-.2 1.4-.6l3.5-3.5h21.1c2.2 0 3.7-1.7 3.7-3.9v-16c0-2.3-1.5-4.2-3.7-4.2zm1.7 20.1c0 1.1-.6 1.9-1.7 1.9h-21.9l-4.1 4.1v-22c0-1.1.9-2 2-2h24c1.1 0 1.7 1 1.7 2.1v15.9zm-10.7 6c-.6 0-1 .4-1 1V119l-4.1-4.1h-21.9c-1.1 0-2.3-.7-2.3-1.8v-16c0-1.1 1.2-2.2 2.3-2.2h5c.6 0 1-.4 1-1s-.4-1-1-1h-5c-2.2 0-4.3 1.9-4.3 4.1v16c0 2.2 2.1 3.8 4.3 3.8h21.1l3.5 3.5c.4.4.9.6 1.4.6.3 0 .5 0 .8-.1.7-.3 1.2-1 1.2-1.8v-15c0-.4-.5-.9-1-.9z" class="st0"/><circle cx="715.3" cy="105.1" r="1" class="st0"/><circle cx="719.3" cy="105.1" r="1" class="st0"/><path d="M749.3 82h-22c-.6 0-1 .4-1 1s.4 1 1 1h22c.6 0 1-.4 1-1s-.5-1-1-1zm-22 6h16c.6 0 1-.4 1-1s-.4-1-1-1h-16c-.6 0-1 .4-1 1s.4 1 1 1zm22 2h-22c-.6 0-1 .4-1 1s.4 1 1 1h22c.6 0 1-.4 1-1s-.5-1-1-1zm-12 4h-10c-.6 0-1 .4-1 1s.4 1 1 1h10c.6 0 1-.4 1-1s-.5-1-1-1zm92.7-3.9c0-.6-.5-1.1-1.1-1.1h-17.8c-.6 0-1.1.5-1.1 1.1v17.8c0 .6.5 1.1 1.1 1.1h17.8c.6 0 1.1-.5 1.1-1.1V90.1zm-18 .9h16v16h-16V91zm29.2 9c.6 0 1-.4 1-1s-.4-1-1-1H838v-9h3.2c.6 0 1-.4 1-1s-.4-1-1-1H838v-3.5c0-1.1-.7-2.5-1.8-2.5H832v-2.5c0-.6-.4-1-1-1s-1 .4-1 1V81h-9v-2.5c0-.6-.4-1-1-1s-1 .4-1 1V81h-9v-2.5c0-.6-.4-1-1-1s-1 .4-1 1V81h-3.8c-1.1 0-2.2 1.3-2.2 2.5V87h-2.8c-.6 0-1 .4-1 1s.4 1 1 1h2.8v9h-2.8c-.6 0-1 .4-1 1s.4 1 1 1h2.8v9h-2.8c-.6 0-1 .4-1 1s.4 1 1 1h2.8v4.5c0 1.1 1.1 1.5 2.2 1.5h3.8v3.5c0 .6.4 1 1 1s1-.4 1-1V117h9v3.5c0 .6.4 1 1 1s1-.4 1-1V117h9v3.5c0 .6.4 1 1 1s1-.4 1-1V117h4.2c1.1 0 1.8-.4 1.8-1.5V111h3.2c.6 0 1-.4 1-1s-.4-1-1-1H838v-9h3.2zm-5.2 15h-32V83h32v32zm92.1-23H926v-1.6c0-1.1-.8-2.4-1.9-2.4H922v-1.6c0-1.1-.7-2.4-1.8-2.4h-1.9c-1.1 0-2.3 1.3-2.3 2.4V95h-16v-8.6c0-1.1-1-2.4-2.1-2.4H896c-1.1 0-2 1.3-2 2.4V88h-2c-1.1 0-2 1.3-2 2.4V92h-1.9c-1.1 0-2.1 1.3-2.1 2.4v10.2c0 1.1 1 1.4 2.1 1.4h1.9v2.6c0 1.1.9 1.4 2 1.4h2v2.6c0 1.1.9 1.4 2 1.4h1.9c1.1 0 2.1-.3 2.1-1.4V103h16v9.6c0 1.1 1.2 1.4 2.3 1.4h1.9c1.1 0 1.8-.3 1.8-1.4V110h2.1c1.1 0 1.9-.3 1.9-1.4V106h2.1c1.1 0 1.9-.3 1.9-1.4V94.4c0-1.1-.8-2.4-1.9-2.4zM890 104h-2V94h2v10zm4 4h-2V90h2v18zm4 4h-2V86h2v26zm18-11h-16v-4h16v4zm4 11h-2V86h2v26zm4-4h-2V90h2v18zm4-4h-2V94h2v10zm71 15h-20c-1.6 0-3-1.2-3-2.8V113h18.8c.6 0 1.2-.5 1.2-1.1 0-.5-.4-.8-.8-.8H984V79h18c1.1 0 2 1 2 2.1v17.1c0 .5.4 1 1 1s1-.4 1-1v-17c0-2.2-1.8-4.1-4-4.1h-24c-2.2 0-4 1.9-4 4.1v35c0 2.8 2.2 4.8 5 4.8h20c1 0 1-2 0-2zm-21-40h3v32.1h-5V81c0-1 .9-2 2-2zm1.5 36c-.6 0-1 .4-1 1s.4 1 1 1H995c.6 0 1-.4 1-1s-.4-1-1-1h-15.5zm28.5-13.9c-5.5 0-10 4.5-10 10s4.5 10 10 10 10-4.5 10-10-4.5-10-10-10zm0 18c-4.4 0-8-3.6-8-8s3.6-8 8-8 8 3.6 8 8-3.6 8-8 8zm3-9.1h-2v-1.9c0-.6-.4-1-1-1s-1 .4-1 1v1.9h-2c-.6 0-1 .4-1 1s.4 1 1 1h2v2.1c0 .6.4 1 1 1s1-.4 1-1V112h2c.6 0 1-.4 1-1s-.4-1-1-1zM299.7 14H296V4.4c0-1.1-1.2-2.4-2.3-2.4h-18c0-1-.9-2-2-2h-2c-1.1 0-1.7 1.3-1.7 2.4v40c0 1.1.6 1.6 1.7 1.6h2c1.1 0 2.3-.5 2.3-1.6V21h7v8.4c0 .1-.3-.4-.3-.4.1 2 1.6 4 4 4h13c1.1 0 2.3-.5 2.3-1.6v-15c0-1.1-1.2-2.4-2.3-2.4zM274 21.4V42h-2V2h2v19.4zm8.7-2.4H276V4.4h18c0 .3 0 5.2 0 10V20c-1-.5-1.6-1-2.3-1h-9zm11 4c-.1 1-.7 2-2 2-.7 0-5 0-5.5 0-.4 0-1.1.8-1.1 1.5V21c4 0 6.5 0 6.6 0 1.1 0 1.8 1.1 2 2zm6.3 8s-12 0-13.4 0c-1.2 0-2-1-2-2 0 0 0 .2 0 .2v.2c0-.8.7-1.9 2-1.9 0 0 0-.2 0-.2s0-.2 0-.2h4.9c2.4 0 4.1-1.8 4.2-3.8l.2.2V16h4v15zm265.3-9.2c-.2.2-.3.4-.3.7v18.6c0 .3-.1.5-.3.7-.2.2-1 .3-1.3.3h-28.6c-.5 0-1-.4-1-1V12c0-.5.4-1 1-1h18.7c.3 0 .5-.1.7-.3.6-.6.1-1.7-.7-1.7h-18.7c-1.6 0-2.9 1.3-2.9 2.9V43c0 .5.4 1 1 1h30.5c1.3 0 3.5 0 3.5-2V22.5c.1-.9-.9-1.3-1.6-.7zm10.3-16.3L570.5.4c-.3-.3-.6-.4-1-.4s-.7.1-1 .4L546.4 23c-.3.3-.4.6-.4 1v4.6c0 .8.6 1.4 1.4 1.4h4.6c.4 0 .7-.1 1-.4l22.6-22.1c.5-.5.5-1.4 0-2zM548 28v-3l2.9 3H548zm4.9-.9l-4-4 16.6-16.9 4.3 4.3-16.9 16.6zm18.3-18l-4.3-4.3 2.6-2.6 4.3 4.3-2.6 2.6zM541.9 29H537c-.5 0-1 .5-1 1s.4 1 1 1h4.9c.5 0 1-.5 1-1s-.5-1-1-1zm0-4H537c-.5 0-1 .5-1 1s.4 1 1 1h4.9c.5 0 1-.5 1-1s-.5-1-1-1zm2-3c0-.5-.4-1-1-1H537c-.5 0-1 .5-1 1s.4 1 1 1h5.9c.5 0 1-.5 1-1zm4.1-4c0-.5-.4-1-1-1h-9.8c-.5 0-1 .5-1 1s.4 1 1 1h9.8c.6 0 1-.5 1-1zm2.7-4c0-.5-.4-1-.9-1H537c-.5 0-1 .5-1 1s.4 1 1 1h12.8c.6 0 .9-.5.9-1z" class="st0"/></svg>