<svg xmlns="http://www.w3.org/2000/svg" viewBox="0 0 144 144" enable-background="new 0 0 144 144"><style type="text/css">.st0{fill:#FFFFFF;} .st1{opacity:0.4;} .st2{fill:#A8ADB9;} .st3{fill:#373737;} .st4{fill:#00B0DC;}</style><path d="M140 144H4c-2.2 0-4-1.8-4-4V4c0-2.2 1.8-4 4-4h136c2.2 0 4 1.8 4 4v136c0 2.2-1.8 4-4 4z" class="st0"/><path d="M27.8 28.2h.5v88h-.5zm4.2 0h.5v88H32zm4.1 0h.5v88h-.5zm4.2 0h.5v88h-.5zm8.4 0h.5v88h-.5zm50.3 0h.5v88H99zm4.2 0h.5v88h-.5zm4.2 0h.5v88h-.5zm4.2 0h.5v88h-.5zm4.2 0h.5v88h-.5zm-71.3 0h.5v88h-.5zm8.4 0h.5v88h-.5zm4.2 0h.5v88h-.5zm4.2 0h.5v88h-.5zm4.2 0h.5v88h-.5zm4.2 0h.5v88h-.5zm4.2 0h.5v88h-.5zm4.2 0h.5v88h-.5zm4.2 0h.5v88h-.5zm4.1 0h.5v88h-.5zm4.2 0h.5v88h-.5zm4.2 0h.5v88h-.5zm-66.6-.4h88v.5h-88zm0 4.2h88v.5h-88zm0 4.2h88v.5h-88zm0 4.1h88v.5h-88zm0 8.4h88v.5h-88zm0 50.3h88v.5h-88zm0 4.2h88v.5h-88zm0 4.2h88v.5h-88zm0 4.2h88v.5h-88zm0 4.2h88v.5h-88zm0-71.3h88v.5h-88zm0 8.4h88v.5h-88zm0 4.2h88v.5h-88zm0 4.2h88v.5h-88zm0 4.2h88v.5h-88zm0 4.2h88v.5h-88zm0 4.2h88v.5h-88zm0 4.2h88v.5h-88zm0 4.2h88v.5h-88zm0 4.2h88v.5h-88zm0 4.1h88v.5h-88zm0 4.2h88v.5h-88z" class="st2"/><path d="M102 103.6c-1.3 0-2.3 1-2.3 2.3v2.1c0 2.2-1.7 4-3.9 4H50.4c-3.3 0-6-2.7-6-6v-6.3h51.3c4.4 0 8-3.6 8-8l.1-55.5c0-4.4-3.6-8-8-8H48.4c-4.4 0-8 3.6-8 8V108c0 4.4 3.6 8 8 8h47c4.6 0 8.3-3.8 8.3-8.4v-2.3c0-1-.8-1.7-1.7-1.7zm-6.2-71.5c2.2 0 3.9 1.3 3.9 3.5v56.1c0 2.2-1.8 4-4 4H58.8l-.1-63.5h37.1zm-51.4 4c0-2.2 1.8-4 4-4h6.2v63.5H44.4V36.1zm58.4 67.8zm-52.2-.1c-1.1 0-2 .9-2 2s.9 2 2 2h43c1.1 0 2.1-.9 2.1-2s-.9-2-2-2H50.6z" class="st3"/><path d="M28 5.2h1v17h-1zm88.5 0h1v17h-1zm5.2 22.2h17v1h-17zm0 88.5h17v1h-17zM6.2 27.4h17v1h-17zm0 88.5h17v1h-17zm21.8 6.3h1v17h-1zm88.5 0h1v17h-1zm7.5-44.8v.8h-4.9l3.5-4.2c.2-.2.3-.4.4-.6.1-.2.1-.4.1-.7 0-.2 0-.4-.1-.6-.1-.2-.2-.3-.3-.5-.1-.1-.3-.2-.5-.3s-.4-.1-.6-.1c-.2 0-.4 0-.6.1-.2.1-.3.2-.5.3-.1.1-.2.3-.3.5-.1.2-.1.4-.1.6h-.8c0-.3.1-.6.2-.9.1-.3.3-.5.5-.7.2-.2.4-.4.7-.5s.6-.2.9-.2c.3 0 .6.1.9.2.3.1.5.3.8.5s.4.4.5.7c.1.3.2.6.2.9 0 .6-.2 1.1-.6 1.6l-2.6 3.1h3.2zm6.2 0v.8h-4.9l3.5-4.2c.2-.2.3-.4.4-.6.1-.2.1-.4.1-.7 0-.2 0-.4-.1-.6-.1-.2-.2-.3-.3-.5-.1-.1-.3-.2-.5-.3s-.4-.1-.6-.1c-.2 0-.4 0-.6.1-.2.1-.3.2-.5.3-.1.1-.2.3-.3.5-.1.2-.1.4-.1.6h-.8c0-.3.1-.6.2-.9.1-.3.3-.5.5-.7.2-.2.4-.4.7-.5s.6-.2.9-.2c.3 0 .6.1.9.2.3.1.5.3.8.5s.4.4.5.7c.1.3.2.6.2.9 0 .6-.2 1.1-.6 1.6l-2.6 3.1h3.2zm2.4-3.2c.2-.3.4-.5.7-.6s.6-.2.9-.2c.3 0 .7.1.9.2.3.1.5.3.7.5.2.2.3.5.5.8.1.3.2.6.2.9 0 .3-.1.6-.2.9s-.3.6-.4.8-.4.4-.7.5c-.3.1-.6.2-1 .2-.3 0-.6-.1-.9-.2s-.5-.3-.7-.6v3.3h-.8v-7.3h.8v.8zm1.5-.1c-.2 0-.4 0-.6.1-.2.1-.3.2-.5.4-.1.2-.2.3-.3.5s-.1.4-.1.6c0 .2 0 .5.1.7.1.2.2.4.3.6s.3.3.5.4c.2.1.4.1.7.1.3 0 .5 0 .7-.1.2-.1.4-.2.5-.4.1-.2.2-.4.3-.6.1-.2.1-.4.1-.7 0-.2 0-.5-.1-.7-.1-.2-.2-.4-.3-.5-.1-.2-.3-.3-.5-.4-.4.1-.6 0-.8 0zm3-.6h1l1.2 1.6 1.2-1.6h1l-1.7 2.2 2 2.5h-1l-1.5-1.9-1.5 1.9h-1l2-2.5-1.7-2.2zm-70.6 62.4v.8h-4.9l3.5-4.2c.2-.2.3-.4.4-.6s.1-.4.1-.7c0-.2 0-.4-.1-.6s-.2-.3-.3-.5-.3-.2-.5-.3c-.2-.1-.4-.1-.6-.1-.2 0-.4 0-.6.1-.2.1-.3.2-.5.3s-.2.3-.3.5c-.1.2-.1.4-.1.6h-.8c0-.3.1-.6.2-.9.1-.3.3-.5.5-.7s.5-.4.7-.5c.3-.1.6-.2.9-.2.3 0 .6.1.9.2.3.1.5.3.8.5.2.2.4.4.5.7.1.3.2.6.2.9 0 .6-.2 1.2-.6 1.6l-2.6 3.1h3.2zm6.1 0v.8h-4.9l3.5-4.2c.2-.2.3-.4.4-.6s.1-.4.1-.7c0-.2 0-.4-.1-.6s-.2-.3-.3-.5-.3-.2-.5-.3c-.2-.1-.4-.1-.6-.1-.2 0-.4 0-.6.1-.2.1-.3.2-.5.3s-.2.3-.3.5c-.1.2-.1.4-.1.6h-.8c0-.3.1-.6.2-.9.1-.3.3-.5.5-.7s.5-.4.7-.5c.3-.1.6-.2.9-.2.3 0 .6.1.9.2.3.1.5.3.8.5.2.2.4.4.5.7.1.3.2.6.2.9 0 .6-.2 1.2-.6 1.6l-2.6 3.1h3.2zm2.4-3.3c.2-.3.5-.5.7-.6s.6-.2.9-.2c.3 0 .7.1.9.2.3.1.5.3.7.6s.3.5.5.8c.1.3.2.6.2.9 0 .3-.1.7-.2 1-.1.3-.3.6-.4.8s-.4.4-.7.5c-.3.1-.6.2-1 .2-.3 0-.6-.1-.9-.2s-.5-.3-.7-.6v3.3h-.8V132h.8v.6zm1.5 0c-.2 0-.4 0-.6.1s-.3.2-.5.4-.2.3-.3.5-.1.4-.1.6c0 .2 0 .5.1.7.1.2.2.4.3.6.1.2.3.3.5.4s.4.2.7.2c.3 0 .5 0 .7-.1.2-.1.4-.2.5-.4.1-.2.2-.4.3-.6.1-.2.1-.4.1-.7 0-.2 0-.5-.1-.7-.1-.2-.2-.4-.3-.5-.1-.2-.3-.3-.5-.4-.3-.1-.5-.1-.8-.1zm3.1-.7h1l1.2 1.6 1.2-1.6h1l-1.7 2.2 2 2.5h-1l-1.5-1.9-1.5 1.9h-1l2-2.5-1.7-2.2z" class="st4"/></svg>