<svg xmlns="http://www.w3.org/2000/svg" viewBox="0 0 288 288" enable-background="new 0 0 288 288"><style type="text/css">.st0{fill:#FFFFFF;} .st1{opacity:0.4;} .st2{fill:#A8ADB9;} .st3{fill:#373737;} .st4{fill:#00B0DC;}</style><path d="M284 288H4c-2.2 0-4-1.8-4-4V4c0-2.2 1.8-4 4-4h280c2.2 0 4 1.8 4 4v280c0 2.2-1.8 4-4 4z" class="st0"/><path d="M55.8 56.3h.5v176h-.5zm4.1 0h.5v176h-.5zm4.1 0h.5v176H64zm4.1 0h.5v176h-.5zm4.1 0h.5v176h-.5zm4.1 0h.5v176h-.5zm4 0h.5v176h-.5zm4.1 0h.5v176h-.5zm8.2 0h.5v176h-.5zm4.1 0h.5v176h-.5zm4.1 0h.5v176h-.5zm8.2 0h.5v176h-.5zm8.2 0h.5v176h-.5zm8.2 0h.5v176h-.5zm8.2 0h.5v176h-.5zm8.2 0h.5v176h-.5zm8.1 0h.5v176h-.5zm8.2 0h.5v176h-.5zm8.2 0h.5v176h-.5zm8.2 0h.5v176h-.5zm8.2 0h.5v176h-.5zm8.2 0h.5v176h-.5zm4.1 0h.5v176h-.5zm4.1 0h.5v176h-.5zm4.1 0h.5v176h-.5zm4.1 0h.5v176h-.5zm4.1 0h.5v176h-.5zm4 0h.5v176h-.5zm4.1 0h.5v176h-.5zm4.1 0h.5v176h-.5zm4.1 0h.5v176h-.5zm4.1 0h.5v176h-.5zm-143.3 0h.5v176h-.5zm16.4 0h.5v176h-.5zm8.2 0h.5v176h-.5zm8.2 0h.5v176h-.5zm8.2 0h.5v176h-.5zm8.2 0h.5v176h-.5zm8.2 0h.5v176h-.5zm8.1 0h.5v176h-.5zm8.2 0h.5v176h-.5zm8.2 0h.5v176h-.5zm8.2 0h.5v176h-.5zm8.2 0h.5v176h-.5zm-130.3-.5h176v.5h-176zm0 4.1h176v.5h-176zm0 4.1h176v.5h-176zm0 4.1h176v.5h-176zm0 4.1h176v.5h-176zm0 4.1h176v.5h-176zm0 4.1h176v.5h-176zm0 4.1h176v.5h-176zm0 8.1h176v.5h-176zm0 4.1h176v.5h-176zm0 4.1h176v.5h-176zm0 8.2h176v.5h-176zm0 8.2h176v.5h-176zm0 8.2h176v.5h-176zm0 8.2h176v.5h-176zm0 8.2h176v.5h-176zm0 8.2h176v.5h-176zm0 8.1h176v.5h-176zm0 8.2h176v.5h-176zm0 8.2h176v.5h-176zm0 8.2h176v.5h-176zm0 8.2h176v.5h-176zm0 4.1h176v.5h-176zm0 4.1h176v.5h-176zm0 4.1h176v.5h-176zm0 4.1h176v.5h-176zm0 4.1h176v.5h-176zm0 4.1h176v.5h-176zm0 4.1h176v.5h-176zm0 4h176v.5h-176zm0 4.1h176v.5h-176zm0 4.1h176v.5h-176zm0-143.3h176v.5h-176zm0 16.4h176v.5h-176zm0 8.2h176v.5h-176zm0 8.2h176v.5h-176zm0 8.2h176v.5h-176zm0 8.2h176v.5h-176zm0 8.2h176v.5h-176zm0 8.2h176v.5h-176zm0 8.1h176v.5h-176zm0 8.2h176v.5h-176zm0 8.2h176v.5h-176zm0 8.2h176v.5h-176z" class="st2"/><path d="M203.9 207.2c-2.5 0-4.6 2-4.6 4.6v4.3c0 4.4-3.4 7.9-7.8 7.9h-90.7c-6.6 0-12-5.4-12-12v-12.7h102.7c8.9 0 16-7.1 16-16l.2-111c0-8.8-7.2-16-16-16H96.9c-8.8 0-16 7.2-16 16V216c0 8.8 7.2 16 16 16h93.9c9.2 0 16.6-7.5 16.6-16.8v-4.6c0-1.9-1.6-3.4-3.5-3.4zM191.5 64.3c4.4 0 7.8 2.6 7.8 7l.1 112.1c0 4.4-3.6 8-8 8h-73.8l-.2-127.1h74.1zM88.8 72.2c0-4.4 3.6-7.9 8-7.9h12.4v127H88.8V72.2zm116.8 135.5zm-104.5-.2c-2.2 0-4 1.8-4 4s1.8 4 4 4l85.9-.1c2.2 0 4.1-1.7 4.1-3.9s-1.8-4-4-4h-86z" class="st3"/><path d="M56.5 10.3h1v34h-1zm177 0h1v34h-1zm10 45h34v1h-34zm0 177h34v1h-34zm-231-177h34v1h-34zm0 177h34v1h-34zm44 12h1v34h-1zm177 0h1v34h-1zm21.2-102.4v.8h-.9v1.2h-.8v-1.2h-3.9l4.7-6.7v6h.9zm-1.8-3.4l-2.4 3.4h2.4v-3.4zm8 3.4v.8h-.9v1.2h-.8v-1.2h-3.9l4.7-6.7v6h.9zm-1.8-3.4l-2.4 3.4h2.4v-3.4zm3.8 1.4c.2-.3.4-.5.7-.6s.6-.2.9-.2c.3 0 .7.1.9.2.3.1.5.3.7.5.2.2.3.5.5.8s.2.6.2.9c0 .3-.1.6-.2 1-.1.3-.3.6-.4.8s-.4.4-.7.5c-.3.1-.6.2-1 .2-.3 0-.6-.1-.9-.2s-.5-.3-.7-.6v3.3h-.8v-7.3h.8v.7zm1.5 0c-.2 0-.4 0-.6.1-.2.1-.3.2-.5.4-.1.2-.2.3-.3.5s-.1.4-.1.6c0 .2 0 .5.1.7.1.2.2.4.3.6.1.2.3.3.5.4.2.1.4.1.7.1.3 0 .5 0 .7-.1s.4-.2.5-.4c.1-.2.2-.4.3-.6.1-.2.1-.4.1-.7 0-.2 0-.5-.1-.7-.1-.2-.2-.4-.3-.5s-.3-.3-.5-.4c-.4 0-.6 0-.8 0zm3-.7h1l1.2 1.6 1.2-1.6h1l-1.7 2.2 2 2.5h-1l-1.5-1.9-1.5 1.9h-1l2-2.5-1.7-2.2zM139.6 261.9v.8h-.9v1.2h-.8v-1.2H134l4.7-6.7v6h.9zm-1.8-3.4l-2.4 3.4h2.4v-3.4zm7.9 3.4v.8h-.9v1.2h-.8v-1.2h-3.9l4.7-6.7v6h.9zm-1.7-3.4l-2.4 3.4h2.4v-3.4zm3.7 1.4c.2-.3.4-.5.7-.6s.6-.2.9-.2c.3 0 .7.1.9.2.3.1.5.3.7.5.2.2.3.5.5.8s.2.6.2.9c0 .3-.1.6-.2 1-.1.3-.3.6-.4.8s-.4.4-.7.5c-.3.1-.6.2-1 .2-.3 0-.6-.1-.9-.2s-.5-.3-.7-.6v3.3h-.8v-7.3h.8v.7zm1.5 0c-.2 0-.4 0-.6.1-.2.1-.3.2-.5.4-.1.2-.2.3-.3.5s-.1.4-.1.6c0 .2 0 .5.1.7.1.2.2.4.3.6.1.2.3.3.5.4.2.1.4.1.7.1.3 0 .5 0 .7-.1s.4-.2.5-.4c.1-.2.2-.4.3-.6.1-.2.1-.4.1-.7 0-.2 0-.5-.1-.7-.1-.2-.2-.4-.3-.5s-.3-.3-.5-.4c-.3 0-.5 0-.8 0zm3.1-.7h1l1.2 1.6 1.2-1.6h1l-1.7 2.2 2 2.5h-1l-1.5-1.9-1.5 1.9h-1l2-2.5-1.7-2.2z" class="st4"/></svg>