<?xml version="1.0" encoding="utf-8"?>
<!-- Generator: Adobe Illustrator 18.0.0, SVG Export Plug-In . SVG Version: 6.00 Build 0)  -->
<!DOCTYPE svg PUBLIC "-//W3C//DTD SVG 1.1//EN" "http://www.w3.org/Graphics/SVG/1.1/DTD/svg11.dtd">
<svg version="1.1" id="Calque_1" xmlns="http://www.w3.org/2000/svg" xmlns:xlink="http://www.w3.org/1999/xlink" x="0px" y="0px"
	 viewBox="0 0 36.4 2216.2" style="enable-background:new 0 0 36.4 2216.2;" xml:space="preserve">
<style type="text/css">
	.st0{opacity:0.5;}
	.st1{fill:#00F1CC;}
	.st2{opacity:0.5;fill:#00F1CC;}
</style>
<g class="st0">
	<path class="st1" d="M18.6,39.2c-0.3,0-0.5-0.2-0.5-0.5v-4c0-0.3,0.2-0.5,0.5-0.5s0.5,0.2,0.5,0.5v4C19.1,39,18.9,39.2,18.6,39.2z"
		/>
	<path class="st1" d="M18.6,2199.2c-0.3,0-0.5-0.2-0.5-0.5v-8c0-0.3,0.2-0.5,0.5-0.5s0.5,0.2,0.5,0.5v8
		C19.1,2199,18.9,2199.2,18.6,2199.2z M18.6,2181.2c-0.3,0-0.5-0.2-0.5-0.5v-8c0-0.3,0.2-0.5,0.5-0.5s0.5,0.2,0.5,0.5v8
		C19.1,2181,18.9,2181.2,18.6,2181.2z M18.6,2163.2c-0.3,0-0.5-0.2-0.5-0.5v-8c0-0.3,0.2-0.5,0.5-0.5s0.5,0.2,0.5,0.5v8
		C19.1,2163,18.9,2163.2,18.6,2163.2z M18.6,2145.2c-0.3,0-0.5-0.2-0.5-0.5v-8c0-0.3,0.2-0.5,0.5-0.5s0.5,0.2,0.5,0.5v8
		C19.1,2145,18.9,2145.2,18.6,2145.2z M18.6,2127.2c-0.3,0-0.5-0.2-0.5-0.5v-8c0-0.3,0.2-0.5,0.5-0.5s0.5,0.2,0.5,0.5v8
		C19.1,2127,18.9,2127.2,18.6,2127.2z M18.6,2109.2c-0.3,0-0.5-0.2-0.5-0.5v-8c0-0.3,0.2-0.5,0.5-0.5s0.5,0.2,0.5,0.5v8
		C19.1,2109,18.9,2109.2,18.6,2109.2z M18.6,2091.2c-0.3,0-0.5-0.2-0.5-0.5v-8c0-0.3,0.2-0.5,0.5-0.5s0.5,0.2,0.5,0.5v8
		C19.1,2091,18.9,2091.2,18.6,2091.2z M18.6,2073.2c-0.3,0-0.5-0.2-0.5-0.5v-8c0-0.3,0.2-0.5,0.5-0.5s0.5,0.2,0.5,0.5v8
		C19.1,2073,18.9,2073.2,18.6,2073.2z M18.6,2055.2c-0.3,0-0.5-0.2-0.5-0.5v-8c0-0.3,0.2-0.5,0.5-0.5s0.5,0.2,0.5,0.5v8
		C19.1,2055,18.9,2055.2,18.6,2055.2z M18.6,2037.2c-0.3,0-0.5-0.2-0.5-0.5v-8c0-0.3,0.2-0.5,0.5-0.5s0.5,0.2,0.5,0.5v8
		C19.1,2037,18.9,2037.2,18.6,2037.2z M18.6,2019.2c-0.3,0-0.5-0.2-0.5-0.5v-8c0-0.3,0.2-0.5,0.5-0.5s0.5,0.2,0.5,0.5v8
		C19.1,2019,18.9,2019.2,18.6,2019.2z M18.6,2001.2c-0.3,0-0.5-0.2-0.5-0.5v-8c0-0.3,0.2-0.5,0.5-0.5s0.5,0.2,0.5,0.5v8
		C19.1,2001,18.9,2001.2,18.6,2001.2z M18.6,1983.2c-0.3,0-0.5-0.2-0.5-0.5v-8c0-0.3,0.2-0.5,0.5-0.5s0.5,0.2,0.5,0.5v8
		C19.1,1983,18.9,1983.2,18.6,1983.2z M18.6,1965.2c-0.3,0-0.5-0.2-0.5-0.5v-8c0-0.3,0.2-0.5,0.5-0.5s0.5,0.2,0.5,0.5v8
		C19.1,1965,18.9,1965.2,18.6,1965.2z M18.6,1947.2c-0.3,0-0.5-0.2-0.5-0.5v-8c0-0.3,0.2-0.5,0.5-0.5s0.5,0.2,0.5,0.5v8
		C19.1,1947,18.9,1947.2,18.6,1947.2z M18.6,1929.2c-0.3,0-0.5-0.2-0.5-0.5v-8c0-0.3,0.2-0.5,0.5-0.5s0.5,0.2,0.5,0.5v8
		C19.1,1929,18.9,1929.2,18.6,1929.2z M18.6,1911.2c-0.3,0-0.5-0.2-0.5-0.5v-8c0-0.3,0.2-0.5,0.5-0.5s0.5,0.2,0.5,0.5v8
		C19.1,1911,18.9,1911.2,18.6,1911.2z M18.6,1893.2c-0.3,0-0.5-0.2-0.5-0.5v-8c0-0.3,0.2-0.5,0.5-0.5s0.5,0.2,0.5,0.5v8
		C19.1,1893,18.9,1893.2,18.6,1893.2z M18.6,1875.2c-0.3,0-0.5-0.2-0.5-0.5v-8c0-0.3,0.2-0.5,0.5-0.5s0.5,0.2,0.5,0.5v8
		C19.1,1875,18.9,1875.2,18.6,1875.2z M18.6,1857.2c-0.3,0-0.5-0.2-0.5-0.5v-8c0-0.3,0.2-0.5,0.5-0.5s0.5,0.2,0.5,0.5v8
		C19.1,1857,18.9,1857.2,18.6,1857.2z M18.6,1839.2c-0.3,0-0.5-0.2-0.5-0.5v-8c0-0.3,0.2-0.5,0.5-0.5s0.5,0.2,0.5,0.5v8
		C19.1,1839,18.9,1839.2,18.6,1839.2z M18.6,1821.2c-0.3,0-0.5-0.2-0.5-0.5v-8c0-0.3,0.2-0.5,0.5-0.5s0.5,0.2,0.5,0.5v8
		C19.1,1821,18.9,1821.2,18.6,1821.2z M18.6,1803.2c-0.3,0-0.5-0.2-0.5-0.5v-8c0-0.3,0.2-0.5,0.5-0.5s0.5,0.2,0.5,0.5v8
		C19.1,1803,18.9,1803.2,18.6,1803.2z M18.6,1785.2c-0.3,0-0.5-0.2-0.5-0.5v-8c0-0.3,0.2-0.5,0.5-0.5s0.5,0.2,0.5,0.5v8
		C19.1,1785,18.9,1785.2,18.6,1785.2z M18.6,1767.2c-0.3,0-0.5-0.2-0.5-0.5v-8c0-0.3,0.2-0.5,0.5-0.5s0.5,0.2,0.5,0.5v8
		C19.1,1767,18.9,1767.2,18.6,1767.2z M18.6,1749.2c-0.3,0-0.5-0.2-0.5-0.5v-8c0-0.3,0.2-0.5,0.5-0.5s0.5,0.2,0.5,0.5v8
		C19.1,1749,18.9,1749.2,18.6,1749.2z M18.6,1731.2c-0.3,0-0.5-0.2-0.5-0.5v-8c0-0.3,0.2-0.5,0.5-0.5s0.5,0.2,0.5,0.5v8
		C19.1,1731,18.9,1731.2,18.6,1731.2z M18.6,1713.2c-0.3,0-0.5-0.2-0.5-0.5v-8c0-0.3,0.2-0.5,0.5-0.5s0.5,0.2,0.5,0.5v8
		C19.1,1713,18.9,1713.2,18.6,1713.2z M18.6,1695.2c-0.3,0-0.5-0.2-0.5-0.5v-8c0-0.3,0.2-0.5,0.5-0.5s0.5,0.2,0.5,0.5v8
		C19.1,1695,18.9,1695.2,18.6,1695.2z M18.6,1677.2c-0.3,0-0.5-0.2-0.5-0.5v-8c0-0.3,0.2-0.5,0.5-0.5s0.5,0.2,0.5,0.5v8
		C19.1,1677,18.9,1677.2,18.6,1677.2z M18.6,1659.2c-0.3,0-0.5-0.2-0.5-0.5v-8c0-0.3,0.2-0.5,0.5-0.5s0.5,0.2,0.5,0.5v8
		C19.1,1659,18.9,1659.2,18.6,1659.2z M18.6,1641.2c-0.3,0-0.5-0.2-0.5-0.5v-8c0-0.3,0.2-0.5,0.5-0.5s0.5,0.2,0.5,0.5v8
		C19.1,1641,18.9,1641.2,18.6,1641.2z M18.6,1623.2c-0.3,0-0.5-0.2-0.5-0.5v-8c0-0.3,0.2-0.5,0.5-0.5s0.5,0.2,0.5,0.5v8
		C19.1,1623,18.9,1623.2,18.6,1623.2z M18.6,1605.2c-0.3,0-0.5-0.2-0.5-0.5v-8c0-0.3,0.2-0.5,0.5-0.5s0.5,0.2,0.5,0.5v8
		C19.1,1605,18.9,1605.2,18.6,1605.2z M18.6,1587.2c-0.3,0-0.5-0.2-0.5-0.5v-8c0-0.3,0.2-0.5,0.5-0.5s0.5,0.2,0.5,0.5v8
		C19.1,1587,18.9,1587.2,18.6,1587.2z M18.6,1569.2c-0.3,0-0.5-0.2-0.5-0.5v-8c0-0.3,0.2-0.5,0.5-0.5s0.5,0.2,0.5,0.5v8
		C19.1,1569,18.9,1569.2,18.6,1569.2z M18.6,1551.2c-0.3,0-0.5-0.2-0.5-0.5v-8c0-0.3,0.2-0.5,0.5-0.5s0.5,0.2,0.5,0.5v8
		C19.1,1551,18.9,1551.2,18.6,1551.2z M18.6,1533.2c-0.3,0-0.5-0.2-0.5-0.5v-8c0-0.3,0.2-0.5,0.5-0.5s0.5,0.2,0.5,0.5v8
		C19.1,1533,18.9,1533.2,18.6,1533.2z M18.6,1515.2c-0.3,0-0.5-0.2-0.5-0.5v-8c0-0.3,0.2-0.5,0.5-0.5s0.5,0.2,0.5,0.5v8
		C19.1,1515,18.9,1515.2,18.6,1515.2z M18.6,1497.2c-0.3,0-0.5-0.2-0.5-0.5v-8c0-0.3,0.2-0.5,0.5-0.5s0.5,0.2,0.5,0.5v8
		C19.1,1497,18.9,1497.2,18.6,1497.2z M18.6,1479.2c-0.3,0-0.5-0.2-0.5-0.5v-8c0-0.3,0.2-0.5,0.5-0.5s0.5,0.2,0.5,0.5v8
		C19.1,1479,18.9,1479.2,18.6,1479.2z M18.6,1461.2c-0.3,0-0.5-0.2-0.5-0.5v-8c0-0.3,0.2-0.5,0.5-0.5s0.5,0.2,0.5,0.5v8
		C19.1,1461,18.9,1461.2,18.6,1461.2z M18.6,1443.2c-0.3,0-0.5-0.2-0.5-0.5v-8c0-0.3,0.2-0.5,0.5-0.5s0.5,0.2,0.5,0.5v8
		C19.1,1443,18.9,1443.2,18.6,1443.2z M18.6,1425.2c-0.3,0-0.5-0.2-0.5-0.5v-8c0-0.3,0.2-0.5,0.5-0.5s0.5,0.2,0.5,0.5v8
		C19.1,1425,18.9,1425.2,18.6,1425.2z M18.6,1407.2c-0.3,0-0.5-0.2-0.5-0.5v-8c0-0.3,0.2-0.5,0.5-0.5s0.5,0.2,0.5,0.5v8
		C19.1,1407,18.9,1407.2,18.6,1407.2z M18.6,1389.2c-0.3,0-0.5-0.2-0.5-0.5v-8c0-0.3,0.2-0.5,0.5-0.5s0.5,0.2,0.5,0.5v8
		C19.1,1389,18.9,1389.2,18.6,1389.2z M18.6,1371.2c-0.3,0-0.5-0.2-0.5-0.5v-8c0-0.3,0.2-0.5,0.5-0.5s0.5,0.2,0.5,0.5v8
		C19.1,1371,18.9,1371.2,18.6,1371.2z M18.6,1353.2c-0.3,0-0.5-0.2-0.5-0.5v-8c0-0.3,0.2-0.5,0.5-0.5s0.5,0.2,0.5,0.5v8
		C19.1,1353,18.9,1353.2,18.6,1353.2z M18.6,1335.2c-0.3,0-0.5-0.2-0.5-0.5v-8c0-0.3,0.2-0.5,0.5-0.5s0.5,0.2,0.5,0.5v8
		C19.1,1335,18.9,1335.2,18.6,1335.2z M18.6,1317.2c-0.3,0-0.5-0.2-0.5-0.5v-8c0-0.3,0.2-0.5,0.5-0.5s0.5,0.2,0.5,0.5v8
		C19.1,1317,18.9,1317.2,18.6,1317.2z M18.6,1299.2c-0.3,0-0.5-0.2-0.5-0.5v-8c0-0.3,0.2-0.5,0.5-0.5s0.5,0.2,0.5,0.5v8
		C19.1,1299,18.9,1299.2,18.6,1299.2z M18.6,1281.2c-0.3,0-0.5-0.2-0.5-0.5v-8c0-0.3,0.2-0.5,0.5-0.5s0.5,0.2,0.5,0.5v8
		C19.1,1281,18.9,1281.2,18.6,1281.2z M18.6,1263.2c-0.3,0-0.5-0.2-0.5-0.5v-8c0-0.3,0.2-0.5,0.5-0.5s0.5,0.2,0.5,0.5v8
		C19.1,1263,18.9,1263.2,18.6,1263.2z M18.6,1245.2c-0.3,0-0.5-0.2-0.5-0.5v-8c0-0.3,0.2-0.5,0.5-0.5s0.5,0.2,0.5,0.5v8
		C19.1,1245,18.9,1245.2,18.6,1245.2z M18.6,1227.2c-0.3,0-0.5-0.2-0.5-0.5v-8c0-0.3,0.2-0.5,0.5-0.5s0.5,0.2,0.5,0.5v8
		C19.1,1227,18.9,1227.2,18.6,1227.2z M18.6,1209.2c-0.3,0-0.5-0.2-0.5-0.5v-8c0-0.3,0.2-0.5,0.5-0.5s0.5,0.2,0.5,0.5v8
		C19.1,1209,18.9,1209.2,18.6,1209.2z M18.6,1191.2c-0.3,0-0.5-0.2-0.5-0.5v-8c0-0.3,0.2-0.5,0.5-0.5s0.5,0.2,0.5,0.5v8
		C19.1,1191,18.9,1191.2,18.6,1191.2z M18.6,1173.2c-0.3,0-0.5-0.2-0.5-0.5v-8c0-0.3,0.2-0.5,0.5-0.5s0.5,0.2,0.5,0.5v8
		C19.1,1173,18.9,1173.2,18.6,1173.2z M18.6,1155.2c-0.3,0-0.5-0.2-0.5-0.5v-8c0-0.3,0.2-0.5,0.5-0.5s0.5,0.2,0.5,0.5v8
		C19.1,1155,18.9,1155.2,18.6,1155.2z M18.6,1137.2c-0.3,0-0.5-0.2-0.5-0.5v-8c0-0.3,0.2-0.5,0.5-0.5s0.5,0.2,0.5,0.5v8
		C19.1,1137,18.9,1137.2,18.6,1137.2z M18.6,1119.2c-0.3,0-0.5-0.2-0.5-0.5v-8c0-0.3,0.2-0.5,0.5-0.5s0.5,0.2,0.5,0.5v8
		C19.1,1119,18.9,1119.2,18.6,1119.2z M18.6,1101.2c-0.3,0-0.5-0.2-0.5-0.5v-8c0-0.3,0.2-0.5,0.5-0.5s0.5,0.2,0.5,0.5v8
		C19.1,1101,18.9,1101.2,18.6,1101.2z M18.6,1083.2c-0.3,0-0.5-0.2-0.5-0.5v-8c0-0.3,0.2-0.5,0.5-0.5s0.5,0.2,0.5,0.5v8
		C19.1,1083,18.9,1083.2,18.6,1083.2z M18.6,1065.2c-0.3,0-0.5-0.2-0.5-0.5v-8c0-0.3,0.2-0.5,0.5-0.5s0.5,0.2,0.5,0.5v8
		C19.1,1065,18.9,1065.2,18.6,1065.2z M18.6,1047.2c-0.3,0-0.5-0.2-0.5-0.5v-8c0-0.3,0.2-0.5,0.5-0.5s0.5,0.2,0.5,0.5v8
		C19.1,1047,18.9,1047.2,18.6,1047.2z M18.6,1029.2c-0.3,0-0.5-0.2-0.5-0.5v-8c0-0.3,0.2-0.5,0.5-0.5s0.5,0.2,0.5,0.5v8
		C19.1,1029,18.9,1029.2,18.6,1029.2z M18.6,1011.2c-0.3,0-0.5-0.2-0.5-0.5v-8c0-0.3,0.2-0.5,0.5-0.5s0.5,0.2,0.5,0.5v8
		C19.1,1011,18.9,1011.2,18.6,1011.2z M18.6,993.2c-0.3,0-0.5-0.2-0.5-0.5v-8c0-0.3,0.2-0.5,0.5-0.5s0.5,0.2,0.5,0.5v8
		C19.1,993,18.9,993.2,18.6,993.2z M18.6,975.2c-0.3,0-0.5-0.2-0.5-0.5v-8c0-0.3,0.2-0.5,0.5-0.5s0.5,0.2,0.5,0.5v8
		C19.1,975,18.9,975.2,18.6,975.2z M18.6,957.2c-0.3,0-0.5-0.2-0.5-0.5v-8c0-0.3,0.2-0.5,0.5-0.5s0.5,0.2,0.5,0.5v8
		C19.1,957,18.9,957.2,18.6,957.2z M18.6,939.2c-0.3,0-0.5-0.2-0.5-0.5v-8c0-0.3,0.2-0.5,0.5-0.5s0.5,0.2,0.5,0.5v8
		C19.1,939,18.9,939.2,18.6,939.2z M18.6,921.2c-0.3,0-0.5-0.2-0.5-0.5v-8c0-0.3,0.2-0.5,0.5-0.5s0.5,0.2,0.5,0.5v8
		C19.1,921,18.9,921.2,18.6,921.2z M18.6,903.2c-0.3,0-0.5-0.2-0.5-0.5v-8c0-0.3,0.2-0.5,0.5-0.5s0.5,0.2,0.5,0.5v8
		C19.1,903,18.9,903.2,18.6,903.2z M18.6,885.2c-0.3,0-0.5-0.2-0.5-0.5v-8c0-0.3,0.2-0.5,0.5-0.5s0.5,0.2,0.5,0.5v8
		C19.1,885,18.9,885.2,18.6,885.2z M18.6,867.2c-0.3,0-0.5-0.2-0.5-0.5v-8c0-0.3,0.2-0.5,0.5-0.5s0.5,0.2,0.5,0.5v8
		C19.1,867,18.9,867.2,18.6,867.2z M18.6,849.2c-0.3,0-0.5-0.2-0.5-0.5v-8c0-0.3,0.2-0.5,0.5-0.5s0.5,0.2,0.5,0.5v8
		C19.1,849,18.9,849.2,18.6,849.2z M18.6,831.2c-0.3,0-0.5-0.2-0.5-0.5v-8c0-0.3,0.2-0.5,0.5-0.5s0.5,0.2,0.5,0.5v8
		C19.1,831,18.9,831.2,18.6,831.2z M18.6,813.2c-0.3,0-0.5-0.2-0.5-0.5v-8c0-0.3,0.2-0.5,0.5-0.5s0.5,0.2,0.5,0.5v8
		C19.1,813,18.9,813.2,18.6,813.2z M18.6,795.2c-0.3,0-0.5-0.2-0.5-0.5v-8c0-0.3,0.2-0.5,0.5-0.5s0.5,0.2,0.5,0.5v8
		C19.1,795,18.9,795.2,18.6,795.2z M18.6,777.2c-0.3,0-0.5-0.2-0.5-0.5v-8c0-0.3,0.2-0.5,0.5-0.5s0.5,0.2,0.5,0.5v8
		C19.1,777,18.9,777.2,18.6,777.2z M18.6,759.2c-0.3,0-0.5-0.2-0.5-0.5v-8c0-0.3,0.2-0.5,0.5-0.5s0.5,0.2,0.5,0.5v8
		C19.1,759,18.9,759.2,18.6,759.2z M18.6,741.2c-0.3,0-0.5-0.2-0.5-0.5v-8c0-0.3,0.2-0.5,0.5-0.5s0.5,0.2,0.5,0.5v8
		C19.1,741,18.9,741.2,18.6,741.2z M18.6,723.2c-0.3,0-0.5-0.2-0.5-0.5v-8c0-0.3,0.2-0.5,0.5-0.5s0.5,0.2,0.5,0.5v8
		C19.1,723,18.9,723.2,18.6,723.2z M18.6,705.2c-0.3,0-0.5-0.2-0.5-0.5v-8c0-0.3,0.2-0.5,0.5-0.5s0.5,0.2,0.5,0.5v8
		C19.1,705,18.9,705.2,18.6,705.2z M18.6,687.2c-0.3,0-0.5-0.2-0.5-0.5v-8c0-0.3,0.2-0.5,0.5-0.5s0.5,0.2,0.5,0.5v8
		C19.1,687,18.9,687.2,18.6,687.2z M18.6,669.2c-0.3,0-0.5-0.2-0.5-0.5v-8c0-0.3,0.2-0.5,0.5-0.5s0.5,0.2,0.5,0.5v8
		C19.1,669,18.9,669.2,18.6,669.2z M18.6,651.2c-0.3,0-0.5-0.2-0.5-0.5v-8c0-0.3,0.2-0.5,0.5-0.5s0.5,0.2,0.5,0.5v8
		C19.1,651,18.9,651.2,18.6,651.2z M18.6,633.2c-0.3,0-0.5-0.2-0.5-0.5v-8c0-0.3,0.2-0.5,0.5-0.5s0.5,0.2,0.5,0.5v8
		C19.1,633,18.9,633.2,18.6,633.2z M18.6,615.2c-0.3,0-0.5-0.2-0.5-0.5v-8c0-0.3,0.2-0.5,0.5-0.5s0.5,0.2,0.5,0.5v8
		C19.1,615,18.9,615.2,18.6,615.2z M18.6,597.2c-0.3,0-0.5-0.2-0.5-0.5v-8c0-0.3,0.2-0.5,0.5-0.5s0.5,0.2,0.5,0.5v8
		C19.1,597,18.9,597.2,18.6,597.2z M18.6,579.2c-0.3,0-0.5-0.2-0.5-0.5v-8c0-0.3,0.2-0.5,0.5-0.5s0.5,0.2,0.5,0.5v8
		C19.1,579,18.9,579.2,18.6,579.2z M18.6,561.2c-0.3,0-0.5-0.2-0.5-0.5v-8c0-0.3,0.2-0.5,0.5-0.5s0.5,0.2,0.5,0.5v8
		C19.1,561,18.9,561.2,18.6,561.2z M18.6,543.2c-0.3,0-0.5-0.2-0.5-0.5v-8c0-0.3,0.2-0.5,0.5-0.5s0.5,0.2,0.5,0.5v8
		C19.1,543,18.9,543.2,18.6,543.2z M18.6,525.2c-0.3,0-0.5-0.2-0.5-0.5v-8c0-0.3,0.2-0.5,0.5-0.5s0.5,0.2,0.5,0.5v8
		C19.1,525,18.9,525.2,18.6,525.2z M18.6,507.2c-0.3,0-0.5-0.2-0.5-0.5v-8c0-0.3,0.2-0.5,0.5-0.5s0.5,0.2,0.5,0.5v8
		C19.1,507,18.9,507.2,18.6,507.2z M18.6,489.2c-0.3,0-0.5-0.2-0.5-0.5v-8c0-0.3,0.2-0.5,0.5-0.5s0.5,0.2,0.5,0.5v8
		C19.1,489,18.9,489.2,18.6,489.2z M18.6,471.2c-0.3,0-0.5-0.2-0.5-0.5v-8c0-0.3,0.2-0.5,0.5-0.5s0.5,0.2,0.5,0.5v8
		C19.1,471,18.9,471.2,18.6,471.2z M18.6,453.2c-0.3,0-0.5-0.2-0.5-0.5v-8c0-0.3,0.2-0.5,0.5-0.5s0.5,0.2,0.5,0.5v8
		C19.1,453,18.9,453.2,18.6,453.2z M18.6,435.2c-0.3,0-0.5-0.2-0.5-0.5v-8c0-0.3,0.2-0.5,0.5-0.5s0.5,0.2,0.5,0.5v8
		C19.1,435,18.9,435.2,18.6,435.2z M18.6,417.2c-0.3,0-0.5-0.2-0.5-0.5v-8c0-0.3,0.2-0.5,0.5-0.5s0.5,0.2,0.5,0.5v8
		C19.1,417,18.9,417.2,18.6,417.2z M18.6,399.2c-0.3,0-0.5-0.2-0.5-0.5v-8c0-0.3,0.2-0.5,0.5-0.5s0.5,0.2,0.5,0.5v8
		C19.1,399,18.9,399.2,18.6,399.2z M18.6,381.2c-0.3,0-0.5-0.2-0.5-0.5v-8c0-0.3,0.2-0.5,0.5-0.5s0.5,0.2,0.5,0.5v8
		C19.1,381,18.9,381.2,18.6,381.2z M18.6,363.2c-0.3,0-0.5-0.2-0.5-0.5v-8c0-0.3,0.2-0.5,0.5-0.5s0.5,0.2,0.5,0.5v8
		C19.1,363,18.9,363.2,18.6,363.2z M18.6,345.2c-0.3,0-0.5-0.2-0.5-0.5v-8c0-0.3,0.2-0.5,0.5-0.5s0.5,0.2,0.5,0.5v8
		C19.1,345,18.9,345.2,18.6,345.2z M18.6,327.2c-0.3,0-0.5-0.2-0.5-0.5v-8c0-0.3,0.2-0.5,0.5-0.5s0.5,0.2,0.5,0.5v8
		C19.1,327,18.9,327.2,18.6,327.2z M18.6,309.2c-0.3,0-0.5-0.2-0.5-0.5v-8c0-0.3,0.2-0.5,0.5-0.5s0.5,0.2,0.5,0.5v8
		C19.1,309,18.9,309.2,18.6,309.2z M18.6,291.2c-0.3,0-0.5-0.2-0.5-0.5v-8c0-0.3,0.2-0.5,0.5-0.5s0.5,0.2,0.5,0.5v8
		C19.1,291,18.9,291.2,18.6,291.2z M18.6,273.2c-0.3,0-0.5-0.2-0.5-0.5v-8c0-0.3,0.2-0.5,0.5-0.5s0.5,0.2,0.5,0.5v8
		C19.1,273,18.9,273.2,18.6,273.2z M18.6,255.2c-0.3,0-0.5-0.2-0.5-0.5v-8c0-0.3,0.2-0.5,0.5-0.5s0.5,0.2,0.5,0.5v8
		C19.1,255,18.9,255.2,18.6,255.2z M18.6,237.2c-0.3,0-0.5-0.2-0.5-0.5v-8c0-0.3,0.2-0.5,0.5-0.5s0.5,0.2,0.5,0.5v8
		C19.1,237,18.9,237.2,18.6,237.2z M18.6,219.2c-0.3,0-0.5-0.2-0.5-0.5v-8c0-0.3,0.2-0.5,0.5-0.5s0.5,0.2,0.5,0.5v8
		C19.1,219,18.9,219.2,18.6,219.2z M18.6,201.2c-0.3,0-0.5-0.2-0.5-0.5v-8c0-0.3,0.2-0.5,0.5-0.5s0.5,0.2,0.5,0.5v8
		C19.1,201,18.9,201.2,18.6,201.2z M18.6,183.2c-0.3,0-0.5-0.2-0.5-0.5v-8c0-0.3,0.2-0.5,0.5-0.5s0.5,0.2,0.5,0.5v8
		C19.1,183,18.9,183.2,18.6,183.2z M18.6,165.2c-0.3,0-0.5-0.2-0.5-0.5v-8c0-0.3,0.2-0.5,0.5-0.5s0.5,0.2,0.5,0.5v8
		C19.1,165,18.9,165.2,18.6,165.2z M18.6,147.2c-0.3,0-0.5-0.2-0.5-0.5v-8c0-0.3,0.2-0.5,0.5-0.5s0.5,0.2,0.5,0.5v8
		C19.1,147,18.9,147.2,18.6,147.2z M18.6,129.2c-0.3,0-0.5-0.2-0.5-0.5v-8c0-0.3,0.2-0.5,0.5-0.5s0.5,0.2,0.5,0.5v8
		C19.1,129,18.9,129.2,18.6,129.2z M18.6,111.2c-0.3,0-0.5-0.2-0.5-0.5v-8c0-0.3,0.2-0.5,0.5-0.5s0.5,0.2,0.5,0.5v8
		C19.1,111,18.9,111.2,18.6,111.2z M18.6,93.2c-0.3,0-0.5-0.2-0.5-0.5v-8c0-0.3,0.2-0.5,0.5-0.5s0.5,0.2,0.5,0.5v8
		C19.1,93,18.9,93.2,18.6,93.2z M18.6,75.2c-0.3,0-0.5-0.2-0.5-0.5v-8c0-0.3,0.2-0.5,0.5-0.5s0.5,0.2,0.5,0.5v8
		C19.1,75,18.9,75.2,18.6,75.2z M18.6,57.2c-0.3,0-0.5-0.2-0.5-0.5v-8c0-0.3,0.2-0.5,0.5-0.5s0.5,0.2,0.5,0.5v8
		C19.1,57,18.9,57.2,18.6,57.2z"/>
	<path class="st1" d="M18.6,2216.2c-0.3,0-0.5-0.2-0.5-0.5v-4c0-0.3,0.2-0.5,0.5-0.5s0.5,0.2,0.5,0.5v4
		C19.1,2216,18.9,2216.2,18.6,2216.2z"/>
</g>
<path class="st2" d="M18.2,36.4L0,18.2L18.2,0l18.2,18.2L18.2,36.4z M1.4,18.2L18.2,35L35,18.2L18.2,1.4L1.4,18.2z"/>
<path class="st1" d="M18.2,27.4L9,18.2L18.2,9l9.2,9.2L18.2,27.4z M10.4,18.2l7.8,7.8l7.8-7.8l-7.8-7.8L10.4,18.2z"/>
</svg>
