<svg xmlns="http://www.w3.org/2000/svg" viewBox="0 0 32 32" enable-background="new 0 0 32 32"><style type="text/css">.st0{fill:#66C980;} .st1{fill:#FFFFFF;} .st2{fill:#EC82BE;} .st3{fill:#00B9D1;} .st4{fill:#E9644B;} .st5{opacity:0.6;} .st6{fill:#E37E22;} .st7{fill:#F1CD3F;}</style><circle cx="16" cy="16" r="16" class="st3"/><path d="M19.9 9.6c.4 0 .6.3.6.6v11.5c0 .4-.3.6-.6.6-.1 0-.2 0-.3-.1l-3-3.8-.5-.7-.5.7-3 3.8c-.1.1-.2.1-.3.1-.3 0-.6-.2-.6-.6V10.2c0-.4.3-.6.6-.6h7.6m0-.6h-7.6c-.7 0-1.3.5-1.3 1.2v11.5c0 .8.6 1.3 1.3 1.3.3 0 .6-.1.8-.3l3-3.9 3 3.9c.2.2.5.3.8.3.7 0 1.3-.5 1.3-1.3V10.2c0-.7-.6-1.2-1.3-1.2z" class="st1"/></svg>