<svg xmlns="http://www.w3.org/2000/svg" viewBox="0 0 32 32" enable-background="new 0 0 32 32"><style type="text/css">.st0{fill:#66C980;} .st1{fill:#FFFFFF;} .st2{fill:#EC82BE;} .st3{fill:#00B9D1;} .st4{fill:#E9644B;} .st5{opacity:0.6;} .st6{fill:#E37E22;} .st7{fill:#F1CD3F;}</style><circle cx="16" cy="16" r="16" class="st0"/><path d="M9.3 12.9h13.4c.2 0 .3-.3.3-.4 0-.2-.1-.4-.3-.4H9.3c-.2 0-.3.3-.3.4 0 .2.1.4.3.4zm13.4 7.9H9.3c-.2 0-.3.3-.3.4 0 .2.1.4.3.4h13.4c.2 0 .3-.3.3-.4 0-.1-.1-.4-.3-.4zm0-4.4H9.3c-.2 0-.3.3-.3.4 0 .2.1.4.3.4h13.4c.2 0 .3-.3.3-.4 0-.1-.1-.4-.3-.4z" class="st1"/></svg>