<?xml version="1.0" encoding="utf-8"?>
<!-- Generator: Adobe Illustrator 18.0.0, SVG Export Plug-In . SVG Version: 6.00 Build 0)  -->
<!DOCTYPE svg PUBLIC "-//W3C//DTD SVG 1.1//EN" "http://www.w3.org/Graphics/SVG/1.1/DTD/svg11.dtd">
<svg version="1.1" id="Calque_1" xmlns="http://www.w3.org/2000/svg" xmlns:xlink="http://www.w3.org/1999/xlink" x="0px" y="0px"
	 viewBox="0 0 32 32" style="enable-background:new 0 0 32 32;" xml:space="preserve">
<style type="text/css">
	.st0{fill:#66C980;}
	.st1{fill:#FFFFFF;}
	.st2{fill:#EC82BE;}
	.st3{fill:#00B9D1;}
	.st4{fill:#E9644B;}
	.st5{opacity:0.6;}
	.st6{fill:#E37E22;}
	.st7{fill:#F1CD3F;}
</style>
<g>
	<circle class="st7" cx="16" cy="16" r="16"/>
	<g>
		<path class="st1" d="M9.4,19.9v2.3c0,0.4,0.3,0.8,0.6,0.8h2.4c0.2,0,0.3-0.1,0.5-0.2l10.3-10.3c0.3-0.3,0.3-0.7,0-0.9l-2.4-2.3
			C20.7,9.1,20.5,9,20.4,9c-0.2,0-0.3,0.1-0.5,0.2L9.6,19.4C9.5,19.6,9.4,19.7,9.4,19.9z M21.7,13.1l-2.4-2.4l1.1-1.1l0,0
			c0,0,0,0,0,0l2.4,2.4c0,0,0,0,0,0L21.7,13.1z M10.4,19.5l8.4-8.3l2.4,2.4l-8.4,8.3L10.4,19.5z M10,20.1l2.3,2.3l0,0H10V20.1z"/>
		<path class="st1" d="M14.5,22.4h8.6c0.2,0,0.3,0.1,0.3,0.3c0,0.2-0.1,0.3-0.3,0.3h-8.6c-0.2,0-0.3-0.1-0.3-0.3
			C14.2,22.5,14.3,22.4,14.5,22.4z"/>
		<path class="st1" d="M18.4,12.6c0.1-0.1,0.3-0.1,0.4,0c0.1,0.1,0.1,0.3,0,0.5l-4.3,4.2c-0.1,0.1-0.3,0.1-0.4,0
			c-0.1-0.1-0.1-0.3,0-0.5L18.4,12.6z"/>
		<path class="st1" d="M11.7,19.4l1.4-1.4c0.1-0.1,0.3-0.1,0.4,0c0.1,0.1,0.1,0.3,0,0.5l-1.4,1.4c-0.1,0.1-0.3,0.1-0.4,0
			C11.5,19.7,11.5,19.5,11.7,19.4z"/>
	</g>
</g>
</svg>
