<svg xmlns="http://www.w3.org/2000/svg" viewBox="0 0 32 32" enable-background="new 0 0 32 32"><style type="text/css">.st0{fill:#66C980;} .st1{fill:#FFFFFF;} .st2{fill:#EC82BE;} .st3{fill:#00B9D1;} .st4{fill:#E9644B;} .st5{opacity:0.6;} .st6{fill:#E37E22;} .st7{fill:#F1CD3F;}</style><circle cx="16" cy="16" r="16" class="st6"/><path d="M22.5 22.4L18.3 9.1c0-.1-.2-.2-.3-.2-.1 0-.3.1-.3.2l-4.4 13.3c-.1.2 0 .3.2.4 0 0 .1 0 .1 0 .1 0 .3-.1.3-.2l1.1-3.2h5.9l1 3.2c.1.2.2.2.4.2.2-.1.3-.3.2-.4zm-7.3-3.7l2.8-8.5 2.7 8.5h-5.5zm-2.5 3.9l-1.9-6c0-.1-.1-.1-.2-.1s-.1.1-.2.1l-2 5.9c0 .1 0 .2.1.2s.1.1.2 0l.5-1.5h2.5l.5 1.5c0 .1.1.1.2.1.3 0 .3-.1.3-.2zM9.5 21l1.2-3.5 1.1 3.5H9.5z" class="st1"/></svg>