<svg xmlns="http://www.w3.org/2000/svg" viewBox="0 0 32 32" enable-background="new 0 0 32 32"><style type="text/css">.st0{fill:#66C980;} .st1{fill:#FFFFFF;} .st2{fill:#EC82BE;} .st3{fill:#00B9D1;} .st4{fill:#E9644B;} .st5{opacity:0.6;} .st6{fill:#E37E22;} .st7{fill:#F1CD3F;}</style><circle cx="16" cy="16" r="16" class="st2"/><path d="M22.9 22L19 18.2c.9-1 1.4-2.3 1.4-3.7 0-3.1-2.5-5.7-5.7-5.7-3.1 0-5.7 2.5-5.7 5.7 0 3.1 2.5 5.7 5.7 5.7 1.4 0 2.7-.5 3.7-1.4l3.9 3.9c.2.2.4.2.6 0 .1-.2.1-.5 0-.7zm-8.2-2.7c-2.6 0-4.8-2.2-4.8-4.8 0-2.6 2.2-4.8 4.8-4.8 2.6 0 4.8 2.2 4.8 4.8 0 2.6-2.2 4.8-4.8 4.8z" class="st1"/></svg>