<?xml version="1.0" encoding="utf-8"?>
<!-- Generator: Adobe Illustrator 18.0.0, SVG Export Plug-In . SVG Version: 6.00 Build 0)  -->
<!DOCTYPE svg PUBLIC "-//W3C//DTD SVG 1.1//EN" "http://www.w3.org/Graphics/SVG/1.1/DTD/svg11.dtd">
<svg version="1.1" id="Calque_1" xmlns="http://www.w3.org/2000/svg" xmlns:xlink="http://www.w3.org/1999/xlink" x="0px" y="0px"
	 viewBox="0 0 32 32" style="enable-background:new 0 0 32 32;" xml:space="preserve">
<style type="text/css">
	.st0{fill:#66C980;}
	.st1{fill:#FFFFFF;}
	.st2{fill:#EC82BE;}
	.st3{fill:#00B9D1;}
	.st4{fill:#E9644B;}
	.st5{opacity:0.6;}
	.st6{fill:#E37E22;}
	.st7{fill:#F1CD3F;}
</style>
<g>
	<circle class="st0" cx="16" cy="16" r="16"/>
	<g>
		<path class="st1" d="M9.3,12.9h13.4c0.2,0,0.3-0.3,0.3-0.4c0-0.2-0.1-0.4-0.3-0.4H9.3c-0.2,0-0.3,0.3-0.3,0.4
			C9,12.7,9.1,12.9,9.3,12.9z"/>
		<path class="st1" d="M22.7,20.8H9.3c-0.2,0-0.3,0.3-0.3,0.4c0,0.2,0.1,0.4,0.3,0.4h13.4c0.2,0,0.3-0.3,0.3-0.4
			C23,21.1,22.9,20.8,22.7,20.8z"/>
		<path class="st1" d="M22.7,16.4H9.3c-0.2,0-0.3,0.3-0.3,0.4c0,0.2,0.1,0.4,0.3,0.4h13.4c0.2,0,0.3-0.3,0.3-0.4
			C23,16.7,22.9,16.4,22.7,16.4z"/>
	</g>
</g>
</svg>
