<svg xmlns="http://www.w3.org/2000/svg" viewBox="0 0 32 32" enable-background="new 0 0 32 32"><style type="text/css">.st0{fill:#66C980;} .st1{fill:#FFFFFF;} .st2{fill:#EC82BE;} .st3{fill:#00B9D1;} .st4{fill:#E9644B;} .st5{opacity:0.6;} .st6{fill:#E37E22;} .st7{fill:#F1CD3F;}</style><circle cx="16" cy="16" r="16" class="st7"/><path d="M9.4 19.9v2.3c0 .4.3.8.6.8h2.4c.2 0 .3-.1.5-.2l10.3-10.3c.3-.3.3-.7 0-.9l-2.4-2.3c-.1-.2-.3-.3-.4-.3-.2 0-.3.1-.5.2L9.6 19.4c-.1.2-.2.3-.2.5zm12.3-6.8l-2.4-2.4 1.1-1.1 2.4 2.4-1.1 1.1zm-11.3 6.4l8.4-8.3 2.4 2.4-8.4 8.3-2.4-2.4zm-.4.6l2.3 2.3H10v-2.3zm4.5 2.3h8.6c.2 0 .3.1.3.3 0 .2-.1.3-.3.3h-8.6c-.2 0-.3-.1-.3-.3 0-.2.1-.3.3-.3zm3.9-9.8c.1-.1.3-.1.4 0 .1.1.1.3 0 .5l-4.3 4.2c-.1.1-.3.1-.4 0-.1-.1-.1-.3 0-.5l4.3-4.2zm-6.7 6.8l1.4-1.4c.1-.1.3-.1.4 0 .1.1.1.3 0 .5l-1.4 1.4c-.1.1-.3.1-.4 0-.2-.2-.2-.4 0-.5z" class="st1"/></svg>