<svg xmlns="http://www.w3.org/2000/svg" viewBox="0 0 32 32" enable-background="new 0 0 32 32"><style type="text/css">.st0{fill:#66C980;} .st1{fill:#FFFFFF;} .st2{fill:#EC82BE;} .st3{fill:#00B9D1;} .st4{fill:#E9644B;} .st5{opacity:0.6;} .st6{fill:#E37E22;} .st7{fill:#F1CD3F;}</style><circle cx="16" cy="16" r="16" class="st4"/><path d="M23 14.5l-1-.2c0-.1 0-.3-.1-.4l.6-.8c.4-.5.4-1.3 0-1.8l-.6-.6c-.3-.3-.6-.5-1-.5-.3 0-.5.1-.7.2l-.8.5c-.4-.2-.8-.4-1.2-.5l-.2-1c-.1-.7-.7-1.1-1.3-1.1h-.9c-.7 0-1.2.5-1.3 1.1l-.2 1c-.3.1-.6.2-.8.3l-.8-.6c-.2-.2-.5-.3-.8-.3-.4 0-.7.1-1 .4l-.6.8c-.5.5-.5 1.2-.1 1.8l.6.8c-.1.3-.2.5-.3.8l-1 .2c-.7.1-1.2.7-1.2 1.3v.9c0 .7.5 1.2 1.2 1.3l1 .2c.1.2.1.4.2.5l-.6.8c-.4.5-.4 1.3 0 1.8l.6.6c.3.3.6.5 1 .5.3 0 .5-.1.7-.2l.9-.5c.4.2.7.4 1.1.5l.2 1c.1.7.7 1.2 1.3 1.2h.9c.7 0 1.2-.5 1.3-1.2l.2-1c.3-.1.6-.2.8-.3l.8.6c.2.2.5.3.8.3.4 0 .7-.1 1-.4l.6-.6c.5-.5.5-1.2.1-1.8l-.6-.8c.1-.3.3-.5.3-.8l1-.2c.7-.1 1.1-.7 1.1-1.3v-.9c-.1-.9-.5-1.5-1.2-1.6zm.4 2.2c0 .3-.2.6-.5.6l-1.4.2c-.1.5-.3 1.1-.6 1.5l.9 1.2c.2.3.2.6-.1.8l-.6.6c-.1.1-.3.2-.4.2-.1 0-.3 0-.4-.1l-1.3-.8c-.5.3-1 .5-1.5.6l-.2 1.5c-.1.3-.3.6-.6.6h-.9c-.3 0-.6-.2-.6-.6l-.2-1.5c-.6-.2-1.2-.4-1.8-.8l-1.2.8c-.1.1-.2.1-.3.1-.2 0-.4-.1-.5-.2l-.6-.6c-.2-.2-.2-.6 0-.8l.9-1.1c-.2-.4-.4-.8-.5-1.3l-1.5-.2c-.3-.1-.6-.3-.6-.6v-.9c0-.3.3-.6.6-.6l1.5-.2c.1-.5.4-1.1.6-1.5l-.8-1.2c-.2-.3-.2-.6.1-.8l.6-.6c.1-.1.3-.2.5-.2.1 0 .3 0 .4.1l1.2.8c.5-.3 1-.5 1.5-.6l.2-1.4c0-.3.3-.5.6-.5h.9c.3 0 .6.2.6.5l.2 1.4c.7.2 1.3.4 1.8.8l1.2-.8c.1-.1.2-.1.3-.1.2 0 .4.1.5.2l.6.6c.2.2.2.6 0 .8l-1 1.2c.2.4.4.8.5 1.2l1.4.2c.3.1.5.3.5.6v.9zm-7.2-3.1c-1.5 0-2.7 1.2-2.7 2.7 0 1.5 1.2 2.7 2.7 2.7 1.5 0 2.7-1.2 2.7-2.7 0-1.5-1.2-2.7-2.7-2.7zm0 4.7c-1.1 0-2-.9-2-2s.9-2 2-2 2 .9 2 2-.9 2-2 2z" class="st1"/></svg>