<?xml version="1.0" encoding="utf-8"?>
<!-- Generator: Adobe Illustrator 18.0.0, SVG Export Plug-In . SVG Version: 6.00 Build 0)  -->
<!DOCTYPE svg PUBLIC "-//W3C//DTD SVG 1.1//EN" "http://www.w3.org/Graphics/SVG/1.1/DTD/svg11.dtd">
<svg version="1.1" id="Calque_1" xmlns="http://www.w3.org/2000/svg" xmlns:xlink="http://www.w3.org/1999/xlink" x="0px" y="0px"
	 viewBox="0 0 32 32" style="enable-background:new 0 0 32 32;" xml:space="preserve">
<style type="text/css">
	.st0{fill:#66C980;}
	.st1{fill:#FFFFFF;}
	.st2{fill:#EC82BE;}
	.st3{fill:#00B9D1;}
	.st4{fill:#E9644B;}
	.st5{opacity:0.6;}
	.st6{fill:#E37E22;}
	.st7{fill:#F1CD3F;}
</style>
<g>
	<circle class="st4" cx="16" cy="16" r="16"/>
	<g class="st5">
		<path class="st1" d="M23,14.5l-1-0.2C22,14.2,22,14,21.9,13.9l0.6-0.8c0.4-0.5,0.4-1.3,0-1.8l-0.6-0.6c-0.3-0.3-0.6-0.5-1-0.5
			c-0.3,0-0.5,0.1-0.7,0.2l-0.8,0.5c-0.4-0.2-0.8-0.4-1.2-0.5l-0.2-1c-0.1-0.7-0.7-1.1-1.3-1.1h-0.9c-0.7,0-1.2,0.5-1.3,1.1l-0.2,1
			c-0.3,0.1-0.6,0.2-0.8,0.3l-0.8-0.6c-0.2-0.2-0.5-0.3-0.8-0.3c-0.4,0-0.7,0.1-1,0.4L10.3,11c-0.5,0.5-0.5,1.2-0.1,1.8l0.6,0.8
			c-0.1,0.3-0.2,0.5-0.3,0.8l-1,0.2c-0.7,0.1-1.2,0.7-1.2,1.3v0.9c0,0.7,0.5,1.2,1.2,1.3l1,0.2c0.1,0.2,0.1,0.4,0.2,0.5l-0.6,0.8
			c-0.4,0.5-0.4,1.3,0,1.8l0.6,0.6c0.3,0.3,0.6,0.5,1,0.5c0.3,0,0.5-0.1,0.7-0.2l0.9-0.5c0.4,0.2,0.7,0.4,1.1,0.5l0.2,1
			c0.1,0.7,0.7,1.2,1.3,1.2h0.9c0.7,0,1.2-0.5,1.3-1.2l0.2-1c0.3-0.1,0.6-0.2,0.8-0.3l0.8,0.6c0.2,0.2,0.5,0.3,0.8,0.3
			c0.4,0,0.7-0.1,1-0.4l0.6-0.6c0.5-0.5,0.5-1.2,0.1-1.8l-0.6-0.8c0.1-0.3,0.3-0.5,0.3-0.8l1-0.2c0.7-0.1,1.1-0.7,1.1-1.3v-0.9
			C24.1,15.2,23.7,14.6,23,14.5z M23.4,16.7c0,0.3-0.2,0.6-0.5,0.6l-1.4,0.2c-0.1,0.5-0.3,1.1-0.6,1.5l0.9,1.2
			c0.2,0.3,0.2,0.6-0.1,0.8l-0.6,0.6c-0.1,0.1-0.3,0.2-0.4,0.2c-0.1,0-0.3,0-0.4-0.1L19,20.9c-0.5,0.3-1,0.5-1.5,0.6L17.3,23
			c-0.1,0.3-0.3,0.6-0.6,0.6h-0.9c-0.3,0-0.6-0.2-0.6-0.6l-0.2-1.5c-0.6-0.2-1.2-0.4-1.8-0.8l-1.2,0.8c-0.1,0.1-0.2,0.1-0.3,0.1
			c-0.2,0-0.4-0.1-0.5-0.2l-0.6-0.6c-0.2-0.2-0.2-0.6,0-0.8l0.9-1.1c-0.2-0.4-0.4-0.8-0.5-1.3l-1.5-0.2c-0.3-0.1-0.6-0.3-0.6-0.6
			v-0.9c0-0.3,0.3-0.6,0.6-0.6l1.5-0.2c0.1-0.5,0.4-1.1,0.6-1.5l-0.8-1.2c-0.2-0.3-0.2-0.6,0.1-0.8l0.6-0.6c0.1-0.1,0.3-0.2,0.5-0.2
			c0.1,0,0.3,0,0.4,0.1l1.2,0.8c0.5-0.3,1-0.5,1.5-0.6l0.2-1.4c0-0.3,0.3-0.5,0.6-0.5h0.9c0.3,0,0.6,0.2,0.6,0.5l0.2,1.4
			c0.7,0.2,1.3,0.4,1.8,0.8l1.2-0.8c0.1-0.1,0.2-0.1,0.3-0.1c0.2,0,0.4,0.1,0.5,0.2l0.6,0.6c0.2,0.2,0.2,0.6,0,0.8L21,13.8
			c0.2,0.4,0.4,0.8,0.5,1.2l1.4,0.2c0.3,0.1,0.5,0.3,0.5,0.6V16.7z"/>
		<path class="st1" d="M16.2,13.6c-1.5,0-2.7,1.2-2.7,2.7c0,1.5,1.2,2.7,2.7,2.7c1.5,0,2.7-1.2,2.7-2.7
			C18.9,14.8,17.7,13.6,16.2,13.6z M16.2,18.3c-1.1,0-2-0.9-2-2s0.9-2,2-2s2,0.9,2,2S17.3,18.3,16.2,18.3z"/>
	</g>
</g>
</svg>
