<svg xmlns="http://www.w3.org/2000/svg" viewBox="0 0 283.5 234.5" enable-background="new 0 0 283.5 234.5"><style type="text/css">.st0{fill:#FFF;} .st1{fill:#FFF;} .st2{opacity:0.3;}</style><path d="M131.1 87.2c-11.9-6.3-25.4-9.5-40.5-9.5-2.1 0-4.1.1-6.1.2.1 1.1.1 2.3.1 3.5 0 .5 0 1.1 0 1.6 1.1-.2 2.2-.3 3.4-.3 7.1 0 13.5 2.5 19.1 7.4 5.6 5 10.1 12.8 13.4 23.5 3.3 10.7 5 24.3 5 40.7 0 15.3-1.5 28.6-4.6 39.9-3 11.3-7.2 20-12.6 26-5.3 6-11.4 9-18.3 9-7.1 0-13.5-2.5-19.1-7.4-5.6-5-10.1-12.8-13.4-23.6-3.3-10.8-5-24.4-5-40.9 0-14 1.3-26.2 3.7-36.8-4.9 1.5-10.2 2.3-16 2.3-8 0-15.2-1.5-21.5-4.4 0 0-.1 0-.1 0-6.3 11.9-9.5 25.2-9.5 39.8 0 15.2 3.4 28.5 10.1 40.1 6.7 11.6 16 20.5 27.9 26.8 11.8 6.3 25.3 9.4 40.3 9.4 15.9 0 30.1-3.5 42.4-10.5 12.4-7 22-16.7 28.8-29 6.8-12.3 10.3-26.1 10.3-41.4 0-15-3.3-28.2-10-39.7-6.6-11.5-15.9-20.4-27.8-26.7zM271.5 222.4c-3-1.3-4.8-3.5-6.2-6.7-1.4-3.1-1.8-7.6-1.8-13.3V78.6c-9 5.1-17.9 8.7-28.7 10.9-10.8 2.2-24.3 3.4-41.3 3.7v6.3c8 0 13.7.7 17.5 2.1 3.8 1.4 6.5 4.3 8.1 8.6 1.6 4.3 2.4 11.1 2.4 20.4v70.3c0 8.9-2.2 15.1-6.7 18.5-4.5 3.4-11.3 5.1-20.3 5.1v6c27-.7 43.4-1.1 49.3-1.1 5.9 0 19.7.4 39.7 1.1v-6c-5-.1-9.1-.7-12-2.1zM76.6 78.7c-.5-9.2-3.6-16.5-9.2-21.8-.3-.3-.6-.6-.9-.9-6.1-5.3-14-7.9-23.8-7.9-12 0-21.5 4-28.4 12.1-.1-.6-.2-1.2-.3-1.9-.4-2.4-.6-4.6-.6-6.7 0-.5 0-1 0-1.5.1-2.6.5-5.2 1.1-8 .3-1.1.6-2.2.9-3.4.5-1.5 1-2.9 1.7-4.4.4-.9.8-1.8 1.3-2.6 0 0 0-.1.1-.1.1-.2.2-.3.3-.5 2-3.7 4.6-7.3 7.7-10.8 1.6-1.7 3.2-3.3 5-4.8 2.6-2.3 5.3-4.3 8.2-6 1.6-1 3.3-1.8 5-2.6l-3.4-7C27.6 6.2 17.4 15 10.4 26.3c-4.8 7.8-7.9 16.1-9.4 25-.7 4-1 8.1-1 12.3 0 3.8.2 7.6.7 11.1.4 3.6 1.1 7 2 10.3 1.8 6.6 4.1 11.7 7 15.5 1 1.5 2 2.8 3.2 4.1 2 2.1 4.2 3.9 6.8 5.3.8.5 1.6.9 2.5 1.3.2.1.5.2.7.3 5.1 2.3 11 3.4 17.5 3.4 7.2 0 13.4-1.3 18.8-4 2.7-1.4 5.3-3.1 7.5-5.2 2.9-2.7 5.2-5.7 6.9-9.2C75 93.4 76 89.8 76.4 86c.2-1.5.3-3 .3-4.6 0-.9-.1-1.8-.1-2.7z" class="st1"/></svg>