<?xml version="1.0" encoding="utf-8"?>
<!-- Generator: Adobe Illustrator 18.0.0, SVG Export Plug-In . SVG Version: 6.00 Build 0)  -->
<!DOCTYPE svg PUBLIC "-//W3C//DTD SVG 1.1//EN" "http://www.w3.org/Graphics/SVG/1.1/DTD/svg11.dtd">
<svg version="1.1" id="Calque_1" xmlns="http://www.w3.org/2000/svg" xmlns:xlink="http://www.w3.org/1999/xlink" x="0px" y="0px"
	 viewBox="0 0 283.5 234.5" style="enable-background:new 0 0 283.5 234.5;" xml:space="preserve">
<style type="text/css">
  .st0{fill:#FFF;}
  .st1{fill:#FFF;}
  .st2{opacity:0.3;}
</style>
<g>
	<path class="st1" d="M131.1,87.2c-11.9-6.3-25.4-9.5-40.5-9.5c-2.1,0-4.1,0.1-6.1,0.2c0.1,1.1,0.1,2.3,0.1,3.5c0,0.5,0,1.1,0,1.6
		c1.1-0.2,2.2-0.3,3.4-0.3c7.1,0,13.5,2.5,19.1,7.4c5.6,5,10.1,12.8,13.4,23.5c3.3,10.7,5,24.3,5,40.7c0,15.3-1.5,28.6-4.6,39.9
		c-3,11.3-7.2,20-12.6,26c-5.3,6-11.4,9-18.3,9c-7.1,0-13.5-2.5-19.1-7.4c-5.6-5-10.1-12.8-13.4-23.6c-3.3-10.8-5-24.4-5-40.9
		c0-14,1.3-26.2,3.7-36.8c-4.9,1.5-10.2,2.3-16,2.3c-8,0-15.2-1.5-21.5-4.4c0,0-0.1,0-0.1,0c-6.3,11.9-9.5,25.2-9.5,39.8
		c0,15.2,3.4,28.5,10.1,40.1c6.7,11.6,16,20.5,27.9,26.8c11.8,6.3,25.3,9.4,40.3,9.4c15.9,0,30.1-3.5,42.4-10.5
		c12.4-7,22-16.7,28.8-29c6.8-12.3,10.3-26.1,10.3-41.4c0-15-3.3-28.2-10-39.7C152.3,102.4,143,93.5,131.1,87.2z"/>
	<path class="st1" d="M271.5,222.4c-3-1.3-4.8-3.5-6.2-6.7c-1.4-3.1-1.8-7.6-1.8-13.3V78.6c-9,5.1-17.9,8.7-28.7,10.9
		c-10.8,2.2-24.3,3.4-41.3,3.7v6.3c8,0,13.7,0.7,17.5,2.1c3.8,1.4,6.5,4.3,8.1,8.6c1.6,4.3,2.4,11.1,2.4,20.4v70.3
		c0,8.9-2.2,15.1-6.7,18.5c-4.5,3.4-11.3,5.1-20.3,5.1v6c27-0.7,43.4-1.1,49.3-1.1c5.9,0,19.7,0.4,39.7,1.1v-6
		C278.5,224.4,274.4,223.8,271.5,222.4z"/>
	<path class="st1" d="M76.6,78.7c-0.5-9.2-3.6-16.5-9.2-21.8c-0.3-0.3-0.6-0.6-0.9-0.9c-6.1-5.3-14-7.9-23.8-7.9
		c-12,0-21.5,4-28.4,12.1c-0.1-0.6-0.2-1.2-0.3-1.9c-0.4-2.4-0.6-4.6-0.6-6.7c0-0.5,0-1,0-1.5c0.1-2.6,0.5-5.2,1.1-8
		c0.3-1.1,0.6-2.2,0.9-3.4c0.5-1.5,1-2.9,1.7-4.4c0.4-0.9,0.8-1.8,1.3-2.6c0,0,0-0.1,0.1-0.1c0.1-0.2,0.2-0.3,0.3-0.5
		c2-3.7,4.6-7.3,7.7-10.8c1.6-1.7,3.2-3.3,5-4.8c2.6-2.3,5.3-4.3,8.2-6c1.6-1,3.3-1.8,5-2.6l-3.4-7C27.6,6.2,17.4,15,10.4,26.3
		C5.6,34.1,2.5,42.4,1,51.3c-0.7,4-1,8.1-1,12.3c0,3.8,0.2,7.6,0.7,11.1c0.4,3.6,1.1,7,2,10.3c1.8,6.6,4.1,11.7,7,15.5
		c1,1.5,2,2.8,3.2,4.1c2,2.1,4.2,3.9,6.8,5.3c0.8,0.5,1.6,0.9,2.5,1.3c0.2,0.1,0.5,0.2,0.7,0.3c5.1,2.3,11,3.4,17.5,3.4
		c7.2,0,13.4-1.3,18.8-4c2.7-1.4,5.3-3.1,7.5-5.2c2.9-2.7,5.2-5.7,6.9-9.2C75,93.4,76,89.8,76.4,86c0.2-1.5,0.3-3,0.3-4.6
		C76.7,80.5,76.6,79.6,76.6,78.7z"/>
</g>
</svg>
