<svg xmlns="http://www.w3.org/2000/svg" viewBox="0 0 321.4 235.2" enable-background="new 0 0 321.4 235.2"><style type="text/css">.st0{fill:#FFF;} .st1{fill:#FFF;} .st2{opacity:0.3;}</style><path d="M131.5 87.4c-11.9-6.3-25.5-9.5-40.6-9.5-2.1 0-4.1.1-6.2.2.1 1.2.1 2.3.1 3.5 0 .6 0 1.1 0 1.6 1.1-.2 2.3-.3 3.4-.3 7.1 0 13.5 2.5 19.2 7.5 5.6 5 10.1 12.8 13.5 23.6 3.3 10.8 5 24.4 5 40.8 0 15.3-1.5 28.6-4.6 40-3.1 11.4-7.3 20.1-12.6 26.1-5.4 6-11.5 9-18.3 9-7.1 0-13.5-2.5-19.2-7.5-5.6-5-10.1-12.9-13.5-23.7-3.3-10.8-5-24.5-5-41 0-14 1.3-26.3 3.8-36.9-4.9 1.5-10.3 2.3-16.1 2.3-8 0-15.2-1.5-21.6-4.4 0 0-.1 0-.1 0-6.4 11.9-9.5 25.2-9.5 39.9 0 15.2 3.4 28.6 10.1 40.2 6.8 11.6 16.1 20.5 28 26.8 11.9 6.3 25.3 9.4 40.4 9.4 16 0 30.1-3.5 42.5-10.6 12.4-7 22-16.7 28.9-29.1 6.9-12.3 10.3-26.2 10.3-41.5 0-15-3.3-28.3-10-39.8-6.7-11.3-16-20.2-27.9-26.6zM320.3 183.4h-6.1c-.5 4-1.2 6.4-2.3 8.1-1 1.7-2.8 2.9-5.4 3.7-2.5.8-6.4 1.1-11.7 1.1h-62.4c5-5 15-13 30.1-23.7 15.1-10.6 26.8-20.1 34.9-28.7 8.2-8.5 12.3-18.4 12.3-29.5 0-7.7-2-14.3-5.8-19.8-3.9-5.5-9.5-9.7-16.7-12.5-7.2-2.9-15.8-4.3-25.6-4.3-30.9 0-53.4 12-67.5 36.1l4.9 2.8c5.2-7.4 10.9-13 17.1-16.7 6.2-3.7 13.4-5.6 21.5-5.6 17.9 0 26.9 9.8 26.9 29.4 0 13.7-4.1 27.1-12.3 40.1-8.2 13-19.2 25.8-33 38.4-13.8 12.6-21.8 20.3-24.8 23.1v4.8h83.9c24.3 0 38.6.6 43 1.6-.6-9.6-1-25.4-1-48.4zM76.8 78.9c-.2-4.5-1.1-8.6-2.6-12.2-1.3-3.2-3.2-6.1-5.5-8.5-.4-.4-.7-.8-1.1-1.1-.4-.4-.8-.7-1.2-1.1-1.8-1.6-3.8-2.9-6-4-5-2.5-10.9-3.8-17.7-3.8-6 0-11.4 1-16.1 3-.6.3-1.2.5-1.8.8-4 2-7.5 4.8-10.6 8.3-.3-1.5-.5-3-.7-4.3 0-.1 0-.2 0-.3-.1-1.4-.2-2.7-.2-3.9 0-1.1.1-2.1.1-3.2.3-3.1.9-6.3 1.9-9.7.1-.4.3-.8.4-1.2 1.3-3.6 3-7.1 5.3-10.5 1.5-2.3 3.3-4.5 5.3-6.7C31.7 14.7 37.8 10.2 44.6 7l-2.2-4.5L41.2 0C38 1.5 35 3.1 32.1 4.9 23 10.5 15.7 17.7 10.4 26.4c-1.5 2.5-2.8 5-4 7.5C2.1 43.2 0 53.2 0 63.8c0 7.7.9 14.9 2.7 21.4 1.2 4.4 2.6 8.2 4.3 11.3.8 1.6 1.7 3 2.7 4.2 1.1 1.8 2.4 3.4 3.9 4.8 1 1 2 1.9 3.1 2.7 1.7 1.2 3.5 2.3 5.5 3.2.2.1.5.2.7.3 5.2 2.3 11 3.4 17.5 3.4 4 0 7.6-.4 11-1.2.3-.1.5-.1.8-.2.8-.2 1.6-.4 2.4-.7 1.3-.4 2.5-.9 3.7-1.5.3-.1.6-.3.9-.4.5-.3 1-.5 1.5-.8.4-.2.8-.5 1.2-.7.5-.3 1-.6 1.5-1 1.2-.8 2.3-1.7 3.4-2.7 2.9-2.7 5.2-5.8 6.9-9.2 1.5-3.2 2.5-6.7 2.9-10.6.2-1.5.3-3 .3-4.6 0-.8-.1-1.7-.1-2.6z" class="st0"/></svg>