<?xml version="1.0" encoding="utf-8"?>
<!-- Generator: Adobe Illustrator 18.0.0, SVG Export Plug-In . SVG Version: 6.00 Build 0)  -->
<!DOCTYPE svg PUBLIC "-//W3C//DTD SVG 1.1//EN" "http://www.w3.org/Graphics/SVG/1.1/DTD/svg11.dtd">
<svg version="1.1" id="Calque_1" xmlns="http://www.w3.org/2000/svg" xmlns:xlink="http://www.w3.org/1999/xlink" x="0px" y="0px"
	 viewBox="0 0 321.4 235.2" style="enable-background:new 0 0 321.4 235.2;" xml:space="preserve">
<style type="text/css">
  .st0{fill:#FFF;}
  .st1{fill:#FFF;}
  .st2{opacity:0.3;}
</style>
<g>
	<path class="st0" d="M131.5,87.4c-11.9-6.3-25.5-9.5-40.6-9.5c-2.1,0-4.1,0.1-6.2,0.2c0.1,1.2,0.1,2.3,0.1,3.5c0,0.6,0,1.1,0,1.6
		c1.1-0.2,2.3-0.3,3.4-0.3c7.1,0,13.5,2.5,19.2,7.5c5.6,5,10.1,12.8,13.5,23.6c3.3,10.8,5,24.4,5,40.8c0,15.3-1.5,28.6-4.6,40
		c-3.1,11.4-7.3,20.1-12.6,26.1c-5.4,6-11.5,9-18.3,9c-7.1,0-13.5-2.5-19.2-7.5c-5.6-5-10.1-12.9-13.5-23.7c-3.3-10.8-5-24.5-5-41
		c0-14,1.3-26.3,3.8-36.9c-4.9,1.5-10.3,2.3-16.1,2.3c-8,0-15.2-1.5-21.6-4.4c0,0-0.1,0-0.1,0c-6.4,11.9-9.5,25.2-9.5,39.9
		c0,15.2,3.4,28.6,10.1,40.2c6.8,11.6,16.1,20.5,28,26.8c11.9,6.3,25.3,9.4,40.4,9.4c16,0,30.1-3.5,42.5-10.6
		c12.4-7,22-16.7,28.9-29.1c6.9-12.3,10.3-26.2,10.3-41.5c0-15-3.3-28.3-10-39.8C152.7,102.7,143.4,93.8,131.5,87.4z"/>
	<path class="st0" d="M320.3,183.4h-6.1c-0.5,4-1.2,6.4-2.3,8.1c-1,1.7-2.8,2.9-5.4,3.7c-2.5,0.8-6.4,1.1-11.7,1.1h-62.4
		c5-5,15-13,30.1-23.7c15.1-10.6,26.8-20.1,34.9-28.7c8.2-8.5,12.3-18.4,12.3-29.5c0-7.7-2-14.3-5.8-19.8
		c-3.9-5.5-9.5-9.7-16.7-12.5c-7.2-2.9-15.8-4.3-25.6-4.3c-30.9,0-53.4,12-67.5,36.1l4.9,2.8c5.2-7.4,10.9-13,17.1-16.7
		c6.2-3.7,13.4-5.6,21.5-5.6c17.9,0,26.9,9.8,26.9,29.4c0,13.7-4.1,27.1-12.3,40.1c-8.2,13-19.2,25.8-33,38.4
		c-13.8,12.6-21.8,20.3-24.8,23.1v4.8h83.9c24.3,0,38.6,0.6,43,1.6C320.7,222.2,320.3,206.4,320.3,183.4z"/>
	<path class="st0" d="M76.8,78.9c-0.2-4.5-1.1-8.6-2.6-12.2c-1.3-3.2-3.2-6.1-5.5-8.5c-0.4-0.4-0.7-0.8-1.1-1.1
		c-0.4-0.4-0.8-0.7-1.2-1.1c-1.8-1.6-3.8-2.9-6-4c-5-2.5-10.9-3.8-17.7-3.8c-6,0-11.4,1-16.1,3c-0.6,0.3-1.2,0.5-1.8,0.8
		c-4,2-7.5,4.8-10.6,8.3c-0.3-1.5-0.5-3-0.7-4.3c0-0.1,0-0.2,0-0.3c-0.1-1.4-0.2-2.7-0.2-3.9c0-1.1,0.1-2.1,0.1-3.2
		c0.3-3.1,0.9-6.3,1.9-9.7c0.1-0.4,0.3-0.8,0.4-1.2c1.3-3.6,3-7.1,5.3-10.5c1.5-2.3,3.3-4.5,5.3-6.7C31.7,14.7,37.8,10.2,44.6,7
		l-2.2-4.5L41.2,0c-3.2,1.5-6.2,3.1-9.1,4.9C23,10.5,15.7,17.7,10.4,26.4c-1.5,2.5-2.8,5-4,7.5C2.1,43.2,0,53.2,0,63.8
		c0,7.7,0.9,14.9,2.7,21.4c1.2,4.4,2.6,8.2,4.3,11.3c0.8,1.6,1.7,3,2.7,4.2c1.1,1.8,2.4,3.4,3.9,4.8c1,1,2,1.9,3.1,2.7
		c1.7,1.2,3.5,2.3,5.5,3.2c0.2,0.1,0.5,0.2,0.7,0.3c5.2,2.3,11,3.4,17.5,3.4c4,0,7.6-0.4,11-1.2c0.3-0.1,0.5-0.1,0.8-0.2
		c0.8-0.2,1.6-0.4,2.4-0.7c1.3-0.4,2.5-0.9,3.7-1.5c0.3-0.1,0.6-0.3,0.9-0.4c0.5-0.3,1-0.5,1.5-0.8c0.4-0.2,0.8-0.5,1.2-0.7
		c0.5-0.3,1-0.6,1.5-1c1.2-0.8,2.3-1.7,3.4-2.7c2.9-2.7,5.2-5.8,6.9-9.2c1.5-3.2,2.5-6.7,2.9-10.6c0.2-1.5,0.3-3,0.3-4.6
		C76.9,80.7,76.8,79.8,76.8,78.9z"/>
</g>
</svg>
