<svg xmlns="http://www.w3.org/2000/svg" viewBox="0 0 310.8 272.6" enable-background="new 0 0 310.8 272.6"><style type="text/css">.st0{fill:#FFF;} .st1{fill:#FFF;} .st2{opacity:0.3;}</style><path d="M130.6 86.8c-11.8-6.3-25.3-9.4-40.3-9.4-2.1 0-4.1.1-6.1.2.1 1.1.1 2.3.1 3.5 0 .5 0 1.1 0 1.6 1.1-.2 2.2-.2 3.3-.2 7.1 0 13.4 2.5 19 7.4s10 12.8 13.4 23.4c3.3 10.7 5 24.2 5 40.5 0 15.2-1.5 28.4-4.5 39.7-3 11.3-7.2 19.9-12.5 25.9s-11.4 9-18.2 9c-7.1 0-13.4-2.5-19-7.4s-10-12.8-13.4-23.5c-3.3-10.7-5-24.3-5-40.7 0-13.9 1.2-26.1 3.7-36.6-4.9 1.5-10.2 2.3-15.9 2.3-7.9 0-15.1-1.5-21.5-4.4 0 0-.1 0-.1 0-6.3 11.8-9.4 25-9.4 39.6 0 15.1 3.4 28.4 10.1 39.9 6.7 11.5 16 20.4 27.8 26.6 11.8 6.2 25.2 9.4 40.1 9.4 15.9 0 29.9-3.5 42.2-10.5 12.3-7 21.9-16.6 28.7-28.9 6.8-12.3 10.2-26 10.2-41.2 0-14.9-3.3-28.1-9.9-39.5-6.8-11.5-16-20.4-27.8-26.7zM302.7 177.4c-5.5-6.5-13-11.5-22.6-14.9-9.6-3.4-20.6-5.1-32.9-5.1l-4.9.1c11.7-2.2 22-5.7 30.8-10.4s15.6-10.2 20.3-16.6c4.7-6.3 7.1-13.1 7.1-20.3 0-6.7-2.1-12.5-6.3-17.5-4.2-4.9-10-8.7-17.4-11.4-7.4-2.7-15.8-4-25.2-4-15.3 0-27.7 3.2-37.1 9.7-9.5 6.5-17.1 15.2-23 26.1l5.2 2.5c4.3-7.4 9.7-12.9 16.1-16.7 6.4-3.8 13.5-5.7 21.1-5.7 8.1 0 14.4 2.1 18.8 6.2 4.4 4.2 6.6 10.5 6.6 19 0 15.3-7.4 28.1-22.1 38.5-1.5-.1-3.2-.3-5.2-.6s-3.6-.5-4.7-.5c-2.6 0-4.8.5-6.6 1.6-1.8 1.1-2.7 2.6-2.7 4.7 0 2.6 1.8 3.9 5.5 3.9 3 0 7.9-1.5 14.7-4.5 6.2.5 11.5 2.4 16 5.9 4.5 3.5 8 8.1 10.4 14 2.4 5.9 3.6 12.5 3.6 19.9 0 13.3-3.9 24.9-11.8 34.7-7.9 9.8-18 17.3-30.1 22.5-12.1 5.2-24.2 8-37.2 8.4v5.7c20 0 38.6-3 57.4-9 18.8-6 34.3-14.4 46.3-25.2 12-10.9 18.1-23.3 18.1-37.4-.1-9.2-2.8-17.1-8.2-23.6zM76.2 78.3c-.1-1.2-.2-2.3-.3-3.4-.9-7-3.5-12.7-7.7-17.2-.4-.4-.7-.8-1.1-1.1-1.7-1.6-3.6-3-5.6-4.2-1.2-.7-2.4-1.3-3.7-1.8-4.5-1.8-9.6-2.8-15.4-2.8-11.9 0-21.4 4-28.3 12.1-.5-2.3-.7-4.4-.9-6.3 0-.3 0-.6 0-.8 0-.4 0-.9 0-1.3 0-2 .2-4.1.5-6.2.1-.5.2-1.1.3-1.6.2-1.1.5-2.2.8-3.3.2-.6.3-1.1.5-1.7.8-2.6 1.9-5.2 3.3-7.7 2-3.6 4.5-7.1 7.6-10.6 3.6-3.9 7.5-7.2 11.7-9.9C40 9.2 42.1 8 44.3 7l-3.4-7c-2.5 1.2-4.9 2.4-7.2 3.7-1.8 1.1-3.6 2.2-5.3 3.4-7.4 5.2-13.4 11.6-18 19.1-.3.5-.6 1.1-.9 1.6-2.8 4.9-5 10-6.6 15.2C1 49.5 0 56.3 0 63.3c0 3.8.2 7.4.6 10.9.4 3.6 1.1 7.1 2 10.4.7 2.5 1.4 4.7 2.2 6.8 1.4 3.4 2.9 6.3 4.8 8.7 1.3 2 2.8 3.8 4.6 5.4 2.3 2.1 4.9 3.8 7.8 5.2.2.1.5.2.7.3 2.1.9 4.4 1.7 6.8 2.2 3.3.8 6.9 1.2 10.6 1.2 7.1 0 13.4-1.3 18.7-4 2.7-1.4 5.2-3.1 7.5-5.1 2.1-1.9 3.8-4 5.3-6.3.9-1.4 1.6-2.8 2.2-4.3.4-1 .8-2 1.1-3.1.5-1.9.9-3.8 1.2-5.9.2-1.5.3-3 .3-4.6-.1-1-.1-1.9-.2-2.8z" class="st0"/></svg>