<?xml version="1.0" encoding="utf-8"?>
<!-- Generator: Adobe Illustrator 18.0.0, SVG Export Plug-In . SVG Version: 6.00 Build 0)  -->
<!DOCTYPE svg PUBLIC "-//W3C//DTD SVG 1.1//EN" "http://www.w3.org/Graphics/SVG/1.1/DTD/svg11.dtd">
<svg version="1.1" id="Calque_1" xmlns="http://www.w3.org/2000/svg" xmlns:xlink="http://www.w3.org/1999/xlink" x="0px" y="0px"
	 viewBox="0 0 310.8 272.6" style="enable-background:new 0 0 310.8 272.6;" xml:space="preserve">
<style type="text/css">
  .st0{fill:#FFF;}
  .st1{fill:#FFF;}
  .st2{opacity:0.3;}
</style>
<g>
	<path class="st0" d="M130.6,86.8c-11.8-6.3-25.3-9.4-40.3-9.4c-2.1,0-4.1,0.1-6.1,0.2c0.1,1.1,0.1,2.3,0.1,3.5c0,0.5,0,1.1,0,1.6
		c1.1-0.2,2.2-0.2,3.3-0.2c7.1,0,13.4,2.5,19,7.4c5.6,4.9,10,12.8,13.4,23.4c3.3,10.7,5,24.2,5,40.5c0,15.2-1.5,28.4-4.5,39.7
		c-3,11.3-7.2,19.9-12.5,25.9c-5.3,6-11.4,9-18.2,9c-7.1,0-13.4-2.5-19-7.4c-5.6-4.9-10-12.8-13.4-23.5c-3.3-10.7-5-24.3-5-40.7
		c0-13.9,1.2-26.1,3.7-36.6c-4.9,1.5-10.2,2.3-15.9,2.3c-7.9,0-15.1-1.5-21.5-4.4c0,0-0.1,0-0.1,0c-6.3,11.8-9.4,25-9.4,39.6
		c0,15.1,3.4,28.4,10.1,39.9c6.7,11.5,16,20.4,27.8,26.6c11.8,6.2,25.2,9.4,40.1,9.4c15.9,0,29.9-3.5,42.2-10.5
		c12.3-7,21.9-16.6,28.7-28.9c6.8-12.3,10.2-26,10.2-41.2c0-14.9-3.3-28.1-9.9-39.5C151.6,102,142.4,93.1,130.6,86.8z"/>
	<path class="st0" d="M302.7,177.4c-5.5-6.5-13-11.5-22.6-14.9c-9.6-3.4-20.6-5.1-32.9-5.1l-4.9,0.1c11.7-2.2,22-5.7,30.8-10.4
		c8.8-4.7,15.6-10.2,20.3-16.6c4.7-6.3,7.1-13.1,7.1-20.3c0-6.7-2.1-12.5-6.3-17.5c-4.2-4.9-10-8.7-17.4-11.4
		c-7.4-2.7-15.8-4-25.2-4c-15.3,0-27.7,3.2-37.1,9.7c-9.5,6.5-17.1,15.2-23,26.1l5.2,2.5c4.3-7.4,9.7-12.9,16.1-16.7
		c6.4-3.8,13.5-5.7,21.1-5.7c8.1,0,14.4,2.1,18.8,6.2c4.4,4.2,6.6,10.5,6.6,19c0,15.3-7.4,28.1-22.1,38.5c-1.5-0.1-3.2-0.3-5.2-0.6
		c-2-0.3-3.6-0.5-4.7-0.5c-2.6,0-4.8,0.5-6.6,1.6c-1.8,1.1-2.7,2.6-2.7,4.7c0,2.6,1.8,3.9,5.5,3.9c3,0,7.9-1.5,14.7-4.5
		c6.2,0.5,11.5,2.4,16,5.9c4.5,3.5,8,8.1,10.4,14c2.4,5.9,3.6,12.5,3.6,19.9c0,13.3-3.9,24.9-11.8,34.7c-7.9,9.8-18,17.3-30.1,22.5
		c-12.1,5.2-24.2,8-37.2,8.4v5.7c20,0,38.6-3,57.4-9c18.8-6,34.3-14.4,46.3-25.2c12-10.9,18.1-23.3,18.1-37.4
		C310.8,191.8,308.1,183.9,302.7,177.4z"/>
	<path class="st0" d="M76.2,78.3c-0.1-1.2-0.2-2.3-0.3-3.4c-0.9-7-3.5-12.7-7.7-17.2c-0.4-0.4-0.7-0.8-1.1-1.1
		c-1.7-1.6-3.6-3-5.6-4.2c-1.2-0.7-2.4-1.3-3.7-1.8c-4.5-1.8-9.6-2.8-15.4-2.8c-11.9,0-21.4,4-28.3,12.1c-0.5-2.3-0.7-4.4-0.9-6.3
		c0-0.3,0-0.6,0-0.8c0-0.4,0-0.9,0-1.3c0-2,0.2-4.1,0.5-6.2c0.1-0.5,0.2-1.1,0.3-1.6c0.2-1.1,0.5-2.2,0.8-3.3
		c0.2-0.6,0.3-1.1,0.5-1.7c0.8-2.6,1.9-5.2,3.3-7.7c2-3.6,4.5-7.1,7.6-10.6c3.6-3.9,7.5-7.2,11.7-9.9C40,9.2,42.1,8,44.3,7l-3.4-7
		c-2.5,1.2-4.9,2.4-7.2,3.7c-1.8,1.1-3.6,2.2-5.3,3.4c-7.4,5.2-13.4,11.6-18,19.1c-0.3,0.5-0.6,1.1-0.9,1.6c-2.8,4.9-5,10-6.6,15.2
		C1,49.5,0,56.3,0,63.3c0,3.8,0.2,7.4,0.6,10.9c0.4,3.6,1.1,7.1,2,10.4c0.7,2.5,1.4,4.7,2.2,6.8c1.4,3.4,2.9,6.3,4.8,8.7
		c1.3,2,2.8,3.8,4.6,5.4c2.3,2.1,4.9,3.8,7.8,5.2c0.2,0.1,0.5,0.2,0.7,0.3c2.1,0.9,4.4,1.7,6.8,2.2c3.3,0.8,6.9,1.2,10.6,1.2
		c7.1,0,13.4-1.3,18.7-4c2.7-1.4,5.2-3.1,7.5-5.1c2.1-1.9,3.8-4,5.3-6.3c0.9-1.4,1.6-2.8,2.2-4.3c0.4-1,0.8-2,1.1-3.1
		c0.5-1.9,0.9-3.8,1.2-5.9c0.2-1.5,0.3-3,0.3-4.6C76.3,80.1,76.3,79.2,76.2,78.3z"/>
</g>
</svg>
