<?xml version="1.0" encoding="utf-8"?>
<!-- Generator: Adobe Illustrator 18.0.0, SVG Export Plug-In . SVG Version: 6.00 Build 0)  -->
<!DOCTYPE svg PUBLIC "-//W3C//DTD SVG 1.1//EN" "http://www.w3.org/Graphics/SVG/1.1/DTD/svg11.dtd">
<svg version="1.1" id="Calque_1" xmlns="http://www.w3.org/2000/svg" xmlns:xlink="http://www.w3.org/1999/xlink" x="0px" y="0px"
	 viewBox="0 0 320.2 270.4" style="enable-background:new 0 0 320.2 270.4;" xml:space="preserve">
<style type="text/css">
  .st0{fill:#FFF;}
  .st1{fill:#FFF;}
  .st2{opacity:0.3;}
</style>
<g>
	<path class="st0" d="M128.8,87.1c-11.9-6.3-25.3-9.5-40.4-9.5c-1.3,0-2.6,0-4,0.1c0.1,1.2,0.1,2.4,0.1,3.6c0,0.5,0,0.9,0,1.4
		c0.4,0,0.8,0,1.2,0c7.1,0,13.5,2.5,19.1,7.4c5.6,5,10.1,12.8,13.4,23.5c3.3,10.7,5,24.2,5,40.6c0,15.2-1.5,28.5-4.6,39.8
		c-3,11.3-7.2,20-12.6,26c-5.3,6-11.4,9-18.2,9c-7.1,0-13.5-2.5-19.1-7.4c-5.6-5-10.1-12.8-13.4-23.6c-3.3-10.8-5-24.4-5-40.8
		c0-13.7,1.2-25.7,3.6-36.1c-4.2,1.1-8.8,1.6-13.7,1.6c-7.9,0-15.2-1.5-21.5-4.4c-0.6-0.3-1.2-0.6-1.8-0.9C10.3,129.5,7,143,7,158
		c0,15.2,3.4,28.5,10.1,40.1c6.7,11.6,16,20.5,27.8,26.7c11.8,6.3,25.2,9.4,40.2,9.4c15.9,0,30-3.5,42.4-10.5
		c12.3-7,21.9-16.7,28.8-29c6.8-12.3,10.2-26.1,10.2-41.3c0-15-3.3-28.2-10-39.6C149.9,102.3,140.7,93.4,128.8,87.1z"/>
	<path class="st0" d="M318.9,177.4h-6c-0.6,3-1.3,6.2-2.3,7.9c-1,1.7-2.8,3-5.3,3.8c-2.6,0.8-6.5,1.3-11.7,1.3h-1.8v-113h-5.1
		L179.7,213.7v5.7h78v51h34v-50.5c16,0.3,25.6,0.8,28.5,1.5C319.5,212.4,318.9,197.4,318.9,177.4z M257.7,190.4h-51.7l51.7-67.1
		V190.4z"/>
	<path class="st0" d="M21.2,110.6c0.3,0.2,0.6,0.3,1,0.5c5.3,2.5,11.3,3.7,18.1,3.7c6.1,0,11.5-1,16.2-2.9c1.6-0.7,3.2-1.4,4.7-2.3
		c1.9-1.1,3.7-2.5,5.4-4c5.9-5.4,9.2-12.4,9.9-20.9c0.1-1.1,0.1-2.2,0.1-3.4c0-1,0-2-0.1-3c-0.5-9-3.6-16.2-9.2-21.5
		C61.1,50.9,52.9,48,42.5,48c-12,0-21.4,4-28.4,12.1c-0.1-0.6-0.2-1.1-0.3-1.7c-0.4-2.5-0.6-4.8-0.6-6.8c0-4,0.7-8.3,2.1-12.9
		c1.2-3.9,3-7.6,5.4-11.3c1.6-2.4,3.4-4.8,5.5-7.1c2.9-3.2,6.1-6,9.5-8.4c2.7-1.9,5.6-3.6,8.7-5L44,6.1L41,0
		C27.5,6.2,17.3,14.9,10.4,26.3C3.5,37.6,0,50,0,63.5c0,3.8,0.2,7.5,0.7,11.1s1.1,7,2,10.3c0.6,2.2,1.3,4.3,2,6.2
		c0.1,0.4,0.3,0.7,0.4,1.1c0.5,1.2,1,2.3,1.5,3.3c0.9,1.8,1.9,3.4,3,4.8C12.5,104.7,16.3,108.1,21.2,110.6z"/>
</g>
</svg>
