<svg xmlns="http://www.w3.org/2000/svg" viewBox="0 0 303.4 273.5" enable-background="new 0 0 303.4 273.5"><style type="text/css">.st0{fill:#FFF;} .st1{fill:#FFF;} .st2{opacity:0.3;}</style><path d="M292.9 119c-4.1-.9-17.5-1.4-40.2-1.4h-44.4l-4.7 49.4c11.1-7.7 25.6-11.6 43.6-11.6 12.5 0 23 2 31.4 6 8.4 4 14.7 9.4 18.8 16.3 4.1 6.9 6.1 14.7 6.1 23.4 0 14.3-5.6 26.9-16.7 37.9s-25.5 19.5-43.2 25.5c-17.7 6-35.8 9-54.4 9v-5.2c12.2-.1 23.8-2.7 34.7-8 10.9-5.2 19.7-12.8 26.5-22.6 6.8-9.9 10.2-21.5 10.2-35 0-12-2.8-21.3-8.5-27.8s-13.9-9.7-24.6-9.7c-5.3 0-9.9.7-13.8 2-3.9 1.4-8 3.5-12.3 6.3l-3.9-2.5 9.2-90.4c3.9.8 9.1 1.1 15.7 1.1h47.7c5.5 0 9.4-.8 11.6-2.4 2.2-1.6 3.6-4.6 4.2-8.9h6.1c-.4 21.5 0 37.7.9 48.6zM128.8 87.1c-11.9-6.3-25.3-9.5-40.4-9.5-1.3 0-2.6 0-4 .1.1 1.2.1 2.4.1 3.6 0 .5 0 .9 0 1.4.4 0 .8 0 1.2 0 7.1 0 13.5 2.5 19.1 7.4 5.6 5 10.1 12.8 13.4 23.5 3.3 10.7 5 24.2 5 40.6 0 15.2-1.5 28.5-4.6 39.8-3 11.3-7.2 20-12.6 26-5.3 6-11.4 9-18.2 9-7.1 0-13.5-2.5-19.1-7.4-5.6-5-10.1-12.8-13.4-23.6-3.3-10.8-5-24.4-5-40.8 0-13.7 1.2-25.7 3.6-36.1-4.2 1.1-8.8 1.6-13.7 1.6-7.9 0-15.2-1.5-21.5-4.4-.6-.3-1.2-.6-1.8-.9C10.3 129.5 7 143 7 158c0 15.2 3.4 28.5 10.1 40.1 6.7 11.6 16 20.5 27.8 26.7 11.8 6.3 25.2 9.4 40.2 9.4 15.9 0 30-3.5 42.4-10.5 12.3-7 21.9-16.7 28.8-29 6.8-12.3 10.2-26.1 10.2-41.3 0-15-3.3-28.2-10-39.6-6.6-11.5-15.8-20.4-27.7-26.7zM21.2 110.6c.3.2.6.3 1 .5 5.3 2.5 11.3 3.7 18.1 3.7 6.1 0 11.5-1 16.2-2.9 1.6-.7 3.2-1.4 4.7-2.3 1.9-1.1 3.7-2.5 5.4-4 5.9-5.4 9.2-12.4 9.9-20.9.1-1.1.1-2.2.1-3.4 0-1 0-2-.1-3-.5-9-3.6-16.2-9.2-21.5-6.2-5.9-14.4-8.8-24.8-8.8-12 0-21.4 4-28.4 12.1-.1-.6-.2-1.1-.3-1.7-.4-2.5-.6-4.8-.6-6.8 0-4 .7-8.3 2.1-12.9 1.2-3.9 3-7.6 5.4-11.3 1.6-2.4 3.4-4.8 5.5-7.1 2.9-3.2 6.1-6 9.5-8.4 2.7-1.9 5.6-3.6 8.7-5l-.4-.8L41 0C27.5 6.2 17.3 14.9 10.4 26.3 3.5 37.6 0 50 0 63.5c0 3.8.2 7.5.7 11.1s1.1 7 2 10.3c.6 2.2 1.3 4.3 2 6.2.1.4.3.7.4 1.1.5 1.2 1 2.3 1.5 3.3.9 1.8 1.9 3.4 3 4.8 2.9 4.4 6.7 7.8 11.6 10.3z" class="st0"/></svg>
