<svg xmlns="http://www.w3.org/2000/svg" viewBox="0 0 332.6 234.9" enable-background="new 0 0 332.6 234.9"><style type="text/css">.st0{fill:#FFF;} .st1{fill:#FFF;} .st2{opacity:0.3;}</style><path d="M276.8 42.9c-9.3 6.2-17.4 15.7-24.5 28.5-7.1 12.8-11.8 30-14.2 51.4 3.9-6.6 9.3-11.4 16.1-14.5 6.8-3.1 14.1-4.6 21.9-4.6 10.3 0 19.8 2.5 28.4 7.5 8.6 5 15.4 12.3 20.5 21.7s7.6 20.5 7.6 33.1c0 14.3-3.2 26.6-9.7 37-6.4 10.4-15.1 18.3-26.1 23.7-11 5.4-23 8.1-36 8.1-14 0-26.1-3.2-36.3-9.7-10.2-6.5-18-15.9-23.5-28.2-5.5-12.3-8.2-27.1-8.2-44.4 0-26.8 6-49.5 18.1-68.2 12.1-18.7 26.9-33 44.4-43s35.1-16.5 52.7-19.4l1.3 5.8c-12.4 4-23.2 9-32.5 15.2zm-.4 179.9c3.8-4.2 6.9-10.8 9.2-19.8 2.3-9 3.5-20.4 3.5-34.3 0-19.6-2.3-34-6.8-43.1-4.5-9.1-10.4-13.6-17.8-13.6-4.9 0-9.9 1.8-15.2 5.4-5.2 3.6-9.2 9-12.1 16.2-.5 6.6-.7 13.4-.7 20.6 0 18.1 1.3 32.6 3.9 43.8 2.6 11.1 6 19.1 10 23.9 4 4.8 8.4 7.2 13.1 7.2 4.8 0 9.1-2.1 12.9-6.3zM128.8 87.1c-11.9-6.3-25.3-9.5-40.4-9.5-1.3 0-2.6 0-4 .1.1 1.2.1 2.4.1 3.6 0 .5 0 .9 0 1.4.4 0 .8 0 1.2 0 7.1 0 13.5 2.5 19.1 7.4 5.6 5 10.1 12.8 13.4 23.5 3.3 10.7 5 24.2 5 40.6 0 15.2-1.5 28.5-4.6 39.8-3 11.3-7.2 20-12.6 26-5.3 6-11.4 9-18.2 9-7.1 0-13.5-2.5-19.1-7.4-5.6-5-10.1-12.8-13.4-23.6-3.3-10.8-5-24.4-5-40.8 0-13.7 1.2-25.7 3.6-36.1-4.2 1.1-8.8 1.6-13.7 1.6-7.9 0-15.2-1.5-21.5-4.4-.6-.3-1.2-.6-1.8-.9C10.3 129.5 7 143 7 158c0 15.2 3.4 28.5 10.1 40.1 6.7 11.6 16 20.5 27.8 26.7 11.8 6.3 25.2 9.4 40.2 9.4 15.9 0 30-3.5 42.4-10.5 12.3-7 21.9-16.7 28.8-29 6.8-12.3 10.2-26.1 10.2-41.3 0-15-3.3-28.2-10-39.6-6.6-11.5-15.8-20.4-27.7-26.7zM21.2 110.6c.3.2.6.3 1 .5 5.3 2.5 11.3 3.7 18.1 3.7 6.1 0 11.5-1 16.2-2.9 1.6-.7 3.2-1.4 4.7-2.3 1.9-1.1 3.7-2.5 5.4-4 5.9-5.4 9.2-12.4 9.9-20.9.1-1.1.1-2.2.1-3.4 0-1 0-2-.1-3-.5-9-3.6-16.2-9.2-21.5-6.2-5.9-14.4-8.8-24.8-8.8-12 0-21.4 4-28.4 12.1-.1-.6-.2-1.1-.3-1.7-.4-2.5-.6-4.8-.6-6.8 0-4 .7-8.3 2.1-12.9 1.2-3.9 3-7.6 5.4-11.3 1.6-2.4 3.4-4.8 5.5-7.1 2.9-3.2 6.1-6 9.5-8.4 2.7-1.9 5.6-3.6 8.7-5l-.4-.8L41 0C27.5 6.2 17.3 14.9 10.4 26.3 3.5 37.6 0 50 0 63.5c0 3.8.2 7.5.7 11.1s1.1 7 2 10.3c.6 2.2 1.3 4.3 2 6.2.1.4.3.7.4 1.1.5 1.2 1 2.3 1.5 3.3.9 1.8 1.9 3.4 3 4.8 2.9 4.4 6.7 7.8 11.6 10.3z" class="st0"/></svg>
