<?xml version="1.0" encoding="utf-8"?>
<!-- Generator: Adobe Illustrator 18.0.0, SVG Export Plug-In . SVG Version: 6.00 Build 0)  -->
<!DOCTYPE svg PUBLIC "-//W3C//DTD SVG 1.1//EN" "http://www.w3.org/Graphics/SVG/1.1/DTD/svg11.dtd">
<svg version="1.1" id="Calque_1" xmlns="http://www.w3.org/2000/svg" xmlns:xlink="http://www.w3.org/1999/xlink" x="0px" y="0px"
	 viewBox="0 0 1000 1000" style="enable-background:new 0 0 1000 1000;" xml:space="preserve">
<style type="text/css">
	.st0{fill:url(#SVGID_1_);}
	.st1{fill:url(#SVGID_2_);}
	.st2{fill:url(#SVGID_3_);}
	.st3{fill:url(#SVGID_4_);}
	.st4{fill:url(#SVGID_5_);}
	.st5{fill:url(#SVGID_6_);}
	.st6{fill:url(#SVGID_7_);}
	.st7{fill:url(#SVGID_8_);}
	.st8{fill:url(#SVGID_9_);}
	.st9{fill:#FF0000;}
	.st10{fill:url(#SVGID_10_);}
	.st11{fill:url(#SVGID_11_);}
	.st12{fill:url(#SVGID_12_);}
	.st13{fill:url(#SVGID_13_);}
	.st14{fill:url(#SVGID_14_);}
	.st15{fill:url(#SVGID_15_);}
	.st16{fill:url(#SVGID_16_);}
	.st17{fill:url(#SVGID_17_);}
	.st18{fill:url(#SVGID_18_);}
	.st19{fill:url(#SVGID_19_);}
	.st20{fill:url(#SVGID_20_);}
	.st21{fill:url(#SVGID_21_);}
	.st22{fill:url(#SVGID_22_);}
	.st23{fill:url(#SVGID_23_);}
	.st24{fill:url(#SVGID_24_);}
	.st25{fill:url(#SVGID_25_);}
	.st26{fill:url(#SVGID_26_);}
	.st27{fill:url(#SVGID_27_);}
	.st28{fill:url(#SVGID_28_);}
	.st29{fill:url(#SVGID_29_);}
	.st30{fill:url(#SVGID_30_);}
	.st31{fill:url(#SVGID_31_);}
	.st32{fill:url(#SVGID_32_);}
	.st33{fill:url(#SVGID_33_);}
	.st34{fill:url(#SVGID_34_);}
	.st35{fill:url(#SVGID_35_);}
	.st36{fill:url(#SVGID_36_);}
	.st37{fill:url(#SVGID_37_);}
	.st38{fill:url(#SVGID_38_);}
	.st39{fill:url(#SVGID_39_);}
	.st40{fill:url(#SVGID_40_);}
	.st41{fill:url(#SVGID_41_);}
	.st42{fill:url(#SVGID_42_);}
	.st43{fill:url(#SVGID_43_);}
	.st44{fill:url(#SVGID_44_);}
	.st45{fill:url(#SVGID_45_);}
	.st46{fill:url(#SVGID_46_);}
</style>
<g>
	<linearGradient id="SVGID_1_" gradientUnits="userSpaceOnUse" x1="36.8789" y1="706.7028" x2="36.8789" y2="7.0111">
		<stop  offset="0" style="stop-color:#008DB9"/>
		<stop  offset="1" style="stop-color:#6AD7D9"/>
	</linearGradient>
	<rect x="0" y="0" class="st0" width="73.8" height="713.7"/>
	<linearGradient id="SVGID_2_" gradientUnits="userSpaceOnUse" x1="181.1302" y1="708.869" x2="181.1302" y2="-0.202">
		<stop  offset="0" style="stop-color:#008DB9"/>
		<stop  offset="1" style="stop-color:#6AD7D9"/>
	</linearGradient>
	<rect x="143.2" y="0" class="st1" width="75.9" height="713.7"/>
	<linearGradient id="SVGID_3_" gradientUnits="userSpaceOnUse" x1="996.5346" y1="181.1288" x2="280.7014" y2="181.1288">
		<stop  offset="0" style="stop-color:#008DB9"/>
		<stop  offset="1" style="stop-color:#6AD7D9"/>
	</linearGradient>
	<rect x="284.2" y="143.2" class="st2" width="715.8" height="75.9"/>
	<linearGradient id="SVGID_4_" gradientUnits="userSpaceOnUse" x1="1001.8746" y1="80.6022" x2="376.2891" y2="4.5762">
		<stop  offset="0" style="stop-color:#008DB9"/>
		<stop  offset="1" style="stop-color:#6AD7D9"/>
	</linearGradient>
	<rect x="284.2" y="0" class="st3" width="715.8" height="73.8"/>
	<linearGradient id="SVGID_5_" gradientUnits="userSpaceOnUse" x1="818.8725" y1="713.9117" x2="818.8725" y2="5.1366">
		<stop  offset="0" style="stop-color:#008DB9"/>
		<stop  offset="1" style="stop-color:#6AD7D9"/>
	</linearGradient>
	<rect x="780.9" y="286.3" class="st4" width="75.9" height="713.7"/>
	<linearGradient id="SVGID_6_" gradientUnits="userSpaceOnUse" x1="962.0391" y1="713.9117" x2="962.0391" y2="5.1366">
		<stop  offset="0" style="stop-color:#008DB9"/>
		<stop  offset="1" style="stop-color:#6AD7D9"/>
	</linearGradient>
	<rect x="924.1" y="286.3" class="st5" width="75.9" height="713.7"/>
	<linearGradient id="SVGID_7_" gradientUnits="userSpaceOnUse" x1="691.8716" y1="962.0378" x2="1.8147" y2="962.0378">
		<stop  offset="0" style="stop-color:#008DB9"/>
		<stop  offset="1" style="stop-color:#6AD7D9"/>
	</linearGradient>
	<rect x="0" y="924.1" class="st6" width="713.7" height="75.9"/>
	<linearGradient id="SVGID_8_" gradientUnits="userSpaceOnUse" x1="691.8716" y1="818.6301" x2="1.8147" y2="818.6301">
		<stop  offset="0" style="stop-color:#008DB9"/>
		<stop  offset="1" style="stop-color:#6AD7D9"/>
	</linearGradient>
	<polygon class="st7" points="713.7,780.4 713.7,856.8 0,856.8 0,780.9 	"/>
	<linearGradient id="SVGID_9_" gradientUnits="userSpaceOnUse" x1="36.8789" y1="406.9807" x2="36.8789" y2="520.0711">
		<stop  offset="0" style="stop-color:#000000"/>
		<stop  offset="1" style="stop-color:#000000;stop-opacity:0"/>
	</linearGradient>
	<path class="st8" d="M0,481.7v1.4V538h73.8V399.2C2.2,399.2,0,471,0,481.7z"/>
	<path class="st9" d="M0,159.8v-1.4C0,159.3,0,159.8,0,159.8z"/>
	<linearGradient id="SVGID_10_" gradientUnits="userSpaceOnUse" x1="36.8789" y1="198.8114" x2="36.8789" y2="3.7889">
		<stop  offset="0" style="stop-color:#008DB9"/>
		<stop  offset="1" style="stop-color:#6AD7D9"/>
	</linearGradient>
	<path class="st10" d="M73.8,164.9V0H0v247.4C0,236.7,2.2,164.9,73.8,164.9z"/>
	<linearGradient id="SVGID_11_" gradientUnits="userSpaceOnUse" x1="36.8789" y1="395.8113" x2="36.8789" y2="293.658">
		<stop  offset="0" style="stop-color:#008DB9"/>
		<stop  offset="1" style="stop-color:#6AD7D9"/>
	</linearGradient>
	<path class="st11" d="M0,232.6v71.1v172.6c1.9-28.7,18.4-74.6,73.8-74.9v-97.7V165C18.4,164.6,4.3,208.5,0,232.6z"/>
	<linearGradient id="SVGID_12_" gradientUnits="userSpaceOnUse" x1="36.8789" y1="172.7053" x2="36.8789" y2="285.798">
		<stop  offset="0" style="stop-color:#000000"/>
		<stop  offset="1" style="stop-color:#000000;stop-opacity:0"/>
	</linearGradient>
	<path class="st12" d="M0,231.4v17.4v54.9h73.8V164.9C12.9,164.4,2.5,219.3,0,231.4z"/>
	<linearGradient id="SVGID_13_" gradientUnits="userSpaceOnUse" x1="181.0942" y1="409.1182" x2="181.0942" y2="520.363">
		<stop  offset="0" style="stop-color:#000000"/>
		<stop  offset="1" style="stop-color:#000000;stop-opacity:0"/>
	</linearGradient>
	<path class="st13" d="M143.1,482v1.4l2.2,54.6h73.8V401.4C147.5,401.4,143.1,471.4,143.1,482z"/>
	<linearGradient id="SVGID_14_" gradientUnits="userSpaceOnUse" x1="36.8776" y1="409.0579" x2="36.8776" y2="520.3548">
		<stop  offset="0" style="stop-color:#000000;stop-opacity:0.4"/>
		<stop  offset="1" style="stop-color:#000000;stop-opacity:0"/>
	</linearGradient>
	<path class="st14" d="M0,481.7v1.4V538h73.8V401.4C10.5,402.3-0.2,459.8,0,481.7z"/>
	<linearGradient id="SVGID_15_" gradientUnits="userSpaceOnUse" x1="181.0942" y1="409.1182" x2="181.0942" y2="520.363">
		<stop  offset="0" style="stop-color:#000000;stop-opacity:0.4"/>
		<stop  offset="1" style="stop-color:#000000;stop-opacity:0"/>
	</linearGradient>
	<path class="st15" d="M143.1,479.2v1.4l0.2,57.4h75.8l0-136.5C147.5,401.4,143.1,468.6,143.1,479.2z"/>
	<linearGradient id="SVGID_16_" gradientUnits="userSpaceOnUse" x1="181.192" y1="199.2946" x2="181.192" y2="3.7981">
		<stop  offset="0" style="stop-color:#008DB9"/>
		<stop  offset="1" style="stop-color:#6AD7D9"/>
	</linearGradient>
	<path class="st16" d="M219.1,164.9V0h-75.8v248C143.3,237.3,147,164.5,219.1,164.9z"/>
	<linearGradient id="SVGID_17_" gradientUnits="userSpaceOnUse" x1="181.1874" y1="391.9717" x2="181.1874" y2="291.5137">
		<stop  offset="0" style="stop-color:#008DB9"/>
		<stop  offset="1" style="stop-color:#6AD7D9"/>
	</linearGradient>
	<path class="st17" d="M143.3,243.7l0,60.1v167.2c4.3-24.1,21.6-69,75.8-69.7v-97.7V165C156.5,164.1,145.2,219.3,143.3,243.7z"/>
	<linearGradient id="SVGID_18_" gradientUnits="userSpaceOnUse" x1="181.1295" y1="172.6996" x2="181.1295" y2="285.7973">
		<stop  offset="0" style="stop-color:#000000"/>
		<stop  offset="1" style="stop-color:#000000;stop-opacity:0"/>
	</linearGradient>
	<path class="st18" d="M143.2,243.7L143.2,243.7l0.1,59.7l75.8,0.2V164.9C150.5,164,144,231.4,143.2,243.7z"/>

		<linearGradient id="SVGID_19_" gradientUnits="userSpaceOnUse" x1="7892.8774" y1="-7162.6846" x2="7892.8774" y2="-7049.5942" gradientTransform="matrix(4.489700e-11 1 1 -4.489700e-11 7856 -7856)">
		<stop  offset="0" style="stop-color:#000000"/>
		<stop  offset="1" style="stop-color:#000000;stop-opacity:0"/>
	</linearGradient>
	<path class="st19" d="M768,0h1.4h54.9v73.8H685.5C685.5,2.2,757.3,0,768,0z"/>
	<linearGradient id="SVGID_20_" gradientUnits="userSpaceOnUse" x1="429.4896" y1="48.6263" x2="314.5224" y2="-20.7878">
		<stop  offset="0" style="stop-color:#008DB9"/>
		<stop  offset="1" style="stop-color:#6AD7D9"/>
	</linearGradient>
	<path class="st20" d="M451.2,73.8H286.3V0h247.4C523.1,0,451.2,2.2,451.2,73.8z"/>
	<linearGradient id="SVGID_21_" gradientUnits="userSpaceOnUse" x1="691.0046" y1="71.4931" x2="561.3685" y2="17.8506">
		<stop  offset="0" style="stop-color:#008DB9"/>
		<stop  offset="1" style="stop-color:#6AD7D9"/>
	</linearGradient>
	<path class="st21" d="M526.3,0H590l173.4,0c-34.7,2.4-75,19.5-75.7,73.8H590H451.3C452,19.5,489.9,4.3,526.3,0z"/>

		<linearGradient id="SVGID_22_" gradientUnits="userSpaceOnUse" x1="7892.8774" y1="-7396.9575" x2="7892.8774" y2="-7283.8672" gradientTransform="matrix(4.489700e-11 1 1 -4.489700e-11 7856 -7856)">
		<stop  offset="0" style="stop-color:#000000"/>
		<stop  offset="1" style="stop-color:#000000;stop-opacity:0"/>
	</linearGradient>
	<path class="st22" d="M533.7,0h1.4H590v73.8H451.2C451.2,2.2,523.1,0,533.7,0z"/>

		<linearGradient id="SVGID_23_" gradientUnits="userSpaceOnUse" x1="8037.1924" y1="-7162.6846" x2="8037.1924" y2="-7049.5942" gradientTransform="matrix(4.489700e-11 1 1 -4.489700e-11 7856 -7856)">
		<stop  offset="0" style="stop-color:#000000"/>
		<stop  offset="1" style="stop-color:#000000;stop-opacity:0"/>
	</linearGradient>
	<path class="st23" d="M768,143.3h1.4h54.9v75.8H685.5C685.5,147.5,757.3,143.3,768,143.3z"/>

		<linearGradient id="SVGID_24_" gradientUnits="userSpaceOnUse" x1="7892.8774" y1="-7160.2212" x2="7892.8774" y2="-7049.2578" gradientTransform="matrix(4.489700e-11 1 1 -4.489700e-11 7856 -7856)">
		<stop  offset="0" style="stop-color:#000000;stop-opacity:0.4"/>
		<stop  offset="1" style="stop-color:#000000;stop-opacity:0"/>
	</linearGradient>
	<path class="st24" d="M768,0h1.4h54.9v73.8H688.1C688.1,2.2,759.2,0,768,0z"/>

		<linearGradient id="SVGID_25_" gradientUnits="userSpaceOnUse" x1="8037.1924" y1="-7162.6846" x2="8037.1924" y2="-7049.5942" gradientTransform="matrix(4.489700e-11 1 1 -4.489700e-11 7856 -7856)">
		<stop  offset="0" style="stop-color:#000000;stop-opacity:0.4"/>
		<stop  offset="1" style="stop-color:#000000;stop-opacity:0"/>
	</linearGradient>
	<path class="st25" d="M763.7,143.3h1.4h59.2v75.8H685.5C685.5,147.5,753.1,143.3,763.7,143.3z"/>
	<linearGradient id="SVGID_26_" gradientUnits="userSpaceOnUse" x1="428.2253" y1="192.764" x2="312.2206" y2="122.7234">
		<stop  offset="0" style="stop-color:#008DB9"/>
		<stop  offset="1" style="stop-color:#6AD7D9"/>
	</linearGradient>
	<path class="st26" d="M451.2,219.1L284,219v-75.8l249.7-0.1C523.1,143.2,451.2,147.5,451.2,219.1z"/>
	<linearGradient id="SVGID_27_" gradientUnits="userSpaceOnUse" x1="689.9573" y1="215.5743" x2="561.0592" y2="162.2371">
		<stop  offset="0" style="stop-color:#008DB9"/>
		<stop  offset="1" style="stop-color:#6AD7D9"/>
	</linearGradient>
	<path class="st27" d="M522.7,143.2l67.3,0.1l172.4,0c-34.1,3.2-76.5,21.6-77.2,75.8H590H451.3C451.3,160.6,498.5,147.5,522.7,143.2
		z"/>

		<linearGradient id="SVGID_28_" gradientUnits="userSpaceOnUse" x1="8037.1719" y1="-7396.9575" x2="8037.1719" y2="-7283.8672" gradientTransform="matrix(4.489700e-11 1 1 -4.489700e-11 7856 -7856)">
		<stop  offset="0" style="stop-color:#000000"/>
		<stop  offset="1" style="stop-color:#000000;stop-opacity:0"/>
	</linearGradient>
	<path class="st28" d="M532.7,143.3h1.4h56v75.8H451.2C451.2,147.5,522,143.3,532.7,143.3z"/>
	<linearGradient id="SVGID_29_" gradientUnits="userSpaceOnUse" x1="818.7886" y1="693.314" x2="818.7886" y2="806.4044">
		<stop  offset="0" style="stop-color:#000000"/>
		<stop  offset="1" style="stop-color:#000000;stop-opacity:0"/>
	</linearGradient>
	<path class="st29" d="M780.9,768v1.4v54.9h75.8V685.5C782.8,685.5,780.9,757.3,780.9,768z"/>
	<linearGradient id="SVGID_30_" gradientUnits="userSpaceOnUse" x1="818.9033" y1="485.1356" x2="818.9033" y2="290.0767">
		<stop  offset="0" style="stop-color:#008DB9"/>
		<stop  offset="1" style="stop-color:#6AD7D9"/>
	</linearGradient>
	<path class="st30" d="M856.9,451.2l-0.2-165l-75.8,0v247.4C780.9,523.1,785.3,451.2,856.9,451.2z"/>
	<linearGradient id="SVGID_31_" gradientUnits="userSpaceOnUse" x1="818.9033" y1="676.7891" x2="818.9033" y2="577.0063">
		<stop  offset="0" style="stop-color:#008DB9"/>
		<stop  offset="1" style="stop-color:#6AD7D9"/>
	</linearGradient>
	<path class="st31" d="M780.9,525.3V590v165.4c4.3-24.1,6.9-70,75.8-70V590l0.2-138.7C800.2,451.4,784.2,493.6,780.9,525.3z"/>
	<linearGradient id="SVGID_32_" gradientUnits="userSpaceOnUse" x1="818.9033" y1="459.0413" x2="818.9033" y2="572.1317">
		<stop  offset="0" style="stop-color:#000000"/>
		<stop  offset="1" style="stop-color:#000000;stop-opacity:0"/>
	</linearGradient>
	<path class="st32" d="M780.9,530.8v1.4V590l76-0.5V451.2C785.3,451.2,780.9,520.1,780.9,530.8z"/>
	<linearGradient id="SVGID_33_" gradientUnits="userSpaceOnUse" x1="961.8598" y1="695.3061" x2="961.8598" y2="806.6765">
		<stop  offset="0" style="stop-color:#000000"/>
		<stop  offset="1" style="stop-color:#000000;stop-opacity:0"/>
	</linearGradient>
	<path class="st33" d="M924.1,768v1.4v54.9h75.6V687.6C924.2,687.6,924.1,757.3,924.1,768z"/>
	<linearGradient id="SVGID_34_" gradientUnits="userSpaceOnUse" x1="961.8598" y1="485.1447" x2="961.8598" y2="290.1222">
		<stop  offset="0" style="stop-color:#008DB9"/>
		<stop  offset="1" style="stop-color:#6AD7D9"/>
	</linearGradient>
	<path class="st34" d="M999.6,451.2V286.3h-75.6v247.4C924.1,523.1,928.1,451.2,999.6,451.2z"/>
	<linearGradient id="SVGID_35_" gradientUnits="userSpaceOnUse" x1="961.8598" y1="676.7891" x2="961.8598" y2="577.0063">
		<stop  offset="0" style="stop-color:#008DB9"/>
		<stop  offset="1" style="stop-color:#6AD7D9"/>
	</linearGradient>
	<path class="st35" d="M924.1,528.3V590v165.4c4.3-24.1,13.4-67.7,75.6-67.7V590V451.3C942.6,451.3,927.4,490.9,924.1,528.3z"/>
	<linearGradient id="SVGID_36_" gradientUnits="userSpaceOnUse" x1="961.8598" y1="459.0413" x2="961.8598" y2="572.1317">
		<stop  offset="0" style="stop-color:#000000"/>
		<stop  offset="1" style="stop-color:#000000;stop-opacity:0"/>
	</linearGradient>
	<path class="st36" d="M924.1,533.7v1.4V590h75.6V451.2C924.2,451.2,924.1,524.2,924.1,533.7z"/>

		<linearGradient id="SVGID_37_" gradientUnits="userSpaceOnUse" x1="8674.6729" y1="-7448.9971" x2="8674.6729" y2="-7335.603" gradientTransform="matrix(4.489700e-11 1 1 -4.489700e-11 7856 -7856)">
		<stop  offset="0" style="stop-color:#000000"/>
		<stop  offset="1" style="stop-color:#000000;stop-opacity:0"/>
	</linearGradient>
	<path class="st37" d="M481.3,780.5h1.4h55.6l-0.4,76.3H399.2C399.2,785.2,470.7,780.5,481.3,780.5z"/>
	<linearGradient id="SVGID_38_" gradientUnits="userSpaceOnUse" x1="142.6349" y1="830.2114" x2="27.6678" y2="760.7973">
		<stop  offset="0" style="stop-color:#008DB9"/>
		<stop  offset="1" style="stop-color:#6AD7D9"/>
	</linearGradient>
	<path class="st38" d="M164.9,856.8H0v-76.1h247.4C236.7,780.7,164.9,785.2,164.9,856.8z"/>
	<linearGradient id="SVGID_39_" gradientUnits="userSpaceOnUse" x1="407.4736" y1="853.6426" x2="276.5939" y2="799.4855">
		<stop  offset="0" style="stop-color:#008DB9"/>
		<stop  offset="1" style="stop-color:#6AD7D9"/>
	</linearGradient>
	<path class="st39" d="M243.3,780.7l237.7-0.2c-37.8,2-79.9,19.1-79.6,76.3h-97.7H165C165.7,802.6,205.2,784.2,243.3,780.7z"/>

		<linearGradient id="SVGID_40_" gradientUnits="userSpaceOnUse" x1="8674.9229" y1="-7683.2905" x2="8674.9229" y2="-7570.2002" gradientTransform="matrix(4.489700e-11 1 1 -4.489700e-11 7856 -7856)">
		<stop  offset="0" style="stop-color:#000000"/>
		<stop  offset="1" style="stop-color:#000000;stop-opacity:0"/>
	</linearGradient>
	<path class="st40" d="M247.4,781h1.4h54.9v75.8H164.9C164.9,785.2,236.7,781,247.4,781z"/>

		<linearGradient id="SVGID_41_" gradientUnits="userSpaceOnUse" x1="8817.9941" y1="-7448.9927" x2="8817.9941" y2="-7335.5361" gradientTransform="matrix(4.489700e-11 1 1 -4.489700e-11 7856 -7856)">
		<stop  offset="0" style="stop-color:#000000"/>
		<stop  offset="1" style="stop-color:#000000;stop-opacity:0"/>
	</linearGradient>
	<path class="st41" d="M481.7,924.2h1.4l55.4-0.2l-0.4,76H399.2C399.2,928.4,465.7,924.2,481.7,924.2z"/>

		<linearGradient id="SVGID_42_" gradientUnits="userSpaceOnUse" x1="8674.6729" y1="-7446.9917" x2="8674.6729" y2="-7335.6509" gradientTransform="matrix(4.489700e-11 1 1 -4.489700e-11 7856 -7856)">
		<stop  offset="0" style="stop-color:#000000;stop-opacity:0.4"/>
		<stop  offset="1" style="stop-color:#000000;stop-opacity:0"/>
	</linearGradient>
	<path class="st42" d="M482.2,780.5h1.4H538v76.3H401.3C401.5,783.1,471.6,780.5,482.2,780.5z"/>

		<linearGradient id="SVGID_43_" gradientUnits="userSpaceOnUse" x1="8818.1035" y1="-7446.5547" x2="8818.1035" y2="-7332.5645" gradientTransform="matrix(4.489700e-11 1 1 -4.489700e-11 7856 -7856)">
		<stop  offset="0" style="stop-color:#000000;stop-opacity:0.4"/>
		<stop  offset="1" style="stop-color:#000000;stop-opacity:0"/>
	</linearGradient>
	<path class="st43" d="M484.1,924.2h1.4h56l-1.1,75.8H401.6C401.6,928.4,464.2,924.2,484.1,924.2z"/>
	<linearGradient id="SVGID_44_" gradientUnits="userSpaceOnUse" x1="142.7053" y1="973.5797" x2="27.7382" y2="904.1656">
		<stop  offset="0" style="stop-color:#008DB9"/>
		<stop  offset="1" style="stop-color:#6AD7D9"/>
	</linearGradient>
	<path class="st44" d="M164.9,1000H0v-75.8h247.4C230.2,924.2,164.9,932.7,164.9,1000z"/>
	<linearGradient id="SVGID_45_" gradientUnits="userSpaceOnUse" x1="406.5137" y1="996.9408" x2="276.1049" y2="942.9785">
		<stop  offset="0" style="stop-color:#008DB9"/>
		<stop  offset="1" style="stop-color:#6AD7D9"/>
	</linearGradient>
	<path class="st45" d="M244.2,924.2h235.5c-38.2,0.2-77.6,21.6-78.3,75.8h-97.7H165C165,943.4,211.6,925.7,244.2,924.2z"/>

		<linearGradient id="SVGID_46_" gradientUnits="userSpaceOnUse" x1="8818.0967" y1="-7683.2905" x2="8818.0967" y2="-7570.2002" gradientTransform="matrix(4.489700e-11 1 1 -4.489700e-11 7856 -7856)">
		<stop  offset="0" style="stop-color:#000000"/>
		<stop  offset="1" style="stop-color:#000000;stop-opacity:0"/>
	</linearGradient>
	<path class="st46" d="M247.4,924.2h1.4l54.9,2v73.8H164.9C164.9,933.2,229.5,923.8,247.4,924.2z"/>
</g>
</svg>
