<svg xmlns="http://www.w3.org/2000/svg" viewBox="0 0 1000 1000" enable-background="new 0 0 1000 1000"><style type="text/css">.st0{fill:url(#SVGID_1_);} .st1{fill:url(#SVGID_2_);} .st2{fill:url(#SVGID_3_);} .st3{fill:url(#SVGID_4_);} .st4{fill:url(#SVGID_5_);} .st5{fill:url(#SVGID_6_);} .st6{fill:url(#SVGID_7_);} .st7{fill:url(#SVGID_8_);} .st8{fill:url(#SVGID_9_);} .st9{fill:#FF0000;} .st10{fill:url(#SVGID_10_);} .st11{fill:url(#SVGID_11_);} .st12{fill:url(#SVGID_12_);} .st13{fill:url(#SVGID_13_);} .st14{fill:url(#SVGID_14_);} .st15{fill:url(#SVGID_15_);} .st16{fill:url(#SVGID_16_);} .st17{fill:url(#SVGID_17_);} .st18{fill:url(#SVGID_18_);} .st19{fill:url(#SVGID_19_);} .st20{fill:url(#SVGID_20_);} .st21{fill:url(#SVGID_21_);} .st22{fill:url(#SVGID_22_);} .st23{fill:url(#SVGID_23_);} .st24{fill:url(#SVGID_24_);} .st25{fill:url(#SVGID_25_);} .st26{fill:url(#SVGID_26_);} .st27{fill:url(#SVGID_27_);} .st28{fill:url(#SVGID_28_);} .st29{fill:url(#SVGID_29_);} .st30{fill:url(#SVGID_30_);} .st31{fill:url(#SVGID_31_);} .st32{fill:url(#SVGID_32_);} .st33{fill:url(#SVGID_33_);} .st34{fill:url(#SVGID_34_);} .st35{fill:url(#SVGID_35_);} .st36{fill:url(#SVGID_36_);} .st37{fill:url(#SVGID_37_);} .st38{fill:url(#SVGID_38_);} .st39{fill:url(#SVGID_39_);} .st40{fill:url(#SVGID_40_);} .st41{fill:url(#SVGID_41_);} .st42{fill:url(#SVGID_42_);} .st43{fill:url(#SVGID_43_);} .st44{fill:url(#SVGID_44_);} .st45{fill:url(#SVGID_45_);} .st46{fill:url(#SVGID_46_);}</style><linearGradient id="SVGID_1_" x1="36.879" x2="36.879" y1="706.703" y2="7.011" gradientUnits="userSpaceOnUse"><stop offset="0" stop-color="#008DB9"/><stop offset="1" stop-color="#6AD7D9"/></linearGradient><path d="M0 0h73.8v713.7H0z" class="st0"/><linearGradient id="SVGID_2_" x1="181.13" x2="181.13" y1="708.869" y2="-.202" gradientUnits="userSpaceOnUse"><stop offset="0" stop-color="#008DB9"/><stop offset="1" stop-color="#6AD7D9"/></linearGradient><path d="M143.2 0h75.9v713.7h-75.9z" class="st1"/><linearGradient id="SVGID_3_" x1="996.535" x2="280.701" y1="181.129" y2="181.129" gradientUnits="userSpaceOnUse"><stop offset="0" stop-color="#008DB9"/><stop offset="1" stop-color="#6AD7D9"/></linearGradient><path d="M284.2 143.2H1000v75.9H284.2z" class="st2"/><linearGradient id="SVGID_4_" x1="1001.875" x2="376.289" y1="80.602" y2="4.576" gradientUnits="userSpaceOnUse"><stop offset="0" stop-color="#008DB9"/><stop offset="1" stop-color="#6AD7D9"/></linearGradient><path d="M284.2 0H1000v73.8H284.2z" class="st3"/><linearGradient id="SVGID_5_" x1="818.872" x2="818.872" y1="713.912" y2="5.137" gradientUnits="userSpaceOnUse"><stop offset="0" stop-color="#008DB9"/><stop offset="1" stop-color="#6AD7D9"/></linearGradient><path d="M780.9 286.3h75.9V1000h-75.9z" class="st4"/><linearGradient id="SVGID_6_" x1="962.039" x2="962.039" y1="713.912" y2="5.137" gradientUnits="userSpaceOnUse"><stop offset="0" stop-color="#008DB9"/><stop offset="1" stop-color="#6AD7D9"/></linearGradient><path d="M924.1 286.3h75.9V1000h-75.9z" class="st5"/><linearGradient id="SVGID_7_" x1="691.872" x2="1.815" y1="962.038" y2="962.038" gradientUnits="userSpaceOnUse"><stop offset="0" stop-color="#008DB9"/><stop offset="1" stop-color="#6AD7D9"/></linearGradient><path d="M0 924.1h713.7v75.9H0z" class="st6"/><linearGradient id="SVGID_8_" x1="691.872" x2="1.815" y1="818.63" y2="818.63" gradientUnits="userSpaceOnUse"><stop offset="0" stop-color="#008DB9"/><stop offset="1" stop-color="#6AD7D9"/></linearGradient><path d="M713.7 780.4v76.4H0v-75.9z" class="st7"/><linearGradient id="SVGID_9_" x1="36.879" x2="36.879" y1="406.981" y2="520.071" gradientUnits="userSpaceOnUse"><stop offset="0"/><stop offset="1" stop-opacity="0"/></linearGradient><path d="M0 481.7V538h73.8V399.2C2.2 399.2 0 471 0 481.7z" class="st8"/><path d="M0 159.8v-1.4c0 .9 0 1.4 0 1.4z" class="st9"/><linearGradient id="SVGID_10_" x1="36.879" x2="36.879" y1="198.811" y2="3.789" gradientUnits="userSpaceOnUse"><stop offset="0" stop-color="#008DB9"/><stop offset="1" stop-color="#6AD7D9"/></linearGradient><path d="M73.8 164.9V0H0v247.4c0-10.7 2.2-82.5 73.8-82.5z" class="st10"/><linearGradient id="SVGID_11_" x1="36.879" x2="36.879" y1="395.811" y2="293.658" gradientUnits="userSpaceOnUse"><stop offset="0" stop-color="#008DB9"/><stop offset="1" stop-color="#6AD7D9"/></linearGradient><path d="M0 232.6v243.7c1.9-28.7 18.4-74.6 73.8-74.9V165c-55.4-.4-69.5 43.5-73.8 67.6z" class="st11"/><linearGradient id="SVGID_12_" x1="36.879" x2="36.879" y1="172.705" y2="285.798" gradientUnits="userSpaceOnUse"><stop offset="0"/><stop offset="1" stop-opacity="0"/></linearGradient><path d="M0 231.4v72.3h73.8V164.9c-60.9-.5-71.3 54.4-73.8 66.5z" class="st12"/><linearGradient id="SVGID_13_" x1="181.094" x2="181.094" y1="409.118" y2="520.363" gradientUnits="userSpaceOnUse"><stop offset="0"/><stop offset="1" stop-opacity="0"/></linearGradient><path d="M143.1 482v1.4l2.2 54.6h73.8V401.4c-71.6 0-76 70-76 80.6z" class="st13"/><linearGradient id="SVGID_14_" x1="36.878" x2="36.878" y1="409.058" y2="520.355" gradientUnits="userSpaceOnUse"><stop offset="0" stop-opacity=".4"/><stop offset="1" stop-opacity="0"/></linearGradient><path d="M0 481.7V538h73.8V401.4c-63.3.9-74 58.4-73.8 80.3z" class="st14"/><linearGradient id="SVGID_15_" x1="181.094" x2="181.094" y1="409.118" y2="520.363" gradientUnits="userSpaceOnUse"><stop offset="0" stop-opacity=".4"/><stop offset="1" stop-opacity="0"/></linearGradient><path d="M143.1 479.2v1.4l.2 57.4h75.8V401.5c-71.6-.1-76 67.1-76 77.7z" class="st15"/><linearGradient id="SVGID_16_" x1="181.192" x2="181.192" y1="199.295" y2="3.798" gradientUnits="userSpaceOnUse"><stop offset="0" stop-color="#008DB9"/><stop offset="1" stop-color="#6AD7D9"/></linearGradient><path d="M219.1 164.9V0h-75.8v248c0-10.7 3.7-83.5 75.8-83.1z" class="st16"/><linearGradient id="SVGID_17_" x1="181.187" x2="181.187" y1="391.972" y2="291.514" gradientUnits="userSpaceOnUse"><stop offset="0" stop-color="#008DB9"/><stop offset="1" stop-color="#6AD7D9"/></linearGradient><path d="M143.3 243.7V471c4.3-24.1 21.6-69 75.8-69.7V165c-62.6-.9-73.9 54.3-75.8 78.7z" class="st17"/><linearGradient id="SVGID_18_" x1="181.13" x2="181.13" y1="172.7" y2="285.797" gradientUnits="userSpaceOnUse"><stop offset="0"/><stop offset="1" stop-opacity="0"/></linearGradient><path d="M143.2 243.7l.1 59.7 75.8.2V164.9c-68.6-.9-75.1 66.5-75.9 78.8z" class="st18"/><linearGradient id="SVGID_19_" x1="7892.877" x2="7892.877" y1="-7162.685" y2="-7049.594" gradientUnits="userSpaceOnUse" gradientTransform="matrix(0 1 1 0 7856 -7856)"><stop offset="0"/><stop offset="1" stop-opacity="0"/></linearGradient><path d="M768 0h56.3v73.8H685.5C685.5 2.2 757.3 0 768 0z" class="st19"/><linearGradient id="SVGID_20_" x1="429.49" x2="314.522" y1="48.626" y2="-20.788" gradientUnits="userSpaceOnUse"><stop offset="0" stop-color="#008DB9"/><stop offset="1" stop-color="#6AD7D9"/></linearGradient><path d="M451.2 73.8H286.3V0h247.4c-10.6 0-82.5 2.2-82.5 73.8z" class="st20"/><linearGradient id="SVGID_21_" x1="691.005" x2="561.369" y1="71.493" y2="17.851" gradientUnits="userSpaceOnUse"><stop offset="0" stop-color="#008DB9"/><stop offset="1" stop-color="#6AD7D9"/></linearGradient><path d="M526.3 0H763.4c-34.7 2.4-75 19.5-75.7 73.8H451.3c.7-54.3 38.6-69.5 75-73.8z" class="st21"/><linearGradient id="SVGID_22_" x1="7892.877" x2="7892.877" y1="-7396.958" y2="-7283.867" gradientUnits="userSpaceOnUse" gradientTransform="matrix(0 1 1 0 7856 -7856)"><stop offset="0"/><stop offset="1" stop-opacity="0"/></linearGradient><path d="M533.7 0H590v73.8H451.2C451.2 2.2 523.1 0 533.7 0z" class="st22"/><linearGradient id="SVGID_23_" x1="8037.192" x2="8037.192" y1="-7162.685" y2="-7049.594" gradientUnits="userSpaceOnUse" gradientTransform="matrix(0 1 1 0 7856 -7856)"><stop offset="0"/><stop offset="1" stop-opacity="0"/></linearGradient><path d="M768 143.3h56.3v75.8H685.5c0-71.6 71.8-75.8 82.5-75.8z" class="st23"/><linearGradient id="SVGID_24_" x1="7892.877" x2="7892.877" y1="-7160.221" y2="-7049.258" gradientUnits="userSpaceOnUse" gradientTransform="matrix(0 1 1 0 7856 -7856)"><stop offset="0" stop-opacity=".4"/><stop offset="1" stop-opacity="0"/></linearGradient><path d="M768 0h56.3v73.8H688.1C688.1 2.2 759.2 0 768 0z" class="st24"/><linearGradient id="SVGID_25_" x1="8037.192" x2="8037.192" y1="-7162.685" y2="-7049.594" gradientUnits="userSpaceOnUse" gradientTransform="matrix(0 1 1 0 7856 -7856)"><stop offset="0" stop-opacity=".4"/><stop offset="1" stop-opacity="0"/></linearGradient><path d="M763.7 143.3h60.6v75.8H685.5c0-71.6 67.6-75.8 78.2-75.8z" class="st25"/><linearGradient id="SVGID_26_" x1="428.225" x2="312.221" y1="192.764" y2="122.723" gradientUnits="userSpaceOnUse"><stop offset="0" stop-color="#008DB9"/><stop offset="1" stop-color="#6AD7D9"/></linearGradient><path d="M451.2 219.1L284 219v-75.8l249.7-.1c-10.6.1-82.5 4.4-82.5 76z" class="st26"/><linearGradient id="SVGID_27_" x1="689.957" x2="561.059" y1="215.574" y2="162.237" gradientUnits="userSpaceOnUse"><stop offset="0" stop-color="#008DB9"/><stop offset="1" stop-color="#6AD7D9"/></linearGradient><path d="M522.7 143.2l67.3.1h172.4c-34.1 3.2-76.5 21.6-77.2 75.8H451.3c0-58.5 47.2-71.6 71.4-75.9z" class="st27"/><linearGradient id="SVGID_28_" x1="8037.172" x2="8037.172" y1="-7396.958" y2="-7283.867" gradientUnits="userSpaceOnUse" gradientTransform="matrix(0 1 1 0 7856 -7856)"><stop offset="0"/><stop offset="1" stop-opacity="0"/></linearGradient><path d="M532.7 143.3h57.4v75.8H451.2c0-71.6 70.8-75.8 81.5-75.8z" class="st28"/><linearGradient id="SVGID_29_" x1="818.789" x2="818.789" y1="693.314" y2="806.404" gradientUnits="userSpaceOnUse"><stop offset="0"/><stop offset="1" stop-opacity="0"/></linearGradient><path d="M780.9 768v56.3h75.8V685.5c-73.9 0-75.8 71.8-75.8 82.5z" class="st29"/><linearGradient id="SVGID_30_" x1="818.903" x2="818.903" y1="485.136" y2="290.077" gradientUnits="userSpaceOnUse"><stop offset="0" stop-color="#008DB9"/><stop offset="1" stop-color="#6AD7D9"/></linearGradient><path d="M856.9 451.2l-.2-165h-75.8v247.4c0-10.5 4.4-82.4 76-82.4z" class="st30"/><linearGradient id="SVGID_31_" x1="818.903" x2="818.903" y1="676.789" y2="577.006" gradientUnits="userSpaceOnUse"><stop offset="0" stop-color="#008DB9"/><stop offset="1" stop-color="#6AD7D9"/></linearGradient><path d="M780.9 525.3V755.4c4.3-24.1 6.9-70 75.8-70V590l.2-138.7c-56.7.1-72.7 42.3-76 74z" class="st31"/><linearGradient id="SVGID_32_" x1="818.903" x2="818.903" y1="459.041" y2="572.132" gradientUnits="userSpaceOnUse"><stop offset="0"/><stop offset="1" stop-opacity="0"/></linearGradient><path d="M780.9 530.8V590l76-.5V451.2c-71.6 0-76 68.9-76 79.6z" class="st32"/><linearGradient id="SVGID_33_" x1="961.86" x2="961.86" y1="695.306" y2="806.677" gradientUnits="userSpaceOnUse"><stop offset="0"/><stop offset="1" stop-opacity="0"/></linearGradient><path d="M924.1 768v56.3h75.6V687.6c-75.5 0-75.6 69.7-75.6 80.4z" class="st33"/><linearGradient id="SVGID_34_" x1="961.86" x2="961.86" y1="485.145" y2="290.122" gradientUnits="userSpaceOnUse"><stop offset="0" stop-color="#008DB9"/><stop offset="1" stop-color="#6AD7D9"/></linearGradient><path d="M999.6 451.2V286.3H924v247.4c.1-10.6 4.1-82.5 75.6-82.5z" class="st34"/><linearGradient id="SVGID_35_" x1="961.86" x2="961.86" y1="676.789" y2="577.006" gradientUnits="userSpaceOnUse"><stop offset="0" stop-color="#008DB9"/><stop offset="1" stop-color="#6AD7D9"/></linearGradient><path d="M924.1 528.3V755.4c4.3-24.1 13.4-67.7 75.6-67.7V451.3c-57.1 0-72.3 39.6-75.6 77z" class="st35"/><linearGradient id="SVGID_36_" x1="961.86" x2="961.86" y1="459.041" y2="572.132" gradientUnits="userSpaceOnUse"><stop offset="0"/><stop offset="1" stop-opacity="0"/></linearGradient><path d="M924.1 533.7V590h75.6V451.2c-75.5 0-75.6 73-75.6 82.5z" class="st36"/><linearGradient id="SVGID_37_" x1="8674.673" x2="8674.673" y1="-7448.997" y2="-7335.603" gradientUnits="userSpaceOnUse" gradientTransform="matrix(0 1 1 0 7856 -7856)"><stop offset="0"/><stop offset="1" stop-opacity="0"/></linearGradient><path d="M481.3 780.5h57l-.4 76.3H399.2c0-71.6 71.5-76.3 82.1-76.3z" class="st37"/><linearGradient id="SVGID_38_" x1="142.635" x2="27.668" y1="830.211" y2="760.797" gradientUnits="userSpaceOnUse"><stop offset="0" stop-color="#008DB9"/><stop offset="1" stop-color="#6AD7D9"/></linearGradient><path d="M164.9 856.8H0v-76.1h247.4c-10.7 0-82.5 4.5-82.5 76.1z" class="st38"/><linearGradient id="SVGID_39_" x1="407.474" x2="276.594" y1="853.643" y2="799.486" gradientUnits="userSpaceOnUse"><stop offset="0" stop-color="#008DB9"/><stop offset="1" stop-color="#6AD7D9"/></linearGradient><path d="M243.3 780.7l237.7-.2c-37.8 2-79.9 19.1-79.6 76.3H165c.7-54.2 40.2-72.6 78.3-76.1z" class="st39"/><linearGradient id="SVGID_40_" x1="8674.923" x2="8674.923" y1="-7683.291" y2="-7570.2" gradientUnits="userSpaceOnUse" gradientTransform="matrix(0 1 1 0 7856 -7856)"><stop offset="0"/><stop offset="1" stop-opacity="0"/></linearGradient><path d="M247.4 781h56.3v75.8H164.9c0-71.6 71.8-75.8 82.5-75.8z" class="st40"/><linearGradient id="SVGID_41_" x1="8817.994" x2="8817.994" y1="-7448.993" y2="-7335.536" gradientUnits="userSpaceOnUse" gradientTransform="matrix(0 1 1 0 7856 -7856)"><stop offset="0"/><stop offset="1" stop-opacity="0"/></linearGradient><path d="M481.7 924.2h1.4l55.4-.2-.4 76H399.2c0-71.6 66.5-75.8 82.5-75.8z" class="st41"/><linearGradient id="SVGID_42_" x1="8674.673" x2="8674.673" y1="-7446.992" y2="-7335.651" gradientUnits="userSpaceOnUse" gradientTransform="matrix(0 1 1 0 7856 -7856)"><stop offset="0" stop-opacity=".4"/><stop offset="1" stop-opacity="0"/></linearGradient><path d="M482.2 780.5H538v76.3H401.3c.2-73.7 70.3-76.3 80.9-76.3z" class="st42"/><linearGradient id="SVGID_43_" x1="8818.103" x2="8818.103" y1="-7446.555" y2="-7332.565" gradientUnits="userSpaceOnUse" gradientTransform="matrix(0 1 1 0 7856 -7856)"><stop offset="0" stop-opacity=".4"/><stop offset="1" stop-opacity="0"/></linearGradient><path d="M484.1 924.2h57.4l-1.1 75.8H401.6c0-71.6 62.6-75.8 82.5-75.8z" class="st43"/><linearGradient id="SVGID_44_" x1="142.705" x2="27.738" y1="973.58" y2="904.166" gradientUnits="userSpaceOnUse"><stop offset="0" stop-color="#008DB9"/><stop offset="1" stop-color="#6AD7D9"/></linearGradient><path d="M164.9 1000H0v-75.8h247.4c-17.2 0-82.5 8.5-82.5 75.8z" class="st44"/><linearGradient id="SVGID_45_" x1="406.514" x2="276.105" y1="996.941" y2="942.979" gradientUnits="userSpaceOnUse"><stop offset="0" stop-color="#008DB9"/><stop offset="1" stop-color="#6AD7D9"/></linearGradient><path d="M244.2 924.2h235.5c-38.2.2-77.6 21.6-78.3 75.8H165c0-56.6 46.6-74.3 79.2-75.8z" class="st45"/><linearGradient id="SVGID_46_" x1="8818.097" x2="8818.097" y1="-7683.291" y2="-7570.2" gradientUnits="userSpaceOnUse" gradientTransform="matrix(0 1 1 0 7856 -7856)"><stop offset="0"/><stop offset="1" stop-opacity="0"/></linearGradient><path d="M247.4 924.2h1.4l54.9 2v73.8H164.9c0-66.8 64.6-76.2 82.5-75.8z" class="st46"/></svg>