<svg xmlns="http://www.w3.org/2000/svg" viewBox="0 0 1000 1000" enable-background="new 0 0 1000 1000"><style type="text/css">.st0{fill:url(#SVGID_1_);} .st1{fill:url(#SVGID_2_);} .st2{fill:url(#SVGID_3_);} .st3{fill:url(#SVGID_4_);} .st4{fill:url(#SVGID_5_);} .st5{fill:url(#SVGID_6_);} .st6{opacity:0.15;fill:url(#SVGID_7_);} .st7{opacity:0.15;fill:url(#SVGID_8_);} .st8{fill:url(#SVGID_9_);} .st9{opacity:0.2;fill:#FFFFFF;} .st10{fill:url(#SVGID_10_);} .st11{fill:url(#SVGID_11_);}</style><linearGradient id="SVGID_1_" x1="499.79" x2="499.79" y1="776.542" y2="4.463" gradientUnits="userSpaceOnUse"><stop offset="0" stop-color="#008DB9"/><stop offset="1" stop-color="#6AD7D9"/></linearGradient><path d="M499.8 71.7c176.7 0 320.4 143.8 320.4 320.4S676.5 712.6 499.8 712.6 179.4 568.9 179.4 392.2 323.1 71.7 499.8 71.7m0-71.4C283.4.3 107.9 175.8 107.9 392.2s175.5 391.9 391.9 391.9 391.9-175.5 391.9-391.9S716.2.3 499.8.3z" class="st0"/><linearGradient id="SVGID_2_" x1="499.79" x2="499.79" y1="11.119" y2="395.616" gradientUnits="userSpaceOnUse"><stop offset="0" stop-color="#fff" stop-opacity=".1"/><stop offset="1" stop-color="#fff" stop-opacity=".8"/></linearGradient><path d="M414.7 83.2c27.1-7.5 55.7-11.5 85.1-11.5 29.5 0 58 4 85.1 11.5C748.8 119.5 874 258.4 889.9 429c1.1-12.1 1.7-24.4 1.7-36.8C891.6 175.8 716.1.3 499.7.3 283.3.3 107.8 175.8 107.8 392.2c0 12.4.6 24.7 1.7 36.8 16-170.6 141.3-309.5 305.2-345.8z" class="st1"/><linearGradient id="SVGID_3_" x1="499.79" x2="499.79" y1="779.856" y2="384.865" gradientUnits="userSpaceOnUse"><stop offset="0" stop-opacity=".5"/><stop offset=".996" stop-opacity="0"/></linearGradient><path d="M820.2 465.8c0-12.5-.7-24.7-2.1-36.8C799.8 588.4 664 712.6 499.8 712.6c-164.2 0-300-124.2-318.3-283.6-1.4 12.1-2.1 24.4-2.1 36.8 0 147.2 99.8 271.5 235.3 308.9 27.4 6.1 55.9 9.3 85.1 9.3 29.2 0 57.7-3.2 85.1-9.3C720.4 737.4 820.2 613 820.2 465.8z" class="st2"/><linearGradient id="SVGID_4_" x1="500.18" x2="500.18" y1="974.963" y2="229.214" gradientUnits="userSpaceOnUse"><stop offset="0" stop-color="#008DB9"/><stop offset="1" stop-color="#6AD7D9"/></linearGradient><path d="M500.2 285.7c177.3 0 321.6 144.2 321.6 321.6S677.5 928.8 500.2 928.8 178.6 784.6 178.6 607.3s144.3-321.6 321.6-321.6m0-71.5c-217.1 0-393 176-393 393s176 393 393 393 393-176 393-393-176-393-393-393z" class="st3"/><linearGradient id="SVGID_5_" x1="500.159" x2="500.159" y1="225.59" y2="610.088" gradientUnits="userSpaceOnUse"><stop offset="0" stop-color="#fff" stop-opacity=".1"/><stop offset="1" stop-color="#fff" stop-opacity=".8"/></linearGradient><path d="M414.7 297.7c27.1-7.5 55.7-11.5 85.1-11.5 29.5 0 58 4 85.1 11.5C748.8 334 875.5 472.8 891.4 643.5c1.1-12.1 1.7-24.4 1.7-36.8 0-216.4-176.9-391.9-393.3-391.9S107.2 390.3 107.2 606.7c0 12.4.6 24.7 1.7 36.8 16-170.7 141.9-309.5 305.8-345.8z" class="st4"/><linearGradient id="SVGID_6_" x1="499.79" x2="499.79" y1="995.917" y2="600.926" gradientUnits="userSpaceOnUse"><stop offset="0" stop-opacity=".5"/><stop offset=".996" stop-opacity="0"/></linearGradient><path d="M820.2 681.9c0-12.5-.7-24.7-2.1-36.8C799.8 804.5 664 928.7 499.8 928.7c-164.2 0-300-124.2-318.3-283.6-1.4 12.1-2.1 24.4-2.1 36.8 0 147.2 99.8 271.5 235.3 308.9 27.4 6.1 55.9 9.3 85.1 9.3 29.2 0 57.7-3.2 85.1-9.3 135.5-37.4 235.3-161.7 235.3-308.9z" class="st5"/><linearGradient id="SVGID_7_" x1="499.79" x2="499.79" y1="628.272" y2="362.448" gradientUnits="userSpaceOnUse"><stop offset="0" stop-color="#008DB9"/><stop offset="1" stop-color="#6AD7D9"/></linearGradient><circle cx="499.8" cy="500.5" r="153.8" class="st6"/><linearGradient id="SVGID_8_" x1="499.79" x2="499.79" y1="590.462" y2="403.279" gradientUnits="userSpaceOnUse"><stop offset="0" stop-color="#008DB9"/><stop offset="1" stop-color="#6AD7D9"/></linearGradient><circle cx="499.8" cy="500.5" r="108.3" class="st7"/><linearGradient id="SVGID_9_" x1="499.79" x2="499.79" y1="559.853" y2="436.333" gradientUnits="userSpaceOnUse"><stop offset="0" stop-color="#008DB9"/><stop offset="1" stop-color="#6AD7D9"/></linearGradient><circle cx="499.8" cy="500.5" r="71.5" class="st8"/><path d="M546.4 448.8c0-.9 0-1.7-.1-2.5-12.5-10.7-28.7-17.2-46.5-17.2-39.5 0-71.5 32-71.5 71.5 0 16.7 5.7 32 15.3 44.2 2.2.1 4.4.2 6.6.2 53.1-.1 96.2-43.1 96.2-96.2zM517.3 448.8c0-6.3-.9-12.4-2.5-18.2-4.8-1-9.8-1.6-14.9-1.6-39.5 0-71.5 32-71.5 71.5 0 4.1.3 8.1 1 12 6.6 2.2 13.6 3.3 20.9 3.3 37 0 67-30 67-67zM494.6 447.6c0-6.4-1.4-12.5-3.9-18-30.3 3.8-54.7 26.7-60.9 56.2 6.3 3.5 13.4 5.4 21.1 5.4 24.2 0 43.7-19.5 43.7-43.6z" class="st9"/><linearGradient id="SVGID_10_" x1="839.824" x2="839.824" y1="773.252" y2="9.721" gradientUnits="userSpaceOnUse"><stop offset="0" stop-color="#008DB9"/><stop offset="1" stop-color="#6AD7D9"/></linearGradient><path d="M820.2 392.2c0 37.2-6.4 72.9-18.1 106.1 12.4 34.2 19.2 71 19.2 109.4 0 2.9 0 5.8-.1 8.7 24.9-35.6 44.3-76.5 56.3-119.4-12.4-42.9-32.2-82.7-57.5-118.2.1 4.1.2 9.2.2 13.4z" class="st10"/><linearGradient id="SVGID_11_" x1="811.219" x2="811.219" y1="778.418" y2="385.046" gradientUnits="userSpaceOnUse"><stop offset="0" stop-opacity=".5"/><stop offset=".996" stop-opacity="0"/></linearGradient><path d="M820.2 465.8c0-12.5-.7-24.7-2.1-36.8-2.8 24.2-8 47.1-15.9 69.3 3.7 9.9 7.4 21.9 10.7 36 4.9-22.2 7.3-44.8 7.3-68.5z" class="st11"/></svg>