<?xml version="1.0" encoding="utf-8"?>
<!-- Generator: Adobe Illustrator 18.0.0, SVG Export Plug-In . SVG Version: 6.00 Build 0)  -->
<!DOCTYPE svg PUBLIC "-//W3C//DTD SVG 1.1//EN" "http://www.w3.org/Graphics/SVG/1.1/DTD/svg11.dtd">
<svg version="1.1" id="Calque_1" xmlns="http://www.w3.org/2000/svg" xmlns:xlink="http://www.w3.org/1999/xlink" x="0px" y="0px"
	 viewBox="0 0 462 462" style="fill: #abb0bc;enable-background:new 0 0 462 462;" xml:space="preserve">
<g>
	<linearGradient id="SVGID_1_" gradientUnits="userSpaceOnUse" x1="231" y1="13.0295" x2="231" y2="351.7967">
		<stop  offset="0" style="stop-color:#4DD0FF"/>
		<stop  offset="1" style="stop-color:#5D1BB0"/>
	</linearGradient>
	<path class="st0" d="M231,33.3c81.6,0,147.9,66.4,147.9,147.9S312.6,329.2,231,329.2S83.1,262.8,83.1,181.2S149.4,33.3,231,33.3
		 M231,0.3c-99.9,0-180.9,81-180.9,180.9s81,180.9,180.9,180.9s180.9-81,180.9-180.9S330.9,0.3,231,0.3L231,0.3z"/>
	<path class="st51" d="M191.7,357.9c12.5,3.5,25.7,5.3,39.3,5.3c13.6,0,26.8-1.9,39.3-5.3c-12.7,2.8-25.8,4.3-39.3,4.3
		C217.5,362.1,204.4,360.7,191.7,357.9z"/>
	<linearGradient id="SVGID_2_" gradientUnits="userSpaceOnUse" x1="231" y1="5.3575" x2="231" y2="182.8411">
		<stop  offset="0" style="stop-color:#FFFFFF;stop-opacity:0.1"/>
		<stop  offset="1" style="stop-color:#FFFFFF;stop-opacity:0.8"/>
	</linearGradient>
	<path class="st1" d="M191.7,38.6c12.5-3.5,25.7-5.3,39.3-5.3c13.6,0,26.8,1.9,39.3,5.3c75.6,16.8,133.5,80.8,140.8,159.6
		c0.5-5.6,0.8-11.3,0.8-17c0-99.9-81-180.9-180.9-180.9c-99.9,0-180.9,81-180.9,180.9c0,5.7,0.3,11.4,0.8,17
		C58.2,119.5,116.1,55.4,191.7,38.6z"/>
	<linearGradient id="SVGID_3_" gradientUnits="userSpaceOnUse" x1="231" y1="360.2061" x2="231" y2="177.8786">
		<stop  offset="0" style="stop-color:#000000;stop-opacity:0.5"/>
		<stop  offset="0.9955" style="stop-color:#000000;stop-opacity:0"/>
	</linearGradient>
	<path class="st2" d="M378.9,215.2c0-5.7-0.3-11.4-1-17c-8.5,73.6-71.1,130.9-146.9,130.9c-75.8,0-138.5-57.3-146.9-130.9
		c-0.6,5.6-1,11.3-1,17c0,68,46.1,125.3,108.6,142.6c12.7,2.8,25.8,4.3,39.3,4.3c13.5,0,26.6-1.5,39.3-4.3
		C332.8,340.6,378.9,283.2,378.9,215.2z"/>
	<linearGradient id="SVGID_4_" gradientUnits="userSpaceOnUse" x1="231" y1="101.9439" x2="231" y2="457.4453">
		<stop  offset="0" style="stop-color:#4DD0FF"/>
		<stop  offset="1" style="stop-color:#5D1BB0"/>
	</linearGradient>
	<path class="st3" d="M231,132.3c81.8,0,148.4,66.6,148.4,148.4S312.8,429.1,231,429.1S82.6,362.6,82.6,280.7S149.2,132.3,231,132.3
		 M231,99.3c-100.2,0-181.4,81.2-181.4,181.4S130.8,462.1,231,462.1s181.4-81.2,181.4-181.4S331.2,99.3,231,99.3L231,99.3z"/>
	<linearGradient id="SVGID_5_" gradientUnits="userSpaceOnUse" x1="231.0552" y1="104.3611" x2="231.0552" y2="281.9704">
		<stop  offset="0" style="stop-color:#FFFFFF;stop-opacity:0.1"/>
		<stop  offset="1" style="stop-color:#FFFFFF;stop-opacity:0.8"/>
	</linearGradient>
	<path class="st4" d="M191.7,137.6c12.5-3.5,25.7-5.3,39.3-5.3c13.6,0,26.8,1.9,39.3,5.3c75.6,16.8,134,81,141.3,159.7
		c0.5-5.6,0.8-11.3,0.8-17c0-99.9-81.5-181-181.4-181c-99.9,0-181.3,80.5-181.3,180.4c0,5.7,0.3,11.4,0.8,17
		C57.8,218,116.1,154.4,191.7,137.6z"/>
	<linearGradient id="SVGID_6_" gradientUnits="userSpaceOnUse" x1="230.94" y1="460.0601" x2="230.94" y2="277.7326">
		<stop  offset="0" style="stop-color:#000000;stop-opacity:0.5"/>
		<stop  offset="0.9955" style="stop-color:#000000;stop-opacity:0"/>
	</linearGradient>
	<path class="st5" d="M378.9,315.1c0-5.7,0-11.1-0.7-16.7C369.8,372,306.8,429,231,429c-75.8,0-139.2-57.3-147.7-130.9
		c-0.6,5.6-0.2,11.3-0.2,17c0,68,46.1,125.3,108.6,142.6c12.7,2.8,25.8,4.3,39.3,4.3c13.5,0,26.6-1.5,39.3-4.3
		C332.8,440.4,378.9,383.1,378.9,315.1z"/>
	<linearGradient id="SVGID_7_" gradientUnits="userSpaceOnUse" x1="231" y1="169.3468" x2="231" y2="298.7025">
		<stop  offset="0" style="stop-color:#4DD0FF"/>
		<stop  offset="1" style="stop-color:#5D1BB0"/>
	</linearGradient>
	<circle style="opacity:0.15;fill: #abb0bc;" cx="231" cy="231.2" r="71"/>
	<linearGradient id="SVGID_8_" gradientUnits="userSpaceOnUse" x1="231" y1="187.9901" x2="231" y2="273.0386">
		<stop  offset="0" style="stop-color:#4DD0FF"/>
		<stop  offset="1" style="stop-color:#5D1BB0"/>
	</linearGradient>
	<circle style="opacity:0.15;fill: #abb0bc;" cx="231" cy="231.2" r="50"/>
	<linearGradient id="SVGID_9_" gradientUnits="userSpaceOnUse" x1="231" y1="202.3311" x2="231" y2="265.4317">
		<stop  offset="0" style="stop-color:#4DD0FF"/>
		<stop  offset="1" style="stop-color:#5D1BB0"/>
	</linearGradient>
	<circle class="st8" cx="231" cy="231.2" r="33"/>
	<path class="st86" d="M252.5,207.4c0-0.4,0-0.8,0-1.2c-5.8-5-13.3-8-21.5-8c-18.2,0-33,14.8-33,33c0,7.7,2.6,14.8,7.1,20.4
		c1,0.1,2,0.1,3,0.1C232.6,251.8,252.5,231.9,252.5,207.4z"/>
	<path class="st86" d="M239.1,207.4c0-2.9-0.4-5.7-1.2-8.4c-2.2-0.5-4.5-0.7-6.9-0.7c-18.2,0-33,14.8-33,33c0,1.9,0.2,3.7,0.5,5.5
		c3,1,6.3,1.5,9.7,1.5C225.2,238.3,239.1,224.5,239.1,207.4z"/>
	<path class="st86" d="M228.6,206.8c0-3-0.7-5.8-1.8-8.3c-14,1.8-25.3,12.3-28.1,25.9c2.9,1.6,6.2,2.5,9.7,2.5
		C219.6,227,228.6,218,228.6,206.8z"/>
	<linearGradient id="SVGID_10_" gradientUnits="userSpaceOnUse" x1="387.9036" y1="2.9908" x2="387.9036" y2="360.3703">
		<stop  offset="0" style="stop-color:#4DD0FF"/>
		<stop  offset="1" style="stop-color:#5D1BB0"/>
	</linearGradient>
	<path class="st10" d="M378.9,181.2c0,17.2-2.9,33.6-8.3,49c5.7,15.8,8.9,32.8,8.9,50.5c0,1.3,0,2.7-0.1,4
		c11.5-16.4,20.3-34.9,25.9-54.7c-5.7-19.8-14.8-38.2-26.4-54.6C378.9,177.4,378.9,179.3,378.9,181.2z"/>
	<linearGradient id="SVGID_11_" gradientUnits="userSpaceOnUse" x1="374.6959" y1="360.2061" x2="374.6959" y2="177.8786">
		<stop  offset="0" style="stop-color:#000000;stop-opacity:0.5"/>
		<stop  offset="0.9955" style="stop-color:#000000;stop-opacity:0"/>
	</linearGradient>
	<path class="st11" d="M378.9,215.2c0-5.7-0.3-11.4-1-17c-1.3,11.2-3.8,21.9-7.5,32.2c1.7,4.6,3.5,10.1,5,16.6
		C377.7,236.8,378.9,226.2,378.9,215.2z"/>
</g>
</svg>
