<?xml version="1.0" encoding="utf-8"?>
<!-- Generator: Adobe Illustrator 18.0.0, SVG Export Plug-In . SVG Version: 6.00 Build 0)  -->
<!DOCTYPE svg PUBLIC "-//W3C//DTD SVG 1.1//EN" "http://www.w3.org/Graphics/SVG/1.1/DTD/svg11.dtd">
<svg version="1.1" id="Calque_1" xmlns="http://www.w3.org/2000/svg" xmlns:xlink="http://www.w3.org/1999/xlink" x="0px" y="0px"
	 viewBox="0 0 136 136" style="enable-background:new 0 0 136 136;" xml:space="preserve">
<style type="text/css">
	.st0{fill:#EC82BE;}
	.st1{fill:#FFFFFF;}
	.st2{fill:#F6B344;}
	.st3{fill:#1FB28C;}
	.st4{fill:#66C980;}
	.st5{fill:#DE4658;}
	.st6{fill:#00B0DC;}
	.st7{fill:#383838;}
	.st8{fill:#848484;}
	.st9{fill:#A8A8A8;}
	.st10{fill:#B865C7;}
	.st11{fill:#00B9D1;}
</style>
<g>
	<circle class="st2" cx="68" cy="68" r="68"/>
	<path class="st1" d="M81.7,60H78v-9.6c0-1.1-1.2-2.4-2.3-2.4h-18c0-1-0.9-2-2-2h-2c-1.1,0-1.7,1.3-1.7,2.4v40
		c0,1.1,0.6,1.6,1.7,1.6h2c1.1,0,2.3-0.5,2.3-1.6V67h7v8.4v0c0,0.1-0.3-0.4-0.3-0.4h0c0.1,2,1.6,4,4,4h13c1.1,0,2.3-0.5,2.3-1.6v-15
		C84,61.3,82.8,60,81.7,60z M56,67.4V88h-2V48h2V67.4z M64.7,65H58V50.4l18,0c0,0.3,0,5.2,0,10V66c-1-0.5-1.5-1-2.3-1h-7H64.7z
		 M75.7,69c-0.1,1-0.7,2-2,2c-0.7,0-5,0-5.5,0c-0.4,0-1.2,0.8-1.2,1.5V67c3,0,6.6,0,6.7,0C74.9,67,75.6,68.1,75.7,69z M82,77
		c0,0-11.9,0-13.3,0c-1.2,0-2-1-2-2h0c0,0,0,0.2,0,0.2l0,0.2c0-0.8,0.7-1.9,2-1.9l0,0c0,0,0-0.2,0-0.2c0,0,0-0.2,0-0.2h4.9
		c2.4,0,4.1-1.8,4.1-3.8l0.1,0.2V62h4V77z"/>
</g>
</svg>
