<svg xmlns="http://www.w3.org/2000/svg" viewBox="0 0 136 136" enable-background="new 0 0 136 136"><style type="text/css">.st0{fill:#EC82BE;} .st1{fill:#FFFFFF;} .st2{fill:#F6B344;} .st3{fill:#1FB28C;} .st4{fill:#66C980;} .st5{fill:#DE4658;} .st6{fill:#00B0DC;} .st7{fill:#383838;} .st8{fill:#848484;} .st9{fill:#A8A8A8;} .st10{fill:#B865C7;} .st11{fill:#00B9D1;}</style><circle cx="68" cy="68" r="68" class="st2"/><path d="M81.7 60H78v-9.6c0-1.1-1.2-2.4-2.3-2.4h-18c0-1-.9-2-2-2h-2c-1.1 0-1.7 1.3-1.7 2.4v40c0 1.1.6 1.6 1.7 1.6h2c1.1 0 2.3-.5 2.3-1.6V67h7v8.4c0 .1-.3-.4-.3-.4.1 2 1.6 4 4 4h13c1.1 0 2.3-.5 2.3-1.6v-15c0-1.1-1.2-2.4-2.3-2.4zM56 67.4V88h-2V48h2v19.4zm8.7-2.4H58V50.4h18c0 .3 0 5.2 0 10V66c-1-.5-1.5-1-2.3-1h-9zm11 4c-.1 1-.7 2-2 2-.7 0-5 0-5.5 0-.4 0-1.2.8-1.2 1.5V67c3 0 6.6 0 6.7 0 1.2 0 1.9 1.1 2 2zm6.3 8s-11.9 0-13.3 0c-1.2 0-2-1-2-2 0 0 0 .2 0 .2v.2c0-.8.7-1.9 2-1.9 0 0 0-.2 0-.2s0-.2 0-.2h4.9c2.4 0 4.1-1.8 4.1-3.8l.1.2V62h4v15z" class="st1"/></svg>