<svg xmlns="http://www.w3.org/2000/svg" viewBox="0 0 136 136" enable-background="new 0 0 136 136"><style type="text/css">.st0{fill:#EC82BE;} .st1{fill:#FFFFFF;} .st2{fill:#F6B344;} .st3{fill:#1FB28C;} .st4{fill:#66C980;} .st5{fill:#DE4658;} .st6{fill:#00B0DC;} .st7{fill:#383838;} .st8{fill:#848484;} .st9{fill:#A8A8A8;} .st10{fill:#B865C7;} .st11{fill:#00B9D1;}</style><circle cx="68" cy="68" r="68" class="st0"/><path d="M77.8 85.2C81 81.4 84 72.5 84 66.4c0-6.9-4.9-11-8.9-11v-3c1 0 2.9-1.6 2.9-3.2S76.5 46 74.9 46h-14c-1.7 0-2.9 1.6-2.9 3.2s1.1 3.2 3.1 3.2v3c-5 .1-9.1 4.3-9.1 11 0 6.1 2.8 15 5.9 18.8-.6.5-1 1.1-1 2 0 1.7 1.3 2.8 3 2.8h16c1.6 0 3-1.1 3-2.8 0-.8-.3-1.5-.9-2-.1 0-.1 0-.2 0zM56.4 73.9c.7.5 1.4 1.1 2.5 1.1s1.8-.6 2.4-1.1c.6-.5 1.1-1 2.1-1 .8 0 1.4.4 2.1.9.7.5 1.5 1.1 2.7 1.1 1.1 0 2-.6 2.8-1.1.8-.5 1.5-1 2.4-1 .8 0 1.4.4 2 .9.7.5 1.4 1.2 2.6 1.2 1.2 0 2.2-.6 2.9-1.2 0 0 .2 0 .2 0-.5 2-1.8 3.9-1.8 5.6V79H56.9c-.8-2-1.6-3.9-2.1-6.1.6.1 1.1.7 1.6 1zM54.5 72c-.3-1.4-.5-2.8-.6-4.1 1 0 1.7.5 2.4 1s1.4 1.1 2.5 1.1 1.8-.6 2.4-1.1c.6-.5 1.1-1 2.1-1 .8 0 1.4.4 2.1.9.7.5 1.5 1.1 2.7 1.1 1.3 0 2.2-.6 2.9-1.2.7-.5 1.3-.9 2.2-.9 1 0 1.5.5 2.1 1 .6.5 1.3 1.1 2.4 1.1 1.2 0 2.2-.6 2.9-1.2.3-.3.7-.5 1-.7-.1 1.3-.3 2.7-.6 4.1-.5.2-.7.5-1 .8-.6.5-1.4 1-2.3 1-.8 0-1.4-.4-2-.9-.7-.5-1.4-1.2-2.6-1.2-1.2 0-2.1.6-2.9 1.1-.7.5-1.5.9-2.3.9-.8 0-1.4-.4-2.1-.9-.7-.5-1.5-1.1-2.7-1.1-1.3 0-2.1.6-2.7 1.2-.6.5-1 .9-1.8.9-.7 0-1.3-.4-1.9-.9-.4-.3-1.3-.8-2.2-1zm23.9 8c-.2 0-.3 1-.5 1H58.1v.5c-1-.4-.7-1.5-.8-1.5h21.1zm-1 2c-.5 1-1 2-1.5 2h-16c-.5 0-1-1-1.5-2h19zM59.9 49c0-.6.4-1 1-1h14c.6 0 1 .4 1 1s-.4 1-1 1h-14c-.6 0-1-.4-1-1zm3.2 3h10v1h-10v-1zm10 2v1h-10v-1h10zM61 57h13.8c2.2 0 4.8 1.8 6.2 4.9-.6.2-1 .7-1.4 1.1-.6.5-.9 1-1.8 1-.8 0-1.2-.3-1.7-.8-.6-.6-1.4-1.2-2.9-1.2-1.4 0-2.1.6-2.8 1.1-.7.5-1.2 1-2.4 1-.8 0-1.4-.4-2.1-.9-.7-.5-1.5-1.1-2.7-1.1-1.3 0-2.1.6-2.7 1.2-.6.5-1 .9-1.8.9-.7 0-1.3-.4-1.9-.9-.6-.4-1.4-1.1-2.2-1.3 1.5-3.2 4.2-5 6.4-5zm-6.6 6c.7.1 1.4.5 2 1 .7.5 1.4 1.1 2.5 1.1s1.8-.6 2.4-1.1c.6-.5 1.1-1 2.1-1 .8 0 1.4.4 2.1.9.7.5 1.5 1.1 2.7 1.1 1.5 0 2.3-.6 3-1.2.6-.5 1.2-.9 2.2-.9 1.1 0 1.6.5 2.2 1 .6.5 1.2 1.1 2.3 1.1 1.2 0 1.8-.6 2.4-1.2.3-.3.8-.5 1.1-.7.3 1 .5 2.1.5 3.3 0 .2 0 .4 0 .6-1 .2-1.2.6-1.7 1-.6.5-1.4 1-2.3 1-.8 0-1.2-.4-1.8-.9-.7-.6-1.4-1.2-2.8-1.2-1.3 0-2.1.6-2.8 1.1-.7.5-1.3 1-2.4 1-.8 0-1.4-.4-2.1-.9-.7-.5-1.5-1.1-2.7-1.1-1.3 0-2.1.6-2.7 1.2-.6.5-1 .9-1.8.9-.7 0-1.3-.4-1.9-.9-.8-.6-2.1-1.2-3.1-1.2 0-.2 0-.3 0-.5.1-1.4.3-2.5.6-3.5zm21.5 25h-16c-.6 0-1-.4-1-1s.4-1 1-1h16c.6 0 1 .5 1 1 0 .6-.5 1-1 1z" class="st1"/></svg>