<svg xmlns="http://www.w3.org/2000/svg" viewBox="0 0 136 136" enable-background="new 0 0 136 136"><style type="text/css">.st0{fill:#EC82BE;} .st1{fill:#FFFFFF;} .st2{fill:#F6B344;} .st3{fill:#1FB28C;} .st4{fill:#66C980;} .st5{fill:#DE4658;} .st6{fill:#00B0DC;} .st7{fill:#383838;} .st8{fill:#848484;} .st9{fill:#A8A8A8;} .st10{fill:#B865C7;} .st11{fill:#00B9D1;}</style><circle cx="68" cy="68" r="68" class="st5"/><path d="M80.7 70.8l-8.2-23.1c-.3-.8-1-1.6-1.9-1.6h-1.5v19.6c2 .8 3.3 4.8-.6 5.9-.1 0-.3.1-.4.1-1.7 0-3-1.3-3-3 0-1.3 0-2.6 2-3V46h-1.6c-.8 0-1.6.8-1.9 1.6l-8.3 23c-.2.5-.1 1.2.1 1.7l5 8.9c.4.6 1 .8 1.8.8h11.6c.7 0 1.4-.1 1.8-.7l5-9c.2-.6.3-1 .1-1.5zM74 80H62l-5-9 8-23h1.1v17c-2 .7-2 2.2-2 3.6 0 2.2 1.8 4 4 4s4-1.8 4-4c0-1.5-1-2.9-2-3.6V48h.9l8 23-5 9zM75.1 86c0-1.1-.9-2-2-2h-10c-1.1 0-2 .9-2 2v2c0 1.1.9 2 2 2h10c1.1 0 2-.9 2-2v-2zm-2 2h-10v-2h10v2z" class="st1"/></svg>