<?xml version="1.0" encoding="utf-8"?>
<!-- Generator: Adobe Illustrator 18.0.0, SVG Export Plug-In . SVG Version: 6.00 Build 0)  -->
<!DOCTYPE svg PUBLIC "-//W3C//DTD SVG 1.1//EN" "http://www.w3.org/Graphics/SVG/1.1/DTD/svg11.dtd">
<svg version="1.1" id="Calque_1" xmlns="http://www.w3.org/2000/svg" xmlns:xlink="http://www.w3.org/1999/xlink" x="0px" y="0px"
	 viewBox="0 0 136 136" style="enable-background:new 0 0 136 136;" xml:space="preserve">
<style type="text/css">
	.st0{fill:#EC82BE;}
	.st1{fill:#FFFFFF;}
	.st2{fill:#F6B344;}
	.st3{fill:#1FB28C;}
	.st4{fill:#66C980;}
	.st5{fill:#DE4658;}
	.st6{fill:#00B0DC;}
	.st7{fill:#383838;}
	.st8{fill:#848484;}
	.st9{fill:#A8A8A8;}
	.st10{fill:#B865C7;}
	.st11{fill:#00B9D1;}
</style>
<g>
	<circle class="st3" cx="68" cy="68" r="68"/>
	<g>
		<path class="st1" d="M87.5,47.8c-1.2,0.7-1.8,1.5-2.3,2.9c-0.4,1.1-0.5,2-0.5,4.8v22.1c0.1,3.5,0.4,4.4,2,4.9
			c-0.5,1-1.2,1.6-2.7,2.5c-2.2,1.4-2.5,1.8-2.7,3.2c-2.8-0.4-4.2-2.6-4.3-6.4l-0.1-1.5c0-0.1,0-0.3-0.1-0.6
			c-0.3,1.6-0.4,1.8-2.1,3.3c-2.7,2.3-3.4,3.4-3.6,5.1c-3.5-1.7-6-2.7-9.5-3.7l-0.4-0.1c-2.7,4.1-4.8,5.6-7.6,5.6
			c-2.9,0-5-2.1-5-5.1c0-4.6,4.3-7.7,10.8-7.7c1.7,0,2.9,0.1,4.5,0.5l2.6-4.7c-1.2,0.5-2,0.6-3.2,0.6c-6,0-10.3-5.1-10.3-12.1
			c0-8.8,7.4-15.5,16.9-15.5c4.9,0,9.2,1.6,13.2,4.9C84,48.8,85.3,48,87.5,47.8z M56.8,83.7c-2.9,0-5.2,1.3-5.2,3c0,1.2,1,2,2.4,2
			c2,0,3.9-1.6,6-4.8C58.6,83.8,57.8,83.7,56.8,83.7z M67.6,51.3c-7,0-12.2,5.4-12.2,12.6c0,5,3.2,8.8,7.5,8.8
			c2.8,0,4.5-1.3,4.9-3.5h0.6l7.9-14.3C73.3,52.3,70.9,51.3,67.6,51.3z M64.9,78c1.4,0.3,2.4,0.6,3.6,0.9l3.1,0.8
			c0.7,0.2,1.4,0.3,1.8,0.3c2.4,0,3.3-1.9,3.3-6.5v-1.4h-8.6L64.9,78z M69.7,69.1h7.1V56.4L69.7,69.1z"/>
	</g>
</g>
</svg>
