<svg xmlns="http://www.w3.org/2000/svg" viewBox="0 0 136 136" enable-background="new 0 0 136 136"><style type="text/css">.st0{fill:#EC82BE;} .st1{fill:#FFFFFF;} .st2{fill:#F6B344;} .st3{fill:#1FB28C;} .st4{fill:#66C980;} .st5{fill:#DE4658;} .st6{fill:#00B0DC;} .st7{fill:#383838;} .st8{fill:#848484;} .st9{fill:#A8A8A8;} .st10{fill:#B865C7;} .st11{fill:#00B9D1;}</style><circle cx="68" cy="68" r="68" class="st4"/><path d="M88.6 77.3L56.1 45.1c-.4-.4-.9-.6-1.5-.6-.5 0-1.1.2-1.5.6l-7.4 7.4c-.8.8-.8 2.1 0 2.9l32.5 32.1c.4.4.9.5 1.5.5h7.4c1.1 0 2-.8 2-1.9v-7.4c.1-.5-.1-1-.5-1.4zM47.2 54s0-.1 0 0l7.5-7.5 3.5 3.4-7.5 7.5-3.5-3.4zm31.4 31L52.1 58.8l7.5-7.5 26.5 26.2-7.5 7.5zm8.6 1.1h-7l-.2.1 7.1-6.9v6.8zm-14 0h-27c-.6 0-1 .4-1 1s.4 1 1 1h27c.6 0 1-.4 1-1s-.5-1-1-1zM60.8 55.8c-.4-.4-1-.4-1.4 0-.4.4-.4 1 0 1.4l13.4 13.3c.4.4 1 .4 1.4 0 .4-.4.4-1 0-1.4L60.8 55.8zm21.3 21.3l-4.6-4.5c-.4-.4-1-.4-1.4 0-.4.4-.4 1 0 1.4l4.6 4.5c.4.4 1 .4 1.4 0 .4-.4.4-1 0-1.4z" class="st1"/></svg>