<svg xmlns="http://www.w3.org/2000/svg" viewBox="0 0 136 136" enable-background="new 0 0 136 136"><style type="text/css">.st0{fill:#EC82BE;} .st1{fill:#FFFFFF;} .st2{fill:#F6B344;} .st3{fill:#1FB28C;} .st4{fill:#66C980;} .st5{fill:#DE4658;} .st6{fill:#00B0DC;} .st7{fill:#383838;} .st8{fill:#848484;} .st9{fill:#A8A8A8;} .st10{fill:#B865C7;} .st11{fill:#00B9D1;}</style><circle cx="68" cy="68" r="68" class="st10"/><path d="M69.8 47.4h-4c-1.1 0-1.6.7-1.6 1.8v5.2h-4v-5.3c0-1.1-1.3-1.8-2.4-1.8h-4c-1.1 0-1.6.7-1.6 1.8v2.2h-4.4c-1.1 0-1.6.7-1.6 1.8v33.2c0 1.1.5 2.2 1.6 2.2h4c.4 0 .7-.1 1-.3.3.2.6.3 1 .3h4c.4 0 .7-.1 1-.3.3.2.6.3 1 .3h4c.4 0 .7-.1 1-.3.3.2.6.3 1 .3h4c1.1 0 2.4-1.1 2.4-2.2V49.2c0-1.2-1.3-1.8-2.4-1.8zM58.1 66.3v16.3h-4V55.4h4v10.9zm6-3.8v2h-4v-2h4zm0-6.1v4h-4v-4h4zm-10-7h4v4h-4v-4zm-6.1 4h4v4h-4v-4zm0 6h4v2h-4v-2zm0 27.2V63.5h4V86.6h-4zm6.1 0v-2h4v2h-4zm6 0V66.5h4V86.6h-4zm9.7 0h-3.7v-2h3.7v2zm0-4h-3.7V56.2c0-.1 0-.1 0-.2v-.6h3.7v27.2zm-4.1-29.2v-4h4.1v4h-4.1zM89.9 84.9L79.7 49.4c-.3-1.1-1.4-1.7-2.5-1.4l-3.9 1.1c-1.1.3-1.7 1.4-1.4 2.5l10 35.5c.3 1.1 1.4 1.7 2.5 1.4l4.1-1.1c1.1-.3 1.7-1.4 1.4-2.5zM79.4 55.8l.9 3-4.2 1.2-.8-3 4.1-1.2zm-1.8-5.9l1.2 3.9-4.1 1.2-1.1-4 4-1.1zM83.4 87l-6.8-25.2 4.3-1.2 7.5 24.9-5 1.5z" class="st1"/></svg>