<svg xmlns="http://www.w3.org/2000/svg" viewBox="0 0 136 136" enable-background="new 0 0 136 136"><style type="text/css">.st0{fill:#EC82BE;} .st1{fill:#FFFFFF;} .st2{fill:#F6B344;} .st3{fill:#1FB28C;} .st4{fill:#66C980;} .st5{fill:#DE4658;} .st6{fill:#00B0DC;} .st7{fill:#383838;} .st8{fill:#848484;} .st9{fill:#A8A8A8;} .st10{fill:#B865C7;} .st11{fill:#00B9D1;}</style><circle cx="68" cy="68" r="68" class="st11"/><path d="M79.3 67.8c-.1.2-.3.4-.3.7v18.6c0 .3-.1.5-.3.7-.2.2-1 .3-1.3.3H48.8c-.5 0-1-.4-1-1L48 58c0-.5.4-1 1-1h18.7c.3 0 .5-.1.7-.3.6-.6.1-1.7-.7-1.7H48.9c-1.6 0-2.9 1.3-2.9 2.9V89c0 .5.4 1 1 1h30.5c1.3 0 3.5 0 3.5-2V68.5c0-.9-1-1.3-1.7-.7zM89.6 51.5l-5.1-5.1c-.3-.3-.6-.4-1-.4s-.7.1-1 .4L60.4 69c-.3.3-.4.6-.4 1v4.6c0 .8.6 1.4 1.4 1.4H66c.4 0 .7-.1 1-.4l22.6-22.1c.5-.5.5-1.4 0-2zM62 74v-3l2.9 3H62zm4.9-.9l-4-4 16.6-16.9 4.3 4.3-16.9 16.6zm18.3-18l-4.3-4.3 2.6-2.6 4.3 4.3-2.6 2.6zM55.9 75H51c-.5 0-1 .5-1 1s.4 1 1 1h4.9c.5 0 1-.5 1-1s-.5-1-1-1zM55.9 71H51c-.5 0-1 .5-1 1s.4 1 1 1h4.9c.5 0 1-.5 1-1s-.5-1-1-1zM57.9 68c0-.5-.4-1-1-1H51c-.5 0-1 .5-1 1s.4 1 1 1h5.9c.5 0 1-.5 1-1zM62 64c0-.5-.4-1-1-1h-9.8c-.5 0-1 .5-1 1s.4 1 1 1H61c.6 0 1-.5 1-1zM64.7 60c0-.5-.4-1-.9-1H51c-.5 0-1 .5-1 1s.4 1 1 1h12.8c.6 0 .9-.5.9-1z" class="st1"/></svg>