<svg xmlns="http://www.w3.org/2000/svg" viewBox="0 0 136 136" enable-background="new 0 0 136 136"><style type="text/css">.st0{fill:#EC82BE;} .st1{fill:#FFFFFF;} .st2{fill:#F6B344;} .st3{fill:#1FB28C;} .st4{fill:#66C980;} .st5{fill:#DE4658;} .st6{fill:#00B0DC;} .st7{fill:#383838;} .st8{fill:#848484;} .st9{fill:#A8A8A8;} .st10{fill:#B865C7;} .st11{fill:#00B9D1;}</style><circle cx="68" cy="68" r="68" class="st6"/><path d="M67.6 89.6c12.1 0 22-9.9 22-22s-9.9-22-22-22h-16c-3.3 0-6 2.7-6 6v16c0 12.1 9.9 22 22 22zm-20.4-38c0-2.4 2-4.4 4.4-4.4h16c11.2 0 20.4 9.2 20.4 20.4S78.8 88 67.6 88s-20.4-9.2-20.4-20.4v-16zM75.9 71.1l-1 5.9c-.2 1.1.5 2.1 1.6 2.3l.7.1c1.1.2 2.1-.5 2.3-1.6l1-5.9c.2-1.1-.5-2.1-1.6-2.3l-.7-.1c-1-.2-2.1.5-2.3 1.6zM84.1 61.1L81 79.2c2.7-3.1 4.4-7.2 4.4-11.6-.1-2.3-.5-4.5-1.3-6.5zM78.1 58.7c-.1.5.3 1.1.8 1.2l2.6.4c.5.1 1.1-.3 1.1-.8.1-.5-.3-1.1-.8-1.2l-2.6-.4c-.5-.1-1.1.3-1.1.8zM53.8 61.7c0-1.1.9-2 2-2h4c1.1 0 2 .9 2 2v22.6c.3.1.7.2 1 .3V56.4c0-1.1.9-2 2-2h4c1.1 0 2 .9 2 2V85c.4-.1.7-.1 1.1-.2l4.7-27.2c.2-1.1 1.2-1.8 2.3-1.6l2.5.4c-3.2-4-8.2-6.5-13.7-6.5h-16c-.9 0-1.7.8-1.7 1.7v16c0 4.2 1.5 8.1 4 11.2V61.7zM59.2 63.6c.6 0 1-.4 1-1s-.4-1-1-1h-2.7c-.6 0-1 .4-1 1s.4 1 1 1h2.7zM60.2 77.2c0-1.1-.9-2-2-2h-.7c-1.1 0-2 .9-2 2v3.4c1.4 1.3 2.9 2.3 4.6 3.1 0-.2.1-.3.1-.5v-6zM64.5 75.8c0 1.1.9 2 2 2h.7c1.1 0 2-.9 2-2v-6c0-1.1-.9-2-2-2h-.7c-1.1 0-2 .9-2 2v6zM68.1 58.2c.6 0 1-.4 1-1s-.4-1-1-1h-2.7c-.6 0-1 .4-1 1s.4 1 1 1h2.7z" class="st1"/></svg>