<svg xmlns="http://www.w3.org/2000/svg" viewBox="0 0 136 136" enable-background="new 0 0 136 136"><style type="text/css">.st0{fill:#EC82BE;} .st1{fill:#FFFFFF;} .st2{fill:#F6B344;} .st3{fill:#1FB28C;} .st4{fill:#66C980;} .st5{fill:#DE4658;} .st6{fill:#00B0DC;} .st7{fill:#383838;} .st8{fill:#848484;} .st9{fill:#A8A8A8;} .st10{fill:#B865C7;} .st11{fill:#00B9D1;}</style><circle cx="68" cy="68" r="68" class="st7"/><path d="M70.3 78.9h-6.2l-1.8-5.6h-9l-1.8 5.6h-6.2l9.2-25.2h6.7l9.1 25.2zm-9.3-10l-2.7-8.5c-.2-.6-.3-1.4-.4-2.3h-.1c-.1.7-.2 1.5-.4 2.2l-2.7 8.5H61zm28.7 10h-5.3v-2.6h-.1c-1.2 2-3 3-5.4 3-1.7 0-3.1-.5-4.1-1.5s-1.5-2.3-1.5-4c0-3.5 2.1-5.5 6.2-6l4.9-.7c0-2-1.1-3-3.2-3s-4.2.6-6.1 1.9v-4c.8-.4 1.8-.8 3.2-1.1s2.6-.5 3.7-.5c5.1 0 7.7 2.6 7.7 7.7v10.8zm-5.2-7.3v-1.2l-3.3.4c-1.8.2-2.7 1-2.7 2.4 0 .6.2 1.2.7 1.6s1 .6 1.8.6c1 0 1.9-.4 2.5-1.1s1-1.6 1-2.7z" class="st1"/></svg>