<svg xmlns="http://www.w3.org/2000/svg" viewBox="0 0 136 136" enable-background="new 0 0 136 136"><style type="text/css">.st0{fill:#EC82BE;} .st1{fill:#FFFFFF;} .st2{fill:#F6B344;} .st3{fill:#1FB28C;} .st4{fill:#66C980;} .st5{fill:#DE4658;} .st6{fill:#00B0DC;} .st7{fill:#383838;} .st8{fill:#848484;} .st9{fill:#A8A8A8;} .st10{fill:#B865C7;} .st11{fill:#00B9D1;}</style><circle cx="68" cy="68" r="68" class="st3"/><path d="M87.5 47.8c-1.2.7-1.8 1.5-2.3 2.9-.4 1.1-.5 2-.5 4.8v22.1c.1 3.5.4 4.4 2 4.9-.5 1-1.2 1.6-2.7 2.5-2.2 1.4-2.5 1.8-2.7 3.2-2.8-.4-4.2-2.6-4.3-6.4l-.1-1.5c0-.1 0-.3-.1-.6-.3 1.6-.4 1.8-2.1 3.3-2.7 2.3-3.4 3.4-3.6 5.1-3.5-1.7-6-2.7-9.5-3.7l-.4-.1c-2.7 4.1-4.8 5.6-7.6 5.6-2.9 0-5-2.1-5-5.1 0-4.6 4.3-7.7 10.8-7.7 1.7 0 2.9.1 4.5.5l2.6-4.7c-1.2.5-2 .6-3.2.6-6 0-10.3-5.1-10.3-12.1 0-8.8 7.4-15.5 16.9-15.5 4.9 0 9.2 1.6 13.2 4.9.9-2 2.2-2.8 4.4-3zM56.8 83.7c-2.9 0-5.2 1.3-5.2 3 0 1.2 1 2 2.4 2 2 0 3.9-1.6 6-4.8-1.4-.1-2.2-.2-3.2-.2zm10.8-32.4c-7 0-12.2 5.4-12.2 12.6 0 5 3.2 8.8 7.5 8.8 2.8 0 4.5-1.3 4.9-3.5h.6l7.9-14.3c-3-2.6-5.4-3.6-8.7-3.6zM64.9 78c1.4.3 2.4.6 3.6.9l3.1.8c.7.2 1.4.3 1.8.3 2.4 0 3.3-1.9 3.3-6.5v-1.4h-8.6L64.9 78zm4.8-8.9h7.1V56.4l-7.1 12.7z" class="st1"/></svg>