<svg xmlns="http://www.w3.org/2000/svg" viewBox="0 0 721.6 160" enable-background="new 0 0 721.6 160"><style type="text/css">.st0{fill:#FFFFFF;}</style><path d="M161.3 32.7h11.6l9.2 24.2 9.7-24.2h11.7l6.9 45.3h-11.8l-3.3-26.1h-.1L184.3 78h-4.7l-10.4-26.1h-.1L165.3 78h-11.7l7.7-45.3zM230 70.2l-3.1 7.9h-12.5l17.4-45.3h12.9l17 45.2h-12.6l-2.9-7.9H230zm8.2-23.5h-.1l-4.9 14.4h9.8l-4.8-14.4zM282.9 78h-11.8V42.7h-9.7v-10h31.3v10H283V78zM328.7 50.2V32.7h11.8V78h-11.8V59.5h-17V78h-11.8V32.7h11.8v17.5h17zM363 78h-11.8V32.7H363V78zM385.5 68.1h14.1v10h-25.9V32.7h11.8v35.4zM406.5 32.7h16.7c12.6 0 23 9.9 23 22.7S435.7 78 423.2 78h-16.7V32.7zm11.7 35.4h2.6c7 0 13-3.8 13-12.7 0-8.1-5.4-12.7-12.9-12.7h-2.8v25.4zM466.5 42.7v7.6h13.3v10h-13.3v7.8h14v10h-25.8V32.7h25.8v10h-14zM539.3 44.4c-2.2-1.8-4.9-3-7.8-3-2.2 0-5.1 1.3-5.1 3.8 0 2.6 3.2 3.7 5.2 4.3l3 .9c6.3 1.9 11.2 5.1 11.2 12.4 0 4.5-1.1 9.1-4.7 12.2-3.5 3-8.3 4.3-12.9 4.3-5.7 0-11.3-1.9-15.9-5.2l5-9.5c2.9 2.6 6.4 4.7 10.5 4.7 2.8 0 5.7-1.4 5.7-4.6 0-3.3-4.6-4.4-7.2-5.2-7.4-2.1-12.3-4-12.3-12.8 0-9.2 6.6-15.2 15.6-15.2 4.6 0 10.2 1.4 14.2 3.7l-4.5 9.2zM566.2 42.7v7.6h13.3v10h-13.3v7.8h14v10h-25.8V32.7h25.8v10h-14zM628.2 78h-14.7l-11.1-17.4h-.1V78h-11.8V32.7h17.6c9 0 15.8 4.3 15.8 13.9 0 6.3-3.5 11.7-9.9 12.8L628.2 78zm-25.9-25h1.1c3.8 0 8.2-.7 8.2-5.6s-4.3-5.7-8.2-5.7h-1.1V53zM672.1 78h-14.7l-11.1-17.4h-.1V78h-11.8V32.7H652c9 0 15.8 4.3 15.8 13.9 0 6.3-3.5 11.7-9.9 12.8L672.1 78zm-25.9-25h1.1c3.8 0 8.2-.7 8.2-5.6s-4.3-5.7-8.2-5.7h-1.1V53zM689.9 70.2l-3.1 7.9h-12.5l17.4-45.3h12.9l17 45.2H709l-2.9-7.9h-16.2zm8.2-23.5h-.1l-4.9 14.4h9.8l-4.8-14.4zM157.1 122.3l-3 7.5h-1.5l9.5-23.4 9.5 23.4h-1.5l-3-7.5h-10zm5-12.3l-4.5 11h8.9l-4.4-11zM194.4 129.8h-1.7l-7.4-10.7h-.7v10.7h-1.4v-22.7h2.8c1.8 0 3.6 0 5.2 1.1s2.3 2.9 2.3 4.9c0 3.9-2.7 6-6.5 5.9l7.4 10.8zm-7.9-12.1c1.4 0 2.8-.1 4-1.1 1.1-.9 1.6-2.2 1.6-3.6 0-1.7-.8-3.4-2.4-4.1-1.2-.6-2.7-.5-4.1-.5h-.9v9.2h1.8zM211.4 129.8H210v-21.3h-5.9v-1.4h13.2v1.4h-5.9v21.3zM230.3 129.8h-1.4v-22.7h1.4v22.7zM254.7 110.8c-1-1.6-2.5-2.7-4.6-2.7-2.4 0-4.3 2-4.3 4.3 0 2.4 2.3 3.4 4.1 4.2l4.3 2.3c1.7 1.1 2.6 2.5 2.6 4.5 0 3.8-3.4 6.6-7.1 6.6-3.2 0-5.6-2-6.7-4.9l1.3-.6c1 2.4 2.7 4.1 5.5 4.1 3 0 5.6-2.3 5.6-5.4 0-2.6-2.6-3.6-4.6-4.6l-4.1-2.2c-1.5-.9-2.3-2.3-2.3-4.1 0-3.4 2.4-5.7 5.8-5.7 2.3 0 4.5 1.2 5.5 3.2l-1 1zM274.6 129.8h-1.4v-21.3h-5.9v-1.4h13.2v1.4h-5.9v21.3zM293.6 129.8h-1.4v-22.7h1.4v22.7zM325.5 111.7c-1.7-2.1-4.8-3.6-7.6-3.6-5.7 0-10.3 4.9-10.3 10.4 0 2.6 1.1 5.1 3 7 1.9 1.8 4.6 3.1 7.3 3.1 2.6 0 5.9-1.4 7.6-3.5v2c-2.1 1.8-4.8 2.8-7.6 2.8-6.3 0-11.8-5.3-11.8-11.6 0-6.4 5.4-11.7 11.9-11.7 2.7 0 5.5 1.1 7.5 2.9v2.2zM357 107.1h4.1c3.3 0 5.9.5 8.4 2.9 2.4 2.2 3.6 5.3 3.6 8.5 0 3.1-1.2 6.1-3.5 8.3-2.5 2.4-5.2 3-8.5 3H357v-22.7zm4.1 21.3c3 0 5.4-.6 7.6-2.7 1.9-1.9 3-4.5 3-7.2 0-2.9-1.1-5.6-3.3-7.6-2.2-2-4.5-2.5-7.3-2.5h-2.6v20h2.6zM387.1 129.8h-1.4v-22.7h1.4v22.7zM412.2 129.8h-1.7l-7.4-10.7h-.7v10.7H401v-22.7h2.8c1.8 0 3.6 0 5.2 1.1s2.3 2.9 2.3 4.9c0 3.9-2.7 6-6.5 5.9l7.4 10.8zm-7.9-12.1c1.4 0 2.8-.1 4-1.1 1.1-.9 1.6-2.2 1.6-3.6 0-1.7-.8-3.4-2.4-4.1-1.2-.6-2.7-.5-4.1-.5h-.9v9.2h1.8zM426.1 108.4v8.2h9.1v1.4h-9.1v10.4h9.4v1.4h-10.8v-22.7h10.8v1.4h-9.4zM467 111.7c-1.7-2.1-4.8-3.6-7.6-3.6-5.7 0-10.3 4.9-10.3 10.4 0 2.6 1.1 5.1 3 7 1.9 1.8 4.6 3.1 7.3 3.1 2.6 0 5.9-1.4 7.6-3.5v2c-2.1 1.8-4.8 2.8-7.6 2.8-6.3 0-11.8-5.3-11.8-11.6 0-6.4 5.4-11.7 11.9-11.7 2.7 0 5.5 1.1 7.5 2.9v2.2zM485.3 129.8h-1.4v-21.3H478v-1.4h13.2v1.4h-5.9v21.3zM524.9 118.4c0 6.4-5.4 11.6-11.8 11.6s-11.8-5.3-11.8-11.6 5.4-11.6 11.8-11.6c6.5 0 11.8 5.3 11.8 11.6zm-22 0c0 5.6 4.7 10.3 10.3 10.3 5.6 0 10.3-4.7 10.3-10.3 0-5.6-4.7-10.3-10.3-10.3-5.7 0-10.3 4.7-10.3 10.3zM548.7 129.8H547l-7.4-10.7h-.7v10.7h-1.4v-22.7h2.8c1.8 0 3.6 0 5.2 1.1s2.3 2.9 2.3 4.9c0 3.9-2.7 6-6.5 5.9l7.4 10.8zm-7.9-12.1c1.4 0 2.8-.1 4-1.1 1.1-.9 1.6-2.2 1.6-3.6 0-1.7-.8-3.4-2.4-4.1-1.2-.6-2.7-.5-4.1-.5h-.9v9.2h1.8zM85 63.8c-8.9-6.5-19.8-10.5-31.6-10.5-11.9 0-22.8 3.9-31.6 10.5-6 4.3-10.9 9.8-14.6 16.2 3.7 6.4 8.6 11.9 14.5 16.2C23.9 89.7 28 84 33.4 80c5.6-4.2 12.5-6.7 19.9-6.7 7.5 0 14.4 2.5 19.9 6.7 5.4 4 9.5 9.7 11.7 16.2 1.1 3.3 1.7 6.8 1.7 10.5 0 18.4-14.9 33.3-33.3 33.3S20 125.1 20 106.7h-.3L2 120.9C8.2 143.4 28.8 160 53.3 160c29.5 0 53.3-23.9 53.3-53.3 0-9.7-2.6-18.8-7.2-26.7-3.6-6.4-8.6-11.9-14.4-16.2zM79.1 100c-1.8-6.9-6.2-12.7-12.2-16.3-4.2 1.9-8.7 2.9-13.6 2.9-4.8 0-9.4-1.1-13.6-2.9-6 3.6-10.4 9.4-12.2 16.3 7.6 4.2 16.4 6.7 25.8 6.7 9.4 0 18.2-2.5 25.8-6.7zM53.3 0C23.9 0 0 23.9 0 53.3c0 6.9 1.4 13.5 3.7 19.6 4.4-6.4 10-11.9 16.4-16.2-.1-1.1-.2-2.2-.2-3.3C20 34.9 34.9 20 53.3 20c18.2 0 32.9 14.6 33.3 32.7l17.8-14.4C98 16.2 77.6 0 53.3 0z" class="st0"/></svg>