<?xml version="1.0" encoding="utf-8"?>
<!-- Generator: Adobe Illustrator 18.0.0, SVG Export Plug-In . SVG Version: 6.00 Build 0)  -->
<!DOCTYPE svg PUBLIC "-//W3C//DTD SVG 1.1//EN" "http://www.w3.org/Graphics/SVG/1.1/DTD/svg11.dtd">
<svg version="1.1" id="Calque_1" xmlns="http://www.w3.org/2000/svg" xmlns:xlink="http://www.w3.org/1999/xlink" x="0px" y="0px"
	 viewBox="0 0 721.6 160" style="enable-background:new 0 0 721.6 160;" xml:space="preserve">
<style type="text/css">
	.st0{fill:#FFFFFF;}
</style>
<g>
	<g>
		<g>
			<path class="st0" d="M161.3,32.7h11.6l9.2,24.2l9.7-24.2h11.7l6.9,45.3h-11.8l-3.3-26.1h-0.1L184.3,78h-4.7l-10.4-26.1h-0.1
				L165.3,78h-11.7L161.3,32.7z"/>
			<path class="st0" d="M230,70.2l-3.1,7.9h-12.5l17.4-45.3h12.9L261.7,78h-12.6l-2.9-7.9H230z M238.2,46.7h-0.1l-4.9,14.4h9.8
				L238.2,46.7z"/>
			<path class="st0" d="M282.9,78h-11.8V42.7h-9.7v-10h31.3v10h-9.7V78z"/>
			<path class="st0" d="M328.7,50.2V32.7h11.8V78h-11.8V59.5h-17V78h-11.8V32.7h11.8v17.5H328.7z"/>
			<path class="st0" d="M363,78h-11.8V32.7H363V78z"/>
			<path class="st0" d="M385.5,68.1h14.1v10h-25.9V32.7h11.8V68.1z"/>
			<path class="st0" d="M406.5,32.7h16.7c12.6,0,23,9.9,23,22.7S435.7,78,423.2,78h-16.7V32.7z M418.2,68.1h2.6c7,0,13-3.8,13-12.7
				c0-8.1-5.4-12.7-12.9-12.7h-2.8V68.1z"/>
			<path class="st0" d="M466.5,42.7v7.6h13.3v10h-13.3v7.8h14v10h-25.8V32.7h25.8v10H466.5z"/>
			<path class="st0" d="M539.3,44.4c-2.2-1.8-4.9-3-7.8-3c-2.2,0-5.1,1.3-5.1,3.8c0,2.6,3.2,3.7,5.2,4.3l3,0.9
				c6.3,1.9,11.2,5.1,11.2,12.4c0,4.5-1.1,9.1-4.7,12.2c-3.5,3-8.3,4.3-12.9,4.3c-5.7,0-11.3-1.9-15.9-5.2l5-9.5
				c2.9,2.6,6.4,4.7,10.5,4.7c2.8,0,5.7-1.4,5.7-4.6c0-3.3-4.6-4.4-7.2-5.2c-7.4-2.1-12.3-4-12.3-12.8c0-9.2,6.6-15.2,15.6-15.2
				c4.6,0,10.2,1.4,14.2,3.7L539.3,44.4z"/>
			<path class="st0" d="M566.2,42.7v7.6h13.3v10h-13.3v7.8h14v10h-25.8V32.7h25.8v10H566.2z"/>
			<path class="st0" d="M628.2,78h-14.7l-11.1-17.4h-0.1V78h-11.8V32.7h17.6c9,0,15.8,4.3,15.8,13.9c0,6.3-3.5,11.7-9.9,12.8
				L628.2,78z M602.3,53h1.1c3.8,0,8.2-0.7,8.2-5.6s-4.3-5.7-8.2-5.7h-1.1V53z"/>
			<path class="st0" d="M672.1,78h-14.7l-11.1-17.4h-0.1V78h-11.8V32.7h17.6c9,0,15.8,4.3,15.8,13.9c0,6.3-3.5,11.7-9.9,12.8
				L672.1,78z M646.2,53h1.1c3.8,0,8.2-0.7,8.2-5.6s-4.3-5.7-8.2-5.7h-1.1V53z"/>
			<path class="st0" d="M689.9,70.2l-3.1,7.9h-12.5l17.4-45.3h12.9L721.6,78h-12.6l-2.9-7.9H689.9z M698.1,46.7H698l-4.9,14.4h9.8
				L698.1,46.7z"/>
		</g>
	</g>
	<g>
		<g>
			<path class="st0" d="M157.1,122.3l-3,7.5h-1.5l9.5-23.4l9.5,23.4h-1.5l-3-7.5H157.1z M162.1,110l-4.5,11h8.9L162.1,110z"/>
			<path class="st0" d="M194.4,129.8h-1.7l-7.4-10.7h-0.7v10.7h-1.4v-22.7h2.8c1.8,0,3.6,0,5.2,1.1c1.6,1.1,2.3,2.9,2.3,4.9
				c0,3.9-2.7,6-6.5,5.9L194.4,129.8z M186.5,117.7c1.4,0,2.8-0.1,4-1.1c1.1-0.9,1.6-2.2,1.6-3.6c0-1.7-0.8-3.4-2.4-4.1
				c-1.2-0.6-2.7-0.5-4.1-0.5h-0.9v9.2H186.5z"/>
			<path class="st0" d="M211.4,129.8h-1.4v-21.3h-5.9v-1.4h13.2v1.4h-5.9V129.8z"/>
			<path class="st0" d="M230.3,129.8h-1.4v-22.7h1.4V129.8z"/>
			<path class="st0" d="M254.7,110.8c-1-1.6-2.5-2.7-4.6-2.7c-2.4,0-4.3,2-4.3,4.3c0,2.4,2.3,3.4,4.1,4.2l4.3,2.3
				c1.7,1.1,2.6,2.5,2.6,4.5c0,3.8-3.4,6.6-7.1,6.6c-3.2,0-5.6-2-6.7-4.9l1.3-0.6c1,2.4,2.7,4.1,5.5,4.1c3,0,5.6-2.3,5.6-5.4
				c0-2.6-2.6-3.6-4.6-4.6l-4.1-2.2c-1.5-0.9-2.3-2.3-2.3-4.1c0-3.4,2.4-5.7,5.8-5.7c2.3,0,4.5,1.2,5.5,3.2L254.7,110.8z"/>
			<path class="st0" d="M274.6,129.8h-1.4v-21.3h-5.9v-1.4h13.2v1.4h-5.9V129.8z"/>
			<path class="st0" d="M293.6,129.8h-1.4v-22.7h1.4V129.8z"/>
			<path class="st0" d="M325.5,111.7c-1.7-2.1-4.8-3.6-7.6-3.6c-5.7,0-10.3,4.9-10.3,10.4c0,2.6,1.1,5.1,3,7
				c1.9,1.8,4.6,3.1,7.3,3.1c2.6,0,5.9-1.4,7.6-3.5v2c-2.1,1.8-4.8,2.8-7.6,2.8c-6.3,0-11.8-5.3-11.8-11.6c0-6.4,5.4-11.7,11.9-11.7
				c2.7,0,5.5,1.1,7.5,2.9V111.7z"/>
			<path class="st0" d="M357,107.1h4.1c3.3,0,5.9,0.5,8.4,2.9c2.4,2.2,3.6,5.3,3.6,8.5c0,3.1-1.2,6.1-3.5,8.3c-2.5,2.4-5.2,3-8.5,3
				H357V107.1z M361.1,128.4c3,0,5.4-0.6,7.6-2.7c1.9-1.9,3-4.5,3-7.2c0-2.9-1.1-5.6-3.3-7.6c-2.2-2-4.5-2.5-7.3-2.5h-2.6v20H361.1z
				"/>
			<path class="st0" d="M387.1,129.8h-1.4v-22.7h1.4V129.8z"/>
			<path class="st0" d="M412.2,129.8h-1.7l-7.4-10.7h-0.7v10.7H401v-22.7h2.8c1.8,0,3.6,0,5.2,1.1c1.6,1.1,2.3,2.9,2.3,4.9
				c0,3.9-2.7,6-6.5,5.9L412.2,129.8z M404.3,117.7c1.4,0,2.8-0.1,4-1.1c1.1-0.9,1.6-2.2,1.6-3.6c0-1.7-0.8-3.4-2.4-4.1
				c-1.2-0.6-2.7-0.5-4.1-0.5h-0.9v9.2H404.3z"/>
			<path class="st0" d="M426.1,108.4v8.2h9.1v1.4h-9.1v10.4h9.4v1.4h-10.8v-22.7h10.8v1.4H426.1z"/>
			<path class="st0" d="M467,111.7c-1.7-2.1-4.8-3.6-7.6-3.6c-5.7,0-10.3,4.9-10.3,10.4c0,2.6,1.1,5.1,3,7c1.9,1.8,4.6,3.1,7.3,3.1
				c2.6,0,5.9-1.4,7.6-3.5v2c-2.1,1.8-4.8,2.8-7.6,2.8c-6.3,0-11.8-5.3-11.8-11.6c0-6.4,5.4-11.7,11.9-11.7c2.7,0,5.5,1.1,7.5,2.9
				V111.7z"/>
			<path class="st0" d="M485.3,129.8h-1.4v-21.3H478v-1.4h13.2v1.4h-5.9V129.8z"/>
			<path class="st0" d="M524.9,118.4c0,6.4-5.4,11.6-11.8,11.6c-6.4,0-11.8-5.3-11.8-11.6s5.4-11.6,11.8-11.6
				C519.6,106.8,524.9,112.1,524.9,118.4z M502.9,118.4c0,5.6,4.7,10.3,10.3,10.3c5.6,0,10.3-4.7,10.3-10.3
				c0-5.6-4.7-10.3-10.3-10.3C507.5,108.1,502.9,112.8,502.9,118.4z"/>
			<path class="st0" d="M548.7,129.8H547l-7.4-10.7h-0.7v10.7h-1.4v-22.7h2.8c1.8,0,3.6,0,5.2,1.1c1.6,1.1,2.3,2.9,2.3,4.9
				c0,3.9-2.7,6-6.5,5.9L548.7,129.8z M540.8,117.7c1.4,0,2.8-0.1,4-1.1c1.1-0.9,1.6-2.2,1.6-3.6c0-1.7-0.8-3.4-2.4-4.1
				c-1.2-0.6-2.7-0.5-4.1-0.5h-0.9v9.2H540.8z"/>
		</g>
	</g>
	<g>
		<g>
			<path class="st0" d="M85,63.8c-8.9-6.5-19.8-10.5-31.6-10.5c-11.9,0-22.8,3.9-31.6,10.5C15.8,68.1,10.9,73.6,7.2,80
				c3.7,6.4,8.6,11.9,14.5,16.2C23.9,89.7,28,84,33.4,80c5.6-4.2,12.5-6.7,19.9-6.7c7.5,0,14.4,2.5,19.9,6.7
				c5.4,4,9.5,9.7,11.7,16.2c1.1,3.3,1.7,6.8,1.7,10.5c0,18.4-14.9,33.3-33.3,33.3S20,125.1,20,106.7h-0.3L2,120.9
				C8.2,143.4,28.8,160,53.3,160c29.5,0,53.3-23.9,53.3-53.3c0-9.7-2.6-18.8-7.2-26.7C95.8,73.6,90.8,68.1,85,63.8z"/>
		</g>
		<g>
			<path class="st0" d="M79.1,100c-1.8-6.9-6.2-12.7-12.2-16.3c-4.2,1.9-8.7,2.9-13.6,2.9c-4.8,0-9.4-1.1-13.6-2.9
				c-6,3.6-10.4,9.4-12.2,16.3c7.6,4.2,16.4,6.7,25.8,6.7C62.7,106.7,71.5,104.2,79.1,100z"/>
		</g>
		<g>
			<path class="st0" d="M53.3,0C23.9,0,0,23.9,0,53.3c0,6.9,1.4,13.5,3.7,19.6c4.4-6.4,10-11.9,16.4-16.2c-0.1-1.1-0.2-2.2-0.2-3.3
				C20,34.9,34.9,20,53.3,20c18.2,0,32.9,14.6,33.3,32.7l17.8-14.4C98,16.2,77.6,0,53.3,0z"/>
		</g>
	</g>
</g>
</svg>
