<svg xmlns="http://www.w3.org/2000/svg" viewBox="0 0 301.1 246" enable-background="new 0 0 301.1 246"><style type="text/css">.st0{fill:#FFFFFF;}</style><path d="M37.7 38.1c-.6 0-1.1.5-1.1 1.1v1.1c0 1.1-.9 2-2 2h-23c-1.7 0-3-1.3-3-3v-3h26c2.2 0 4-1.8 4-4v-28c0-2.2-1.8-4-4-4h-24c-2.2 0-4 1.8-4 4v36c0 2.2 1.8 4 4 4h23.9c2.3 0 4.1-1.9 4.1-4.2V39c-.1-.5-.5-.9-.9-.9zM34.6 2.3c1.1 0 2 .6 2 1.7v28.3c0 1.1-.9 2-2 2H15.5v-32h19.1zm-26.1 2c0-1.1.9-2 2-2h3v32h-5v-30zm29.2 33.8zm-26.2.2c-.6 0-1 .4-1 1s.4 1 1 1h22c.6 0 1-.4 1-1s-.4-1-1-1h-22z" class="st0"/><circle cx="194.2" cy="39.1" r="2" class="st0"/><path d="M203.2 0h-17.9c-2.2 0-4.2 2.9-4.2 5.1V6h-.4c-.3 0-.6 1.4-.6 1.6v1c0 .3.3-.6.6-.6h.4v2h-.4c-.3 0-.6 1.4-.6 1.6v3c0 .3.3-.6.6-.6h.4v2h-.4c-.3 0-.6 1.4-.6 1.6v3c0 .3.3-.6.6-.6h.4v21.1c0 2.2 2 2.9 4.2 2.9h17.9c2.2 0 3.9-.7 3.9-2.9v-36c0-2.2-1.7-5.1-3.9-5.1zm1.9 41.1c0 1.1-.8.9-1.9.9h-18c-1.1 0-2.1.2-2.1-.9V34h22v7.1zm0-9.1h-22V7h22v25zm0-27h-22v.1c0-1.1 1.1-3.1 2.2-3.1h17.9c1.1 0 1.9 2 1.9 3.1V5zm-4.4-2h-13c-.3 0-.5.2-.5.5s.2.5.5.5h13c.3 0 .5-.2.5-.5s-.2-.5-.5-.5zm-13 8h13c.3 0 .5-.2.5-.5s-.2-.5-.5-.5h-13c-.3 0-.5.2-.5.5s.2.5.5.5zm0 3h13c.3 0 .5-.2.5-.5s-.2-.5-.5-.5h-13c-.3 0-.5.2-.5.5s.2.5.5.5zm0 3h13c.3 0 .5-.2.5-.5s-.2-.5-.5-.5h-13c-.3 0-.5.2-.5.5s.2.5.5.5zm0 3h13c.3 0 .5-.2.5-.5s-.2-.5-.5-.5h-13c-.3 0-.5.2-.5.5s.2.5.5.5zm0 3h13c.3 0 .5-.2.5-.5s-.2-.5-.5-.5h-13c-.3 0-.5.2-.5.5s.2.5.5.5zm0 3h13c.3 0 .5-.2.5-.5s-.2-.5-.5-.5h-13c-.3 0-.5.2-.5.5s.2.5.5.5zm0 3h13c.3 0 .5-.2.5-.5s-.2-.5-.5-.5h-13c-.3 0-.5.2-.5.5s.2.5.5.5zm-69.8 10.9c3.1-3.8 6.1-12.7 6.1-18.8 0-6.9-4.9-11-8.9-11v-3c2 0 2.9-1.9 2.9-3.6S116.6 0 114.9 0h-14C99.3 0 98 1.9 98 3.6s1.1 3.6 3.1 3.6v3c-4 .1-9.1 4.3-9.1 11 0 6.1 2.8 15 6 18.8-.6.5-1 .8-1 1.7 0 1.7 1.3 2.4 3 2.4h16c1.6 0 3-.8 3-2.4 0-.8-.3-1.3-.9-1.9-.1-.1-.1.1-.2.1zM96.4 28.7c.7.5 1.4 1.1 2.5 1.1s1.8-.6 2.4-1.1c.6-.5 1.1-1 2.1-1 .8 0 1.4.4 2.1.9.7.5 1.5 1.1 2.7 1.1 1.1 0 2-.6 2.8-1.1.8-.5 1.5-1 2.4-1 .8 0 1.4.4 2 .9.7.5 1.4 1.2 2.6 1.2 1.2 0 2.2-.6 2.9-1.2 0 0 .1 0 .1 0-.5 2-.8 3.9-1.8 5.6V33H96.9c-.8-2-1.6-3.6-2.1-5.8.6.2 1.1 1.1 1.6 1.5zm-1.8-2c-.3-1.4-.5-2.8-.6-4.1 1 0 1.7.5 2.4 1s1.4 1.1 2.5 1.1 1.8-.6 2.4-1.1c.6-.5 1.1-1 2.1-1 .8 0 1.4.4 2.1.9.7.5 1.5 1.1 2.7 1.1 1.3 0 2.2-.6 2.9-1.2.7-.5 1.3-.9 2.2-.9 1 0 1.5.5 2.1 1 .6.5 1.3 1.1 2.4 1.1 1.2 0 2.2-.6 2.9-1.2.3-.3.7-.5 1-.7-.1 1.3-.3 2.7-.6 4.1-.5.2-.7.5-1 .8-.6.5-1.4 1-2.3 1-.8 0-1.4-.4-2-.9-.7-.5-1.4-1.2-2.6-1.2-1.2 0-2.1.6-2.9 1.1-.7.5-1.5.9-2.3.9-.8 0-1.4-.4-2.1-.9-.7-.5-1.5-1.1-2.7-1.1-1.3 0-2.1.6-2.7 1.2-.6.5-1 .9-1.8.9-.7 0-1.3-.4-1.9-.9-.4-.3-1.4-.8-2.2-1zm23.9 7.3c-.2 0-.3 1-.5 1H98.1v1.2c0-.4-.6-2.2-.8-2.2h21.2zm-1.1 2c-.5 1-1 1-1.5 2h-16c-.5-1-1-1-1.5-2h19zM99.9 3c0-.6.4-1 1-1h14c.6 0 1 .4 1 1s-.4 1-1 1h-14c-.5 0-1-.4-1-1zm3.2 3h10v1h-10V6zm10 2v1h-10V8h10zm-12 3h13.8c2.2 0 4.8 2.1 6.2 5.2-.6.2-1 .9-1.4 1.3-.6.5-.9 1.1-1.8 1.1-.8 0-1.2-.3-1.7-.8-.6-.6-1.4-1.2-2.9-1.2-1.4 0-2.1.6-2.8 1.1-.7.5-1.2 1-2.4 1-.8 0-1.4-.4-2.1-.9-.7-.5-1.5-1.1-2.7-1.1-1.3 0-2.1.6-2.7 1.2-.6.5-1 .9-1.8.9-.7 0-1.3-.4-1.9-.9-.6-.4-1.4-1.4-2.2-1.7 1.5-3 4.1-5.2 6.4-5.2zm-6.6 6.7c.7.1 1.4.5 2 1 .7.5 1.4 1.1 2.5 1.1s1.8-.6 2.4-1.1c.6-.5 1.1-1 2.1-1 .8 0 1.4.4 2.1.9.7.5 1.5 1.1 2.7 1.1 1.5 0 2.3-.6 3-1.2.6-.5 1.2-.9 2.2-.9 1.1 0 1.6.5 2.2 1 .6.5 1.2 1.1 2.3 1.1 1.2 0 1.8-.6 2.4-1.2.3-.3.8-.5 1.1-.7.3 1 .5 2.1.5 3.3 0 .2 0 .4 0 .6-1 .2-1.2.6-1.7 1-.6.5-1.4 1-2.3 1-.8 0-1.2-.4-1.8-.9-.7-.6-1.4-1.2-2.8-1.2-1.3 0-2.1.6-2.8 1.1-.7.5-1.3 1-2.4 1-.8 0-1.4-.4-2.1-.9-.7-.5-1.5-1.1-2.7-1.1-1.3 0-2.1.6-2.7 1.2-.6.5-1 .9-1.8.9-.7 0-1.3-.4-1.9-.9-.8-.6-2.1-1.2-3.1-1.2 0-.2 0-.3 0-.5 0-1.4.2-2.5.6-3.5zM115.9 42h-16c-.6 0-1-.4-1-1s.4-1 1-1h16c.6 0 1 .5 1 1 0 .6-.4 1-1 1zm11.2 42.5l-2.6-.5c-.1-.4-.3-.9-.4-1.3l1.8-2.2c1.2-1.4 1.1-3.5-.1-4.8l-1.6-1.8c-.7-.8-1.7-1.3-2.8-1.3-.7 0-1.4.2-2 .6l-2.3 1.5c-1-.6-2.1-1.1-3.2-1.5l-.5-2.9c-.3-1.8-1.9-3.3-3.7-3.3h-2.4c-1.8 0-3.4 1.5-3.7 3.3l-.5 2.8c-.8.3-1.6.6-2.3 1l-2.2-1.5c-.6-.5-1.4-.7-2.2-.7-1 0-1.9.4-2.7 1.1L92 74.7c-1.3 1.3-1.5 3.3-.4 4.8l1.6 2.2c-.4.7-.7 1.5-.9 2.3l-2.9.5c-1.8.3-3.3 1.9-3.3 3.7v2.4c0 1.8 1.5 3.4 3.3 3.7l2.8.5c.2.5.4 1 .6 1.5l-1.7 2.1c-1.2 1.4-1.1 3.5.1 4.8l1.6 1.8c.7.8 1.7 1.3 2.8 1.3.7 0 1.4-.2 2-.6l2.4-1.5c1 .6 2 1 3.1 1.4l.5 2.6c.3 1.8 1.8 2.9 3.7 2.9h2.4c1.8 0 3.4-1.1 3.7-2.9l.5-2.6c.8-.3 1.5-.5 2.3-.9l2.3 1.7c.6.5 1.4.7 2.2.7 1 0 1.9-.4 2.7-1.1l1.7-1.7c1.3-1.3 1.5-3.3.4-4.8l-1.7-2.3c.4-.7.7-1.5.9-2.3l2.6-.5c1.8-.3 3-1.9 3-3.7v-2.4c-.2-1.9-1.3-3.5-3.2-3.8zm1 6.1c0 .9-.5 1.6-1.3 1.7l-3.9.7c-.4 1.5-.9 2.9-1.7 4.2l2.4 3.4c.5.7.4 1.6-.2 2.3l-1.7 1.7c-.3.3-.8.5-1.2.5-.4 0-.7-.1-1-.3l-3.4-2.4c-1.3.8-2.7 1.4-4.2 1.7l-.7 3.8c-.1.8-.9 1.3-1.7 1.3h-2.4c-.9 0-1.6-.4-1.7-1.3l-.7-3.9c-1.8-.4-3.4-1.1-4.9-2.1l-3.4 2.2c-.3.2-.6.3-.9.3-.5 0-1-.2-1.3-.6l-1.6-1.8c-.6-.6-.6-1.6-.1-2.3l2.5-3.1c-.6-1.1-1-2.3-1.3-3.5l-4.2-.7c-.8-.1-1.6-.9-1.6-1.7v-2.4c0-.9.8-1.6 1.6-1.7l4.1-.7c.4-1.5 1-2.9 1.8-4.2l-2.3-3.2c-.5-.7-.4-1.6.2-2.3l1.7-1.7c.3-.3.8-.5 1.2-.5.4 0 .7.1 1 .3l3.2 2.3c1.3-.8 2.7-1.4 4.2-1.7l.7-4.2c.1-.8.9-1.7 1.7-1.7h2.4c.9 0 1.6.8 1.7 1.7l.7 4.1c1.8.4 3.5 1.3 5 2.3l3.4-2.1c.3-.2.6-.3.9-.3.5 0 1 .2 1.3.6l1.6 1.8c.6.6.6 1.6.1 2.3l-2.5 3.1c.5 1 1 2.2 1.3 3.4l3.8.7c.8.1 1.3.9 1.3 1.7v2.3zm-19.6-8.7c-4.1 0-7.5 3.4-7.5 7.5s3.4 7.5 7.5 7.5 7.5-3.4 7.5-7.5c0-4.2-3.3-7.5-7.5-7.5zm0 13c-3 0-5.5-2.5-5.5-5.5s2.5-5.5 5.5-5.5 5.5 2.5 5.5 5.5-2.5 5.5-5.5 5.5zM298.9 67h-40c-1.1 0-1.8 2-1.8 3.1v40c0 1.1.7.9 1.8.9h30l12.2-10.9v-30c0-1.1-1.1-3.1-2.2-3.1zm-8.8 41.3V100h6.9l-6.9 8.3zm9-10.3h-9.2c-1.1 0-1.8 2-1.8 3.1v7.9h-29V76h40v22zm0-24h-40v-5h40v5zm-35.2 8h30c.6 0 1-.4 1-1s-.4-1-1-1h-30c-.6 0-1 .4-1 1s.4 1 1 1zm0 6h28c.6 0 1-.4 1-1s-.4-1-1-1h-28c-.6 0-1 .4-1 1s.4 1 1 1zm0 6h30c.6 0 1-.4 1-1s-.4-1-1-1h-30c-.6 0-1 .4-1 1s.4 1 1 1zm0 6h19c.6 0 1-.4 1-1s-.4-1-1-1h-19c-.6 0-1 .4-1 1s.4 1 1 1zm0 6h17c.6 0 1-.4 1-1s-.4-1-1-1h-17c-.6 0-1 .4-1 1s.4 1 1 1zm-134.5 38.7l-1-1 .7-.7c.8-.8.8-2 0-2.8l-.7-.7c-.4-.4-.9-.6-1.4-.6s-1 .2-1.4.6l-.7.7-1.2-1.2c-.4-.4-.9-.6-1.4-.6s-1 .2-1.4.6l-1.1 1.1-.8-.8 1.8-1.8c.4-.4.4-1 0-1.4-.4-.4-1-.4-1.4 0l-12.6 12.6c-.4.4-.4 1 0 1.4.4.4 1 .4 1.4 0l6.4-6.4.8.8-18.1 18.1c-.8.8-.8 2 0 2.8l-3 3.6c-.4.4 0 .9 0 1.4v1.2c0 .4-.4.8-.2 1.2l-1.7 2.3c-.5.9.3 1.9 1.2 1.4l2.4-2.1c.3.2.6-.4 1-.4h1c.5 0 1 .5 1.4.1l3.6-3.2c.4.4.9.7 1.4.7.5 0 1-.1 1.4-.5l23.6-23.5c.8-.9.8-2.1 0-2.9zm-2.4-3.8l.7.7-.7.7-.7-.7.7-.7zm-24 18.7l14.8-14.8 5.8 5.8-14.8 14.8-5.8-5.8zm5.1 6.4l-.8.8-5.8-5.8.8-.8 5.8 5.8zm10.4-21.9l.8-.8 5.8 5.8-.8.8-5.8-5.8zm-16.9 25.7l-2.1 2.1-3-3 2.1-2.1 3 3zm-4.8 2.2l-.7-.4v-1.2l-.4-.1 2.7 2.3-.4-.6h-1.2zm7.6-2.3l-1.1-1.1c-.1-.1-.2-.2-.3-.3l-3-3c-.1-.1-.2-.2-.3-.3l-1.1-1.1 2.2-2.2 5.8 5.8-2.2 2.2zm21.4-21.4l-5.8-6.5 2.2-2.9h.9v1.3l5.3 5.8-2.6 2.3zM90.5 174h-4c-.3 0-.5.2-.5.5s.2.5.5.5h4c.3 0 .5-.2.5-.5s-.3-.5-.5-.5zm-47 61.5L11 203.3c-.4-.4-.9-.6-1.5-.6-.5 0-1.1.2-1.5.6l-7.4 7.4c-.8.8-.8 2.1 0 2.9l32.5 32c.4.4.9.4 1.5.4H42c1.1 0 2.1-.5 2.1-1.7v-7.4c0-.5-.2-1-.6-1.4zM2.1 212.2c0-.1 0-.1 0 0l7.4-7.5 3.5 3.4-7.5 7.5-3.4-3.4zm31.4 30.9L6.9 217l7.5-7.5L41 235.7l-7.5 7.4zm8.6.9H35l-.1.2 7.2-6.7v6.5zM28 244H1c-.6 0-1 .4-1 1s.4 1 1 1h27c.6 0 1-.4 1-1s-.4-1-1-1zm-12.4-30.1c-.4-.4-1-.4-1.4 0-.4.4-.4 1 0 1.4l13.4 13.3c.4.4 1 .4 1.4 0 .4-.4.4-1 0-1.4l-13.4-13.3zm21.3 21.4l-4.6-4.5c-.4-.4-1-.4-1.4 0-.4.4-.4 1 0 1.4l4.6 4.5c.4.4 1 .4 1.4 0 .4-.4.4-1 0-1.4zm91.9-30.7c-.5-.8-1.4-1.2-2.3-1.2-.4 0-.8.1-1.2.3l-38.2 18.7c-.9.5-1.5 1.4-1.5 2.5s.6 2 1.5 2.4l10.1 4.9c.4.2.8.3 1.2.3.5 0 1.1-.2 1.5-.5 0 0 0 .1 0 .1.1.9.7 1.6 1.5 2l12 6.1c.4.2.8.3 1.2.3 1.1 0 2.1-.7 2.5-1.7l12-31.6c.3-1 .2-1.9-.3-2.6zm-1.5 1.8l-12 31.6c-.1.4-.5.6-.8.6-.1 0-.3 0-.4-.1l-12-6.1c-.6-.3-.7-1-.2-1.5l17.3-17.2-20.3 16.6c-.2.1-.4.2-.6.2-.1 0-.3 0-.4-.1l-10.1-4.9c-.7-.3-.7-1.3 0-1.6l38.2-18.7c.1-.1.3-.1.4-.1.7.1 1.2.7.9 1.3zm-22.6 33l-5.8-2.7c-.1-.1-.4-.1-.6-.1-.5 0-1.1.4-1.1 1v7c0 .6.6 1 1.1 1 .2 0 .4-.1.6-.2l5.9-4.3c.6-.4.6-1.3-.1-1.7zm-5.6 3.2v-3.5l2.9 1.4-2.9 2.1zM269.6 148h8c.6 0 1-.4 1-1s-.4-1-1-1h-8c-.6 0-1 .4-1 1s.5 1 1 1zm18 22h-18c-.6 0-1 .4-1 1s.4 1 1 1h18c.6 0 1-.4 1-1s-.4-1-1-1zm0-6h-18c-.6 0-1 .4-1 1s.4 1 1 1h18c.6 0 1-.4 1-1s-.4-1-1-1zm-18-22h8c.6 0 1-.4 1-1s-.4-1-1-1h-8c-.6 0-1 .4-1 1s.5 1 1 1zm13.3 13.3l-2.3 2.3-4.3-4.3c-.4-.4-1-.4-1.4 0l-6 6c-.4.4-.4 1 0 1.4.4.4 1 .4 1.4 0l5.3-5.3 5.3 5.3c.4.4 1 .4 1.4 0 .4-.4.4-1 0-1.4l-.3-.3 1.6-1.6 3.3 3.3c.4.4 1 .4 1.4 0 .4-.4.4-1 0-1.4l-4-4c-.3-.4-1-.4-1.4 0z" class="st0"/><circle cx="282.1" cy="152.5" r="1.5" class="st0"/><path d="M294.6 144.7l-10.5-10.4c-.2-.2-.4-.3-.7-.3h-17.5c-1.7 0-3 1.3-3 3v38c0 1.7 1.3 3 3 3h26c1.7 0 3-1.3 3-3v-29.6c0-.2-.1-.5-.3-.7zm-9.7-6.7l6 6h-5c-.6 0-1-.4-1-1v-5zm7 38h-26c-.6 0-1-.4-1-1v-38c0-.6.4-1 1-1h17v7c0 1.7 1.3 3 3 3h7v29c0 .6-.5 1-1 1zM22.5 66.6c-12.2 0-22 9.8-22 22s9.8 22 22 22 22-9.8 22-22-9.8-22-22-22zm0 42c-11 0-20-9-20-20s9-20 20-20 20 9 20 20-8.9 20-20 20zM25.1 84c0-1.1-.9-2-2-2s-2 .9-2 2v18c0 1.1.9 2 2 2s2-.9 2-2V84zm0-10c0-1.1-.9-2-2-2s-2 .9-2 2v2c0 1.1.9 2 2 2s2-.9 2-2v-2zm165.1 129c-5.4 1.2-9.7 5.4-11 10.7-1.2 5 .3 9.7 3.1 13 1.4 1.6 2.3 2.4 3.6 3.9 1.1 1.3 2.1 1.9 2.1 3.1v1.1c0 1 .2 1.2 1.2 1.2h8.2c1 0 2.6-.1 2.6-1.2v-1c0-1.1.6-2.1 1.6-3.3 1-1.3 1.5-2.2 2.9-3.8 2.2-2.5 3.5-5.8 3.5-9.5.1-9-8.3-16.2-17.8-14.2zm12.5 22.7c-1.5 2-5.2 5.3-5.2 6.6 0 1.3-.1 1.7-.1 1.7h-8s0-.2 0-1.5c0-1.4-3.7-5.1-5.3-7-2.5-3.2-4.2-7.2-2.7-12.1 1.5-4.5 5.4-8 10.1-8.6 7.7-1.1 14.4 4.9 14.4 12.4.1 3.3-1.4 6.1-3.2 8.5zm-4.3 12.3h-10c-.6 0-1 .4-1 1s.5 1 1 1h10c.6 0 1-.4 1-1 .1-.6-.4-1-1-1zm-1 3h-8c-.6 0-1 .4-1 1s.5 1 1 1h8c.6 0 1-.4 1-1s-.4-1-1-1zm-.9 3h-6.1c-.5 0-1 .5-1 1s.4 1 1 1h6.1c.5 0 1-.5 1-1s-.4-1-1-1zm1.5-28.8l-2.4 1.3-1.5-1.4c-.4-.4-1-.4-1.4 0l-1.5 1.5-2.4-1.2c-.4-.2-.9-.1-1.2.2-.3.3-.4.8-.1 1.2 0 .1 3.1 5.4 3.1 15 0 .6.4 1 1 1s1-.4 1-1c0-6.2-1.2-10.7-2.2-13.3l.5.2c.4.2.8.1 1.2-.2l1.3-1.3 1.3 1.2c.3.3.8.4 1.2.2l.4-.2c-.9 2.6-2 6.9-2 13.3 0 .6.4 1 1 1s1-.4 1-1c0-10.4 3-15 3-15.1.3-.4.2-.9-.1-1.2-.3-.4-.8-.4-1.2-.2zm-4.7-7.5c.5 0 1-.4 1.1-.9 0-.6-.4-1-.9-1.1-3.9-.3-8.8 2.9-10.1 6.6-.2.5.1 1.1.6 1.3.1 0 .2.1.3.1.4 0 .8-.3.9-.7 1.1-2.9 5.1-5.5 8.1-5.3zm-8.9 9.1c.1-.5-.3-1.1-.8-1.1-.6-.1-1.1.3-1.1.8-.3 1.9 0 3.7.7 5 .2.3.5.5.9.5.2 0 .3 0 .5-.1.5-.3.6-.9.4-1.4-.6-.9-.8-2.3-.6-3.7zm107.5-9.8h-5c0-1-.9-2-2-2h-1.8v-.1c0-1.1-1.1-2.9-2.2-2.9h-4c-1.1 0-1.8 1.8-1.8 2.9v.1h-2.2c-1.1 0-2 1-2 2h-5c-1.1 0-1.8 1.8-1.8 2.9v35c0 1.1.7 1.1 1.8 1.1h26c1.1 0 2.2 0 2.2-1.1v-35c0-1.1-1.1-2.9-2.2-2.9zm-18.8 2.9V207h4v-3h4v3h4v3h-12v-.1zm19 34.1h-26v-35h5v1.9c0 1.1.7 1.1 1.8 1.1h12c1.1 0 2.2 0 2.2-1.1V209h5v35zm-16-8h4v4h-4zm8.4-17.2c-1.4-1.2-3.3-1.8-5.7-1.8-2.2 0-4.1.6-5.5 1.7-1.4 1.1-2.1 2.5-2 4.5v-.1h4.6c0-1 .3-1.4.9-1.9.6-.5 1.2-.6 2-.6 1 0 1.7.3 2.2.9.5.6.8 1.4.8 2.4 0 .9-.2 1.7-.7 2.4-.5.7-1.1 1.4-1.8 2-1.3 1-2.2 1.3-2.6 2-.4.7-.7 1.7-.7 2.7h4.7s.1-1 .3-1.5c.2-.5.6-.7 1.3-1.2 1.2-.8 2.2-1.6 3-2.8.8-1.2 1.2-2.4 1.2-3.7.1-2.2-.6-3.8-2-5zM196.1 176h-19.8c-1.6 0-3.2-1.1-3.2-2.8V170h19.1c.6 0 1.2-.4 1.2-1.1 0-.5-.5-.8-.9-.8h-11.3V136h18.3c1.1 0 2 1 2 2.1v17.1c0 .5.4 1 1 1s1-.4 1-1v-17.1c0-2.2-1.8-4.1-4-4.1h-24c-2.2 0-4.3 2-4.3 4.2v35c0 2.8 2.5 4.8 5.2 4.8h19.8c.9 0 .9-2-.1-2zm-20.7-40h2.7v32.2h-4.9l.1-30.1c0-1.1 1-2.1 2.1-2.1zm1.5 36c-.6 0-1 .4-1 1s.4 1 1 1h15.5c.6 0 1-.4 1-1s-.4-1-1-1h-15.5zm28.5-13.8c-5.5 0-10 4.5-10 10s4.5 10 10 10 10-4.5 10-10-4.5-10-10-10zm0 18c-4.4 0-8-3.6-8-8s3.6-8 8-8 8 3.6 8 8-3.6 8-8 8zm3-9.2h-2.3v-1.8c0-.6-.4-1-1-1s-1 .4-1 1v1.8h-1.7c-.6 0-1 .4-1 1s.4 1 1 1h1.7v2.2c0 .6.4 1 1 1s1-.4 1-1V169h2.3c.6 0 1-.4 1-1s-.5-1-1-1zm84.4-153h-3.7V4.4c0-1.1-1.2-2.4-2.3-2.4h-18c0-1-.9-2-2-2h-2c-1.1 0-1.7 1.3-1.7 2.4v40c0 1.1.6 1.6 1.7 1.6h2c1.1 0 2.3-.5 2.3-1.6V21h7v8.4c0 .1-.3-.4-.3-.4.1 2 1.6 4 4 4h13c1.1 0 2.3-.5 2.3-1.6v-15c0-1.1-1.2-2.4-2.3-2.4zm-25.7 7.4V42h-2V2h2v19.4zm8.7-2.4h-6.7V4.4h18c0 .3 0 5.2 0 10V20c-1-.5-1.6-1-2.3-1h-9zm11 4c-.1 1-.7 2-2 2-.7 0-5 0-5.5 0-.4 0-1.1.8-1.1 1.5V21c4 0 6.5 0 6.6 0 1.1 0 1.8 1.1 2 2zm6.3 8s-12 0-13.4 0c-1.2 0-2-1-2-2 0 0 0 .2 0 .2v.2c0-.8.7-1.9 2-1.9 0 0 0-.2 0-.2s0-.2 0-.2h4.9c2.4 0 4.1-1.8 4.2-3.8l.2.2V16h4v15zm-88.6 56.8c-.2.2-.3.4-.3.7v18.6c0 .3-.1.5-.3.7-.2.2-1 .3-1.3.3H174c-.5 0-1-.4-1-1V78c0-.5.4-1 1-1h18.7c.3 0 .5-.1.7-.3.6-.6.1-1.7-.7-1.7H174c-1.6 0-2.9 1.3-2.9 2.9V109c0 .5.4 1 1 1h30.5c1.3 0 3.5 0 3.5-2V88.5c0-.9-1-1.3-1.6-.7zm10.2-16.3l-5.1-5.1c-.3-.3-.6-.4-1-.4s-.7.1-1 .4L185.5 89c-.3.3-.4.6-.4 1v4.6c0 .8.6 1.4 1.4 1.4h4.6c.4 0 .7-.1 1-.4l22.6-22.1c.6-.5.6-1.4 0-2zM187.1 94v-3l2.9 3h-2.9zm4.9-.9l-4-4 16.6-16.9 4.3 4.3L192 93.1zm18.3-18l-4.3-4.3 2.6-2.6 4.3 4.3-2.6 2.6zM181 95h-4.9c-.5 0-1 .5-1 1s.4 1 1 1h4.9c.5 0 1-.5 1-1s-.4-1-1-1zm0-4h-4.9c-.5 0-1 .5-1 1s.4 1 1 1h4.9c.5 0 1-.5 1-1s-.4-1-1-1zm2-3c0-.5-.4-1-1-1h-5.9c-.5 0-1 .5-1 1s.4 1 1 1h5.9c.5 0 1-.5 1-1zm4.1-4c0-.5-.4-1-1-1h-9.8c-.5 0-1 .5-1 1s.4 1 1 1h9.8c.6 0 1-.5 1-1zm2.8-4c0-.5-.4-1-.9-1h-12.8c-.5 0-1 .5-1 1s.4 1 1 1H189c.5 0 .9-.5.9-1zm-167 54.4c-12.1 0-22 9.9-22 22s9.9 22 22 22 22-9.9 22-22-9.9-22-22-22zM42.8 156h-10c-.2-2-1-4.1-2.2-5.6l7.1-6.9c3 3.3 4.9 7.5 5.1 12.5zm-36.6 2c.1 2 .5 3.6 1.3 5.4.1.2.3.1.5.1.1 0 .1-.1.2-.1.3-.1.4-.1.3-.4-.7-1.7-1.1-3-1.3-5h5.7c.2 2 1 3.6 2.2 5.1L8 170.3C5 167 3.1 162 2.8 158h3.4zm10 6.2c1.5 1.2 3 2 5 2.2v10c-4-.2-8.9-2.1-12.2-5.1l7.2-7.1zm6.9 2.1c2-.2 4.2-1 5.7-2.2l6.9 7.1c-3.3 3-7.6 4.9-12.6 5.2v-10.1zm.2-1.3h-.8c-1.7 0-3.5-1-4.8-2l-1.6-1.6v.1c-1-1.1-1-2.5-1.2-3.5h-.8v-2h.8c.2-2 .8-3.2 1.7-4.4l1.1-1.3c1.4-1.1 3.2-1.9 5.1-1.9 4.4 0 8 3.9 8 8.3.1 4.3-3.3 7.3-7.5 8.3zm-3-25.1c-3.2.5-6.1 1.9-8.4 4l-2.8-2.3c3.3-3 8-4.9 12-5.1v10c-2 .2-3.4 1-4.9 2.2l-3.8-4c2.2-1.9 5-3.2 8-3.7.3 0 .5-.3.5-.6-.1-.4-.3-.5-.6-.5zm8.5 8.8c-1.5-1.2-3.7-2-5.7-2.2v-10c5 .3 9.3 2.2 12.6 5.2l-6.9 7zm-20.7-5.4l2.3 2.2c-1.2 1.4-2.2 2.9-3 4.6-.1.3 0 .5.3.6.1 0 .1 0 .2 0 .2 0 .4-.1.5-.3.7-1.6 1.6-3.1 2.8-4.4l4 4.3c-1.2 1.5-2 3.7-2.3 5.7H7.2c0-1 .1-1.7.2-2.3.1-.3-.1-.7-.4-.7-.3-.1-.5.4-.6.6-.1.7-.2 1.4-.3 2.4H2.9c.3-5 2.2-9.4 5.2-12.7zm29.6 26.8l-7.1-6.9c1.2-1.5 2-3.1 2.2-5.1h10c-.2 3.9-2.1 8.6-5.1 12z" class="st0"/></svg>