<?xml version="1.0" encoding="utf-8"?>
<!-- Generator: Adobe Illustrator 18.0.0, SVG Export Plug-In . SVG Version: 6.00 Build 0)  -->
<!DOCTYPE svg PUBLIC "-//W3C//DTD SVG 1.1//EN" "http://www.w3.org/Graphics/SVG/1.1/DTD/svg11.dtd">
<svg version="1.1" id="Calque_1" xmlns="http://www.w3.org/2000/svg" xmlns:xlink="http://www.w3.org/1999/xlink" x="0px" y="0px"
	 viewBox="0 0 301.1 246" style="enable-background:new 0 0 301.1 246;" xml:space="preserve">
<style type="text/css">
	.st0{fill:#FFFFFF;}
</style>
<g>
	<path class="st0" d="M37.7,38.1c-0.6,0-1.1,0.5-1.1,1.1v1.1c0,1.1-0.9,2-2,2h-23c-1.7,0-3-1.3-3-3l0-3h26c2.2,0,4-1.8,4-4v-28
		c0-2.2-1.8-4-4-4h-19h-2h-3c-2.2,0-4,1.8-4,4v32l0,0v4c0,2.2,1.8,4,4,4h23.9c2.3,0,4.1-1.9,4.1-4.2V39
		C38.5,38.5,38.1,38.1,37.7,38.1z M34.6,2.3c1.1,0,2,0.6,2,1.7l0,28.3c0,1.1-0.9,2-2,2l-19.1,0l0-32H34.6z M8.5,4.3c0-1.1,0.9-2,2-2
		h3v32l-5,0V4.3z"/>
	<polygon class="st0" points="37.7,38.1 37.7,38.1 37.7,38.1 	"/>
	<path class="st0" d="M11.5,38.3c-0.6,0-1,0.4-1,1c0,0.6,0.4,1,1,1l22,0c0.6,0,1-0.4,1-1c0-0.6-0.4-1-1-1H11.5z"/>
</g>
<g>
	<circle class="st0" cx="194.2" cy="39.1" r="2"/>
	<path class="st0" d="M203.2,0h-17.9c-2.2,0-4.2,2.9-4.2,5.1V6h-0.4c-0.3,0-0.6,1.4-0.6,1.6v1c0,0.3,0.3-0.6,0.6-0.6h0.4v2h-0.4
		c-0.3,0-0.6,1.4-0.6,1.6v3c0,0.3,0.3-0.6,0.6-0.6h0.4v2h-0.4c-0.3,0-0.6,1.4-0.6,1.6v3c0,0.3,0.3-0.6,0.6-0.6h0.4v13.1v2v6
		c0,2.2,2,2.9,4.2,2.9h17.9c2.2,0,3.9-0.7,3.9-2.9v-6v-2v-28C207.1,2.9,205.4,0,203.2,0z M205.1,41.1c0,1.1-0.8,0.9-1.9,0.9h-18
		c-1.1,0-2.1,0.2-2.1-0.9V34h22V41.1z M205.1,32h-22V7h22V32z M205.1,5h-22v0.1c0-1.1,1.1-3.1,2.2-3.1h17.9c1.1,0,1.9,2,1.9,3.1V5z"
		/>
	<path class="st0" d="M200.7,3h-13c-0.3,0-0.5,0.2-0.5,0.5c0,0.3,0.2,0.5,0.5,0.5h13c0.3,0,0.5-0.2,0.5-0.5C201.2,3.2,201,3,200.7,3
		z"/>
	<path class="st0" d="M187.7,11h13c0.3,0,0.5-0.2,0.5-0.5c0-0.3-0.2-0.5-0.5-0.5h-13c-0.3,0-0.5,0.2-0.5,0.5
		C187.2,10.8,187.4,11,187.7,11z"/>
	<path class="st0" d="M187.7,14h13c0.3,0,0.5-0.2,0.5-0.5c0-0.3-0.2-0.5-0.5-0.5h-13c-0.3,0-0.5,0.2-0.5,0.5
		C187.2,13.8,187.4,14,187.7,14z"/>
	<path class="st0" d="M187.7,17h13c0.3,0,0.5-0.2,0.5-0.5c0-0.3-0.2-0.5-0.5-0.5h-13c-0.3,0-0.5,0.2-0.5,0.5
		C187.2,16.8,187.4,17,187.7,17z"/>
	<path class="st0" d="M187.7,20h13c0.3,0,0.5-0.2,0.5-0.5c0-0.3-0.2-0.5-0.5-0.5h-13c-0.3,0-0.5,0.2-0.5,0.5
		C187.2,19.8,187.4,20,187.7,20z"/>
	<path class="st0" d="M187.7,23h13c0.3,0,0.5-0.2,0.5-0.5c0-0.3-0.2-0.5-0.5-0.5h-13c-0.3,0-0.5,0.2-0.5,0.5
		C187.2,22.8,187.4,23,187.7,23z"/>
	<path class="st0" d="M187.7,26h13c0.3,0,0.5-0.2,0.5-0.5c0-0.3-0.2-0.5-0.5-0.5h-13c-0.3,0-0.5,0.2-0.5,0.5
		C187.2,25.8,187.4,26,187.7,26z"/>
	<path class="st0" d="M187.7,29h13c0.3,0,0.5-0.2,0.5-0.5c0-0.3-0.2-0.5-0.5-0.5h-13c-0.3,0-0.5,0.2-0.5,0.5
		C187.2,28.8,187.4,29,187.7,29z"/>
</g>
<g>
	<path class="st0" d="M117.9,39.9c3.1-3.8,6.1-12.7,6.1-18.8c0-6.9-4.9-11-8.9-11v-1v-1v-1c2,0,2.9-1.9,2.9-3.6S116.6,0,114.9,0h-14
		C99.3,0,98,1.9,98,3.6s1.1,3.6,3.1,3.6v1v1v1v0c-4,0.1-9.1,4.3-9.1,11c0,6.1,2.8,15,6,18.8c-0.6,0.5-1,0.8-1,1.7
		c0,1.7,1.3,2.4,3,2.4h16c1.6,0,3-0.8,3-2.4c0-0.8-0.3-1.3-0.9-1.9C118,39.7,118,39.9,117.9,39.9z M96.4,28.7
		c0.7,0.5,1.4,1.1,2.5,1.1c1.1,0,1.8-0.6,2.4-1.1c0.6-0.5,1.1-1,2.1-1c0.8,0,1.4,0.4,2.1,0.9c0.7,0.5,1.5,1.1,2.7,1.1
		c1.1,0,2-0.6,2.8-1.1c0.8-0.5,1.5-1,2.4-1c0.8,0,1.4,0.4,2,0.9c0.7,0.5,1.4,1.2,2.6,1.2c1.2,0,2.2-0.6,2.9-1.2c0,0,0.1,0,0.1,0
		c-0.5,2-0.8,3.9-1.8,5.6V33H96.9c-0.8-2-1.6-3.6-2.1-5.8C95.4,27.4,95.9,28.3,96.4,28.7z M94.6,26.7c-0.3-1.4-0.5-2.8-0.6-4.1
		c1,0,1.7,0.5,2.4,1c0.7,0.5,1.4,1.1,2.5,1.1c1.1,0,1.8-0.6,2.4-1.1c0.6-0.5,1.1-1,2.1-1c0.8,0,1.4,0.4,2.1,0.9
		c0.7,0.5,1.5,1.1,2.7,1.1c1.3,0,2.2-0.6,2.9-1.2c0.7-0.5,1.3-0.9,2.2-0.9c1,0,1.5,0.5,2.1,1c0.6,0.5,1.3,1.1,2.4,1.1
		c1.2,0,2.2-0.6,2.9-1.2c0.3-0.3,0.7-0.5,1-0.7c-0.1,1.3-0.3,2.7-0.6,4.1c-0.5,0.2-0.7,0.5-1,0.8c-0.6,0.5-1.4,1-2.3,1
		c-0.8,0-1.4-0.4-2-0.9c-0.7-0.5-1.4-1.2-2.6-1.2c-1.2,0-2.1,0.6-2.9,1.1c-0.7,0.5-1.5,0.9-2.3,0.9c-0.8,0-1.4-0.4-2.1-0.9
		c-0.7-0.5-1.5-1.1-2.7-1.1c-1.3,0-2.1,0.6-2.7,1.2c-0.6,0.5-1,0.9-1.8,0.9c-0.7,0-1.3-0.4-1.9-0.9C96.4,27.4,95.4,26.9,94.6,26.7z
		 M118.5,34c-0.2,0-0.3,1-0.5,1H98.1v1.2c0-0.4-0.6-2.2-0.8-2.2H118.5z M117.4,36c-0.5,1-1,1-1.5,2h-16c-0.5-1-1-1-1.5-2H117.4z
		 M99.9,3c0-0.6,0.4-1,1-1h14c0.6,0,1,0.4,1,1s-0.4,1-1,1h-2h-10h-2C100.4,4,99.9,3.6,99.9,3z M103.1,6h10v1h-10V6z M113.1,8v1h-10
		V8H113.1z M101.1,11h1.8h10h2c2.2,0,4.8,2.1,6.2,5.2c-0.6,0.2-1,0.9-1.4,1.3c-0.6,0.5-0.9,1.1-1.8,1.1c-0.8,0-1.2-0.3-1.7-0.8
		c-0.6-0.6-1.4-1.2-2.9-1.2c-1.4,0-2.1,0.6-2.8,1.1c-0.7,0.5-1.2,1-2.4,1c-0.8,0-1.4-0.4-2.1-0.9c-0.7-0.5-1.5-1.1-2.7-1.1
		c-1.3,0-2.1,0.6-2.7,1.2c-0.6,0.5-1,0.9-1.8,0.9c-0.7,0-1.3-0.4-1.9-0.9c-0.6-0.4-1.4-1.4-2.2-1.7C96.2,13.2,98.8,11,101.1,11z
		 M94.5,17.7c0.7,0.1,1.4,0.5,2,1c0.7,0.5,1.4,1.1,2.5,1.1c1.1,0,1.8-0.6,2.4-1.1c0.6-0.5,1.1-1,2.1-1c0.8,0,1.4,0.4,2.1,0.9
		c0.7,0.5,1.5,1.1,2.7,1.1c1.5,0,2.3-0.6,3-1.2c0.6-0.5,1.2-0.9,2.2-0.9c1.1,0,1.6,0.5,2.2,1c0.6,0.5,1.2,1.1,2.3,1.1
		c1.2,0,1.8-0.6,2.4-1.2c0.3-0.3,0.8-0.5,1.1-0.7c0.3,1,0.5,2.1,0.5,3.3c0,0.2,0,0.4,0,0.6c-1,0.2-1.2,0.6-1.7,1
		c-0.6,0.5-1.4,1-2.3,1c-0.8,0-1.2-0.4-1.8-0.9c-0.7-0.6-1.4-1.2-2.8-1.2c-1.3,0-2.1,0.6-2.8,1.1c-0.7,0.5-1.3,1-2.4,1
		c-0.8,0-1.4-0.4-2.1-0.9c-0.7-0.5-1.5-1.1-2.7-1.1c-1.3,0-2.1,0.6-2.7,1.2c-0.6,0.5-1,0.9-1.8,0.9c-0.7,0-1.3-0.4-1.9-0.9
		c-0.8-0.6-2.1-1.2-3.1-1.2c0-0.2,0-0.3,0-0.5C93.9,19.8,94.1,18.7,94.5,17.7z M115.9,42h-16c-0.6,0-1-0.4-1-1s0.4-1,1-1h0h16h0
		c0.6,0,1,0.5,1,1C116.9,41.6,116.5,42,115.9,42z"/>
</g>
<g>
	<path class="st0" d="M127.1,84.5l-2.6-0.5c-0.1-0.4-0.3-0.9-0.4-1.3l1.8-2.2c1.2-1.4,1.1-3.5-0.1-4.8l-1.6-1.8
		c-0.7-0.8-1.7-1.3-2.8-1.3c-0.7,0-1.4,0.2-2,0.6l-2.3,1.5c-1-0.6-2.1-1.1-3.2-1.5l-0.5-2.9c-0.3-1.8-1.9-3.3-3.7-3.3h-2.4
		c-1.8,0-3.4,1.5-3.7,3.3l-0.5,2.8c-0.8,0.3-1.6,0.6-2.3,1l-2.2-1.5c-0.6-0.5-1.4-0.7-2.2-0.7c-1,0-1.9,0.4-2.7,1.1l-1.7,1.7
		c-1.3,1.3-1.5,3.3-0.4,4.8l1.6,2.2c-0.4,0.7-0.7,1.5-0.9,2.3l-2.9,0.5c-1.8,0.3-3.3,1.9-3.3,3.7v2.4c0,1.8,1.5,3.4,3.3,3.7l2.8,0.5
		c0.2,0.5,0.4,1,0.6,1.5l-1.7,2.1c-1.2,1.4-1.1,3.5,0.1,4.8l1.6,1.8c0.7,0.8,1.7,1.3,2.8,1.3c0.7,0,1.4-0.2,2-0.6l2.4-1.5
		c1,0.6,2,1,3.1,1.4l0.5,2.6c0.3,1.8,1.8,2.9,3.7,2.9h2.4c1.8,0,3.4-1.1,3.7-2.9l0.5-2.6c0.8-0.3,1.5-0.5,2.3-0.9l2.3,1.7
		c0.6,0.5,1.4,0.7,2.2,0.7c1,0,1.9-0.4,2.7-1.1l1.7-1.7c1.3-1.3,1.5-3.3,0.4-4.8l-1.7-2.3c0.4-0.7,0.7-1.5,0.9-2.3l2.6-0.5
		c1.8-0.3,3-1.9,3-3.7v-2.4C130.1,86.4,129,84.8,127.1,84.5z M128.1,90.6c0,0.9-0.5,1.6-1.3,1.7l-3.9,0.7c-0.4,1.5-0.9,2.9-1.7,4.2
		l2.4,3.4c0.5,0.7,0.4,1.6-0.2,2.3l-1.7,1.7c-0.3,0.3-0.8,0.5-1.2,0.5c-0.4,0-0.7-0.1-1-0.3l-3.4-2.4c-1.3,0.8-2.7,1.4-4.2,1.7
		l-0.7,3.8c-0.1,0.8-0.9,1.3-1.7,1.3h-2.4c-0.9,0-1.6-0.4-1.7-1.3l-0.7-3.9c-1.8-0.4-3.4-1.1-4.9-2.1l-3.4,2.2
		c-0.3,0.2-0.6,0.3-0.9,0.3c-0.5,0-1-0.2-1.3-0.6l-1.6-1.8c-0.6-0.6-0.6-1.6-0.1-2.3l2.5-3.1c-0.6-1.1-1-2.3-1.3-3.5l-4.2-0.7
		c-0.8-0.1-1.6-0.9-1.6-1.7v-2.4c0-0.9,0.8-1.6,1.6-1.7l4.1-0.7c0.4-1.5,1-2.9,1.8-4.2l-2.3-3.2c-0.5-0.7-0.4-1.6,0.2-2.3l1.7-1.7
		c0.3-0.3,0.8-0.5,1.2-0.5c0.4,0,0.7,0.1,1,0.3l3.2,2.3c1.3-0.8,2.7-1.4,4.2-1.7l0.7-4.2c0.1-0.8,0.9-1.7,1.7-1.7h2.4
		c0.9,0,1.6,0.8,1.7,1.7l0.7,4.1c1.8,0.4,3.5,1.3,5,2.3l3.4-2.1c0.3-0.2,0.6-0.3,0.9-0.3c0.5,0,1,0.2,1.3,0.6l1.6,1.8
		c0.6,0.6,0.6,1.6,0.1,2.3l-2.5,3.1c0.5,1,1,2.2,1.3,3.4l3.8,0.7c0.8,0.1,1.3,0.9,1.3,1.7V90.6z"/>
	<path class="st0" d="M108.5,81.9c-4.1,0-7.5,3.4-7.5,7.5c0,4.1,3.4,7.5,7.5,7.5c4.1,0,7.5-3.4,7.5-7.5
		C116,85.2,112.7,81.9,108.5,81.9z M108.5,94.9c-3,0-5.5-2.5-5.5-5.5c0-3,2.5-5.5,5.5-5.5s5.5,2.5,5.5,5.5
		C114,92.4,111.5,94.9,108.5,94.9z"/>
</g>
<g>
	<path class="st0" d="M298.9,67h-40c-1.1,0-1.8,2-1.8,3.1v5v2v33c0,1.1,0.7,0.9,1.8,0.9h29h1l12.2-10.9v-1v-22v-2v-5
		C301.1,69,300,67,298.9,67z M290.1,108.3V100h6.9L290.1,108.3z M299.1,98h-9.2c-1.1,0-1.8,2-1.8,3.1v7.9h-29V76h40V98z M299.1,74
		h-40v-5h40V74z"/>
	<path class="st0" d="M263.9,82h30c0.6,0,1-0.4,1-1c0-0.6-0.4-1-1-1h-30c-0.6,0-1,0.4-1,1C262.9,81.6,263.3,82,263.9,82z"/>
	<path class="st0" d="M263.9,88h28c0.6,0,1-0.4,1-1c0-0.6-0.4-1-1-1h-28c-0.6,0-1,0.4-1,1C262.9,87.6,263.3,88,263.9,88z"/>
	<path class="st0" d="M263.9,94h30c0.6,0,1-0.4,1-1c0-0.6-0.4-1-1-1h-30c-0.6,0-1,0.4-1,1C262.9,93.6,263.3,94,263.9,94z"/>
	<path class="st0" d="M263.9,100h19c0.6,0,1-0.4,1-1c0-0.6-0.4-1-1-1h-19c-0.6,0-1,0.4-1,1C262.9,99.6,263.3,100,263.9,100z"/>
	<path class="st0" d="M263.9,106h17c0.6,0,1-0.4,1-1c0-0.6-0.4-1-1-1h-17c-0.6,0-1,0.4-1,1C262.9,105.6,263.3,106,263.9,106z"/>
</g>
<g>
	<path class="st0" d="M129.4,144.7l-1-1c0,0,0,0,0,0l0.7-0.7c0.8-0.8,0.8-2,0-2.8l-0.7-0.7c-0.4-0.4-0.9-0.6-1.4-0.6s-1,0.2-1.4,0.6
		l-0.7,0.7c0,0,0,0,0,0l-1.2-1.2c-0.4-0.4-0.9-0.6-1.4-0.6s-1,0.2-1.4,0.6l-1.1,1.1l-0.8-0.8l1.8-1.8c0.4-0.4,0.4-1,0-1.4
		c-0.4-0.4-1-0.4-1.4,0l-12.6,12.6c-0.4,0.4-0.4,1,0,1.4c0.4,0.4,1,0.4,1.4,0l6.4-6.4l0.8,0.8l-18.1,18.1c-0.8,0.8-0.8,2,0,2.8
		l-3,3.6c-0.4,0.4,0,0.9,0,1.4v1.2c0,0.4-0.4,0.8-0.2,1.2l-1.7,2.3c-0.5,0.9,0.3,1.9,1.2,1.4l2.4-2.1c0.3,0.2,0.6-0.4,1-0.4H98
		c0.5,0,1,0.5,1.4,0.1l3.6-3.2c0.4,0.4,0.9,0.7,1.4,0.7c0.5,0,1-0.1,1.4-0.5l23.6-23.5C130.2,146.7,130.2,145.5,129.4,144.7z
		 M127,140.9L127,140.9L127,140.9l0.7,0.7l-0.7,0.7l-0.7-0.7L127,140.9z M103,159.6l14.8-14.8l5.8,5.8l-14.8,14.8L103,159.6z
		 M108.1,166l-0.8,0.8l-5.8-5.8l0.8-0.8L108.1,166z M118.5,144.1l0.8-0.8l5.8,5.8l-0.8,0.8L118.5,144.1z M101.6,169.8l-2.1,2.1l-3-3
		l2.1-2.1L101.6,169.8z M96.8,172l-0.7-0.4v-1.2l-0.4-0.1l2.7,2.3L98,172H96.8z M104.4,169.7l-1.1-1.1c-0.1-0.1-0.2-0.2-0.3-0.3
		l-3-3c-0.1-0.1-0.2-0.2-0.3-0.3l-1.1-1.1l2.2-2.2l5.8,5.8L104.4,169.7z M125.8,148.3l-5.8-6.5l2.2-2.9h0.9v1.3l5.3,5.8L125.8,148.3
		z"/>
	<path class="st0" d="M90.5,174h-4c-0.3,0-0.5,0.2-0.5,0.5s0.2,0.5,0.5,0.5h4c0.3,0,0.5-0.2,0.5-0.5S90.7,174,90.5,174z"/>
</g>
<g>
	<path class="st0" d="M43.5,235.5L11,203.3c-0.4-0.4-0.9-0.6-1.5-0.6c-0.5,0-1.1,0.2-1.5,0.6l-7.4,7.4c-0.8,0.8-0.8,2.1,0,2.9
		l32.5,32c0.4,0.4,0.9,0.4,1.5,0.4H42c1.1,0,2.1-0.5,2.1-1.7v-7.4C44.1,236.4,43.9,235.9,43.5,235.5z M2.1,212.2
		C2.1,212.1,2.1,212.1,2.1,212.2l7.4-7.5c0,0,0,0,0,0l0,0l3.5,3.4l-7.5,7.5L2.1,212.2z M33.5,243.1L6.9,217l7.5-7.5L41,235.7
		L33.5,243.1z M42.1,244H35l-0.1,0.2l7.2-6.7V244z"/>
	<path class="st0" d="M28,244H1c-0.6,0-1,0.4-1,1c0,0.6,0.4,1,1,1h27c0.6,0,1-0.4,1-1C29,244.4,28.6,244,28,244z"/>
	<path class="st0" d="M15.6,213.9c-0.4-0.4-1-0.4-1.4,0c-0.4,0.4-0.4,1,0,1.4l13.4,13.3c0.4,0.4,1,0.4,1.4,0c0.4-0.4,0.4-1,0-1.4
		L15.6,213.9z"/>
	<path class="st0" d="M36.9,235.3l-4.6-4.5c-0.4-0.4-1-0.4-1.4,0c-0.4,0.4-0.4,1,0,1.4l4.6,4.5c0.4,0.4,1,0.4,1.4,0
		C37.3,236.3,37.3,235.7,36.9,235.3z"/>
</g>
<g>
	<path class="st0" d="M128.8,204.6c-0.5-0.8-1.4-1.2-2.3-1.2h0c-0.4,0-0.8,0.1-1.2,0.3l-38.2,18.7c-0.9,0.5-1.5,1.4-1.5,2.5
		c0,1.1,0.6,2,1.5,2.4l10.1,4.9c0.4,0.2,0.8,0.3,1.2,0.3c0.5,0,1.1-0.2,1.5-0.5c0,0,0,0.1,0,0.1c0.1,0.9,0.7,1.6,1.5,2l12,6.1
		c0.4,0.2,0.8,0.3,1.2,0.3c1.1,0,2.1-0.7,2.5-1.7l12-31.6C129.4,206.2,129.3,205.3,128.8,204.6z M127.3,206.4l-12,31.6
		c-0.1,0.4-0.5,0.6-0.8,0.6c-0.1,0-0.3,0-0.4-0.1l-12-6.1c-0.6-0.3-0.7-1-0.2-1.5l17.3-17.2l-20.3,16.6c-0.2,0.1-0.4,0.2-0.6,0.2
		c-0.1,0-0.3,0-0.4-0.1l-10.1-4.9c-0.7-0.3-0.7-1.3,0-1.6l38.2-18.7c0.1-0.1,0.3-0.1,0.4-0.1C127.1,205.2,127.6,205.8,127.3,206.4z"
		/>
	<path class="st0" d="M104.7,239.4l-5.8-2.7c-0.1-0.1-0.4-0.1-0.6-0.1c-0.5,0-1.1,0.4-1.1,1v7c0,0.6,0.6,1,1.1,1
		c0.2,0,0.4-0.1,0.6-0.2l5.9-4.3C105.4,240.7,105.4,239.8,104.7,239.4z M99.1,242.6v-3.5l2.9,1.4L99.1,242.6z"/>
</g>
<g>
	<path class="st0" d="M269.6,148h8c0.6,0,1-0.4,1-1c0-0.6-0.4-1-1-1h-8c-0.6,0-1,0.4-1,1C268.6,147.6,269.1,148,269.6,148z"/>
	<path class="st0" d="M287.6,170h-18c-0.6,0-1,0.4-1,1c0,0.6,0.4,1,1,1h18c0.6,0,1-0.4,1-1C288.6,170.4,288.2,170,287.6,170z"/>
	<path class="st0" d="M287.6,164h-18c-0.6,0-1,0.4-1,1c0,0.6,0.4,1,1,1h18c0.6,0,1-0.4,1-1C288.6,164.4,288.2,164,287.6,164z"/>
	<path class="st0" d="M269.6,142h8c0.6,0,1-0.4,1-1c0-0.6-0.4-1-1-1h-8c-0.6,0-1,0.4-1,1C268.6,141.6,269.1,142,269.6,142z"/>
	<path class="st0" d="M282.9,155.3l-2.3,2.3l-4.3-4.3c-0.4-0.4-1-0.4-1.4,0l-6,6c-0.4,0.4-0.4,1,0,1.4h0c0.4,0.4,1,0.4,1.4,0
		l5.3-5.3l5.3,5.3c0.4,0.4,1,0.4,1.4,0c0.4-0.4,0.4-1,0-1.4l-0.3-0.3l1.6-1.6l3.3,3.3c0.4,0.4,1,0.4,1.4,0c0.4-0.4,0.4-1,0-1.4l-4-4
		C284,154.9,283.3,154.9,282.9,155.3z"/>
	<circle class="st0" cx="282.1" cy="152.5" r="1.5"/>
	<path class="st0" d="M294.6,144.7l-10.5-10.4c-0.2-0.2-0.4-0.3-0.7-0.3h-17.5c-1.7,0-3,1.3-3,3v38c0,1.7,1.3,3,3,3h26
		c1.7,0,3-1.3,3-3v-29.6C294.9,145.2,294.8,144.9,294.6,144.7z M284.9,138l6,6h-5c-0.6,0-1-0.4-1-1V138z M291.9,176h-26
		c-0.6,0-1-0.4-1-1v-38c0-0.6,0.4-1,1-1h17v7c0,1.7,1.3,3,3,3h7v29C292.9,175.6,292.4,176,291.9,176z"/>
</g>
<g>
	<path class="st0" d="M22.5,66.6c-12.2,0-22,9.8-22,22s9.8,22,22,22s22-9.8,22-22S34.7,66.6,22.5,66.6z M22.5,108.6
		c-11,0-20-9-20-20s9-20,20-20s20,9,20,20S33.6,108.6,22.5,108.6z"/>
	<path class="st0" d="M25.1,84c0-1.1-0.9-2-2-2l0,0c-1.1,0-2,0.9-2,2v18c0,1.1,0.9,2,2,2l0,0c1.1,0,2-0.9,2-2V84z"/>
	<path class="st0" d="M25.1,74c0-1.1-0.9-2-2-2h0c-1.1,0-2,0.9-2,2v2c0,1.1,0.9,2,2,2h0c1.1,0,2-0.9,2-2V74z"/>
</g>
<g>
	<path class="st0" d="M190.2,203c-5.4,1.2-9.7,5.4-11,10.7c-1.2,5,0.3,9.7,3.1,13c1.4,1.6,2.3,2.4,3.6,3.9c1.1,1.3,2.1,1.9,2.1,3.1
		v1.1c0,1,0.2,1.2,1.2,1.2h8.2c1,0,2.6-0.1,2.6-1.2v-1c0-1.1,0.6-2.1,1.6-3.3c1-1.3,1.5-2.2,2.9-3.8c2.2-2.5,3.5-5.8,3.5-9.5
		C208.1,208.2,199.7,201,190.2,203z M202.7,225.7c-1.5,2-5.2,5.3-5.2,6.6c0,1.3-0.1,1.7-0.1,1.7h-8c0,0,0-0.2,0-1.5
		c0-1.4-3.7-5.1-5.3-7c-2.5-3.2-4.2-7.2-2.7-12.1c1.5-4.5,5.4-8,10.1-8.6c7.7-1.1,14.4,4.9,14.4,12.4
		C206,220.5,204.5,223.3,202.7,225.7z"/>
	<path class="st0" d="M198.4,238h-10c-0.6,0-1,0.4-1,1c0,0.6,0.5,1,1,1h10c0.6,0,1-0.4,1-1C199.5,238.4,199,238,198.4,238z"/>
	<path class="st0" d="M197.4,241h-8c-0.6,0-1,0.4-1,1c0,0.6,0.5,1,1,1h8c0.6,0,1-0.4,1-1C198.4,241.4,198,241,197.4,241z"/>
	<path class="st0" d="M196.5,244h-6.1c-0.5,0-1,0.5-1,1c0,0.5,0.4,1,1,1h6.1c0.5,0,1-0.5,1-1C197.5,244.5,197.1,244,196.5,244z"/>
	<path class="st0" d="M198,215.2l-2.4,1.3l-1.5-1.4c-0.4-0.4-1-0.4-1.4,0l-1.5,1.5l-2.4-1.2c-0.4-0.2-0.9-0.1-1.2,0.2
		c-0.3,0.3-0.4,0.8-0.1,1.2c0,0.1,3.1,5.4,3.1,15c0,0.6,0.4,1,1,1s1-0.4,1-1c0-6.2-1.2-10.7-2.2-13.3l0.5,0.2
		c0.4,0.2,0.8,0.1,1.2-0.2l1.3-1.3l1.3,1.2c0.3,0.3,0.8,0.4,1.2,0.2l0.4-0.2c-0.9,2.6-2,6.9-2,13.3c0,0.6,0.4,1,1,1s1-0.4,1-1
		c0-10.4,3-15,3-15.1c0.3-0.4,0.2-0.9-0.1-1.2C198.9,215,198.4,215,198,215.2z"/>
	<path class="st0" d="M193.3,207.7c0.5,0,1-0.4,1.1-0.9c0-0.6-0.4-1-0.9-1.1c-3.9-0.3-8.8,2.9-10.1,6.6c-0.2,0.5,0.1,1.1,0.6,1.3
		c0.1,0,0.2,0.1,0.3,0.1c0.4,0,0.8-0.3,0.9-0.7C186.3,210.1,190.3,207.5,193.3,207.7z"/>
	<path class="st0" d="M184.4,216.8c0.1-0.5-0.3-1.1-0.8-1.1c-0.6-0.1-1.1,0.3-1.1,0.8c-0.3,1.9,0,3.7,0.7,5c0.2,0.3,0.5,0.5,0.9,0.5
		c0.2,0,0.3,0,0.5-0.1c0.5-0.3,0.6-0.9,0.4-1.4C184.4,219.6,184.2,218.2,184.4,216.8z"/>
</g>
<g>
	<path class="st0" d="M291.9,207h-5c0-1-0.9-2-2-2h-1.8v-0.1c0-1.1-1.1-2.9-2.2-2.9h-4c-1.1,0-1.8,1.8-1.8,2.9v0.1h-2.2
		c-1.1,0-2,1-2,2h-5c-1.1,0-1.8,1.8-1.8,2.9v35c0,1.1,0.7,1.1,1.8,1.1h26c1.1,0,2.2,0,2.2-1.1v-35C294.1,208.8,293,207,291.9,207z
		 M273.1,209.9V207h1.8h2.2v-1.1V204h4v1.9v1.1h1.8h2.2v2.9v0.1h-12V209.9z M292.1,244h-26v-35h5v1.9c0,1.1,0.7,1.1,1.8,1.1h12
		c1.1,0,2.2,0,2.2-1.1V209h5V244z"/>
	<rect x="276.1" y="236" class="st0" width="4" height="4"/>
	<path class="st0" d="M284.5,218.8c-1.4-1.2-3.3-1.8-5.7-1.8c-2.2,0-4.1,0.6-5.5,1.7c-1.4,1.1-2.1,2.5-2,4.5l0-0.1h4.6
		c0-1,0.3-1.4,0.9-1.9c0.6-0.5,1.2-0.6,2-0.6c1,0,1.7,0.3,2.2,0.9c0.5,0.6,0.8,1.4,0.8,2.4c0,0.9-0.2,1.7-0.7,2.4
		c-0.5,0.7-1.1,1.4-1.8,2c-1.3,1-2.2,1.3-2.6,2c-0.4,0.7-0.7,1.7-0.7,2.7h4.7c0,0,0.1-1,0.3-1.5c0.2-0.5,0.6-0.7,1.3-1.2
		c1.2-0.8,2.2-1.6,3-2.8c0.8-1.2,1.2-2.4,1.2-3.7C286.6,221.6,285.9,220,284.5,218.8z"/>
</g>
<g>
	<path class="st0" d="M196.1,176h-1.1h-18.7c-1.6,0-3.2-1.1-3.2-2.8V170h19.1c0.6,0,1.2-0.4,1.2-1.1c0-0.5-0.5-0.8-0.9-0.8l-11.3,0
		V136h18.3c1.1,0,2,1,2,2.1l0,17.1c0,0.5,0.4,1,1,1c0.6,0,1-0.4,1-1l0-17.1c0-2.2-1.8-4.1-4-4.1h-18h-3h-3c-2.2,0-4.3,2-4.3,4.2v31
		v1v3c0,2.8,2.5,4.8,5.2,4.8h19.8C197.1,178,197.1,176,196.1,176z M175.4,136h2.7v32.2l-4.9,0l0.1-30.1
		C173.3,137,174.3,136,175.4,136z"/>
	<path class="st0" d="M176.9,172c-0.6,0-1,0.4-1,1s0.4,1,1,1h15.5c0.6,0,1-0.4,1-1s-0.4-1-1-1H176.9z"/>
	<path class="st0" d="M205.4,158.2c-5.5,0-10,4.5-10,10s4.5,10,10,10s10-4.5,10-10S210.9,158.2,205.4,158.2z M205.4,176.2
		c-4.4,0-8-3.6-8-8s3.6-8,8-8s8,3.6,8,8S209.8,176.2,205.4,176.2z"/>
	<path class="st0" d="M208.4,167h-2.3v-1.8c0-0.6-0.4-1-1-1s-1,0.4-1,1v1.8h-1.7c-0.6,0-1,0.4-1,1c0,0.6,0.4,1,1,1h1.7v2.2
		c0,0.6,0.4,1,1,1s1-0.4,1-1V169h2.3c0.6,0,1-0.4,1-1C209.4,167.4,208.9,167,208.4,167z"/>
</g>
<path class="st0" d="M292.8,14h-3.7V4.4c0-1.1-1.2-2.4-2.3-2.4h-18c0-1-0.9-2-2-2h-2c-1.1,0-1.7,1.3-1.7,2.4v40
	c0,1.1,0.6,1.6,1.7,1.6h2c1.1,0,2.3-0.5,2.3-1.6V21h7v8.4v0c0,0.1-0.3-0.4-0.3-0.4h0c0.1,2,1.6,4,4,4h13c1.1,0,2.3-0.5,2.3-1.6v-15
	C295.1,15.3,293.9,14,292.8,14z M267.1,21.4V42h-2V2h2V21.4z M275.8,19h-6.7V4.4l18,0c0,0.3,0,5.2,0,10V20c-1-0.5-1.6-1-2.3-1h-7
	H275.8z M286.8,23c-0.1,1-0.7,2-2,2c-0.7,0-5,0-5.5,0c-0.4,0-1.1,0.8-1.1,1.5V21c4,0,6.5,0,6.6,0C285.9,21,286.6,22.1,286.8,23z
	 M293.1,31c0,0-12,0-13.4,0c-1.2,0-2-1-2-2h0c0,0,0,0.2,0,0.2l0,0.2c0-0.8,0.7-1.9,2-1.9c0,0,0,0,0,0c0,0,0-0.2,0-0.2
	c0,0,0-0.2,0-0.2h4.9c2.4,0,4.1-1.8,4.2-3.8l0.2,0.2V16h4V31z"/>
<g>
	<path class="st0" d="M204.5,87.8c-0.2,0.2-0.3,0.4-0.3,0.7l0,18.6c0,0.3-0.1,0.5-0.3,0.7c-0.2,0.2-1,0.3-1.3,0.3l-28.6,0
		c-0.5,0-1-0.4-1-1l0-29.1c0-0.5,0.4-1,1-1h18.7c0.3,0,0.5-0.1,0.7-0.3l0,0c0.6-0.6,0.1-1.7-0.7-1.7h-18.7c-1.6,0-2.9,1.3-2.9,2.9
		V109c0,0.5,0.4,1,1,1l30.5,0h0c1.3,0,3.5,0,3.5-2c0,0,0,0,0,0l0,0c0,0,0,0,0,0c0,0,0,0,0,0V88.5C206.1,87.6,205.1,87.2,204.5,87.8z
		"/>
	<path class="st0" d="M214.7,71.5l-5.1-5.1c-0.3-0.3-0.6-0.4-1-0.4c-0.4,0-0.7,0.1-1,0.4L185.5,89c-0.3,0.3-0.4,0.6-0.4,1v4.6
		c0,0.8,0.6,1.4,1.4,1.4h4.6c0.4,0,0.7-0.1,1-0.4l22.6-22.1C215.3,73,215.3,72.1,214.7,71.5z M187.1,94l0-3l2.9,3L187.1,94z
		 M192,93.1l-4-4l16.6-16.9l4.3,4.3L192,93.1z M210.3,75.1l-4.3-4.3l2.6-2.6l4.3,4.3L210.3,75.1z"/>
	<path class="st0" d="M181,95h-4.9c-0.5,0-1,0.5-1,1c0,0.5,0.4,1,1,1h4.9c0.5,0,1-0.5,1-1C182,95.5,181.6,95,181,95z"/>
	<path class="st0" d="M181,91h-4.9c-0.5,0-1,0.5-1,1s0.4,1,1,1h4.9c0.5,0,1-0.5,1-1S181.6,91,181,91z"/>
	<path class="st0" d="M183,88c0-0.5-0.4-1-1-1h-5.9c-0.5,0-1,0.5-1,1s0.4,1,1,1h5.9C182.5,89,183,88.5,183,88z"/>
	<path class="st0" d="M187.1,84c0-0.5-0.4-1-1-1h-9.8c-0.5,0-1,0.5-1,1c0,0.5,0.4,1,1,1h9.8C186.7,85,187.1,84.5,187.1,84z"/>
	<path class="st0" d="M189.9,80c0-0.5-0.4-1-0.9-1h-12.8c-0.5,0-1,0.5-1,1c0,0.5,0.4,1,1,1h12.8C189.5,81,189.9,80.5,189.9,80z"/>
</g>
<path class="st0" d="M22.9,134.4c-12.1,0-22,9.9-22,22s9.9,22,22,22s22-9.9,22-22S35,134.4,22.9,134.4z M42.8,156h-10
	c-0.2-2-1-4.1-2.2-5.6l7.1-6.9C40.7,146.8,42.6,151,42.8,156z M6.2,158c0.1,2,0.5,3.6,1.3,5.4c0.1,0.2,0.3,0.1,0.5,0.1
	c0.1,0,0.1-0.1,0.2-0.1c0.3-0.1,0.4-0.1,0.3-0.4c-0.7-1.7-1.1-3-1.3-5h5.7c0.2,2,1,3.6,2.2,5.1l-7.1,7.2c-3-3.3-4.9-8.3-5.2-12.3
	H6.2z M16.2,164.2c1.5,1.2,3,2,5,2.2v10c-4-0.2-8.9-2.1-12.2-5.1L16.2,164.2z M23.1,166.3c2-0.2,4.2-1,5.7-2.2l6.9,7.1
	c-3.3,3-7.6,4.9-12.6,5.2V166.3z M23.3,165h-0.8c-1.7,0-3.5-1-4.8-2l-1.6-1.6v0.1c-1-1.1-1-2.5-1.2-3.5h-0.8v-2h0.8
	c0.2-2,0.8-3.2,1.7-4.4l1.1-1.3c1.4-1.1,3.2-1.9,5.1-1.9c4.4,0,8,3.9,8,8.3C30.9,161,27.5,164,23.3,165z M20.3,139.9
	c-3.2,0.5-6.1,1.9-8.4,4l-2.8-2.3c3.3-3,8-4.9,12-5.1v10c-2,0.2-3.4,1-4.9,2.2l-3.8-4c2.2-1.9,5-3.2,8-3.7c0.3,0,0.5-0.3,0.5-0.6
	C20.8,140,20.6,139.9,20.3,139.9z M28.8,148.7c-1.5-1.2-3.7-2-5.7-2.2v-10c5,0.3,9.3,2.2,12.6,5.2L28.8,148.7z M8.1,143.3l2.3,2.2
	c-1.2,1.4-2.2,2.9-3,4.6c-0.1,0.3,0,0.5,0.3,0.6c0.1,0,0.1,0,0.2,0c0.2,0,0.4-0.1,0.5-0.3c0.7-1.6,1.6-3.1,2.8-4.4l4,4.3
	c-1.2,1.5-2,3.7-2.3,5.7H7.2c0-1,0.1-1.7,0.2-2.3c0.1-0.3-0.1-0.7-0.4-0.7c-0.3-0.1-0.5,0.4-0.6,0.6c-0.1,0.7-0.2,1.4-0.3,2.4H2.9
	C3.2,151,5.1,146.6,8.1,143.3z M37.7,170.1l-7.1-6.9c1.2-1.5,2-3.1,2.2-5.1h10C42.6,162,40.7,166.7,37.7,170.1z"/>
</svg>
