<?xml version="1.0" encoding="utf-8"?>
<!-- Generator: Adobe Illustrator 18.0.0, SVG Export Plug-In . SVG Version: 6.00 Build 0)  -->
<!DOCTYPE svg PUBLIC "-//W3C//DTD SVG 1.1//EN" "http://www.w3.org/Graphics/SVG/1.1/DTD/svg11.dtd">
<svg version="1.1" id="Calque_1" xmlns="http://www.w3.org/2000/svg" xmlns:xlink="http://www.w3.org/1999/xlink" x="0px" y="0px"
	 viewBox="0 0 136 136" style="enable-background:new 0 0 136 136;" xml:space="preserve">
<style type="text/css">
	.st0{fill:#EC82BE;}
	.st1{fill:#FFFFFF;}
	.st2{fill:#F6B344;}
	.st3{fill:#1FB28C;}
	.st4{fill:#66C980;}
	.st5{fill:#DE4658;}
	.st6{fill:#00B0DC;}
	.st7{fill:#383838;}
	.st8{fill:#848484;}
	.st9{fill:#A8A8A8;}
	.st10{fill:#B865C7;}
	.st11{fill:#00B9D1;}
</style>
<g>
	<circle class="st0" cx="68" cy="68" r="68"/>
	<g>
		<path class="st1" d="M77.8,85.2C81,81.4,84,72.5,84,66.4c0-6.9-4.9-11-8.9-11v-1v-1v-1c1,0,2.9-1.6,2.9-3.2S76.5,46,74.9,46h-14
			c-1.7,0-2.9,1.6-2.9,3.2s1.1,3.2,3.1,3.2v1v1v1v0c-5,0.1-9.1,4.3-9.1,11c0,6.1,2.8,15,5.9,18.8c-0.6,0.5-1,1.1-1,2
			c0,1.7,1.3,2.8,3,2.8h16c1.6,0,3-1.1,3-2.8c0-0.8-0.3-1.5-0.9-2C77.9,85.2,77.9,85.2,77.8,85.2z M56.4,73.9
			c0.7,0.5,1.4,1.1,2.5,1.1c1.1,0,1.8-0.6,2.4-1.1c0.6-0.5,1.1-1,2.1-1c0.8,0,1.4,0.4,2.1,0.9c0.7,0.5,1.5,1.1,2.7,1.1
			c1.1,0,2-0.6,2.8-1.1c0.8-0.5,1.5-1,2.4-1c0.8,0,1.4,0.4,2,0.9c0.7,0.5,1.4,1.2,2.6,1.2c1.2,0,2.2-0.6,2.9-1.2c0,0,0.2,0,0.2,0
			c-0.5,2-1.8,3.9-1.8,5.6V79H56.9c-0.8-2-1.6-3.9-2.1-6.1C55.4,73,55.9,73.6,56.4,73.9z M54.5,72c-0.3-1.4-0.5-2.8-0.6-4.1
			c1,0,1.7,0.5,2.4,1c0.7,0.5,1.4,1.1,2.5,1.1c1.1,0,1.8-0.6,2.4-1.1c0.6-0.5,1.1-1,2.1-1c0.8,0,1.4,0.4,2.1,0.9
			c0.7,0.5,1.5,1.1,2.7,1.1c1.3,0,2.2-0.6,2.9-1.2c0.7-0.5,1.3-0.9,2.2-0.9c1,0,1.5,0.5,2.1,1c0.6,0.5,1.3,1.1,2.4,1.1
			c1.2,0,2.2-0.6,2.9-1.2c0.3-0.3,0.7-0.5,1-0.7c-0.1,1.3-0.3,2.7-0.6,4.1c-0.5,0.2-0.7,0.5-1,0.8c-0.6,0.5-1.4,1-2.3,1
			c-0.8,0-1.4-0.4-2-0.9c-0.7-0.5-1.4-1.2-2.6-1.2c-1.2,0-2.1,0.6-2.9,1.1c-0.7,0.5-1.5,0.9-2.3,0.9c-0.8,0-1.4-0.4-2.1-0.9
			c-0.7-0.5-1.5-1.1-2.7-1.1c-1.3,0-2.1,0.6-2.7,1.2c-0.6,0.5-1,0.9-1.8,0.9c-0.7,0-1.3-0.4-1.9-0.9C56.3,72.7,55.4,72.2,54.5,72z
			 M78.4,80c-0.2,0-0.3,1-0.5,1H58.1v0.5c-1-0.4-0.7-1.5-0.8-1.5H78.4z M77.4,82c-0.5,1-1,2-1.5,2h-16c-0.5,0-1-1-1.5-2H77.4z
			 M59.9,49c0-0.6,0.4-1,1-1h14c0.6,0,1,0.4,1,1s-0.4,1-1,1h-2h-10h-2C60.3,50,59.9,49.6,59.9,49z M63.1,52h10v1h-10V52z M73.1,54v1
			h-10v-1H73.1z M61,57h1.8h10h2c2.2,0,4.8,1.8,6.2,4.9c-0.6,0.2-1,0.7-1.4,1.1c-0.6,0.5-0.9,1-1.8,1c-0.8,0-1.2-0.3-1.7-0.8
			c-0.6-0.6-1.4-1.2-2.9-1.2c-1.4,0-2.1,0.6-2.8,1.1c-0.7,0.5-1.2,1-2.4,1c-0.8,0-1.4-0.4-2.1-0.9c-0.7-0.5-1.5-1.1-2.7-1.1
			c-1.3,0-2.1,0.6-2.7,1.2c-0.6,0.5-1,0.9-1.8,0.9c-0.7,0-1.3-0.4-1.9-0.9c-0.6-0.4-1.4-1.1-2.2-1.3C56.1,58.8,58.8,57,61,57z
			 M54.4,63c0.7,0.1,1.4,0.5,2,1c0.7,0.5,1.4,1.1,2.5,1.1c1.1,0,1.8-0.6,2.4-1.1c0.6-0.5,1.1-1,2.1-1c0.8,0,1.4,0.4,2.1,0.9
			c0.7,0.5,1.5,1.1,2.7,1.1c1.5,0,2.3-0.6,3-1.2c0.6-0.5,1.2-0.9,2.2-0.9c1.1,0,1.6,0.5,2.2,1c0.6,0.5,1.2,1.1,2.3,1.1
			c1.2,0,1.8-0.6,2.4-1.2c0.3-0.3,0.8-0.5,1.1-0.7c0.3,1,0.5,2.1,0.5,3.3c0,0.2,0,0.4,0,0.6c-1,0.2-1.2,0.6-1.7,1
			c-0.6,0.5-1.4,1-2.3,1c-0.8,0-1.2-0.4-1.8-0.9c-0.7-0.6-1.4-1.2-2.8-1.2c-1.3,0-2.1,0.6-2.8,1.1c-0.7,0.5-1.3,1-2.4,1
			c-0.8,0-1.4-0.4-2.1-0.9c-0.7-0.5-1.5-1.1-2.7-1.1c-1.3,0-2.1,0.6-2.7,1.2c-0.6,0.5-1,0.9-1.8,0.9c-0.7,0-1.3-0.4-1.9-0.9
			c-0.8-0.6-2.1-1.2-3.1-1.2c0-0.2,0-0.3,0-0.5C53.9,65.1,54.1,64,54.4,63z M75.9,88h-16c-0.6,0-1-0.4-1-1s0.4-1,1-1h0h16h0
			c0.6,0,1,0.5,1,1C76.9,87.6,76.4,88,75.9,88z"/>
	</g>
</g>
</svg>
