<?xml version="1.0" encoding="utf-8"?>
<!-- Generator: Adobe Illustrator 18.0.0, SVG Export Plug-In . SVG Version: 6.00 Build 0)  -->
<!DOCTYPE svg PUBLIC "-//W3C//DTD SVG 1.1//EN" "http://www.w3.org/Graphics/SVG/1.1/DTD/svg11.dtd">
<svg version="1.1" id="Calque_1" xmlns="http://www.w3.org/2000/svg" xmlns:xlink="http://www.w3.org/1999/xlink" x="0px" y="0px"
	 viewBox="0 0 136 136" style="enable-background:new 0 0 136 136;" xml:space="preserve">
<style type="text/css">
	.st0{fill:#EC82BE;}
	.st1{fill:#FFFFFF;}
	.st2{fill:#F6B344;}
	.st3{fill:#1FB28C;}
	.st4{fill:#66C980;}
	.st5{fill:#DE4658;}
	.st6{fill:#00B0DC;}
	.st7{fill:#383838;}
	.st8{fill:#848484;}
	.st9{fill:#A8A8A8;}
	.st10{fill:#B865C7;}
	.st11{fill:#00B9D1;}
</style>
<g>
	<circle class="st6" cx="68" cy="68" r="68"/>
	<g>
		<g>
			<g>
				<g>
					<g>
						<g>
							<path class="st1" d="M67.6,89.6c12.1,0,22-9.9,22-22c0-12.1-9.9-22-22-22h-16c-3.3,0-6,2.7-6,6v16
								C45.6,79.7,55.5,89.6,67.6,89.6z M47.2,51.6c0-2.4,2-4.4,4.4-4.4h16c11.2,0,20.4,9.2,20.4,20.4C88,78.8,78.8,88,67.6,88
								c-11.2,0-20.4-9.2-20.4-20.4L47.2,51.6z"/>
						</g>
					</g>
				</g>
			</g>
			<g>
				<g>
					<path class="st1" d="M75.9,71.1l-1,5.9c-0.2,1.1,0.5,2.1,1.6,2.3l0.7,0.1c1.1,0.2,2.1-0.5,2.3-1.6l1-5.9
						c0.2-1.1-0.5-2.1-1.6-2.3l-0.7-0.1C77.2,69.3,76.1,70,75.9,71.1z"/>
				</g>
				<g>
					<path class="st1" d="M84.1,61.1L81,79.2c2.7-3.1,4.4-7.2,4.4-11.6C85.3,65.3,84.9,63.1,84.1,61.1z"/>
				</g>
				<g>
					<path class="st1" d="M78.1,58.7c-0.1,0.5,0.3,1.1,0.8,1.2l2.6,0.4c0.5,0.1,1.1-0.3,1.1-0.8c0.1-0.5-0.3-1.1-0.8-1.2l-2.6-0.4
						C78.7,57.8,78.1,58.2,78.1,58.7z"/>
				</g>
				<g>
					<path class="st1" d="M53.8,61.7c0-1.1,0.9-2,2-2h4c1.1,0,2,0.9,2,2v22.6c0.3,0.1,0.7,0.2,1,0.3V56.4c0-1.1,0.9-2,2-2h4
						c1.1,0,2,0.9,2,2V85c0.4-0.1,0.7-0.1,1.1-0.2l4.7-27.2c0.2-1.1,1.2-1.8,2.3-1.6l2.5,0.4c-3.2-4-8.2-6.5-13.7-6.5h-16
						c-0.9,0-1.7,0.8-1.7,1.7v16c0,4.2,1.5,8.1,4,11.2V61.7z"/>
				</g>
				<g>
					<path class="st1" d="M59.2,63.6c0.6,0,1-0.4,1-1c0-0.6-0.4-1-1-1h-2.7c-0.6,0-1,0.4-1,1c0,0.6,0.4,1,1,1H59.2z"/>
				</g>
				<g>
					<path class="st1" d="M60.2,77.2c0-1.1-0.9-2-2-2h-0.7c-1.1,0-2,0.9-2,2v3.4c1.4,1.3,2.9,2.3,4.6,3.1c0-0.2,0.1-0.3,0.1-0.5
						V77.2z"/>
				</g>
				<g>
					<path class="st1" d="M64.5,75.8c0,1.1,0.9,2,2,2h0.7c1.1,0,2-0.9,2-2v-6c0-1.1-0.9-2-2-2h-0.7c-1.1,0-2,0.9-2,2V75.8z"/>
				</g>
				<g>
					<path class="st1" d="M68.1,58.2c0.6,0,1-0.4,1-1c0-0.6-0.4-1-1-1h-2.7c-0.6,0-1,0.4-1,1c0,0.6,0.4,1,1,1H68.1z"/>
				</g>
			</g>
		</g>
	</g>
</g>
</svg>
