<?xml version="1.0" encoding="utf-8"?>
<!-- Generator: Adobe Illustrator 18.0.0, SVG Export Plug-In . SVG Version: 6.00 Build 0)  -->
<!DOCTYPE svg PUBLIC "-//W3C//DTD SVG 1.1//EN" "http://www.w3.org/Graphics/SVG/1.1/DTD/svg11.dtd">
<svg version="1.1" id="Calque_1" xmlns="http://www.w3.org/2000/svg" xmlns:xlink="http://www.w3.org/1999/xlink" x="0px" y="0px"
	 viewBox="0 0 136 136" style="enable-background:new 0 0 136 136;" xml:space="preserve">
<style type="text/css">
	.st0{fill:#EC82BE;}
	.st1{fill:#FFFFFF;}
	.st2{fill:#F6B344;}
	.st3{fill:#1FB28C;}
	.st4{fill:#66C980;}
	.st5{fill:#DE4658;}
	.st6{fill:#00B0DC;}
	.st7{fill:#383838;}
	.st8{fill:#848484;}
	.st9{fill:#A8A8A8;}
	.st10{fill:#B865C7;}
	.st11{fill:#00B9D1;}
</style>
<g>
	<circle class="st5" cx="68" cy="68" r="68"/>
	<g>
		<path class="st1" d="M80.7,70.8l-8.2-23.1c-0.3-0.8-1-1.6-1.9-1.6h-1.5v2.6v17c2,0.8,3.3,4.8-0.6,5.9c-0.1,0-0.3,0.1-0.4,0.1
			c-1.7,0-3-1.3-3-3c0-1.3,0-2.6,2-3v-17V46h-1.6c-0.8,0-1.6,0.8-1.9,1.6l-8.3,23c-0.2,0.5-0.1,1.2,0.1,1.7l5,8.9
			c0.4,0.6,1,0.8,1.8,0.8h11.6c0.7,0,1.4-0.1,1.8-0.7l5-9C80.8,71.7,80.9,71.3,80.7,70.8z M74,80H62l-5-9l8-23h1.1v17
			c-2,0.7-2,2.2-2,3.6c0,2.2,1.8,4,4,4s4-1.8,4-4c0-1.5-1-2.9-2-3.6V48H71l8,23L74,80z"/>
		<path class="st1" d="M75.1,86c0-1.1-0.9-2-2-2h-10c-1.1,0-2,0.9-2,2v2c0,1.1,0.9,2,2,2h10c1.1,0,2-0.9,2-2V86z M73.1,88h-10v-2h10
			V88z"/>
	</g>
</g>
</svg>
