<?xml version="1.0" encoding="utf-8"?>
<!-- Generator: Adobe Illustrator 18.0.0, SVG Export Plug-In . SVG Version: 6.00 Build 0)  -->
<!DOCTYPE svg PUBLIC "-//W3C//DTD SVG 1.1//EN" "http://www.w3.org/Graphics/SVG/1.1/DTD/svg11.dtd">
<svg version="1.1" id="Calque_1" xmlns="http://www.w3.org/2000/svg" xmlns:xlink="http://www.w3.org/1999/xlink" x="0px" y="0px"
	 viewBox="0 0 136 136" style="enable-background:new 0 0 136 136;" xml:space="preserve">
<style type="text/css">
	.st0{fill:#EC82BE;}
	.st1{fill:#FFFFFF;}
	.st2{fill:#F6B344;}
	.st3{fill:#1FB28C;}
	.st4{fill:#66C980;}
	.st5{fill:#DE4658;}
	.st6{fill:#00B0DC;}
	.st7{fill:#383838;}
	.st8{fill:#848484;}
	.st9{fill:#A8A8A8;}
	.st10{fill:#B865C7;}
	.st11{fill:#00B9D1;}
</style>
<g>
	<circle class="st11" cx="68" cy="68" r="68"/>
	<g>
		<path class="st1" d="M79.3,67.8C79.2,68,79,68.2,79,68.5l0,18.6c0,0.3-0.1,0.5-0.3,0.7c-0.2,0.2-1,0.3-1.3,0.3l-28.6,0
			c-0.5,0-1-0.4-1-1L48,58c0-0.5,0.4-1,1-1h18.7c0.3,0,0.5-0.1,0.7-0.3l0,0c0.6-0.6,0.1-1.7-0.7-1.7H48.9c-1.6,0-2.9,1.3-2.9,2.9V89
			c0,0.5,0.4,1,1,1l30.5,0h0c1.3,0,3.5,0,3.5-2c0,0,0,0,0,0l0,0c0,0,0,0,0,0c0,0,0,0,0,0V68.5C81,67.6,80,67.2,79.3,67.8z"/>
		<path class="st1" d="M89.6,51.5l-5.1-5.1c-0.3-0.3-0.6-0.4-1-0.4c-0.4,0-0.7,0.1-1,0.4L60.4,69c-0.3,0.3-0.4,0.6-0.4,1v4.6
			c0,0.8,0.6,1.4,1.4,1.4H66c0.4,0,0.7-0.1,1-0.4l22.6-22.1C90.1,53,90.1,52.1,89.6,51.5z M62,74l0-3l2.9,3L62,74z M66.9,73.1l-4-4
			l16.6-16.9l4.3,4.3L66.9,73.1z M85.2,55.1l-4.3-4.3l2.6-2.6l4.3,4.3L85.2,55.1z"/>
		<path class="st1" d="M55.9,75H51c-0.5,0-1,0.5-1,1c0,0.5,0.4,1,1,1h4.9c0.5,0,1-0.5,1-1C56.9,75.5,56.4,75,55.9,75z"/>
		<path class="st1" d="M55.9,71H51c-0.5,0-1,0.5-1,1s0.4,1,1,1h4.9c0.5,0,1-0.5,1-1S56.4,71,55.9,71z"/>
		<path class="st1" d="M57.9,68c0-0.5-0.4-1-1-1H51c-0.5,0-1,0.5-1,1s0.4,1,1,1h5.9C57.4,69,57.9,68.5,57.9,68z"/>
		<path class="st1" d="M62,64c0-0.5-0.4-1-1-1h-9.8c-0.5,0-1,0.5-1,1c0,0.5,0.4,1,1,1H61C61.6,65,62,64.5,62,64z"/>
		<path class="st1" d="M64.7,60c0-0.5-0.4-1-0.9-1H51c-0.5,0-1,0.5-1,1c0,0.5,0.4,1,1,1h12.8C64.4,61,64.7,60.5,64.7,60z"/>
	</g>
</g>
</svg>
