<?xml version="1.0" encoding="utf-8"?>
<!-- Generator: Adobe Illustrator 18.0.0, SVG Export Plug-In . SVG Version: 6.00 Build 0)  -->
<!DOCTYPE svg PUBLIC "-//W3C//DTD SVG 1.1//EN" "http://www.w3.org/Graphics/SVG/1.1/DTD/svg11.dtd">
<svg version="1.1" id="Calque_1" xmlns="http://www.w3.org/2000/svg" xmlns:xlink="http://www.w3.org/1999/xlink" x="0px" y="0px"
	 viewBox="0 0 136 136" style="enable-background:new 0 0 136 136;" xml:space="preserve">
<style type="text/css">
	.st0{fill:#EC82BE;}
	.st1{fill:#FFFFFF;}
	.st2{fill:#F6B344;}
	.st3{fill:#1FB28C;}
	.st4{fill:#66C980;}
	.st5{fill:#DE4658;}
	.st6{fill:#00B0DC;}
	.st7{fill:#383838;}
	.st8{fill:#848484;}
	.st9{fill:#A8A8A8;}
	.st10{fill:#B865C7;}
	.st11{fill:#00B9D1;}
</style>
<g>
	<circle class="st7" cx="68" cy="68" r="68"/>
	<g>
		<path class="st1" d="M70.3,78.9h-6.2l-1.8-5.6h-9l-1.8,5.6h-6.2l9.2-25.2h6.7L70.3,78.9z M61,68.9l-2.7-8.5
			c-0.2-0.6-0.3-1.4-0.4-2.3h-0.1c-0.1,0.7-0.2,1.5-0.4,2.2l-2.7,8.5H61z"/>
		<path class="st1" d="M89.7,78.9h-5.3v-2.6h-0.1c-1.2,2-3,3-5.4,3c-1.7,0-3.1-0.5-4.1-1.5s-1.5-2.3-1.5-4c0-3.5,2.1-5.5,6.2-6
			l4.9-0.7c0-2-1.1-3-3.2-3c-2.1,0-4.2,0.6-6.1,1.9V62c0.8-0.4,1.8-0.8,3.2-1.1s2.6-0.5,3.7-0.5c5.1,0,7.7,2.6,7.7,7.7V78.9z
			 M84.5,71.6v-1.2l-3.3,0.4c-1.8,0.2-2.7,1-2.7,2.4c0,0.6,0.2,1.2,0.7,1.6s1,0.6,1.8,0.6c1,0,1.9-0.4,2.5-1.1S84.5,72.7,84.5,71.6z
			"/>
	</g>
</g>
</svg>
