<?xml version="1.0" encoding="utf-8"?>
<!-- Generator: Adobe Illustrator 18.0.0, SVG Export Plug-In . SVG Version: 6.00 Build 0)  -->
<!DOCTYPE svg PUBLIC "-//W3C//DTD SVG 1.1//EN" "http://www.w3.org/Graphics/SVG/1.1/DTD/svg11.dtd">
<svg version="1.1" id="Calque_1" xmlns="http://www.w3.org/2000/svg" xmlns:xlink="http://www.w3.org/1999/xlink" x="0px" y="0px"
	 viewBox="0 0 136 136" style="enable-background:new 0 0 136 136;" xml:space="preserve">
<style type="text/css">
	.st0{fill:#EC82BE;}
	.st1{fill:#FFFFFF;}
	.st2{fill:#F6B344;}
	.st3{fill:#1FB28C;}
	.st4{fill:#66C980;}
	.st5{fill:#DE4658;}
	.st6{fill:#00B0DC;}
	.st7{fill:#383838;}
	.st8{fill:#848484;}
	.st9{fill:#A8A8A8;}
	.st10{fill:#B865C7;}
	.st11{fill:#00B9D1;}
</style>
<g>
	<circle class="st4" cx="68" cy="68" r="68"/>
	<g>
		<path class="st1" d="M88.6,77.3L56.1,45.1c-0.4-0.4-0.9-0.6-1.5-0.6c-0.5,0-1.1,0.2-1.5,0.6l-7.4,7.4c-0.8,0.8-0.8,2.1,0,2.9
			l32.5,32.1c0.4,0.4,0.9,0.5,1.5,0.5h7.4c1.1,0,2-0.8,2-1.9v-7.4C89.2,78.2,89,77.7,88.6,77.3z M47.2,54C47.2,54,47.2,53.9,47.2,54
			l7.5-7.5c0,0,0,0,0,0l0,0l3.5,3.4l-7.5,7.5L47.2,54z M78.6,85L52.1,58.8l7.5-7.5l26.5,26.2L78.6,85z M87.2,86.1h-7L80,86.2
			l7.1-6.9V86.1z"/>
		<path class="st1" d="M73.2,86.1h-27c-0.6,0-1,0.4-1,1c0,0.6,0.4,1,1,1h27c0.6,0,1-0.4,1-1C74.2,86.5,73.7,86.1,73.2,86.1z"/>
		<path class="st1" d="M60.8,55.8c-0.4-0.4-1-0.4-1.4,0c-0.4,0.4-0.4,1,0,1.4l13.4,13.3c0.4,0.4,1,0.4,1.4,0c0.4-0.4,0.4-1,0-1.4
			L60.8,55.8z"/>
		<path class="st1" d="M82.1,77.1l-4.6-4.5c-0.4-0.4-1-0.4-1.4,0c-0.4,0.4-0.4,1,0,1.4l4.6,4.5c0.4,0.4,1,0.4,1.4,0
			C82.5,78.1,82.5,77.5,82.1,77.1z"/>
	</g>
</g>
</svg>
