<?xml version="1.0" encoding="utf-8"?>
<!-- Generator: Adobe Illustrator 18.0.0, SVG Export Plug-In . SVG Version: 6.00 Build 0)  -->
<!DOCTYPE svg PUBLIC "-//W3C//DTD SVG 1.1//EN" "http://www.w3.org/Graphics/SVG/1.1/DTD/svg11.dtd">
<svg version="1.1" id="Calque_1" xmlns="http://www.w3.org/2000/svg" xmlns:xlink="http://www.w3.org/1999/xlink" x="0px" y="0px"
	 viewBox="0 0 1018 121.5" style="enable-background:new 0 0 1018 121.5;" xml:space="preserve">
<style type="text/css">
	.st0{fill:#FFFFFF;}
</style>
<g>
	<path class="st0" d="M31.1,38.7c-0.6,0-1.1,0.5-1.1,1.1v1.1c0,1.1-0.9,2-2,2H5c-1.7,0-3-1.3-3-3l0-3h26c2.2,0,4-1.8,4-4v-28
		c0-2.2-1.8-4-4-4H9H7H4c-2.2,0-4,1.8-4,4v32l0,0v4c0,2.2,1.8,4,4,4h23.9c2.3,0,4.1-1.9,4.1-4.2v-1.2C32,39.1,31.6,38.7,31.1,38.7z
		 M28.1,2.9c1.1,0,2,0.6,2,1.7l0,28.3c0,1.1-0.9,2-2,2L9,34.9l0-32H28.1z M2,4.9c0-1.1,0.9-2,2-2h3v32l-5,0V4.9z"/>
	<polygon class="st0" points="31.2,38.7 31.2,38.7 31.2,38.7 	"/>
	<path class="st0" d="M5,38.9c-0.6,0-1,0.4-1,1c0,0.6,0.4,1,1,1l22,0c0.6,0,1-0.4,1-1c0-0.6-0.4-1-1-1H5z"/>
</g>
<g>
	<circle class="st0" cx="196" cy="38.9" r="2"/>
	<path class="st0" d="M205,0h-17.9c-2.2,0-4.1,2.7-4.1,4.9V6h-0.5c-0.3,0-0.5,1.1-0.5,1.4v1c0,0.3,0.2-0.4,0.5-0.4h0.5v2h-0.5
		c-0.3,0-0.5,1.1-0.5,1.4v3c0,0.3,0.2-0.4,0.5-0.4h0.5v2h-0.5c-0.3,0-0.5,1.1-0.5,1.4v3c0,0.3,0.2-0.4,0.5-0.4h0.5v12.9v2v6
		c0,2.2,1.9,3.1,4.1,3.1H205c2.2,0,4-0.9,4-3.1v-6v-2v-28C209,2.7,207.2,0,205,0z M207,40.9c0,1.1-0.9,1.1-2,1.1h-18
		c-1.1,0-2,0-2-1.1V34h22V40.9z M207,32h-22V7h22V32z M207,5h-22V4.9c0-1.1,1-2.9,2.1-2.9H205c1.1,0,2,1.8,2,2.9V5z"/>
	<path class="st0" d="M202.5,3h-13c-0.3,0-0.5,0.2-0.5,0.5c0,0.3,0.2,0.5,0.5,0.5h13c0.3,0,0.5-0.2,0.5-0.5C203,3.2,202.7,3,202.5,3
		z"/>
	<path class="st0" d="M189.5,11h13c0.3,0,0.5-0.2,0.5-0.5c0-0.3-0.2-0.5-0.5-0.5h-13c-0.3,0-0.5,0.2-0.5,0.5
		C189,10.8,189.2,11,189.5,11z"/>
	<path class="st0" d="M189.5,14h13c0.3,0,0.5-0.2,0.5-0.5c0-0.3-0.2-0.5-0.5-0.5h-13c-0.3,0-0.5,0.2-0.5,0.5
		C189,13.8,189.2,14,189.5,14z"/>
	<path class="st0" d="M189.5,17h13c0.3,0,0.5-0.2,0.5-0.5c0-0.3-0.2-0.5-0.5-0.5h-13c-0.3,0-0.5,0.2-0.5,0.5
		C189,16.8,189.2,17,189.5,17z"/>
	<path class="st0" d="M189.5,20h13c0.3,0,0.5-0.2,0.5-0.5c0-0.3-0.2-0.5-0.5-0.5h-13c-0.3,0-0.5,0.2-0.5,0.5
		C189,19.8,189.2,20,189.5,20z"/>
	<path class="st0" d="M189.5,23h13c0.3,0,0.5-0.2,0.5-0.5c0-0.3-0.2-0.5-0.5-0.5h-13c-0.3,0-0.5,0.2-0.5,0.5
		C189,22.8,189.2,23,189.5,23z"/>
	<path class="st0" d="M189.5,26h13c0.3,0,0.5-0.2,0.5-0.5c0-0.3-0.2-0.5-0.5-0.5h-13c-0.3,0-0.5,0.2-0.5,0.5
		C189,25.8,189.2,26,189.5,26z"/>
	<path class="st0" d="M189.5,29h13c0.3,0,0.5-0.2,0.5-0.5c0-0.3-0.2-0.5-0.5-0.5h-13c-0.3,0-0.5,0.2-0.5,0.5
		C189,28.8,189.2,29,189.5,29z"/>
</g>
<g>
	<path class="st0" d="M378.5,12.9l10.9-2.5c0.3-0.1,0.6-0.4,0.6-0.7v0c0-0.5-0.5-0.8-1-0.7l-10.9,2.5c-0.4,0.1-0.6,0.4-0.6,0.8
		C377.6,12.7,378.1,12.9,378.5,12.9z"/>
	<path class="st0" d="M378.5,17l10.9-2.5c0.3-0.1,0.6-0.4,0.6-0.7v0c0-0.5-0.5-0.8-1-0.7l-10.9,2.5c-0.4,0.1-0.6,0.4-0.6,0.8
		C377.6,16.8,378.1,17.1,378.5,17z"/>
	<path class="st0" d="M378.5,21.1l10.9-2.5c0.3-0.1,0.6-0.4,0.6-0.7v0c0-0.5-0.5-0.8-1-0.7l-10.9,2.5c-0.4,0.1-0.6,0.4-0.6,0.8
		C377.6,20.9,378.1,21.2,378.5,21.1z"/>
	<path class="st0" d="M378.5,25.3l10.9-2.5c0.3-0.1,0.6-0.4,0.6-0.7v0c0-0.5-0.5-0.8-1-0.7l-10.9,2.5c-0.4,0.1-0.6,0.4-0.6,0.8
		C377.6,25.1,378.1,25.4,378.5,25.3z"/>
	<path class="st0" d="M378.5,29.4l10.9-2.5c0.3-0.1,0.6-0.4,0.6-0.7v0c0-0.5-0.5-0.8-1-0.7L378.2,28c-0.4,0.1-0.6,0.4-0.6,0.8
		C377.6,29.2,378.1,29.5,378.5,29.4z"/>
	<path class="st0" d="M378.5,33.6l10.9-2.5c0.3-0.1,0.6-0.4,0.6-0.7v0c0-0.5-0.5-0.8-1-0.7l-10.9,2.5c-0.4,0.1-0.6,0.4-0.6,0.8
		C377.6,33.4,378.1,33.7,378.5,33.6z"/>
	<path class="st0" d="M370.2,13h-2.6c-0.4,0-0.7,0.1-0.7,0.5s0.3,0.5,0.7,0.5h2.6c0.4,0,0.7-0.1,0.7-0.5S370.6,13,370.2,13z"/>
	<path class="st0" d="M370.2,17h-2.6c-0.4,0-0.7,0.1-0.7,0.5s0.3,0.5,0.7,0.5h2.6c0.4,0,0.7-0.1,0.7-0.5S370.6,17,370.2,17z"/>
	<path class="st0" d="M370.2,21h-11.6c-0.4,0-0.7,0.1-0.7,0.5s0.3,0.5,0.7,0.5h11.6c0.4,0,0.7-0.1,0.7-0.5S370.6,21,370.2,21z"/>
	<path class="st0" d="M370.2,25h-11.6c-0.4,0-0.7,0.1-0.7,0.5s0.3,0.5,0.7,0.5h11.6c0.4,0,0.7-0.1,0.7-0.5S370.6,25,370.2,25z"/>
	<path class="st0" d="M370.2,29h-11.6c-0.4,0-0.7,0.1-0.7,0.5s0.3,0.5,0.7,0.5h11.6c0.4,0,0.7-0.1,0.7-0.5S370.6,29,370.2,29z"/>
	<path class="st0" d="M370.2,33h-11.6c-0.4,0-0.7,0.1-0.7,0.5s0.3,0.5,0.7,0.5h11.6c0.4,0,0.7-0.1,0.7-0.5S370.6,33,370.2,33z"/>
	<path class="st0" d="M394.2,40c1.5,0,2.8,0.1,2.8-2.1v-30c0-2-1.3-3.9-2.8-3.9H394v2h0.2c0.4,0,0.8,1.2,0.8,1.7v30.5
		c0,0.4-0.4-0.2-0.8-0.2h-10.8l9.5-1.5c0.6-0.1,1.1-0.1,1.1-0.8l-0.1-33.9c0-0.7-0.8-1-1.5-1c-0.2,0-0.3-0.4-0.5-0.4L373.9,4h-6
		c-0.6,0-1,0.4-1,1c0,0.6,0.4,1,1,1h6.1v32h-18.3c-0.4,0-0.7,0.6-0.7,0.2V8.9c0-1.1,1-2,2-2v12c0,0.8,0.6,1.1,1.3,1.1
		c0.3,0,0.5-0.1,0.8-0.2l1.8-1.9l1.8,2.2c0.2,0.2,0.5,0.2,0.8,0.2c0.7,0,1.5-0.6,1.5-1.4v-12V4h-8.1c-2.2,0-3.9,2.7-3.9,4.9v29.3
		c0,1.5,1.1,1.8,2.7,1.8h18.2l0,2h-18.3c-0.4,0-0.7,0.6-0.7,0.2v0c0-0.4-0.4-2.1-0.9-2.1h-0.5c-0.4,0-0.7,1.7-0.7,2.1v0
		c0,1.5,1.1,1.8,2.7,1.8h18.3h2h18.3c1.5,0,2.8-0.3,2.8-1.8v0c0-0.4-0.4-2.1-0.9-2.1h-0.5c-0.4,0-0.7,1.7-0.7,2.1v0
		c0,0.4-0.4-0.2-0.8-0.2H376v-2H394.2z M359,6.9l4,0v11l-2-2l-2,2V6.9z M376,6.9V6.5l15.9-3.5l0.1,0v32l-16,3.5V6.9L376,6.9z"/>
</g>
<g>
	<path class="st0" d="M50.4,110L18,77.8c-0.4-0.4-0.9-0.6-1.5-0.6c-0.5,0-1.1,0.2-1.5,0.6l-7.4,7.4c-0.8,0.8-0.8,2.1,0,2.9
		l32.5,32.3c0.4,0.4,0.9,0.7,1.5,0.7H49c1.1,0,2-1.1,2-2.2v-7.4C51,110.9,50.8,110.3,50.4,110z M9,86.6C9,86.6,9,86.6,9,86.6
		l7.5-7.5c0,0,0,0,0,0l0,0l3.5,3.4l-7.5,7.5L9,86.6z M40.4,117.6L13.9,91.5l7.5-7.5L48,110.1L40.4,117.6z M49,119h-7l-0.1-0.1l7.1-7
		V119z"/>
	<path class="st0" d="M35,119H8c-0.6,0-1,0.4-1,1c0,0.6,0.4,1,1,1h27c0.6,0,1-0.4,1-1C36,119.4,35.5,119,35,119z"/>
	<path class="st0" d="M22.6,88.4c-0.4-0.4-1-0.4-1.4,0c-0.4,0.4-0.4,1,0,1.4l13.4,13.3c0.4,0.4,1,0.4,1.4,0c0.4-0.4,0.4-1,0-1.4
		L22.6,88.4z"/>
	<path class="st0" d="M43.9,109.8l-4.6-4.5c-0.4-0.4-1-0.4-1.4,0c-0.4,0.4-0.4,1,0,1.4l4.6,4.5c0.4,0.4,1,0.4,1.4,0
		C44.3,110.8,44.3,110.1,43.9,109.8z"/>
</g>
<g>
	<path class="st0" d="M138.3,79.3c-0.5-0.8-1.4-1.2-2.3-1.2h0c-0.4,0-0.8,0.1-1.2,0.3L96.6,97.1c-0.9,0.5-1.5,1.4-1.5,2.5
		c0,1.1,0.6,2,1.5,2.4l10.1,4.9c0.4,0.2,0.8,0.3,1.2,0.3c0.5,0,1.1-0.2,1.5-0.5c0,0,0,0.1,0,0.1c0.1,0.9,0.7,1.6,1.5,2l12,6.1
		c0.4,0.2,0.8,0.3,1.2,0.3c1.1,0,2.1-0.7,2.5-1.7l12-31.6C138.9,81,138.8,80,138.3,79.3z M136.8,81.1l-12,31.6
		c-0.1,0.4-0.5,0.6-0.8,0.6c-0.1,0-0.3,0-0.4-0.1l-12-6.1c-0.6-0.3-0.7-1-0.2-1.5l17.3-17.2l-20.3,16.6c-0.2,0.1-0.4,0.2-0.6,0.2
		c-0.1,0-0.3,0-0.4-0.1l-10.1-4.9c-0.7-0.3-0.7-1.3,0-1.6L135.6,80c0.1-0.1,0.3-0.1,0.4-0.1C136.6,79.9,137.1,80.5,136.8,81.1z"/>
	<path class="st0" d="M114.2,114.1l-5.8-2.7c-0.1-0.1-0.2-0.1-0.4-0.1c-0.5,0-0.9,0.4-0.9,1v7c0,0.6,0.4,1,1,1
		c0.2,0,0.3-0.1,0.5-0.2l5.8-4.3C115,115.5,114.9,114.5,114.2,114.1z M109,117.3v-3.5l2.9,1.4L109,117.3z"/>
</g>
<g>
	<path class="st0" d="M115.7,39.6c3.1-3.8,6.1-12.7,6.1-18.8c0-6.9-4.9-11-8.9-11v-1v-1v-1c2,0,2.9-1.8,2.9-3.4S114.4,0,112.7,0h-14
		c-1.7,0-2.9,1.8-2.9,3.4S97,6.9,99,6.9v1v1v1v0c-4,0.1-9.1,4.3-9.1,11c0,6.1,2.8,15,5.9,18.8c-0.6,0.5-1,0.9-1,1.8
		c0,1.7,1.3,2.6,3,2.6h16c1.6,0,3-0.9,3-2.6c0-0.8-0.3-1.3-0.9-1.9C115.8,39.5,115.8,39.7,115.7,39.6z M94.2,28.4
		c0.7,0.5,1.4,1.1,2.5,1.1c1.1,0,1.8-0.6,2.4-1.1c0.6-0.5,1.1-1,2.1-1c0.8,0,1.4,0.4,2.1,0.9c0.7,0.5,1.5,1.1,2.7,1.1
		c1.1,0,2-0.6,2.8-1.1c0.8-0.5,1.5-1,2.4-1c0.8,0,1.4,0.4,2,0.9c0.7,0.5,1.4,1.2,2.6,1.2c1.2,0,2.2-0.6,2.9-1.2c0,0,0.2,0,0.2,0
		c-0.5,2-0.8,3.9-1.8,5.6V33H94.7c-0.8-2-1.6-3.7-2.1-5.9C93.2,27.3,93.7,28,94.2,28.4z M92.4,26.4c-0.3-1.4-0.5-2.8-0.6-4.1
		c1,0,1.7,0.5,2.4,1c0.7,0.5,1.4,1.1,2.5,1.1c1.1,0,1.8-0.6,2.4-1.1c0.6-0.5,1.1-1,2.1-1c0.8,0,1.4,0.4,2.1,0.9
		c0.7,0.5,1.5,1.1,2.7,1.1c1.3,0,2.2-0.6,2.9-1.2c0.7-0.5,1.3-0.9,2.2-0.9c1,0,1.5,0.5,2.1,1c0.6,0.5,1.3,1.1,2.4,1.1
		c1.2,0,2.2-0.6,2.9-1.2c0.3-0.3,0.7-0.5,1-0.7c-0.1,1.3-0.3,2.7-0.6,4.1c-0.5,0.2-0.7,0.5-1,0.8c-0.6,0.5-1.4,1-2.3,1
		c-0.8,0-1.4-0.4-2-0.9c-0.7-0.5-1.4-1.2-2.6-1.2c-1.2,0-2.1,0.6-2.9,1.1c-0.7,0.5-1.5,0.9-2.3,0.9c-0.8,0-1.4-0.4-2.1-0.9
		c-0.7-0.5-1.5-1.1-2.7-1.1c-1.3,0-2.1,0.6-2.7,1.2c-0.6,0.5-1,0.9-1.8,0.9c-0.7,0-1.3-0.4-1.9-0.9C94.2,27.1,93.3,26.6,92.4,26.4z
		 M116.3,34c-0.2,0-0.3,1-0.5,1H96v1c0-0.4-0.6-2-0.8-2H116.3z M115.2,36c-0.5,1-1,1-1.5,2h-16c-0.5-1-1-1-1.5-2H115.2z M97.7,3
		c0-0.6,0.4-1,1-1h14c0.6,0,1,0.4,1,1s-0.4,1-1,1h-2h-10h-2C98.2,4,97.7,3.6,97.7,3z M101,6h10v1h-10V6z M111,8v1h-10V8H111z
		 M98.9,11h1.8h10h2c2.2,0,4.8,2,6.2,5.1c-0.6,0.2-1,0.8-1.4,1.2c-0.6,0.5-0.9,1.1-1.8,1.1c-0.8,0-1.2-0.3-1.7-0.8
		c-0.6-0.6-1.4-1.2-2.9-1.2c-1.4,0-2.1,0.6-2.8,1.1c-0.7,0.5-1.2,1-2.4,1c-0.8,0-1.4-0.4-2.1-0.9c-0.7-0.5-1.5-1.1-2.7-1.1
		c-1.3,0-2.1,0.6-2.7,1.2c-0.6,0.5-1,0.9-1.8,0.9c-0.7,0-1.3-0.4-1.9-0.9c-0.6-0.4-1.4-1.3-2.2-1.5C94,13.1,96.6,11,98.9,11z
		 M92.3,17.4c0.7,0.1,1.4,0.5,2,1c0.7,0.5,1.4,1.1,2.5,1.1c1.1,0,1.8-0.6,2.4-1.1c0.6-0.5,1.1-1,2.1-1c0.8,0,1.4,0.4,2.1,0.9
		c0.7,0.5,1.5,1.1,2.7,1.1c1.5,0,2.3-0.6,3-1.2c0.6-0.5,1.2-0.9,2.2-0.9c1.1,0,1.6,0.5,2.2,1c0.6,0.5,1.2,1.1,2.3,1.1
		c1.2,0,1.8-0.6,2.4-1.2c0.3-0.3,0.8-0.5,1.1-0.7c0.3,1,0.5,2.1,0.5,3.3c0,0.2,0,0.4,0,0.6c-1,0.2-1.2,0.6-1.7,1
		c-0.6,0.5-1.4,1-2.3,1c-0.8,0-1.2-0.4-1.8-0.9c-0.7-0.6-1.4-1.2-2.8-1.2c-1.3,0-2.1,0.6-2.8,1.1c-0.7,0.5-1.3,1-2.4,1
		c-0.8,0-1.4-0.4-2.1-0.9c-0.7-0.5-1.5-1.1-2.7-1.1c-1.3,0-2.1,0.6-2.7,1.2c-0.6,0.5-1,0.9-1.8,0.9c-0.7,0-1.3-0.4-1.9-0.9
		c-0.8-0.6-2.1-1.2-3.1-1.2c0-0.2,0-0.3,0-0.5C91.7,19.6,91.9,18.4,92.3,17.4z M113.7,42h-16c-0.6,0-1-0.4-1-1s0.4-1,1-1h0h16h0
		c0.6,0,1,0.5,1,1C114.7,41.6,114.3,42,113.7,42z"/>
</g>
<g>
	<path class="st0" d="M483.9,17.2l-2.7-0.5c-0.1-0.4-0.3-0.9-0.5-1.3l1.8-2.2c1.2-1.4,1.1-3.5-0.1-4.8l-1.6-1.8
		c-0.7-0.8-1.7-1.3-2.8-1.3c-0.7,0-1.4,0.2-2,0.6l-2.3,1.5c-1-0.6-2.1-1.1-3.2-1.5L470,3.2c-0.3-1.8-1.9-3.2-3.7-3.2h-2.4
		c-1.8,0-3.4,1.4-3.7,3.2L459.7,6c-0.8,0.3-1.6,0.6-2.3,1l-2.2-1.6c-0.6-0.5-1.4-0.7-2.2-0.7c-1,0-1.9,0.4-2.7,1.1l-1.7,1.7
		c-1.3,1.3-1.5,3.3-0.4,4.8l1.6,2.2c-0.4,0.7-0.7,1.5-0.9,2.3l-2.8,0.5c-1.8,0.3-3.2,1.9-3.2,3.7v2.4c0,1.8,1.3,3.4,3.2,3.7l2.8,0.5
		c0.2,0.5,0.4,1,0.6,1.5l-1.7,2.1c-1.2,1.4-1.1,3.5,0.1,4.8l1.6,1.8c0.7,0.8,1.7,1.3,2.8,1.3c0.7,0,1.4-0.2,2-0.6l2.4-1.5
		c1,0.6,2,1,3.1,1.4l0.5,2.7c0.3,1.8,1.8,3.1,3.7,3.1h2.4c1.8,0,3.4-1.3,3.7-3.1l0.5-2.7c0.8-0.3,1.5-0.6,2.3-0.9L475,39
		c0.6,0.5,1.4,0.7,2.2,0.7c1,0,1.9-0.4,2.7-1.1l1.7-1.7c1.3-1.3,1.5-3.3,0.4-4.8l-1.7-2.3c0.4-0.7,0.7-1.5,0.9-2.3l2.7-0.5
		c1.8-0.3,3.1-1.9,3.1-3.7v-2.4C487,19.1,485.7,17.5,483.9,17.2z M485,23.3c0,0.9-0.6,1.6-1.4,1.7l-3.9,0.7c-0.4,1.5-1,2.9-1.7,4.2
		l2.4,3.4c0.5,0.7,0.4,1.6-0.2,2.3l-1.7,1.7c-0.3,0.3-0.8,0.5-1.2,0.5c-0.4,0-0.7-0.1-1-0.3l-3.4-2.4c-1.3,0.8-2.7,1.4-4.2,1.7
		l-0.7,3.9c-0.1,0.8-0.9,1.4-1.7,1.4h-2.4c-0.9,0-1.6-0.6-1.7-1.4l-0.7-4c-1.8-0.4-3.4-1.2-4.9-2.1l-3.4,2.2
		c-0.3,0.2-0.6,0.3-0.9,0.3c-0.5,0-1-0.2-1.3-0.6l-1.6-1.8c-0.6-0.6-0.6-1.6-0.1-2.3l2.5-3.1c-0.6-1.1-1-2.3-1.3-3.5l-4-0.7
		c-0.8-0.1-1.5-0.9-1.5-1.7v-2.4c0-0.9,0.7-1.6,1.5-1.7l4-0.7c0.4-1.5,1-2.9,1.7-4.2l-2.3-3.2c-0.5-0.7-0.4-1.6,0.2-2.3l1.7-1.7
		c0.3-0.3,0.8-0.5,1.2-0.5c0.4,0,0.7,0.1,1,0.3l3.2,2.3c1.3-0.8,2.7-1.4,4.2-1.7l0.7-4c0.1-0.8,0.9-1.5,1.7-1.5h2.4
		c0.9,0,1.6,0.7,1.7,1.5l0.7,4c1.8,0.4,3.5,1.2,5,2.3l3.4-2.1c0.3-0.2,0.6-0.3,0.9-0.3c0.5,0,1,0.2,1.3,0.6l1.6,1.8
		c0.6,0.6,0.6,1.6,0.1,2.3l-2.5,3.1c0.5,1,1,2.2,1.3,3.4l3.9,0.7c0.8,0.1,1.4,0.9,1.4,1.7V23.3z"/>
	<path class="st0" d="M465.1,14.6c-4.1,0-7.5,3.4-7.5,7.5c0,4.1,3.4,7.5,7.5,7.5c4.1,0,7.5-3.4,7.5-7.5
		C472.6,18,469.3,14.6,465.1,14.6z M465.1,27.6c-3,0-5.5-2.5-5.5-5.5s2.5-5.5,5.5-5.5s5.5,2.5,5.5,5.5S468.2,27.6,465.1,27.6z"/>
</g>
<path class="st0" d="M733.8,0.9c-12.1,0-22,9.9-22,22s9.9,22,22,22s22-9.9,22-22S745.9,0.9,733.8,0.9z M753.8,21h-10
	c-0.2-2-1-3.4-2.2-4.8l7.1-7.3C751.6,12.2,753.5,16,753.8,21z M717.2,23c0.1,2,0.5,4.3,1.3,6.1c0.1,0.2,0.3,0.5,0.5,0.5
	c0.1,0,0.1,0.1,0.2,0.1c0.3-0.1,0.4-0.8,0.3-1c-0.7-1.7-1.1-3.7-1.3-5.7h5.7c0.2,2,1,4.3,2.2,5.8l-7.1,6.9c-3-3.3-4.9-7.7-5.2-12.7
	H717.2z M727.6,30.7c1.5,1.2,3.4,2,5.4,2.2v10c-5-0.2-9.1-2.1-12.5-5.1L727.6,30.7z M735,32.8c2-0.2,3.8-1,5.2-2.2l7.1,7.1
	c-3.3,3-7.3,4.9-12.3,5.2V32.8z M734.2,30h-0.8c-1.7,0-3-0.3-4.3-1.2l-1.1-0.9v0c-1-1.1-1.9-3.9-2.1-4.9h0.1v-2h-0.1
	c0.2-2,0.8-2.5,1.7-3.6l1.1-0.9c1.4-1.1,3.2-1.7,5.1-1.7c4.4,0,8,3.2,8,7.6C741.8,26.7,738.4,30,734.2,30z M731.2,6.4
	c-3.2,0.5-6.1,1.9-8.4,4L720.5,8c3.3-3,7.5-4.9,12.5-5.1v10c-2,0.2-3.9,1-5.4,2.2l-4.1-4c2.2-1.9,4.9-3.2,7.9-3.7
	c0.3,0,0.5-0.3,0.4-0.6C731.8,6.6,731.5,6.4,731.2,6.4z M740.2,15.2c-1.5-1.2-3.2-2-5.2-2.2V3c5,0.3,9,2.2,12.3,5.2L740.2,15.2z
	 M719,9l2.3,2.6c-1.2,1.4-2.2,3.1-3,4.8c-0.1,0.3,0,0.6,0.3,0.7c0.1,0,0.1,0.1,0.2,0.1c0.2,0,0.4-0.1,0.5-0.3
	c0.7-1.6,1.6-3.1,2.8-4.4l4,3.6c-1.2,1.5-2,2.9-2.3,4.9h-5.7c0-1,0.1-0.9,0.2-1.6c0.1-0.3-0.1-0.3-0.4-0.4c-0.3-0.1-0.5-0.2-0.6,0.1
	c-0.1,0.7-0.2,0.9-0.3,1.9h-3.3C714.1,16,716,12.3,719,9z M748.7,35.8l-7.1-7.3c1.2-1.5,2-3.5,2.2-5.5h10
	C753.5,28,751.7,32.5,748.7,35.8z"/>
<g>
	<path class="st0" d="M664.1,0h-40C623,0,622,1.7,622,2.9v5v2v33c0,1.1,1,1.1,2.1,1.1h29h1L666,32.9v-1v-22v-2v-5
		C666,1.7,665.2,0,664.1,0z M655,41v-8h7.3L655,41z M664,31h-8.9c-1.1,0-2.1,1.7-2.1,2.9V42h-29V9h40V31z M664,7h-40V2h40V7z"/>
	<path class="st0" d="M629.1,15h30c0.6,0,1-0.4,1-1c0-0.6-0.4-1-1-1h-30c-0.6,0-1,0.4-1,1C628.1,14.6,628.5,15,629.1,15z"/>
	<path class="st0" d="M629.1,21h28c0.6,0,1-0.4,1-1c0-0.6-0.4-1-1-1h-28c-0.6,0-1,0.4-1,1C628.1,20.6,628.5,21,629.1,21z"/>
	<path class="st0" d="M629.1,27h30c0.6,0,1-0.4,1-1c0-0.6-0.4-1-1-1h-30c-0.6,0-1,0.4-1,1C628.1,26.6,628.5,27,629.1,27z"/>
	<path class="st0" d="M629.1,33h19c0.6,0,1-0.4,1-1c0-0.6-0.4-1-1-1h-19c-0.6,0-1,0.4-1,1C628.1,32.6,628.5,33,629.1,33z"/>
	<path class="st0" d="M629.1,39h17c0.6,0,1-0.4,1-1c0-0.6-0.4-1-1-1h-17c-0.6,0-1,0.4-1,1C628.1,38.6,628.5,39,629.1,39z"/>
</g>
<g>
	<path class="st0" d="M845,11.5l-1-1c0,0,0,0,0,0l0.7-0.7c0.8-0.8,0.8-2,0-2.8L844,6.2c-0.4-0.4-0.9-0.6-1.4-0.6s-1,0.2-1.4,0.6
		l-0.7,0.7c0,0,0,0,0,0l-1.2-1.2c-0.4-0.4-0.9-0.6-1.4-0.6s-1,0.2-1.4,0.6l-1.1,1.1l-0.8-0.8l1.8-1.8c0.4-0.4,0.4-1,0-1.4
		c-0.4-0.4-1-0.4-1.4,0l-12.6,12.6c-0.4,0.4-0.4,1,0,1.4c0.4,0.4,1,0.4,1.4,0l6.4-6.4l0.8,0.8l-18.1,18.1c-0.8,0.8-0.8,2,0,2.8
		l-3.4,3.6c-0.4,0.4-0.4,0.9-0.4,1.4v1.2c0,0.4-0.1,0.8,0.2,1.2l-1.5,2.3c-0.5,0.9,0.4,1.9,1.3,1.4l2.4-2c0.3,0.2,0.6-0.2,1-0.2h1.2
		c0.5,0,1,0.3,1.4-0.1l3.6-3.3c0.4,0.4,0.9,0.7,1.4,0.7c0.5,0,1-0.1,1.4-0.5L845,14.3C845.7,13.5,845.7,12.3,845,11.5z M842.6,7.6
		L842.6,7.6L842.6,7.6l0.7,0.7l-0.7,0.7l-0.7-0.7L842.6,7.6z M818.6,26.3l14.8-14.8l5.8,5.8l-14.8,14.8L818.6,26.3z M823.7,32.8
		l-0.8,0.8l-5.8-5.8l0.8-0.8L823.7,32.8z M834.1,10.8l0.8-0.8l5.8,5.8l-0.8,0.8L834.1,10.8z M817.2,36.5l-2.1,2.1l-3-3l2.1-2.1
		L817.2,36.5z M812.4,39l-1.4-0.7v-1.2l-0.1-0.1l2.9,2.5l-0.2-0.4H812.4z M820,36.5l-1.1-1.1c-0.1-0.1-0.2-0.2-0.3-0.3l-3-3
		c-0.1-0.1-0.2-0.2-0.3-0.3l-1.1-1.1l2.2-2.2l5.8,5.8L820,36.5z M841.4,15.1l-5.8-6.3l2.2-2.7h0.2v1l5.7,5.8L841.4,15.1z"/>
	<path class="st0" d="M806,41h-4c-0.3,0-0.5,0.2-0.5,0.5s0.2,0.5,0.5,0.5h4c0.3,0,0.5-0.2,0.5-0.5S806.3,41,806,41z"/>
</g>
<g>
	<path class="st0" d="M1016,5h-5c0-1-0.9-2-2-2h-2V2.9c0-1.1-0.9-2.9-2-2.9h-4c-1.1,0-2,1.7-2,2.9V3h-2c-1.1,0-2,1-2,2h-5
		c-1.1,0-2,1.7-2,2.9v35c0,1.1,0.9,1.1,2,1.1h26c1.1,0,2,0,2-1.1v-35C1018,6.7,1017.1,5,1016,5z M997,7.9V5h2h2V3.9V2h4v1.9V5h2h2
		v2.9V8h-12V7.9z M1016,42h-26V7h5v1.9c0,1.1,0.9,1.1,2,1.1h12c1.1,0,2,0,2-1.1V7h5V42z"/>
	<path class="st0" d="M993.8,25.8c-0.4-0.4-1-0.4-1.4,0c-0.4,0.4-0.4,1,0,1.4l5.4,5.4c0.8,0.8,2,0.8,2.8,0l13.2-13.2
		c0.4-0.4,0.4-1,0-1.4c-0.4-0.4-1-0.4-1.4,0l-13.2,13.2L993.8,25.8z"/>
</g>
<g>
	<path class="st0" d="M930.3,5h-34c-0.6,0-1,0.4-1,1c0,0.6,0.4,1,1,1h34c0.6,0,1-0.4,1-1C931.3,5.4,930.8,5,930.3,5z"/>
	<path class="st0" d="M930.3,10h-34c-0.6,0-1,0.4-1,1c0,0.6,0.4,1,1,1h34c0.6,0,1-0.4,1-1C931.3,10.4,930.8,10,930.3,10z"/>
	<path class="st0" d="M930.3,15h-34c-0.6,0-1,0.4-1,1c0,0.6,0.4,1,1,1h34c0.6,0,1-0.4,1-1C931.3,15.4,930.8,15,930.3,15z"/>
	<path class="st0" d="M932.7,0h-38c-1.7,0-3.7,2.2-3.7,3.8V21c0,0.5,0.6,1,0.9,1.4l10.1,9.4c0.4,0.4,1.1,0.2,1.6,0.2h8.9
		c0.2,0,0.5,1.3,0.5,1.5v10.3c0,0.6,0.6,1,1.1,1c0.2,0,0.6-0.1,0.8-0.3l2.3-2.3l2.4,2.3c0.2,0.2,0.3,0.3,0.6,0.3
		c0.5,0,0.9-0.4,0.9-1V33.7c0-0.2,1-1.7,1.3-1.7h10.4c1.7,0,2.3-0.5,2.3-2.2v-26C935,2.2,934.4,0,932.7,0z M901,28.8l-5.3-6.8h5
		c0.6,0,0.3,1.3,0.3,1.8V28.8z M919,41.5l-0.5-0.7l-1.4-1.4l-1.5,1.4l-0.6,0.5V34h4V41.5z M921.4,30.4c-0.9,1.2-2.3,1.6-3.9,1.6
		h-0.2c-1.6,0-3-0.4-3.9-1.6c-0.6-0.8-1-1.6-1-2.8c0-2.8,2.2-4.9,5-4.9s5,2.1,5,4.8C922.4,28.7,922,29.6,921.4,30.4z M933,29.8
		c0,0.6,0.3,0.2-0.3,0.2h-9c0.4-1,0.7-1.5,0.7-2.6c0-3.9-3.1-6.8-7-6.8s-7,2.8-7,6.7c0,1.1,0.2,1.7,0.7,2.7H903v-6.2
		c0-1.7-0.6-3.8-2.3-3.8H893V3.8c0-0.6,1.2-1.8,1.7-1.8h38c0.6,0,0.3,1.3,0.3,1.8V29.8z"/>
	<path class="st0" d="M917.4,24.9c-1.7,0-3,1.3-3,3s1.3,3,3,3s3-1.3,3-3S919,24.9,917.4,24.9z M917.4,28.9c-0.6,0-1-0.4-1-1
		s0.4-1,1-1s1,0.4,1,1S917.9,28.9,917.4,28.9z"/>
</g>
<path class="st0" d="M222,113.1v-4c0-1.1-1.1-2.1-2.2-2.1H219V91.1c0-7.7-6.5-14.1-14.2-14.1h0c-7.7,0-13.8,6.4-13.8,14.1V107h-1.2
	c-1.1,0-1.8,1-1.8,2.1v4c-1,0-2,0.9-2,2v4c0,1.1,0.7,1.9,1.8,1.9h34c1.1,0,2.2-0.8,2.2-1.9v-4C224,114,223,113.1,222,113.1z
	 M193,91.1c0-6.6,5.4-12,12-12c6.6,0,12,5.4,12,12V107h-11v-5.4c0,0.4,1.3,0.5,2,0.5c2.2,0,4-1.8,4-4v-7.9c0-2.2-1.9-4-4.1-4
	c-0.9,0-1.7,0.3-2.4,0.8l-0.6,0.4l-0.6-0.4c-0.7-0.5-1.4-0.8-2.3-0.8c-2.2,0-3.9,1.8-3.9,4v7.9c0,2.2,1.8,4,4,4c0.7,0,1-0.2,2-0.5
	v5.4h-11V91.1z M206,99.1v-10l0.7-0.6c0.4-0.3,0.8-0.4,1.2-0.4c1,0,2.1,0.8,2.1,2v7.9c0,1.2-1.1,2-2.1,2c-0.4,0-0.8-0.1-1.1-0.4
	L206,99.1z M204,89.2v10l-0.9,0.6c-0.4,0.3-0.7,0.4-1.1,0.4c-1,0-2-0.8-2-2v-7.9c0-1.2,0.9-2,1.9-2c0.4,0,0.9,0.1,1.2,0.4L204,89.2z
	 M190,109h0.8h28h1.2v4h-30V109z M222,119h-34v-4h34V119z"/>
<g>
	<path class="st0" d="M283.7,91h8c0.6,0,1-0.4,1-1c0-0.6-0.4-1-1-1h-8c-0.6,0-1,0.4-1,1C282.7,90.6,283.2,91,283.7,91z"/>
	<path class="st0" d="M301.7,113h-18c-0.6,0-1,0.4-1,1c0,0.6,0.4,1,1,1h18c0.6,0,1-0.4,1-1C302.7,113.4,302.3,113,301.7,113z"/>
	<path class="st0" d="M301.7,107h-18c-0.6,0-1,0.4-1,1c0,0.6,0.4,1,1,1h18c0.6,0,1-0.4,1-1C302.7,107.4,302.3,107,301.7,107z"/>
	<path class="st0" d="M283.7,85h8c0.6,0,1-0.4,1-1c0-0.6-0.4-1-1-1h-8c-0.6,0-1,0.4-1,1C282.7,84.6,283.2,85,283.7,85z"/>
	<path class="st0" d="M297,98.5l-2.3,2.3l-4.3-4.3c-0.4-0.4-1-0.4-1.4,0l-6,6c-0.4,0.4-0.4,1,0,1.4h0c0.4,0.4,1,0.4,1.4,0l5.3-5.3
		l5.3,5.3c0.4,0.4,1,0.4,1.4,0c0.4-0.4,0.4-1,0-1.4l-0.3-0.3l1.6-1.6l3.3,3.3c0.4,0.4,1,0.4,1.4,0c0.4-0.4,0.4-1,0-1.4l-4-4
		C298.1,98.1,297.4,98.1,297,98.5z"/>
	<circle class="st0" cx="296.2" cy="95.7" r="1.5"/>
	<path class="st0" d="M308.4,87.9L298,77.5c-0.2-0.2-0.4-0.3-0.7-0.3h-17.5c-1.7,0-3,1.3-3,3v38c0,1.7,1.3,3,3,3h26c1.7,0,3-1.3,3-3
		V88.6C308.7,88.3,308.6,88.1,308.4,87.9z M298.7,81.2l6,6h-5c-0.6,0-1-0.4-1-1V81.2z M305.7,119.2h-26c-0.6,0-1-0.4-1-1v-38
		c0-0.6,0.4-1,1-1h17v7c0,1.7,1.3,3,3,3h7v29C306.7,118.7,306.3,119.2,305.7,119.2z"/>
</g>
<g>
	<path class="st0" d="M380.6,77.2c-12.2,0-22,9.8-22,22s9.8,22,22,22s22-9.8,22-22S392.8,77.2,380.6,77.2z M380.6,119.2
		c-11,0-20-9-20-20s9-20,20-20s20,9,20,20S391.7,119.2,380.6,119.2z"/>
	<path class="st0" d="M383,95c0-1.1-0.9-2-2-2l0,0c-1.1,0-2,0.9-2,2v18c0,1.1,0.9,2,2,2l0,0c1.1,0,2-0.9,2-2V95z"/>
	<path class="st0" d="M383,85c0-1.1-0.9-2-2-2h0c-1.1,0-2,0.9-2,2v2c0,1.1,0.9,2,2,2h0c1.1,0,2-0.9,2-2V85z"/>
</g>
<g>
	<path class="st0" d="M465.3,77.5c-5.4,1.2-9.7,5.4-11,10.7c-1.2,5,0.3,9.7,3.1,13c1.4,1.6,2.2,2.4,3.5,3.9c1.1,1.3,2,1.9,2,3.1v1.1
		c0,1,0.5,1.7,1.5,1.7h8.2c1,0,2.3-0.7,2.3-1.7v-1c0-1.1,0.8-2.1,1.7-3.3c1-1.3,1.6-2.2,2.9-3.8c2.2-2.5,3.5-5.8,3.5-9.5
		C483.2,82.6,474.8,75.5,465.3,77.5z M477.9,100.2c-1.5,2-5.2,5.6-5.2,6.9c0,1.3-0.1,1.9-0.1,1.9h-8c0,0,0-0.5,0-1.7
		c0-1.4-3.7-5.2-5.3-7.2c-2.5-3.2-4.2-7.3-2.7-12.1c1.5-4.5,5.4-8,10.1-8.7c7.7-1.1,14.4,4.9,14.4,12.4
		C481.1,95,479.7,97.7,477.9,100.2z"/>
	<path class="st0" d="M473.6,113h-10c-0.6,0-1,0.4-1,1c0,0.6,0.5,1,1,1h10c0.6,0,1-0.4,1-1C474.6,113.4,474.2,113,473.6,113z"/>
	<path class="st0" d="M472.6,116h-8c-0.6,0-1,0.4-1,1c0,0.6,0.5,1,1,1h8c0.6,0,1-0.4,1-1C473.6,116.4,473.1,116,472.6,116z"/>
	<path class="st0" d="M471.7,119h-6.1c-0.5,0-1,0.5-1,1c0,0.5,0.4,1,1,1h6.1c0.5,0,1-0.5,1-1C472.6,119.5,472.2,119,471.7,119z"/>
	<path class="st0" d="M473.2,89.6l-2.4,1.3l-1.5-1.4c-0.4-0.4-1-0.4-1.4,0l-1.5,1.5l-2.4-1.2c-0.4-0.2-0.9-0.1-1.2,0.2
		c-0.3,0.3-0.4,0.8-0.1,1.2c0,0.1,3.1,5.4,3.1,15c0,0.6,0.4,1,1,1s1-0.4,1-1c0-6.2-1.2-10.7-2.2-13.3l0.5,0.2
		c0.4,0.2,0.8,0.1,1.2-0.2l1.3-1.3l1.3,1.2c0.3,0.3,0.8,0.4,1.2,0.2l0.4-0.2c-0.9,2.6-2,6.9-2,13.3c0,0.6,0.4,1,1,1s1-0.4,1-1
		c0-10.4,3-15,3-15.1c0.3-0.4,0.2-0.9-0.1-1.2C474.1,89.5,473.6,89.4,473.2,89.6z"/>
	<path class="st0" d="M468.5,82.2c0.5,0,1-0.4,1.1-0.9c0-0.6-0.4-1-0.9-1.1c-3.9-0.3-8.8,2.9-10.1,6.6c-0.2,0.5,0.1,1.1,0.6,1.3
		c0.1,0,0.2,0.1,0.3,0.1c0.4,0,0.8-0.3,0.9-0.7C461.4,84.6,465.4,82,468.5,82.2z"/>
	<path class="st0" d="M459.6,91.3c0.1-0.5-0.3-1.1-0.8-1.1c-0.6-0.1-1.1,0.3-1.1,0.8c-0.3,1.9,0,3.7,0.7,5c0.2,0.3,0.5,0.5,0.9,0.5
		c0.2,0,0.3,0,0.5-0.1c0.5-0.3,0.6-0.9,0.4-1.4C459.6,94.1,459.4,92.7,459.6,91.3z"/>
</g>
<g>
	<path class="st0" d="M569.4,82h-5c0-1-0.9-2-2-2H560v-0.9c0-1.1-0.4-2.1-1.6-2.1h-4c-1.1,0-2.4,1-2.4,2.1V80h-1.6c-1.1,0-2,1-2,2
		h-5c-1.1,0-2.4,1-2.4,2.1v35c0,1.1,1.3,1.9,2.4,1.9h26c1.1,0,1.6-0.8,1.6-1.9v-35C571,83,570.6,82,569.4,82z M550,84.1V82h2.4h1.6
		v-1.9V79h4v1.1V82h2.4h1.6v2.1V85h-12V84.1z M569,119h-26V84h5v1.1c0,1.1,1.3,1.9,2.4,1.9h12c1.1,0,1.6-0.8,1.6-1.9V84h5V119z"/>
	<rect x="553" y="111" class="st0" width="4" height="4"/>
	<path class="st0" d="M562,93c-1.4-1.2-3.3-1.8-5.7-1.8c-2.2,0-4.1,0.6-5.5,1.7c-1.4,1.1-2.1,2.8-2,4.9l0,0.2h4.6
		c0-1,0.3-1.7,0.9-2.2c0.6-0.5,1.2-0.8,2-0.8c1,0,1.7,0.2,2.2,0.8c0.5,0.6,0.8,1.3,0.8,2.3c0,0.9-0.2,1.7-0.7,2.4
		c-0.5,0.7-1.1,1.4-1.8,2c-1.3,1-2.2,1.6-2.6,2.3c-0.4,0.7-0.7,2.1-0.7,3.1h4.7c0,0,0.1-1.4,0.3-1.9c0.2-0.5,0.6-0.9,1.3-1.4
		c1.2-0.8,2.2-1.7,3-2.9c0.8-1.2,1.2-2.4,1.2-3.8C564.1,95.9,563.4,94.3,562,93z"/>
</g>
<path class="st0" d="M664.1,79h-14c-1.1,0-2,1-2,2.1v1c0,1.1,0.9,1.9,2,1.9h0.2l0.7,6h-13.7l0.7-6h0.2c1.1,0,1.9-0.8,1.9-1.9v-1
	c0-1.1-0.8-2.1-1.9-2.1h-14c-1.1,0-2.1,1-2.1,2.1v1c0,1.1,1,1.9,2.1,1.9h0.2l1.5,14.1c-1,0.1-1.8,1-1.8,2v1c0,1.1,1,1.8,2.1,1.8h0.3
	l1.4,10h-0.2c-0.4,0-0.7,0.3-0.9,0.6l-0.9,1.4c-0.8,1.3,0.2,3,1.7,3h7c1.6,0,2.5-1.6,1.7-2.9l-0.9-1.6c-0.2-0.3-0.5-0.5-0.9-0.5
	h-0.2l0.4-3h18.5l0.4,3h-0.2c-0.4,0-0.7,0.3-0.9,0.6l-0.9,1.4c-0.8,1.3,0.2,3,1.7,3h7c1.6,0,2.5-1.6,1.7-2.9l-0.9-1.6
	c-0.2-0.3-0.5-0.5-0.9-0.5h-0.2l1.4-10h0.3c1.1,0,1.9-0.7,1.9-1.8v-1c0-1-0.8-1.9-1.8-2l1.6-14.1h0.2c1.1,0,1.9-0.8,1.9-1.9v-1
	C666,80,665.2,79,664.1,79z M651.1,92l0.2,2h-14.6l0.2-2H651.1z M652,103h0.3l0.1,1h-16.8l0.1-1h0.3c1.1,0,1.9-0.7,1.9-1.8v-1
	c0-1-0.7-1.9-1.8-2l0.3-2.1h15.1l0.2,2.1c-1,0.1-1.8,1-1.8,2v1C650,102.3,650.9,103,652,103z M624,82v-1h14v1H624z M635.8,84
	l-1.6,14h-6.4l-1.6-14H635.8z M634.6,116h-7l0.6-1h5.8L634.6,116z M628.4,103h5.4l-1.4,10h-2.6L628.4,103z M626,101v-1h10v1H626z
	 M635.1,108l0.3-2h17.4l0.3,2H635.1z M660.5,116h-7l0.6-1h5.8L660.5,116z M654.3,103h5.4l-1.4,10h-2.6L654.3,103z M662,101L662,101
	L662,101h-10v-1h10V101z M652.3,84h9.6l-1.6,14h-6.4L652.3,84z M664,82h-14v-1h14V82z"/>
<g>
	<path class="st0" d="M750.3,77h-24c-2.2,0-4,1.9-4,4.1l0,22c0,0.8,0.5,1.5,1.2,1.9c0.3,0.1,0.5,0.2,0.8,0.2c0.5,0,1-0.2,1.4-0.6
		l3.5-3.5h21.1c2.2,0,3.7-1.7,3.7-3.9v-16C754,78.9,752.5,77,750.3,77z M752,97.1c0,1.1-0.6,1.9-1.7,1.9h-21.9l-4.1,4.1l0-22
		c0-1.1,0.9-2,2-2h24c1.1,0,1.7,1,1.7,2.1V97.1z"/>
	<path class="st0" d="M741.3,103.1c-0.6,0-1,0.4-1,1l0,14.9l-4.1-4.1h-21.9c-1.1,0-2.3-0.7-2.3-1.8v-16c0-1.1,1.2-2.2,2.3-2.2h5
		c0.6,0,1-0.4,1-1c0-0.6-0.4-1-1-1h-5c-2.2,0-4.3,1.9-4.3,4.1v16c0,2.2,2.1,3.8,4.3,3.8h21.1l3.5,3.5c0.4,0.4,0.9,0.6,1.4,0.6
		c0.3,0,0.5,0,0.8-0.1c0.7-0.3,1.2-1,1.2-1.8l0-15C742.3,103.6,741.8,103.1,741.3,103.1z"/>
	<circle class="st0" cx="715.3" cy="105.1" r="1"/>
	<circle class="st0" cx="719.3" cy="105.1" r="1"/>
	<path class="st0" d="M749.3,82h-22c-0.6,0-1,0.4-1,1c0,0.6,0.4,1,1,1h22c0.6,0,1-0.4,1-1C750.3,82.4,749.8,82,749.3,82z"/>
	<path class="st0" d="M727.3,88h16c0.6,0,1-0.4,1-1c0-0.6-0.4-1-1-1h-16c-0.6,0-1,0.4-1,1C726.3,87.6,726.7,88,727.3,88z"/>
	<path class="st0" d="M749.3,90h-22c-0.6,0-1,0.4-1,1c0,0.6,0.4,1,1,1h22c0.6,0,1-0.4,1-1C750.3,90.4,749.8,90,749.3,90z"/>
	<path class="st0" d="M737.3,94h-10c-0.6,0-1,0.4-1,1c0,0.6,0.4,1,1,1h10c0.6,0,1-0.4,1-1C738.3,94.4,737.8,94,737.3,94z"/>
</g>
<g>
	<path class="st0" d="M830,90.1c0-0.6-0.5-1.1-1.1-1.1h-17.8c-0.6,0-1.1,0.5-1.1,1.1v17.8c0,0.6,0.5,1.1,1.1,1.1h17.8
		c0.6,0,1.1-0.5,1.1-1.1V90.1z M812,91h16v16h-16V91z"/>
	<path class="st0" d="M841.2,100c0.6,0,1-0.4,1-1c0-0.6-0.4-1-1-1H838v-9h3.2c0.6,0,1-0.4,1-1c0-0.6-0.4-1-1-1H838v-3.5
		c0-1.1-0.7-2.5-1.8-2.5H832v-2.5c0-0.6-0.4-1-1-1s-1,0.4-1,1V81h-9v-2.5c0-0.6-0.4-1-1-1s-1,0.4-1,1V81h-9v-2.5c0-0.6-0.4-1-1-1
		s-1,0.4-1,1V81h-3.8c-1.1,0-2.2,1.3-2.2,2.5V87h-2.8c-0.6,0-1,0.4-1,1c0,0.6,0.4,1,1,1h2.8v9h-2.8c-0.6,0-1,0.4-1,1
		c0,0.6,0.4,1,1,1h2.8v9h-2.8c-0.6,0-1,0.4-1,1c0,0.6,0.4,1,1,1h2.8v4.5c0,1.1,1.1,1.5,2.2,1.5h3.8v3.5c0,0.6,0.4,1,1,1s1-0.4,1-1
		V117h9v3.5c0,0.6,0.4,1,1,1s1-0.4,1-1V117h9v3.5c0,0.6,0.4,1,1,1s1-0.4,1-1V117h4.2c1.1,0,1.8-0.4,1.8-1.5V111h3.2c0.6,0,1-0.4,1-1
		c0-0.6-0.4-1-1-1H838v-9H841.2z M836,115h-32V83h32V115z"/>
</g>
<path class="st0" d="M928.1,92H926v-1.6c0-1.1-0.8-2.4-1.9-2.4H922v-1.6c0-1.1-0.7-2.4-1.8-2.4h-1.9c-1.1,0-2.3,1.3-2.3,2.4V95h-16
	v-8.6c0-1.1-1-2.4-2.1-2.4H896c-1.1,0-2,1.3-2,2.4V88h-2c-1.1,0-2,1.3-2,2.4V92h-1.9c-1.1,0-2.1,1.3-2.1,2.4v10.2
	c0,1.1,1,1.4,2.1,1.4h1.9v2.6c0,1.1,0.9,1.4,2,1.4h2v2.6c0,1.1,0.9,1.4,2,1.4h1.9c1.1,0,2.1-0.3,2.1-1.4V103h16v9.6
	c0,1.1,1.2,1.4,2.3,1.4h1.9c1.1,0,1.8-0.3,1.8-1.4V110h2.1c1.1,0,1.9-0.3,1.9-1.4V106h2.1c1.1,0,1.9-0.3,1.9-1.4V94.4
	C930,93.3,929.2,92,928.1,92z M890,104h-2V94h2V104z M894,108h-2V90h2V108z M898,112h-2V86h2V112z M916,101h-16v-4h16V101z M920,112
	h-2v-8.5v-8V86h2V112z M924,108h-2V90h2V108z M928,104h-2V94h2V104z"/>
<g>
	<path class="st0" d="M999,119h-1.3H979c-1.6,0-3-1.2-3-2.8V113h18.8c0.6,0,1.2-0.5,1.2-1.1c0-0.5-0.4-0.8-0.8-0.8l-11.2,0V79h18
		c1.1,0,2,1,2,2.1l0,17.1c0,0.5,0.4,1,1,1c0.6,0,1-0.4,1-1l0-17c0-2.2-1.8-4.1-4-4.1h-18h-3h-3c-2.2,0-4,1.9-4,4.1v31v1v3
		c0,2.8,2.2,4.8,5,4.8h20C1000,121,1000,119,999,119z M978,79h3v32.1l-5,0l0-30.1C976,80,976.9,79,978,79z"/>
	<path class="st0" d="M979.5,115c-0.6,0-1,0.4-1,1s0.4,1,1,1H995c0.6,0,1-0.4,1-1s-0.4-1-1-1H979.5z"/>
	<path class="st0" d="M1008,101.1c-5.5,0-10,4.5-10,10s4.5,10,10,10s10-4.5,10-10S1013.5,101.1,1008,101.1z M1008,119.1
		c-4.4,0-8-3.6-8-8s3.6-8,8-8s8,3.6,8,8S1012.4,119.1,1008,119.1z"/>
	<path class="st0" d="M1011,110h-2v-1.9c0-0.6-0.4-1-1-1s-1,0.4-1,1v1.9h-2c-0.6,0-1,0.4-1,1c0,0.6,0.4,1,1,1h2v2.1c0,0.6,0.4,1,1,1
		s1-0.4,1-1V112h2c0.6,0,1-0.4,1-1C1012,110.4,1011.6,110,1011,110z"/>
</g>
<path class="st0" d="M299.7,14H296V4.4c0-1.1-1.2-2.4-2.3-2.4h-18c0-1-0.9-2-2-2h-2c-1.1,0-1.7,1.3-1.7,2.4v40
	c0,1.1,0.6,1.6,1.7,1.6h2c1.1,0,2.3-0.5,2.3-1.6V21h7v8.4v0c0,0.1-0.3-0.4-0.3-0.4h0c0.1,2,1.6,4,4,4h13c1.1,0,2.3-0.5,2.3-1.6v-15
	C302,15.3,300.8,14,299.7,14z M274,21.4V42h-2V2h2V21.4z M282.7,19H276V4.4l18,0c0,0.3,0,5.2,0,10V20c-1-0.5-1.6-1-2.3-1h-7H282.7z
	 M293.7,23c-0.1,1-0.7,2-2,2c-0.7,0-5,0-5.5,0c-0.4,0-1.1,0.8-1.1,1.5V21c4,0,6.5,0,6.6,0C292.8,21,293.5,22.1,293.7,23z M300,31
	c0,0-12,0-13.4,0c-1.2,0-2-1-2-2h0c0,0,0,0.2,0,0.2l0,0.2c0-0.8,0.7-1.9,2-1.9c0,0,0,0,0,0c0,0,0-0.2,0-0.2c0,0,0-0.2,0-0.2h4.9
	c2.4,0,4.1-1.8,4.2-3.8l0.2,0.2V16h4V31z"/>
<g>
	<path class="st0" d="M565.3,21.8c-0.2,0.2-0.3,0.4-0.3,0.7l0,18.6c0,0.3-0.1,0.5-0.3,0.7c-0.2,0.2-1,0.3-1.3,0.3l-28.6,0
		c-0.5,0-1-0.4-1-1l0-29.1c0-0.5,0.4-1,1-1h18.7c0.3,0,0.5-0.1,0.7-0.3l0,0c0.6-0.6,0.1-1.7-0.7-1.7h-18.7c-1.6,0-2.9,1.3-2.9,2.9
		V43c0,0.5,0.4,1,1,1l30.5,0h0c1.3,0,3.5,0,3.5-2c0,0,0,0,0,0l0,0c0,0,0,0,0,0c0,0,0,0,0,0V22.5C567,21.6,566,21.2,565.3,21.8z"/>
	<path class="st0" d="M575.6,5.5l-5.1-5.1c-0.3-0.3-0.6-0.4-1-0.4c-0.4,0-0.7,0.1-1,0.4L546.4,23c-0.3,0.3-0.4,0.6-0.4,1v4.6
		c0,0.8,0.6,1.4,1.4,1.4h4.6c0.4,0,0.7-0.1,1-0.4l22.6-22.1C576.1,7,576.1,6.1,575.6,5.5z M548,28l0-3l2.9,3L548,28z M552.9,27.1
		l-4-4l16.6-16.9l4.3,4.3L552.9,27.1z M571.2,9.1l-4.3-4.3l2.6-2.6l4.3,4.3L571.2,9.1z"/>
	<path class="st0" d="M541.9,29H537c-0.5,0-1,0.5-1,1c0,0.5,0.4,1,1,1h4.9c0.5,0,1-0.5,1-1C542.9,29.5,542.4,29,541.9,29z"/>
	<path class="st0" d="M541.9,25H537c-0.5,0-1,0.5-1,1s0.4,1,1,1h4.9c0.5,0,1-0.5,1-1S542.4,25,541.9,25z"/>
	<path class="st0" d="M543.9,22c0-0.5-0.4-1-1-1H537c-0.5,0-1,0.5-1,1s0.4,1,1,1h5.9C543.4,23,543.9,22.5,543.9,22z"/>
	<path class="st0" d="M548,18c0-0.5-0.4-1-1-1h-9.8c-0.5,0-1,0.5-1,1c0,0.5,0.4,1,1,1h9.8C547.6,19,548,18.5,548,18z"/>
	<path class="st0" d="M550.7,14c0-0.5-0.4-1-0.9-1H537c-0.5,0-1,0.5-1,1c0,0.5,0.4,1,1,1h12.8C550.4,15,550.7,14.5,550.7,14z"/>
</g>
</svg>
