<?xml version="1.0" encoding="utf-8"?>
<!-- Generator: Adobe Illustrator 18.0.0, SVG Export Plug-In . SVG Version: 6.00 Build 0)  -->
<!DOCTYPE svg PUBLIC "-//W3C//DTD SVG 1.1//EN" "http://www.w3.org/Graphics/SVG/1.1/DTD/svg11.dtd">
<svg version="1.1" id="Calque_1" xmlns="http://www.w3.org/2000/svg" xmlns:xlink="http://www.w3.org/1999/xlink" x="0px" y="0px"
	 viewBox="0 0 288 288" style="enable-background:new 0 0 288 288;" xml:space="preserve">
<style type="text/css">
	.st0{fill:#FFFFFF;}
	.st1{opacity:0.4;}
	.st2{fill:#A8ADB9;}
	.st3{fill:#373737;}
	.st4{opacity:0.6;fill:#00B0DC;}
	.st5{fill:#00B0DC;}
</style>
<path class="st0" d="M284,288H4c-2.2,0-4-1.8-4-4V4c0-2.2,1.8-4,4-4h280c2.2,0,4,1.8,4,4v280C288,286.2,286.2,288,284,288z"/>
<g class="st1">
	<rect x="55.8" y="56.3" class="st2" width="0.5" height="176"/>
	<rect x="59.9" y="56.3" class="st2" width="0.5" height="176"/>
	<rect x="64" y="56.3" class="st2" width="0.5" height="176"/>
	<rect x="68.1" y="56.3" class="st2" width="0.5" height="176"/>
	<rect x="72.2" y="56.3" class="st2" width="0.5" height="176"/>
	<rect x="76.3" y="56.3" class="st2" width="0.5" height="176"/>
	<rect x="80.3" y="56.3" class="st2" width="0.5" height="176"/>
	<rect x="84.4" y="56.3" class="st2" width="0.5" height="176"/>
	<rect x="92.6" y="56.3" class="st2" width="0.5" height="176"/>
	<rect x="96.7" y="56.3" class="st2" width="0.5" height="176"/>
	<rect x="100.8" y="56.3" class="st2" width="0.5" height="176"/>
	<rect x="109" y="56.3" class="st2" width="0.5" height="176"/>
	<rect x="117.2" y="56.3" class="st2" width="0.5" height="176"/>
	<rect x="125.4" y="56.3" class="st2" width="0.5" height="176"/>
	<rect x="133.6" y="56.3" class="st2" width="0.5" height="176"/>
	<rect x="141.8" y="56.3" class="st2" width="0.5" height="176"/>
	<rect x="149.9" y="56.3" class="st2" width="0.5" height="176"/>
	<rect x="158.1" y="56.3" class="st2" width="0.5" height="176"/>
	<rect x="166.3" y="56.3" class="st2" width="0.5" height="176"/>
	<rect x="174.5" y="56.3" class="st2" width="0.5" height="176"/>
	<rect x="182.7" y="56.3" class="st2" width="0.5" height="176"/>
	<rect x="190.9" y="56.3" class="st2" width="0.5" height="176"/>
	<rect x="195" y="56.3" class="st2" width="0.5" height="176"/>
	<rect x="199.1" y="56.3" class="st2" width="0.5" height="176"/>
	<rect x="203.2" y="56.3" class="st2" width="0.5" height="176"/>
	<rect x="207.3" y="56.3" class="st2" width="0.5" height="176"/>
	<rect x="211.4" y="56.3" class="st2" width="0.5" height="176"/>
	<rect x="215.4" y="56.3" class="st2" width="0.5" height="176"/>
	<rect x="219.5" y="56.3" class="st2" width="0.5" height="176"/>
	<rect x="223.6" y="56.3" class="st2" width="0.5" height="176"/>
	<rect x="227.7" y="56.3" class="st2" width="0.5" height="176"/>
	<rect x="231.8" y="56.3" class="st2" width="0.5" height="176"/>
	<rect x="88.5" y="56.3" class="st2" width="0.5" height="176"/>
	<rect x="104.9" y="56.3" class="st2" width="0.5" height="176"/>
	<rect x="113.1" y="56.3" class="st2" width="0.5" height="176"/>
	<rect x="121.3" y="56.3" class="st2" width="0.5" height="176"/>
	<rect x="129.5" y="56.3" class="st2" width="0.5" height="176"/>
	<rect x="137.7" y="56.3" class="st2" width="0.5" height="176"/>
	<rect x="145.9" y="56.3" class="st2" width="0.5" height="176"/>
	<rect x="154" y="56.3" class="st2" width="0.5" height="176"/>
	<rect x="162.2" y="56.3" class="st2" width="0.5" height="176"/>
	<rect x="170.4" y="56.3" class="st2" width="0.5" height="176"/>
	<rect x="178.6" y="56.3" class="st2" width="0.5" height="176"/>
	<rect x="186.8" y="56.3" class="st2" width="0.5" height="176"/>
	<rect x="56.5" y="55.8" class="st2" width="176" height="0.5"/>
	<rect x="56.5" y="59.9" class="st2" width="176" height="0.5"/>
	<rect x="56.5" y="64" class="st2" width="176" height="0.5"/>
	<rect x="56.5" y="68.1" class="st2" width="176" height="0.5"/>
	<rect x="56.5" y="72.2" class="st2" width="176" height="0.5"/>
	<rect x="56.5" y="76.3" class="st2" width="176" height="0.5"/>
	<rect x="56.5" y="80.4" class="st2" width="176" height="0.5"/>
	<rect x="56.5" y="84.5" class="st2" width="176" height="0.5"/>
	<rect x="56.5" y="92.6" class="st2" width="176" height="0.5"/>
	<rect x="56.5" y="96.7" class="st2" width="176" height="0.5"/>
	<rect x="56.5" y="100.8" class="st2" width="176" height="0.5"/>
	<rect x="56.5" y="109" class="st2" width="176" height="0.5"/>
	<rect x="56.5" y="117.2" class="st2" width="176" height="0.5"/>
	<rect x="56.5" y="125.4" class="st2" width="176" height="0.5"/>
	<rect x="56.5" y="133.6" class="st2" width="176" height="0.5"/>
	<rect x="56.5" y="141.8" class="st2" width="176" height="0.5"/>
	<rect x="56.5" y="150" class="st2" width="176" height="0.5"/>
	<rect x="56.5" y="158.1" class="st2" width="176" height="0.5"/>
	<rect x="56.5" y="166.3" class="st2" width="176" height="0.5"/>
	<rect x="56.5" y="174.5" class="st2" width="176" height="0.5"/>
	<rect x="56.5" y="182.7" class="st2" width="176" height="0.5"/>
	<rect x="56.5" y="190.9" class="st2" width="176" height="0.5"/>
	<rect x="56.5" y="195" class="st2" width="176" height="0.5"/>
	<rect x="56.5" y="199.1" class="st2" width="176" height="0.5"/>
	<rect x="56.5" y="203.2" class="st2" width="176" height="0.5"/>
	<rect x="56.5" y="207.3" class="st2" width="176" height="0.5"/>
	<rect x="56.5" y="211.4" class="st2" width="176" height="0.5"/>
	<rect x="56.5" y="215.5" class="st2" width="176" height="0.5"/>
	<rect x="56.5" y="219.6" class="st2" width="176" height="0.5"/>
	<rect x="56.5" y="223.6" class="st2" width="176" height="0.5"/>
	<rect x="56.5" y="227.7" class="st2" width="176" height="0.5"/>
	<rect x="56.5" y="231.8" class="st2" width="176" height="0.5"/>
	<rect x="56.5" y="88.5" class="st2" width="176" height="0.5"/>
	<rect x="56.5" y="104.9" class="st2" width="176" height="0.5"/>
	<rect x="56.5" y="113.1" class="st2" width="176" height="0.5"/>
	<rect x="56.5" y="121.3" class="st2" width="176" height="0.5"/>
	<rect x="56.5" y="129.5" class="st2" width="176" height="0.5"/>
	<rect x="56.5" y="137.7" class="st2" width="176" height="0.5"/>
	<rect x="56.5" y="145.9" class="st2" width="176" height="0.5"/>
	<rect x="56.5" y="154.1" class="st2" width="176" height="0.5"/>
	<rect x="56.5" y="162.2" class="st2" width="176" height="0.5"/>
	<rect x="56.5" y="170.4" class="st2" width="176" height="0.5"/>
	<rect x="56.5" y="178.6" class="st2" width="176" height="0.5"/>
	<rect x="56.5" y="186.8" class="st2" width="176" height="0.5"/>
</g>
<g class="st1">
	<path class="st3" d="M224.5,56.3h-160c-4.4,0-8,3.4-8,7.8v20v8v132c0,4.4,3.6,8.2,8,8.2h116h4.1l47.9-45.6v-6.6v-88v-8v-20
		C232.5,59.7,228.9,56.3,224.5,56.3z M187.2,219.8v-28.5h29.9L187.2,219.8z M223.9,182.9h-36.8c-4.4,0-8,3.4-8,7.8v33.1H64.5v-131
		h159.4V182.9z M223.9,84.8H64.5V64.3h159.4V84.8z"/>
	<path class="st3" d="M84.5,117.4h120c2.2,0,4-1.8,4-4c0-2.2-1.8-4-4-4h-120c-2.2,0-4,1.8-4,4C80.5,115.6,82.3,117.4,84.5,117.4z"/>
	<path class="st3" d="M84.5,142h112c2.2,0,4-1.8,4-4c0-2.2-1.8-4-4-4h-112c-2.2,0-4,1.8-4,4C80.5,140.2,82.3,142,84.5,142z"/>
	<path class="st3" d="M84.5,166.4h120c2.2,0,4-1.8,4-4c0-2.2-1.8-4-4-4h-120c-2.2,0-4,1.8-4,4C80.5,164.6,82.3,166.4,84.5,166.4z"/>
	<path class="st3" d="M84.5,191h76c2.2,0,4-1.8,4-4c0-2.2-1.8-4-4-4h-76c-2.2,0-4,1.8-4,4C80.5,189.2,82.3,191,84.5,191z"/>
	<path class="st3" d="M84.5,215.9h68c2.2,0,4-1.8,4-4c0-2.2-1.8-4-4-4h-68c-2.2,0-4,1.8-4,4C80.5,214.1,82.3,215.9,84.5,215.9z"/>
</g>
<circle class="st4" cx="187.8" cy="191" r="8.6"/>
<rect x="101.5" y="92.8" class="st4" width="40.5" height="16.5"/>
<rect x="101.5" y="133.8" class="st4" width="40.5" height="8"/>
<g>
	<path class="st5" d="M23.9,103.1v0.8H23v1.2h-0.8v-1.2h-3.9l4.7-6.7h0v6H23.9z M22.1,99.7L22.1,99.7l-2.4,3.4h2.4V99.7z"/>
	<path class="st5" d="M25.9,101L25.9,101c0.2-0.3,0.5-0.5,0.7-0.6s0.6-0.2,0.9-0.2c0.3,0,0.7,0.1,0.9,0.2c0.3,0.1,0.5,0.3,0.7,0.5
		c0.2,0.2,0.3,0.5,0.5,0.8c0.1,0.3,0.2,0.6,0.2,0.9c0,0.3-0.1,0.6-0.2,1c-0.1,0.3-0.3,0.6-0.4,0.8s-0.4,0.4-0.7,0.5
		c-0.3,0.1-0.6,0.2-1,0.2c-0.3,0-0.6-0.1-0.9-0.2s-0.5-0.3-0.7-0.6h0v3.3h-0.8v-7.3h0.8V101z M27.4,101c-0.2,0-0.4,0-0.6,0.1
		c-0.2,0.1-0.3,0.2-0.5,0.4c-0.1,0.2-0.2,0.3-0.3,0.5s-0.1,0.4-0.1,0.6c0,0.2,0,0.5,0.1,0.7c0.1,0.2,0.2,0.4,0.3,0.6
		c0.1,0.2,0.3,0.3,0.5,0.4c0.2,0.1,0.4,0.1,0.7,0.1c0.3,0,0.5,0,0.7-0.1c0.2-0.1,0.4-0.2,0.5-0.4c0.1-0.2,0.2-0.4,0.3-0.6
		c0.1-0.2,0.1-0.4,0.1-0.7c0-0.2,0-0.5-0.1-0.7c-0.1-0.2-0.2-0.4-0.3-0.5s-0.3-0.3-0.5-0.4C27.8,101,27.6,101,27.4,101z"/>
	<path class="st5" d="M30.4,100.4h1l1.2,1.6l1.2-1.6h1l-1.7,2.2l2,2.5h-1l-1.5-1.9l-1.5,1.9h-1l2-2.5L30.4,100.4z"/>
</g>
<g>
	<path class="st5" d="M23.5,139.5v0.8h-4.9l3.5-4.2c0.2-0.2,0.3-0.4,0.4-0.6s0.1-0.4,0.1-0.7c0-0.2,0-0.4-0.1-0.6
		c-0.1-0.2-0.2-0.3-0.3-0.5c-0.1-0.1-0.3-0.2-0.5-0.3c-0.2-0.1-0.4-0.1-0.6-0.1c-0.2,0-0.4,0-0.6,0.1c-0.2,0.1-0.3,0.2-0.5,0.3
		s-0.2,0.3-0.3,0.5c-0.1,0.2-0.1,0.4-0.1,0.6h-0.8c0-0.3,0.1-0.6,0.2-0.9c0.1-0.3,0.3-0.5,0.5-0.7s0.5-0.4,0.7-0.5s0.6-0.2,0.9-0.2
		c0.3,0,0.6,0.1,0.9,0.2s0.5,0.3,0.8,0.5c0.2,0.2,0.4,0.4,0.5,0.7c0.1,0.3,0.2,0.6,0.2,0.9c0,0.6-0.2,1.2-0.6,1.6l-2.6,3.1H23.5z"/>
	<path class="st5" d="M25.9,136.3L25.9,136.3c0.2-0.3,0.5-0.5,0.7-0.6s0.6-0.2,0.9-0.2c0.3,0,0.7,0.1,0.9,0.2
		c0.3,0.1,0.5,0.3,0.7,0.5c0.2,0.2,0.3,0.5,0.5,0.8c0.1,0.3,0.2,0.6,0.2,0.9c0,0.3-0.1,0.6-0.2,1c-0.1,0.3-0.3,0.6-0.4,0.8
		s-0.4,0.4-0.7,0.5c-0.3,0.1-0.6,0.2-1,0.2c-0.3,0-0.6-0.1-0.9-0.2s-0.5-0.3-0.7-0.6h0v3.3h-0.8v-7.3h0.8V136.3z M27.4,136.2
		c-0.2,0-0.4,0-0.6,0.1c-0.2,0.1-0.3,0.2-0.5,0.4c-0.1,0.2-0.2,0.3-0.3,0.5s-0.1,0.4-0.1,0.6c0,0.2,0,0.5,0.1,0.7
		c0.1,0.2,0.2,0.4,0.3,0.6c0.1,0.2,0.3,0.3,0.5,0.4c0.2,0.1,0.4,0.1,0.7,0.1c0.3,0,0.5,0,0.7-0.1c0.2-0.1,0.4-0.2,0.5-0.4
		c0.1-0.2,0.2-0.4,0.3-0.6c0.1-0.2,0.1-0.4,0.1-0.7c0-0.2,0-0.5-0.1-0.7c-0.1-0.2-0.2-0.4-0.3-0.5s-0.3-0.3-0.5-0.4
		C27.8,136.2,27.6,136.2,27.4,136.2z"/>
	<path class="st5" d="M30.4,135.6h1l1.2,1.6l1.2-1.6h1l-1.7,2.2l2,2.5h-1l-1.5-1.9l-1.5,1.9h-1l2-2.5L30.4,135.6z"/>
</g>
<rect x="43.5" y="99.8" class="st4" width="54" height="1"/>
<rect x="43.5" y="137.8" class="st4" width="54" height="1"/>
<g>
	<path class="st5" d="M23.5,192.5v0.8h-4.9l3.5-4.2c0.2-0.2,0.3-0.4,0.4-0.6s0.1-0.4,0.1-0.7c0-0.2,0-0.4-0.1-0.6
		c-0.1-0.2-0.2-0.3-0.3-0.5c-0.1-0.1-0.3-0.2-0.5-0.3c-0.2-0.1-0.4-0.1-0.6-0.1c-0.2,0-0.4,0-0.6,0.1c-0.2,0.1-0.3,0.2-0.5,0.3
		s-0.2,0.3-0.3,0.5c-0.1,0.2-0.1,0.4-0.1,0.6h-0.8c0-0.3,0.1-0.6,0.2-0.9c0.1-0.3,0.3-0.5,0.5-0.7s0.5-0.4,0.7-0.5s0.6-0.2,0.9-0.2
		c0.3,0,0.6,0.1,0.9,0.2s0.5,0.3,0.8,0.5c0.2,0.2,0.4,0.4,0.5,0.7c0.1,0.3,0.2,0.6,0.2,0.9c0,0.6-0.2,1.2-0.6,1.6l-2.6,3.1H23.5z"/>
	<path class="st5" d="M25.9,189.3L25.9,189.3c0.2-0.3,0.5-0.5,0.7-0.6s0.6-0.2,0.9-0.2c0.3,0,0.7,0.1,0.9,0.2
		c0.3,0.1,0.5,0.3,0.7,0.5c0.2,0.2,0.3,0.5,0.5,0.8c0.1,0.3,0.2,0.6,0.2,0.9c0,0.3-0.1,0.6-0.2,1c-0.1,0.3-0.3,0.6-0.4,0.8
		s-0.4,0.4-0.7,0.5c-0.3,0.1-0.6,0.2-1,0.2c-0.3,0-0.6-0.1-0.9-0.2s-0.5-0.3-0.7-0.6h0v3.3h-0.8v-7.3h0.8V189.3z M27.4,189.2
		c-0.2,0-0.4,0-0.6,0.1c-0.2,0.1-0.3,0.2-0.5,0.4c-0.1,0.2-0.2,0.3-0.3,0.5s-0.1,0.4-0.1,0.6c0,0.2,0,0.5,0.1,0.7
		c0.1,0.2,0.2,0.4,0.3,0.6c0.1,0.2,0.3,0.3,0.5,0.4c0.2,0.1,0.4,0.1,0.7,0.1c0.3,0,0.5,0,0.7-0.1c0.2-0.1,0.4-0.2,0.5-0.4
		c0.1-0.2,0.2-0.4,0.3-0.6c0.1-0.2,0.1-0.4,0.1-0.7c0-0.2,0-0.5-0.1-0.7c-0.1-0.2-0.2-0.4-0.3-0.5s-0.3-0.3-0.5-0.4
		C27.8,189.2,27.6,189.2,27.4,189.2z"/>
	<path class="st5" d="M30.4,188.6h1l1.2,1.6l1.2-1.6h1l-1.7,2.2l2,2.5h-1l-1.5-1.9l-1.5,1.9h-1l2-2.5L30.4,188.6z"/>
</g>
<rect x="43.5" y="190.8" class="st4" width="131" height="1"/>
</svg>
