<?xml version="1.0" encoding="utf-8"?>
<!-- Generator: Adobe Illustrator 18.0.0, SVG Export Plug-In . SVG Version: 6.00 Build 0)  -->
<!DOCTYPE svg PUBLIC "-//W3C//DTD SVG 1.1//EN" "http://www.w3.org/Graphics/SVG/1.1/DTD/svg11.dtd">
<svg version="1.1" id="Calque_1" xmlns="http://www.w3.org/2000/svg" xmlns:xlink="http://www.w3.org/1999/xlink" x="0px" y="0px"
	 viewBox="0 0 144 144" style="enable-background:new 0 0 144 144;" xml:space="preserve">
<style type="text/css">
	.st0{fill:#FFFFFF;}
	.st1{opacity:0.4;}
	.st2{fill:#A8ADB9;}
	.st3{fill:#373737;}
	.st4{fill:#00B0DC;}
</style>
<path class="st0" d="M140,144H4c-2.2,0-4-1.8-4-4V4c0-2.2,1.8-4,4-4h136c2.2,0,4,1.8,4,4v136C144,142.2,142.2,144,140,144z"/>
<g class="st1">
	<rect x="27.8" y="28.2" class="st2" width="0.5" height="88"/>
	<rect x="32" y="28.2" class="st2" width="0.5" height="88"/>
	<rect x="36.1" y="28.2" class="st2" width="0.5" height="88"/>
	<rect x="40.3" y="28.2" class="st2" width="0.5" height="88"/>
	<rect x="48.7" y="28.2" class="st2" width="0.5" height="88"/>
	<rect x="99" y="28.2" class="st2" width="0.5" height="88"/>
	<rect x="103.2" y="28.2" class="st2" width="0.5" height="88"/>
	<rect x="107.4" y="28.2" class="st2" width="0.5" height="88"/>
	<rect x="111.6" y="28.2" class="st2" width="0.5" height="88"/>
	<rect x="115.8" y="28.2" class="st2" width="0.5" height="88"/>
	<rect x="44.5" y="28.2" class="st2" width="0.5" height="88"/>
	<rect x="52.9" y="28.2" class="st2" width="0.5" height="88"/>
	<rect x="57.1" y="28.2" class="st2" width="0.5" height="88"/>
	<rect x="61.3" y="28.2" class="st2" width="0.5" height="88"/>
	<rect x="65.5" y="28.2" class="st2" width="0.5" height="88"/>
	<rect x="69.7" y="28.2" class="st2" width="0.5" height="88"/>
	<rect x="73.9" y="28.2" class="st2" width="0.5" height="88"/>
	<rect x="78.1" y="28.2" class="st2" width="0.5" height="88"/>
	<rect x="82.3" y="28.2" class="st2" width="0.5" height="88"/>
	<rect x="86.4" y="28.2" class="st2" width="0.5" height="88"/>
	<rect x="90.6" y="28.2" class="st2" width="0.5" height="88"/>
	<rect x="94.8" y="28.2" class="st2" width="0.5" height="88"/>
	<rect x="28.2" y="27.8" class="st2" width="88" height="0.5"/>
	<rect x="28.2" y="32" class="st2" width="88" height="0.5"/>
	<rect x="28.2" y="36.2" class="st2" width="88" height="0.5"/>
	<rect x="28.2" y="40.3" class="st2" width="88" height="0.5"/>
	<rect x="28.2" y="48.7" class="st2" width="88" height="0.5"/>
	<rect x="28.2" y="99" class="st2" width="88" height="0.5"/>
	<rect x="28.2" y="103.2" class="st2" width="88" height="0.5"/>
	<rect x="28.2" y="107.4" class="st2" width="88" height="0.5"/>
	<rect x="28.2" y="111.6" class="st2" width="88" height="0.5"/>
	<rect x="28.2" y="115.8" class="st2" width="88" height="0.5"/>
	<rect x="28.2" y="44.5" class="st2" width="88" height="0.5"/>
	<rect x="28.2" y="52.9" class="st2" width="88" height="0.5"/>
	<rect x="28.2" y="57.1" class="st2" width="88" height="0.5"/>
	<rect x="28.2" y="61.3" class="st2" width="88" height="0.5"/>
	<rect x="28.2" y="65.5" class="st2" width="88" height="0.5"/>
	<rect x="28.2" y="69.7" class="st2" width="88" height="0.5"/>
	<rect x="28.2" y="73.9" class="st2" width="88" height="0.5"/>
	<rect x="28.2" y="78.1" class="st2" width="88" height="0.5"/>
	<rect x="28.2" y="82.3" class="st2" width="88" height="0.5"/>
	<rect x="28.2" y="86.5" class="st2" width="88" height="0.5"/>
	<rect x="28.2" y="90.6" class="st2" width="88" height="0.5"/>
	<rect x="28.2" y="94.8" class="st2" width="88" height="0.5"/>
</g>
<g class="st1">
	<path class="st3" d="M102,103.6c-1.3,0-2.3,1-2.3,2.3v2.1c0,2.2-1.7,4-3.9,4H50.4c-3.3,0-6-2.7-6-6l0-6.3h51.3c4.4,0,8-3.6,8-8
		l0.1-55.5c0-4.4-3.6-8-8-8H58.4h-4h-6c-4.4,0-8,3.6-8,8v64.1l0,0v7.7c0,4.4,3.6,8,8,8h47c4.6,0,8.3-3.8,8.3-8.4v-2.3
		C103.7,104.3,102.9,103.6,102,103.6z M95.8,32.1c2.2,0,3.9,1.3,3.9,3.5l0,56.1c0,2.2-1.8,4-4,4l-36.9,0l-0.1-63.5H95.8z M44.4,36.1
		c0-2.2,1.8-4,4-4h6.2v63.5l-10.2,0V36.1z"/>
	<polygon class="st3" points="102.8,103.9 102.8,103.9 102.8,103.9 	"/>
	<path class="st3" d="M50.6,103.8c-1.1,0-2,0.9-2,2c0,1.1,0.9,2,2,2l43,0c1.1,0,2.1-0.9,2.1-2c0-1.1-0.9-2-2-2H50.6z"/>
</g>
<rect x="28" y="5.2" class="st4" width="1" height="17"/>
<rect x="116.5" y="5.2" class="st4" width="1" height="17"/>
<rect x="121.7" y="27.4" class="st4" width="17" height="1"/>
<rect x="121.7" y="115.9" class="st4" width="17" height="1"/>
<rect x="6.2" y="27.4" class="st4" width="17" height="1"/>
<rect x="6.2" y="115.9" class="st4" width="17" height="1"/>
<rect x="28" y="122.2" class="st4" width="1" height="17"/>
<rect x="116.5" y="122.2" class="st4" width="1" height="17"/>
<g>
	<path class="st4" d="M124,77.4v0.8h-4.9l3.5-4.2c0.2-0.2,0.3-0.4,0.4-0.6c0.1-0.2,0.1-0.4,0.1-0.7c0-0.2,0-0.4-0.1-0.6
		c-0.1-0.2-0.2-0.3-0.3-0.5c-0.1-0.1-0.3-0.2-0.5-0.3s-0.4-0.1-0.6-0.1c-0.2,0-0.4,0-0.6,0.1c-0.2,0.1-0.3,0.2-0.5,0.3
		c-0.1,0.1-0.2,0.3-0.3,0.5c-0.1,0.2-0.1,0.4-0.1,0.6h-0.8c0-0.3,0.1-0.6,0.2-0.9c0.1-0.3,0.3-0.5,0.5-0.7c0.2-0.2,0.4-0.4,0.7-0.5
		s0.6-0.2,0.9-0.2c0.3,0,0.6,0.1,0.9,0.2c0.3,0.1,0.5,0.3,0.8,0.5s0.4,0.4,0.5,0.7c0.1,0.3,0.2,0.6,0.2,0.9c0,0.6-0.2,1.1-0.6,1.6
		l-2.6,3.1H124z"/>
	<path class="st4" d="M130.2,77.4v0.8h-4.9l3.5-4.2c0.2-0.2,0.3-0.4,0.4-0.6c0.1-0.2,0.1-0.4,0.1-0.7c0-0.2,0-0.4-0.1-0.6
		c-0.1-0.2-0.2-0.3-0.3-0.5c-0.1-0.1-0.3-0.2-0.5-0.3s-0.4-0.1-0.6-0.1c-0.2,0-0.4,0-0.6,0.1c-0.2,0.1-0.3,0.2-0.5,0.3
		c-0.1,0.1-0.2,0.3-0.3,0.5c-0.1,0.2-0.1,0.4-0.1,0.6h-0.8c0-0.3,0.1-0.6,0.2-0.9c0.1-0.3,0.3-0.5,0.5-0.7c0.2-0.2,0.4-0.4,0.7-0.5
		s0.6-0.2,0.9-0.2c0.3,0,0.6,0.1,0.9,0.2c0.3,0.1,0.5,0.3,0.8,0.5s0.4,0.4,0.5,0.7c0.1,0.3,0.2,0.6,0.2,0.9c0,0.6-0.2,1.1-0.6,1.6
		l-2.6,3.1H130.2z"/>
	<path class="st4" d="M132.6,74.2L132.6,74.2c0.2-0.3,0.4-0.5,0.7-0.6s0.6-0.2,0.9-0.2c0.3,0,0.7,0.1,0.9,0.2
		c0.3,0.1,0.5,0.3,0.7,0.5c0.2,0.2,0.3,0.5,0.5,0.8c0.1,0.3,0.2,0.6,0.2,0.9c0,0.3-0.1,0.6-0.2,0.9s-0.3,0.6-0.4,0.8
		s-0.4,0.4-0.7,0.5c-0.3,0.1-0.6,0.2-1,0.2c-0.3,0-0.6-0.1-0.9-0.2s-0.5-0.3-0.7-0.6h0v3.3h-0.8v-7.3h0.8V74.2z M134.1,74.1
		c-0.2,0-0.4,0-0.6,0.1c-0.2,0.1-0.3,0.2-0.5,0.4c-0.1,0.2-0.2,0.3-0.3,0.5s-0.1,0.4-0.1,0.6c0,0.2,0,0.5,0.1,0.7
		c0.1,0.2,0.2,0.4,0.3,0.6s0.3,0.3,0.5,0.4c0.2,0.1,0.4,0.1,0.7,0.1c0.3,0,0.5,0,0.7-0.1c0.2-0.1,0.4-0.2,0.5-0.4
		c0.1-0.2,0.2-0.4,0.3-0.6c0.1-0.2,0.1-0.4,0.1-0.7c0-0.2,0-0.5-0.1-0.7c-0.1-0.2-0.2-0.4-0.3-0.5c-0.1-0.2-0.3-0.3-0.5-0.4
		C134.5,74.2,134.3,74.1,134.1,74.1z"/>
	<path class="st4" d="M137.1,73.5h1l1.2,1.6l1.2-1.6h1l-1.7,2.2l2,2.5h-1l-1.5-1.9l-1.5,1.9h-1l2-2.5L137.1,73.5z"/>
</g>
<g>
	<path class="st4" d="M66.5,135.9v0.8h-4.9l3.5-4.2c0.2-0.2,0.3-0.4,0.4-0.6s0.1-0.4,0.1-0.7c0-0.2,0-0.4-0.1-0.6s-0.2-0.3-0.3-0.5
		s-0.3-0.2-0.5-0.3c-0.2-0.1-0.4-0.1-0.6-0.1c-0.2,0-0.4,0-0.6,0.1c-0.2,0.1-0.3,0.2-0.5,0.3s-0.2,0.3-0.3,0.5
		c-0.1,0.2-0.1,0.4-0.1,0.6h-0.8c0-0.3,0.1-0.6,0.2-0.9c0.1-0.3,0.3-0.5,0.5-0.7s0.5-0.4,0.7-0.5c0.3-0.1,0.6-0.2,0.9-0.2
		c0.3,0,0.6,0.1,0.9,0.2c0.3,0.1,0.5,0.3,0.8,0.5c0.2,0.2,0.4,0.4,0.5,0.7c0.1,0.3,0.2,0.6,0.2,0.9c0,0.6-0.2,1.2-0.6,1.6l-2.6,3.1
		H66.5z"/>
	<path class="st4" d="M72.6,135.9v0.8h-4.9l3.5-4.2c0.2-0.2,0.3-0.4,0.4-0.6s0.1-0.4,0.1-0.7c0-0.2,0-0.4-0.1-0.6s-0.2-0.3-0.3-0.5
		s-0.3-0.2-0.5-0.3c-0.2-0.1-0.4-0.1-0.6-0.1c-0.2,0-0.4,0-0.6,0.1c-0.2,0.1-0.3,0.2-0.5,0.3s-0.2,0.3-0.3,0.5
		c-0.1,0.2-0.1,0.4-0.1,0.6h-0.8c0-0.3,0.1-0.6,0.2-0.9c0.1-0.3,0.3-0.5,0.5-0.7s0.5-0.4,0.7-0.5c0.3-0.1,0.6-0.2,0.9-0.2
		c0.3,0,0.6,0.1,0.9,0.2c0.3,0.1,0.5,0.3,0.8,0.5c0.2,0.2,0.4,0.4,0.5,0.7c0.1,0.3,0.2,0.6,0.2,0.9c0,0.6-0.2,1.2-0.6,1.6l-2.6,3.1
		H72.6z"/>
	<path class="st4" d="M75,132.6L75,132.6c0.2-0.3,0.5-0.5,0.7-0.6s0.6-0.2,0.9-0.2c0.3,0,0.7,0.1,0.9,0.2c0.3,0.1,0.5,0.3,0.7,0.6
		s0.3,0.5,0.5,0.8c0.1,0.3,0.2,0.6,0.2,0.9c0,0.3-0.1,0.7-0.2,1c-0.1,0.3-0.3,0.6-0.4,0.8s-0.4,0.4-0.7,0.5c-0.3,0.1-0.6,0.2-1,0.2
		c-0.3,0-0.6-0.1-0.9-0.2s-0.5-0.3-0.7-0.6h0v3.3h-0.8v-7.3H75V132.6z M76.5,132.6c-0.2,0-0.4,0-0.6,0.1s-0.3,0.2-0.5,0.4
		s-0.2,0.3-0.3,0.5S75,134,75,134.2c0,0.2,0,0.5,0.1,0.7c0.1,0.2,0.2,0.4,0.3,0.6c0.1,0.2,0.3,0.3,0.5,0.4s0.4,0.2,0.7,0.2
		c0.3,0,0.5,0,0.7-0.1c0.2-0.1,0.4-0.2,0.5-0.4c0.1-0.2,0.2-0.4,0.3-0.6c0.1-0.2,0.1-0.4,0.1-0.7c0-0.2,0-0.5-0.1-0.7
		c-0.1-0.2-0.2-0.4-0.3-0.5c-0.1-0.2-0.3-0.3-0.5-0.4C77,132.6,76.8,132.6,76.5,132.6z"/>
	<path class="st4" d="M79.6,131.9h1l1.2,1.6l1.2-1.6h1l-1.7,2.2l2,2.5h-1l-1.5-1.9l-1.5,1.9h-1l2-2.5L79.6,131.9z"/>
</g>
</svg>
