<?xml version="1.0" encoding="utf-8"?>
<!-- Generator: Adobe Illustrator 18.0.0, SVG Export Plug-In . SVG Version: 6.00 Build 0)  -->
<!DOCTYPE svg PUBLIC "-//W3C//DTD SVG 1.1//EN" "http://www.w3.org/Graphics/SVG/1.1/DTD/svg11.dtd">
<svg version="1.1" id="Calque_1" xmlns="http://www.w3.org/2000/svg" xmlns:xlink="http://www.w3.org/1999/xlink" x="0px" y="0px"
	 viewBox="0 0 134.6 57.9" style="enable-background:new 0 0 134.6 57.9;" xml:space="preserve">
<style type="text/css">
	.st0{fill:#004459;}
</style>
<g>
	<g>
		<path class="st0" d="M11.5,15.1l-1.9-4.8h-6l-1.8,4.8H0L5.9,0h1.5l5.9,15.1H11.5z M9.1,8.7L7.3,4.1C7.1,3.5,6.9,2.8,6.6,1.9
			C6.5,2.6,6.3,3.3,6,4.1L4.2,8.7H9.1z"/>
		<path class="st0" d="M23.1,15.1l-0.3-1.6h-0.1c-0.6,0.7-1.1,1.2-1.7,1.4c-0.6,0.2-1.3,0.4-2.1,0.4c-1.1,0-2-0.3-2.6-0.9
			s-0.9-1.4-0.9-2.5c0-2.3,1.8-3.5,5.4-3.6l1.9-0.1V7.6c0-0.9-0.2-1.5-0.6-2c-0.4-0.4-1-0.6-1.8-0.6c-0.9,0-2,0.3-3.2,0.9l-0.5-1.3
			c0.6-0.3,1.2-0.5,1.8-0.7s1.3-0.3,2-0.3c1.3,0,2.3,0.3,3,0.9c0.6,0.6,1,1.5,1,2.9v7.7H23.1z M19.2,13.9c1.1,0,1.9-0.3,2.5-0.9
			c0.6-0.6,0.9-1.4,0.9-2.4v-1l-1.7,0.1c-1.4,0-2.3,0.3-2.9,0.6c-0.6,0.4-0.9,1-0.9,1.7c0,0.6,0.2,1.1,0.6,1.4S18.5,13.9,19.2,13.9z
			"/>
	</g>
	<g>
		<path class="st0" d="M9.9,32c0,1.6-0.4,2.9-1.2,3.8s-1.9,1.4-3.4,1.4c-1.5,0-2.6-0.5-3.4-1.4S0.7,33.7,0.7,32
			c0-1.6,0.4-2.9,1.2-3.8s1.9-1.3,3.4-1.3c1.4,0,2.6,0.5,3.4,1.4S9.9,30.4,9.9,32z M2,32c0,1.4,0.3,2.4,0.9,3.1s1.4,1,2.5,1
			c1.1,0,1.9-0.3,2.5-1s0.8-1.7,0.8-3.1c0-1.3-0.3-2.4-0.8-3.1s-1.4-1-2.5-1c-1.1,0-1.9,0.3-2.5,1S2,30.7,2,32z"/>
		<path class="st0" d="M16.2,37.2c-0.5,0-0.9-0.1-1.3-0.3s-0.7-0.5-1-0.8h-0.1c0.1,0.4,0.1,0.9,0.1,1.2v3.1h-1.1V29.6h0.9l0.2,1h0.1
			c0.3-0.4,0.6-0.7,1-0.9s0.8-0.3,1.3-0.3c1,0,1.8,0.3,2.3,1s0.8,1.6,0.8,2.9c0,1.2-0.3,2.2-0.8,2.9S17.1,37.2,16.2,37.2z M16,30.4
			c-0.8,0-1.3,0.2-1.7,0.6s-0.5,1.1-0.5,2v0.3c0,1.1,0.2,1.8,0.5,2.3s0.9,0.7,1.7,0.7c0.6,0,1.2-0.3,1.5-0.8s0.6-1.2,0.6-2.2
			c0-0.9-0.2-1.7-0.6-2.1S16.7,30.4,16,30.4z"/>
		<path class="st0" d="M25.1,37.2c-1.1,0-2-0.3-2.6-1s-1-1.6-1-2.8c0-1.2,0.3-2.2,0.9-2.9s1.4-1.1,2.4-1.1c0.9,0,1.7,0.3,2.2,0.9
			s0.8,1.4,0.8,2.4v0.7h-5.2c0,0.9,0.2,1.5,0.7,2s1,0.7,1.8,0.7c0.8,0,1.6-0.2,2.4-0.5v1c-0.4,0.2-0.8,0.3-1.1,0.4
			S25.6,37.2,25.1,37.2z M24.8,30.4c-0.6,0-1.1,0.2-1.4,0.6s-0.6,0.9-0.6,1.6h3.9c0-0.7-0.2-1.3-0.5-1.6S25.4,30.4,24.8,30.4z"/>
		<path class="st0" d="M35.6,37.1v-4.8c0-0.6-0.1-1.1-0.4-1.4s-0.7-0.5-1.3-0.5c-0.8,0-1.4,0.2-1.7,0.6s-0.5,1.1-0.5,2.1v3.9h-1.1
			v-7.5h0.9l0.2,1h0.1c0.2-0.4,0.6-0.7,1-0.9s0.9-0.3,1.4-0.3c0.9,0,1.6,0.2,2,0.7s0.7,1.1,0.7,2.1v4.9H35.6z"/>
		<path class="st0" d="M50,34.4c0,0.9-0.3,1.6-1,2.1s-1.5,0.7-2.6,0.7c-1.2,0-2.1-0.2-2.7-0.5v-1.1c0.4,0.2,0.9,0.3,1.3,0.4
			s1,0.2,1.4,0.2c0.8,0,1.4-0.1,1.8-0.4s0.6-0.7,0.6-1.2c0-0.3-0.1-0.6-0.2-0.9s-0.4-0.4-0.7-0.6s-0.8-0.4-1.5-0.6
			c-0.9-0.3-1.6-0.7-2-1.2s-0.6-1.1-0.6-1.8c0-0.8,0.3-1.4,0.9-1.8s1.3-0.7,2.3-0.7c1,0,1.9,0.2,2.7,0.5l-0.4,1
			c-0.8-0.3-1.6-0.5-2.4-0.5c-0.6,0-1.1,0.1-1.4,0.4S45,29,45,29.5c0,0.3,0.1,0.6,0.2,0.9s0.3,0.4,0.6,0.6s0.8,0.4,1.4,0.6
			c1,0.4,1.8,0.8,2.2,1.2S50,33.7,50,34.4z"/>
		<path class="st0" d="M57.1,37.1L56.9,36h-0.1c-0.4,0.5-0.7,0.8-1.1,1s-0.8,0.2-1.4,0.2c-0.7,0-1.3-0.2-1.7-0.6S52,35.7,52,35
			c0-1.5,1.2-2.3,3.6-2.4l1.3,0v-0.5c0-0.6-0.1-1-0.4-1.3s-0.7-0.4-1.2-0.4c-0.6,0-1.3,0.2-2.1,0.6l-0.3-0.9
			c0.4-0.2,0.8-0.4,1.2-0.5s0.9-0.2,1.3-0.2c0.9,0,1.6,0.2,2,0.6s0.6,1,0.6,1.9v5.1H57.1z M54.6,36.3c0.7,0,1.3-0.2,1.7-0.6
			s0.6-0.9,0.6-1.6v-0.7l-1.1,0c-0.9,0-1.6,0.2-2,0.4s-0.6,0.6-0.6,1.2c0,0.4,0.1,0.7,0.4,0.9S54.1,36.3,54.6,36.3z"/>
		<path class="st0" d="M66.1,37.1v-4.8c0-0.6-0.1-1.1-0.4-1.4s-0.7-0.5-1.3-0.5c-0.8,0-1.4,0.2-1.7,0.6s-0.5,1.1-0.5,2.1v3.9H61
			v-7.5h0.9l0.2,1h0.1c0.2-0.4,0.6-0.7,1-0.9s0.9-0.3,1.4-0.3c0.9,0,1.6,0.2,2,0.7s0.7,1.1,0.7,2.1v4.9H66.1z"/>
		<path class="st0" d="M75.1,35c0,0.7-0.3,1.2-0.8,1.6s-1.2,0.6-2.2,0.6c-1,0-1.8-0.2-2.3-0.5v-1.1c0.4,0.2,0.7,0.3,1.2,0.4
			s0.8,0.2,1.2,0.2c0.6,0,1-0.1,1.4-0.3s0.5-0.5,0.5-0.9c0-0.3-0.1-0.5-0.4-0.7s-0.7-0.5-1.5-0.7c-0.7-0.3-1.2-0.5-1.5-0.7
			s-0.5-0.4-0.7-0.7s-0.2-0.5-0.2-0.9c0-0.6,0.2-1.1,0.7-1.4s1.2-0.5,2-0.5c0.8,0,1.6,0.2,2.4,0.5l-0.4,0.9c-0.8-0.3-1.4-0.5-2-0.5
			c-0.5,0-0.9,0.1-1.2,0.3s-0.4,0.4-0.4,0.7c0,0.2,0.1,0.4,0.2,0.5s0.3,0.3,0.5,0.4s0.7,0.3,1.3,0.6c0.9,0.3,1.5,0.6,1.8,1
			S75.1,34.5,75.1,35z"/>
		<path class="st0" d="M83.4,32.9v4.2h-1.2v-10h2.7c1.2,0,2.1,0.2,2.7,0.7s0.9,1.2,0.9,2.1c0,1.3-0.7,2.2-2,2.7l2.7,4.5h-1.4
			l-2.4-4.2H83.4z M83.4,31.9h1.6c0.8,0,1.4-0.2,1.8-0.5s0.6-0.8,0.6-1.5c0-0.7-0.2-1.1-0.6-1.4s-1-0.4-1.9-0.4h-1.5V31.9z"/>
		<path class="st0" d="M94.5,37.2c-1.1,0-2-0.3-2.6-1s-1-1.6-1-2.8c0-1.2,0.3-2.2,0.9-2.9s1.4-1.1,2.4-1.1c0.9,0,1.7,0.3,2.2,0.9
			s0.8,1.4,0.8,2.4v0.7h-5.2c0,0.9,0.2,1.5,0.7,2s1,0.7,1.8,0.7c0.8,0,1.6-0.2,2.4-0.5v1c-0.4,0.2-0.8,0.3-1.1,0.4
			S95,37.2,94.5,37.2z M94.2,30.4c-0.6,0-1.1,0.2-1.4,0.6s-0.6,0.9-0.6,1.6h3.9c0-0.7-0.2-1.3-0.5-1.6S94.8,30.4,94.2,30.4z"/>
		<path class="st0" d="M106.1,29.6v0.7l-1.4,0.2c0.1,0.2,0.2,0.4,0.3,0.6s0.2,0.5,0.2,0.9c0,0.7-0.3,1.3-0.8,1.8s-1.2,0.7-2.1,0.7
			c-0.2,0-0.4,0-0.6-0.1c-0.5,0.3-0.7,0.6-0.7,1c0,0.2,0.1,0.4,0.3,0.5s0.5,0.1,0.9,0.1h1.3c0.8,0,1.4,0.2,1.9,0.5s0.7,0.8,0.7,1.5
			c0,0.8-0.3,1.5-1,1.9s-1.6,0.7-2.9,0.7c-1,0-1.7-0.2-2.3-0.5S99,39,99,38.3c0-0.5,0.1-0.9,0.4-1.2s0.7-0.6,1.2-0.7
			c-0.2-0.1-0.4-0.2-0.5-0.4s-0.2-0.4-0.2-0.6c0-0.3,0.1-0.5,0.2-0.7s0.4-0.4,0.7-0.6c-0.4-0.2-0.7-0.4-0.9-0.8s-0.4-0.8-0.4-1.3
			c0-0.8,0.2-1.5,0.7-1.9s1.2-0.7,2.1-0.7c0.4,0,0.7,0,1.1,0.1H106.1z M100.1,38.3c0,0.4,0.2,0.7,0.5,0.9s0.8,0.3,1.5,0.3
			c1,0,1.7-0.1,2.1-0.4s0.7-0.7,0.7-1.2c0-0.4-0.1-0.7-0.4-0.8s-0.7-0.2-1.4-0.2h-1.4c-0.5,0-0.9,0.1-1.2,0.4S100.1,37.8,100.1,38.3
			z M100.7,32c0,0.5,0.1,0.9,0.4,1.2s0.7,0.4,1.2,0.4c1.1,0,1.7-0.5,1.7-1.6c0-1.1-0.6-1.7-1.7-1.7c-0.5,0-0.9,0.1-1.2,0.4
			S100.7,31.4,100.7,32z"/>
		<path class="st0" d="M109.4,29.6v4.9c0,0.6,0.1,1.1,0.4,1.4s0.7,0.5,1.3,0.5c0.8,0,1.4-0.2,1.7-0.6s0.5-1.1,0.5-2.1v-3.9h1.1v7.5
			h-0.9l-0.2-1h-0.1c-0.2,0.4-0.6,0.7-1,0.8s-0.9,0.3-1.4,0.3c-0.9,0-1.6-0.2-2-0.6s-0.7-1.1-0.7-2.1v-4.9H109.4z"/>
		<path class="st0" d="M118.7,37.1h-1.1V26.4h1.1V37.1z"/>
		<path class="st0" d="M126.4,37.1l-0.2-1.1h-0.1c-0.4,0.5-0.7,0.8-1.1,1s-0.8,0.2-1.4,0.2c-0.7,0-1.3-0.2-1.7-0.6s-0.6-0.9-0.6-1.6
			c0-1.5,1.2-2.3,3.6-2.4l1.3,0v-0.5c0-0.6-0.1-1-0.4-1.3s-0.7-0.4-1.2-0.4c-0.6,0-1.3,0.2-2.1,0.6l-0.3-0.9
			c0.4-0.2,0.8-0.4,1.2-0.5s0.9-0.2,1.3-0.2c0.9,0,1.6,0.2,2,0.6s0.6,1,0.6,1.9v5.1H126.4z M123.9,36.3c0.7,0,1.3-0.2,1.7-0.6
			s0.6-0.9,0.6-1.6v-0.7l-1.1,0c-0.9,0-1.6,0.2-2,0.4s-0.6,0.6-0.6,1.2c0,0.4,0.1,0.7,0.4,0.9S123.4,36.3,123.9,36.3z"/>
		<path class="st0" d="M133.7,29.4c0.3,0,0.6,0,0.9,0.1l-0.2,1.1c-0.3-0.1-0.6-0.1-0.8-0.1c-0.6,0-1.1,0.2-1.6,0.7s-0.6,1.1-0.6,1.8
			v4h-1.1v-7.5h0.9l0.1,1.4h0.1c0.3-0.5,0.6-0.9,1-1.1S133.3,29.4,133.7,29.4z"/>
	</g>
	<g>
		<path class="st0" d="M10.2,49.5c0,1.7-0.4,2.9-1.2,3.8s-2,1.3-3.5,1.3s-2.7-0.4-3.5-1.3s-1.2-2.2-1.2-3.8s0.4-2.9,1.2-3.8
			s2-1.3,3.5-1.3s2.7,0.4,3.5,1.3S10.2,47.9,10.2,49.5z M2.9,49.5c0,1.1,0.2,2,0.6,2.5s1.1,0.8,1.9,0.8c1.7,0,2.5-1.1,2.5-3.4
			c0-2.3-0.8-3.4-2.5-3.4c-0.8,0-1.5,0.3-1.9,0.9S2.9,48.4,2.9,49.5z"/>
		<path class="st0" d="M17,54.7c-0.9,0-1.6-0.3-2.1-1h-0.1c0.1,0.6,0.1,1,0.1,1.1v3.1h-2.1v-11h1.7l0.3,1h0.1
			c0.5-0.8,1.2-1.1,2.2-1.1c0.9,0,1.6,0.3,2.1,1s0.8,1.7,0.8,2.9c0,0.8-0.1,1.5-0.4,2.1s-0.6,1.1-1,1.4S17.6,54.7,17,54.7z
			 M16.4,48.4c-0.5,0-0.9,0.2-1.1,0.5s-0.4,0.8-0.4,1.6v0.2c0,0.8,0.1,1.4,0.4,1.8s0.6,0.5,1.2,0.5c0.9,0,1.4-0.8,1.4-2.3
			c0-0.8-0.1-1.3-0.3-1.7S16.9,48.4,16.4,48.4z"/>
		<path class="st0" d="M25.8,54.7c-1.2,0-2.2-0.3-2.9-1s-1-1.6-1-2.9c0-1.3,0.3-2.3,1-3s1.5-1,2.7-1c1.1,0,1.9,0.3,2.5,0.9
			s0.9,1.5,0.9,2.5v1H24c0,0.6,0.2,1.1,0.5,1.4s0.8,0.5,1.4,0.5c0.5,0,0.9,0,1.3-0.1s0.8-0.2,1.3-0.5v1.6c-0.4,0.2-0.8,0.3-1.2,0.4
			S26.4,54.7,25.8,54.7z M25.5,48.2c-0.4,0-0.8,0.1-1,0.4s-0.4,0.7-0.4,1.2H27c0-0.5-0.1-0.9-0.4-1.2S26,48.2,25.5,48.2z"/>
		<path class="st0" d="M38.4,54.6h-2.1v-4.5c0-0.6-0.1-1-0.3-1.2s-0.5-0.4-0.9-0.4c-0.6,0-1,0.2-1.3,0.6s-0.4,1-0.4,1.9v3.6h-2.1
			v-7.6h1.6l0.3,1h0.1c0.2-0.4,0.6-0.6,1-0.8s0.9-0.3,1.4-0.3c0.9,0,1.6,0.2,2,0.7s0.7,1.2,0.7,2.1V54.6z"/>
		<path class="st0" d="M51.6,51.8c0,0.9-0.3,1.6-1,2.1s-1.6,0.8-2.7,0.8c-1.1,0-2-0.2-2.8-0.6v-2c0.7,0.3,1.2,0.5,1.7,0.6
			s0.9,0.2,1.3,0.2c0.5,0,0.8-0.1,1.1-0.3s0.4-0.4,0.4-0.8c0-0.2-0.1-0.4-0.2-0.5s-0.3-0.3-0.5-0.4s-0.6-0.4-1.3-0.7
			c-0.6-0.3-1.1-0.6-1.4-0.8s-0.5-0.6-0.7-0.9s-0.3-0.8-0.3-1.2c0-0.9,0.3-1.6,0.9-2.1s1.4-0.8,2.5-0.8c0.5,0,1,0.1,1.5,0.2
			s1,0.3,1.5,0.5l-0.7,1.6c-0.5-0.2-1-0.4-1.3-0.5s-0.7-0.1-1-0.1c-0.4,0-0.7,0.1-0.9,0.3s-0.3,0.4-0.3,0.7c0,0.2,0,0.3,0.1,0.5
			s0.2,0.3,0.4,0.4s0.6,0.4,1.3,0.7c0.9,0.4,1.6,0.9,1.9,1.3S51.6,51.1,51.6,51.8z"/>
		<path class="st0" d="M58.8,54.6l-0.4-1h-0.1c-0.4,0.4-0.7,0.7-1.1,0.9s-0.9,0.3-1.5,0.3c-0.7,0-1.3-0.2-1.7-0.6s-0.6-1-0.6-1.8
			c0-0.8,0.3-1.4,0.9-1.8s1.4-0.6,2.6-0.6l1.3,0v-0.3c0-0.8-0.4-1.2-1.2-1.2c-0.6,0-1.3,0.2-2.2,0.6l-0.7-1.4
			c0.9-0.5,1.9-0.7,2.9-0.7c1,0,1.8,0.2,2.4,0.7s0.8,1.1,0.8,2v5.1H58.8z M58.2,51l-0.8,0c-0.6,0-1.1,0.1-1.4,0.3s-0.4,0.5-0.4,0.9
			c0,0.6,0.3,0.9,1,0.9c0.5,0,0.9-0.1,1.2-0.4s0.4-0.6,0.4-1.1V51z"/>
		<path class="st0" d="M70.2,54.6h-2.1v-4.5c0-0.6-0.1-1-0.3-1.2s-0.5-0.4-0.9-0.4c-0.6,0-1,0.2-1.3,0.6s-0.4,1-0.4,1.9v3.6h-2.1
			v-7.6h1.6l0.3,1h0.1c0.2-0.4,0.6-0.6,1-0.8s0.9-0.3,1.4-0.3c0.9,0,1.6,0.2,2,0.7s0.7,1.2,0.7,2.1V54.6z"/>
		<path class="st0" d="M78.4,52.3c0,0.8-0.3,1.4-0.8,1.8s-1.4,0.6-2.4,0.6c-0.6,0-1,0-1.4-0.1s-0.8-0.2-1.1-0.3v-1.7
			c0.4,0.2,0.8,0.3,1.3,0.5s0.9,0.2,1.3,0.2c0.8,0,1.1-0.2,1.1-0.7c0-0.2-0.1-0.3-0.2-0.4s-0.3-0.2-0.5-0.3s-0.6-0.3-1-0.5
			c-0.6-0.2-1-0.5-1.3-0.7s-0.5-0.5-0.6-0.7s-0.2-0.6-0.2-1c0-0.7,0.3-1.2,0.8-1.6s1.3-0.6,2.2-0.6c0.9,0,1.8,0.2,2.7,0.6l-0.6,1.5
			c-0.4-0.2-0.7-0.3-1.1-0.4s-0.7-0.2-1-0.2c-0.6,0-0.9,0.2-0.9,0.5c0,0.2,0.1,0.3,0.3,0.5s0.6,0.3,1.3,0.6c0.6,0.2,1,0.5,1.3,0.7
			s0.5,0.5,0.6,0.7S78.4,51.9,78.4,52.3z"/>
		<path class="st0" d="M85.2,44.6h3.1c1.4,0,2.4,0.2,3.1,0.6s1,1,1,1.9c0,0.6-0.1,1.1-0.4,1.5s-0.7,0.6-1.1,0.7v0.1
			c0.6,0.1,1.1,0.4,1.4,0.8s0.4,0.9,0.4,1.5c0,0.9-0.3,1.6-1,2.1s-1.6,0.8-2.7,0.8h-3.7V44.6z M87.3,48.5h1.2c0.6,0,1-0.1,1.2-0.3
			s0.4-0.5,0.4-0.9c0-0.4-0.1-0.7-0.4-0.8s-0.7-0.2-1.3-0.2h-1.1V48.5z M87.3,50.2v2.6h1.4c0.6,0,1-0.1,1.3-0.3s0.4-0.6,0.4-1
			c0-0.8-0.6-1.2-1.8-1.2H87.3z"/>
		<path class="st0" d="M102.1,50.7c0,1.2-0.3,2.2-1,2.9s-1.6,1.1-2.7,1.1c-0.7,0-1.4-0.2-1.9-0.5s-1-0.8-1.3-1.4s-0.5-1.3-0.5-2.1
			c0-1.2,0.3-2.2,1-2.9s1.6-1,2.7-1c0.7,0,1.4,0.2,1.9,0.5s1,0.8,1.3,1.4S102.1,49.9,102.1,50.7z M96.8,50.7c0,0.8,0.1,1.3,0.4,1.7
			s0.7,0.6,1.2,0.6c0.6,0,1-0.2,1.2-0.6s0.4-1,0.4-1.7c0-0.8-0.1-1.3-0.4-1.7s-0.6-0.6-1.2-0.6c-0.6,0-1,0.2-1.2,0.6
			S96.8,50,96.8,50.7z"/>
		<path class="st0" d="M106.6,54.6h-2.1V43.9h2.1V54.6z"/>
		<path class="st0" d="M111.9,54.7c-0.9,0-1.6-0.3-2.1-1S109,52,109,50.7c0-1.3,0.3-2.2,0.8-2.9s1.2-1,2.2-1c1,0,1.7,0.4,2.2,1.1
			h0.1c-0.1-0.6-0.2-1.1-0.2-1.5v-2.4h2.1v10.6h-1.6l-0.4-1h-0.1C113.6,54.3,112.9,54.7,111.9,54.7z M112.6,53
			c0.5,0,0.9-0.2,1.2-0.5s0.4-0.8,0.4-1.6v-0.2c0-0.8-0.1-1.4-0.4-1.8s-0.7-0.5-1.2-0.5c-0.5,0-0.8,0.2-1.1,0.6s-0.4,1-0.4,1.7
			s0.1,1.3,0.4,1.7S112.2,53,112.6,53z"/>
	</g>
</g>
</svg>
